<svg width="66" height="66" viewBox="0 0 66 66" fill="none" xmlns="http://www.w3.org/2000/svg">
<rect width="66" height="66" rx="33" fill="white"/>
<path d="M34.6875 19.5H31.3125C31.002 19.5 30.75 19.248 30.75 18.9375C30.75 18.627 31.002 18.375 31.3125 18.375H34.6875C34.998 18.375 35.25 18.627 35.25 18.9375C35.25 19.248 34.998 19.5 34.6875 19.5Z" fill="black"/>
<path d="M39.1875 49.875H26.8125C25.2611 49.875 24 48.6127 24 47.0625V27.9375C24 27.627 24.252 27.375 24.5625 27.375C24.873 27.375 25.125 27.627 25.125 27.9375V47.0625C25.125 47.9929 25.8821 48.75 26.8125 48.75H39.1875C40.1179 48.75 40.875 47.9929 40.875 47.0625V27.9375C40.875 27.627 41.127 27.375 41.4375 27.375C41.748 27.375 42 27.627 42 27.9375V47.0625C42 48.6127 40.7389 49.875 39.1875 49.875Z" fill="black"/>
<path d="M41.4375 31.875C41.127 31.875 40.875 31.623 40.875 31.3125V18.9375C40.875 18.0071 40.1179 17.25 39.1875 17.25H26.8125C25.8821 17.25 25.125 18.0071 25.125 18.9375V31.3125C25.125 31.623 24.873 31.875 24.5625 31.875C24.252 31.875 24 31.623 24 31.3125V18.9375C24 17.3872 25.2611 16.125 26.8125 16.125H39.1875C40.7389 16.125 42 17.3872 42 18.9375V31.3125C42 31.623 41.748 31.875 41.4375 31.875Z" fill="black"/>
<path d="M44.8125 21.8063C44.502 21.8063 44.25 21.6105 44.25 21.3V21.1875C44.25 20.877 44.502 20.625 44.8125 20.625C45.123 20.625 45.375 20.877 45.375 21.1875C45.375 21.498 45.123 21.8063 44.8125 21.8063Z" fill="black"/>
<path d="M44.8125 24.0563C44.502 24.0563 44.25 23.8605 44.25 23.55V23.4375C44.25 23.127 44.502 22.875 44.8125 22.875C45.123 22.875 45.375 23.127 45.375 23.4375C45.375 23.748 45.123 24.0563 44.8125 24.0563Z" fill="black"/>
<path d="M44.8125 26.3063C44.502 26.3063 44.25 26.1105 44.25 25.8V25.6875C44.25 25.377 44.502 25.125 44.8125 25.125C45.123 25.125 45.375 25.377 45.375 25.6875C45.375 25.998 45.123 26.3063 44.8125 26.3063Z" fill="black"/>
<path d="M21.1875 40.8187C20.877 40.8187 20.625 40.623 20.625 40.3125V40.2C20.625 39.8895 20.877 39.6375 21.1875 39.6375C21.498 39.6375 21.75 39.8895 21.75 40.2C21.75 40.5105 21.498 40.8187 21.1875 40.8187Z" fill="black"/>
<path d="M21.1875 43.0687C20.877 43.0687 20.625 42.873 20.625 42.5625V42.45C20.625 42.1395 20.877 41.8875 21.1875 41.8875C21.498 41.8875 21.75 42.1395 21.75 42.45C21.75 42.7605 21.498 43.0687 21.1875 43.0687Z" fill="black"/>
<path d="M21.1875 45.3187C20.877 45.3187 20.625 45.123 20.625 44.8125V44.7C20.625 44.3895 20.877 44.1375 21.1875 44.1375C21.498 44.1375 21.75 44.3895 21.75 44.7C21.75 45.0105 21.498 45.3187 21.1875 45.3187Z" fill="black"/>
<path d="M42.9461 45.375C42.9067 45.375 42.8663 45.3716 42.8269 45.3626C42.5231 45.2974 42.3307 44.9981 42.396 44.6944L42.7672 42.9731C42.8122 42.7616 42.9754 42.5963 43.1846 42.5456C43.7156 42.4174 44.2331 42.2014 44.7225 41.9032C44.9036 41.7907 45.1365 41.7941 45.3176 41.9089L46.4314 42.621L47.121 41.9257L46.4089 40.821C46.2919 40.6399 46.2896 40.407 46.401 40.2236C46.6991 39.7342 46.9151 39.2168 47.0423 38.6858C47.0929 38.4765 47.2571 38.3145 47.4675 38.2672L48.75 37.9826V37.0185L47.4686 36.7339C47.2583 36.6866 47.094 36.5246 47.0434 36.3154C46.9162 35.7844 46.6991 35.2669 46.4021 34.7775C46.2896 34.5941 46.2919 34.3624 46.4089 34.1812L47.1221 33.0664L46.4336 32.3779L45.3188 33.0911C45.1376 33.207 44.9059 33.2093 44.7236 33.0968C44.2331 32.7986 43.7156 32.5826 43.1858 32.4544C42.9754 32.4038 42.8134 32.2373 42.7684 32.0269L42.4916 30.75H42C41.6895 30.75 41.4375 30.498 41.4375 30.1875C41.4375 29.877 41.6895 29.625 42 29.625H42.945C43.2094 29.625 43.4389 29.8106 43.494 30.0694L43.7944 31.4565C44.2061 31.5814 44.61 31.7501 44.9993 31.9605L46.2075 31.1876C46.4302 31.0459 46.7205 31.0774 46.9084 31.2641L48.237 32.5916C48.4238 32.7784 48.4553 33.0698 48.3124 33.2925L47.5395 34.5007C47.7499 34.8911 47.9186 35.295 48.0435 35.7079L49.4329 36.0161C49.6916 36.0735 49.875 36.303 49.875 36.5662V38.4338C49.875 38.697 49.6916 38.9265 49.434 38.9828L48.0446 39.291C47.9197 39.7039 47.751 40.1077 47.5406 40.497L48.3124 41.694C48.4564 41.9156 48.426 42.2081 48.2392 42.3949L46.9106 43.7336C46.7227 43.9215 46.4314 43.953 46.2086 43.8113L45.0004 43.0384C44.61 43.2488 44.2073 43.4175 43.7955 43.5424L43.4951 44.9295C43.4378 45.195 43.2037 45.375 42.9461 45.375Z" fill="black"/>
<path d="M43.5652 40.4002C43.3852 40.4002 43.2074 40.3125 43.0983 40.1516C42.9251 39.894 42.9937 39.5441 43.2524 39.3709C43.8768 38.9501 44.2503 38.2504 44.2503 37.5C44.2503 36.2591 43.2412 35.25 42.0003 35.25C41.8473 35.25 41.6954 35.2658 41.5503 35.295C41.2488 35.3558 40.9484 35.1622 40.8854 34.8562C40.8236 34.5514 41.0193 34.2544 41.3242 34.1925C41.5447 34.1486 41.7719 34.125 42.0003 34.125C43.8611 34.125 45.3753 35.6392 45.3753 37.5C45.3753 38.6261 44.8162 39.6746 43.8779 40.3046C43.7823 40.3688 43.6732 40.4002 43.5652 40.4002Z" fill="black"/>
<path d="M24 31.8749C22.1392 31.8749 20.625 30.3607 20.625 28.4999C20.625 27.3693 21.1875 26.3197 22.1302 25.6897C22.3856 25.5187 22.7366 25.5862 22.9099 25.846C23.082 26.1037 23.0123 26.4535 22.7535 26.6257C22.1258 27.0464 21.75 27.7462 21.75 28.4999C21.75 29.7408 22.7591 30.7499 24 30.7499C24.1507 30.7499 24.2993 30.7353 24.441 30.706C24.7391 30.6442 25.0417 30.841 25.1036 31.147C25.1655 31.4519 24.9675 31.7478 24.6626 31.8085C24.4477 31.8524 24.2273 31.8749 24 31.8749Z" fill="black"/>
<path d="M24 36.3749H23.055C22.7906 36.3749 22.5611 36.1893 22.506 35.9306L22.2056 34.5434C21.7939 34.4186 21.39 34.2498 21.0008 34.0394L19.7925 34.8123C19.5686 34.9541 19.2795 34.9237 19.0916 34.7358L17.763 33.4083C17.5763 33.2216 17.5447 32.9302 17.6876 32.7074L18.4605 31.4992C18.2501 31.1088 18.0814 30.7049 17.9565 30.2921L16.5671 29.9838C16.3084 29.9264 16.125 29.6969 16.125 29.4337V27.5662C16.125 27.3029 16.3084 27.0734 16.566 27.0172L17.9554 26.7089C18.0803 26.2961 18.249 25.8922 18.4594 25.5029L17.6888 24.3048C17.5448 24.0832 17.5751 23.7907 17.7619 23.6039L19.0905 22.2652C19.2761 22.0762 19.5686 22.0447 19.7925 22.1876L21.0008 22.9604C21.3911 22.7501 21.7939 22.5813 22.2056 22.4564L22.506 21.0693C22.5712 20.7644 22.8761 20.5709 23.1742 20.6384C23.478 20.7037 23.6704 21.0029 23.6051 21.3067L23.2339 23.0279C23.1889 23.2394 23.0258 23.4048 22.8165 23.4554C22.2855 23.5837 21.768 23.7997 21.2775 24.0978C21.0953 24.2103 20.8635 24.2069 20.6824 24.0922L19.5686 23.3801L18.8779 24.0753L19.59 25.1801C19.7081 25.3612 19.7104 25.5941 19.5979 25.7774C19.2997 26.2668 19.0838 26.7843 18.9566 27.3153C18.906 27.5246 18.7418 27.6866 18.5314 27.7338L17.25 28.0173V28.9814L18.5314 29.2661C18.7418 29.3133 18.906 29.4753 18.9566 29.6846C19.0838 30.2156 19.3009 30.7331 19.5979 31.2224C19.7104 31.4058 19.7081 31.6376 19.5911 31.8187L18.8779 32.9324L19.5664 33.6209L20.6813 32.9077C20.8624 32.7929 21.0953 32.7907 21.2764 32.9021C21.7669 33.2002 22.2844 33.4162 22.8142 33.5444C23.0246 33.5951 23.1866 33.7616 23.2316 33.9719L23.5084 35.2499H24C24.3105 35.2499 24.5625 35.5019 24.5625 35.8124C24.5625 36.1229 24.3105 36.3749 24 36.3749Z" fill="black"/>
<path d="M32.4376 35.8126C32.3926 35.8126 32.3476 35.807 32.3015 35.7957C31.9989 35.7204 31.8166 35.4155 31.892 35.114L33.017 30.614C33.0912 30.3114 33.3916 30.1291 33.6987 30.2045C34.0014 30.2799 34.1836 30.5847 34.1082 30.8862L32.9832 35.3862C32.9202 35.6427 32.6907 35.8126 32.4376 35.8126Z" fill="black"/>
<path d="M35.8128 35.8126C35.6688 35.8126 35.5248 35.7575 35.4145 35.6484C35.1952 35.429 35.1952 35.0724 35.4145 34.853L37.2674 33.0001L35.4157 31.1484C35.1963 30.929 35.1963 30.5724 35.4157 30.353C35.635 30.1336 35.9917 30.1336 36.211 30.353L38.461 32.603C38.6804 32.8224 38.6804 33.179 38.461 33.3984L36.211 35.6484C36.1008 35.7575 35.9568 35.8126 35.8128 35.8126Z" fill="black"/>
<path d="M30.1878 35.8126C30.0438 35.8126 29.8998 35.7575 29.7895 35.6484L27.5395 33.3984C27.3202 33.179 27.3202 32.8224 27.5395 32.603L29.7895 30.353C30.0089 30.1336 30.3655 30.1336 30.5849 30.353C30.8043 30.5724 30.8043 30.929 30.5849 31.1484L28.7332 33.0001L30.5849 34.8519C30.8043 35.0713 30.8043 35.4279 30.5849 35.6473C30.4758 35.7575 30.3318 35.8126 30.1878 35.8126Z" fill="black"/>
</svg>
