<svg width="60" height="60" viewBox="0 0 60 60" fill="none" xmlns="http://www.w3.org/2000/svg">
<path d="M54.375 3.75H5.625C4.58862 3.75 3.75 4.58954 3.75 5.625V37.5C3.75 38.5355 4.58862 39.375 5.625 39.375H9.72061C10.4971 41.5528 12.5589 43.125 15 43.125C17.4411 43.125 19.503 41.5528 20.2795 39.375H31.0986L30.5493 39.9243C29.8169 40.6567 29.8169 41.8433 30.5493 42.5757C30.9155 42.9419 31.3953 43.125 31.875 43.125C32.3547 43.125 32.8345 42.9419 33.2007 42.5757L36.9507 38.8257C37.6831 38.0933 37.6831 36.9067 36.9507 36.1743L33.2007 32.4243C32.4683 31.6919 31.2817 31.6919 30.5493 32.4243C29.8169 33.1567 29.8169 34.3433 30.5493 35.0757L31.0986 35.625H20.2795C19.503 33.4472 17.4411 31.875 15 31.875C12.5589 31.875 10.497 33.4472 9.7205 35.625H7.5V18.75H52.5V35.625H50.2795C49.503 33.4472 47.4411 31.875 45 31.875C41.8982 31.875 39.375 34.3982 39.375 37.5C39.375 39.9411 40.9472 42.0029 43.125 42.7794V48.75H28.9014L29.4507 48.2007C30.1831 47.4683 30.1831 46.2817 29.4507 45.5493C28.7183 44.8169 27.5317 44.8169 26.7993 45.5493L23.0493 49.2993C22.3169 50.0317 22.3169 51.2183 23.0493 51.9507L26.7993 55.7007C27.1655 56.0669 27.6453 56.25 28.125 56.25C28.6047 56.25 29.0845 56.0669 29.4507 55.7007C30.1831 54.9683 30.1831 53.7817 29.4507 53.0493L28.9014 52.5H45C46.0364 52.5 46.875 51.6605 46.875 50.625V42.7795C48.4634 42.2131 49.7131 40.9634 50.2795 39.375H54.375C55.4114 39.375 56.25 38.5355 56.25 37.5V5.625C56.25 4.58954 55.4114 3.75 54.375 3.75ZM15 35.625C16.0345 35.625 16.875 36.4664 16.875 37.5C16.875 38.5336 16.0345 39.375 15 39.375C13.9655 39.375 13.125 38.5336 13.125 37.5C13.125 36.4664 13.9655 35.625 15 35.625ZM45 39.375C43.9655 39.375 43.125 38.5336 43.125 37.5C43.125 36.4664 43.9655 35.625 45 35.625C46.0345 35.625 46.875 36.4664 46.875 37.5C46.875 38.5336 46.0345 39.375 45 39.375ZM23.6591 15L27.4091 7.5H30.7159L26.9659 15H23.6591ZM7.5 7.5H23.2159L19.4659 15H7.5V7.5ZM31.1591 15L34.9091 7.5H52.5V15H31.1591Z" fill="white"/>
<path d="M11.25 13.125C12.2855 13.125 13.125 12.2855 13.125 11.25C13.125 10.2145 12.2855 9.375 11.25 9.375C10.2145 9.375 9.375 10.2145 9.375 11.25C9.375 12.2855 10.2145 13.125 11.25 13.125Z" fill="white"/>
<path d="M16.875 13.125C17.9105 13.125 18.75 12.2855 18.75 11.25C18.75 10.2145 17.9105 9.375 16.875 9.375C15.8395 9.375 15 10.2145 15 11.25C15 12.2855 15.8395 13.125 16.875 13.125Z" fill="white"/>
<path d="M23.8257 21.1743C23.0933 20.4419 21.9067 20.4419 21.1743 21.1743L17.4243 24.9243C16.6919 25.6567 16.6919 26.8433 17.4243 27.5757L21.1743 31.3257C21.5405 31.6919 22.0203 31.875 22.5 31.875C22.9797 31.875 23.4595 31.6919 23.8257 31.3257C24.5581 30.5933 24.5581 29.4067 23.8257 28.6743L21.4014 26.25L23.8257 23.8257C24.5581 23.0933 24.5581 21.9067 23.8257 21.1743Z" fill="white"/>
<path d="M36.1743 31.3257C36.5405 31.6919 37.0203 31.875 37.5 31.875C37.9797 31.875 38.4595 31.6919 38.8257 31.3257L42.5757 27.5757C43.3081 26.8433 43.3081 25.6567 42.5757 24.9243L38.8257 21.1743C38.0933 20.4419 36.9067 20.4419 36.1743 21.1743C35.4419 21.9067 35.4419 23.0933 36.1743 23.8257L38.5986 26.25L36.1743 28.6743C35.4419 29.4067 35.4419 30.5933 36.1743 31.3257Z" fill="white"/>
<path d="M30.1985 21.6616L26.4485 29.1616C25.9852 30.0881 26.3606 31.2142 27.2871 31.6775C27.5562 31.812 27.8419 31.8752 28.1239 31.8752C28.8124 31.8752 29.4734 31.4962 29.803 30.8388L33.553 23.3388C34.0162 22.4123 33.6408 21.2862 32.7143 20.823C31.7878 20.3597 30.6635 20.7351 30.1985 21.6616Z" fill="white"/>
<path d="M15 45C11.8982 45 9.375 47.5232 9.375 50.625C9.375 53.7268 11.8982 56.25 15 56.25C18.1018 56.25 20.625 53.7268 20.625 50.625C20.625 47.5232 18.1018 45 15 45ZM15 52.5C13.9655 52.5 13.125 51.6586 13.125 50.625C13.125 49.5914 13.9655 48.75 15 48.75C16.0345 48.75 16.875 49.5914 16.875 50.625C16.875 51.6586 16.0345 52.5 15 52.5Z" fill="white"/>
</svg>
