<svg width="60" height="60" viewBox="0 0 60 60" fill="none" xmlns="http://www.w3.org/2000/svg">
<g clip-path="url(#clip0_1203_1339)">
<path d="M27.5977 4.36768H8.16047C3.66082 4.36768 0 8.02861 0 12.5283V23.0112C0 27.5109 3.66082 31.1717 8.16047 31.1717H12.3393V33.7112C9.63727 34.3799 7.62773 36.8238 7.62773 39.7295V40.9867C7.62773 42.4435 8.1341 43.7837 8.97844 44.8432H6.67453C2.99426 44.8432 0 47.8374 0 51.5178V58.828C0 59.4751 0.524648 59.9999 1.17188 59.9999H26.4844C27.1316 59.9999 27.6563 59.4751 27.6563 58.828V51.5178C27.6563 47.8374 24.662 44.8432 20.9816 44.8432H18.6777C19.522 43.7837 20.0284 42.4435 20.0284 40.9867V39.7295C20.0284 36.9677 18.2129 34.6228 15.713 33.8231L18.3645 31.1717H27.5977C32.0973 31.1717 35.7581 27.5109 35.7581 23.0112V12.5283C35.7581 8.02861 32.0973 4.36768 27.5977 4.36768ZM20.9816 47.1869C23.3696 47.1869 25.3125 49.1298 25.3125 51.5178V57.6561H2.34375V51.5178C2.34375 49.1298 4.2866 47.1869 6.67465 47.1869H12.6563V49.5616C12.6563 50.2087 13.1809 50.7335 13.8281 50.7335C14.4754 50.7335 15 50.2087 15 49.5616V47.1869H20.9816ZM17.6846 39.7295V40.9867C17.6846 43.1131 15.9546 44.8432 13.8281 44.8432C11.7016 44.8432 9.9716 43.1131 9.9716 40.9867V39.7295C9.9716 37.603 11.7016 35.8731 13.8281 35.8731C15.9546 35.8731 17.6846 37.6031 17.6846 39.7295ZM33.4144 23.0112C33.4144 26.2186 30.805 28.828 27.5977 28.828H17.8791C17.5683 28.828 17.2702 28.9515 17.0504 29.1712L14.683 31.5387V29.9999C14.683 29.3528 14.1584 28.828 13.5111 28.828H8.16047C4.95316 28.828 2.34375 26.2186 2.34375 23.0112V12.5283C2.34375 9.32084 4.95316 6.71143 8.16047 6.71143H27.5977C30.8051 6.71143 33.4144 9.32084 33.4144 12.5283V23.0112Z" fill="black"/>
<path d="M53.3254 44.8432H51.0214C51.8658 43.7837 52.3721 42.4435 52.3721 40.9866V39.7295C52.3721 36.3106 49.5907 33.5293 46.1719 33.5293C42.753 33.5293 39.9716 36.3106 39.9716 39.7295V40.9866C39.9716 42.4435 40.478 43.7837 41.3223 44.8432H39.0184C35.338 44.8432 32.3438 47.8374 32.3438 51.5178V58.828C32.3438 59.4751 32.8684 59.9998 33.5156 59.9998H58.8281C59.4754 59.9998 60 59.4751 60 58.828V51.5178C60 47.8374 57.0057 44.8432 53.3254 44.8432ZM42.3154 39.7295C42.3154 37.603 44.0454 35.873 46.1719 35.873C48.2984 35.873 50.0284 37.6031 50.0284 39.7295V40.9866C50.0284 43.1131 48.2984 44.8432 46.1719 44.8432C44.0454 44.8432 42.3154 43.1131 42.3154 40.9866V39.7295ZM57.6562 57.6561H34.6875V51.5178C34.6875 49.1298 36.6304 47.1869 39.0184 47.1869H45V50.1612C45 50.8084 45.5246 51.3331 46.1719 51.3331C46.8191 51.3331 47.3438 50.8084 47.3438 50.1612V47.1869H53.3254C55.7134 47.1869 57.6562 49.1298 57.6562 51.5178V57.6561Z" fill="black"/>
<path d="M14.6566 53.0392C14.4387 52.8199 14.1363 52.6958 13.8281 52.6958C13.5199 52.6958 13.2176 52.82 12.9996 53.0392C12.7816 53.2571 12.6562 53.5584 12.6562 53.8677C12.6562 54.1759 12.7816 54.4782 12.9996 54.6962C13.2176 54.914 13.5199 55.0396 13.8281 55.0396C14.1363 55.0396 14.4387 54.9142 14.6566 54.6962C14.8746 54.4782 15 54.1759 15 53.8677C15 53.5583 14.8746 53.2571 14.6566 53.0392Z" fill="black"/>
<path d="M51.8395 0H32.4023C31.7551 0 31.2305 0.524766 31.2305 1.17188C31.2305 1.81898 31.7551 2.34375 32.4023 2.34375H51.8395C55.0468 2.34375 57.6562 4.95316 57.6562 8.16059V18.6435C57.6562 21.8509 55.0468 24.4603 51.8395 24.4603H46.4889C45.8416 24.4603 45.317 24.9851 45.317 25.6322V27.171L42.9496 24.8036C42.7298 24.5838 42.4318 24.4603 42.1209 24.4603H39.5704C38.9231 24.4603 38.3985 24.9851 38.3985 25.6322C38.3985 26.2793 38.9231 26.8041 39.5704 26.8041H41.6355L45.6602 30.8287C45.8844 31.0529 46.1841 31.172 46.4891 31.172C46.64 31.172 46.7923 31.1428 46.9372 31.0828C47.3752 30.9014 47.6606 30.4741 47.6606 30.0001V26.8042H51.8394C56.3391 26.8042 59.9999 23.1434 59.9999 18.6436V8.16059C60 3.66082 56.3392 0 51.8395 0Z" fill="black"/>
<path d="M26.0165 10.646H23.3906C22.7434 10.646 22.2188 11.1708 22.2188 11.8179C22.2188 12.4009 22.645 12.8831 23.2027 12.9733L18.9165 17.2595L16.3151 14.658C15.8575 14.2005 15.1154 14.2005 14.6578 14.658L7.97509 21.3406C7.51748 21.7983 7.51736 22.5403 7.97509 22.998C8.20396 23.2268 8.50384 23.3413 8.80373 23.3413C9.10361 23.3413 9.40361 23.2268 9.63236 22.998L15.4865 17.1439L18.0878 19.7453C18.5454 20.2028 19.2874 20.2028 19.7451 19.7453L24.8608 14.6297C24.9501 15.1882 25.4327 15.6154 26.0165 15.6154C26.6637 15.6154 27.1883 15.0907 27.1883 14.4436V11.8179C27.1883 11.1708 26.6637 10.646 26.0165 10.646Z" fill="black"/>
<path d="M44.9997 17.5781H39.2939C38.6467 17.5781 38.1221 18.1029 38.1221 18.75C38.1221 19.3971 38.6467 19.9219 39.2939 19.9219H44.9997C45.6469 19.9219 46.1716 19.3971 46.1716 18.75C46.1716 18.1029 45.6469 17.5781 44.9997 17.5781Z" fill="black"/>
<path d="M50.7504 17.9215C50.5324 17.7035 50.2301 17.5781 49.9219 17.5781C49.6137 17.5781 49.3113 17.7034 49.0934 17.9215C48.8754 18.1395 48.75 18.4418 48.75 18.75C48.75 19.0582 48.8754 19.3605 49.0934 19.5784C49.3113 19.7964 49.6137 19.9219 49.9219 19.9219C50.2301 19.9219 50.5324 19.7965 50.7504 19.5784C50.9684 19.3605 51.0938 19.0582 51.0938 18.75C51.0938 18.4418 50.9684 18.1395 50.7504 17.9215Z" fill="black"/>
<path d="M52.4997 6.32812H39.2939C38.6467 6.32812 38.1221 6.85289 38.1221 7.5C38.1221 8.14711 38.6467 8.67188 39.2939 8.67188H52.4997C53.1469 8.67188 53.6716 8.14711 53.6716 7.5C53.6716 6.85289 53.1469 6.32812 52.4997 6.32812Z" fill="black"/>
<path d="M52.4997 11.9531H39.2939C38.6467 11.9531 38.1221 12.4779 38.1221 13.125C38.1221 13.7721 38.6467 14.2969 39.2939 14.2969H52.4997C53.1469 14.2969 53.6716 13.7721 53.6716 13.125C53.6716 12.4779 53.1469 11.9531 52.4997 11.9531Z" fill="black"/>
</g>
<defs>
<clipPath id="clip0_1203_1339">
<rect width="60" height="60" fill="black"/>
</clipPath>
</defs>
</svg>
