<svg width="41" height="41" viewBox="0 0 41 41" fill="none" xmlns="http://www.w3.org/2000/svg">
<g clip-path="url(#clip0_2950_3138)">
<path d="M17.9527 19.9159V23.4012C17.9527 23.6498 17.8539 23.8883 17.6781 24.0641C17.5023 24.2399 17.2638 24.3387 17.0152 24.3387C16.7666 24.3387 16.5281 24.2399 16.3523 24.0641C16.1765 23.8883 16.0777 23.6498 16.0777 23.4012V19.9159C16.0777 19.6672 16.1765 19.4288 16.3523 19.253C16.5281 19.0771 16.7666 18.9784 17.0152 18.9784C17.2638 18.9784 17.5023 19.0771 17.6781 19.253C17.8539 19.4288 17.9527 19.6672 17.9527 19.9159ZM20.5005 17.7313C20.2519 17.7313 20.0134 17.83 19.8376 18.0059C19.6618 18.1817 19.563 18.4201 19.563 18.6688V23.4012C19.563 23.6498 19.6618 23.8883 19.8376 24.0641C20.0134 24.2399 20.2519 24.3387 20.5005 24.3387C20.7492 24.3387 20.9876 24.2399 21.1634 24.0641C21.3392 23.8883 21.438 23.6498 21.438 23.4012V18.6688C21.438 18.4201 21.3392 18.1817 21.1634 18.0059C20.9876 17.83 20.7492 17.7313 20.5005 17.7313ZM23.9857 16.2638C23.7371 16.2638 23.4987 16.3625 23.3228 16.5384C23.147 16.7142 23.0482 16.9526 23.0482 17.2013V23.4012C23.0482 23.6498 23.147 23.8883 23.3228 24.0641C23.4987 24.2399 23.7371 24.3387 23.9857 24.3387C24.2344 24.3387 24.4728 24.2399 24.6487 24.0641C24.8245 23.8883 24.9232 23.6498 24.9232 23.4012V17.2013C24.9232 16.9526 24.8245 16.7142 24.6487 16.5384C24.4728 16.3625 24.2344 16.2638 23.9857 16.2638ZM40.5005 20.5001C40.5006 21.4967 40.1347 22.4585 39.4723 23.203C38.8098 23.9475 37.897 24.4228 36.9071 24.5384C35.9173 24.6541 34.9195 24.4022 34.1032 23.8306C33.2869 23.2589 32.709 22.4073 32.4793 21.4376H29.9861C29.802 23.3114 29.0646 25.0881 27.8677 26.5416L29.6329 28.3067C30.4807 27.7838 31.4911 27.5904 32.4722 27.7634C33.4532 27.9364 34.3365 28.4636 34.9544 29.245C35.5723 30.0264 35.8817 31.0075 35.8238 32.002C35.7659 32.9965 35.3448 33.9351 34.6405 34.6395C33.9361 35.344 32.9976 35.7652 32.0031 35.8232C31.0086 35.8812 30.0274 35.5719 29.246 34.9541C28.4645 34.3363 27.9372 33.4531 27.7641 32.472C27.591 31.491 27.7842 30.4806 28.3071 29.6327L26.5418 27.8671C25.0883 29.064 23.3116 29.8014 21.4377 29.9854V32.4785C22.4074 32.7083 23.259 33.2862 23.8306 34.1025C24.4022 34.9189 24.6541 35.9167 24.5384 36.9065C24.4227 37.8964 23.9475 38.8092 23.2031 39.4718C22.4586 40.1343 21.4968 40.5003 20.5002 40.5003C19.5036 40.5003 18.5418 40.1343 17.7973 39.4718C17.0529 38.8092 16.5777 37.8964 16.462 36.9065C16.3463 35.9167 16.5982 34.9189 17.1698 34.1025C17.7414 33.2862 18.593 32.7083 19.5627 32.4785V29.9856C17.6889 29.8014 15.9123 29.0638 14.459 27.8668L12.6933 29.6324C13.2148 30.4796 13.407 31.4887 13.2334 32.4682C13.0599 33.4476 12.5327 34.3293 11.752 34.9457C10.9713 35.5621 9.99135 35.8704 8.99832 35.8119C8.0053 35.7534 7.06832 35.3324 6.36531 34.6286C5.66229 33.9248 5.2422 32.9874 5.18479 31.9943C5.12739 31.0012 5.43667 30.0217 6.05391 29.2416C6.67115 28.4615 7.55336 27.9352 8.53303 27.7628C9.5127 27.5903 10.5216 27.7835 11.3682 28.3059L13.1338 26.5403C11.9371 25.0868 11.1998 23.3102 11.0157 21.4364H8.52184C8.29205 22.4061 7.7141 23.2577 6.89777 23.8293C6.08144 24.4009 5.08359 24.6528 4.09376 24.5371C3.10393 24.4215 2.19106 23.9463 1.52854 23.2018C0.866021 22.4574 0.5 21.4955 0.5 20.4989C0.5 19.5024 0.866021 18.5405 1.52854 17.796C2.19106 17.0516 3.10393 16.5764 4.09376 16.4607C5.08359 16.345 6.08144 16.5969 6.89777 17.1685C7.7141 17.7402 8.29205 18.5917 8.52184 19.5614H11.0152C11.1994 17.688 11.9367 15.9118 13.1333 14.4586L11.3685 12.6935C10.5206 13.2165 9.5102 13.41 8.52908 13.2372C7.54796 13.0643 6.6645 12.5371 6.04649 11.7558C5.42848 10.9744 5.11897 9.99325 5.17673 8.9987C5.2345 8.00415 5.65552 7.06544 6.35984 6.36088C7.06416 5.65631 8.00271 5.23496 8.99724 5.17684C9.99177 5.11872 10.973 5.42789 11.7546 6.04563C12.5362 6.66336 13.0637 7.54663 13.2369 8.52769C13.4101 9.50875 13.217 10.5193 12.6942 11.3673L14.4598 13.1329C15.9131 11.9362 17.6895 11.1988 19.563 11.0145V8.52127C18.5933 8.29147 17.7417 7.71351 17.1701 6.89717C16.5984 6.08083 16.3465 5.08296 16.4622 4.09311C16.5779 3.10326 17.0531 2.19037 17.7976 1.52783C18.542 0.865296 19.5039 0.499268 20.5005 0.499268C21.4971 0.499268 22.459 0.865296 23.2035 1.52783C23.9479 2.19037 24.4231 3.10326 24.5388 4.09311C24.6545 5.08296 24.4026 6.08083 23.8309 6.89717C23.2593 7.71351 22.4077 8.29147 21.438 8.52127V11.0145C23.3117 11.1987 25.0883 11.9361 26.5417 13.1329L28.3079 11.3668C27.7866 10.5196 27.5946 9.51055 27.7684 8.53116C27.9421 7.55177 28.4694 6.67027 29.2503 6.05406C30.0311 5.43785 31.011 5.12983 32.0039 5.18849C32.9969 5.24716 33.9337 5.66842 34.6366 6.37228C35.3394 7.07614 35.7593 8.0136 35.8165 9.00663C35.8737 9.99967 35.5642 10.9791 34.9468 11.759C34.3295 12.5389 33.4472 13.065 32.4676 13.2373C31.4879 13.4096 30.4791 13.2161 29.6327 12.6936L27.8677 14.4587C29.0646 15.9121 29.802 17.6888 29.9861 19.5626H32.4793C32.709 18.5929 33.2869 17.7413 34.1032 17.1696C34.9195 16.598 35.9173 16.3461 36.9071 16.4618C37.897 16.5774 38.8098 17.0527 39.4723 17.7972C40.1347 18.5417 40.5006 19.5035 40.5005 20.5001ZM6.757 20.5001C6.757 20.0668 6.62851 19.6432 6.38778 19.283C6.14705 18.9227 5.80489 18.6419 5.40457 18.4761C5.00426 18.3103 4.56376 18.2669 4.13879 18.3514C3.71382 18.436 3.32346 18.6446 3.01707 18.951C2.71069 19.2574 2.50204 19.6478 2.41752 20.0727C2.333 20.4977 2.37639 20.9382 2.54222 21.3385C2.70805 21.7388 2.98886 22.081 3.34914 22.3217C3.70942 22.5624 4.133 22.6909 4.5663 22.6909C5.14712 22.6902 5.70396 22.4592 6.11465 22.0485C6.52535 21.6378 6.75636 21.0809 6.757 20.5001ZM30.2186 10.782C30.525 11.0884 30.9154 11.297 31.3404 11.3816C31.7653 11.4661 32.2058 11.4227 32.6061 11.2569C33.0065 11.0911 33.3486 10.8103 33.5893 10.45C33.8301 10.0897 33.9586 9.66617 33.9586 9.23287C33.9586 8.79957 33.8301 8.37601 33.5893 8.01573C33.3486 7.65546 33.0065 7.37466 32.6061 7.20885C32.2058 7.04303 31.7653 6.99965 31.3404 7.08419C30.9154 7.16872 30.525 7.37738 30.2186 7.68377C30.0135 7.88622 29.8506 8.12741 29.7394 8.39333C29.6282 8.65926 29.5709 8.94463 29.5709 9.23287C29.5709 9.52111 29.6282 9.80648 29.7394 10.0724C29.8506 10.3383 30.0135 10.5795 30.2186 10.782ZM20.5005 6.75658C20.9338 6.75658 21.3574 6.62809 21.7177 6.38736C22.0779 6.14663 22.3587 5.80447 22.5245 5.40416C22.6904 5.00384 22.7337 4.56334 22.6492 4.13837C22.5647 3.7134 22.356 3.32304 22.0496 3.01666C21.7432 2.71027 21.3528 2.50163 20.9279 2.4171C20.5029 2.33258 20.0624 2.37598 19.6621 2.5418C19.2618 2.70763 18.9196 2.98844 18.6789 3.34872C18.4382 3.70901 18.3097 4.13258 18.3097 4.56588C18.3104 5.1467 18.5414 5.70354 18.9521 6.11423C19.3628 6.52493 19.9197 6.75594 20.5005 6.75658ZM10.7824 10.782C11.1408 10.4236 11.3638 9.952 11.4135 9.44759C11.4632 8.94318 11.3365 8.43715 11.0549 8.01571C10.7733 7.59428 10.3543 7.28352 9.86926 7.13639C9.38423 6.98925 8.86319 7.01485 8.39492 7.20881C7.92665 7.40277 7.54012 7.7531 7.3012 8.20011C7.06227 8.64711 6.98573 9.16313 7.08461 9.66024C7.1835 10.1574 7.45169 10.6048 7.8435 10.9263C8.2353 11.2479 8.72647 11.4236 9.23333 11.4236C9.52113 11.4244 9.80623 11.3681 10.0721 11.258C10.338 11.1478 10.5794 10.986 10.7824 10.782ZM10.7824 30.2182C10.476 29.9118 10.0856 29.7032 9.66067 29.6186C9.2357 29.5341 8.79521 29.5775 8.39489 29.7433C7.99458 29.9091 7.65242 30.1899 7.41169 30.5502C7.17096 30.9105 7.04248 31.334 7.04248 31.7673C7.04248 32.2006 7.17096 32.6242 7.41169 32.9845C7.65242 33.3447 7.99458 33.6255 8.39489 33.7913C8.79521 33.9572 9.2357 34.0005 9.66067 33.916C10.0856 33.8315 10.476 33.6228 10.7824 33.3164C10.9876 33.114 11.1505 32.8728 11.2617 32.6069C11.3729 32.3409 11.4302 32.0556 11.4302 31.7673C11.4302 31.4791 11.3729 31.1937 11.2617 30.9278C11.1505 30.6619 10.9876 30.4207 10.7824 30.2182ZM20.5005 34.2436C20.0672 34.2436 19.6436 34.3721 19.2834 34.6128C18.9231 34.8536 18.6423 35.1957 18.4765 35.596C18.3107 35.9964 18.2673 36.4369 18.3518 36.8618C18.4364 37.2868 18.645 37.6772 18.9514 37.9835C19.2578 38.2899 19.6482 38.4986 20.0732 38.5831C20.4981 38.6676 20.9386 38.6242 21.3389 38.4584C21.7393 38.2926 22.0814 38.0118 22.3221 37.6515C22.5628 37.2912 22.6913 36.8676 22.6913 36.4343C22.6906 35.8535 22.4596 35.2967 22.0489 34.886C21.6382 34.4753 21.0813 34.2443 20.5005 34.2436ZM30.2186 30.2182C29.8602 30.5766 29.6372 31.0482 29.5875 31.5526C29.5378 32.057 29.6646 32.563 29.9462 32.9845C30.2277 33.4059 30.6467 33.7167 31.1318 33.8638C31.6168 34.0109 32.1378 33.9853 32.6061 33.7914C33.0744 33.5974 33.4609 33.2471 33.6998 32.8001C33.9388 32.3531 34.0153 31.8371 33.9164 31.34C33.8175 30.8428 33.5493 30.3954 33.1575 30.0739C32.7657 29.7523 32.2746 29.5766 31.7677 29.5766C31.4799 29.5758 31.1948 29.6321 30.9289 29.7422C30.663 29.8524 30.4216 30.0142 30.2186 30.2182ZM28.1572 20.5001C28.1572 18.9857 27.7082 17.5054 26.8668 16.2463C26.0255 14.9871 24.8297 14.0057 23.4306 13.4262C22.0315 12.8467 20.492 12.6951 19.0068 12.9905C17.5215 13.2859 16.1572 14.0152 15.0864 15.086C14.0156 16.1568 13.2864 17.5211 12.9909 19.0063C12.6955 20.4916 12.8471 22.0311 13.4266 23.4302C14.0061 24.8293 14.9875 26.0251 16.2467 26.8664C17.5058 27.7078 18.9862 28.1568 20.5005 28.1568C22.5305 28.1545 24.4767 27.3471 25.9121 25.9117C27.3475 24.4763 28.155 22.5301 28.1572 20.5001ZM38.6255 20.5001C38.6255 20.0668 38.497 19.6432 38.2563 19.283C38.0156 18.9227 37.6734 18.6419 37.2731 18.4761C36.8728 18.3103 36.4323 18.2669 36.0073 18.3514C35.5824 18.4359 35.192 18.6446 34.8856 18.951C34.5792 19.2574 34.3706 19.6477 34.286 20.0727C34.2015 20.4977 34.2449 20.9382 34.4107 21.3385C34.5765 21.7388 34.8573 22.0809 35.2176 22.3217C35.5779 22.5624 36.0014 22.6909 36.4347 22.6909C37.0156 22.6902 37.5724 22.4592 37.9831 22.0485C38.3938 21.6378 38.6249 21.0809 38.6255 20.5001Z" fill="black"/>
</g>
<defs>
<clipPath id="clip0_2950_3138">
<rect width="40" height="40" fill="white" transform="translate(0.5 0.5)"/>
</clipPath>
</defs>
</svg>
