<svg width="54" height="54" viewBox="0 0 54 54" fill="none" xmlns="http://www.w3.org/2000/svg">
<rect width="54" height="54" rx="27" fill="#FFC649"/>
<path d="M25.4766 14.4043H32.727C33.0295 14.4043 33.2739 14.1598 33.2739 13.8574C33.2739 13.555 33.0295 13.3105 32.727 13.3105H25.4766C25.1741 13.3105 24.9297 13.555 24.9297 13.8574C24.9297 14.1598 25.1741 14.4043 25.4766 14.4043Z" fill="black"/>
<path d="M35.2148 14.4043H35.6912C35.9936 14.4043 36.238 14.1598 36.238 13.8574C36.238 13.555 35.9936 13.3105 35.6912 13.3105H35.2148C34.9124 13.3105 34.668 13.555 34.668 13.8574C34.668 14.1598 34.9124 14.4043 35.2148 14.4043Z" fill="black"/>
<path d="M26.8961 35.5581C26.8687 35.5308 26.8414 35.5089 26.8146 35.4871C26.7812 35.4712 26.749 35.4542 26.7156 35.4378C26.6828 35.4269 26.65 35.416 26.6172 35.405C26.4367 35.3717 26.2508 35.4269 26.1195 35.5576C26.0703 35.6074 26.032 35.667 26.0047 35.7326C25.9773 35.7982 25.9609 35.8693 25.9609 35.9404C25.9609 36.0175 25.9773 36.0886 26.0047 36.1542C26.032 36.2193 26.0703 36.2795 26.1195 36.3287C26.2234 36.4326 26.3602 36.4873 26.5078 36.4873C26.6555 36.4873 26.7927 36.4326 26.8961 36.3287C26.9453 36.2795 26.9836 36.2193 27.0109 36.1542C27.0383 36.0886 27.0547 36.0175 27.0547 35.9404C27.0547 35.8693 27.0383 35.7982 27.0109 35.7326C26.9836 35.667 26.9453 35.6079 26.8961 35.5581Z" fill="black"/>
<path d="M30.8877 35.4876C30.8549 35.4718 30.8281 35.4548 30.7948 35.4384C30.757 35.4275 30.7237 35.4165 30.6914 35.4056C30.6203 35.3941 30.5492 35.3941 30.4776 35.4056C30.4398 35.4165 30.4065 35.4275 30.3742 35.4384C30.3409 35.4548 30.3086 35.4718 30.2813 35.4876C30.2479 35.5095 30.2211 35.5314 30.1992 35.5587C30.0959 35.6577 30.0352 35.7993 30.0352 35.9415C30.0352 36.0186 30.0516 36.0897 30.0789 36.1554C30.1063 36.2204 30.1445 36.2806 30.1992 36.3298C30.2484 36.379 30.3086 36.4228 30.3742 36.4507C30.4398 36.478 30.5109 36.4884 30.582 36.4884C30.7297 36.4884 30.8664 36.4337 30.9703 36.3298C31.0195 36.2806 31.0633 36.2204 31.0906 36.1554C31.1185 36.0897 31.1289 36.0186 31.1289 35.9415C31.1289 35.7993 31.0742 35.6571 30.9703 35.5587C30.943 35.5314 30.9151 35.5095 30.8877 35.4876Z" fill="black"/>
<path d="M34.2734 35.558C34.1695 35.6569 34.1094 35.7986 34.1094 35.9408C34.1094 36.0179 34.1258 36.089 34.1531 36.1546C34.1805 36.2197 34.2187 36.2798 34.2734 36.3291C34.3773 36.433 34.5141 36.4876 34.6562 36.4876C34.7328 36.4876 34.8039 36.4767 34.8695 36.4499C34.9352 36.422 34.9953 36.3783 35.0445 36.3291C35.0937 36.2798 35.1375 36.2197 35.1648 36.1546C35.1922 36.089 35.2031 36.0179 35.2031 35.9408C35.2031 35.7986 35.1479 35.6564 35.0445 35.558C34.8422 35.3501 34.4703 35.3501 34.2734 35.558Z" fill="black"/>
<path d="M15.4551 31.293H17.9598V31.2984C17.9598 32.2555 18.616 33.0539 19.502 33.2836V41.1641C19.502 42.4 20.5082 43.4062 21.7441 43.4062H39.4191C40.6551 43.4062 41.6613 42.4 41.6613 41.1641V12.8359C41.6613 11.6 40.6551 10.5938 39.4191 10.5938H21.7441C20.5082 10.5938 19.502 11.6 19.502 12.8359V19.5898C17.2051 20.4758 15.6246 22.2859 15.6246 24.3695C15.6246 24.5992 15.6465 24.8289 15.6848 25.0586H15.4551C13.7324 25.0586 12.3379 26.4586 12.3379 28.1758C12.3379 29.893 13.7324 31.293 15.4551 31.293ZM20.016 32.2609C19.4801 32.2609 19.0535 31.8289 19.0535 31.2984C19.0535 31.1836 19.0754 31.0688 19.1137 30.9648C19.1191 30.9539 19.1191 30.943 19.1246 30.932C19.2668 30.582 19.6113 30.3359 20.016 30.3359H20.5684C20.7488 30.3359 20.9129 30.2484 21.0168 30.1063C21.1207 29.9586 21.1426 29.7727 21.0824 29.6031C21.0168 29.4227 20.984 29.2367 20.984 29.0672C20.984 27.6344 22.8762 26.4859 25.0254 26.8469C25.2441 26.8852 25.4684 26.7812 25.5832 26.5898C26.2504 25.4852 27.5738 24.7961 29.034 24.7961C31.1668 24.7961 32.9004 26.2672 32.9004 28.0719C32.9004 28.575 32.7691 29.0562 32.5012 29.5156C32.4027 29.6852 32.4027 29.893 32.5012 30.0625C32.5996 30.232 32.7801 30.3359 32.9715 30.3359H32.9988C33.5293 30.3359 33.9613 30.768 33.9613 31.2984C33.9613 31.8289 33.5293 32.2609 32.9988 32.2609H20.016ZM34.3496 41.1313H26.8191C26.5129 41.1313 26.2723 40.8852 26.2723 40.5844C26.2723 40.2836 26.5129 40.0375 26.8191 40.0375H34.3496C34.6504 40.0375 34.8965 40.2836 34.8965 40.5844C34.8965 40.8852 34.6504 41.1313 34.3496 41.1313ZM40.5676 37.7023H20.5957V33.3547H32.9988C34.1309 33.3547 35.0551 32.4305 35.0551 31.2984V31.293H37.5652C39.0035 31.293 40.2121 30.3086 40.5676 28.9852V37.7023ZM20.5957 12.8359C20.5957 12.2016 21.1098 11.6875 21.7441 11.6875H39.4191C40.0535 11.6875 40.5676 12.2016 40.5676 12.8359V27.3938C40.2887 26.3164 39.4465 25.4578 38.3527 25.168C38.6973 24.3695 38.8777 23.5219 38.8777 22.6797C38.8777 18.7859 35.2574 15.625 30.8059 15.625C27.9348 15.625 25.3152 16.9375 23.8715 19.0813C23.4668 19.032 23.073 19.0047 22.6902 19.0047C21.9629 19.0047 21.2574 19.0867 20.5957 19.2453V12.8359ZM15.4551 26.1523H16.3957C16.5762 26.1523 16.7402 26.0648 16.8441 25.9227C16.948 25.775 16.9699 25.5891 16.9098 25.425C16.784 25.0586 16.7184 24.7141 16.7184 24.3695C16.7184 22.0125 19.398 20.0984 22.6902 20.0984C23.1223 20.0984 23.5816 20.1367 24.0465 20.2133C24.2762 20.2516 24.4949 20.1531 24.6098 19.9563C25.8074 17.9602 28.1809 16.7188 30.8059 16.7188C34.6504 16.7188 37.784 19.393 37.784 22.6797C37.784 23.5984 37.5379 24.4953 37.0512 25.332C36.9527 25.5016 36.9691 25.7094 37.0676 25.8789C37.166 26.0484 37.3684 26.1523 37.5652 26.1523C38.6809 26.1523 39.5832 27.0602 39.5832 28.1758C39.5832 29.2914 38.6809 30.1992 37.5652 30.1992H34.7324C34.5027 29.8383 34.1637 29.5539 33.7645 29.3898C33.9176 28.9633 33.9941 28.5258 33.9941 28.0719C33.9941 25.6602 31.7684 23.7023 29.034 23.7023C27.3277 23.7023 25.7582 24.468 24.8504 25.7203C22.1707 25.4359 19.8902 27.0547 19.8902 29.0672C19.8902 29.1273 19.8902 29.1875 19.8957 29.2477C19.2176 29.2859 18.627 29.6578 18.277 30.1992H15.4551C14.3395 30.1992 13.4316 29.2914 13.4316 28.1758C13.4316 27.0602 14.3395 26.1523 15.4551 26.1523Z" fill="black"/>
</svg>
