<svg width="41" height="41" viewBox="0 0 41 41" fill="none" xmlns="http://www.w3.org/2000/svg">
<g clip-path="url(#clip0_2976_1896)">
<path d="M34.9626 26.0513C31.986 26.0513 29.5645 28.4729 29.5645 31.4495C29.5645 33.0014 30.3759 34.6949 31.9763 36.4828C33.0949 37.7325 34.2072 38.5815 34.2539 38.617L34.9625 39.155L35.6711 38.617C35.7179 38.5815 36.8301 37.7326 37.9487 36.4828C39.5491 34.6949 40.3606 33.0014 40.3606 31.4495C40.3608 28.4729 37.9391 26.0513 34.9626 26.0513ZM34.9627 36.1559C33.7488 35.0635 31.9082 33.0629 31.9082 31.4495C31.9082 29.7653 33.2784 28.395 34.9626 28.395C36.6468 28.395 38.017 29.7653 38.017 31.4495C38.017 33.0631 36.1759 35.0638 34.9627 36.1559Z" fill="black"/>
<path d="M33.791 30.436H36.1348V32.7798H33.791V30.436Z" fill="black"/>
<path d="M21.247 29.6285L23.0504 31.4318H8.39617C5.33453 31.4318 2.84375 28.941 2.84375 25.8794C2.84375 22.8179 5.33453 20.327 8.39617 20.327H13.9487V25.7064H27.0513V20.327H32.6038C36.9577 20.327 40.4999 16.7847 40.4999 12.4307C40.4999 8.07684 36.9577 4.53457 32.6038 4.53457H8.04086C7.54352 2.97645 6.08242 1.84473 4.36164 1.84473C2.23234 1.84473 0.5 3.57707 0.5 5.70637C0.5 7.83566 2.23234 9.56801 4.36164 9.56801C6.0825 9.56801 7.54352 8.43629 8.04094 6.87824H32.6038C35.6654 6.87824 38.1562 9.3691 38.1562 12.4307C38.1562 15.4923 35.6654 17.9832 32.6038 17.9832H27.0514V12.6037H13.9487V17.9832H8.39617C4.04219 17.9832 0.5 21.5254 0.5 25.8794C0.5 30.2334 4.04219 33.7756 8.39617 33.7756H23.0503L21.247 35.5789L22.9042 37.2362L27.5367 32.6037L22.9042 27.9712L21.247 29.6285ZM4.36164 7.22426C3.52469 7.22426 2.84375 6.54332 2.84375 5.70637C2.84375 4.86941 3.52469 4.18848 4.36164 4.18848C5.19859 4.18848 5.87945 4.86941 5.87945 5.70637C5.87945 6.54332 5.19859 7.22426 4.36164 7.22426ZM16.2924 14.9475H19.3281V17.2243H21.6719V14.9475H24.7076V23.3626H16.2924V14.9475Z" fill="black"/>
</g>
<defs>
<clipPath id="clip0_2976_1896">
<rect width="40" height="40" fill="white" transform="translate(0.5 0.5)"/>
</clipPath>
</defs>
</svg>
