<svg width="35" height="35" viewBox="0 0 35 35" fill="none" xmlns="http://www.w3.org/2000/svg">
<path d="M26.25 17.5C21.4258 17.5 17.5 21.4252 17.5 26.25C17.5 31.0748 21.4258 35 26.25 35C31.0742 35 35 31.0748 35 26.25C35 21.4252 31.0742 17.5 26.25 17.5ZM26.25 32.5C22.804 32.5 20 29.696 20 26.25C20 22.804 22.804 20 26.25 20C29.696 20 32.5 22.804 32.5 26.25C32.5 29.696 29.696 32.5 26.25 32.5Z" fill="black"/>
<path d="M8.77122 17.5C9.46214 17.5 10.0102 16.9403 10.0102 16.25C10.0102 15.5597 9.44016 15 8.74925 15C8.09617 15 7.45286 14.8999 6.83763 14.7021C6.18211 14.4928 5.47776 14.8529 5.26536 15.5102C5.05418 16.167 5.41551 16.8713 6.07347 17.0825C6.93528 17.3596 7.83616 17.5 8.74925 17.5H8.77122Z" fill="black"/>
<path d="M13.1759 13.1632C12.7121 13.6289 12.1811 14.0165 11.6 14.3149C10.9848 14.6299 10.7431 15.3831 11.058 15.9977C11.279 16.4292 11.7172 16.677 12.1713 16.677C12.363 16.677 12.5583 16.6331 12.7402 16.5391C13.5556 16.121 14.2978 15.579 14.946 14.9283C15.4343 14.4395 15.4318 13.6478 14.9435 13.1602C14.4552 12.6737 13.6642 12.6755 13.1759 13.1632Z" fill="black"/>
<path d="M3.19294 11.6155C2.87556 11.0021 2.12483 10.7604 1.50837 11.0777C0.89558 11.3945 0.655101 12.1483 0.971263 12.7617C1.39119 13.5747 1.93562 14.3157 2.58869 14.9639C2.83284 15.2049 3.15022 15.3258 3.46882 15.3258C3.79109 15.3258 4.11213 15.2025 4.35627 14.9559C4.84211 14.4652 4.83967 13.6742 4.34895 13.1877C3.88142 12.7245 3.49202 12.1953 3.19294 11.6155Z" fill="black"/>
<path d="M16.2492 7.45605C15.5595 7.45605 15.0004 8.05969 15.0004 8.75C15.0004 9.40796 14.8979 10.0574 14.6977 10.6805C14.4853 11.3373 14.8454 12.0416 15.5022 12.254C15.6303 12.2949 15.7597 12.3151 15.8867 12.3151C16.4152 12.3151 16.9047 11.9781 17.0756 11.449C17.3576 10.5774 17.5004 9.66919 17.4992 8.69934V8.66211C17.4992 7.9718 16.9401 7.45605 16.2492 7.45605Z" fill="black"/>
<path d="M2.5 8.74983C2.5 8.10407 2.59766 7.46687 2.79175 6.8559C3.00049 6.19795 2.63672 5.49543 1.97876 5.28669C1.31714 5.07551 0.617676 5.44355 0.408936 6.10029C0.13794 6.95539 0 7.84712 0 8.74983V8.79377C0 9.48408 0.559082 10.0218 1.25 10.0218C1.94092 10.0218 2.5 9.44013 2.5 8.74983Z" fill="black"/>
<path d="M14.2886 5.85307C14.512 6.2791 14.9466 6.52263 15.397 6.52263C15.5923 6.52263 15.7913 6.47685 15.9756 6.37981C16.5872 6.05937 16.824 5.30376 16.503 4.69218C16.0782 3.88225 15.5301 3.14433 14.8733 2.50102C14.3814 2.01701 13.5879 2.02495 13.1058 2.51811C12.6224 3.01128 12.6297 3.8029 13.1229 4.28569C13.5928 4.74712 13.9859 5.27385 14.2886 5.85307Z" fill="black"/>
<path d="M3.40823 4.73497C3.7305 4.73497 4.05398 4.61106 4.29812 4.36326C4.76077 3.89451 5.28934 3.50389 5.86795 3.20237C6.48074 2.88377 6.71878 2.12937 6.40018 1.51658C6.08279 0.903789 5.32474 0.666362 4.7156 0.984355C3.90384 1.40611 3.16409 1.95237 2.51834 2.60667C2.03372 3.09861 2.0386 3.88963 2.53055 4.37486C2.77347 4.61534 3.09085 4.73497 3.40823 4.73497Z" fill="black"/>
<path d="M8.74976 2.5C9.39185 2.5 10.0229 2.59644 10.6272 2.78625C10.7517 2.82532 10.8787 2.84424 11.002 2.84424C11.5342 2.84424 12.0261 2.50244 12.1946 1.96838C12.4009 1.30981 12.0359 0.608521 11.3767 0.401001C10.5308 0.134888 9.64697 0 8.74976 0H8.68384C7.99292 0 7.4668 0.559692 7.4668 1.25C7.4668 1.94031 8.05884 2.5 8.74976 2.5Z" fill="black"/>
<path d="M13.3838 22.8662C12.8955 22.3779 12.1045 22.3779 11.6162 22.8662C11.1279 23.3545 11.1279 24.1455 11.6162 24.6338L11.9824 25H10V18.75H7.5V26.25C7.5 26.9403 8.05908 27.5 8.75 27.5H11.9824L11.6162 27.8662C11.1279 28.3545 11.1279 29.1455 11.6162 29.6338C11.8604 29.8779 12.1802 30 12.5 30C12.8198 30 13.1396 29.8779 13.3838 29.6338L15.8838 27.1338C16.3721 26.6455 16.3721 25.8545 15.8838 25.3662L13.3838 22.8662Z" fill="black"/>
<path d="M25 11.9824L24.6338 11.6162C24.1455 11.1279 23.3545 11.1279 22.8662 11.6162C22.3779 12.1045 22.3779 12.8955 22.8662 13.3838L25.3662 15.8838C25.6104 16.1279 25.9302 16.25 26.25 16.25C26.5698 16.25 26.8896 16.1279 27.1338 15.8838L29.6338 13.3838C30.1221 12.8955 30.1221 12.1045 29.6338 11.6162C29.1455 11.1279 28.3545 11.1279 27.8662 11.6162L27.5 11.9824V8.75C27.5 8.05969 26.9409 7.5 26.25 7.5H18.75V10H25V11.9824Z" fill="black"/>
</svg>
