<svg width="421" height="247" viewBox="0 0 421 247" fill="none" xmlns="http://www.w3.org/2000/svg">
<path d="M213.922 2.5C242.539 2.5 267.002 20.3553 276.893 45.5986L277.837 48.0068L280.212 46.9814C285.777 44.5783 291.903 43.2422 298.351 43.2422C317.394 43.2422 333.743 54.8701 340.727 71.4609L341.584 73.4971L343.71 72.8975C348.793 71.4631 354.143 70.6777 359.675 70.6777C392.153 70.678 418.5 97.1237 418.5 129.768C418.5 159.034 397.32 183.306 369.538 188.018L368.158 188.252L367.637 189.551C357.724 214.23 333.676 231.636 305.58 231.636C296.278 231.636 287.426 229.728 279.382 226.286L277.906 225.655L276.718 226.734C264.558 237.777 248.449 244.5 230.77 244.5C210.964 244.5 193.13 236.053 180.612 222.551L179.202 221.029L177.447 222.135C167.894 228.15 156.61 231.636 144.504 231.636C119.902 231.636 98.6295 217.274 88.5615 196.418L87.5918 194.411L85.4873 195.144C79.0753 197.376 72.1988 198.602 65.0322 198.602C30.508 198.602 2.50007 170.488 2.5 135.785C2.5 103.266 27.0964 76.5353 58.5986 73.3027L60.2686 73.1309L60.7422 71.5205C67.6983 47.8761 89.4645 30.6377 115.235 30.6377C127.958 30.6378 139.701 34.8361 149.173 41.9326L151.609 43.7578L152.926 41.0127C163.856 18.2176 187.067 2.5001 213.922 2.5Z" fill="#FEEE99" stroke="white" stroke-width="5"/>
</svg>
