<svg width="60" height="60" viewBox="0 0 60 60" fill="none" xmlns="http://www.w3.org/2000/svg">
<g clip-path="url(#clip0_3224_2234)">
<path d="M0.878906 13.5844V12.4172C0.878906 11.2524 1.82344 10.3079 2.98828 10.3079H10.7074" stroke="white" stroke-width="2" stroke-miterlimit="10" stroke-linecap="round" stroke-linejoin="round"/>
<path d="M0.878906 17.6858V45.9854C0.878906 46.917 1.25625 47.7608 1.8668 48.3713C2.47734 48.9819 3.32109 49.3592 4.25273 49.3592" stroke="white" stroke-width="2" stroke-miterlimit="10" stroke-linecap="round" stroke-linejoin="round"/>
<path d="M36.4984 49.3594H4.25195C6.11641 49.3594 7.61641 47.7973 7.61641 45.934V20.925C7.61641 19.7602 8.56094 18.8157 9.72578 18.8157H49.5871C50.752 18.8157 51.6965 19.7602 51.6965 20.925V23.4891" stroke="white" stroke-width="2" stroke-miterlimit="10" stroke-linecap="round" stroke-linejoin="round"/>
<path d="M51.6973 32.9085V27.5906" stroke="white" stroke-width="2" stroke-miterlimit="10" stroke-linecap="round" stroke-linejoin="round"/>
<path d="M23.4467 45.2584H12.9004C12.2532 45.2584 11.7285 44.7338 11.7285 44.0865V40.8958C11.7285 40.2485 12.2532 39.7239 12.9004 39.7239H23.4467C24.0939 39.7239 24.6186 40.2485 24.6186 40.8958V44.0865C24.6186 44.7338 24.0939 45.2584 23.4467 45.2584Z" stroke="white" stroke-width="2" stroke-miterlimit="10" stroke-linecap="round" stroke-linejoin="round"/>
<path d="M11.7285 22.9915H17.8962" stroke="white" stroke-width="2" stroke-miterlimit="10" stroke-linecap="round" stroke-linejoin="round"/>
<path d="M11.7285 27.093H21.0089" stroke="white" stroke-width="2" stroke-miterlimit="10" stroke-linecap="round" stroke-linejoin="round"/>
<path d="M48.6066 18.8156V7.96753C48.6066 6.80269 47.6621 5.85815 46.4973 5.85815H12.8164C11.6516 5.85815 10.707 6.80269 10.707 7.96753V18.8156" stroke="white" stroke-width="2" stroke-miterlimit="10" stroke-linecap="round" stroke-linejoin="round"/>
<path d="M27.4395 15.0325L28.4021 9.69855C28.4262 9.57363 28.6004 9.56191 28.641 9.6825L30.2071 14.9909C30.245 15.1039 30.4052 15.1031 30.442 14.9897L31.9547 9.68344C31.9939 9.5625 32.1682 9.57234 32.1936 9.69691L33.2133 15.0325" stroke="white" stroke-width="2" stroke-miterlimit="10" stroke-linecap="round" stroke-linejoin="round"/>
<path d="M23.8558 10.0656C23.4187 9.77028 22.8918 9.5979 22.3246 9.5979C20.8121 9.5979 19.5859 10.824 19.5859 12.3366C19.5859 13.8491 20.8121 15.0752 22.3246 15.0752C22.9389 15.0752 23.4442 14.873 23.8277 14.5315C23.907 14.4608 23.9812 14.3842 24.05 14.3022" stroke="white" stroke-width="2" stroke-miterlimit="10" stroke-linecap="round" stroke-linejoin="round"/>
<path d="M39.5498 10.161C39.5498 10.161 38.5669 9.33483 37.4079 9.68393C36.3437 10.0046 36.1948 11.2316 36.9648 11.7335C36.9648 11.7335 37.7203 12.0706 38.5582 12.3797C40.5754 13.1237 39.7064 15.0751 38.0826 15.0751C37.2694 15.0751 36.5869 14.719 36.1738 14.2633" stroke="white" stroke-width="2" stroke-miterlimit="10" stroke-linecap="round" stroke-linejoin="round"/>
<path d="M59.1209 43.2272V39.8288C59.1209 39.6346 58.9636 39.4772 58.7694 39.4772H56.6439C56.4815 39.4772 56.3379 39.3673 56.3005 39.2092C56.0493 38.1451 55.6283 37.1469 55.0691 36.2432C54.9841 36.1058 55.0074 35.9276 55.1217 35.8133L56.6279 34.3071C56.7652 34.1698 56.7652 33.9473 56.6279 33.8099L54.2248 31.4069C54.0875 31.2695 53.865 31.2695 53.7276 31.4069L52.2214 32.9131C52.1073 33.0272 51.9289 33.0507 51.7916 32.9657C50.8878 32.4065 49.8897 31.9854 48.8255 31.7343C48.6675 31.697 48.5575 31.5532 48.5575 31.3908V29.2654C48.5575 29.0712 48.4002 28.9138 48.206 28.9138H44.8075C44.6134 28.9138 44.456 29.0712 44.456 29.2654V31.3908C44.456 31.5532 44.3461 31.6969 44.188 31.7343C43.1239 31.9854 42.1257 32.4065 41.222 32.9657C41.0846 33.0507 40.9064 33.0273 40.7921 32.9131L39.2859 31.4069C39.1486 31.2695 38.926 31.2695 38.7887 31.4069L36.3856 33.8099C36.2483 33.9473 36.2483 34.1698 36.3856 34.3071L37.8918 35.8133C38.006 35.9275 38.0294 36.1058 37.9445 36.2432C37.3852 37.1469 36.9642 38.145 36.713 39.2092C36.6758 39.3673 36.532 39.4772 36.3696 39.4772H34.2441C34.05 39.4772 33.8926 39.6346 33.8926 39.8288V43.2272C33.8926 43.4214 34.05 43.5788 34.2441 43.5788H36.3696C36.532 43.5788 36.6757 43.6887 36.713 43.8468C36.9642 44.9108 37.3852 45.9091 37.9445 46.8128C38.0294 46.9501 38.0061 47.1284 37.8918 47.2426L36.3856 48.7489C36.2483 48.8862 36.2483 49.1087 36.3856 49.2461L38.7887 51.6491C38.926 51.7865 39.1486 51.7865 39.2859 51.6491L40.7921 50.1429C40.9063 50.0288 41.0846 50.0053 41.222 50.0903C42.1257 50.6495 43.1238 51.0706 44.188 51.3217C44.3461 51.359 44.456 51.5028 44.456 51.6652V53.7906C44.456 53.9848 44.6134 54.1422 44.8075 54.1422H48.206C48.4002 54.1422 48.5575 53.9848 48.5575 53.7906V51.6652C48.5575 51.5028 48.6675 51.3591 48.8255 51.3217C49.8896 51.0706 50.8878 50.6495 51.7916 50.0903C51.9289 50.0053 52.1071 50.0287 52.2214 50.1429L53.7276 51.6491C53.865 51.7865 54.0875 51.7865 54.2248 51.6491L56.6279 49.2461C56.7652 49.1087 56.7652 48.8862 56.6279 48.7489L55.1217 47.2426C55.0075 47.1285 54.9841 46.9501 55.0691 46.8128C55.6283 45.9091 56.0493 44.911 56.3005 43.8468C56.3377 43.6887 56.4815 43.5788 56.6439 43.5788H58.7694C58.9636 43.5788 59.1209 43.4214 59.1209 43.2272Z" stroke="white" stroke-width="2" stroke-miterlimit="10" stroke-linecap="round" stroke-linejoin="round"/>
<path d="M46.5079 45.8579C48.8994 45.8579 50.8381 43.9192 50.8381 41.5277C50.8381 39.1362 48.8994 37.1975 46.5079 37.1975C44.1164 37.1975 42.1777 39.1362 42.1777 41.5277C42.1777 43.9192 44.1164 45.8579 46.5079 45.8579Z" stroke="white" stroke-width="2" stroke-miterlimit="10" stroke-linecap="round" stroke-linejoin="round"/>
</g>
<defs>
<clipPath id="clip0_3224_2234">
<rect width="60" height="60" fill="white"/>
</clipPath>
</defs>
</svg>
