<svg width="32" height="29" viewBox="0 0 32 29" fill="none" xmlns="http://www.w3.org/2000/svg">
<path d="M15.8861 3.125C13.2253 3.12494 10.6242 3.9136 8.41143 5.39133C6.1987 6.86906 4.47365 8.96953 3.45428 11.4273C2.4349 13.8851 2.16694 16.5899 2.68426 19.1999C3.20158 21.81 4.48097 24.2081 6.36075 26.0912C6.57696 26.3153 6.69651 26.6153 6.69366 26.9267C6.69081 27.2381 6.56578 27.5358 6.3455 27.7559C6.12522 27.976 5.82732 28.1007 5.51596 28.1033C5.2046 28.1058 4.90469 27.986 4.68083 27.7696C3.21131 26.3013 2.04605 24.5573 1.25186 22.6377C0.45768 20.7182 0.0501868 18.6607 0.0527464 16.5833C0.0527464 7.83858 7.14133 0.75 15.8861 0.75C24.6308 0.75 31.7194 7.83858 31.7194 16.5833C31.722 18.6607 31.3145 20.7182 30.5203 22.6377C29.7261 24.5573 28.5609 26.3013 27.0913 27.7696C26.8675 27.986 26.5676 28.1058 26.2562 28.1033C25.9448 28.1007 25.6469 27.976 25.4267 27.7559C25.2064 27.5358 25.0814 27.2381 25.0785 26.9267C25.0757 26.6153 25.1952 26.3153 25.4114 26.0912C27.2912 24.2081 28.5706 21.81 29.0879 19.1999C29.6052 16.5899 29.3373 13.8851 28.3179 11.4273C27.2985 8.96953 25.5735 6.86906 23.3607 5.39133C21.148 3.9136 18.5469 3.12494 15.8861 3.125ZM15.8861 8.66667C14.32 8.66669 12.7892 9.13117 11.4872 10.0014C10.1852 10.8716 9.17048 12.1084 8.57149 13.5553C7.9725 15.0023 7.81612 16.5944 8.12212 18.1302C8.42812 19.6661 9.18276 21.0767 10.2906 22.1836C10.507 22.4074 10.6268 22.7074 10.6243 23.0187C10.6217 23.3301 10.497 23.628 10.2769 23.8483C10.0568 24.0685 9.75905 24.1936 9.44769 24.1964C9.13634 24.1993 8.83631 24.0797 8.61225 23.8635C7.17195 22.4246 6.19079 20.5908 5.79288 18.5941C5.39498 16.5975 5.59822 14.5277 6.37688 12.6465C7.15554 10.7654 8.47465 9.15749 10.1673 8.0262C11.86 6.8949 13.8502 6.29105 15.8861 6.29105C17.922 6.29105 19.9122 6.8949 21.6048 8.0262C23.2975 9.15749 24.6166 10.7654 25.3953 12.6465C26.1739 14.5277 26.3772 16.5975 25.9793 18.5941C25.5814 20.5908 24.6002 22.4246 23.1599 23.8635C22.9348 24.0733 22.6371 24.1875 22.3294 24.182C22.0218 24.1766 21.7283 24.052 21.5107 23.8344C21.2931 23.6168 21.1685 23.3233 21.1631 23.0157C21.1576 22.708 21.2718 22.4103 21.4816 22.1852C22.5899 21.0784 23.3451 19.6676 23.6514 18.1315C23.9577 16.5954 23.8014 15.0029 23.2024 13.5556C22.6033 12.1083 21.5884 10.8713 20.286 10.001C18.9837 9.13075 17.4524 8.66637 15.8861 8.66667ZM15.8861 12.625C14.8363 12.625 13.8294 13.042 13.0871 13.7844C12.3448 14.5267 11.9277 15.5335 11.9277 16.5833C11.9277 17.6331 12.3448 18.64 13.0871 19.3823C13.8294 20.1246 14.8363 20.5417 15.8861 20.5417C16.9359 20.5417 17.9427 20.1246 18.685 19.3823C19.4274 18.64 19.8444 17.6331 19.8444 16.5833C19.8444 15.5335 19.4274 14.5267 18.685 13.7844C17.9427 13.042 16.9359 12.625 15.8861 12.625ZM14.3027 16.5833C14.3027 16.1634 14.4696 15.7607 14.7665 15.4637C15.0634 15.1668 15.4662 15 15.8861 15C16.306 15 16.7087 15.1668 17.0057 15.4637C17.3026 15.7607 17.4694 16.1634 17.4694 16.5833C17.4694 17.0033 17.3026 17.406 17.0057 17.7029C16.7087 17.9999 16.306 18.1667 15.8861 18.1667C15.4662 18.1667 15.0634 17.9999 14.7665 17.7029C14.4696 17.406 14.3027 17.0033 14.3027 16.5833Z" fill="black"/>
</svg>
