<svg width="35" height="36" viewBox="0 0 35 36" fill="none" xmlns="http://www.w3.org/2000/svg">
<path d="M27.0927 35.4163H29.7211C31.0511 35.4163 32.1436 34.3872 32.3019 33.0888L34.9144 6.99551H26.9977V0.583008H23.8786V6.99551H16.0094L16.4844 10.7005C19.1919 11.4447 21.7252 12.7905 23.2452 14.2788C25.5252 16.5272 27.0927 18.8547 27.0927 22.6547V35.4163ZM0.0810547 33.833V32.2497H23.8786V33.833C23.8786 34.688 23.1661 35.4163 22.2477 35.4163H1.66439C0.793555 35.4163 0.0810547 34.688 0.0810547 33.833ZM23.8786 22.7497C23.8786 10.083 0.0810547 10.083 0.0810547 22.7497H23.8786ZM0.0810547 25.9163H23.8311V29.083H0.0810547V25.9163Z" fill="black"/>
</svg>
