<svg width="283" height="218" viewBox="0 0 283 218" fill="none" xmlns="http://www.w3.org/2000/svg">
<path d="M282.879 192.448H0V192.59H282.879V192.448Z" fill="#E0E0E0"/>
<path d="M252.095 196.09H233.564V196.231H252.095V196.09Z" fill="#E0E0E0"/>
<path d="M186.852 199.162H163.703V199.303H186.852V199.162Z" fill="#E0E0E0"/>
<path d="M195.69 199.162H190.324V199.303H195.69V199.162Z" fill="#E0E0E0"/>
<path d="M74.4906 197.535H52.709V197.677H74.4906V197.535Z" fill="#E0E0E0"/>
<path d="M117.962 197.535H98.5371V197.677H117.962V197.535Z" fill="#E0E0E0"/>
<path d="M228.086 196.09H208.33V196.231H228.086V196.09Z" fill="#E0E0E0"/>
<path d="M48.091 197.535H29.2207V197.677H48.091V197.535Z" fill="#E0E0E0"/>
<path d="M134.092 167.217H24.8446C23.0641 167.217 21.6152 165.768 21.6152 163.988V10.4229C21.6152 8.64251 23.0641 7.1936 24.8446 7.1936H134.092C135.872 7.1936 137.321 8.64251 137.321 10.4229V163.988C137.321 165.768 135.872 167.217 134.092 167.217ZM24.8446 7.33561C23.1416 7.33561 21.7567 8.72058 21.7567 10.4235V163.988C21.7567 165.691 23.1416 167.076 24.8446 167.076H134.092C135.794 167.076 137.179 165.691 137.179 163.988V10.4229C137.179 8.72058 135.794 7.33504 134.092 7.33504L24.8446 7.33561Z" fill="#E0E0E0"/>
<path d="M256.464 167.217H147.217C145.437 167.217 143.988 165.768 143.988 163.988V10.4229C143.988 8.64251 145.437 7.1936 147.217 7.1936H256.464C258.245 7.1936 259.693 8.64251 259.693 10.4229V163.988C259.694 165.768 258.245 167.217 256.464 167.217ZM147.217 7.33561C145.515 7.33561 144.13 8.72058 144.13 10.4235V163.988C144.13 165.691 145.515 167.076 147.217 167.076H256.464C258.167 167.076 259.552 165.691 259.552 163.988V10.4229C259.552 8.72058 258.167 7.33504 256.464 7.33504L147.217 7.33561Z" fill="#E0E0E0"/>
<path d="M86.2205 57.1726L97.6415 45.909L95.2568 41.2771C95.2568 41.2765 95.2574 41.276 95.2574 41.276C95.4701 40.8143 95.6658 40.3498 95.8497 39.878C95.8497 39.8774 95.8497 39.8774 95.8503 39.8768L100.831 38.3572L100.942 22.3169L95.9798 20.7277C95.8028 20.2535 95.6161 19.7834 95.4096 19.3189L97.8576 14.7216L86.5939 3.30063L81.9632 5.68473C81.9632 5.68473 81.9626 5.68473 81.9626 5.68417C81.501 5.47144 81.0342 5.27795 80.5624 5.09408L79.0422 0.110888L63.0018 0L61.4126 4.96226C60.9368 5.13651 60.4701 5.32604 60.0062 5.53198C60.0056 5.53198 60.005 5.53254 60.0045 5.53254L55.4066 3.08451L43.9862 14.3493L46.3714 18.9817C46.1592 19.4423 45.9635 19.9101 45.7802 20.3808L40.7964 21.901L40.6855 37.9414L45.6467 39.5306C45.8238 40.0047 46.011 40.4748 46.217 40.9393C46.217 40.9399 46.2175 40.9399 46.2175 40.9405L43.7701 45.5367L55.0337 56.9576L59.6639 54.5735C60.1255 54.7862 60.5923 54.9797 61.0641 55.1636C61.0647 55.1636 61.0647 55.1636 61.0653 55.1636L62.5854 60.1468L78.6258 60.2583L80.215 55.2954C80.6874 55.1189 81.1576 54.93 81.6209 54.7246L86.2205 57.1726ZM79.1972 38.6271C74.4997 43.2601 66.9418 43.208 62.3122 38.5134C57.6826 33.8187 57.7346 26.2613 62.4327 21.6283C67.1268 16.9987 74.6847 17.0508 79.3149 21.7454C83.9439 26.439 83.8919 33.9969 79.1972 38.6271Z" fill="#F0F0F0"/>
<path d="M42.8414 87.009L50.3411 79.6123L48.7751 76.5708C48.7751 76.5702 48.7757 76.5702 48.7757 76.5696C48.9154 76.2664 49.0438 75.9614 49.1649 75.652V75.6514L52.4355 74.6534L52.5085 64.1201L49.2503 63.0769C49.1343 62.7657 49.0116 62.4568 48.8758 62.1519L50.4837 59.133L43.0864 51.6327L40.0455 53.1982C39.7422 53.0585 39.435 52.9317 39.1255 52.8107L38.1275 49.5383L27.5943 49.4653L26.5504 52.7241C26.2376 52.8384 25.9315 52.9628 25.6271 53.0981C25.6266 53.0981 25.6266 53.0986 25.626 53.0986L22.6066 51.4907L15.1069 58.8875L16.6729 61.9295C16.5331 62.2322 16.4053 62.5394 16.2848 62.8483L13.0124 63.8469L12.9395 74.3802L16.1971 75.4234C16.3136 75.7346 16.4364 76.0429 16.5716 76.3484L14.9643 79.3673L22.361 86.867L25.4014 85.3015C25.7046 85.4413 26.0113 85.5686 26.3207 85.6891L27.3193 88.9614L37.8526 89.0344L38.8964 85.7751C39.207 85.6591 39.5153 85.5352 39.8197 85.4L42.8414 87.009ZM38.2294 74.8299C35.1449 77.8726 30.1815 77.8381 27.1411 74.7552C24.1007 71.6724 24.1352 66.7096 27.2203 63.667C30.3031 60.6266 35.2659 60.6611 38.3063 63.7439C41.3467 66.8267 41.3122 71.7901 38.2294 74.8299Z" fill="#E0E0E0"/>
<path d="M260.655 180.742L266.101 175.372L264.964 173.163C264.964 173.163 264.964 173.162 264.965 173.162C265.066 172.942 265.159 172.721 265.247 172.496V172.495L267.622 171.771L267.675 164.122L265.309 163.364C265.225 163.138 265.136 162.915 265.037 162.693L266.204 160.501L260.834 155.055L258.625 156.191C258.625 156.191 258.625 156.191 258.625 156.191C258.405 156.09 258.182 155.998 257.957 155.91L257.233 153.534L249.584 153.481L248.827 155.847C248.6 155.93 248.377 156.02 248.156 156.118C248.156 156.118 248.156 156.118 248.156 156.119L245.963 154.952L240.517 160.322L241.654 162.531C241.553 162.751 241.46 162.974 241.373 163.198L238.997 163.923L238.943 171.571L241.309 172.329C241.393 172.555 241.482 172.779 241.581 173L240.414 175.193L245.785 180.639L247.992 179.502C248.212 179.603 248.435 179.696 248.66 179.783L249.385 182.16L257.033 182.213L257.792 179.846C258.017 179.762 258.241 179.672 258.462 179.574L260.655 180.742ZM257.307 171.899C255.067 174.108 251.463 174.083 249.255 171.845C247.048 169.607 247.073 166.003 249.313 163.793C251.551 161.586 255.155 161.611 257.362 163.849C259.57 166.088 259.545 169.691 257.307 171.899Z" fill="#F0F0F0"/>
<path d="M193.824 172.353H27.5244C25.5465 172.353 23.9375 170.744 23.9375 168.767V43.9123C23.9375 41.9345 25.5465 40.3254 27.5244 40.3254H193.824C195.802 40.3254 197.411 41.9345 197.411 43.9123V168.767C197.411 170.744 195.802 172.353 193.824 172.353ZM27.5244 40.6083C25.7027 40.6083 24.2204 42.0906 24.2204 43.9123V168.767C24.2204 170.588 25.7027 172.071 27.5244 172.071H193.824C195.646 172.071 197.128 170.588 197.128 168.767V43.9123C197.128 42.0906 195.646 40.6083 193.824 40.6083H27.5244Z" fill="#E0E0E0"/>
<path d="M31.6366 46.9213C30.5481 46.9213 29.6621 46.0359 29.6621 44.9468C29.6621 43.8583 30.5475 42.9729 31.6366 42.9729C32.7251 42.9729 33.6105 43.8583 33.6105 44.9468C33.6111 46.0359 32.7251 46.9213 31.6366 46.9213ZM31.6366 43.2558C30.7042 43.2558 29.945 44.0145 29.945 44.9468C29.945 45.8792 30.7037 46.6384 31.6366 46.6384C32.569 46.6384 33.3277 45.8798 33.3277 44.9468C33.3282 44.0145 32.5695 43.2558 31.6366 43.2558Z" fill="#E0E0E0"/>
<path d="M38.1321 46.9213C37.0436 46.9213 36.1582 46.0359 36.1582 44.9468C36.1582 43.8583 37.0436 42.9729 38.1321 42.9729C39.2206 42.9729 40.1061 43.8583 40.1061 44.9468C40.1066 46.0359 39.2206 46.9213 38.1321 46.9213ZM38.1321 43.2558C37.1998 43.2558 36.4411 44.0145 36.4411 44.9468C36.4411 45.8792 37.1998 46.6384 38.1321 46.6384C39.0645 46.6384 39.8232 45.8798 39.8232 44.9468C39.8237 44.0145 39.0651 43.2558 38.1321 43.2558Z" fill="#E0E0E0"/>
<path d="M44.6263 46.9213C43.5378 46.9213 42.6523 46.0359 42.6523 44.9468C42.6523 43.8583 43.5378 42.9729 44.6263 42.9729C45.7148 42.9729 46.6008 43.8583 46.6008 44.9468C46.6008 46.0359 45.7154 46.9213 44.6263 46.9213ZM44.6263 43.2558C43.6939 43.2558 42.9352 44.0145 42.9352 44.9468C42.9352 45.8792 43.6939 46.6384 44.6263 46.6384C45.5586 46.6384 46.3179 45.8798 46.3179 44.9468C46.3179 44.0145 45.5592 43.2558 44.6263 43.2558Z" fill="#E0E0E0"/>
<path d="M259.87 148.318H93.5705C91.6752 148.318 90.125 146.768 90.125 144.873V20.0187C90.125 18.1234 91.6757 16.5732 93.5705 16.5732H259.87C261.765 16.5732 263.315 18.124 263.315 20.0187V144.873C263.316 146.768 261.765 148.318 259.87 148.318Z" fill="#E0E0E0"/>
<path d="M259.874 148.884H93.5737C91.3616 148.884 89.5625 147.084 89.5625 144.873V20.0185C89.5625 17.8064 91.3622 16.0073 93.5737 16.0073H259.874C262.085 16.0073 263.885 17.807 263.885 20.0185V144.873C263.885 147.084 262.085 148.884 259.874 148.884ZM93.5737 17.1388C91.9856 17.1388 90.694 18.431 90.694 20.0185V144.873C90.694 146.461 91.9862 147.752 93.5737 147.752H259.874C261.462 147.752 262.753 146.461 262.753 144.873V20.0185C262.753 18.4305 261.462 17.1388 259.874 17.1388H93.5737Z" fill="#E0E0E0"/>
<path d="M90.125 25.4822V144.872C90.125 146.768 91.6757 148.318 93.5705 148.318H259.87C261.765 148.318 263.315 146.767 263.315 144.872V25.4822H90.125Z" fill="#F0F0F0"/>
<path d="M262.68 30.0642H90.7617V143.737H262.68V30.0642Z" fill="white"/>
<path d="M256.598 133.336H96.8442C96.8126 133.336 96.7871 133.31 96.7871 133.278V37.4351C96.7871 37.4034 96.8126 37.3779 96.8442 37.3779H256.598C256.63 37.3779 256.656 37.4034 256.656 37.4351V133.279C256.655 133.31 256.629 133.336 256.598 133.336ZM96.9014 133.221H256.541V37.4922H96.9014V133.221Z" fill="#E6E6E6"/>
<path d="M97.6891 23.115C96.552 23.115 95.627 22.19 95.627 21.0528C95.627 19.9162 96.552 18.9912 97.6891 18.9912C98.8257 18.9912 99.7508 19.9162 99.7508 21.0528C99.7508 22.1906 98.8257 23.115 97.6891 23.115ZM97.6891 19.4495C96.8049 19.4495 96.0852 20.1691 96.0852 21.0534C96.0852 21.9377 96.8049 22.6573 97.6891 22.6573C98.5734 22.6573 99.2925 21.9377 99.2925 21.0534C99.2925 20.1691 98.5728 19.4495 97.6891 19.4495Z" fill="white"/>
<path d="M104.183 23.115C103.046 23.115 102.121 22.19 102.121 21.0528C102.121 19.9162 103.046 18.9912 104.183 18.9912C105.319 18.9912 106.244 19.9162 106.244 21.0528C106.244 22.1906 105.319 23.115 104.183 23.115ZM104.183 19.4495C103.298 19.4495 102.579 20.1691 102.579 21.0534C102.579 21.9377 103.298 22.6573 104.183 22.6573C105.068 22.6573 105.787 21.9377 105.787 21.0534C105.786 20.1691 105.067 19.4495 104.183 19.4495Z" fill="white"/>
<path d="M110.673 23.115C109.536 23.115 108.611 22.19 108.611 21.0528C108.611 19.9162 109.536 18.9912 110.673 18.9912C111.81 18.9912 112.735 19.9162 112.735 21.0528C112.735 22.1906 111.81 23.115 110.673 23.115ZM110.673 19.4495C109.789 19.4495 109.069 20.1691 109.069 21.0534C109.069 21.9377 109.788 22.6573 110.673 22.6573C111.558 22.6573 112.277 21.9377 112.277 21.0534C112.277 20.1691 111.557 19.4495 110.673 19.4495Z" fill="white"/>
<path d="M263.316 25.2532H90.125V25.7114H263.316V25.2532Z" fill="#E0E0E0"/>
<path d="M168.663 122.105L247.891 122.105V41.3549L168.663 41.3549V122.105Z" fill="#F0F0F0"/>
<path d="M100.762 67.6238H153.07V41.3551L100.762 41.3551V67.6238Z" fill="#F0F0F0"/>
<path d="M100.762 143.736H153.07V77.4488H100.762V143.736Z" fill="#F0F0F0"/>
<path d="M141.44 218C202.023 218 251.134 215.132 251.134 211.594C251.134 208.056 202.023 205.188 141.44 205.188C80.8578 205.188 31.7461 208.056 31.7461 211.594C31.7461 215.132 80.8578 218 141.44 218Z" fill="#F5F5F5"/>
<path d="M242.929 30.8655H39.9529C36.9612 30.8655 34.5098 33.3107 34.5098 36.3024V171.777C34.5098 174.769 36.9612 177.214 39.9529 177.214H242.929C245.915 177.214 248.366 174.769 248.366 171.777V36.3024C248.366 33.3112 245.915 30.8655 242.929 30.8655Z" fill="#407BFF"/>
<path opacity="0.3" d="M242.929 30.8655H39.9529C36.9612 30.8655 34.5098 33.3107 34.5098 36.3024V171.777C34.5098 174.769 36.9612 177.214 39.9529 177.214H242.929C245.915 177.214 248.366 174.769 248.366 171.777V36.3024C248.366 33.3112 245.915 30.8655 242.929 30.8655Z" fill="white"/>
<path d="M74.9312 39.9408H46.1969C45.105 39.9408 44.2168 39.0525 44.2168 37.9606C44.2168 36.8687 45.105 35.9805 46.1969 35.9805H74.9312C76.0231 35.9805 76.9114 36.8687 76.9114 37.9606C76.9114 39.052 76.0231 39.9408 74.9312 39.9408ZM46.1969 36.5462C45.4173 36.5462 44.7826 37.181 44.7826 37.9606C44.7826 38.7402 45.4173 39.375 46.1969 39.375H74.9312C75.7114 39.375 76.3456 38.7402 76.3456 37.9606C76.3456 37.181 75.7114 36.5462 74.9312 36.5462H46.1969Z" fill="#FAFAFA"/>
<path d="M84.2549 39.9408H82.3376C81.2457 39.9408 80.3574 39.0525 80.3574 37.9606C80.3574 36.8687 81.2457 35.9805 82.3376 35.9805H84.2549C85.3468 35.9805 86.2351 36.8687 86.2351 37.9606C86.2351 39.052 85.3468 39.9408 84.2549 39.9408ZM82.3376 36.5462C81.5574 36.5462 80.9232 37.181 80.9232 37.9606C80.9232 38.7402 81.5574 39.375 82.3376 39.375H84.2549C85.0345 39.375 85.6693 38.7402 85.6693 37.9606C85.6693 37.181 85.0345 36.5462 84.2549 36.5462H82.3376Z" fill="#FAFAFA"/>
<path d="M92.2706 39.9408H90.3532C89.2613 39.9408 88.373 39.0525 88.373 37.9606C88.373 36.8687 89.2613 35.9805 90.3532 35.9805H92.2706C93.3625 35.9805 94.2507 36.8687 94.2507 37.9606C94.2507 39.052 93.3625 39.9408 92.2706 39.9408ZM90.3532 36.5462C89.5736 36.5462 88.9388 37.181 88.9388 37.9606C88.9388 38.7402 89.5736 39.375 90.3532 39.375H92.2706C93.0502 39.375 93.6849 38.7402 93.6849 37.9606C93.6849 37.181 93.0502 36.5462 92.2706 36.5462H90.3532Z" fill="#FAFAFA"/>
<path d="M34.5098 44.9294V171.777C34.5098 174.768 36.9612 177.214 39.9529 177.214H242.929C245.915 177.214 248.366 174.768 248.366 171.777V44.9294H34.5098Z" fill="#407BFF"/>
<path opacity="0.6" d="M34.5098 44.9294V171.777C34.5098 174.768 36.9612 177.214 39.9529 177.214H242.929C245.915 177.214 248.366 174.768 248.366 171.777V44.9294H34.5098Z" fill="white"/>
<path d="M35.5176 44.9294V166.896C35.5176 168.601 36.8997 169.983 38.6049 169.983H244.276C245.981 169.983 247.363 168.601 247.363 166.896V44.9294H35.5176Z" fill="#FAFAFA"/>
<path d="M45.2871 52.1089V74.7584H190.638V52.1089H45.2871Z" fill="#407BFF"/>
<path opacity="0.9" d="M45.2871 52.1089V74.7584H190.638V52.1089H45.2871Z" fill="white"/>
<path d="M190.072 81.3016V141.385H45.8529V81.3016H190.072ZM190.638 80.7358H45.2871V141.951H190.638V80.7358Z" fill="#407BFF"/>
<path opacity="0.9" d="M190.072 81.3016V141.385H45.8529V81.3016H190.072ZM190.638 80.7358H45.2871V141.951H190.638V80.7358Z" fill="white"/>
<path d="M206.969 206.332H202.7L201.564 196.448H205.833L206.969 206.332Z" fill="#FF8B7B"/>
<path d="M232.853 206.332H228.585L225.26 196.448H229.528L232.853 206.332Z" fill="#FF8B7B"/>
<path d="M228.016 205.838H233.219C233.393 205.838 233.545 205.959 233.582 206.129L234.425 209.923C234.513 210.317 234.204 210.689 233.8 210.682C232.126 210.653 230.905 210.556 228.795 210.556C227.498 210.556 224.826 210.69 223.034 210.69C221.282 210.69 221.008 208.919 221.742 208.758C225.03 208.038 226.269 207.047 227.322 206.1C227.513 205.929 227.76 205.838 228.016 205.838Z" fill="#263238"/>
<path d="M202.728 205.838H207.39C207.564 205.838 207.715 205.959 207.753 206.129L208.596 209.923C208.684 210.316 208.385 210.689 207.982 210.682C206.301 210.654 203.871 210.555 201.758 210.555C199.286 210.555 197.152 210.69 194.255 210.69C192.502 210.69 192.016 208.918 192.75 208.758C196.089 208.027 198.815 207.949 201.7 206.17C202.014 205.977 202.36 205.838 202.728 205.838Z" fill="#263238"/>
<path d="M209.415 100.429C208.991 103.734 208.526 107.055 208.033 110.358L206.553 120.406C206.329 121.654 205.809 122.849 205.121 123.82C204.435 124.796 203.621 125.572 202.788 126.213C201.107 127.479 199.338 128.241 197.596 128.838C195.845 129.419 194.097 129.806 192.349 130.072C191.475 130.204 190.6 130.295 189.726 130.369C188.843 130.445 187.997 130.49 187.067 130.489L186.777 127.297C188.299 126.947 189.912 126.539 191.422 126.038C192.946 125.551 194.431 124.996 195.802 124.336C197.169 123.686 198.433 122.907 199.358 122.047C199.816 121.618 200.18 121.171 200.417 120.742C200.647 120.309 200.769 119.913 200.806 119.502L200.97 117.122C201.028 116.273 201.107 115.431 201.18 114.587C201.33 112.901 201.496 111.219 201.683 109.541C202.051 106.184 202.487 102.849 203.011 99.5066L209.415 100.429Z" fill="#FF8B7B"/>
<path d="M210.822 98.2866C212.26 102.105 208.816 114.904 208.816 114.904L199.334 110.163C199.334 110.163 199.781 103.781 201.949 98.8761C204.14 93.9189 209.244 94.096 210.822 98.2866Z" fill="#407BFF"/>
<path opacity="0.3" d="M210.822 98.2866C212.26 102.105 208.816 114.904 208.816 114.904L199.334 110.163C199.334 110.163 199.781 103.781 201.949 98.8761C204.14 93.9189 209.244 94.096 210.822 98.2866Z" fill="black"/>
<path d="M189.05 126.89L184.393 127.199L186.568 132.198C186.568 132.198 189.556 132.196 190.403 129.205L189.05 126.89Z" fill="#FF8B7B"/>
<path d="M180.189 129.162L182.771 132.661L186.567 132.198L184.391 127.198L180.189 129.162Z" fill="#FF8B7B"/>
<path d="M201.564 196.451L202.223 202.188L206.463 201.932L205.834 196.451H201.564Z" fill="#EA7063"/>
<path d="M229.53 196.451H225.26L227.49 203.071L231.46 202.18L229.53 196.451Z" fill="#EA7063"/>
<path d="M205.755 95.366C205.755 95.366 200.718 108.255 205.502 132.257C212.381 132.257 224.984 132.257 228.331 132.257C228.488 128.753 226.286 111.658 229.666 95.146C229.666 95.146 225.753 94.3607 222.024 94.1808C219.107 94.0399 214.884 93.9471 212.319 94.1813C208.939 94.4897 205.755 95.366 205.755 95.366Z" fill="#407BFF"/>
<path opacity="0.3" d="M205.755 95.366C205.755 95.366 200.718 108.255 205.502 132.257C212.381 132.257 224.984 132.257 228.331 132.257C228.488 128.753 226.286 111.658 229.666 95.146C229.666 95.146 225.753 94.3607 222.024 94.1808C219.107 94.0399 214.884 93.9471 212.319 94.1813C208.939 94.4897 205.755 95.366 205.755 95.366Z" fill="black"/>
<path d="M214.093 107.425C213.79 110.292 212.214 112.475 210.574 112.302C208.934 112.128 207.851 109.663 208.155 106.796C208.458 103.93 210.034 101.746 211.674 101.92C213.314 102.094 214.397 104.559 214.093 107.425Z" fill="#407BFF"/>
<path opacity="0.1" d="M214.093 107.425C213.79 110.292 212.214 112.475 210.574 112.302C208.934 112.128 207.851 109.663 208.155 106.796C208.458 103.93 210.034 101.746 211.674 101.92C213.314 102.094 214.397 104.559 214.093 107.425Z" fill="white"/>
<path d="M225.013 103.037C225.757 99.2702 227.21 99.9208 228.586 101.778C227.93 107.091 227.748 112.269 227.772 116.832C226.835 115.233 223.765 109.352 225.013 103.037Z" fill="#407BFF"/>
<path opacity="0.4" d="M225.013 103.037C225.757 99.2702 227.21 99.9208 228.586 101.778C227.93 107.091 227.748 112.269 227.772 116.832C226.835 115.233 223.765 109.352 225.013 103.037Z" fill="black"/>
<path d="M221.061 83.2539C220.449 86.3763 219.838 92.0973 222.023 94.1809C222.023 94.1809 221.169 97.3481 215.367 97.3481C208.988 97.3481 212.318 94.1809 212.318 94.1809C215.8 93.3493 215.71 90.766 215.103 88.3401L221.061 83.2539Z" fill="#FF8B7B"/>
<path d="M218.635 85.3296L215.109 88.3377C215.255 88.912 215.368 89.4941 215.409 90.0605C216.739 89.8681 218.566 88.4079 218.707 87.0155C218.777 86.3208 218.748 85.6532 218.635 85.3296Z" fill="#EA7063"/>
<path d="M212.175 71.5666C209.826 73.39 209.844 80.6866 213.403 80.8388C216.962 80.991 216.623 68.1132 212.175 71.5666Z" fill="#263238"/>
<path d="M221.969 79.5655C220.73 83.6164 220.21 86.0502 217.628 87.6621C213.742 90.0869 209.12 86.9866 209.123 82.6472C209.126 78.7412 211.152 72.7736 215.569 72.1026C219.921 71.4418 223.208 75.5147 221.969 79.5655Z" fill="#FF8B7B"/>
<path d="M220.712 83.5249C218.327 83.8977 217.028 71.6344 222.708 74.3523C230.779 78.2147 224.567 82.9224 220.712 83.5249Z" fill="#263238"/>
<path d="M220.935 75.4782C218.003 75.2247 213.755 75.3509 212.832 71.7227C211.547 66.662 217.592 65.9197 219.087 69.7889C222.686 68.6042 232.594 74.7806 225.994 77.9166L220.935 75.4782Z" fill="#263238"/>
<path d="M222.737 84.5423C221.927 85.3473 220.821 85.7038 219.883 85.6857C218.471 85.6585 218.169 84.2984 218.9 83.1782C219.558 82.1695 221.085 80.9684 222.339 81.5381C223.575 82.0988 223.663 83.6218 222.737 84.5423Z" fill="#FF8B7B"/>
<path d="M205.504 132.257C205.504 132.257 188.86 155.322 189.324 168.338C189.807 181.876 200.55 200.559 200.55 200.559L207.493 198.966C207.493 198.966 200.588 182.667 200.909 169.371C201.26 154.877 220.51 143.439 220.51 132.257C213.451 132.257 205.504 132.257 205.504 132.257Z" fill="#263238"/>
<path d="M213.6 132.257C213.6 132.257 205.119 156.028 207.778 168.248C210.69 181.629 225.293 201.401 225.293 201.401L232.284 199.477C232.284 199.477 222.825 182.465 221.164 169.216C219.36 154.837 228.331 142.951 228.331 132.257C219.588 132.257 213.6 132.257 213.6 132.257Z" fill="#263238"/>
<path d="M224.253 202.368L234.301 200.503L233.799 197.799L222.535 199.707L224.253 202.368Z" fill="#407BFF"/>
<path opacity="0.4" d="M224.253 202.368L234.301 200.503L233.799 197.799L222.535 199.707L224.253 202.368Z" fill="white"/>
<path d="M199.101 201.164L209.27 200.16L208.997 197.391L197.615 198.367L199.101 201.164Z" fill="#407BFF"/>
<path opacity="0.4" d="M199.101 201.164L209.27 200.16L208.997 197.391L197.615 198.367L199.101 201.164Z" fill="white"/>
<path d="M215.457 79.218C215.376 79.553 215.134 79.7815 214.915 79.7289C214.696 79.6763 214.584 79.3623 214.665 79.0279C214.745 78.693 214.988 78.4644 215.206 78.5171C215.425 78.5691 215.537 78.8831 215.457 79.218Z" fill="#263238"/>
<path d="M211.67 78.3098C211.589 78.6448 211.347 78.8733 211.128 78.8207C210.91 78.7681 210.797 78.4541 210.878 78.1197C210.958 77.7848 211.201 77.5562 211.419 77.6089C211.638 77.6615 211.75 77.9749 211.67 78.3098Z" fill="#263238"/>
<path d="M212.835 78.7654C212.835 78.7654 211.611 80.5141 210.549 81.2445C211.008 81.9393 212.076 81.9285 212.076 81.9285L212.835 78.7654Z" fill="#FF5652"/>
<path d="M213.585 83.1787C213.352 83.1787 213.099 83.1516 212.827 83.0865C212.773 83.0735 212.74 83.0186 212.753 82.9649C212.766 82.9105 212.817 82.8755 212.875 82.8902C214.344 83.2432 215.276 82.3816 215.286 82.3725C215.327 82.3346 215.39 82.3357 215.429 82.3765C215.467 82.4172 215.465 82.4811 215.425 82.5196C215.391 82.5513 214.713 83.1787 213.585 83.1787Z" fill="#263238"/>
<path d="M216.936 78.2771C216.858 78.2771 216.784 78.2318 216.751 78.156C216.39 77.33 215.656 77.1987 215.65 77.1976C215.539 77.1789 215.465 77.0748 215.483 76.9651C215.502 76.8547 215.607 76.7812 215.716 76.7987C215.755 76.8055 216.673 76.9696 217.121 77.9942C217.166 78.0966 217.119 78.2159 217.017 78.2606C216.991 78.2714 216.963 78.2771 216.936 78.2771Z" fill="#263238"/>
<path d="M210.374 76.6183C210.329 76.6183 210.284 76.603 210.246 76.5719C210.16 76.5012 210.147 76.3739 210.218 76.2873C210.928 75.4229 211.859 75.5156 211.896 75.5196C212.007 75.5315 212.087 75.6316 212.075 75.7425C212.062 75.8534 211.96 75.9309 211.853 75.9213C211.817 75.9185 211.094 75.8568 210.53 76.5442C210.49 76.5934 210.433 76.6183 210.374 76.6183Z" fill="#263238"/>
<path d="M154.745 158.432L139.428 160.257L139.495 160.818L154.811 158.993L154.745 158.432Z" fill="#407BFF"/>
<path d="M166.505 157.028L160.199 157.786L160.267 158.347L166.573 157.589L166.505 157.028Z" fill="#407BFF"/>
<path d="M253.889 120.845L118.059 137.041L120.921 161.044L256.751 144.848L253.889 120.845Z" fill="#407BFF"/>
<path d="M233.826 129.817L171.428 137.257L172.742 148.283L235.141 140.843L233.826 129.817Z" fill="#407BFF"/>
<path opacity="0.2" d="M233.826 129.817L171.428 137.257L172.742 148.283L235.141 140.843L233.826 129.817Z" fill="white"/>
<path d="M141.143 146.454C141.604 150.315 138.847 153.818 134.986 154.278C131.125 154.738 127.622 151.982 127.162 148.12C126.701 144.26 129.458 140.756 133.319 140.296C137.179 139.835 140.683 142.592 141.143 146.454Z" fill="#407BFF"/>
<path opacity="0.2" d="M141.143 146.454C141.604 150.315 138.847 153.818 134.986 154.278C131.125 154.738 127.622 151.982 127.162 148.12C126.701 144.26 129.458 140.756 133.319 140.296C137.179 139.835 140.683 142.592 141.143 146.454Z" fill="white"/>
<path d="M159.646 149.198C162.016 146.115 161.437 141.695 158.354 139.326C155.271 136.956 150.851 137.535 148.482 140.618C146.112 143.701 146.691 148.121 149.774 150.49C152.857 152.86 157.277 152.281 159.646 149.198Z" fill="#407BFF"/>
<path opacity="0.2" d="M159.646 149.198C162.016 146.115 161.437 141.695 158.354 139.326C155.271 136.956 150.851 137.535 148.482 140.618C146.112 143.701 146.691 148.121 149.774 150.49C152.857 152.86 157.277 152.281 159.646 149.198Z" fill="white"/>
<path d="M231.296 98.467C231.665 99.258 231.971 99.9612 232.268 100.715C232.567 101.457 232.852 102.202 233.129 102.95C233.67 104.452 234.162 105.975 234.588 107.527C235.027 109.074 235.378 110.661 235.667 112.275L235.869 113.492L236.019 114.733C236.074 115.142 236.098 115.568 236.128 115.989L236.171 116.621L236.182 116.779L236.192 117.041C236.199 117.243 236.188 117.419 236.177 117.6C236.048 118.998 235.634 119.923 235.225 120.787C234.806 121.638 234.345 122.378 233.87 123.085C232.912 124.487 231.874 125.73 230.806 126.923C228.658 129.301 226.373 131.417 223.905 133.416L221.652 131.137C223.501 128.78 225.341 126.342 227.011 123.92C227.843 122.707 228.626 121.475 229.278 120.266C229.601 119.665 229.891 119.064 230.093 118.512C230.296 117.976 230.409 117.431 230.376 117.293C230.371 117.282 230.371 117.267 230.364 117.277C230.36 117.265 230.367 117.311 230.358 117.252L230.338 117.125L230.26 116.613C230.207 116.273 230.163 115.934 230.086 115.588L229.88 114.555L229.64 113.516C229.295 112.13 228.904 110.739 228.455 109.35C228.002 107.964 227.524 106.576 227.008 105.199C226.755 104.509 226.494 103.821 226.221 103.14L225.409 101.148L231.296 98.467Z" fill="#FF8B7B"/>
<path d="M230.556 95.4275C234.365 96.8928 237.097 110.822 237.097 110.822L228.028 114.395C228.028 114.395 224.987 107.394 223.968 102.22C222.895 96.7712 226.236 93.7648 230.556 95.4275Z" fill="#407BFF"/>
<path opacity="0.3" d="M230.556 95.4275C234.365 96.8928 237.097 110.822 237.097 110.822L228.028 114.395C228.028 114.395 224.987 107.394 223.968 102.22C222.895 96.7712 226.236 93.7648 230.556 95.4275Z" fill="black"/>
<path d="M226.605 206.583C226.281 206.583 225.977 206.528 225.783 206.365C225.63 206.236 225.56 206.057 225.574 205.831C225.585 205.663 225.675 205.584 225.748 205.546C226.221 205.301 227.597 206.149 227.752 206.246C227.786 206.268 227.805 206.308 227.799 206.348C227.792 206.388 227.762 206.421 227.722 206.431C227.426 206.501 227 206.583 226.605 206.583ZM225.971 205.7C225.918 205.7 225.874 205.707 225.84 205.725C225.813 205.739 225.781 205.765 225.777 205.844C225.766 206.005 225.811 206.124 225.913 206.21C226.147 206.406 226.704 206.433 227.429 206.287C226.947 206.009 226.298 205.7 225.971 205.7Z" fill="#407BFF"/>
<path d="M227.698 206.433C227.681 206.433 227.664 206.429 227.65 206.421C227.208 206.181 226.354 205.245 226.444 204.77C226.46 204.684 226.524 204.534 226.766 204.504C226.918 204.486 227.067 204.529 227.197 204.634C227.692 205.039 227.795 206.271 227.798 206.323C227.801 206.36 227.784 206.396 227.753 206.415C227.736 206.427 227.717 206.433 227.698 206.433ZM226.836 204.703C226.821 204.703 226.806 204.704 226.79 204.706C226.659 204.722 226.648 204.783 226.643 204.808C226.589 205.089 227.133 205.796 227.572 206.129C227.522 205.769 227.387 205.051 227.068 204.792C226.996 204.732 226.92 204.703 226.836 204.703Z" fill="#407BFF"/>
<path d="M200.956 206.584C200.532 206.584 200.14 206.518 199.918 206.322C199.777 206.196 199.714 206.031 199.729 205.83C199.738 205.71 199.795 205.617 199.895 205.561C200.412 205.272 202.129 206.142 202.323 206.242C202.361 206.262 202.383 206.303 202.377 206.346C202.371 206.389 202.339 206.423 202.297 206.431C201.936 206.503 201.425 206.584 200.956 206.584ZM200.183 205.7C200.104 205.7 200.04 205.712 199.994 205.737C199.953 205.76 199.935 205.792 199.93 205.845C199.92 205.981 199.96 206.088 200.052 206.169C200.315 206.402 201.017 206.443 201.96 206.286C201.369 206.006 200.587 205.7 200.183 205.7Z" fill="#407BFF"/>
<path d="M202.274 206.433C202.261 206.433 202.246 206.43 202.233 206.424C201.718 206.193 200.698 205.27 200.776 204.787C200.794 204.673 200.875 204.532 201.152 204.504C201.363 204.483 201.547 204.541 201.713 204.678C202.256 205.123 202.371 206.273 202.375 206.322C202.379 206.358 202.363 206.393 202.334 206.414C202.316 206.426 202.295 206.433 202.274 206.433ZM201.233 204.703C201.214 204.703 201.193 204.704 201.172 204.706C200.99 204.724 200.978 204.796 200.975 204.82C200.928 205.11 201.622 205.835 202.147 206.151C202.092 205.815 201.94 205.127 201.584 204.835C201.477 204.746 201.362 204.703 201.233 204.703Z" fill="#407BFF"/>
<path d="M222.623 130.568L218.436 131.681L221.906 135.885C221.906 135.885 225.261 134.145 224.538 132.265L222.623 130.568Z" fill="#FF8B7B"/>
<path d="M215.402 135.179L218.434 138.47L221.905 135.886L218.434 131.681L215.402 135.179Z" fill="#FF8B7B"/>
<path d="M80.1266 85.3004C79.1818 86.2645 78.1691 87.3309 77.239 88.3968C76.2936 89.4655 75.3674 90.5512 74.4905 91.6686C73.6108 92.7854 72.7825 93.9299 71.9859 95.0869L71.406 95.9638L70.8623 96.8555C70.6756 97.1513 70.5076 97.4529 70.3458 97.7561L69.8983 98.5793C69.7483 98.878 69.6391 99.45 69.5905 100.049C69.5407 100.657 69.5509 101.322 69.5922 101.996C69.6787 103.351 69.8773 104.758 70.1297 106.163C70.3724 107.573 70.6762 108.989 71.0168 110.399C71.3387 111.811 71.7126 113.235 72.0821 114.624L70.0097 115.399C68.7447 112.647 67.7178 109.849 66.8669 106.919C66.4579 105.45 66.0975 103.954 65.8803 102.373C65.7756 101.581 65.6992 100.769 65.7054 99.9026C65.719 99.0336 65.7852 98.1154 66.192 97.0422C66.3181 96.7304 66.3894 96.6037 66.4766 96.417L66.7323 95.8863C66.9003 95.5299 67.074 95.1786 67.2635 94.8391L67.8208 93.8117L68.4109 92.8109C69.2114 91.4887 70.0623 90.2033 70.9902 88.9886C71.9095 87.766 72.8566 86.5706 73.858 85.4226C74.8781 84.2747 75.8749 83.1788 77.0353 82.0762L80.1266 85.3004Z" fill="#B55B52"/>
<path d="M80.3686 78.5571C77.3378 78.6946 74.4609 83.7242 74.4609 83.7242L78.0394 91.0338C78.0394 91.0338 83.8876 87.3778 83.9572 82.9372C84.0019 80.0502 83.349 78.4219 80.3686 78.5571Z" fill="#407BFF"/>
<path opacity="0.5" d="M80.3686 78.5571C77.3378 78.6946 74.4609 83.7242 74.4609 83.7242L78.0394 91.0338C78.0394 91.0338 83.8876 87.3778 83.9572 82.9372C84.0019 80.0502 83.349 78.4219 80.3686 78.5571Z" fill="black"/>
<path d="M71.5077 113.748L75.1942 114.844L72.7411 117.327C72.7411 117.327 70.0854 116.509 69.7148 114.703L71.5077 113.748Z" fill="#B55B52"/>
<path d="M77.4267 117.681L76.8055 120.055L72.7422 117.327L75.1953 114.844L77.4267 117.681Z" fill="#B55B52"/>
<path d="M161.982 93.0683L72.5176 95.2161L73.3273 128.945L162.791 126.798L161.982 93.0683Z" fill="#407BFF"/>
<path opacity="0.6" d="M161.982 93.0683L72.5176 95.2161L73.3273 128.945L162.791 126.798L161.982 93.0683Z" fill="white"/>
<path d="M157.493 95.8643L124.139 96.665L124.441 109.24L157.795 108.44L157.493 95.8643Z" fill="#407BFF"/>
<path opacity="0.7" d="M157.493 95.8643L124.139 96.665L124.441 109.24L157.795 108.44L157.493 95.8643Z" fill="white"/>
<path d="M139.616 111.517L106.262 112.318L106.564 124.893L139.918 124.092L139.616 111.517Z" fill="#407BFF"/>
<path opacity="0.7" d="M139.616 111.517L106.262 112.318L106.564 124.893L139.918 124.092L139.616 111.517Z" fill="white"/>
<path d="M101.241 67.4088C101.184 67.7545 101.322 68.0708 101.55 68.1149C101.777 68.159 102.008 67.9141 102.065 67.5684C102.122 67.2227 101.984 66.9064 101.757 66.8623C101.529 66.8182 101.299 67.0632 101.241 67.4088Z" fill="#263238"/>
<path d="M101.652 66.8624L102.528 66.7849C102.528 66.7849 101.992 67.3507 101.652 66.8624Z" fill="#263238"/>
<path d="M101.477 67.802C101.477 67.802 101.822 69.4054 102.353 70.25C101.823 70.5872 101.074 70.241 101.074 70.241L101.477 67.802Z" fill="#A02724"/>
<path d="M102.093 65.1924C102.06 65.1924 102.026 65.1844 101.995 65.1675C101.177 64.7279 100.501 65.0594 100.473 65.0741C100.371 65.1262 100.247 65.0854 100.194 64.9836C100.143 64.8818 100.183 64.7584 100.283 64.7058C100.319 64.6871 101.175 64.2572 102.19 64.8031C102.291 64.8574 102.329 64.9825 102.275 65.0832C102.238 65.1533 102.167 65.1924 102.093 65.1924Z" fill="#263238"/>
<path d="M90.1888 70.2646C90.2702 72.9067 90.0009 77.6665 87.9297 79.0175C87.9297 79.0175 88.2029 81.7342 92.9587 82.6553C98.188 83.668 95.8842 80.558 95.8842 80.558C93.142 79.3275 93.5635 77.2365 94.3872 75.3553L90.1888 70.2646Z" fill="#B55B52"/>
<path d="M104.435 85.6824C104.76 86.9989 105.173 88.4433 105.627 89.7977C106.094 91.164 106.588 92.5173 107.161 93.8208C107.732 95.1243 108.375 96.3808 109.104 97.5429C109.821 98.7067 110.632 99.7861 111.546 100.636C112.003 101.06 112.482 101.43 112.98 101.715C113.227 101.86 113.48 101.985 113.736 102.085C113.899 102.149 113.905 102.157 113.97 102.176C114.026 102.193 114.09 102.208 114.165 102.213C114.458 102.246 114.952 102.157 115.476 101.93C116.002 101.705 116.56 101.374 117.112 100.996C119.323 99.4382 121.409 97.2317 123.307 95.0434L125.147 96.2728C124.761 96.9873 124.359 97.6346 123.931 98.2948C123.509 98.9533 123.058 99.5943 122.576 100.218C121.614 101.468 120.584 102.695 119.309 103.795C118.672 104.347 117.976 104.872 117.148 105.318C116.321 105.75 115.342 106.162 114.116 106.177C113.814 106.181 113.5 106.155 113.187 106.098C112.88 106.048 112.526 105.936 112.337 105.865C111.883 105.708 111.447 105.516 111.033 105.297C110.2 104.865 109.455 104.333 108.78 103.757C106.098 101.418 104.456 98.5324 103.106 95.6476C102.437 94.1965 101.851 92.7243 101.357 91.2268C100.858 89.7145 100.421 88.256 100.068 86.6283L104.435 85.6824Z" fill="#B55B52"/>
<path d="M123.086 95.2648L124.367 92.9084L127.932 93.8521C127.932 93.8521 125.797 97.1081 123.963 97.1132L123.086 95.2648Z" fill="#B55B52"/>
<path d="M127.269 92.0605L129.98 93.8523H127.93L124.365 92.9086L127.269 92.0605Z" fill="#B55B52"/>
<path d="M78.8105 206.025L83.1776 206.347L84.4749 196.319L80.1078 195.997L78.8105 206.025Z" fill="#B55B52"/>
<path d="M44.4414 184.463L47.4603 187.702L55.6451 181.841L52.6268 178.601L44.4414 184.463Z" fill="#B55B52"/>
<path d="M48.7819 187.198L46.2631 182.9C46.1715 182.744 45.9916 182.679 45.8303 182.743L42.2423 184.189C41.87 184.339 41.7241 184.833 41.9413 185.19C42.8448 186.674 43.3534 187.346 44.4612 189.236C45.1429 190.399 46.021 192.167 46.9624 193.773C47.8829 195.343 49.4953 194.56 49.243 193.809C48.1115 190.444 48.6976 189.464 48.929 187.971C48.9703 187.702 48.916 187.427 48.7819 187.198Z" fill="#263238"/>
<path d="M83.4505 205.725H78.542C78.3632 205.725 78.2156 205.849 78.1856 206.023L77.5265 209.907C77.458 210.31 77.7946 210.691 78.2071 210.684C79.9191 210.655 80.7468 210.554 82.9051 210.554C84.233 210.554 86.9763 210.692 88.8105 210.692C90.604 210.692 90.7889 208.879 90.0291 208.714C86.6238 207.977 85.3022 206.962 84.1736 205.993C83.9704 205.819 83.7119 205.725 83.4505 205.725Z" fill="#263238"/>
<path d="M84.4744 196.322L83.7548 201.895L79.4375 201.172L80.1057 196L84.4744 196.322Z" fill="#9E4541"/>
<path d="M52.6233 178.602L55.6433 181.842L52.2561 184.267L49.1309 181.101L52.6233 178.602Z" fill="#9E4541"/>
<path d="M79.1367 105.161C82.5233 105.815 89.7068 107.208 96.6537 108.556C104.931 84.187 102.951 83.3983 102.951 83.3983C102.951 83.3983 101.193 82.4196 98.975 81.5528C98.8901 81.5194 98.8109 81.4911 98.7374 81.4634C97.6178 81.0549 97.3813 80.9938 95.8809 80.5571C93.301 79.9472 90.8983 79.4493 87.9269 79.0188C87.7362 78.9911 87.545 78.9628 87.3594 78.9401C86.8208 78.8728 86.2873 78.8174 85.7714 78.767C85.4234 78.728 85.076 78.7054 84.7451 78.6833C84.353 78.6607 83.9717 78.6386 83.6136 78.6216C81.6979 78.5266 80.3288 78.5543 80.3288 78.5543C81.3324 93.7619 80.6009 98.1301 79.1367 105.161Z" fill="#407BFF"/>
<path opacity="0.5" d="M79.1367 105.161C82.5233 105.815 89.7068 107.208 96.6537 108.556C104.931 84.187 102.951 83.3983 102.951 83.3983C102.951 83.3983 101.193 82.4196 98.975 81.5528C98.8901 81.5194 98.8109 81.4911 98.7374 81.4634C97.6178 81.0549 97.3813 80.9938 95.8809 80.5571C93.301 79.9472 90.8983 79.4493 87.9269 79.0188C87.7362 78.9911 87.545 78.9628 87.3594 78.9401C86.8208 78.8728 86.2873 78.8174 85.7714 78.767C85.4234 78.728 85.076 78.7054 84.7451 78.6833C84.353 78.6607 83.9717 78.6386 83.6136 78.6216C81.6979 78.5266 80.3288 78.5543 80.3288 78.5543C81.3324 93.7619 80.6009 98.1301 79.1367 105.161Z" fill="black"/>
<path d="M99.4095 90.8129C98.725 94.2414 99.4491 97.0928 99.9244 98.4563C101.378 93.6926 102.204 90.4338 102.651 88.2048C101.31 88.0294 99.8791 88.465 99.4095 90.8129Z" fill="#407BFF"/>
<path opacity="0.6" d="M99.4095 90.8129C98.725 94.2414 99.4491 97.0928 99.9244 98.4563C101.378 93.6926 102.204 90.4338 102.651 88.2048C101.31 88.0294 99.8791 88.465 99.4095 90.8129Z" fill="black"/>
<path d="M102.802 83.3169C105.724 85.2241 107.587 89.4678 108.082 91.8989L101.302 97.4252C101.302 97.4252 97.6081 89.1776 98.8205 87.0696C100.083 84.875 101.697 82.5955 102.802 83.3169Z" fill="#407BFF"/>
<path opacity="0.5" d="M102.802 83.3169C105.724 85.2241 107.587 89.4678 108.082 91.8989L101.302 97.4252C101.302 97.4252 97.6081 89.1776 98.8205 87.0696C100.083 84.875 101.697 82.5955 102.802 83.3169Z" fill="black"/>
<path d="M89.7571 64.2041C89.3175 68.5033 89.0397 70.3109 90.8376 72.9094C93.542 76.8182 98.9393 76.5738 100.659 72.5309C102.207 68.8914 102.666 62.4723 98.7628 59.9717C94.9168 57.5078 90.1961 59.9049 89.7571 64.2041Z" fill="#B55B52"/>
<path d="M89.8187 55.4279C87.1783 57.3849 88.8699 57.8562 87.744 59.8295C86.535 61.9483 85.2734 59.5353 82.8723 61.864C81.3165 63.3729 83.9721 64.9757 82.0395 67.6336C80.538 69.6986 78.9075 67.9097 79.5406 72.1421C79.9728 75.0314 78.2048 74.6722 77.0122 76.3067C75.3019 78.6506 76.8351 80.3298 81.2028 81.2101C85.5704 82.0898 82.4576 86.4846 86.5656 86.6159C91.0447 86.7596 90.0042 80.9215 92.192 82.3416C94.2978 83.7079 98.3492 82.4649 98.1104 78.9776C97.8909 75.7771 94.3374 75.8869 97.2148 73.698C99.4665 71.9848 100.16 72.0069 98.5681 68.3589C97.2148 65.2585 102.183 65.7304 102.091 63.043C101.924 58.1968 98.5681 59.6485 97.5113 57.1654C96.825 55.553 93.2047 52.9182 89.8187 55.4279Z" fill="#263238"/>
<path d="M98.1134 66.4437C98.106 67.2295 98.4483 68.064 98.8908 68.6688C99.5566 69.5791 100.341 69.3387 100.535 68.5036C100.71 67.7517 100.574 66.3718 99.7235 65.7387C98.8857 65.1147 98.1219 65.5453 98.1134 66.4437Z" fill="#B55B52"/>
<path d="M92.0297 107.659C92.0297 107.659 83.4952 136.237 79.3267 152.696C74.9285 170.061 53.9389 184.215 53.9389 184.215L49.4609 179.76C49.4609 179.76 63.4929 167.917 67.7536 151.712C76.4029 118.816 72.2417 111.849 79.1377 105.162L92.0297 107.659Z" fill="#407BFF"/>
<path opacity="0.8" d="M92.0297 107.659C92.0297 107.659 83.4952 136.237 79.3267 152.696C74.9285 170.061 53.9389 184.215 53.9389 184.215L49.4609 179.76C49.4609 179.76 63.4929 167.917 67.7536 151.712C76.4029 118.816 72.2417 111.849 79.1377 105.162L92.0297 107.659Z" fill="white"/>
<path d="M54.3271 184.862L48.7363 179.299L50.256 177.613L57.0609 183.408L54.3271 184.862Z" fill="#407BFF"/>
<path d="M88.0221 113.746C82.4233 118.063 82.0488 134.518 82.1772 141.951C85.0241 131.56 88.3915 119.999 90.3603 113.309C89.8229 112.856 89.0512 112.951 88.0221 113.746Z" fill="#407BFF"/>
<path opacity="0.6" d="M88.0221 113.746C82.4233 118.063 82.0488 134.518 82.1772 141.951C85.0241 131.56 88.3915 119.999 90.3603 113.309C89.8229 112.856 89.0512 112.951 88.0221 113.746Z" fill="white"/>
<path d="M49.6906 189.53C49.6385 189.53 49.5853 189.522 49.5327 189.505C48.9998 189.343 48.6219 188.368 48.4442 187.801C48.4318 187.761 48.4442 187.718 48.4759 187.691C48.5081 187.664 48.5528 187.659 48.5896 187.678C48.7509 187.761 50.1664 188.499 50.223 189.058C50.2354 189.182 50.1862 189.293 50.0798 189.378C49.9525 189.479 49.8224 189.53 49.6906 189.53ZM48.7231 187.985C48.9868 188.732 49.3059 189.22 49.5933 189.308C49.7109 189.345 49.8281 189.314 49.9503 189.216C50.0165 189.163 50.0204 189.115 50.017 189.079C49.987 188.784 49.281 188.297 48.7231 187.985Z" fill="#407BFF"/>
<path d="M96.3934 108.554C96.3934 108.554 97.4842 143.131 95.0413 156.154C92.5005 169.701 84.7615 200.516 84.7615 200.516L78.4629 199.703C78.4629 199.703 82.4458 168.574 84.1369 155.114C85.9807 140.441 83.5649 106.07 83.5649 106.07L96.3934 108.554Z" fill="#407BFF"/>
<path opacity="0.8" d="M96.3934 108.554C96.3934 108.554 97.4842 143.131 95.0413 156.154C92.5005 169.701 84.7615 200.516 84.7615 200.516L78.4629 199.703C78.4629 199.703 82.4458 168.574 84.1369 155.114C85.9807 140.441 83.5649 106.07 83.5649 106.07L96.3934 108.554Z" fill="white"/>
<path d="M86.103 200.876L77.125 199.717L77.2365 197.584L87.0031 198.01L86.103 200.876Z" fill="#407BFF"/>
<path d="M49.8346 188.166C49.3464 188.166 48.7546 188.016 48.4898 187.859C48.4581 187.84 48.4395 187.806 48.4395 187.77C48.44 187.733 48.4593 187.699 48.4909 187.681C48.5362 187.655 49.5987 187.037 50.2012 187.235C50.3659 187.288 50.4841 187.394 50.552 187.551C50.6589 187.795 50.5537 187.938 50.4813 188.002C50.3478 188.119 50.1067 188.166 49.8346 188.166ZM48.7687 187.765C49.2604 187.964 50.1175 188.046 50.3438 187.847C50.3811 187.813 50.4168 187.76 50.3619 187.634C50.3172 187.533 50.2437 187.466 50.1367 187.432C49.7769 187.316 49.1336 187.579 48.7687 187.765Z" fill="#407BFF"/>
<path d="M85.0742 206.49C84.5927 206.49 84.0722 206.407 83.7028 206.333C83.6592 206.324 83.6264 206.29 83.6202 206.246C83.614 206.203 83.636 206.16 83.6756 206.14C83.8759 206.037 85.6439 205.144 86.1706 205.444C86.2719 205.502 86.3296 205.597 86.3381 205.72C86.3511 205.925 86.2843 206.095 86.1384 206.223C85.9087 206.422 85.5076 206.49 85.0742 206.49ZM84.049 206.186C85.0108 206.346 85.7299 206.304 86.0015 206.066C86.0976 205.982 86.1401 205.873 86.131 205.732C86.1276 205.678 86.109 205.646 86.0688 205.623C85.7819 205.461 84.7755 205.841 84.049 206.186Z" fill="#407BFF"/>
<path d="M83.7223 206.334C83.7008 206.334 83.6793 206.328 83.6618 206.315C83.6318 206.293 83.6154 206.257 83.6199 206.22C83.6284 206.14 83.853 204.248 84.8923 204.361C85.1746 204.389 85.2566 204.533 85.2747 204.648C85.3539 205.141 84.2971 206.088 83.7647 206.326C83.7511 206.332 83.737 206.334 83.7223 206.334ZM84.8108 204.564C84.1806 204.564 83.9322 205.601 83.8547 206.045C84.3989 205.721 85.118 204.977 85.0699 204.681C85.0665 204.657 85.0547 204.586 84.8708 204.567C84.8504 204.565 84.8306 204.564 84.8108 204.564Z" fill="#407BFF"/>
<path d="M79.0458 104.089L77.998 105.495C77.9165 105.604 78.0404 105.755 78.243 105.795L96.6148 109.353C96.7726 109.383 96.9163 109.332 96.9424 109.235L97.3576 107.706C97.3865 107.6 97.2649 107.482 97.0917 107.449L79.3518 104.013C79.2223 103.988 79.0978 104.019 79.0458 104.089Z" fill="#407BFF"/>
<path d="M81.1026 106.522L80.6274 106.43C80.5329 106.412 80.469 106.349 80.4848 106.292L81.0421 104.309C81.0585 104.251 81.149 104.219 81.2441 104.237L81.7193 104.329C81.8138 104.347 81.8777 104.41 81.8619 104.468L81.3046 106.45C81.2882 106.508 81.1971 106.54 81.1026 106.522Z" fill="#407BFF"/>
<path opacity="0.8" d="M81.1026 106.522L80.6274 106.43C80.5329 106.412 80.469 106.349 80.4848 106.292L81.0421 104.309C81.0585 104.251 81.149 104.219 81.2441 104.237L81.7193 104.329C81.8138 104.347 81.8777 104.41 81.8619 104.468L81.3046 106.45C81.2882 106.508 81.1971 106.54 81.1026 106.522Z" fill="white"/>
<path d="M93.1008 108.874L92.6256 108.782C92.5311 108.764 92.4666 108.701 92.483 108.643L93.0403 106.661C93.0567 106.603 93.1472 106.57 93.2423 106.589L93.7175 106.681C93.812 106.699 93.8765 106.762 93.8601 106.819L93.3028 108.802C93.2858 108.86 93.1953 108.892 93.1008 108.874Z" fill="#407BFF"/>
<path opacity="0.8" d="M93.1008 108.874L92.6256 108.782C92.5311 108.764 92.4666 108.701 92.483 108.643L93.0403 106.661C93.0567 106.603 93.1472 106.57 93.2423 106.589L93.7175 106.681C93.812 106.699 93.8765 106.762 93.8601 106.819L93.3028 108.802C93.2858 108.86 93.1953 108.892 93.1008 108.874Z" fill="white"/>
</svg>
