<svg width="296" height="218" viewBox="0 0 296 218" fill="none" xmlns="http://www.w3.org/2000/svg">
<path d="M265.965 203.091H246.385V203.239H265.965V203.091Z" fill="#EBEBEB"/>
<path d="M195.807 204.695H190.668V204.843H195.807V204.695Z" fill="#EBEBEB"/>
<path d="M245.795 197.601H234.449V197.749H245.795V197.601Z" fill="#EBEBEB"/>
<path d="M56.546 198.594H31.0117V198.742H56.546V198.594Z" fill="#EBEBEB"/>
<path d="M65.5544 198.594H61.8105V198.742H65.5544V198.594Z" fill="#EBEBEB"/>
<path d="M133.099 201.091H77.7207V201.239H133.099V201.091Z" fill="#EBEBEB"/>
<path d="M140.114 167.211H25.9603C24.0999 167.211 22.5859 165.697 22.5859 163.836V3.37438C22.5859 1.51398 24.0999 0 25.9603 0H140.114C141.974 0 143.488 1.51398 143.488 3.37438V163.836C143.488 165.697 141.974 167.211 140.114 167.211ZM25.9603 0.148383C24.1809 0.148383 22.7337 1.59556 22.7337 3.37497V163.837C22.7337 165.616 24.1809 167.063 25.9603 167.063H140.114C141.893 167.063 143.34 165.616 143.34 163.837V3.37438C143.34 1.59556 141.893 0.147792 140.114 0.147792L25.9603 0.148383Z" fill="#EBEBEB"/>
<path d="M267.982 167.211H153.829C151.968 167.211 150.455 165.697 150.455 163.836V3.37438C150.455 1.51398 151.969 0 153.829 0H267.982C269.843 0 271.356 1.51398 271.356 3.37438V163.836C271.357 165.697 269.843 167.211 267.982 167.211ZM153.829 0.148383C152.05 0.148383 150.603 1.59556 150.603 3.37497V163.837C150.603 165.616 152.05 167.063 153.829 167.063H267.982C269.762 167.063 271.209 165.616 271.209 163.837V3.37438C271.209 1.59556 269.762 0.147792 267.982 0.147792L153.829 0.148383Z" fill="#EBEBEB"/>
<path d="M295.584 193.575H0V193.723H295.584V193.575Z" fill="#EBEBEB"/>
<path d="M246.365 23.4795H172.596V102.04H246.365V23.4795Z" fill="#EBEBEB"/>
<path d="M241.929 27.9131H177.027V97.607H241.929V27.9131Z" fill="#F5F5F5"/>
<path d="M202.504 97.6064H222.012L240.327 27.9131H220.819L202.504 97.6064Z" fill="#FAFAFA"/>
<path d="M211.754 27.9131L193.439 97.6064H198.169L216.484 27.9131H211.754Z" fill="#FAFAFA"/>
<path d="M247.3 27.176H171.661L170.064 23.4517H248.897L247.3 27.176Z" fill="#F5F5F5"/>
<path d="M247.3 29.3332H171.661L170.064 25.6089H248.897L247.3 29.3332Z" fill="#F0F0F0"/>
<path d="M247.3 31.491H171.661L170.064 27.7666H248.897L247.3 31.491Z" fill="#E6E6E6"/>
<path d="M247.3 33.6482H171.661L170.064 29.9238H248.897L247.3 33.6482Z" fill="#E0E0E0"/>
<path d="M251.644 18.7869H167.314V23.7533H251.644V18.7869Z" fill="#E0E0E0"/>
<path d="M168.18 68.7764C167.706 68.7764 167.322 68.3921 167.322 67.9186V38.9549C167.322 38.4808 167.707 38.0972 168.18 38.0972C168.654 38.0972 169.038 38.4814 169.038 38.9549V67.9186C169.038 68.3921 168.654 68.7764 168.18 68.7764Z" fill="#E0E0E0"/>
<path d="M168.49 22.7568H167.869V39.9586H168.49V22.7568Z" fill="#E0E0E0"/>
<path d="M53.5153 21.959H52.4512V104.939H53.5153V21.959Z" fill="#E0E0E0"/>
<path d="M119.756 21.959H118.691V104.939H119.756V21.959Z" fill="#E0E0E0"/>
<path d="M123.924 27.176H48.2837L46.6875 23.4517H125.52L123.924 27.176Z" fill="#F5F5F5"/>
<path d="M123.924 32.289H48.2837L46.6875 28.5647H125.52L123.924 32.289Z" fill="#F5F5F5"/>
<path d="M123.924 37.4028H48.2837L46.6875 33.6785H125.52L123.924 37.4028Z" fill="#F5F5F5"/>
<path d="M123.924 42.5156H48.2837L46.6875 38.7913H125.52L123.924 42.5156Z" fill="#F5F5F5"/>
<path d="M123.924 47.6287H48.2837L46.6875 43.9043H125.52L123.924 47.6287Z" fill="#F5F5F5"/>
<path d="M123.924 52.7422H48.2837L46.6875 49.0178H125.52L123.924 52.7422Z" fill="#F5F5F5"/>
<path d="M123.924 57.8552H48.2837L46.6875 54.1309H125.52L123.924 57.8552Z" fill="#F5F5F5"/>
<path d="M123.924 62.9682H48.2837L46.6875 59.2439H125.52L123.924 62.9682Z" fill="#F5F5F5"/>
<path d="M123.924 68.082H48.2837L46.6875 64.3577H125.52L123.924 68.082Z" fill="#F5F5F5"/>
<path d="M123.924 73.1951H48.2837L46.6875 69.4707H125.52L123.924 73.1951Z" fill="#F5F5F5"/>
<path d="M123.924 78.3086H48.2837L46.6875 74.5842H125.52L123.924 78.3086Z" fill="#F5F5F5"/>
<path d="M123.924 83.4214H48.2837L46.6875 79.697H125.52L123.924 83.4214Z" fill="#F5F5F5"/>
<path d="M123.924 88.5343H48.2837L46.6875 84.8105H125.52L123.924 88.5343Z" fill="#F5F5F5"/>
<path d="M123.924 93.6479H48.2837L46.6875 89.9236H125.52L123.924 93.6479Z" fill="#F5F5F5"/>
<path d="M123.924 98.761H48.2837L46.6875 95.0366H125.52L123.924 98.761Z" fill="#F5F5F5"/>
<path d="M123.924 103.875H48.2837L46.6875 100.15H125.52L123.924 103.875Z" fill="#F5F5F5"/>
<path d="M125.52 103.875H46.6875V106.003H125.52V103.875Z" fill="#E0E0E0"/>
<path d="M128.268 18.7869H43.9375V23.7533H128.268V18.7869Z" fill="#E0E0E0"/>
<path d="M44.8031 68.7764C44.329 68.7764 43.9453 68.3921 43.9453 67.9186V38.9549C43.9453 38.4808 44.3296 38.0972 44.8031 38.0972C45.2766 38.0972 45.6609 38.4814 45.6609 38.9549V67.9186C45.6615 68.3921 45.2772 68.7764 44.8031 68.7764Z" fill="#E0E0E0"/>
<path d="M45.1129 22.7568H44.4922V39.9586H45.1129V22.7568Z" fill="#E0E0E0"/>
<path d="M52.8001 158.093C52.728 158.173 53.1259 158.729 51.5067 158.485C47.5175 157.886 40.5707 156.27 38.6364 152.165C35.8744 146.304 44.4375 148.443 44.1419 145.448C43.8463 142.452 34.1033 142.974 33.0682 138.58C32.033 134.185 38.6429 136.278 38.7304 134.136C38.8178 131.995 31.2036 133.324 29.6926 128.584C28.181 123.843 33.936 127.333 33.2745 125.362C32.613 123.391 26.1716 114.475 29.6766 113.44C33.1817 112.404 39.0862 121.554 41.3646 122.85C43.643 124.147 45.6677 116.679 48.3835 119.832C51.0993 122.985 46.7921 134.016 50.2558 136.157C52.8356 137.751 52.1073 133.36 55.5118 134.179C60.1377 135.294 58.5818 151.626 52.8001 158.093Z" fill="#EBEBEB"/>
<path d="M40.4852 134.162C42.0547 134.294 43.2134 134.613 43.9329 134.871C42.5271 132.812 41.5162 131.755 41.4795 131.718C41.3654 131.602 41.3666 131.415 41.4831 131.301C41.5989 131.186 41.7857 131.188 41.9004 131.303C41.9288 131.332 44.2604 133.734 46.8142 138.432C48.0681 130.873 44.9024 124.265 44.8693 124.197C44.8155 124.087 44.861 123.954 44.9709 123.9C45.0803 123.846 45.2133 123.892 45.2671 124.002C45.302 124.073 48.6817 131.125 47.1494 139.057C47.5573 139.835 47.9682 140.668 48.3743 141.561C49.5472 144.143 50.7744 147.453 51.7445 151.442C52.4179 150.225 53.9614 146.967 54.0992 142.419C54.1027 142.296 54.205 142.2 54.3273 142.204C54.4521 142.212 54.5461 142.31 54.5425 142.433C54.3829 147.696 52.3659 151.295 51.8982 152.062C53.1823 157.596 53.952 164.408 53.3992 172.432C53.388 172.595 53.2467 172.718 53.0841 172.706C53.0717 172.706 53.0593 172.704 53.0475 172.702C52.9032 172.673 52.7992 172.542 52.8098 172.391C53.5423 161.767 51.9526 153.228 49.7547 146.761C49.1966 146.116 47.5478 144.459 45.0377 144.07C44.9242 144.042 44.8338 143.937 44.8533 143.816C44.8722 143.696 44.9857 143.613 45.1063 143.632C47.0909 143.946 48.5451 144.975 49.4088 145.77C47.7867 141.278 45.8985 137.862 44.3691 135.524C43.8761 135.302 42.5288 134.778 40.4491 134.605C40.3291 134.589 40.2363 134.488 40.2469 134.365C40.2558 134.243 40.3634 134.152 40.4852 134.162Z" fill="#F5F5F5"/>
<path d="M57.9103 160.356C61.2256 160.42 66.8878 157.341 69.1111 154.345C71.367 151.306 65.0214 153.191 65.6729 150.805C66.3244 148.418 74.1479 150.182 75.5915 146.764C77.0351 143.345 71.3907 144.131 71.6147 142.384C71.8388 140.636 77.6866 140.991 79.5636 137.358C81.4411 133.724 76.2974 135.76 77.1043 134.254C77.9118 132.748 84.3585 126.409 81.661 125.088C78.9629 123.767 72.9188 130.368 70.8941 131.105C68.8693 131.843 68.3958 127.282 65.761 129.463C63.1262 131.644 65.0983 141.176 61.9964 142.434C59.6862 143.371 60.6687 139.007 58.009 140.108C53.3536 142.037 56.5642 160.33 57.9103 160.356Z" fill="#E0E0E0"/>
<g opacity="0.3">
<path d="M57.9103 160.356C61.2256 160.42 66.8878 157.341 69.1111 154.345C71.367 151.306 65.0214 153.191 65.6729 150.805C66.3244 148.418 74.1479 150.182 75.5915 146.764C77.0351 143.345 71.3907 144.131 71.6147 142.384C71.8388 140.636 77.6866 140.991 79.5636 137.358C81.4411 133.724 76.2974 135.76 77.1043 134.254C77.9118 132.748 84.3585 126.409 81.661 125.088C78.9629 123.767 72.9188 130.368 70.8941 131.105C68.8693 131.843 68.3958 127.282 65.761 129.463C63.1262 131.644 65.0983 141.176 61.9964 142.434C59.6862 143.371 60.6687 139.007 58.009 140.108C53.3536 142.037 56.5642 160.33 57.9103 160.356Z" fill="#E0E0E0"/>
</g>
<path d="M59.0061 156.377C58.9582 156.358 58.915 156.329 58.889 156.28C58.8116 156.133 56.9943 152.618 57.4017 147.393C57.4117 147.271 57.514 147.182 57.6399 147.189C57.7623 147.199 57.8533 147.305 57.8438 147.427C57.4998 151.839 58.8163 155.068 59.1858 155.874C60.6696 151.845 62.4485 148.262 64.2344 145.194C63.6479 138.075 67.2954 132.246 67.3327 132.188C67.3983 132.085 67.5349 132.054 67.6389 132.12C67.7424 132.186 67.7731 132.323 67.7069 132.427C67.672 132.482 64.3219 137.841 64.634 144.508C68.8827 137.392 73.0303 133.257 73.1131 133.176C73.2296 133.062 73.417 133.063 73.5311 133.18C73.6452 133.296 73.6434 133.484 73.5269 133.598C73.4572 133.666 70.5084 136.613 67.0566 141.779C69.0796 141.028 71.2734 140.636 73.3242 140.676C73.4465 140.678 73.5441 140.779 73.5417 140.902C73.5393 141.023 73.4406 141.119 73.32 141.119C73.3188 141.119 73.3171 141.119 73.3159 141.119C71.1203 141.08 68.7574 141.539 66.631 142.421C65.4439 144.241 64.2113 146.32 63.0237 148.625C64.1634 147.854 66.3768 146.787 69.2085 147.536C69.3267 147.567 69.3976 147.688 69.3663 147.806C69.335 147.925 69.2138 147.997 69.0949 147.964C65.5036 147.017 62.9722 149.163 62.5578 149.545C59.307 156.091 56.5031 164.367 56.1318 173.85C56.1259 174.01 55.9947 174.134 55.8368 174.134C55.8327 174.134 55.8292 174.134 55.825 174.134C55.6619 174.128 55.5348 173.99 55.5413 173.827C55.7931 167.409 57.1522 161.543 59.0061 156.377Z" fill="#F5F5F5"/>
<path d="M48.5888 192.739C45.4242 186.788 43.3457 178.191 43.3457 174.422C43.3457 171.237 44.8396 168.379 47.2096 166.377H63.4141C65.7841 168.379 67.2779 171.237 67.2779 174.422C67.2779 178.191 65.1994 186.788 62.0349 192.739H48.5888Z" fill="#F0F0F0"/>
<path d="M144.941 218C208.245 218 259.562 215.003 259.562 211.306C259.562 207.609 208.245 204.612 144.941 204.612C81.6378 204.612 30.3203 207.609 30.3203 211.306C30.3203 215.003 81.6378 218 144.941 218Z" fill="#F5F5F5"/>
<path d="M173.007 38.2419H158.829C157.9 38.2419 157.056 38.9318 156.858 39.8535L156.762 40.2974C156.278 42.5468 154.216 44.2322 151.948 44.2322H138.47C136.202 44.2322 134.435 42.5468 134.344 40.2974L134.327 39.8535C134.289 38.9324 133.566 38.2419 132.638 38.2419H118.46C113.731 38.2419 109.563 42.0751 109.149 46.8038L97.7422 177.179C97.3284 181.907 100.826 185.741 105.555 185.741H160.103C164.831 185.741 169 181.907 169.414 177.179L180.82 46.8038C181.233 42.0751 177.735 38.2419 173.007 38.2419Z" fill="#407BFF"/>
<path opacity="0.7" d="M173.007 38.2419H158.829C157.9 38.2419 157.056 38.9318 156.858 39.8535L156.762 40.2974C156.278 42.5468 154.216 44.2322 151.948 44.2322H138.47C136.202 44.2322 134.435 42.5468 134.344 40.2974L134.327 39.8535C134.289 38.9324 133.566 38.2419 132.638 38.2419H118.46C113.731 38.2419 109.563 42.0751 109.149 46.8038L97.7422 177.179C97.3284 181.907 100.826 185.741 105.555 185.741H160.103C164.831 185.741 169 181.907 169.414 177.179L180.82 46.8038C181.233 42.0751 177.735 38.2419 173.007 38.2419Z" fill="white"/>
<path d="M167.477 98.2063H138.513C137.462 98.2063 136.685 97.3544 136.777 96.3033L138.959 71.3632C139.051 70.3121 139.977 69.4602 141.028 69.4602H169.992C171.043 69.4602 171.821 70.3121 171.728 71.3632L169.546 96.3033C169.455 97.3544 168.528 98.2063 167.477 98.2063Z" fill="white"/>
<path d="M157.835 176.193H109.367C106.757 176.193 104.827 174.078 105.055 171.469C105.284 168.859 107.584 166.744 110.193 166.744H158.661C161.271 166.744 163.201 168.859 162.973 171.469C162.744 174.078 160.444 176.193 157.835 176.193Z" fill="white"/>
<path d="M161.703 62.6045H117.23C115.765 62.6045 114.681 61.4168 114.809 59.9519L115.172 55.8078C115.3 54.3429 116.592 53.1553 118.056 53.1553H162.531C163.995 53.1553 165.08 54.3429 164.951 55.8078L164.589 59.9519C164.46 61.4163 163.168 62.6045 161.703 62.6045Z" fill="white"/>
<path d="M170.745 55.672C170.71 56.0799 170.35 56.4103 169.942 56.4103C169.534 56.4103 169.233 56.0799 169.268 55.672C169.304 55.2641 169.664 54.9336 170.071 54.9336C170.479 54.9336 170.781 55.2641 170.745 55.672Z" fill="white"/>
<path d="M170.552 57.8792C170.516 58.2871 170.157 58.6176 169.749 58.6176C169.341 58.6176 169.04 58.2871 169.075 57.8792C169.111 57.4713 169.47 57.1409 169.878 57.1409C170.286 57.1409 170.587 57.4713 170.552 57.8792Z" fill="white"/>
<path d="M170.358 60.0875C170.323 60.4954 169.964 60.8259 169.556 60.8259C169.148 60.8259 168.846 60.4954 168.882 60.0875C168.917 59.6796 169.277 59.3491 169.685 59.3491C170.092 59.3491 170.394 59.6796 170.358 60.0875Z" fill="white"/>
<path d="M163.877 139.355H109.765C108.714 139.355 107.937 138.503 108.029 137.452L110.519 108.985C110.612 107.933 111.538 107.082 112.588 107.082H166.7C167.752 107.082 168.528 107.933 168.437 108.985L165.946 137.452C165.854 138.503 164.928 139.355 163.877 139.355Z" fill="white"/>
<path d="M124.652 145.303H107.807C107.55 145.303 107.36 145.095 107.383 144.839C107.405 144.582 107.632 144.374 107.888 144.374H124.734C124.991 144.374 125.18 144.582 125.158 144.839C125.135 145.095 124.909 145.303 124.652 145.303Z" fill="white"/>
<path d="M145.712 145.303H127.627C127.37 145.303 127.181 145.095 127.203 144.839C127.225 144.582 127.452 144.374 127.708 144.374H145.793C146.05 144.374 146.24 144.582 146.217 144.839C146.195 145.095 145.968 145.303 145.712 145.303Z" fill="white"/>
<path d="M118.845 149.408H107.449C107.193 149.408 107.003 149.2 107.025 148.944C107.048 148.687 107.274 148.479 107.531 148.479H118.927C119.183 148.479 119.373 148.687 119.35 148.944C119.328 149.2 119.102 149.408 118.845 149.408Z" fill="white"/>
<path d="M140.486 149.408H121.818C121.562 149.408 121.372 149.2 121.394 148.944C121.417 148.687 121.643 148.479 121.9 148.479H140.568C140.824 148.479 141.014 148.687 140.992 148.944C140.969 149.2 140.743 149.408 140.486 149.408Z" fill="white"/>
<path d="M137.471 153.514H107.09C106.833 153.514 106.643 153.306 106.666 153.049C106.688 152.793 106.915 152.585 107.171 152.585H137.553C137.809 152.585 137.999 152.793 137.976 153.049C137.954 153.306 137.728 153.514 137.471 153.514Z" fill="white"/>
<path d="M142.447 153.514H140.441C140.185 153.514 139.995 153.306 140.017 153.049C140.04 152.793 140.266 152.585 140.523 152.585H142.529C142.785 152.585 142.975 152.793 142.953 153.049C142.93 153.306 142.704 153.514 142.447 153.514Z" fill="white"/>
<path d="M120.915 157.62H106.73C106.474 157.62 106.284 157.412 106.306 157.155C106.329 156.899 106.555 156.69 106.812 156.69H120.996C121.253 156.69 121.443 156.899 121.42 157.155C121.398 157.411 121.171 157.62 120.915 157.62Z" fill="white"/>
<path d="M141.547 157.62H123.887C123.63 157.62 123.44 157.412 123.463 157.155C123.485 156.899 123.712 156.69 123.968 156.69H141.629C141.885 156.69 142.075 156.899 142.053 157.155C142.03 157.411 141.804 157.62 141.547 157.62Z" fill="white"/>
<path d="M123.836 161.725H106.371C106.114 161.725 105.925 161.517 105.947 161.26C105.97 161.003 106.196 160.795 106.453 160.795H123.918C124.175 160.795 124.364 161.003 124.342 161.26C124.319 161.517 124.093 161.725 123.836 161.725Z" fill="white"/>
<path d="M140.878 161.725H126.808C126.552 161.725 126.362 161.517 126.385 161.26C126.407 161.003 126.633 160.795 126.89 160.795H140.96C141.216 160.795 141.406 161.003 141.384 161.26C141.361 161.517 141.135 161.725 140.878 161.725Z" fill="white"/>
<path d="M166.791 95.8459C166.554 96.0906 166.178 96.1143 165.952 95.8985L141.758 72.8081C141.531 72.5923 141.541 72.2187 141.778 71.9734C142.015 71.7286 142.391 71.705 142.617 71.9208L166.811 95.0112C167.037 95.2275 167.028 95.6012 166.791 95.8459Z" fill="#407BFF"/>
<path d="M139.616 95.8364C139.421 95.5911 139.477 95.2175 139.742 95.0017L152.083 84.9093C152.347 84.6935 152.718 84.7172 152.913 84.9619C153.107 85.2072 153.051 85.5808 152.787 85.7966L140.446 95.889C140.182 96.1054 139.81 96.0818 139.616 95.8364Z" fill="#407BFF"/>
<path d="M155.565 82.7934C155.371 82.5487 155.427 82.1745 155.691 81.9587L168.055 71.8468C168.319 71.631 168.691 71.6547 168.885 71.8994C169.08 72.1447 169.024 72.5184 168.759 72.7341L156.395 82.8461C156.131 83.0624 155.76 83.0388 155.565 82.7934Z" fill="#407BFF"/>
<g opacity="0.7">
<path d="M166.791 95.8459C166.554 96.0906 166.178 96.1143 165.952 95.8985L141.758 72.8081C141.531 72.5923 141.541 72.2187 141.778 71.9734C142.015 71.7286 142.391 71.705 142.617 71.9208L166.811 95.0112C167.037 95.2275 167.028 95.6012 166.791 95.8459Z" fill="white"/>
</g>
<g opacity="0.7">
<path d="M139.616 95.8364C139.421 95.5911 139.477 95.2175 139.742 95.0017L152.083 84.9093C152.347 84.6935 152.718 84.7172 152.913 84.9619C153.107 85.2072 153.051 85.5808 152.787 85.7966L140.446 95.889C140.182 96.1054 139.81 96.0818 139.616 95.8364Z" fill="white"/>
</g>
<g opacity="0.7">
<path d="M155.565 82.7934C155.371 82.5487 155.427 82.1745 155.691 81.9587L168.055 71.8468C168.319 71.631 168.691 71.6547 168.885 71.8994C169.08 72.1447 169.024 72.5184 168.759 72.7341L156.395 82.8461C156.131 83.0624 155.76 83.0388 155.565 82.7934Z" fill="white"/>
</g>
<path d="M97.9801 35.4067H90.3227C88.7703 35.4067 87.5117 36.6653 87.5117 38.2177V45.8751C87.5117 47.4275 88.7703 48.6861 90.3227 48.6861H97.9801C99.5325 48.6861 100.791 47.4275 100.791 45.8751V38.2177C100.791 36.6653 99.5325 35.4067 97.9801 35.4067ZM94.1511 38.1243C95.3069 38.1243 95.9282 39.0613 95.9282 40.2171C95.9282 41.3728 95.3069 42.3098 94.1511 42.3098C92.9954 42.3098 92.3741 41.3728 92.3741 40.2171C92.3741 39.0613 92.9954 38.1243 94.1511 38.1243ZM98.7735 45.9685H89.5294C89.4525 45.9685 89.3822 45.9372 89.3319 45.8864L89.9243 44.2683C90.3056 43.2267 91.297 42.5339 92.406 42.5339H95.8968C97.0059 42.5339 97.9973 43.2267 98.3786 44.2683L98.9709 45.8864C98.9201 45.9372 98.8503 45.9685 98.7735 45.9685Z" fill="#407BFF"/>
<path opacity="0.7" d="M97.9801 35.4067H90.3227C88.7703 35.4067 87.5117 36.6653 87.5117 38.2177V45.8751C87.5117 47.4275 88.7703 48.6861 90.3227 48.6861H97.9801C99.5325 48.6861 100.791 47.4275 100.791 45.8751V38.2177C100.791 36.6653 99.5325 35.4067 97.9801 35.4067ZM94.1511 38.1243C95.3069 38.1243 95.9282 39.0613 95.9282 40.2171C95.9282 41.3728 95.3069 42.3098 94.1511 42.3098C92.9954 42.3098 92.3741 41.3728 92.3741 40.2171C92.3741 39.0613 92.9954 38.1243 94.1511 38.1243ZM98.7735 45.9685H89.5294C89.4525 45.9685 89.3822 45.9372 89.3319 45.8864L89.9243 44.2683C90.3056 43.2267 91.297 42.5339 92.406 42.5339H95.8968C97.0059 42.5339 97.9973 43.2267 98.3786 44.2683L98.9709 45.8864C98.9201 45.9372 98.8503 45.9685 98.7735 45.9685Z" fill="white"/>
<path d="M70.7361 66.8994H64.9179C62.8263 66.8994 61.1309 68.5949 61.1309 70.6864V76.5047C61.1309 78.5963 62.8263 80.2917 64.9179 80.2917H70.7361C72.8277 80.2917 74.5232 78.5963 74.5232 76.5047V70.6864C74.5238 68.5949 72.8283 66.8994 70.7361 66.8994ZM67.827 76.7707C67.827 76.7707 65.4369 74.1708 65.4369 72.8507C65.4369 71.5306 66.5069 70.4606 67.827 70.4606C69.1471 70.4606 70.2171 71.5306 70.2171 72.8507C70.2177 74.1708 67.827 76.7707 67.827 76.7707Z" fill="#407BFF"/>
<path d="M67.827 71.76C67.2246 71.76 66.7363 72.2483 66.7363 72.8507C66.7363 73.4531 67.2246 73.9414 67.827 73.9414C68.4294 73.9414 68.9177 73.4531 68.9177 72.8507C68.9177 72.2483 68.4294 71.76 67.827 71.76Z" fill="#407BFF"/>
<g opacity="0.7">
<path d="M70.7361 66.8994H64.9179C62.8263 66.8994 61.1309 68.5949 61.1309 70.6864V76.5047C61.1309 78.5963 62.8263 80.2917 64.9179 80.2917H70.7361C72.8277 80.2917 74.5232 78.5963 74.5232 76.5047V70.6864C74.5238 68.5949 72.8283 66.8994 70.7361 66.8994ZM67.827 76.7707C67.827 76.7707 65.4369 74.1708 65.4369 72.8507C65.4369 71.5306 66.5069 70.4606 67.827 70.4606C69.1471 70.4606 70.2171 71.5306 70.2171 72.8507C70.2177 74.1708 67.827 76.7707 67.827 76.7707Z" fill="white"/>
<path d="M67.827 71.76C67.2246 71.76 66.7363 72.2483 66.7363 72.8507C66.7363 73.4531 67.2246 73.9414 67.827 73.9414C68.4294 73.9414 68.9177 73.4531 68.9177 72.8507C68.9177 72.2483 68.4294 71.76 67.827 71.76Z" fill="white"/>
</g>
<path d="M198.453 50.416L202.35 47.8935L198.453 45.3716V50.416Z" fill="#407BFF"/>
<path d="M203.473 41.0186H196.051C194.303 41.0186 192.887 42.435 192.887 44.1819V51.6052C192.887 53.3521 194.303 54.7685 196.051 54.7685H203.473C205.22 54.7685 206.637 53.3521 206.637 51.6052V44.1819C206.637 42.4344 205.22 41.0186 203.473 41.0186ZM199.762 52.8384C197.031 52.8384 194.817 50.6244 194.817 47.8932C194.817 45.162 197.031 42.9481 199.762 42.9481C202.493 42.9481 204.707 45.162 204.707 47.8932C204.707 50.6244 202.493 52.8384 199.762 52.8384Z" fill="#407BFF"/>
<g opacity="0.7">
<path d="M198.453 50.416L202.35 47.8935L198.453 45.3716V50.416Z" fill="white"/>
<path d="M203.473 41.0186H196.051C194.303 41.0186 192.887 42.435 192.887 44.1819V51.6052C192.887 53.3521 194.303 54.7685 196.051 54.7685H203.473C205.22 54.7685 206.637 53.3521 206.637 51.6052V44.1819C206.637 42.4344 205.22 41.0186 203.473 41.0186ZM199.762 52.8384C197.031 52.8384 194.817 50.6244 194.817 47.8932C194.817 45.162 197.031 42.9481 199.762 42.9481C202.493 42.9481 204.707 45.162 204.707 47.8932C204.707 50.6244 202.493 52.8384 199.762 52.8384Z" fill="white"/>
</g>
<path d="M210.763 69.4972C210.763 69.3435 210.755 69.1921 210.741 69.042L211.634 68.5466C211.566 68.1174 211.453 67.7036 211.302 67.3093L210.283 67.3264C210.154 67.0492 210.001 66.7855 209.826 66.5378L210.351 65.6635C210.081 65.3306 209.777 65.0268 209.444 64.7572L208.57 65.2816C208.322 65.1072 208.059 64.9547 207.781 64.8252L207.799 63.806C207.404 63.6541 206.991 63.5412 206.561 63.4744L206.066 64.3664C205.916 64.3534 205.764 64.3452 205.611 64.3452C205.457 64.3452 205.306 64.3534 205.156 64.3664L204.66 63.4744C204.231 63.5418 203.817 63.6547 203.423 63.806L203.44 64.8252C203.163 64.9541 202.899 65.1072 202.651 65.2816L201.777 64.7572C201.444 65.0268 201.14 65.3306 200.871 65.6635L201.395 66.5378C201.221 66.7855 201.068 67.0492 200.939 67.3264L199.92 67.3093C199.768 67.7036 199.655 68.1174 199.588 68.5466L200.48 69.042C200.467 69.1921 200.459 69.3435 200.459 69.4972C200.459 69.6509 200.466 69.8022 200.48 69.9524L199.588 70.4484C199.655 70.8776 199.768 71.2914 199.92 71.6857L200.939 71.6685C201.068 71.9458 201.221 72.2095 201.395 72.4572L200.871 73.3315C201.14 73.6643 201.444 73.9682 201.777 74.2378L202.651 73.7134C202.899 73.8878 203.163 74.0409 203.44 74.1698L203.423 75.1889C203.817 75.3409 204.231 75.4538 204.66 75.5206L205.156 74.6285C205.306 74.6415 205.457 74.6498 205.611 74.6498C205.764 74.6498 205.916 74.6415 206.066 74.6285L206.561 75.5206C206.991 75.4532 207.404 75.3403 207.799 75.1889L207.781 74.1698C208.059 74.0409 208.322 73.8878 208.57 73.7134L209.444 74.2378C209.777 73.9682 210.081 73.6643 210.351 73.3315L209.826 72.4572C210.001 72.2095 210.154 71.9458 210.283 71.6685L211.302 71.6857C211.454 71.2914 211.567 70.8776 211.634 70.4484L210.741 69.953C210.754 69.8022 210.763 69.6503 210.763 69.4972ZM205.611 72.9945C203.679 72.9945 202.113 71.4285 202.113 69.4972C202.113 67.5652 203.679 65.9998 205.611 65.9998C207.543 65.9998 209.108 67.5658 209.108 69.4972C209.108 71.4285 207.542 72.9945 205.611 72.9945Z" fill="#407BFF"/>
<path opacity="0.7" d="M210.763 69.4972C210.763 69.3435 210.755 69.1921 210.741 69.042L211.634 68.5466C211.566 68.1174 211.453 67.7036 211.302 67.3093L210.283 67.3264C210.154 67.0492 210.001 66.7855 209.826 66.5378L210.351 65.6635C210.081 65.3306 209.777 65.0268 209.444 64.7572L208.57 65.2816C208.322 65.1072 208.059 64.9547 207.781 64.8252L207.799 63.806C207.404 63.6541 206.991 63.5412 206.561 63.4744L206.066 64.3664C205.916 64.3534 205.764 64.3452 205.611 64.3452C205.457 64.3452 205.306 64.3534 205.156 64.3664L204.66 63.4744C204.231 63.5418 203.817 63.6547 203.423 63.806L203.44 64.8252C203.163 64.9541 202.899 65.1072 202.651 65.2816L201.777 64.7572C201.444 65.0268 201.14 65.3306 200.871 65.6635L201.395 66.5378C201.221 66.7855 201.068 67.0492 200.939 67.3264L199.92 67.3093C199.768 67.7036 199.655 68.1174 199.588 68.5466L200.48 69.042C200.467 69.1921 200.459 69.3435 200.459 69.4972C200.459 69.6509 200.466 69.8022 200.48 69.9524L199.588 70.4484C199.655 70.8776 199.768 71.2914 199.92 71.6857L200.939 71.6685C201.068 71.9458 201.221 72.2095 201.395 72.4572L200.871 73.3315C201.14 73.6643 201.444 73.9682 201.777 74.2378L202.651 73.7134C202.899 73.8878 203.163 74.0409 203.44 74.1698L203.423 75.1889C203.817 75.3409 204.231 75.4538 204.66 75.5206L205.156 74.6285C205.306 74.6415 205.457 74.6498 205.611 74.6498C205.764 74.6498 205.916 74.6415 206.066 74.6285L206.561 75.5206C206.991 75.4532 207.404 75.3403 207.799 75.1889L207.781 74.1698C208.059 74.0409 208.322 73.8878 208.57 73.7134L209.444 74.2378C209.777 73.9682 210.081 73.6643 210.351 73.3315L209.826 72.4572C210.001 72.2095 210.154 71.9458 210.283 71.6685L211.302 71.6857C211.454 71.2914 211.567 70.8776 211.634 70.4484L210.741 69.953C210.754 69.8022 210.763 69.6503 210.763 69.4972ZM205.611 72.9945C203.679 72.9945 202.113 71.4285 202.113 69.4972C202.113 67.5652 203.679 65.9998 205.611 65.9998C207.543 65.9998 209.108 67.5658 209.108 69.4972C209.108 71.4285 207.542 72.9945 205.611 72.9945Z" fill="white"/>
<path d="M197.293 87.0725C197.293 86.8431 197.281 86.6161 197.261 86.3915L198.596 85.6501C198.496 85.0081 198.327 84.3898 198.1 83.7992L196.576 83.8246C196.383 83.4102 196.153 83.0159 195.893 82.6452L196.677 81.3376C196.274 80.8398 195.819 80.3852 195.322 79.982L194.014 80.7659C193.643 80.5052 193.25 80.2764 192.835 80.0831L192.86 78.5591C192.27 78.3321 191.651 78.163 191.009 78.0625L190.268 79.3974C190.043 79.3778 189.817 79.3654 189.587 79.3654C189.357 79.3654 189.13 79.3773 188.906 79.3974L188.164 78.0625C187.522 78.163 186.903 78.3321 186.313 78.5591L186.339 80.0831C185.924 80.2764 185.53 80.5052 185.159 80.7659L183.852 79.982C183.354 80.3852 182.899 80.8398 182.496 81.3376L183.28 82.6452C183.019 83.0159 182.791 83.4102 182.597 83.8246L181.073 83.7992C180.846 84.3892 180.677 85.0081 180.576 85.6501L181.911 86.3915C181.892 86.6161 181.88 86.8425 181.88 87.0725C181.88 87.3019 181.892 87.5289 181.911 87.7535L180.576 88.4948C180.677 89.1368 180.846 89.7558 181.073 90.3458L182.597 90.3204C182.79 90.7348 183.019 91.1291 183.28 91.4997L182.496 92.8074C182.899 93.3052 183.354 93.7598 183.852 94.1629L185.159 93.3791C185.53 93.6398 185.924 93.8685 186.339 94.0619L186.313 95.5859C186.903 95.8129 187.522 95.982 188.164 96.0825L188.906 94.7476C189.13 94.7671 189.357 94.7789 189.587 94.7789C189.817 94.7789 190.043 94.7671 190.268 94.7476L191.009 96.0825C191.651 95.982 192.27 95.8129 192.86 95.5859L192.835 94.0619C193.249 93.8685 193.643 93.6398 194.014 93.3791L195.322 94.1629C195.819 93.7598 196.274 93.3052 196.677 92.8074L195.893 91.4997C196.153 91.1291 196.382 90.7348 196.576 90.3204L198.1 90.3458C198.327 89.7558 198.496 89.1368 198.596 88.4948L197.261 87.7535C197.28 87.5289 197.293 87.3024 197.293 87.0725ZM189.586 90.1099C187.908 90.1099 186.549 88.7502 186.549 87.0725C186.549 85.3947 187.908 84.0351 189.586 84.0351C191.264 84.0351 192.624 85.3947 192.624 87.0725C192.624 88.7502 191.263 90.1099 189.586 90.1099Z" fill="#407BFF"/>
<path opacity="0.7" d="M197.293 87.0725C197.293 86.8431 197.281 86.6161 197.261 86.3915L198.596 85.6501C198.496 85.0081 198.327 84.3898 198.1 83.7992L196.576 83.8246C196.383 83.4102 196.153 83.0159 195.893 82.6452L196.677 81.3376C196.274 80.8398 195.819 80.3852 195.322 79.982L194.014 80.7659C193.643 80.5052 193.25 80.2764 192.835 80.0831L192.86 78.5591C192.27 78.3321 191.651 78.163 191.009 78.0625L190.268 79.3974C190.043 79.3778 189.817 79.3654 189.587 79.3654C189.357 79.3654 189.13 79.3773 188.906 79.3974L188.164 78.0625C187.522 78.163 186.903 78.3321 186.313 78.5591L186.339 80.0831C185.924 80.2764 185.53 80.5052 185.159 80.7659L183.852 79.982C183.354 80.3852 182.899 80.8398 182.496 81.3376L183.28 82.6452C183.019 83.0159 182.791 83.4102 182.597 83.8246L181.073 83.7992C180.846 84.3892 180.677 85.0081 180.576 85.6501L181.911 86.3915C181.892 86.6161 181.88 86.8425 181.88 87.0725C181.88 87.3019 181.892 87.5289 181.911 87.7535L180.576 88.4948C180.677 89.1368 180.846 89.7558 181.073 90.3458L182.597 90.3204C182.79 90.7348 183.019 91.1291 183.28 91.4997L182.496 92.8074C182.899 93.3052 183.354 93.7598 183.852 94.1629L185.159 93.3791C185.53 93.6398 185.924 93.8685 186.339 94.0619L186.313 95.5859C186.903 95.8129 187.522 95.982 188.164 96.0825L188.906 94.7476C189.13 94.7671 189.357 94.7789 189.587 94.7789C189.817 94.7789 190.043 94.7671 190.268 94.7476L191.009 96.0825C191.651 95.982 192.27 95.8129 192.86 95.5859L192.835 94.0619C193.249 93.8685 193.643 93.6398 194.014 93.3791L195.322 94.1629C195.819 93.7598 196.274 93.3052 196.677 92.8074L195.893 91.4997C196.153 91.1291 196.382 90.7348 196.576 90.3204L198.1 90.3458C198.327 89.7558 198.496 89.1368 198.596 88.4948L197.261 87.7535C197.28 87.5289 197.293 87.3024 197.293 87.0725ZM189.586 90.1099C187.908 90.1099 186.549 88.7502 186.549 87.0725C186.549 85.3947 187.908 84.0351 189.586 84.0351C191.264 84.0351 192.624 85.3947 192.624 87.0725C192.624 88.7502 191.263 90.1099 189.586 90.1099Z" fill="white"/>
<path d="M175.557 52.7959V55.8931L172.61 57.4478C172.099 57.7174 172.099 58.4487 172.61 58.7182L175.557 60.273V63.3701C175.557 64.0612 176.117 64.6216 176.808 64.6216H187.381C188.072 64.6216 188.633 64.0612 188.633 63.3701V52.7959C188.633 52.1049 188.072 51.5444 187.381 51.5444H176.808C176.117 51.545 175.557 52.1054 175.557 52.7959Z" fill="#407BFF"/>
<g opacity="0.9">
<path d="M179.197 56.0221C179.439 56.0221 184.963 56.0221 185.205 56.0221C185.613 56.0221 185.943 55.6917 185.943 55.2838C185.943 54.8759 185.613 54.5454 185.205 54.5454C184.906 54.5454 179.496 54.5454 179.197 54.5454C178.789 54.5454 178.459 54.8759 178.459 55.2838C178.459 55.6917 178.789 56.0221 179.197 56.0221Z" fill="white"/>
<path d="M185.205 57.3445C184.935 57.3445 179.468 57.3445 179.197 57.3445C178.789 57.3445 178.459 57.6749 178.459 58.0829C178.459 58.4908 178.789 58.8212 179.197 58.8212C179.468 58.8212 184.935 58.8212 185.205 58.8212C185.613 58.8212 185.943 58.4908 185.943 58.0829C185.943 57.6749 185.613 57.3445 185.205 57.3445Z" fill="white"/>
<path d="M185.205 60.1438C184.89 60.1438 179.512 60.1438 179.197 60.1438C178.789 60.1438 178.459 60.4743 178.459 60.8822C178.459 61.2901 178.789 61.6205 179.197 61.6205C179.421 61.6205 184.981 61.6205 185.205 61.6205C185.613 61.6205 185.943 61.2901 185.943 60.8822C185.943 60.4743 185.613 60.1438 185.205 60.1438Z" fill="white"/>
</g>
<path d="M115.808 47.9348H118.334L119.636 50.4029C120.013 51.1171 121.035 51.1171 121.412 50.4029L122.714 47.9348H125.24C126.246 47.9348 127.062 47.119 127.062 46.1128V36.6814C127.062 35.6752 126.246 34.8594 125.24 34.8594H115.808C114.802 34.8594 113.986 35.6752 113.986 36.6814V46.1128C113.986 47.119 114.802 47.9348 115.808 47.9348Z" fill="#407BFF"/>
<path opacity="0.9" d="M120.529 37.678L117.615 39.3829V44.3588H119.783V41.0187H121.275V44.3588H123.443V39.3829L120.529 37.678Z" fill="white"/>
<path d="M144.127 183.166H141.854L140.402 180.414C140.089 179.821 139.239 179.821 138.926 180.414L137.475 183.166H135.202C134.056 183.166 133.127 184.096 133.127 185.241V194.167C133.127 195.313 134.056 196.242 135.202 196.242H144.127C145.272 196.242 146.202 195.313 146.202 194.167V185.241C146.202 184.095 145.272 183.166 144.127 183.166Z" fill="#407BFF"/>
<path opacity="0.9" d="M140.927 186.575C139.668 185.316 137.62 185.316 136.36 186.575C135.101 187.834 135.101 189.882 136.36 191.142C137.477 192.258 139.214 192.382 140.471 191.517C140.495 191.661 140.561 191.799 140.672 191.91L142.677 193.915C142.96 194.198 143.418 194.198 143.701 193.915C143.984 193.633 143.984 193.174 143.701 192.891L141.696 190.886C141.585 190.775 141.446 190.709 141.303 190.685C142.167 189.428 142.044 187.691 140.927 186.575ZM140.244 190.458C139.362 191.341 137.926 191.341 137.043 190.458C136.161 189.576 136.161 188.139 137.043 187.256C137.926 186.374 139.362 186.374 140.244 187.256C141.127 188.14 141.127 189.576 140.244 190.458Z" fill="white"/>
<path d="M239.594 123.718C239.594 123.718 234.773 135.659 230.058 136.951C225.343 138.243 218.227 137.193 218.227 137.193L216.027 137.794L213.872 137.474C213.848 137.47 213.823 137.468 213.797 137.468L211.362 137.411C210.948 137.402 210.719 136.997 210.949 136.68L211.823 135.474C211.892 135.38 211.993 135.308 212.11 135.27L214.426 134.524C214.517 134.495 214.614 134.487 214.708 134.502L218.248 135.063C218.248 135.063 228.091 133.451 229.093 132.537C230.094 131.624 233.062 122.078 233.062 122.078L239.594 123.718Z" fill="#EEC1BB"/>
<path opacity="0.1" d="M218.475 135.025C218.329 135.05 218.248 135.063 218.248 135.063L214.708 134.502C214.614 134.487 214.517 134.495 214.426 134.524L212.11 135.27C211.993 135.307 211.891 135.38 211.823 135.474L210.949 136.68C210.719 136.997 210.948 137.402 211.362 137.411L213.797 137.468C213.822 137.468 213.847 137.47 213.871 137.474L215.321 137.69C216.397 137.222 217.466 136.245 218.475 135.025Z" fill="black"/>
<path d="M242.501 111.891C239 110.743 234.076 113.372 232.189 124.393L239.457 126.514C239.457 126.514 247.504 113.533 242.501 111.891Z" fill="#407BFF"/>
<path d="M222.141 97.4905C222.145 97.8523 222.336 98.1449 222.573 98.1426C222.81 98.1402 223.014 97.8293 223.001 97.4781C222.987 97.1264 222.806 96.8237 222.568 96.8302C222.329 96.8361 222.14 97.1299 222.141 97.4905Z" fill="#263238"/>
<path d="M223.575 97.8486L221.855 100.693C221.855 100.693 222.45 101.365 223.741 100.869L223.575 97.8486Z" fill="#D4827D"/>
<path d="M223.897 95.2215C223.854 95.2688 223.791 95.2924 223.728 95.2847C223.255 95.2032 222.773 95.3533 222.431 95.6891C222.362 95.7671 222.244 95.7754 222.165 95.7086C222.088 95.6389 222.08 95.5194 222.147 95.4402C222.571 95.0057 223.181 94.8065 223.78 94.9082C223.884 94.9224 223.956 95.0181 223.942 95.1222C223.936 95.1582 223.92 95.1931 223.897 95.2215Z" fill="#263238"/>
<path d="M236.05 94.9116C236.319 99.7172 236.537 101.749 234.417 104.481C231.028 107.408 225.257 107.876 223.558 103.243C222.026 99.0758 221.844 91.9345 226.292 89.4575C229.464 87.6935 233.464 88.835 235.228 92.0061C235.724 92.8981 236.005 93.8925 236.05 94.9116Z" fill="#EEC1BB"/>
<path d="M229.354 105.431L230.571 112.549L236.507 111.178L234.43 103.911L229.354 105.431Z" fill="#EEC1BB"/>
<path d="M225.078 95.267C225.38 92.1439 224.308 95.7494 222.861 91.6302C221.414 87.5109 228.236 84.162 229.326 84.9299C230.416 85.6978 229.79 86.879 233.398 87.5429C237.005 88.2067 236.852 91.7094 236.852 91.7094C236.852 91.7094 238.927 92.6718 238.189 97.1292C237.451 101.587 234.635 104.958 234.635 104.958C234.635 104.958 233.27 103.55 231.11 104.85C231.11 104.85 230.048 104.256 229.002 102.694C228.028 101.24 227.728 99.8598 226.396 99.7398C223.601 99.4892 224.978 96.2921 225.078 95.267Z" fill="#263238"/>
<path d="M236.461 92.2589C236.461 92.2589 239.406 90.4481 238.103 88.5505C236.8 86.6522 237.429 90.6349 236.461 92.2589Z" fill="#263238"/>
<path d="M225.928 97.0802C225.271 97.8121 224.933 98.7757 224.988 99.7576C225.072 101.059 226.346 101.291 227.352 100.58C228.265 99.9362 229.308 98.4854 228.727 97.3439C228.147 96.2023 226.741 96.1941 225.928 97.0802Z" fill="#FFC3BD"/>
<path opacity="0.1" d="M229.469 106.101L229.952 108.928C229.921 106.344 231.287 105.066 231.287 105.066C229.897 105.272 229.469 106.101 229.469 106.101Z" fill="black"/>
<path d="M187.734 124.477H186.037V134.488H187.734V124.477Z" fill="#407BFF"/>
<path opacity="0.7" d="M187.734 124.477H186.037V134.488H187.734V124.477Z" fill="white"/>
<path d="M176.074 104.602H171.848C170.264 104.602 168.98 105.886 168.98 107.47V127.049C168.98 128.633 170.264 129.917 171.848 129.917H176.074V104.602Z" fill="#407BFF"/>
<path d="M201.924 129.917H173.327C171.743 129.917 170.459 128.633 170.459 127.049V107.47C170.459 105.886 171.743 104.602 173.327 104.602H201.924C203.508 104.602 204.792 105.886 204.792 107.47V127.049C204.792 128.633 203.508 129.917 201.924 129.917Z" fill="#407BFF"/>
<path opacity="0.5" d="M201.924 129.917H173.327C171.743 129.917 170.459 128.633 170.459 127.049V107.47C170.459 105.886 171.743 104.602 173.327 104.602H201.924C203.508 104.602 204.792 105.886 204.792 107.47V127.049C204.792 128.633 203.508 129.917 201.924 129.917Z" fill="white"/>
<path d="M173.326 105.785C172.397 105.785 171.641 106.541 171.641 107.471V127.05C171.641 127.979 172.397 128.735 173.326 128.735H201.924C202.853 128.735 203.609 127.98 203.609 127.05V107.471C203.609 106.541 202.853 105.785 201.924 105.785H173.326Z" fill="#263238"/>
<path d="M180.711 138.681C180.711 135.271 183.475 132.507 186.885 132.507C190.295 132.507 193.059 135.271 193.059 138.681H180.711Z" fill="#407BFF"/>
<path d="M195.286 136.574H182.938V138.582H207.635V137.756L195.286 136.574Z" fill="#407BFF"/>
<path opacity="0.8" d="M195.286 136.574H182.938V138.582H207.635V137.756L195.286 136.574Z" fill="white"/>
<path d="M195.286 138.582H182.938V136.574L195.286 137.756V138.582Z" fill="#407BFF"/>
<path opacity="0.6" d="M195.286 138.582H182.938V136.574L195.286 137.756V138.582Z" fill="white"/>
<path d="M222.517 207.577H197.038C194.901 207.577 193.168 205.844 193.168 203.707V145.138C193.168 143.001 194.901 141.268 197.038 141.268H222.517C223.088 141.268 223.552 141.732 223.552 142.303C223.552 142.874 223.088 143.337 222.517 143.337H197.038C196.043 143.337 195.237 144.144 195.237 145.138V203.707C195.237 204.702 196.043 205.508 197.038 205.508H222.517C223.088 205.508 223.552 205.971 223.552 206.542C223.552 207.113 223.088 207.577 222.517 207.577Z" fill="#263238"/>
<g opacity="0.5">
<path d="M222.517 207.577H197.038C194.901 207.577 193.168 205.844 193.168 203.707V145.138C193.168 143.001 194.901 141.268 197.038 141.268H222.517C223.088 141.268 223.552 141.732 223.552 142.303C223.552 142.874 223.088 143.337 222.517 143.337H197.038C196.043 143.337 195.237 144.144 195.237 145.138V203.707C195.237 204.702 196.043 205.508 197.038 205.508H222.517C223.088 205.508 223.552 205.971 223.552 206.542C223.552 207.113 223.088 207.577 222.517 207.577Z" fill="white"/>
</g>
<path d="M196.934 138.581H160.764V141.613H196.934V138.581Z" fill="#407BFF"/>
<path opacity="0.2" d="M196.934 138.581H160.764V141.613H196.934V138.581Z" fill="white"/>
<path d="M226.137 138.581H195.287V141.613H226.137V138.581Z" fill="#407BFF"/>
<path opacity="0.5" d="M226.137 138.581H195.287V141.613H226.137V138.581Z" fill="white"/>
<path d="M215.316 186.088L217.028 203.358H212.934L208.84 186.534L215.316 186.088Z" fill="#EEC1BB"/>
<path d="M212.551 202.231L217.771 202.321C217.968 202.324 218.136 202.463 218.176 202.656L219.047 206.919C219.127 207.297 218.886 207.668 218.509 207.748C218.46 207.758 218.411 207.763 218.362 207.763C216.48 207.698 214.808 207.567 212.465 207.53C209.701 207.484 210.396 207.826 207.145 207.817C205.186 207.81 204.865 205.577 205.698 205.482C209.507 205.068 209.922 203.927 211.411 202.591C211.733 202.336 212.139 202.208 212.551 202.231Z" fill="#263238"/>
<path opacity="0.1" d="M216.581 198.85L215.316 186.088L208.84 186.534L211.837 198.85H216.581Z" fill="black"/>
<path d="M243.333 146.262L226.552 146.864C226.552 146.864 203.972 154.757 203.338 160.852C202.688 167.106 210.281 195.84 210.281 195.84H217.023C217.023 195.84 215.164 174.754 214.45 168.296C213.736 161.839 237.974 163.979 242.181 158.47C246.054 153.399 243.333 146.262 243.333 146.262Z" fill="#263238"/>
<path opacity="0.2" d="M243.333 146.262L226.552 146.864C226.552 146.864 203.972 154.757 203.338 160.852C202.688 167.106 210.281 195.84 210.281 195.84H217.023C217.023 195.84 215.164 174.754 214.45 168.296C213.736 161.839 237.974 163.979 242.181 158.47C246.054 153.399 243.333 146.262 243.333 146.262Z" fill="black"/>
<path d="M218.171 194.872L218.32 197.254H209.983L209.164 194.872H218.171Z" fill="#407BFF"/>
<path d="M199.709 186.907L200.156 203.359H196.136L193.754 186.907H199.709Z" fill="#EEC1BB"/>
<path d="M195.578 202.231L200.799 202.321C200.996 202.324 201.164 202.463 201.204 202.656L202.075 206.919C202.155 207.297 201.914 207.668 201.537 207.748C201.488 207.758 201.439 207.763 201.39 207.763C199.508 207.698 197.836 207.567 195.493 207.53C192.728 207.484 193.424 207.826 190.172 207.817C188.213 207.81 187.893 205.577 188.725 205.482C192.535 205.068 192.949 203.927 194.438 202.591C194.76 202.336 195.166 202.208 195.578 202.231Z" fill="#263238"/>
<path opacity="0.1" d="M200.033 198.837L199.709 186.907H193.754L195.483 198.85C196.778 198.854 198.562 198.846 200.033 198.837Z" fill="black"/>
<path d="M236.036 147.651C236.036 147.651 237.429 160.405 224.45 161.001C211.47 161.596 201.346 163.085 201.048 167.701C200.751 172.316 201.048 195.839 201.048 195.839H193.995C193.995 195.839 191.25 180.969 190.18 171.745C189.141 162.787 187.244 156.293 196.434 153.259C206.203 150.033 223.573 147.052 223.573 147.052L236.08 146.261L236.036 147.651Z" fill="#263238"/>
<path d="M202.09 194.872L201.643 197.254H193.901L193.082 194.872H202.09Z" fill="#407BFF"/>
<path d="M238.853 111.053C238.853 111.053 238.851 108.174 233.041 108.507C226.873 108.861 228.034 111.618 228.034 111.618L238.853 111.053Z" fill="#407BFF"/>
<path opacity="0.3" d="M238.853 111.053C238.853 111.053 238.851 108.174 233.041 108.507C226.873 108.861 228.034 111.618 228.034 111.618L238.853 111.053Z" fill="black"/>
<path d="M244.248 123.938C243.858 129.618 243.992 146.709 243.992 146.709C243.992 146.709 231.593 147.524 221.835 147.207L220.703 114.329C220.703 113.159 221.43 112.094 222.561 111.654C225.316 110.583 231.782 109.371 241.898 110.698C245.387 111.157 244.708 117.222 244.248 123.938Z" fill="#407BFF"/>
<path d="M222.697 123.718C222.697 123.718 217.877 135.659 213.162 136.951C208.446 138.243 201.33 137.193 201.33 137.193L199.131 137.794L196.975 137.474C196.951 137.47 196.926 137.468 196.901 137.468L194.466 137.411C194.052 137.402 193.822 136.997 194.052 136.68L194.926 135.474C194.995 135.38 195.096 135.308 195.214 135.27L197.529 134.524C197.62 134.495 197.718 134.487 197.811 134.502L201.351 135.063C201.351 135.063 211.195 133.451 212.196 132.537C213.198 131.624 216.165 122.078 216.165 122.078L222.697 123.718Z" fill="#EEC1BB"/>
<path opacity="0.1" d="M222.571 118.163C222.571 118.163 221.824 119.052 220.91 120.342L221.238 129.859C224.86 128.26 226.297 118.929 226.297 118.929L223.945 117.26L222.571 118.163Z" fill="black"/>
<path d="M225.602 111.891C222.102 110.743 217.177 113.372 215.291 124.393L222.558 126.514C222.558 126.514 230.606 113.533 225.602 111.891Z" fill="#407BFF"/>
<path d="M230.23 167.193H224.762V183.221H230.23V167.193Z" fill="#263238"/>
<path opacity="0.6" d="M230.23 167.193H224.762V183.221H230.23V167.193Z" fill="white"/>
<path d="M231.079 197.741V177.376H223.913V197.741L207.602 200.004V202.266L227.496 200.57L247.39 202.266V200.004L231.079 197.741Z" fill="#263238"/>
<path d="M207.368 207.817C208.559 207.817 209.524 206.852 209.524 205.661C209.524 204.47 208.559 203.504 207.368 203.504C206.176 203.504 205.211 204.47 205.211 205.661C205.211 206.852 206.176 207.817 207.368 207.817Z" fill="#407BFF"/>
<path d="M247.393 207.817C248.584 207.817 249.549 206.852 249.549 205.661C249.549 204.47 248.584 203.504 247.393 203.504C246.202 203.504 245.236 204.47 245.236 205.661C245.236 206.852 246.202 207.817 247.393 207.817Z" fill="#407BFF"/>
<path d="M227.496 207.817C228.687 207.817 229.653 206.852 229.653 205.661C229.653 204.47 228.687 203.504 227.496 203.504C226.305 203.504 225.34 204.47 225.34 205.661C225.34 206.852 226.305 207.817 227.496 207.817Z" fill="#407BFF"/>
<path opacity="0.3" d="M230.23 167.193H224.762V171.153H230.23V167.193Z" fill="black"/>
<path d="M249.117 130.866H231.3C228.398 130.866 225.973 133.075 225.702 135.965L224.198 152.065C223.855 155.733 220.871 158.592 217.193 158.779L199.998 159.65C197.908 159.756 196.268 161.482 196.268 163.575V163.938C196.268 165.736 197.725 167.193 199.523 167.193H222.785H227.499H251.895L254.715 137.011C255.023 133.714 252.428 130.866 249.117 130.866Z" fill="#407BFF"/>
<path opacity="0.3" d="M249.117 130.866H231.3C228.398 130.866 225.973 133.075 225.702 135.965L224.198 152.065C223.855 155.733 220.871 158.592 217.193 158.779L199.998 159.65C197.908 159.756 196.268 161.482 196.268 163.575V163.938C196.268 165.736 197.725 167.193 199.523 167.193H222.785H227.499H251.895L254.715 137.011C255.023 133.714 252.428 130.866 249.117 130.866Z" fill="white"/>
<path d="M209.489 163.045H209.4C208.748 163.045 208.219 162.516 208.219 161.863V149.03H210.67V161.863C210.67 162.516 210.141 163.045 209.489 163.045Z" fill="#263238"/>
<path opacity="0.2" d="M209.489 163.045H209.4C208.748 163.045 208.219 162.516 208.219 161.863V149.03H210.67V161.863C210.67 162.516 210.141 163.045 209.489 163.045Z" fill="white"/>
<path d="M220.05 145.319H214.582V149.844H220.05C221.3 149.844 222.313 148.831 222.313 147.581C222.313 146.332 221.299 145.319 220.05 145.319Z" fill="#407BFF"/>
<path opacity="0.5" d="M220.05 145.319H214.582V149.844H220.05C221.3 149.844 222.313 148.831 222.313 147.581C222.313 146.332 221.299 145.319 220.05 145.319Z" fill="white"/>
<path d="M217.868 149.844H198.753C197.548 149.844 196.572 148.868 196.572 147.664V147.499C196.572 146.295 197.548 145.319 198.753 145.319H217.868C219.073 145.319 220.049 146.295 220.049 147.499V147.664C220.049 148.868 219.072 149.844 217.868 149.844Z" fill="#407BFF"/>
<path opacity="0.3" d="M217.868 149.844H198.753C197.548 149.844 196.572 148.868 196.572 147.664V147.499C196.572 146.295 197.548 145.319 198.753 145.319H217.868C219.073 145.319 220.049 146.295 220.049 147.499V147.664C220.049 148.868 219.072 149.844 217.868 149.844Z" fill="white"/>
<path d="M253.125 167.193H226.932L229.85 135.965C230.12 133.075 232.545 130.866 235.447 130.866H253.265C256.576 130.866 259.17 133.714 258.862 137.011L256.313 164.288C256.16 165.935 254.778 167.193 253.125 167.193Z" fill="#407BFF"/>
<path opacity="0.5" d="M253.125 167.193H226.932L229.85 135.965C230.12 133.075 232.545 130.866 235.447 130.866H253.265C256.576 130.866 259.17 133.714 258.862 137.011L256.313 164.288C256.16 165.935 254.778 167.193 253.125 167.193Z" fill="white"/>
<path d="M191.935 207.577H166.456C164.319 207.577 162.586 205.844 162.586 203.707V145.138C162.586 143.001 164.319 141.268 166.456 141.268H191.935C192.506 141.268 192.97 141.732 192.97 142.303C192.97 142.874 192.506 143.337 191.935 143.337H166.456C165.461 143.337 164.655 144.144 164.655 145.138V203.707C164.655 204.702 165.461 205.508 166.456 205.508H191.935C192.506 205.508 192.97 205.971 192.97 206.542C192.97 207.113 192.507 207.577 191.935 207.577Z" fill="#263238"/>
<g opacity="0.5">
<path d="M191.935 207.577H166.456C164.319 207.577 162.586 205.844 162.586 203.707V145.138C162.586 143.001 164.319 141.268 166.456 141.268H191.935C192.506 141.268 192.97 141.732 192.97 142.303C192.97 142.874 192.506 143.337 191.935 143.337H166.456C165.461 143.337 164.655 144.144 164.655 145.138V203.707C164.655 204.702 165.461 205.508 166.456 205.508H191.935C192.506 205.508 192.97 205.971 192.97 206.542C192.97 207.113 192.507 207.577 191.935 207.577Z" fill="white"/>
</g>
<path d="M175.1 110.45L173.306 109.259C173.114 109.132 173.114 108.85 173.306 108.722L175.1 107.531C175.235 107.443 175.415 107.479 175.504 107.613C175.592 107.747 175.556 107.927 175.422 108.016L173.954 108.99L175.422 109.964C175.556 110.053 175.592 110.234 175.504 110.368C175.414 110.502 175.234 110.538 175.1 110.45Z" fill="white"/>
<path d="M179.019 110.368C178.931 110.234 178.967 110.054 179.101 109.965L180.569 108.991L179.101 108.017C178.967 107.928 178.931 107.747 179.019 107.614C179.108 107.48 179.289 107.443 179.422 107.532L181.216 108.723C181.408 108.85 181.408 109.132 181.216 109.26L179.422 110.451C179.289 110.539 179.109 110.502 179.019 110.368Z" fill="white"/>
<path d="M176.592 111.143C176.439 111.094 176.354 110.931 176.402 110.777L177.624 106.909C177.672 106.756 177.835 106.671 177.988 106.72C178.142 106.768 178.227 106.931 178.178 107.085L176.957 110.953C176.908 111.106 176.745 111.191 176.592 111.143Z" fill="white"/>
<path d="M186.632 114.124H173.469C173.299 114.124 173.162 113.986 173.162 113.817C173.162 113.647 173.299 113.51 173.469 113.51H186.632C186.801 113.51 186.939 113.647 186.939 113.817C186.939 113.986 186.802 114.124 186.632 114.124Z" fill="white"/>
<path d="M201.755 114.124H188.592C188.422 114.124 188.285 113.986 188.285 113.817C188.285 113.647 188.422 113.51 188.592 113.51H201.755C201.925 113.51 202.062 113.647 202.062 113.817C202.062 113.986 201.925 114.124 201.755 114.124Z" fill="white"/>
<path d="M180.99 116.833H173.469C173.299 116.833 173.162 116.696 173.162 116.526C173.162 116.357 173.299 116.219 173.469 116.219H180.99C181.16 116.219 181.297 116.357 181.297 116.526C181.297 116.696 181.16 116.833 180.99 116.833Z" fill="white"/>
<path d="M195.27 116.833H182.949C182.78 116.833 182.643 116.696 182.643 116.526C182.643 116.357 182.78 116.219 182.949 116.219H195.27C195.44 116.219 195.577 116.357 195.577 116.526C195.577 116.696 195.44 116.833 195.27 116.833Z" fill="white"/>
<path d="M193.52 119.543H173.469C173.299 119.543 173.162 119.406 173.162 119.236C173.162 119.067 173.299 118.929 173.469 118.929H193.52C193.69 118.929 193.827 119.067 193.827 119.236C193.826 119.405 193.689 119.543 193.52 119.543Z" fill="white"/>
<path d="M199.667 119.543H195.481C195.312 119.543 195.174 119.406 195.174 119.236C195.174 119.067 195.311 118.929 195.481 118.929H199.667C199.836 118.929 199.974 119.067 199.974 119.236C199.974 119.405 199.837 119.543 199.667 119.543Z" fill="white"/>
<path d="M182.831 122.252H173.469C173.299 122.252 173.162 122.115 173.162 121.945C173.162 121.776 173.299 121.638 173.469 121.638H182.831C183 121.638 183.137 121.776 183.137 121.945C183.137 122.115 183 122.252 182.831 122.252Z" fill="white"/>
<path d="M196.445 122.252H184.789C184.62 122.252 184.482 122.115 184.482 121.945C184.482 121.776 184.62 121.638 184.789 121.638H196.445C196.614 121.638 196.752 121.776 196.752 121.945C196.752 122.115 196.615 122.252 196.445 122.252Z" fill="white"/>
<path d="M186.632 124.962H173.469C173.299 124.962 173.162 124.824 173.162 124.655C173.162 124.485 173.299 124.348 173.469 124.348H186.632C186.801 124.348 186.939 124.485 186.939 124.655C186.939 124.824 186.802 124.962 186.632 124.962Z" fill="white"/>
<path d="M197.878 124.962H188.592C188.422 124.962 188.285 124.824 188.285 124.655C188.285 124.485 188.422 124.348 188.592 124.348H197.878C198.048 124.348 198.185 124.485 198.185 124.655C198.185 124.824 198.047 124.962 197.878 124.962Z" fill="white"/>
<path d="M83.6314 72.0444C83.8708 74.8282 83.2684 79.8727 81.168 81.4854C84.595 82.7191 88.2194 84.8503 90.5427 87.656C92.8406 84.31 90.2241 82.4023 90.2241 82.4023C87.2623 81.3482 87.5851 79.1101 88.3465 77.0469L83.6314 72.0444Z" fill="#B97964"/>
<path d="M94.8228 69.6448C94.7891 69.9924 94.9522 70.2945 95.1816 70.317C95.411 70.3395 95.6226 70.0693 95.6557 69.7217C95.6894 69.3741 95.5257 69.0685 95.2969 69.046C95.0681 69.0235 94.8642 69.2931 94.8228 69.6448Z" fill="#263238"/>
<path d="M95.2031 69.0565L96.0656 68.8916C96.0656 68.8916 95.575 69.5277 95.2031 69.0565Z" fill="#263238"/>
<path d="M94.9405 70.0173C95.1805 70.8467 95.5322 71.6389 95.9869 72.3731C95.6008 72.599 95.1344 72.6427 94.7129 72.4931L94.9405 70.0173Z" fill="#A24E3F"/>
<path d="M95.8143 67.8039C95.8681 67.7974 95.9178 67.7714 95.9544 67.7312C96.0271 67.6437 96.0177 67.5142 95.9332 67.4386C95.4401 66.9904 94.7603 66.809 94.1088 66.9514C94.0113 67.0111 93.9805 67.1388 94.0402 67.2364C94.0781 67.2984 94.1461 67.3363 94.2194 67.3357C94.7372 67.234 95.2722 67.3842 95.6612 67.7406C95.7002 67.7832 95.7564 67.8063 95.8143 67.8039Z" fill="#263238"/>
<path d="M83.3359 67.425C83.1993 71.7494 83.0509 73.5885 84.9793 75.9975C87.8825 79.6225 93.1357 78.8286 94.5397 74.6195C95.8054 70.8325 95.8184 64.3793 91.8422 62.2836C87.8654 60.1885 83.4754 63.0888 83.3359 67.425Z" fill="#B97964"/>
<path d="M83.5438 75.5854C79.291 74.8612 80.5123 72.1808 80.5123 72.1808C76.3251 71.3331 79.5576 69.2883 79.5576 69.2883C76.075 67.7879 79.5576 66.4424 79.5576 66.4424C76.1997 63.6568 81.0124 62.7097 81.0124 62.7097C79.8248 58.3641 83.95 60.147 83.95 60.147C86.1999 56.4144 88.1348 59.9797 88.1348 59.9797C92.075 54.6314 93.0332 59.1444 93.0332 59.1444C97.0544 58.0856 95.512 62.3178 95.512 62.3178C98.8243 63.2075 96.2244 64.8823 96.2244 64.8823C97.4989 66.4979 92.8819 66.7764 92.8819 66.7764C92.8819 66.7764 95.0793 70.298 92.8624 71.2982L87.2711 75.5848C87.2711 75.5848 84.7031 74.5154 83.5438 75.5854Z" fill="#263238"/>
<path d="M87.7207 72.0969C87.7207 72.0969 90.6482 65.0194 88.3663 58.9482L90.3189 58.2795C90.3189 58.2795 92.8668 67.0832 87.7207 72.0969Z" fill="#407BFF"/>
<path d="M90.6682 71.3201C91.1577 72.3358 91.3428 72.7774 92.0421 73.1143C92.654 73.4584 93.4296 73.2408 93.7731 72.629C93.9303 72.3494 93.9758 72.0207 93.9007 71.7085C93.7169 70.6905 92.9336 69.1943 91.8524 69.163C90.7723 69.1316 90.1634 70.3134 90.6682 71.3201Z" fill="#B97964"/>
<path d="M87.6169 86.0859C87.6169 86.0859 91.6161 89.0228 93.243 90.2045L104.822 84.7416C104.79 83.4274 105.565 82.2279 106.776 81.7172L107.6 81.3695L109.346 80.5928C110.007 80.2983 110.776 80.3793 111.362 80.8056C112.055 81.3092 112.355 82.1942 112.114 83.0159C111.618 84.7055 110.272 86.012 108.569 86.4589L106.88 86.9017C106.88 86.9017 96.9455 94.4397 93.4121 94.6371C89.8787 94.834 84.6699 91.3337 84.6699 91.3337L87.6169 86.0859Z" fill="#B97964"/>
<path d="M77.9913 81.1011C81.0488 81.0881 84.464 83.0065 89.8424 86.4914C89.8424 86.4914 88.8256 90.3163 85.6978 93.0439C85.6978 93.0439 82.7466 92.2494 78.8201 88.5528C74.0683 84.0806 76.1167 81.1088 77.9913 81.1011Z" fill="#263238"/>
<path d="M136.046 89.9585H107.082C106.03 89.9585 105.253 89.1066 105.345 88.0555L107.527 63.1154C107.62 62.0643 108.546 61.2124 109.596 61.2124H138.561C139.612 61.2124 140.389 62.0643 140.297 63.1154L138.115 88.0555C138.023 89.1066 137.096 89.9585 136.046 89.9585Z" fill="#407BFF"/>
<path opacity="0.4" d="M136.046 89.9585H107.082C106.03 89.9585 105.253 89.1066 105.345 88.0555L107.527 63.1154C107.62 62.0643 108.546 61.2124 109.596 61.2124H138.561C139.612 61.2124 140.389 62.0643 140.297 63.1154L138.115 88.0555C138.023 89.1066 137.096 89.9585 136.046 89.9585Z" fill="white"/>
<path opacity="0.7" d="M136.148 88.7757C136.545 88.7757 136.897 88.4529 136.931 88.0557L139.113 63.1149C139.148 62.7177 138.853 62.3943 138.456 62.3943H109.492C109.094 62.3943 108.743 62.7177 108.708 63.1149L106.526 88.0557C106.491 88.4529 106.786 88.7757 107.184 88.7757H136.148Z" fill="white"/>
<path d="M116.018 74.1111L106.548 87.8073L106.526 88.0555C106.491 88.4528 106.786 88.7756 107.184 88.7756H123.591L116.018 74.1111Z" fill="#407BFF"/>
<path opacity="0.3" d="M116.018 74.1111L106.548 87.8073L106.526 88.0555C106.491 88.4528 106.786 88.7756 107.184 88.7756H123.591L116.018 74.1111Z" fill="white"/>
<path d="M137.016 87.0991L129.086 72.0432L117.346 88.7762H136.149C136.546 88.7762 136.898 88.4534 136.932 88.0562L137.016 87.0991Z" fill="#407BFF"/>
<path d="M126.025 69.3812C125.896 70.8508 124.6 72.0426 123.13 72.0426C121.661 72.0426 120.573 70.8508 120.702 69.3812C120.83 67.9109 122.126 66.7197 123.596 66.7197C125.066 66.7197 126.153 67.9115 126.025 69.3812Z" fill="#407BFF"/>
<path opacity="0.4" d="M126.025 69.3812C125.896 70.8508 124.6 72.0426 123.13 72.0426C121.661 72.0426 120.573 70.8508 120.702 69.3812C120.83 67.9109 122.126 66.7197 123.596 66.7197C125.066 66.7197 126.153 67.9115 126.025 69.3812Z" fill="white"/>
<path d="M53.7321 190.604L50.791 199.33L55.301 201.171L58.8309 193.118L53.7321 190.604Z" fill="#B97964"/>
<path d="M56.9208 200.953C56.8735 200.926 56.8469 200.875 56.8522 200.821C56.8587 200.768 56.8983 200.724 56.9516 200.711C57.0455 200.69 59.1755 200.215 59.9689 200.721C60.1173 200.812 60.2243 200.958 60.2674 201.128C60.3348 201.322 60.2727 201.538 60.1119 201.666C59.8122 201.877 59.1087 201.79 58.4638 201.59C57.9311 201.423 57.4156 201.209 56.9208 200.953ZM57.3701 200.911C58.2994 201.329 59.6112 201.724 59.9559 201.461C60.0037 201.43 60.0587 201.366 60.0144 201.185C59.9925 201.078 59.9234 200.987 59.8264 200.938C59.7566 200.893 59.6804 200.859 59.6006 200.835C58.8587 200.719 58.102 200.744 57.3701 200.911Z" fill="#407BFF"/>
<path d="M56.8596 200.925C56.83 200.89 56.8218 200.841 56.8389 200.797C56.8661 200.734 57.4366 199.377 58.2654 199.038C58.5048 198.936 58.7756 198.936 59.0144 199.039C59.3425 199.177 59.3957 199.381 59.3644 199.526C59.2946 200.144 57.6997 200.884 56.9944 200.968C56.9761 200.971 56.9571 200.967 56.9418 200.956C56.9116 200.956 56.8821 200.945 56.8596 200.925ZM58.8601 199.246C58.7052 199.197 58.5367 199.205 58.3878 199.27C57.8622 199.597 57.4502 200.079 57.2072 200.648C57.968 200.466 59.0576 199.839 59.1344 199.477C59.135 199.443 59.148 199.349 58.9328 199.262L58.8601 199.246Z" fill="#407BFF"/>
<path d="M56.6159 200.062L50.9495 198.313C50.7361 198.247 50.505 198.338 50.3944 198.532L47.947 202.825C47.7271 203.205 47.8566 203.69 48.2355 203.91C48.284 203.939 48.3354 203.962 48.3892 203.979C50.4429 204.574 52.2933 205.023 54.8353 205.811C57.8361 206.738 56.9635 206.862 60.4762 208.002C62.5932 208.686 63.7282 206.389 62.8639 205.993C58.899 204.2 58.8552 202.822 57.7196 200.854C57.4613 200.464 57.0681 200.182 56.6159 200.062Z" fill="#263238"/>
<path opacity="0.2" d="M52.3242 194.787L57.0536 197.178L58.833 193.118L53.7342 190.604L52.3242 194.787Z" fill="#263238"/>
<path d="M73.7306 109.897C73.7306 109.897 67.375 114.753 68.7364 129.955C68.8624 131.361 69.317 132.834 69.3235 134.445C69.3276 135.513 69.0297 136.263 68.6797 138.668C68.1701 142.171 67.2349 155.219 66.2518 156.916C65.2781 158.595 64.8625 158.315 62.0888 162.995C59.1045 168.03 55.2915 176.863 52.3203 191.836C52.3203 191.836 54.9013 193.852 58.9621 194.617C58.9621 194.617 75.2038 169.009 78.6562 159.474C81.7451 150.944 85.4263 123.721 85.4263 123.721L85.7236 111.917L73.7306 109.897Z" fill="#407BFF"/>
<path opacity="0.1" d="M80.6825 129.955H76.0802C76.0802 129.955 74.5674 144.424 79.5675 156.5C80.0901 154.561 80.618 152.235 81.1312 149.726L83.1204 136.979C82.8379 134.825 82.6162 133.184 82.5837 133.075C82.4832 132.741 80.6825 129.955 80.6825 129.955Z" fill="black"/>
<path d="M79.9238 194.115L79.9546 203.389L85.187 203.039L85.9898 194.115H79.9238Z" fill="#B97964"/>
<path d="M85.7903 202.884C85.7371 202.875 85.6952 202.835 85.6828 202.782C85.6709 202.729 85.694 202.675 85.7401 202.647C85.8217 202.596 87.6774 201.446 88.5925 201.663C88.7633 201.701 88.9123 201.804 89.0081 201.95C89.1358 202.11 89.1476 202.334 89.0376 202.508C88.8242 202.806 88.1314 202.955 87.4563 202.979C86.8994 202.996 86.3419 202.964 85.7903 202.884ZM86.2006 202.697C87.2151 202.785 88.5842 202.728 88.8236 202.366C88.8585 202.321 88.8892 202.242 88.7882 202.086C88.7326 201.992 88.6374 201.929 88.5292 201.915C88.4482 201.895 88.3655 201.887 88.2821 201.892C87.5438 202.026 86.8373 202.3 86.2006 202.697Z" fill="#407BFF"/>
<path d="M85.7223 202.879C85.6827 202.855 85.659 202.811 85.6602 202.765C85.6649 202.696 85.7577 201.227 86.4287 200.634C86.6214 200.459 86.8774 200.37 87.1369 200.388C87.4922 200.411 87.6093 200.586 87.6282 200.733C87.7659 201.339 86.5032 202.563 85.8642 202.874C85.8476 202.883 85.8287 202.885 85.8109 202.881C85.782 202.892 85.7506 202.891 85.7223 202.879ZM87.0595 200.635C86.8969 200.639 86.7409 200.703 86.6208 200.813C86.2324 201.295 86.0019 201.885 85.9593 202.503C86.6179 202.081 87.4408 201.13 87.3941 200.762C87.3835 200.73 87.3645 200.637 87.1328 200.626L87.0595 200.635Z" fill="#407BFF"/>
<path d="M85.2077 202.144L79.2818 202.356C79.0584 202.363 78.8704 202.525 78.8296 202.745L77.9304 207.605C77.8477 208.035 78.1297 208.451 78.56 208.534C78.615 208.545 78.6712 208.549 78.7279 208.548C80.8626 208.435 82.7585 208.25 85.4182 208.159C88.5567 208.047 87.774 208.451 91.4658 208.372C93.6904 208.322 94.0066 205.78 93.0596 205.689C88.7257 205.3 88.2309 204.014 86.5112 202.529C86.1382 202.245 85.6747 202.108 85.2077 202.144Z" fill="#263238"/>
<path opacity="0.2" d="M79.9398 198.912L85.5689 198.794L85.9898 194.115H79.9238L79.9398 198.912Z" fill="#263238"/>
<path d="M77.2689 108.195C77.2689 108.195 70.9286 116.594 75.6249 133.043L80.9271 157.035C80.9271 157.035 75.8808 167.95 78.5447 196.739C78.5447 196.739 82.5516 197.381 86.3747 196.564C86.3747 196.564 92.2787 166.158 93.1772 155.887C94.1662 144.576 93.5739 110.47 93.5739 110.47L77.2689 108.195Z" fill="#407BFF"/>
<path d="M81.1005 80.9841C81.1005 80.9841 80.1179 76.7845 86.4174 78.6218C92.7169 80.4592 92.1919 84.0464 92.1919 84.0464L81.1005 80.9841Z" fill="#263238"/>
<path opacity="0.4" d="M81.1005 80.9841C81.1005 80.9841 80.1179 76.7845 86.4174 78.6218C92.7169 80.4592 92.1919 84.0464 92.1919 84.0464L81.1005 80.9841Z" fill="black"/>
<path d="M96.7319 91.4819C96.7319 92.9539 96.1112 95.0821 95.5555 97.4645C95.2836 98.5937 95.0353 99.7701 94.8697 100.964C93.9771 107.473 93.6874 114.319 93.6874 114.319C93.6874 114.319 83.3893 117.21 73.3867 110.293C73.3867 110.293 75.8637 108.194 75.3553 93.6574C75.1248 87.1073 72.7601 79.3216 83.5844 80.5453C92.7238 81.5798 95.7979 84.4175 96.5368 88.8571C96.5427 88.9103 96.5546 88.9694 96.5664 89.0286C96.5841 89.1645 96.6019 89.3005 96.6196 89.4424C96.6965 90.0868 96.7319 90.7725 96.7319 91.4819Z" fill="#263238"/>
<path opacity="0.4" d="M96.7319 91.4818C96.7319 92.9538 96.1112 95.082 95.5555 97.4645C93.0844 94.4909 90.6074 88.9221 90.6074 88.9221L92.6469 85.9189L96.2412 87.592C96.3654 87.9999 96.46 88.4196 96.5368 88.857C96.5427 88.9103 96.5546 88.9694 96.5664 89.0285C96.5841 89.1645 96.6019 89.3004 96.6196 89.4423C96.6964 90.0867 96.7319 90.7724 96.7319 91.4818Z" fill="black"/>
<path d="M100.464 88.9139C100.464 88.9139 103.982 92.4142 105.414 93.8247L117.677 90.1477C117.842 88.8436 118.787 87.773 120.06 87.4484L120.926 87.2273L122.769 86.7195C123.467 86.5268 124.215 86.7219 124.731 87.2303C125.341 87.8315 125.507 88.7513 125.146 89.5281C124.403 91.1249 122.878 92.2168 121.127 92.4042L119.391 92.5904C119.391 92.5904 108.445 98.5647 104.922 98.2331C101.398 97.9014 96.7695 93.6645 96.7695 93.6645L100.464 88.9139Z" fill="#B97964"/>
<path d="M91.6891 82.5505C94.7141 82.9933 97.8053 85.3988 102.605 89.6463C102.605 89.6463 101.03 93.2773 97.5304 95.5084C97.5304 95.5084 94.7306 94.2835 91.3982 90.043C87.3665 84.9123 89.8346 82.2792 91.6891 82.5505Z" fill="#263238"/>
</svg>
