<svg width="66" height="66" viewBox="0 0 66 66" fill="none" xmlns="http://www.w3.org/2000/svg">
<rect width="66" height="66" rx="33" fill="white"/>
<path d="M35.8125 45.375H34.6875V39.8625C34.6875 39.7133 34.6282 39.5702 34.5227 39.4648C34.4173 39.3593 34.2742 39.3 34.125 39.3C33.9758 39.3 33.8327 39.3593 33.7273 39.4648C33.6218 39.5702 33.5625 39.7133 33.5625 39.8625V45.375H18.9375V34.125H23.6175C23.7667 34.125 23.9098 34.0657 24.0152 33.9602C24.1207 33.8548 24.18 33.7117 24.18 33.5625C24.18 33.4133 24.1207 33.2702 24.0152 33.1648C23.9098 33.0593 23.7667 33 23.6175 33H18.375C18.2258 33 18.0827 33.0593 17.9773 33.1648C17.8718 33.2702 17.8125 33.4133 17.8125 33.5625V45.375H16.6875C16.5383 45.375 16.3952 45.4343 16.2898 45.5398C16.1843 45.6452 16.125 45.7883 16.125 45.9375V47.0625C16.125 47.8084 16.4213 48.5238 16.9488 49.0512C17.4762 49.5787 18.1916 49.875 18.9375 49.875H33.5625C34.3084 49.875 35.0238 49.5787 35.5512 49.0512C36.0787 48.5238 36.375 47.8084 36.375 47.0625V45.9375C36.375 45.7883 36.3157 45.6452 36.2102 45.5398C36.1048 45.4343 35.9617 45.375 35.8125 45.375ZM35.25 47.0625C35.25 47.5101 35.0722 47.9393 34.7557 48.2557C34.4393 48.5722 34.0101 48.75 33.5625 48.75H32.4375V48.1875C32.4375 48.0383 32.3782 47.8952 32.2727 47.7898C32.1673 47.6843 32.0242 47.625 31.875 47.625C31.7258 47.625 31.5827 47.6843 31.4773 47.7898C31.3718 47.8952 31.3125 48.0383 31.3125 48.1875V48.75H21.1875V48.1875C21.1875 48.0383 21.1282 47.8952 21.0227 47.7898C20.9173 47.6843 20.7742 47.625 20.625 47.625C20.4758 47.625 20.3327 47.6843 20.2273 47.7898C20.1218 47.8952 20.0625 48.0383 20.0625 48.1875V48.75H18.9375C18.4899 48.75 18.0607 48.5722 17.7443 48.2557C17.4278 47.9393 17.25 47.5101 17.25 47.0625V46.5H35.25V47.0625Z" fill="black"/>
<path d="M45.375 19.5H46.5C46.6492 19.5 46.7923 19.4407 46.8977 19.3352C47.0032 19.2298 47.0625 19.0867 47.0625 18.9375C47.0625 18.7883 47.0032 18.6452 46.8977 18.5398C46.7923 18.4343 46.6492 18.375 46.5 18.375H45.375C44.9274 18.375 44.4982 18.5528 44.1818 18.8693C43.8653 19.1857 43.6875 19.6149 43.6875 20.0625V20.625H43.125C42.9758 20.625 42.8327 20.6843 42.7273 20.7898C42.6218 20.8952 42.5625 21.0383 42.5625 21.1875C42.5625 21.3367 42.6218 21.4798 42.7273 21.5852C42.8327 21.6907 42.9758 21.75 43.125 21.75H43.6875V23.4375C43.6875 23.5867 43.7468 23.7298 43.8523 23.8352C43.9577 23.9407 44.1008 24 44.25 24C44.3992 24 44.5423 23.9407 44.6477 23.8352C44.7532 23.7298 44.8125 23.5867 44.8125 23.4375V21.75H45.375C45.5242 21.75 45.6673 21.6907 45.7727 21.5852C45.8782 21.4798 45.9375 21.3367 45.9375 21.1875C45.9375 21.0383 45.8782 20.8952 45.7727 20.7898C45.6673 20.6843 45.5242 20.625 45.375 20.625H44.8125V20.0625C44.8125 19.9133 44.8718 19.7702 44.9773 19.6648C45.0827 19.5593 45.2258 19.5 45.375 19.5Z" fill="black"/>
<path d="M48.1875 16.125H41.4375C40.9899 16.125 40.5607 16.3028 40.2443 16.6193C39.9278 16.9357 39.75 17.3649 39.75 17.8125V18.9375C39.75 19.0867 39.8093 19.2298 39.9148 19.3352C40.0202 19.4407 40.1633 19.5 40.3125 19.5C40.4617 19.5 40.6048 19.4407 40.7102 19.3352C40.8157 19.2298 40.875 19.0867 40.875 18.9375V17.8125C40.875 17.6633 40.9343 17.5202 41.0398 17.4148C41.1452 17.3093 41.2883 17.25 41.4375 17.25H48.1875C48.3367 17.25 48.4798 17.3093 48.5852 17.4148C48.6907 17.5202 48.75 17.6633 48.75 17.8125V24.5625C48.75 24.7117 48.6907 24.8548 48.5852 24.9602C48.4798 25.0657 48.3367 25.125 48.1875 25.125H41.4375C41.2883 25.125 41.1452 25.0657 41.0398 24.9602C40.9343 24.8548 40.875 24.7117 40.875 24.5625V21.1875C40.875 21.0383 40.8157 20.8952 40.7102 20.7898C40.6048 20.6843 40.4617 20.625 40.3125 20.625C40.1633 20.625 40.0202 20.6843 39.9148 20.7898C39.8093 20.8952 39.75 21.0383 39.75 21.1875V24.5625C39.75 25.0101 39.9278 25.4393 40.2443 25.7557C40.5607 26.0722 40.9899 26.25 41.4375 26.25H48.1875C48.6351 26.25 49.0643 26.0722 49.3807 25.7557C49.6972 25.4393 49.875 25.0101 49.875 24.5625V17.8125C49.875 17.3649 49.6972 16.9357 49.3807 16.6193C49.0643 16.3028 48.6351 16.125 48.1875 16.125Z" fill="black"/>
<path d="M42.5625 38.625C42.5625 39.07 42.6945 39.505 42.9417 39.875C43.1889 40.245 43.5403 40.5334 43.9515 40.7037C44.3626 40.874 44.815 40.9186 45.2515 40.8318C45.6879 40.745 46.0888 40.5307 46.4035 40.216C46.7182 39.9013 46.9325 39.5004 47.0193 39.064C47.1061 38.6275 47.0615 38.1751 46.8912 37.764C46.7209 37.3528 46.4325 37.0014 46.0625 36.7542C45.6925 36.507 45.2575 36.375 44.8125 36.375C44.2158 36.375 43.6435 36.6121 43.2215 37.034C42.7996 37.456 42.5625 38.0283 42.5625 38.625ZM45.9375 38.625C45.9375 38.8475 45.8715 39.065 45.7479 39.25C45.6243 39.435 45.4486 39.5792 45.243 39.6644C45.0375 39.7495 44.8113 39.7718 44.593 39.7284C44.3748 39.685 44.1743 39.5778 44.017 39.4205C43.8597 39.2632 43.7525 39.0627 43.7091 38.8445C43.6657 38.6262 43.688 38.4 43.7731 38.1945C43.8583 37.9889 44.0025 37.8132 44.1875 37.6896C44.3725 37.566 44.59 37.5 44.8125 37.5C45.1109 37.5 45.397 37.6185 45.608 37.8295C45.819 38.0405 45.9375 38.3266 45.9375 38.625Z" fill="black"/>
<path d="M48.1875 33.5625H41.4375C40.9899 33.5625 40.5607 33.7403 40.2443 34.0568C39.9278 34.3732 39.75 34.8024 39.75 35.25V42C39.75 42.4476 39.9278 42.8768 40.2443 43.1932C40.5607 43.5097 40.9899 43.6875 41.4375 43.6875H48.1875C48.6351 43.6875 49.0643 43.5097 49.3807 43.1932C49.6972 42.8768 49.875 42.4476 49.875 42V40.875C49.875 40.7258 49.8157 40.5827 49.7102 40.4773C49.6048 40.3718 49.4617 40.3125 49.3125 40.3125C49.1633 40.3125 49.0202 40.3718 48.9148 40.4773C48.8093 40.5827 48.75 40.7258 48.75 40.875V42C48.75 42.1492 48.6907 42.2923 48.5852 42.3977C48.4798 42.5032 48.3367 42.5625 48.1875 42.5625H41.4375C41.2883 42.5625 41.1452 42.5032 41.0398 42.3977C40.9343 42.2923 40.875 42.1492 40.875 42V35.25C40.875 35.1008 40.9343 34.9577 41.0398 34.8523C41.1452 34.7468 41.2883 34.6875 41.4375 34.6875H48.1875C48.3367 34.6875 48.4798 34.7468 48.5852 34.8523C48.6907 34.9577 48.75 35.1008 48.75 35.25V38.625C48.75 38.7742 48.8093 38.9173 48.9148 39.0227C49.0202 39.1282 49.1633 39.1875 49.3125 39.1875C49.4617 39.1875 49.6048 39.1282 49.7102 39.0227C49.8157 38.9173 49.875 38.7742 49.875 38.625V35.25C49.875 34.8024 49.6972 34.3732 49.3807 34.0568C49.0643 33.7403 48.6351 33.5625 48.1875 33.5625Z" fill="black"/>
<path d="M28.7644 22.7906C28.8539 22.8461 28.9572 22.8753 29.0625 22.875C29.1506 22.8745 29.2373 22.8533 29.3156 22.8131L32.6906 21.1256C32.7828 21.0784 32.8601 21.0067 32.9141 20.9184C32.9681 20.8301 32.9966 20.7285 32.9966 20.625C32.9966 20.5215 32.9681 20.42 32.9141 20.3316C32.8601 20.2433 32.7828 20.1716 32.6906 20.1244L29.3156 18.4369C29.23 18.3937 29.1348 18.3732 29.039 18.3772C28.9432 18.3812 28.85 18.4097 28.7682 18.4598C28.6865 18.51 28.619 18.5802 28.572 18.6638C28.5251 18.7474 28.5003 18.8416 28.5 18.9375V22.3125C28.4998 22.4081 28.524 22.5022 28.5702 22.5858C28.6165 22.6695 28.6833 22.74 28.7644 22.7906ZM29.625 19.8488L31.1775 20.625L29.625 21.4013V19.8488Z" fill="black"/>
<path d="M30.1875 25.6875C31.1888 25.6875 32.1676 25.3906 33.0001 24.8343C33.8326 24.278 34.4815 23.4874 34.8646 22.5623C35.2478 21.6373 35.3481 20.6194 35.1527 19.6374C34.9574 18.6553 34.4752 17.7533 33.7672 17.0453C33.0592 16.3373 32.1572 15.8551 31.1751 15.6598C30.1931 15.4644 29.1752 15.5647 28.2502 15.9479C27.3251 16.331 26.5345 16.9799 25.9782 17.8124C25.4219 18.645 25.125 19.6237 25.125 20.625C25.125 21.9677 25.6584 23.2553 26.6078 24.2047C27.5572 25.1541 28.8448 25.6875 30.1875 25.6875ZM30.1875 16.6875C30.9663 16.6875 31.7275 16.9184 32.3751 17.3511C33.0226 17.7837 33.5273 18.3987 33.8253 19.1182C34.1233 19.8377 34.2013 20.6294 34.0493 21.3932C33.8974 22.157 33.5224 22.8586 32.9717 23.4092C32.4211 23.9599 31.7195 24.3349 30.9557 24.4868C30.1919 24.6388 29.4002 24.5608 28.6807 24.2628C27.9612 23.9648 27.3462 23.4601 26.9136 22.8126C26.4809 22.165 26.25 21.4038 26.25 20.625C26.25 19.5807 26.6648 18.5792 27.4033 17.8408C28.1417 17.1023 29.1432 16.6875 30.1875 16.6875Z" fill="black"/>
<path d="M35.8125 27.9375C35.8998 27.9375 35.986 27.9172 36.0641 27.8781C36.1422 27.8391 36.2101 27.7824 36.2625 27.7125L37.95 25.4625C38.0395 25.3432 38.0779 25.1931 38.0568 25.0455C38.0357 24.8978 37.9568 24.7645 37.8375 24.675C37.7182 24.5855 37.5681 24.5471 37.4205 24.5682C37.2728 24.5893 37.1395 24.6682 37.05 24.7875L35.3625 27.0375C35.273 27.1568 35.2346 27.3069 35.2557 27.4546C35.2768 27.6022 35.3557 27.7355 35.475 27.825C35.5724 27.898 35.6908 27.9375 35.8125 27.9375Z" fill="black"/>
<path d="M37.05 29.9625C37.1024 30.0324 37.1703 30.0891 37.2484 30.1281C37.3266 30.1672 37.4127 30.1875 37.5 30.1875C37.6217 30.1875 37.7401 30.148 37.8375 30.075L40.0875 28.3875C40.2068 28.298 40.2857 28.1647 40.3068 28.0171C40.3279 27.8694 40.2895 27.7193 40.2 27.6C40.1105 27.4807 39.9772 27.4018 39.8296 27.3807C39.6819 27.3596 39.5318 27.398 39.4125 27.4875L37.1625 29.175C37.0432 29.2645 36.9643 29.3978 36.9432 29.5455C36.9221 29.6931 36.9605 29.8432 37.05 29.9625Z" fill="black"/>
<path d="M42.563 31.2001C42.5496 31.1255 42.5213 31.0544 42.4798 30.991C42.4382 30.9276 42.3843 30.8733 42.3213 30.8313C42.2583 30.7893 42.1874 30.7604 42.1129 30.7464C42.0385 30.7325 41.9619 30.7337 41.888 30.7501L39.0755 31.3126C39.0016 31.3199 38.9299 31.3418 38.8645 31.3769C38.7991 31.412 38.7412 31.4596 38.6942 31.5171C38.5992 31.6331 38.5543 31.7821 38.5692 31.9313C38.5841 32.0805 38.6577 32.2176 38.7737 32.3126C38.8898 32.4075 39.0388 32.4525 39.188 32.4376H39.3005L42.113 31.8751C42.1875 31.8617 42.2586 31.8334 42.322 31.7919C42.3854 31.7503 42.4397 31.6964 42.4817 31.6334C42.5238 31.5704 42.5526 31.4995 42.5666 31.425C42.5805 31.3506 42.5793 31.274 42.563 31.2001Z" fill="black"/>
<path d="M16.6875 31.3125H23.4375C23.5867 31.3125 23.7298 31.2532 23.8352 31.1477C23.9407 31.0423 24 30.8992 24 30.75V21.75C24 21.6008 23.9407 21.4577 23.8352 21.3523C23.7298 21.2468 23.5867 21.1875 23.4375 21.1875H16.6875C16.5383 21.1875 16.3952 21.2468 16.2898 21.3523C16.1843 21.4577 16.125 21.6008 16.125 21.75V30.75C16.125 30.8992 16.1843 31.0423 16.2898 31.1477C16.3952 31.2532 16.5383 31.3125 16.6875 31.3125ZM17.25 22.3125H22.875V30.1875H17.25V22.3125Z" fill="black"/>
<path d="M21.1875 23.4375H20.0625C19.9133 23.4375 19.7702 23.4968 19.6648 23.6023C19.5593 23.7077 19.5 23.8508 19.5 24C19.5 24.1492 19.5593 24.2923 19.6648 24.3977C19.7702 24.5032 19.9133 24.5625 20.0625 24.5625H21.1875C21.3367 24.5625 21.4798 24.5032 21.5852 24.3977C21.6907 24.2923 21.75 24.1492 21.75 24C21.75 23.8508 21.6907 23.7077 21.5852 23.6023C21.4798 23.4968 21.3367 23.4375 21.1875 23.4375Z" fill="black"/>
<path d="M21.1875 25.6875H18.9375C18.7883 25.6875 18.6452 25.7468 18.5398 25.8523C18.4343 25.9577 18.375 26.1008 18.375 26.25C18.375 26.3992 18.4343 26.5423 18.5398 26.6477C18.6452 26.7532 18.7883 26.8125 18.9375 26.8125H21.1875C21.3367 26.8125 21.4798 26.7532 21.5852 26.6477C21.6907 26.5423 21.75 26.3992 21.75 26.25C21.75 26.1008 21.6907 25.9577 21.5852 25.8523C21.4798 25.7468 21.3367 25.6875 21.1875 25.6875Z" fill="black"/>
<path d="M21.1875 27.9375H18.9375C18.7883 27.9375 18.6452 27.9968 18.5398 28.1023C18.4343 28.2077 18.375 28.3508 18.375 28.5C18.375 28.6492 18.4343 28.7923 18.5398 28.8977C18.6452 29.0032 18.7883 29.0625 18.9375 29.0625H21.1875C21.3367 29.0625 21.4798 29.0032 21.5852 28.8977C21.6907 28.7923 21.75 28.6492 21.75 28.5C21.75 28.3508 21.6907 28.2077 21.5852 28.1023C21.4798 27.9968 21.3367 27.9375 21.1875 27.9375Z" fill="black"/>
<path d="M35.3179 31.1437C35.281 31.0794 35.2318 31.0231 35.173 30.9778C35.1143 30.9326 35.0473 30.8994 34.9757 30.88C34.9042 30.8607 34.8295 30.8557 34.756 30.8652C34.6825 30.8747 34.6116 30.8986 34.5473 30.9356C34.483 30.9725 34.4267 31.0217 34.3814 31.0805C34.3362 31.1392 34.303 31.2062 34.2836 31.2778C34.2643 31.3493 34.2593 31.424 34.2688 31.4975C34.2783 31.571 34.3022 31.6419 34.3392 31.7062L36.8198 35.9981L27.8198 39.3731C27.8198 39.3731 27.8198 39.3731 27.7804 39.3731H27.7354L26.2729 40.2168L25.2998 40.7793C25.1717 40.8534 25.0302 40.9014 24.8835 40.9207C24.7368 40.9401 24.5877 40.9302 24.4448 40.8918C24.1577 40.8143 23.913 40.6262 23.7642 40.3687L22.6392 38.4224C22.5068 38.1678 22.4768 37.8722 22.5552 37.5962C22.6336 37.3201 22.8146 37.0845 23.0611 36.9374L25.0073 35.8124L26.4136 38.2481C26.4631 38.3339 26.5345 38.4051 26.6204 38.4545C26.7063 38.5039 26.8038 38.5297 26.9029 38.5293C27.0019 38.5297 27.0991 38.504 27.185 38.4548C27.2708 38.4056 27.3421 38.3346 27.3917 38.249C27.4414 38.1635 27.4676 38.0663 27.4677 37.9674C27.4678 37.8685 27.4418 37.7712 27.3923 37.6856L25.9411 35.1768L33.0004 29.3549L33.2311 29.7543C33.268 29.8186 33.3172 29.8749 33.3759 29.9202C33.4347 29.9654 33.5017 29.9987 33.5733 30.018C33.6448 30.0373 33.7195 30.0424 33.793 30.0328C33.8665 30.0233 33.9374 29.9994 34.0017 29.9624C34.0659 29.9255 34.1223 29.8763 34.1675 29.8176C34.2128 29.7589 34.246 29.6918 34.2653 29.6202C34.2847 29.5487 34.2897 29.474 34.2802 29.4005C34.2707 29.327 34.2467 29.2561 34.2098 29.1918L33.6473 28.2187C33.6061 28.1482 33.55 28.0876 33.483 28.0409C33.416 27.9943 33.3396 27.9628 33.2592 27.9487C33.1783 27.9335 33.0951 27.9361 33.0154 27.9566C32.9357 27.977 32.8615 28.0146 32.7979 28.0668L24.9229 34.5581L22.5267 35.9418C22.0967 36.1923 21.7618 36.5783 21.5745 37.0393C21.3872 37.5004 21.3581 38.0106 21.4917 38.4899L20.9292 38.8106C20.6394 38.977 20.4055 39.2258 20.2572 39.5253C20.1089 39.8248 20.0529 40.1616 20.0963 40.493C20.1397 40.8244 20.2805 41.1354 20.5009 41.3867C20.7213 41.6379 21.0113 41.8181 21.3342 41.9043C21.4773 41.9422 21.6248 41.9612 21.7729 41.9606C22.0688 41.9593 22.3594 41.8819 22.6167 41.7356L23.1792 41.4149C23.4494 41.6941 23.7892 41.896 24.1636 41.9999C24.3558 42.0537 24.5546 42.0802 24.7542 42.0787C25.1496 42.0796 25.538 41.9747 25.8792 41.7749L26.3686 41.4937L27.4936 43.4456C27.7171 43.8321 28.0848 44.1143 28.516 44.2303C28.9473 44.3462 29.4069 44.2866 29.7942 44.0643C29.9863 43.9536 30.1548 43.8061 30.2899 43.6303C30.425 43.4544 30.5241 43.2536 30.5816 43.0394C30.639 42.8253 30.6537 42.6018 30.6248 42.382C30.5958 42.1621 30.5239 41.9501 30.4129 41.7581L29.3892 39.9749L37.8267 36.8081C37.9032 36.7793 37.9725 36.7342 38.0298 36.6759C38.0872 36.6176 38.1311 36.5476 38.1586 36.4706C38.1859 36.3945 38.1966 36.3134 38.1898 36.2328C38.183 36.1523 38.1589 36.0741 38.1192 36.0037L35.3179 31.1437ZM22.0317 40.7568C21.9676 40.7939 21.8969 40.8179 21.8235 40.8275C21.7502 40.8372 21.6756 40.8323 21.6042 40.8131C21.4601 40.7756 21.3367 40.6826 21.2611 40.5543C21.224 40.4903 21.2 40.4195 21.1903 40.3462C21.1807 40.2728 21.1856 40.1983 21.2048 40.1268C21.224 40.055 21.2573 39.9877 21.3026 39.9288C21.348 39.8699 21.4046 39.8206 21.4692 39.7837L21.9586 39.5024L22.5211 40.4756L22.0317 40.7568ZM29.4342 42.3318C29.4712 42.3959 29.4952 42.4666 29.5049 42.54C29.5145 42.6133 29.5096 42.6879 29.4904 42.7593C29.4503 42.9023 29.3553 43.0236 29.2261 43.0968C29.0976 43.1706 28.9452 43.1908 28.8019 43.1528C28.6587 43.1149 28.5362 43.022 28.4611 42.8943L27.3361 40.9424L28.2698 40.4081H28.3148L29.4342 42.3318Z" fill="black"/>
</svg>
