<svg width="83" height="83" viewBox="0 0 83 83" fill="none" xmlns="http://www.w3.org/2000/svg">
<rect width="83" height="83" rx="41.5" fill="white"/>
<g clip-path="url(#clip0_1194_987)">
<mask id="mask0_1194_987" style="mask-type:luminance" maskUnits="userSpaceOnUse" x="17" y="17" width="49" height="49">
<path d="M17.5 17.5H65.5V65.5H17.5V17.5Z" fill="white"/>
</mask>
<g mask="url(#mask0_1194_987)">
<path d="M64.356 40.8457V40.0132C64.356 39.4421 63.9936 38.9343 63.4537 38.7476L58.5901 37.0718C58.1752 35.4724 57.5443 33.9603 56.7257 32.5705L58.979 27.9469C59.2302 27.4336 59.1262 26.8174 58.7225 26.4137L56.6006 24.2918C56.1968 23.888 55.5806 23.7841 55.0673 24.0352L50.4438 26.2887C49.0531 25.47 47.5419 24.8355 45.9415 24.4215L45.4824 23.089" stroke="black" stroke-width="1.5" stroke-miterlimit="10" stroke-linecap="round" stroke-linejoin="round"/>
<path d="M44.3791 19.8885L44.2661 19.5605C44.0794 19.0206 43.5717 18.6583 43.0006 18.6583H39.9984C39.4273 18.6583 38.9196 19.0206 38.7329 19.5605L37.058 24.4215C35.4586 24.8354 33.9474 25.4709 32.5567 26.2886L27.9321 24.0351C27.4189 23.7841 26.8027 23.8879 26.3989 24.2917L24.2771 26.4137C23.8733 26.8173 23.7693 27.4336 24.0204 27.9468L26.2738 32.5713C25.4562 33.962 24.8206 35.4732 24.4058 37.0736L19.5458 38.7475C19.0059 38.9342 18.6436 39.442 18.6436 40.0131V41.03" stroke="black" stroke-width="1.5" stroke-miterlimit="10" stroke-linecap="round" stroke-linejoin="round"/>
<path d="M55.0508 40.8457C54.7023 33.663 48.7691 27.9468 41.5 27.9468C34.2309 27.9468 28.2978 33.663 27.9492 40.8457" stroke="black" stroke-width="1.5" stroke-miterlimit="10" stroke-linecap="round" stroke-linejoin="round"/>
<path d="M52.0088 40.7551C51.6196 35.2902 47.0635 30.9775 41.4995 30.9775C35.9355 30.9775 31.3794 35.2902 30.9902 40.7551" stroke="black" stroke-width="1.5" stroke-miterlimit="10" stroke-linecap="round" stroke-linejoin="round"/>
<path d="M54.133 60.6147L48.1889 57.0862C47.838 56.8788 47.6237 56.5017 47.6237 56.0937V54.6684C47.6237 54.452 47.6841 54.24 47.7992 54.0567L50.8504 49.1744C51.1444 48.7038 51.0613 48.0886 50.6511 47.7126L50.3378 47.4254C50.1338 47.2375 50.0039 46.9834 49.972 46.7077L49.7692 44.9553C49.719 44.5144 49.4205 44.143 49.0013 43.9971L47.4984 43.4753C47.1555 43.3568 46.8888 43.0833 46.7784 42.737L46.2314 41.0302" stroke="black" stroke-width="1.5" stroke-miterlimit="10" stroke-linecap="round" stroke-linejoin="round"/>
<path d="M30.8824 45.439L29.4224 46.914C29.2918 47.046 29.1313 47.1444 28.9546 47.2011L25.5967 48.2772C25.1584 48.4178 24.8454 48.8054 24.8005 49.2637L24.6863 50.4295C24.6124 51.1839 25.2735 51.8035 26.0214 51.6807L29.5825 51.0969C29.9204 51.0415 30.2654 51.139 30.5243 51.3629L32.5615 53.1259C32.7475 53.287 32.8773 53.5033 32.9316 53.7432L33.2665 55.2196C33.3531 55.6016 33.6277 55.9136 33.9957 56.0482L35.7995 56.7076C36.4649 56.9509 37.1903 56.5426 37.3277 55.8476L38.4387 50.2276C38.4887 49.9747 38.4525 49.7122 38.3359 49.4821L37.5768 47.9848C37.4976 47.8286 37.455 47.6565 37.4522 47.4816L37.4217 45.5801C37.4105 44.8855 36.7925 44.3581 36.1048 44.4564L31.5394 45.1085C31.2902 45.1441 31.0595 45.2602 30.8824 45.439Z" stroke="black" stroke-width="1.5" stroke-miterlimit="10" stroke-linecap="round" stroke-linejoin="round"/>
<path d="M24.2715 56.7515C29.0367 53.7247 35.005 51.9239 41.4845 51.9239C47.9642 51.9239 53.9325 53.7247 58.6977 56.7515" stroke="black" stroke-width="1.5" stroke-miterlimit="10" stroke-linecap="round" stroke-linejoin="round"/>
<path d="M56.2396 41.03C56.2396 53.9049 49.6338 64.342 41.485 64.342C33.3363 64.342 26.7305 53.9049 26.7305 41.03" stroke="black" stroke-width="1.5" stroke-miterlimit="10" stroke-linecap="round" stroke-linejoin="round"/>
<path d="M41.4854 41.0738V64.342" stroke="black" stroke-width="1.5" stroke-miterlimit="10" stroke-linecap="round" stroke-linejoin="round"/>
<path d="M34.1153 41.0301H19.3614C18.6947 41.0301 18.1701 41.5912 18.2047 42.2572C18.8428 54.5617 29.0217 64.342 41.4849 64.342C50.0291 64.342 57.499 59.7452 61.558 52.8901" stroke="black" stroke-width="1.5" stroke-miterlimit="10" stroke-linecap="round" stroke-linejoin="round"/>
<path d="M63.0694 49.8501C64.1128 47.2994 64.7183 44.5232 64.7899 41.6143C64.7978 41.294 64.5398 41.0299 64.2195 41.0299H37.5176" stroke="black" stroke-width="1.5" stroke-miterlimit="10" stroke-linecap="round" stroke-linejoin="round"/>
</g>
</g>
<defs>
<clipPath id="clip0_1194_987">
<rect width="48" height="48" fill="white" transform="translate(17.5 17.5)"/>
</clipPath>
</defs>
</svg>
