<svg width="83" height="83" viewBox="0 0 83 83" fill="none" xmlns="http://www.w3.org/2000/svg">
<rect width="83" height="83" rx="41.5" fill="white"/>
<path d="M58.362 30.1842L53.4986 26.0549C53.1828 25.7867 52.7535 25.7282 52.3779 25.9021C52.0023 26.0759 51.769 26.441 51.769 26.8552V28.1579C48.9778 28.3098 46.5609 28.7579 44.3886 29.5298V25.2133H45.6296C46.0437 25.2133 46.4089 24.98 46.5827 24.6045C46.7566 24.229 46.698 23.7996 46.4299 23.4839L42.3007 18.6206C42.1009 18.385 41.8091 18.25 41.5003 18.25C41.1915 18.25 40.8997 18.3851 40.7002 18.6204L36.571 23.4837C36.3029 23.7993 36.2443 24.2287 36.4181 24.6043C36.5919 24.9799 36.9571 25.2133 37.3712 25.2133H38.6123V29.5295C36.4329 28.7585 33.9999 28.3098 31.2319 28.1579V26.8551C31.2319 26.441 30.9986 26.0758 30.623 25.902C30.2475 25.7283 29.8181 25.7867 29.5024 26.0548L24.6391 30.1839C24.4036 30.3837 24.2686 30.6754 24.2686 30.9842C24.2686 31.293 24.4035 31.5848 24.639 31.7847L29.5024 35.9141C29.8182 36.182 30.2476 36.2406 30.623 36.0667C30.9985 35.8929 31.2318 35.5277 31.2318 35.1136V33.9415C33.1831 34.0692 34.892 34.3753 36.4077 34.8746C33.1275 38.5091 30.7727 43.6458 29.2262 50.5322C29.1764 50.7544 29.2302 50.9872 29.3725 51.1652C29.5149 51.3429 29.7302 51.4465 29.9581 51.4465H34.3331C34.6792 51.4465 34.9804 51.2096 35.062 50.8732C36.5205 44.8564 38.6303 40.5995 41.5005 37.8874C44.3692 40.599 46.4828 44.8656 47.939 50.8732C48.0206 51.2096 48.3218 51.4465 48.6679 51.4465H53.043C53.2708 51.4465 53.4862 51.343 53.6285 51.1652C53.7708 50.9873 53.8246 50.7544 53.7748 50.5322C52.2337 43.67 49.8701 38.509 46.5931 34.875C48.1016 34.3778 49.8098 34.0698 51.7692 33.9416V35.1136C51.7692 35.5277 52.0024 35.8928 52.378 36.0667C52.5212 36.133 52.6721 36.1654 52.8216 36.1654C53.0643 36.1654 53.3032 36.0798 53.4987 35.9139L58.3621 31.7846C58.5976 31.5847 58.7326 31.2929 58.7326 30.9841C58.7324 30.6755 58.5973 30.3838 58.362 30.1842ZM39.3622 23.7133H38.3437L41.5005 19.9954L44.6572 23.7134H43.6388C43.2246 23.7134 42.8888 24.0492 42.8888 24.4634V30.1297C42.4161 30.3422 41.9556 30.5738 41.5042 30.8218C41.052 30.5732 40.5885 30.3423 40.1122 30.1291V24.4633C40.1122 24.0491 39.7764 23.7133 39.3622 23.7133ZM25.6097 30.6414C25.6098 30.6415 25.6099 30.6415 25.61 30.6416L25.6097 30.6414ZM33.7464 49.9467H30.9026C32.453 43.5113 34.7515 38.7606 37.909 35.4616C38.7895 35.864 39.5991 36.3462 40.3497 36.9122C37.4178 39.742 35.2505 44.0211 33.7464 49.9467ZM49.2545 49.9467C47.5298 43.1533 44.9248 38.5061 41.2997 35.7496C38.5396 33.6508 35.1117 32.5871 30.5119 32.4019C30.3088 32.3934 30.1095 32.4691 29.9622 32.6104C29.815 32.7519 29.7317 32.9472 29.7317 33.1514V34.1414L26.0139 30.9844L29.7318 27.8277V28.8747C29.7318 29.2785 30.0515 29.6098 30.455 29.6242C35.7085 29.8119 39.6828 31.0609 42.9627 33.5549C47.2297 36.7995 50.2231 42.1676 52.0984 49.9466H49.2545V49.9467ZM53.2691 34.1412V33.1512C53.2691 32.947 53.1858 32.7517 53.0387 32.6102C52.8914 32.4688 52.6918 32.3942 52.4889 32.4017C49.7508 32.512 47.4385 32.9356 45.4385 33.6932C44.9349 33.2183 44.413 32.7733 43.8706 32.3608C43.5842 32.1431 43.2929 31.9349 42.9969 31.7347C45.663 30.4357 48.7347 29.7604 52.5458 29.6242C52.9493 29.6098 53.269 29.2785 53.269 28.8747V27.8277L56.9869 30.9844L53.2691 34.1412ZM44.6011 55.6826C45.9439 54.7158 46.8208 53.1406 46.8208 51.3633C46.8208 48.4297 44.4341 46.043 41.5005 46.043C38.5668 46.043 36.1801 48.4297 36.1801 51.3633C36.1801 53.1405 37.057 54.7158 38.3999 55.6825C34.85 56.8607 32.1856 60.0136 31.7675 63.9201C31.7448 64.1317 31.8132 64.343 31.9554 64.5013C32.0976 64.6595 32.3004 64.7499 32.5132 64.7499L50.4873 64.7498C50.7001 64.7498 50.9029 64.6593 51.0451 64.5012C51.1874 64.3429 51.2557 64.1316 51.233 63.92C50.8152 60.0136 48.1508 56.8608 44.6011 55.6826ZM37.6802 51.3633C37.6802 49.2568 39.394 47.543 41.5006 47.543C43.6071 47.543 45.3209 49.2568 45.3209 51.3633C45.3209 53.4697 43.6071 55.1835 41.5006 55.1835C39.394 55.1835 37.6802 53.4697 37.6802 51.3633ZM33.3901 63.25C34.1866 59.4531 37.537 56.6835 41.5005 56.6835C45.4639 56.6835 48.8143 59.453 49.6108 63.2499L33.3901 63.25Z" fill="black"/>
</svg>
