<svg width="1440" height="118" viewBox="0 0 1440 118" fill="none" xmlns="http://www.w3.org/2000/svg">
<g clip-path="url(#clip0_1940_952)">
<path d="M210 99.2076C210 99.2076 349.938 53.6947 443 53.2041C577.658 52.4942 643.046 135.944 773 145.211C910.638 155.026 983.157 47.7107 1126.5 53.2041C1251.55 57.9965 1305.84 145.485 1431 145.211C1518.73 145.02 1650 99.2076 1650 99.2076V516H210V99.2076Z" fill="#FFF4D5"/>
<path d="M-130 63.4385C-130 63.4385 9.45547 14.0196 102.197 13.4869C236.391 12.7162 301.553 103.328 431.059 113.39C568.222 124.047 640.491 7.52214 783.341 13.4869C907.964 18.6907 1006.84 135.225 1129.64 113.39C1309 81.5 1288.5 41.5 1460 0V516H-130V63.4385Z" fill="#F5DFA0"/>
<path d="M0 63C0 63 139.938 13.5332 233 13C367.658 12.2285 433.046 102.928 563 113C700.638 123.667 773.157 7.02943 916.5 13C1041.55 18.2088 1095.84 113.297 1221 113C1308.73 112.792 1440 63 1440 63V516H0V63Z" fill="white"/>
</g>
<defs>
<clipPath id="clip0_1940_952">
<rect width="1440" height="118" fill="white"/>
</clipPath>
</defs>
</svg>
