<svg width="39" height="39" viewBox="0 0 39 39" fill="none" xmlns="http://www.w3.org/2000/svg">
<rect width="39" height="39" rx="19.5" fill="white" fill-opacity="0.1"/>
<path d="M22.9666 15.1667C22.9666 14.9368 23.0579 14.7164 23.2204 14.5538C23.3829 14.3913 23.6034 14.3 23.8332 14.3C24.0631 14.3 24.2835 14.3913 24.446 14.5538C24.6086 14.7164 24.6999 14.9368 24.6999 15.1667C24.6999 15.3965 24.6086 15.6169 24.446 15.7795C24.2835 15.942 24.0631 16.0333 23.8332 16.0333C23.6034 16.0333 23.3829 15.942 23.2204 15.7795C23.0579 15.6169 22.9666 15.3965 22.9666 15.1667Z" fill="white"/>
<path fill-rule="evenodd" clip-rule="evenodd" d="M19.5001 15.3833C18.4083 15.3833 17.3612 15.817 16.5892 16.589C15.8171 17.3611 15.3834 18.4081 15.3834 19.5C15.3834 20.5918 15.8171 21.6389 16.5892 22.4109C17.3612 23.1829 18.4083 23.6166 19.5001 23.6166C20.5919 23.6166 21.639 23.1829 22.411 22.4109C23.183 21.6389 23.6168 20.5918 23.6168 19.5C23.6168 18.4081 23.183 17.3611 22.411 16.589C21.639 15.817 20.5919 15.3833 19.5001 15.3833ZM16.6834 19.5C16.6834 18.7529 16.9802 18.0365 17.5084 17.5083C18.0366 16.98 18.7531 16.6833 19.5001 16.6833C20.2471 16.6833 20.9635 16.98 21.4918 17.5083C22.02 18.0365 22.3168 18.7529 22.3168 19.5C22.3168 20.247 22.02 20.9634 21.4918 21.4916C20.9635 22.0199 20.2471 22.3166 19.5001 22.3166C18.7531 22.3166 18.0366 22.0199 17.5084 21.4916C16.9802 20.9634 16.6834 20.247 16.6834 19.5Z" fill="white"/>
<path fill-rule="evenodd" clip-rule="evenodd" d="M24.0569 11.5553C21.0282 11.2194 17.9717 11.2194 14.943 11.5553C13.1993 11.7503 11.7909 13.1239 11.5864 14.8763C11.2277 17.9483 11.2277 21.0516 11.5864 24.1237C11.7909 25.8761 13.1984 27.2497 14.943 27.4447C17.9717 27.7799 21.0282 27.7799 24.0569 27.4447C25.8006 27.2497 27.2089 25.8761 27.4135 24.1237C27.7722 21.0516 27.7722 17.9483 27.4135 14.8763C27.2089 13.1239 25.8015 11.7503 24.0569 11.5553ZM15.0869 12.8466C18.0199 12.5213 20.98 12.5213 23.913 12.8466C25.0657 12.9766 25.9887 13.8857 26.123 15.028C26.4707 17.9992 26.4707 21.0008 26.123 23.972C26.0535 24.531 25.7976 25.0503 25.3966 25.446C24.9956 25.8416 24.4729 26.0906 23.913 26.1525C20.98 26.4778 18.0199 26.4778 15.0869 26.1525C14.527 26.0906 14.0043 25.8416 13.6033 25.446C13.2023 25.0503 12.9464 24.531 12.8769 23.972C12.5292 21.0008 12.5292 17.9992 12.8769 15.028C12.9464 14.469 13.2023 13.9497 13.6033 13.554C14.0043 13.1584 14.527 12.9086 15.0869 12.8466Z" fill="white"/>
</svg>
