<svg width="60" height="60" viewBox="0 0 60 60" fill="none" xmlns="http://www.w3.org/2000/svg">
<g clip-path="url(#clip0_1203_1278)">
<path d="M52.4795 37.121C53.2357 34.7869 53.6198 32.3525 53.6198 29.8719C53.6198 27.4004 53.2384 24.9747 52.4868 22.6479C54.1398 22.0272 55.6426 21.0334 56.8905 19.7118C59.047 17.4289 60.185 14.4425 60.0953 11.3036C59.9094 4.823 54.4868 -0.297089 48.0053 -0.112152C44.8659 -0.0224303 41.95 1.28449 39.7934 3.56782C38.7044 4.72092 37.8759 6.05347 37.3334 7.49452C35.0061 6.74333 32.5805 6.36201 30.1081 6.36201C27.6343 6.36201 25.2068 6.74424 22.8781 7.49635C21.1986 3.05191 16.9002 -0.117188 11.8749 -0.117188C5.39155 -0.117188 0.117188 5.15717 0.117188 11.64C0.117188 16.6649 3.28675 20.9629 7.73118 22.6419C6.97862 24.971 6.59684 27.3986 6.59684 29.8719C6.59684 32.3525 6.98091 34.7869 7.73713 37.121C3.28949 38.7987 0.117188 43.0985 0.117188 48.1257C0.117188 49.8954 0.500794 51.5969 1.25748 53.1826C1.46668 53.6207 1.99127 53.8065 2.42935 53.5973C2.86698 53.3881 3.05283 52.8635 2.84409 52.4255C2.20093 51.0778 1.875 49.6313 1.875 48.1257C1.875 42.6124 6.36109 38.1267 11.8749 38.1267C17.3891 38.1267 21.8752 42.6124 21.8752 48.1257C21.8752 53.6394 17.3891 58.1251 11.8749 58.1251C9.35991 58.1251 6.95619 57.188 5.10682 55.4865C4.7493 55.1578 4.19312 55.1812 3.8649 55.5382C3.53623 55.8958 3.55912 56.4515 3.91663 56.7802C6.09147 58.7811 8.91771 59.8829 11.8749 59.8829C16.9075 59.8829 21.2114 56.7042 22.8855 52.2497C25.2114 53.0004 27.6366 53.3817 30.1081 53.3817C32.58 53.3817 35.0057 53.0004 37.3316 52.2501C39.0056 56.7046 43.3095 59.8829 48.3422 59.8829C54.8255 59.8829 60.0999 54.6085 60.0999 48.1257C60.0999 43.0985 56.9276 38.7983 52.4795 37.121ZM41.0715 4.77448C42.9053 2.83265 45.386 1.72119 48.0561 1.64475C48.1531 1.642 48.2493 1.64063 48.3463 1.64063C53.7287 1.64063 58.1832 5.93949 58.3379 11.3535C58.4144 14.0232 57.4467 16.5628 55.6129 18.5051C53.7791 20.447 51.2984 21.5584 48.6283 21.6349C48.5313 21.6376 48.4347 21.639 48.3381 21.639C42.9557 21.639 38.5012 17.3401 38.3465 11.9261C38.2696 9.25645 39.2377 6.71632 41.0715 4.77448ZM36.8386 50.5619C34.6729 51.2659 32.4129 51.6239 30.1081 51.6239C27.8041 51.6239 25.5442 51.2659 23.3785 50.5619C23.5446 49.7755 23.633 48.9606 23.633 48.1257C23.633 41.6428 18.3582 36.3689 11.8749 36.3689C11.0349 36.3689 10.2155 36.4582 9.42491 36.6262C8.71492 34.4527 8.35466 32.1845 8.35466 29.8719C8.35466 27.5666 8.71309 25.3057 9.4185 23.1377C10.2109 23.3071 11.0326 23.3968 11.8749 23.3968C13.889 23.3968 15.8762 22.8786 17.6226 21.8985C18.0455 21.6609 18.1961 21.1254 17.9585 20.7019C17.721 20.2785 17.1854 20.1284 16.762 20.3659C15.2779 21.1986 13.5878 21.639 11.8749 21.639C6.36063 21.639 1.875 17.1533 1.875 11.6396C1.875 6.12626 6.36109 1.64063 11.8749 1.64063C17.3891 1.64063 21.8752 6.12626 21.8752 11.64C21.8752 13.9467 21.0709 16.1971 19.6106 17.9773C19.3025 18.3522 19.3575 18.9061 19.7328 19.2142C20.1078 19.5218 20.6616 19.4673 20.9697 19.092C22.6868 16.9986 23.633 14.3518 23.633 11.6396C23.633 10.7977 23.5428 9.97606 23.3739 9.18367C25.5414 8.47825 27.8028 8.11982 30.1081 8.11982C32.4129 8.11982 34.6734 8.47779 36.84 9.18229C36.6482 10.0896 36.5621 11.0257 36.5891 11.9765C36.7717 18.3426 42.0086 23.3972 48.3376 23.3968C48.4507 23.3968 48.5647 23.3954 48.6787 23.3918C49.3992 23.3712 50.1078 23.2856 50.7986 23.1395C51.5035 25.3066 51.8619 27.5675 51.8619 29.8719C51.8619 32.1845 51.5012 34.4527 50.7917 36.6262C50.0011 36.4577 49.1817 36.3689 48.3422 36.3689C41.8589 36.3689 36.5845 41.6428 36.5845 48.1257C36.5845 48.9611 36.6724 49.7759 36.8386 50.5619ZM48.3422 58.1251C42.828 58.1251 38.3423 53.6394 38.3423 48.1261C38.3423 42.6124 42.828 38.1267 48.3422 38.1267C53.8564 38.1267 58.3421 42.6124 58.3421 48.1261C58.3421 53.6394 53.8564 58.1251 48.3422 58.1251Z" fill="white"/>
<path d="M17.8592 6.45193C17.5562 6.24593 17.1575 6.24914 16.8581 6.46062C16.5587 6.67165 16.2383 6.84789 15.9014 6.98751C14.6938 6.04268 12.9438 6.05367 11.7449 7.096C11.1219 7.63799 10.7323 8.38735 10.6417 9.19668C9.35216 9.00488 8.18669 8.29489 7.42222 7.20632C7.24003 6.94723 6.93242 6.80669 6.61793 6.83691C6.30253 6.86758 6.02833 7.06533 5.8997 7.35464C5.87452 7.4114 5.28309 8.76272 5.35862 10.4166C5.4163 11.6823 5.86903 13.3138 7.52019 14.5736C6.92555 14.7654 6.2975 14.8542 5.67173 14.829C5.26432 14.813 4.9004 15.078 4.79054 15.4699C4.68067 15.8617 4.85417 16.2778 5.20985 16.4756C6.58864 17.2414 8.06584 17.625 9.50917 17.625C10.8957 17.625 12.2507 17.2707 13.4565 16.5617C14.9685 15.6722 16.0671 14.3104 16.6636 12.6473C16.6823 12.6052 16.6979 12.5612 16.7103 12.5159C17.017 11.6128 17.1776 10.6235 17.1776 9.57434C17.1776 9.52856 17.1763 9.48233 17.1744 9.43655C17.6761 8.84512 18.0341 8.14428 18.2191 7.38668C18.3051 7.03054 18.1623 6.65792 17.8592 6.45193ZM15.3928 9.30014C15.4102 9.39169 15.4194 9.48645 15.4194 9.57708C15.4194 10.4386 15.2912 11.2365 15.0472 11.9575C15.0339 11.9904 15.0229 12.0247 15.0138 12.06C14.5574 13.3372 13.7266 14.363 12.5652 15.0465C11.5023 15.6722 10.2823 15.9386 9.03905 15.8485C9.32378 15.7075 9.59889 15.5472 9.86211 15.3687C10.1258 15.1893 10.2723 14.8812 10.2439 14.5631C10.2155 14.2449 10.0168 13.9675 9.72524 13.838C8.08415 13.1087 7.20662 11.9488 7.11735 10.391C7.09904 10.0719 7.11506 9.76568 7.1494 9.48507C8.35835 10.4954 9.90697 11.0465 11.5233 11.0048C11.9999 10.9925 12.3798 10.6029 12.3798 10.1264V9.5931C12.3798 9.58944 12.3798 9.58532 12.3798 9.5812C12.3739 9.13671 12.5625 8.7142 12.8985 8.4226C13.5265 7.87649 14.4814 7.94286 15.0275 8.57092C15.1374 8.6968 15.2775 8.78607 15.4304 8.83322C15.3768 8.98062 15.3626 9.14129 15.3928 9.30014Z" fill="white"/>
<path d="M45.4502 12.3331H46.6962V17.5741C46.6962 18.0593 47.0899 18.453 47.5751 18.453C48.0608 18.453 48.454 18.0593 48.454 17.5741V12.3331H49.8113C50.2965 12.3331 50.6902 11.9394 50.6902 11.4542C50.6902 10.969 50.2965 10.5753 49.8113 10.5753H48.454V8.11618C48.454 7.27207 49.1411 6.58496 49.9857 6.58496H51.1237C51.609 6.58496 52.0026 6.19129 52.0026 5.70606C52.0026 5.22037 51.609 4.82715 51.1237 4.82715H49.9857C48.1721 4.82715 46.6962 6.30252 46.6962 8.11618V10.5753H45.4502C44.965 10.5753 44.5713 10.969 44.5713 11.4542C44.5713 11.9394 44.965 12.3331 45.4502 12.3331Z" fill="white"/>
<path d="M9.88129 52.6712C10.0905 52.6712 10.2997 52.6172 10.486 52.5096L16.4685 49.0539C16.8416 48.8388 17.0732 48.4373 17.0732 48.0066C17.0732 47.5763 16.8416 47.1748 16.4685 46.9597L10.486 43.504C10.1134 43.2884 9.65012 43.2884 9.27704 43.504C8.90396 43.7191 8.67188 44.1206 8.67188 44.5514V51.4622C8.67188 51.893 8.90396 52.2944 9.27704 52.5096C9.46335 52.6176 9.67209 52.6712 9.88129 52.6712ZM10.4297 45.5017L14.7675 48.007L10.4297 50.5124V45.5017Z" fill="white"/>
<path d="M52.1615 41.9009H44.5232C43.1966 41.9009 42.1172 42.9803 42.1172 44.3073V51.9442C42.1172 53.2713 43.1966 54.3507 44.5232 54.3507H52.1615C53.4881 54.3507 54.5675 53.2713 54.5675 51.9442V44.3073C54.5675 42.9803 53.4881 41.9009 52.1615 41.9009ZM52.8096 51.9442C52.8096 52.3022 52.519 52.5929 52.1615 52.5929H44.5232C44.1657 52.5929 43.875 52.3022 43.875 51.9442V44.3073C43.875 43.9498 44.1657 43.6587 44.5232 43.6587H52.1615C52.519 43.6587 52.8096 43.9498 52.8096 44.3073V51.9442Z" fill="white"/>
<path d="M48.3424 45.4692C46.8776 45.4692 45.6855 46.6613 45.6855 48.1261C45.6855 49.5909 46.8776 50.7825 48.3424 50.7825C49.8073 50.7825 50.9993 49.5909 50.9993 48.1261C50.9993 46.6613 49.8073 45.4692 48.3424 45.4692ZM48.3424 49.0247C47.8467 49.0247 47.4434 48.6214 47.4434 48.1261C47.4434 47.6303 47.8467 47.2271 48.3424 47.2271C48.8382 47.2271 49.2415 47.6303 49.2415 48.1261C49.2415 48.6214 48.8382 49.0247 48.3424 49.0247Z" fill="white"/>
<path d="M36.4693 20.7534C35.9836 20.7534 35.5904 21.1471 35.5904 21.6323V22.0265C34.3516 22.7566 33.0493 23.3869 31.7103 23.9028C30.6383 24.3157 29.5309 24.6591 28.4108 24.9278C28.2387 24.7955 28.0244 24.7154 27.791 24.7154H23.7668C22.7945 24.7154 22.0039 25.5064 22.0039 26.4782V31.0939C22.0039 32.0661 22.7945 32.8567 23.7668 32.8567H24.571L24.8759 38.717C24.9002 39.1862 25.2884 39.5501 25.753 39.5501C25.7681 39.5501 25.7837 39.5497 25.7992 39.5488C26.284 39.5236 26.6566 39.1102 26.6314 38.6255L26.3312 32.8567H27.791C28.024 32.8567 28.2387 32.7771 28.4103 32.6448C29.1235 32.8169 29.833 33.0192 30.5266 33.2495C30.9875 33.4019 31.4847 33.1524 31.6376 32.6919C31.7904 32.2309 31.5405 31.7334 31.08 31.5809C30.3352 31.3337 29.5735 31.1163 28.8072 30.9318V26.6412C30.0075 26.3537 31.1935 25.9852 32.3421 25.543C33.4526 25.115 34.5402 24.6137 35.5899 24.0461V33.5282C35.2035 33.3195 34.8131 33.1204 34.4198 32.9313C33.9822 32.7207 33.4572 32.9048 33.2471 33.3424C33.0365 33.78 33.2205 34.3051 33.6581 34.5156C34.3127 34.8306 34.96 35.1776 35.5899 35.5474V35.9397C35.5899 36.4254 35.9836 36.8187 36.4688 36.8187C36.954 36.8187 37.3477 36.4254 37.3477 35.9397V21.6323C37.3482 21.1471 36.9545 20.7534 36.4693 20.7534ZM27.0498 31.0984L23.7617 31.0939L23.7668 26.4732H27.0498V31.0984Z" fill="white"/>
</g>
<defs>
<clipPath id="clip0_1203_1278">
<rect width="60" height="60" fill="white"/>
</clipPath>
</defs>
</svg>
