<svg width="36" height="34" viewBox="0 0 36 34" fill="none" xmlns="http://www.w3.org/2000/svg">
<path d="M15.5048 0.0361328C13.4341 0.0710156 11.5638 1.30602 10.7177 3.21566L20.8485 6.2757C21.2939 3.61941 19.6982 1.04402 17.1302 0.2625C16.67 0.122969 16.1876 0.0465234 15.7052 0.0361328H15.5048ZM10.3317 4.4952C9.87901 7.15891 11.4747 9.74172 14.0501 10.521C16.6329 11.3003 19.3864 10.0237 20.47 7.55227L10.3317 4.4952ZM30.0368 7.78234C28.1591 7.78977 26.1626 8.69523 24.656 10.8253L15.3935 23.9546C12.9071 27.4726 13.9907 31.1538 16.4399 32.8905C18.8966 34.6347 22.7189 34.4343 25.2052 30.9163L34.4603 17.7945C36.9466 14.2691 35.863 10.5952 33.4138 8.85109C32.4935 8.19797 31.3876 7.81945 30.2224 7.78234H30.0368ZM29.9032 9.06633C29.9997 9.06633 30.0962 9.06633 30.1853 9.07375C31.0833 9.11086 31.9294 9.43 32.6419 9.94211C34.5493 11.2929 35.5067 13.987 33.3618 17.0226L28.5747 23.8136C25.9177 23.1011 22.5036 20.6741 20.9524 18.3956L25.7544 11.5972C27.0087 9.82336 28.5005 9.09602 29.9032 9.06633ZM6.1421 14.7218C5.42811 14.7292 4.72378 14.8777 4.06917 15.1671C1.61179 16.2433 0.332998 18.9894 1.08261 21.5722L10.7845 17.3343C9.81222 15.6941 8.04581 14.6995 6.1421 14.7218ZM11.3114 18.5515L1.61105 22.7968C2.98038 25.1273 5.86378 26.0624 8.33526 24.9863C10.7993 23.9027 12.0759 21.1417 11.3114 18.5515Z" fill="black"/>
</svg>
