<svg width="39" height="38" viewBox="0 0 39 38" fill="none" xmlns="http://www.w3.org/2000/svg">
<path d="M16.7201 7.91667L19.8867 4.75M13.5534 25.3333L26.2201 12.6667M19.8867 33.25L23.0534 30.0833M27.0117 30.0833C28.0615 30.0833 29.0684 29.6663 29.8107 28.924C30.553 28.1816 30.9701 27.1748 30.9701 26.125C30.9701 25.0752 30.553 24.0684 29.8107 23.326C29.0684 22.5837 28.0615 22.1667 27.0117 22.1667C25.9619 22.1667 24.9551 22.5837 24.2128 23.326C23.4704 24.0684 23.0534 25.0752 23.0534 26.125C23.0534 27.1748 23.4704 28.1816 24.2128 28.924C24.9551 29.6663 25.9619 30.0833 27.0117 30.0833ZM12.7617 15.8333C13.8115 15.8333 14.8184 15.4163 15.5607 14.674C16.303 13.9316 16.7201 12.9248 16.7201 11.875C16.7201 10.8252 16.303 9.81837 15.5607 9.07604C14.8184 8.3337 13.8115 7.91667 12.7617 7.91667C11.7119 7.91667 10.7051 8.3337 9.96275 9.07604C9.22042 9.81837 8.80339 10.8252 8.80339 11.875C8.80339 12.9248 9.22042 13.9316 9.96275 14.674C10.7051 15.4163 11.7119 15.8333 12.7617 15.8333ZM9.59505 33.25C10.6449 33.25 11.6517 32.833 12.394 32.0906C13.1363 31.3483 13.5534 30.3415 13.5534 29.2917C13.5534 28.2419 13.1363 27.235 12.394 26.4927C11.6517 25.7504 10.6449 25.3333 9.59505 25.3333C8.54524 25.3333 7.53842 25.7504 6.79609 26.4927C6.05376 27.235 5.63672 28.2419 5.63672 29.2917C5.63672 30.3415 6.05376 31.3483 6.79609 32.0906C7.53842 32.833 8.54524 33.25 9.59505 33.25ZM30.1784 12.6667C31.2282 12.6667 32.235 12.2496 32.9774 11.5073C33.7197 10.765 34.1367 9.75815 34.1367 8.70833C34.1367 7.65852 33.7197 6.6517 32.9774 5.90937C32.235 5.16704 31.2282 4.75 30.1784 4.75C29.1286 4.75 28.1218 5.16704 27.3794 5.90937C26.6371 6.6517 26.2201 7.65852 26.2201 8.70833C26.2201 9.75815 26.6371 10.765 27.3794 11.5073C28.1218 12.2496 29.1286 12.6667 30.1784 12.6667Z" stroke="black" stroke-width="4" stroke-linecap="round" stroke-linejoin="round"/>
</svg>
