<svg width="22" height="22" viewBox="0 0 22 22" fill="none" xmlns="http://www.w3.org/2000/svg">
<g clip-path="url(#clip0_1107_395)">
<path d="M0 16.4999C0 17.1482 0.257539 17.77 0.715961 18.2284C1.17438 18.6868 1.79614 18.9443 2.44444 18.9443H19.5556C20.2039 18.9443 20.8256 18.6868 21.284 18.2284C21.7425 17.77 22 17.1482 22 16.4999V13.4443H0V16.4999Z" fill="#138808"/>
<path d="M22 8.55566V5.50011C22 4.8518 21.7425 4.23005 21.284 3.77163C20.8256 3.3132 20.2039 3.05566 19.5556 3.05566H2.44444C1.79614 3.05566 1.17438 3.3132 0.715961 3.77163C0.257539 4.23005 0 4.8518 0 5.50011L0 8.55566H22Z" fill="#FF9933"/>
<path d="M0 8.35254H22V13.649H0V8.35254Z" fill="#F7F7F7"/>
<path d="M11.0001 13.4446C12.3501 13.4446 13.4446 12.3501 13.4446 11.0001C13.4446 9.65008 12.3501 8.55566 11.0001 8.55566C9.65008 8.55566 8.55566 9.65008 8.55566 11.0001C8.55566 12.3501 9.65008 13.4446 11.0001 13.4446Z" fill="#000080"/>
<path d="M11 13.0625C12.1391 13.0625 13.0625 12.1391 13.0625 11C13.0625 9.86091 12.1391 8.9375 11 8.9375C9.86091 8.9375 8.9375 9.86091 8.9375 11C8.9375 12.1391 9.86091 13.0625 11 13.0625Z" fill="#F7F7F7"/>
<path d="M11.0611 10.2366L11 10.6338L10.9389 10.2366L11 9.04492L11.0611 10.2366ZM10.494 9.11153L10.7433 10.2781L10.9053 10.646L10.8613 10.247L10.494 9.11153ZM10.0222 9.30709L10.5649 10.3692L10.8167 10.6827L10.6712 10.3081L10.0222 9.30709ZM9.61704 9.61753L10.4164 10.5036L10.7409 10.7414L10.5032 10.4169L9.61704 9.61753ZM9.3066 10.0227L10.3076 10.6717L10.6822 10.8171L10.3687 10.5654L9.3066 10.0227ZM9.11104 10.4945L10.2465 10.8618L10.6455 10.9058L10.2777 10.7438L9.11104 10.4945ZM9.04443 11.0005L10.2361 11.0616L10.6333 11.0005L10.2361 10.9394L9.04443 11.0005ZM9.11104 11.5065L10.2777 11.2571L10.6455 11.0952L10.2465 11.1392L9.11104 11.5065ZM9.3066 11.9783L10.3687 11.4356L10.6822 11.1838L10.3076 11.3293L9.3066 11.9783ZM9.61704 12.3834L10.5032 11.5841L10.7409 11.2596L10.4164 11.4973L9.61704 12.3834ZM10.0222 12.6939L10.6712 11.6929L10.8167 11.3183L10.5649 11.6318L10.0222 12.6939ZM10.494 12.8894L10.8613 11.754L10.9053 11.3549L10.7433 11.7228L10.494 12.8894ZM11 12.956L11.0611 11.7644L11 11.3671L10.9389 11.7644L11 12.956ZM11.506 12.8894L11.2567 11.7228L11.0947 11.3549L11.1387 11.754L11.506 12.8894ZM11.9778 12.6939L11.4351 11.6318L11.1833 11.3183L11.3288 11.6929L11.9778 12.6939ZM12.3829 12.3834L11.5836 11.4973L11.2591 11.2596L11.4968 11.5841L12.3829 12.3834ZM12.6934 11.9783L11.6924 11.3293L11.3178 11.1838L11.6313 11.4356L12.6934 11.9783ZM12.8889 11.5065L11.7535 11.1392L11.3544 11.0952L11.7223 11.2571L12.8889 11.5065ZM12.9555 11.0005L11.7639 10.9394L11.3667 11.0005L11.7639 11.0616L12.9555 11.0005ZM12.8889 10.4945L11.7223 10.7438L11.3544 10.9058L11.7535 10.8618L12.8889 10.4945ZM12.6934 10.0227L11.6313 10.5654L11.3178 10.8171L11.6924 10.6717L12.6934 10.0227ZM12.3829 9.61753L11.4968 10.4169L11.2591 10.7414L11.5836 10.5036L12.3829 9.61753ZM11.9778 9.30709L11.3288 10.3081L11.1833 10.6827L11.4351 10.3692L11.9778 9.30709ZM11.506 9.11153L11.1387 10.247L11.0947 10.646L11.2567 10.2781L11.506 9.11153Z" fill="#6666B3"/>
<path d="M10.7311 9.08038C10.7986 9.08038 10.8533 9.02566 10.8533 8.95816C10.8533 8.89066 10.7986 8.83594 10.7311 8.83594C10.6636 8.83594 10.6089 8.89066 10.6089 8.95816C10.6089 9.02566 10.6636 9.08038 10.7311 9.08038Z" fill="#000080"/>
<path d="M10.2116 9.22003C10.2791 9.22003 10.3338 9.16531 10.3338 9.09781C10.3338 9.03031 10.2791 8.97559 10.2116 8.97559C10.1441 8.97559 10.0894 9.03031 10.0894 9.09781C10.0894 9.16531 10.1441 9.22003 10.2116 9.22003Z" fill="#000080"/>
<path d="M9.74576 9.48761C9.81326 9.48761 9.86798 9.43289 9.86798 9.36539C9.86798 9.29788 9.81326 9.24316 9.74576 9.24316C9.67826 9.24316 9.62354 9.29788 9.62354 9.36539C9.62354 9.43289 9.67826 9.48761 9.74576 9.48761Z" fill="#000080"/>
<path d="M9.36587 9.86847C9.43338 9.86847 9.4881 9.81375 9.4881 9.74625C9.4881 9.67874 9.43338 9.62402 9.36587 9.62402C9.29837 9.62402 9.24365 9.67874 9.24365 9.74625C9.24365 9.81375 9.29837 9.86847 9.36587 9.86847Z" fill="#000080"/>
<path d="M9.09732 10.3333C9.16482 10.3333 9.21954 10.2786 9.21954 10.2111C9.21954 10.1436 9.16482 10.0889 9.09732 10.0889C9.02982 10.0889 8.9751 10.1436 8.9751 10.2111C8.9751 10.2786 9.02982 10.3333 9.09732 10.3333Z" fill="#000080"/>
<path d="M8.95816 10.8528C9.02566 10.8528 9.08038 10.7981 9.08038 10.7306C9.08038 10.6631 9.02566 10.6084 8.95816 10.6084C8.89066 10.6084 8.83594 10.6631 8.83594 10.7306C8.83594 10.7981 8.89066 10.8528 8.95816 10.8528Z" fill="#000080"/>
<path d="M8.95816 11.3909C9.02566 11.3909 9.08038 11.3362 9.08038 11.2687C9.08038 11.2012 9.02566 11.1465 8.95816 11.1465C8.89066 11.1465 8.83594 11.2012 8.83594 11.2687C8.83594 11.3362 8.89066 11.3909 8.95816 11.3909Z" fill="#000080"/>
<path d="M9.09732 11.9105C9.16482 11.9105 9.21954 11.8557 9.21954 11.7882C9.21954 11.7207 9.16482 11.666 9.09732 11.666C9.02982 11.666 8.9751 11.7207 8.9751 11.7882C8.9751 11.8557 9.02982 11.9105 9.09732 11.9105Z" fill="#000080"/>
<path d="M9.36587 12.3763C9.43338 12.3763 9.4881 12.3216 9.4881 12.2541C9.4881 12.1866 9.43338 12.1318 9.36587 12.1318C9.29837 12.1318 9.24365 12.1866 9.24365 12.2541C9.24365 12.3216 9.29837 12.3763 9.36587 12.3763Z" fill="#000080"/>
<path d="M9.74576 12.7562C9.81326 12.7562 9.86798 12.7014 9.86798 12.6339C9.86798 12.5664 9.81326 12.5117 9.74576 12.5117C9.67826 12.5117 9.62354 12.5664 9.62354 12.6339C9.62354 12.7014 9.67826 12.7562 9.74576 12.7562Z" fill="#000080"/>
<path d="M10.2116 13.0247C10.2791 13.0247 10.3338 12.97 10.3338 12.9025C10.3338 12.835 10.2791 12.7803 10.2116 12.7803C10.1441 12.7803 10.0894 12.835 10.0894 12.9025C10.0894 12.97 10.1441 13.0247 10.2116 13.0247Z" fill="#000080"/>
<path d="M10.7311 13.1634C10.7986 13.1634 10.8533 13.1087 10.8533 13.0412C10.8533 12.9737 10.7986 12.9189 10.7311 12.9189C10.6636 12.9189 10.6089 12.9737 10.6089 13.0412C10.6089 13.1087 10.6636 13.1634 10.7311 13.1634Z" fill="#000080"/>
<path d="M11.2687 13.1634C11.3362 13.1634 11.3909 13.1087 11.3909 13.0412C11.3909 12.9737 11.3362 12.9189 11.2687 12.9189C11.2012 12.9189 11.1465 12.9737 11.1465 13.0412C11.1465 13.1087 11.2012 13.1634 11.2687 13.1634Z" fill="#000080"/>
<path d="M11.7882 13.0247C11.8557 13.0247 11.9105 12.97 11.9105 12.9025C11.9105 12.835 11.8557 12.7803 11.7882 12.7803C11.7207 12.7803 11.666 12.835 11.666 12.9025C11.666 12.97 11.7207 13.0247 11.7882 13.0247Z" fill="#000080"/>
<path d="M12.2541 12.7562C12.3216 12.7562 12.3763 12.7014 12.3763 12.6339C12.3763 12.5664 12.3216 12.5117 12.2541 12.5117C12.1866 12.5117 12.1318 12.5664 12.1318 12.6339C12.1318 12.7014 12.1866 12.7562 12.2541 12.7562Z" fill="#000080"/>
<path d="M12.6339 12.3763C12.7014 12.3763 12.7562 12.3216 12.7562 12.2541C12.7562 12.1866 12.7014 12.1318 12.6339 12.1318C12.5664 12.1318 12.5117 12.1866 12.5117 12.2541C12.5117 12.3216 12.5664 12.3763 12.6339 12.3763Z" fill="#000080"/>
<path d="M12.9025 11.9105C12.97 11.9105 13.0247 11.8557 13.0247 11.7882C13.0247 11.7207 12.97 11.666 12.9025 11.666C12.835 11.666 12.7803 11.7207 12.7803 11.7882C12.7803 11.8557 12.835 11.9105 12.9025 11.9105Z" fill="#000080"/>
<path d="M13.0417 11.3909C13.1092 11.3909 13.1639 11.3362 13.1639 11.2687C13.1639 11.2012 13.1092 11.1465 13.0417 11.1465C12.9742 11.1465 12.9194 11.2012 12.9194 11.2687C12.9194 11.3362 12.9742 11.3909 13.0417 11.3909Z" fill="#000080"/>
<path d="M13.0417 10.8528C13.1092 10.8528 13.1639 10.7981 13.1639 10.7306C13.1639 10.6631 13.1092 10.6084 13.0417 10.6084C12.9742 10.6084 12.9194 10.6631 12.9194 10.7306C12.9194 10.7981 12.9742 10.8528 13.0417 10.8528Z" fill="#000080"/>
<path d="M12.9025 10.3333C12.97 10.3333 13.0247 10.2786 13.0247 10.2111C13.0247 10.1436 12.97 10.0889 12.9025 10.0889C12.835 10.0889 12.7803 10.1436 12.7803 10.2111C12.7803 10.2786 12.835 10.3333 12.9025 10.3333Z" fill="#000080"/>
<path d="M12.6339 9.86847C12.7014 9.86847 12.7562 9.81375 12.7562 9.74625C12.7562 9.67874 12.7014 9.62402 12.6339 9.62402C12.5664 9.62402 12.5117 9.67874 12.5117 9.74625C12.5117 9.81375 12.5664 9.86847 12.6339 9.86847Z" fill="#000080"/>
<path d="M12.2541 9.48761C12.3216 9.48761 12.3763 9.43289 12.3763 9.36539C12.3763 9.29788 12.3216 9.24316 12.2541 9.24316C12.1866 9.24316 12.1318 9.29788 12.1318 9.36539C12.1318 9.43289 12.1866 9.48761 12.2541 9.48761Z" fill="#000080"/>
<path d="M11.7882 9.22003C11.8557 9.22003 11.9105 9.16531 11.9105 9.09781C11.9105 9.03031 11.8557 8.97559 11.7882 8.97559C11.7207 8.97559 11.666 9.03031 11.666 9.09781C11.666 9.16531 11.7207 9.22003 11.7882 9.22003Z" fill="#000080"/>
<path d="M11.2687 9.08038C11.3362 9.08038 11.3909 9.02566 11.3909 8.95816C11.3909 8.89066 11.3362 8.83594 11.2687 8.83594C11.2012 8.83594 11.1465 8.89066 11.1465 8.95816C11.1465 9.02566 11.2012 9.08038 11.2687 9.08038Z" fill="#000080"/>
<path d="M10.9997 11.5502C11.3035 11.5502 11.5497 11.304 11.5497 11.0002C11.5497 10.6964 11.3035 10.4502 10.9997 10.4502C10.696 10.4502 10.4497 10.6964 10.4497 11.0002C10.4497 11.304 10.696 11.5502 10.9997 11.5502Z" fill="#000080"/>
</g>
<defs>
<clipPath id="clip0_1107_395">
<rect width="22" height="22" fill="white"/>
</clipPath>
</defs>
</svg>
