<svg width="394" height="128" viewBox="0 0 394 128" fill="none" xmlns="http://www.w3.org/2000/svg">
<path d="M16.9995 54.4688C46.9995 83.4688 129.603 127.965 201 54.4688C286 -33.0312 366.873 5.90362 386 37.9688C403 66.4688 388 105.469 359 119.969C326.024 136.457 247 121.469 201 79.9688C164.2 46.7688 141 20.1354 134 10.9688" stroke="#747474" stroke-dasharray="8 8"/>
<g clip-path="url(#clip0_1107_388)">
<path d="M20.2094 58.3547C20.7084 58.0346 20.9871 57.488 20.9751 56.8545C20.9681 56.4861 20.8639 56.1088 20.6655 55.7333C19.9934 54.4636 18.7919 52.854 17.2794 51.1697L17.5997 47.6887L18.2414 48.3062L18.8646 47.6594L17.7054 46.543L18.0389 42.9136L18.808 43.6542L19.4315 43.0067L18.1443 41.7679L18.3887 39.1119C18.4491 38.4561 16.8068 38.6136 16.4663 39.3812L13.0654 47.0533C11.3999 45.6184 8.94448 43.6869 7.07672 42.9917L7.38403 39.6496C7.40437 39.4237 6.84019 39.4776 6.7231 39.7416C5.97083 41.4395 5.57552 42.3305 5.36783 42.7989C5.33311 42.8102 5.30013 42.8251 5.26713 42.8394C4.48251 42.2142 3.88976 41.8658 3.7632 41.9983C3.6376 42.1291 4.00611 42.7049 4.6585 43.462C4.6443 43.4966 4.63124 43.5333 4.61933 43.5719L1.62283 45.0378C1.3631 45.1651 1.33157 45.7312 1.5559 45.702L4.8747 45.2703C5.55178 46.8745 7.24413 49.058 9.15779 51.1053L1.63276 54.787C0.876961 55.1566 0.783078 56.8044 1.43681 56.7191L4.08195 56.3743L5.3682 57.6131L5.99166 56.9656L5.22284 56.2256L8.83731 55.755L9.99548 56.8705L10.6193 56.2229L9.97819 55.606L13.443 55.1545C15.1833 56.6029 16.8373 57.7426 18.1315 58.3654C18.8811 58.7255 19.6385 58.7215 20.2094 58.3547ZM18.408 57.7904C16.628 56.9338 14.0035 54.9772 11.3565 52.4279C8.49665 49.675 6.33217 46.9253 5.53506 45.1836L6.23128 45.0932C7.60035 46.3837 8.83409 47.2562 9.02401 47.0616C9.21256 46.8644 8.29331 45.6643 6.95164 44.3447L7.01649 43.6412C8.78683 44.3739 11.6186 46.4373 14.4761 49.1886C17.1231 51.7376 19.1777 54.2858 20.1016 56.0318C20.2586 56.3295 20.3325 56.6129 20.3373 56.8669C20.3548 57.7748 19.4914 58.3111 18.408 57.7904Z" fill="white"/>
<path d="M19.6008 55.5468L18.8993 54.4639C19.0817 54.9611 18.8801 55.6476 18.5714 56.0496L19.4666 56.9119C19.7394 56.5441 19.7764 56.0378 19.6008 55.5468ZM18.3678 56.2611C17.9777 56.5845 17.2994 56.8119 16.796 56.6484L17.9046 57.3084C18.4022 57.4653 18.9065 57.4089 19.2633 57.123L18.3678 56.2611Z" fill="white"/>
</g>
<defs>
<clipPath id="clip0_1107_388">
<rect width="21.2867" height="21.2867" fill="white" transform="translate(21.2827 37.9688) rotate(88.9153)"/>
</clipPath>
</defs>
</svg>
