<svg width="1440" height="569" viewBox="0 0 1440 569" fill="none" xmlns="http://www.w3.org/2000/svg">
<g opacity="0.13" clip-path="url(#clip0_1579_4883)">
<path d="M535.196 505.95H446.774V770.762H535.196V505.95Z" fill="#FEEE99"/>
<path d="M540.315 505.951H530.076V770.762H540.315V505.951Z" fill="#FFB91A"/>
<path d="M537.471 505.951H532.92V770.762H537.471V505.951Z" fill="#FFD05E"/>
<path d="M522.631 505.951H512.392V770.762H522.631V505.951Z" fill="#FFB91A"/>
<path d="M519.786 505.951H515.235V770.762H519.786V505.951Z" fill="#FFD05E"/>
<path d="M504.946 505.951H494.707V770.762H504.946V505.951Z" fill="#FFB91A"/>
<path d="M502.102 505.951H497.551V770.762H502.102V505.951Z" fill="#FFD05E"/>
<path d="M487.263 505.951H477.023V770.762H487.263V505.951Z" fill="#FFB91A"/>
<path d="M484.418 505.951H479.867V770.762H484.418V505.951Z" fill="#FFD05E"/>
<path d="M469.578 505.951H459.339V770.762H469.578V505.951Z" fill="#FFB91A"/>
<path d="M466.733 505.951H462.183V770.762H466.733V505.951Z" fill="#FFD05E"/>
<path d="M451.894 505.951H441.654V770.762H451.894V505.951Z" fill="#FFB91A"/>
<path d="M449.05 505.951H444.499V770.762H449.05V505.951Z" fill="#FFD05E"/>
<path d="M208.825 714.218C152.37 714.218 106.44 668.276 106.44 611.806C106.44 555.336 152.37 509.395 208.825 509.395V519.637C158.015 519.637 116.68 560.984 116.68 611.806C116.68 662.629 158.015 703.976 208.825 703.976C259.634 703.975 300.97 662.628 300.97 611.806H311.209C311.209 668.275 265.279 714.217 208.825 714.218Z" fill="#FFB91A"/>
<path d="M208.824 711.373C153.937 711.373 109.284 666.708 109.284 611.806C109.284 556.906 153.937 512.24 208.824 512.24V516.792C156.447 516.792 113.835 559.415 113.835 611.806C113.835 664.197 156.447 706.821 208.824 706.821C261.201 706.82 303.814 664.196 303.814 611.806H308.364C308.364 666.707 263.711 711.372 208.824 711.373Z" fill="#FFD05E"/>
<path d="M208.824 661.151C181.623 661.151 159.494 639.016 159.494 611.807C159.494 584.599 181.623 562.463 208.824 562.463V572.705C187.27 572.705 169.733 590.247 169.733 611.807C169.733 633.368 187.27 650.909 208.824 650.909C230.379 650.909 247.916 633.368 247.916 611.807H258.155C258.155 639.014 236.026 661.151 208.824 661.151Z" fill="#FFB91A"/>
<path d="M208.824 658.306C183.192 658.306 162.338 637.446 162.338 611.807C162.338 586.168 183.192 565.309 208.824 565.309V569.861C185.7 569.861 166.889 588.677 166.889 611.807C166.889 634.937 185.702 653.754 208.824 653.754C231.948 653.754 250.759 634.937 250.759 611.807H255.31C255.31 637.446 234.456 658.306 208.824 658.306Z" fill="#FFD05E"/>
<path d="M208.825 678.838C171.873 678.838 141.811 648.767 141.811 611.806C141.811 574.845 171.873 544.773 208.825 544.773V555.015C177.519 555.015 152.05 580.491 152.05 611.806C152.05 643.121 177.519 668.596 208.825 668.596C240.131 668.596 265.601 643.12 265.601 611.806H275.84C275.84 648.768 245.777 678.838 208.825 678.838Z" fill="#FFB91A"/>
<path d="M208.825 675.994C173.44 675.994 144.654 647.199 144.654 611.806C144.654 576.413 173.441 547.618 208.825 547.618V552.17C175.95 552.17 149.205 578.923 149.205 611.806C149.205 644.69 175.95 671.442 208.825 671.442C241.699 671.442 268.444 644.688 268.444 611.806H272.995C272.995 647.2 244.209 675.994 208.825 675.994Z" fill="#FFD05E"/>
<path d="M208.825 696.528C162.122 696.528 124.125 658.522 124.125 611.806C124.125 565.09 162.121 527.084 208.825 527.084V537.326C167.768 537.326 134.364 570.738 134.364 611.806C134.364 652.874 167.767 686.286 208.825 686.286C249.882 686.286 283.286 652.874 283.286 611.806H293.525C293.525 658.522 255.528 696.528 208.825 696.528Z" fill="#FFB91A"/>
<path d="M208.825 693.683C163.689 693.683 126.969 656.954 126.969 611.806C126.969 566.658 163.689 529.929 208.825 529.929V534.481C166.199 534.481 131.52 569.169 131.52 611.806C131.52 654.443 166.198 689.131 208.825 689.131C251.451 689.131 286.13 654.442 286.13 611.806H290.68C290.68 656.954 253.96 693.683 208.825 693.683Z" fill="#FFD05E"/>
<path d="M464.459 514.516H208.825V602.963H464.459V514.516Z" fill="#FEEE99"/>
<path d="M464.459 562.462H208.825V572.704H464.459V562.462Z" fill="#FFB91A"/>
<path d="M464.459 565.308H208.825V569.86H464.459V565.308Z" fill="#FFD05E"/>
<path d="M464.459 544.773H208.825V555.015H464.459V544.773Z" fill="#FFB91A"/>
<path d="M464.459 547.618H208.825V552.17H464.459V547.618Z" fill="#FFD05E"/>
<path d="M464.459 527.084H208.825V537.326H464.459V527.084Z" fill="#FFB91A"/>
<path d="M464.459 529.929H208.825V534.481H464.459V529.929Z" fill="#FFD05E"/>
<path d="M464.459 509.395H208.825V519.637H464.459V509.395Z" fill="#FFB91A"/>
<path d="M464.459 512.24H208.825V516.792H464.459V512.24Z" fill="#FFD05E"/>
<path d="M540.315 426.069H530.076V597.131H540.315V426.069Z" fill="#FFB91A"/>
<path d="M537.472 426.069H532.921V597.131H537.472V426.069Z" fill="#FFD05E"/>
<path d="M557.999 426.069H547.76V597.131H557.999V426.069Z" fill="#FFB91A"/>
<path d="M555.155 426.069H550.604V597.131H555.155V426.069Z" fill="#FFD05E"/>
<path d="M522.631 426.069H512.392V597.131H522.631V426.069Z" fill="#FFB91A"/>
<path d="M519.786 426.069H515.235V597.131H519.786V426.069Z" fill="#FFD05E"/>
<path d="M504.946 426.069H494.707V597.131H504.946V426.069Z" fill="#FFB91A"/>
<path d="M502.103 426.069H497.552V597.131H502.103V426.069Z" fill="#FFD05E"/>
<path d="M487.263 426.069H477.023V597.131H487.263V426.069Z" fill="#FFB91A"/>
<path d="M484.419 426.069H479.868V597.131H484.419V426.069Z" fill="#FFD05E"/>
<path d="M469.578 426.069H459.339V597.131H469.578V426.069Z" fill="#FFB91A"/>
<path d="M466.734 426.069H462.184V597.131H466.734V426.069Z" fill="#FFD05E"/>
<path d="M561.723 426.069H296.983V514.516H561.723V426.069Z" fill="#FEEE99"/>
<path d="M569.755 420.949H296.983V431.191H569.755V420.949Z" fill="#FFB91A"/>
<path d="M569.755 423.794H296.983V428.346H569.755V423.794Z" fill="#FFD05E"/>
<path d="M570.396 438.638H296.983V448.88H570.396V438.638Z" fill="#FFB91A"/>
<path d="M570.396 441.483H296.983V446.035H570.396V441.483Z" fill="#FFD05E"/>
<path d="M570.396 456.327H296.983V466.569H570.396V456.327Z" fill="#FFB91A"/>
<path d="M570.396 459.172H296.983V463.724H570.396V459.172Z" fill="#FFD05E"/>
<path d="M570.396 474.016H296.983V484.258H570.396V474.016Z" fill="#FFB91A"/>
<path d="M570.396 476.861H296.983V481.413H570.396V476.861Z" fill="#FFD05E"/>
<path d="M570.396 491.705H296.983V501.947H570.396V491.705Z" fill="#FFB91A"/>
<path d="M570.396 494.55H296.983V499.102H570.396V494.55Z" fill="#FFD05E"/>
<path d="M570.396 509.394H296.983V519.636H570.396V509.394Z" fill="#FFB91A"/>
<path d="M570.396 512.239H296.983V516.791H570.396V512.239Z" fill="#FFD05E"/>
<path d="M569.192 514.516C574.075 514.516 578.034 518.476 578.034 523.36H666.457C666.457 469.629 622.911 426.069 569.192 426.069V514.516Z" fill="#FEEE99"/>
<path d="M671.577 523.361H661.337C661.337 472.539 620.002 431.192 569.192 431.192V420.95C625.647 420.949 671.577 466.89 671.577 523.361Z" fill="#FFB91A"/>
<path d="M668.732 523.361H664.182C664.182 470.97 621.569 428.347 569.192 428.347V423.795C624.078 423.794 668.732 468.459 668.732 523.361Z" fill="#FFD05E"/>
<path d="M583.154 523.361H572.915C572.915 521.306 571.245 519.637 569.192 519.637V509.395C576.89 509.394 583.154 515.66 583.154 523.361Z" fill="#FFB91A"/>
<path d="M580.31 523.361H575.759C575.759 519.739 572.814 516.792 569.192 516.792V512.24C575.322 512.239 580.31 517.228 580.31 523.361Z" fill="#FFD05E"/>
<path d="M600.838 523.361H590.599C590.599 511.554 580.996 501.948 569.192 501.948V491.706C586.642 491.705 600.838 505.906 600.838 523.361Z" fill="#FFB91A"/>
<path d="M597.994 523.361H593.443C593.443 509.985 582.564 499.103 569.192 499.103V494.551C585.073 494.55 597.994 507.474 597.994 523.361Z" fill="#FFD05E"/>
<path d="M618.523 523.361H608.283C608.283 501.8 590.747 484.259 569.192 484.259V474.017C596.393 474.016 618.523 496.151 618.523 523.361Z" fill="#FFB91A"/>
<path d="M615.678 523.361H611.128C611.128 500.231 592.315 481.414 569.192 481.414V476.862C594.825 476.861 615.678 497.721 615.678 523.361Z" fill="#FFD05E"/>
<path d="M636.207 523.36H625.968C625.968 492.046 600.498 466.57 569.192 466.57V456.328C606.145 456.326 636.207 486.398 636.207 523.36Z" fill="#FFB91A"/>
<path d="M633.363 523.361H628.812C628.812 490.477 602.067 463.725 569.192 463.725V459.173C604.576 459.172 633.363 487.967 633.363 523.361Z" fill="#FFD05E"/>
<path d="M653.891 523.36H643.652C643.652 482.292 610.249 448.881 569.192 448.881V438.639C615.896 438.638 653.891 476.644 653.891 523.36Z" fill="#FFB91A"/>
<path d="M651.047 523.361H646.496C646.496 480.723 611.818 446.036 569.192 446.036V441.484C614.327 441.483 651.047 478.213 651.047 523.361Z" fill="#FFD05E"/>
<path d="M666.457 523.36H578.034V788.172H666.457V523.36Z" fill="#FEEE99"/>
<path d="M671.577 523.36H661.338V796.207H671.577V523.36Z" fill="#FFB91A"/>
<path d="M668.732 523.36H664.182V796.207H668.732V523.36Z" fill="#FFD05E"/>
<path d="M653.892 523.36H643.652V796.847H653.892V523.36Z" fill="#FFB91A"/>
<path d="M651.047 523.36H646.496V796.847H651.047V523.36Z" fill="#FFD05E"/>
<path d="M636.207 523.36H625.968V796.847H636.207V523.36Z" fill="#FFB91A"/>
<path d="M633.362 523.36H628.812V796.847H633.362V523.36Z" fill="#FFD05E"/>
<path d="M618.522 523.36H608.283V796.847H618.522V523.36Z" fill="#FFB91A"/>
<path d="M615.678 523.36H611.127V796.847H615.678V523.36Z" fill="#FFD05E"/>
<path d="M600.839 523.36H590.6V796.846H600.839V523.36Z" fill="#FFB91A"/>
<path d="M597.994 523.36H593.443V796.846H597.994V523.36Z" fill="#FFD05E"/>
<path d="M583.154 523.36H572.915V796.846H583.154V523.36Z" fill="#FFB91A"/>
<path d="M580.31 523.36H575.759V796.846H580.31V523.36Z" fill="#FFD05E"/>
<path d="M446.774 416.369H358.352V597.131H446.774V416.369Z" fill="#FEEE99"/>
<path d="M451.895 416.369H441.655V597.132H451.895V416.369Z" fill="#FFB91A"/>
<path d="M449.05 416.369H444.499V597.132H449.05V416.369Z" fill="#FFD05E"/>
<path d="M434.209 416.369H423.97V597.132H434.209V416.369Z" fill="#FFB91A"/>
<path d="M431.364 416.369H426.813V597.132H431.364V416.369Z" fill="#FFD05E"/>
<path d="M416.524 416.369H406.285V597.132H416.524V416.369Z" fill="#FFB91A"/>
<path d="M413.68 416.369H409.129V597.132H413.68V416.369Z" fill="#FFD05E"/>
<path d="M398.842 416.369H388.603V597.132H398.842V416.369Z" fill="#FFB91A"/>
<path d="M395.997 416.369H391.446V597.132H395.997V416.369Z" fill="#FFD05E"/>
<path d="M381.156 416.369H370.917V597.132H381.156V416.369Z" fill="#FFB91A"/>
<path d="M378.312 416.369H373.761V597.132H378.312V416.369Z" fill="#FFD05E"/>
<path d="M363.472 416.369H353.232V597.132H363.472V416.369Z" fill="#FFB91A"/>
<path d="M360.627 416.369H356.076V597.132H360.627V416.369Z" fill="#FFD05E"/>
<path d="M349.51 407.525C354.393 407.525 358.352 411.485 358.352 416.37H446.775C446.775 362.638 403.228 319.079 349.51 319.079V407.525Z" fill="#FEEE99"/>
<path d="M451.894 416.369H441.655C441.655 365.547 400.319 324.2 349.51 324.2V313.958C405.964 313.958 451.894 359.9 451.894 416.369Z" fill="#FFB91A"/>
<path d="M449.05 416.37H444.499C444.499 363.978 401.887 321.356 349.51 321.356V316.804C404.397 316.804 449.05 361.469 449.05 416.37Z" fill="#FFD05E"/>
<path d="M363.472 416.369H353.232C353.232 414.316 351.562 412.647 349.51 412.647V402.405C357.209 402.404 363.472 408.668 363.472 416.369Z" fill="#FFB91A"/>
<path d="M360.627 416.369H356.077C356.077 412.747 353.131 409.802 349.51 409.802V405.25C355.64 405.249 360.627 410.238 360.627 416.369Z" fill="#FFD05E"/>
<path d="M381.156 416.369H370.917C370.917 404.563 361.313 394.958 349.51 394.958V384.716C366.96 384.716 381.156 398.915 381.156 416.369Z" fill="#FFB91A"/>
<path d="M378.312 416.37H373.761C373.761 402.995 362.881 392.113 349.51 392.113V387.561C365.392 387.561 378.312 400.484 378.312 416.37Z" fill="#FFD05E"/>
<path d="M398.841 416.37H388.602C388.602 394.809 371.065 377.268 349.511 377.268V367.026C376.711 367.026 398.841 389.161 398.841 416.37Z" fill="#FFB91A"/>
<path d="M395.997 416.37H391.446C391.446 393.24 372.633 374.423 349.511 374.423V369.871C375.142 369.871 395.997 390.731 395.997 416.37Z" fill="#FFD05E"/>
<path d="M416.524 416.369H406.285C406.285 385.055 380.816 359.578 349.51 359.578V349.336C386.462 349.336 416.524 379.407 416.524 416.369Z" fill="#FFB91A"/>
<path d="M413.68 416.369H409.129C409.129 383.486 382.385 356.734 349.51 356.734V352.182C384.894 352.182 413.68 380.975 413.68 416.369Z" fill="#FFD05E"/>
<path d="M434.209 416.369H423.969C423.969 375.301 390.567 341.889 349.51 341.889V331.647C396.213 331.647 434.209 369.653 434.209 416.369Z" fill="#FFB91A"/>
<path d="M431.364 416.369H426.814C426.814 373.732 392.136 339.045 349.51 339.045V334.493C394.644 334.493 431.364 371.222 431.364 416.369Z" fill="#FFD05E"/>
<path d="M349.51 319.08H84.7705V407.526H349.51V319.08Z" fill="#FEEE99"/>
<path d="M349.509 402.404H84.7695V412.646H349.509V402.404Z" fill="#FFB91A"/>
<path d="M349.509 405.249H84.7695V409.801H349.509V405.249Z" fill="#FFD05E"/>
<path d="M349.509 384.716H84.7695V394.958H349.509V384.716Z" fill="#FFB91A"/>
<path d="M349.509 387.561H84.7695V392.113H349.509V387.561Z" fill="#FFD05E"/>
<path d="M349.509 367.026H84.7695V377.268H349.509V367.026Z" fill="#FFB91A"/>
<path d="M349.509 369.871H84.7695V374.423H349.509V369.871Z" fill="#FFD05E"/>
<path d="M349.509 349.336H84.7695V359.578H349.509V349.336Z" fill="#FFB91A"/>
<path d="M349.509 352.182H84.7695V356.734H349.509V352.182Z" fill="#FFD05E"/>
<path d="M349.509 331.647H84.7695V341.889H349.509V331.647Z" fill="#FFB91A"/>
<path d="M349.509 334.493H84.7695V339.045H349.509V334.493Z" fill="#FFD05E"/>
<path d="M349.509 313.958H84.7695V324.2H349.509V313.958Z" fill="#FFB91A"/>
<path d="M349.509 316.804H84.7695V321.356H349.509V316.804Z" fill="#FFD05E"/>
<path d="M296.982 426.07C292.1 426.07 288.14 422.109 288.14 417.225H199.718C199.718 470.957 243.264 514.516 296.981 514.516L296.982 426.07Z" fill="#FEEE99"/>
<path d="M296.983 519.636C240.528 519.636 194.599 473.695 194.599 417.225H204.838C204.838 468.047 246.174 509.394 296.983 509.394V519.636Z" fill="#FFB91A"/>
<path d="M296.982 516.791C242.096 516.791 197.442 472.126 197.442 417.225H201.993C201.993 469.616 244.605 512.239 296.982 512.239V516.791Z" fill="#FFD05E"/>
<path d="M296.983 431.191C289.284 431.191 283.021 424.925 283.021 417.225H293.261C293.261 419.279 294.931 420.949 296.983 420.949V431.191Z" fill="#FFB91A"/>
<path d="M296.983 428.346C290.853 428.346 285.865 423.357 285.865 417.225H290.416C290.416 420.847 293.361 423.794 296.983 423.794V428.346Z" fill="#FFD05E"/>
<path d="M296.983 448.88C279.533 448.88 265.337 434.68 265.337 417.225H275.576C275.576 429.032 285.179 438.638 296.983 438.638V448.88Z" fill="#FFB91A"/>
<path d="M296.982 446.035C281.101 446.035 268.181 433.112 268.181 417.225H272.731C272.731 430.601 283.611 441.483 296.982 441.483V446.035Z" fill="#FFD05E"/>
<path d="M296.983 466.569C269.782 466.569 247.652 444.434 247.652 417.225H257.892C257.892 438.786 275.428 456.327 296.983 456.327V466.569Z" fill="#FFB91A"/>
<path d="M296.982 463.724C271.35 463.724 250.496 442.864 250.496 417.225H255.047C255.047 440.355 273.859 459.172 296.982 459.172V463.724Z" fill="#FFD05E"/>
<path d="M296.983 484.258C260.031 484.258 229.969 454.186 229.969 417.225H240.208C240.208 448.541 265.677 474.016 296.983 474.016V484.258Z" fill="#FFB91A"/>
<path d="M296.983 481.413C261.598 481.413 232.812 452.618 232.812 417.225H237.363C237.363 450.108 264.108 476.861 296.983 476.861V481.413Z" fill="#FFD05E"/>
<path d="M296.983 501.947C250.28 501.947 212.284 463.941 212.284 417.225H222.523C222.523 458.293 255.926 491.705 296.983 491.705V501.947Z" fill="#FFB91A"/>
<path d="M296.983 499.102C251.848 499.102 215.128 462.373 215.128 417.225H219.679C219.679 459.863 254.357 494.55 296.983 494.55V499.102Z" fill="#FFD05E"/>
<path d="M288.139 152.414H199.718V417.225H288.139V152.414Z" fill="#FEEE99"/>
<path d="M293.261 152.414H283.021V417.225H293.261V152.414Z" fill="#FFB91A"/>
<path d="M290.416 152.414H285.865V417.225H290.416V152.414Z" fill="#FFD05E"/>
<path d="M275.576 152.414H265.337V417.225H275.576V152.414Z" fill="#FFB91A"/>
<path d="M272.731 152.414H268.181V417.225H272.731V152.414Z" fill="#FFD05E"/>
<path d="M257.892 152.414H247.652V417.225H257.892V152.414Z" fill="#FFB91A"/>
<path d="M255.047 152.414H250.496V417.225H255.047V152.414Z" fill="#FFD05E"/>
<path d="M240.206 152.414H229.967V417.225H240.206V152.414Z" fill="#FFB91A"/>
<path d="M237.361 152.414H232.811V417.225H237.361V152.414Z" fill="#FFD05E"/>
<path d="M222.522 152.414H212.283V417.225H222.522V152.414Z" fill="#FFB91A"/>
<path d="M219.678 152.414H215.127V417.225H219.678V152.414Z" fill="#FFD05E"/>
<path d="M204.838 152.414H194.599V417.225H204.838V152.414Z" fill="#FFB91A"/>
<path d="M201.993 152.414H197.442V417.225H201.993V152.414Z" fill="#FFD05E"/>
<path d="M303.289 272.191V261.949C354.098 261.949 395.434 220.602 395.434 169.779C395.434 118.956 354.098 77.6092 303.289 77.6092V67.3672C359.744 67.3672 405.673 113.309 405.673 169.779C405.673 226.249 359.744 272.191 303.289 272.191Z" fill="#FFB91A"/>
<path d="M303.289 269.346V264.794C355.666 264.794 398.278 222.171 398.278 169.779C398.278 117.388 355.666 74.7644 303.289 74.7644V70.2124C358.176 70.2124 402.829 114.878 402.829 169.779C402.828 224.681 358.175 269.346 303.289 269.346Z" fill="#FFD05E"/>
<path d="M303.289 183.745V173.503C305.341 173.503 307.012 171.832 307.012 169.779C307.012 167.726 305.341 166.055 303.289 166.055V155.813C310.988 155.813 317.251 162.078 317.251 169.779C317.251 177.48 310.987 183.745 303.289 183.745Z" fill="#FFB91A"/>
<path d="M303.289 180.9V176.348C306.91 176.348 309.856 173.401 309.856 169.779C309.856 166.157 306.91 163.211 303.289 163.211V158.659C309.419 158.659 314.407 163.648 314.407 169.779C314.407 175.911 309.419 180.9 303.289 180.9Z" fill="#FFD05E"/>
<path d="M303.289 201.434V191.192C315.094 191.192 324.696 181.586 324.696 169.779C324.696 157.972 315.093 148.367 303.289 148.367V138.125C320.739 138.125 334.935 152.324 334.935 169.779C334.935 187.234 320.739 201.434 303.289 201.434Z" fill="#FFB91A"/>
<path d="M303.289 198.589V194.037C316.661 194.037 327.54 183.154 327.54 169.779C327.54 156.404 316.66 145.522 303.289 145.522V140.97C319.171 140.97 332.091 153.893 332.091 169.779C332.091 185.666 319.17 198.589 303.289 198.589Z" fill="#FFD05E"/>
<path d="M303.289 219.123V208.881C324.844 208.881 342.38 191.34 342.38 169.779C342.38 148.219 324.844 130.678 303.289 130.678V120.436C330.49 120.436 352.619 142.571 352.619 169.779C352.619 196.988 330.49 219.123 303.289 219.123Z" fill="#FFB91A"/>
<path d="M303.289 216.278V211.726C326.413 211.726 345.224 192.908 345.224 169.779C345.224 146.651 326.412 127.833 303.289 127.833V123.281C328.921 123.281 349.775 144.14 349.775 169.779C349.775 195.419 328.921 216.278 303.289 216.278Z" fill="#FFD05E"/>
<path d="M303.289 236.812V226.57C334.595 226.57 360.064 201.094 360.064 169.779C360.064 138.465 334.595 112.989 303.289 112.989V102.747C340.241 102.747 370.304 132.817 370.304 169.779C370.304 206.742 340.241 236.812 303.289 236.812Z" fill="#FFB91A"/>
<path d="M303.289 233.967V229.415C336.164 229.415 362.909 202.663 362.909 169.78C362.909 136.896 336.164 110.144 303.289 110.144V105.592C338.674 105.592 367.459 134.387 367.459 169.78C367.459 205.172 338.672 233.967 303.289 233.967Z" fill="#FFD05E"/>
<path d="M303.289 254.502V244.26C344.346 244.26 377.75 210.848 377.75 169.779C377.75 128.71 344.347 95.2982 303.289 95.2982V85.0562C349.992 85.0562 387.989 123.062 387.989 169.779C387.989 216.496 349.992 254.502 303.289 254.502Z" fill="#FFB91A"/>
<path d="M303.289 251.657V247.105C345.915 247.105 380.594 212.418 380.594 169.779C380.594 127.141 345.916 92.4534 303.289 92.4534V87.9014C348.425 87.9014 385.145 124.631 385.145 169.779C385.144 214.927 348.425 251.657 303.289 251.657Z" fill="#FFD05E"/>
<path d="M303.289 178.624H38.5488V267.07H303.289V178.624Z" fill="#FEEE99"/>
<path d="M303.288 173.503H38.5488V183.745H303.288V173.503Z" fill="#FFB91A"/>
<path d="M303.288 176.348H38.5488V180.9H303.288V176.348Z" fill="#FFD05E"/>
<path d="M303.288 191.192H38.5488V201.434H303.288V191.192Z" fill="#FFB91A"/>
<path d="M303.288 194.037H38.5488V198.589H303.288V194.037Z" fill="#FFD05E"/>
<path d="M303.288 208.881H38.5488V219.123H303.288V208.881Z" fill="#FFB91A"/>
<path d="M303.288 211.726H38.5488V216.278H303.288V211.726Z" fill="#FFD05E"/>
<path d="M303.288 226.57H38.5488V236.812H303.288V226.57Z" fill="#FFB91A"/>
<path d="M303.288 229.416H38.5488V233.968H303.288V229.416Z" fill="#FFD05E"/>
<path d="M303.288 244.26H38.5488V254.502H303.288V244.26Z" fill="#FFB91A"/>
<path d="M303.288 247.105H38.5488V251.657H303.288V247.105Z" fill="#FFD05E"/>
<path d="M303.288 261.949H38.5488V272.191H303.288V261.949Z" fill="#FFB91A"/>
<path d="M303.288 264.794H38.5488V269.346H303.288V264.794Z" fill="#FFD05E"/>
<path d="M144.375 407.793H47.1104V496.239H144.375V407.793Z" fill="#FEEE99"/>
<path d="M144.375 491.119H47.1104V501.361H144.375V491.119Z" fill="#FFB91A"/>
<path d="M144.375 493.964H47.1104V498.516H144.375V493.964Z" fill="#FFD05E"/>
<path d="M144.375 473.43H47.1104V483.672H144.375V473.43Z" fill="#FFB91A"/>
<path d="M144.375 476.275H47.1104V480.827H144.375V476.275Z" fill="#FFD05E"/>
<path d="M144.375 455.74H47.1104V465.982H144.375V455.74Z" fill="#FFB91A"/>
<path d="M144.375 458.585H47.1104V463.137H144.375V458.585Z" fill="#FFD05E"/>
<path d="M144.375 438.05H47.1104V448.292H144.375V438.05Z" fill="#FFB91A"/>
<path d="M144.375 440.896H47.1104V445.448H144.375V440.896Z" fill="#FFD05E"/>
<path d="M144.375 420.361H47.1104V430.603H144.375V420.361Z" fill="#FFB91A"/>
<path d="M144.375 423.207H47.1104V427.759H144.375V423.207Z" fill="#FFD05E"/>
<path d="M144.375 402.672H47.1104V412.914H144.375V402.672Z" fill="#FFB91A"/>
<path d="M144.375 405.518H47.1104V410.07H144.375V405.518Z" fill="#FFD05E"/>
<path d="M153.217 505.083C153.217 509.968 149.258 513.928 144.375 513.928V602.375C198.092 602.375 241.64 558.816 241.64 505.083H153.217Z" fill="#FEEE99"/>
<path d="M144.375 513.928C139.492 513.928 135.533 509.968 135.533 505.083H47.1104C47.1104 558.815 90.6567 602.375 144.375 602.375V513.928Z" fill="#FEEE99"/>
<path d="M153.217 505.083C153.217 500.199 149.258 496.239 144.375 496.239V407.793C198.092 407.793 241.64 451.352 241.64 505.083H153.217Z" fill="#FEEE99"/>
<path d="M144.376 607.495C87.921 607.495 41.9912 561.553 41.9912 505.083H52.2304C52.2304 555.906 93.5662 597.253 144.376 597.253C195.185 597.253 236.521 555.906 236.521 505.083C236.521 454.261 195.185 412.914 144.376 412.914V402.672C200.83 402.672 246.76 448.613 246.76 505.083C246.76 561.553 200.83 607.495 144.376 607.495Z" fill="#FFB91A"/>
<path d="M144.375 604.651C89.4882 604.651 44.835 559.985 44.835 505.083H49.3857C49.3857 557.475 91.998 600.099 144.375 600.099C196.752 600.099 239.364 557.475 239.364 505.083C239.364 452.692 196.752 410.07 144.375 410.07V405.518C199.262 405.518 243.915 450.183 243.915 505.083C243.915 559.985 199.262 604.651 144.375 604.651Z" fill="#FFD05E"/>
<path d="M144.376 519.049C136.677 519.049 130.414 512.783 130.414 505.083H140.653C140.653 507.137 142.323 508.807 144.376 508.807C146.428 508.807 148.1 507.136 148.1 505.083C148.1 503.03 146.429 501.36 144.376 501.36V491.118C152.075 491.118 158.339 497.382 158.339 505.083C158.339 512.784 152.075 519.049 144.376 519.049Z" fill="#FFB91A"/>
<path d="M144.375 516.204C138.245 516.204 133.258 511.215 133.258 505.083H137.809C137.809 508.706 140.754 511.652 144.375 511.652C147.997 511.652 150.943 508.705 150.943 505.083C150.943 501.461 147.998 498.515 144.375 498.515V493.963C150.506 493.963 155.494 498.952 155.494 505.083C155.494 511.216 150.506 516.204 144.375 516.204Z" fill="#FFD05E"/>
<path d="M144.376 536.738C126.926 536.738 112.729 522.538 112.729 505.083H122.969C122.969 516.89 132.572 526.496 144.376 526.496C156.18 526.496 165.782 516.89 165.782 505.083C165.782 493.276 156.179 483.672 144.376 483.672V473.43C161.825 473.43 176.022 487.63 176.022 505.083C176.022 522.538 161.825 536.738 144.376 536.738Z" fill="#FFB91A"/>
<path d="M144.375 533.893C128.494 533.893 115.573 520.97 115.573 505.083H120.124C120.124 518.459 131.004 529.341 144.375 529.341C157.747 529.341 168.626 518.458 168.626 505.083C168.626 491.708 157.746 480.827 144.375 480.827V476.275C160.257 476.275 173.177 489.198 173.177 505.083C173.177 520.97 160.257 533.893 144.375 533.893Z" fill="#FFD05E"/>
<path d="M144.375 554.427C117.175 554.427 95.0449 532.292 95.0449 505.083H105.284C105.285 526.644 122.822 544.185 144.375 544.185C165.93 544.185 183.466 526.644 183.466 505.083C183.466 483.523 165.93 465.982 144.375 465.982V455.74C171.576 455.74 193.706 477.875 193.706 505.083C193.706 532.292 171.576 554.427 144.375 554.427Z" fill="#FFB91A"/>
<path d="M144.375 551.582C118.743 551.582 97.8887 530.723 97.8887 505.084H102.439C102.441 528.214 121.252 547.03 144.375 547.03C167.498 547.03 186.31 528.214 186.31 505.084C186.31 481.954 167.497 463.137 144.375 463.137V458.585C170.007 458.585 190.861 479.445 190.861 505.084C190.861 530.723 170.007 551.582 144.375 551.582Z" fill="#FFD05E"/>
<path d="M144.376 572.116C107.424 572.116 77.3613 542.044 77.3613 505.083H87.6006C87.6006 536.399 113.07 561.874 144.376 561.874C175.683 561.874 201.152 536.397 201.152 505.083C201.152 473.768 175.683 448.292 144.376 448.292V438.05C181.328 438.05 211.392 468.122 211.392 505.083C211.392 542.044 181.328 572.116 144.376 572.116Z" fill="#FFB91A"/>
<path d="M144.375 569.271C108.992 569.271 80.2051 540.476 80.2051 505.083H84.7558C84.7558 537.966 111.501 564.719 144.375 564.719C177.25 564.719 203.996 537.966 203.996 505.083C203.996 472.2 177.25 445.448 144.375 445.448V440.896C179.76 440.896 208.547 469.69 208.547 505.083C208.547 540.476 179.76 569.271 144.375 569.271Z" fill="#FFD05E"/>
<path d="M144.376 589.806C97.6723 589.806 59.6768 551.8 59.6768 505.083H69.916C69.916 546.152 103.319 579.564 144.376 579.564C185.433 579.564 218.837 546.152 218.837 505.083C218.837 464.015 185.434 430.603 144.376 430.603V420.361C191.079 420.361 229.076 458.367 229.076 505.083C229.076 551.8 191.079 589.806 144.376 589.806Z" fill="#FFB91A"/>
<path d="M144.375 586.961C99.2407 586.961 62.5205 550.231 62.5205 505.083H67.0713C67.0713 547.722 101.749 582.409 144.375 582.409C187.001 582.409 221.68 547.722 221.68 505.083C221.68 462.446 187.001 427.759 144.375 427.759V423.207C189.511 423.207 226.231 459.936 226.231 505.083C226.231 550.231 189.511 586.961 144.375 586.961Z" fill="#FFD05E"/>
<path d="M135.535 249.38H47.1123V505.083H135.535V249.38Z" fill="#FEEE99"/>
<path d="M140.653 264.866H130.414V505.083H140.653V264.866Z" fill="#FFB91A"/>
<path d="M137.809 264.866H133.258V505.083H137.809V264.866Z" fill="#FFD05E"/>
<path d="M122.969 249.381H112.729V505.083H122.969V249.381Z" fill="#FFB91A"/>
<path d="M120.124 249.381H115.573V505.083H120.124V249.381Z" fill="#FFD05E"/>
<path d="M105.284 249.381H95.0449V505.083H105.284V249.381Z" fill="#FFB91A"/>
<path d="M102.439 249.381H97.8887V505.083H102.439V249.381Z" fill="#FFD05E"/>
<path d="M87.6006 249.381H77.3613V505.083H87.6006V249.381Z" fill="#FFB91A"/>
<path d="M84.7558 249.381H80.2051V505.083H84.7558V249.381Z" fill="#FFD05E"/>
<path d="M69.916 249.381H59.6768V505.083H69.916V249.381Z" fill="#FFB91A"/>
<path d="M67.0713 249.381H62.5205V505.083H67.0713V249.381Z" fill="#FFD05E"/>
<path d="M52.2304 249.381H41.9912V505.083H52.2304V249.381Z" fill="#FFB91A"/>
<path d="M49.3857 249.381H44.835V505.083H49.3857V249.381Z" fill="#FFD05E"/>
<path d="M47.112 373.205H-41.3105V638.017H47.112V373.205Z" fill="#FEEE99"/>
<path d="M52.2314 373.205H41.9922V638.015H52.2314V373.205Z" fill="#FFB91A"/>
<path d="M49.3867 373.205H44.8359V638.015H49.3867V373.205Z" fill="#FFD05E"/>
<path d="M34.5468 373.205H24.3076V638.015H34.5468V373.205Z" fill="#FFB91A"/>
<path d="M31.7021 373.205H27.1514V638.015H31.7021V373.205Z" fill="#FFD05E"/>
<path d="M16.8623 373.205H6.62305V638.015H16.8623V373.205Z" fill="#FFB91A"/>
<path d="M14.0176 373.205H9.4668V638.015H14.0176V373.205Z" fill="#FFD05E"/>
<path d="M303.483 72.4883H124.561V160.935H303.483V72.4883Z" fill="#FEEE99"/>
<path d="M303.484 67.3672H124.561V77.6092H303.484V67.3672Z" fill="#FFB91A"/>
<path d="M303.484 70.2124H124.561V74.7644H303.484V70.2124Z" fill="#FFD05E"/>
<path d="M303.484 85.0562H124.561V95.2982H303.484V85.0562Z" fill="#FFB91A"/>
<path d="M303.484 87.9014H124.561V92.4534H303.484V87.9014Z" fill="#FFD05E"/>
<path d="M303.484 102.747H124.561V112.989H303.484V102.747Z" fill="#FFB91A"/>
<path d="M303.484 105.592H124.561V110.144H303.484V105.592Z" fill="#FFD05E"/>
<path d="M303.484 120.436H124.561V130.678H303.484V120.436Z" fill="#FFB91A"/>
<path d="M303.484 123.281H124.561V127.833H303.484V123.281Z" fill="#FFD05E"/>
<path d="M303.484 138.125H124.561V148.367H303.484V138.125Z" fill="#FFB91A"/>
<path d="M303.484 140.97H124.561V145.522H303.484V140.97Z" fill="#FFD05E"/>
<path d="M303.484 155.813H124.561V166.055H303.484V155.813Z" fill="#FFB91A"/>
<path d="M303.484 158.659H124.561V163.211H303.484V158.659Z" fill="#FFD05E"/>
<path d="M-50.1528 254.502C-106.607 254.502 -152.537 208.56 -152.537 152.09C-152.537 95.6204 -106.607 49.6782 -50.1528 49.6782C6.3018 49.6782 52.2316 95.6204 52.2316 152.09H41.9923C41.9923 101.267 0.65657 59.9202 -50.1528 59.9202C-100.962 59.9202 -142.298 101.267 -142.298 152.09C-142.298 202.913 -100.962 244.26 -50.1528 244.26V254.502Z" fill="#FFB91A"/>
<path d="M-50.1533 251.658C-105.04 251.658 -149.693 206.992 -149.693 152.09C-149.693 97.1888 -105.04 52.5234 -50.1533 52.5234C4.73358 52.5234 49.3869 97.1888 49.3869 152.09H44.8361C44.8361 99.6992 2.22383 57.0754 -50.1533 57.0754C-102.53 57.0754 -145.143 99.6992 -145.143 152.09C-145.143 204.482 -102.53 247.105 -50.1533 247.105V251.658Z" fill="#FFD05E"/>
<path d="M-50.1524 219.123C-87.1046 219.123 -117.167 189.052 -117.167 152.09C-117.167 115.128 -87.1046 85.0562 -50.1524 85.0562C-13.2001 85.0562 16.8634 115.128 16.8634 152.09H6.62418C6.62418 120.775 -18.8453 95.2982 -50.1524 95.2982C-81.4582 95.2982 -106.928 120.775 -106.928 152.09C-106.928 183.404 -81.4582 208.881 -50.1524 208.881V219.123Z" fill="#FFB91A"/>
<path d="M-50.1528 216.278C-85.5373 216.278 -114.323 187.483 -114.323 152.09C-114.323 116.696 -85.5362 87.9014 -50.1528 87.9014C-14.7695 87.9014 14.0187 116.696 14.0187 152.09H9.46793C9.46793 119.207 -17.2781 92.4534 -50.1528 92.4534C-83.0276 92.4534 -109.772 119.207 -109.772 152.09C-109.772 184.974 -83.0276 211.726 -50.1528 211.726V216.278Z" fill="#FFD05E"/>
<path d="M-50.1526 236.812C-96.8561 236.812 -134.852 198.806 -134.852 152.09C-134.852 105.374 -96.8561 67.3672 -50.1526 67.3672C-3.44923 67.3672 34.5474 105.374 34.5474 152.09H24.3082C24.3082 111.022 -9.09447 77.6092 -50.1526 77.6092C-91.2108 77.6092 -124.612 111.021 -124.612 152.09C-124.612 193.159 -91.2097 226.57 -50.1526 226.57V236.812Z" fill="#FFB91A"/>
<path d="M-50.1531 233.967C-95.2877 233.967 -132.008 197.237 -132.008 152.09C-132.008 106.942 -95.2877 70.2124 -50.1531 70.2124C-5.01746 70.2124 31.7027 106.942 31.7027 152.09H27.1519C27.1519 109.453 -7.52607 74.7644 -50.1531 74.7644C-92.779 74.7644 -127.457 109.453 -127.457 152.09C-127.457 194.728 -92.779 229.415 -50.1531 229.415V233.967Z" fill="#FFD05E"/>
<path d="M138.548 258.225C138.548 263.109 134.589 267.069 129.706 267.069V355.516C183.423 355.516 226.971 311.958 226.971 258.225H138.548Z" fill="#FEEE99"/>
<path d="M138.548 258.225C138.548 253.34 134.589 249.38 129.706 249.38V160.934C183.423 160.934 226.971 204.492 226.971 258.225H138.548Z" fill="#FEEE99"/>
<path d="M129.705 360.637V350.395C180.514 350.395 221.85 309.048 221.85 258.225C221.85 207.401 180.514 166.055 129.705 166.055V155.812C186.16 155.812 232.089 201.755 232.089 258.225C232.089 314.696 186.161 360.637 129.705 360.637Z" fill="#FFB91A"/>
<path d="M129.705 357.792V353.24C182.082 353.24 224.694 310.616 224.694 258.225C224.694 205.834 182.082 163.21 129.705 163.21V158.658C184.592 158.658 229.245 203.323 229.245 258.225C229.245 313.126 184.592 357.792 129.705 357.792Z" fill="#FFD05E"/>
<path d="M129.705 272.191V261.949C131.757 261.949 133.428 260.279 133.428 258.226C133.428 256.173 131.757 254.502 129.705 254.502V244.26C137.404 244.26 143.667 250.525 143.667 258.226C143.667 265.927 137.404 272.191 129.705 272.191Z" fill="#FFB91A"/>
<path d="M129.705 269.347V264.795C133.326 264.795 136.272 261.848 136.272 258.226C136.272 254.604 133.326 251.657 129.705 251.657V247.105C135.835 247.105 140.823 252.094 140.823 258.226C140.823 264.358 135.836 269.347 129.705 269.347Z" fill="#FFD05E"/>
<path d="M129.705 289.879V279.637C141.51 279.637 151.112 270.031 151.112 258.224C151.112 246.417 141.509 236.812 129.705 236.812V226.57C147.155 226.57 161.351 240.771 161.351 258.224C161.351 275.678 147.155 289.879 129.705 289.879Z" fill="#FFB91A"/>
<path d="M129.705 287.034V282.482C143.078 282.482 153.956 271.6 153.956 258.225C153.956 244.849 143.076 233.967 129.705 233.967V229.415C145.587 229.415 158.507 242.339 158.507 258.225C158.508 274.111 145.587 287.034 129.705 287.034Z" fill="#FFD05E"/>
<path d="M129.705 307.569V297.327C151.26 297.327 168.796 279.786 168.796 258.226C168.796 236.665 151.26 219.124 129.705 219.124V208.882C156.906 208.882 179.035 231.017 179.035 258.226C179.037 285.433 156.907 307.569 129.705 307.569Z" fill="#FFB91A"/>
<path d="M129.705 304.724V300.172C152.829 300.172 171.64 281.356 171.64 258.226C171.64 235.096 152.828 216.279 129.705 216.279V211.727C155.337 211.727 176.191 232.587 176.191 258.226C176.191 283.865 155.338 304.724 129.705 304.724Z" fill="#FFD05E"/>
<path d="M129.705 325.259V315.017C161.011 315.017 186.48 289.54 186.48 258.225C186.48 226.91 161.011 201.434 129.705 201.434V191.192C166.657 191.192 196.72 221.262 196.72 258.225C196.72 295.187 166.658 325.259 129.705 325.259Z" fill="#FFB91A"/>
<path d="M129.705 322.414V317.862C162.58 317.862 189.325 291.108 189.325 258.225C189.325 225.341 162.58 198.589 129.705 198.589V194.037C165.09 194.037 193.875 222.832 193.875 258.225C193.877 293.62 165.09 322.414 129.705 322.414Z" fill="#FFD05E"/>
<path d="M129.705 342.947V332.705C170.762 332.705 204.166 299.294 204.166 258.224C204.166 217.155 170.763 183.743 129.705 183.743V173.501C176.408 173.501 214.405 211.507 214.405 258.224C214.405 304.942 176.41 342.947 129.705 342.947Z" fill="#FFB91A"/>
<path d="M129.705 340.103V335.551C172.331 335.551 207.01 300.862 207.01 258.225C207.01 215.587 172.332 180.899 129.705 180.899V176.347C174.841 176.347 211.561 213.077 211.561 258.225C211.561 303.373 174.841 340.103 129.705 340.103Z" fill="#FFD05E"/>
<path d="M129.707 173.503H-50.1523V183.745H129.707V173.503Z" fill="#FFB91A"/>
<path d="M129.707 176.348H-50.1523V180.9H129.707V176.348Z" fill="#FFD05E"/>
<path d="M129.707 155.814H-50.1523V166.056H129.707V155.814Z" fill="#FFB91A"/>
<path d="M129.707 158.659H-50.1523V163.211H129.707V158.659Z" fill="#FFD05E"/>
<path d="M129.707 191.192H-50.1523V201.434H129.707V191.192Z" fill="#FFB91A"/>
<path d="M129.707 194.037H-50.1523V198.589H129.707V194.037Z" fill="#FFD05E"/>
<path d="M129.707 208.881H-50.1523V219.123H129.707V208.881Z" fill="#FFB91A"/>
<path d="M129.707 211.726H-50.1523V216.278H129.707V211.726Z" fill="#FFD05E"/>
<path d="M129.707 226.57H-50.1523V236.812H129.707V226.57Z" fill="#FFB91A"/>
<path d="M129.707 229.416H-50.1523V233.968H129.707V229.416Z" fill="#FFD05E"/>
<path d="M129.707 244.26H-50.1523V254.502H129.707V244.26Z" fill="#FFB91A"/>
<path d="M129.707 247.105H-50.1523V251.657H129.707V247.105Z" fill="#FFD05E"/>
<path d="M47.112 152.09H-41.3105V416.902H47.112V152.09Z" fill="#FEEE99"/>
<path d="M16.8623 152.09H6.62305V416.902H16.8623V152.09Z" fill="#FFB91A"/>
<path d="M14.0176 152.09H9.4668V416.902H14.0176V152.09Z" fill="#FFD05E"/>
<path d="M34.5468 152.09H24.3076V416.902H34.5468V152.09Z" fill="#FFB91A"/>
<path d="M31.7021 152.09H27.1514V416.902H31.7021V152.09Z" fill="#FFD05E"/>
<path d="M52.2314 152.09H41.9922V416.902H52.2314V152.09Z" fill="#FFB91A"/>
<path d="M49.3867 152.09H44.8359V416.902H49.3867V152.09Z" fill="#FFD05E"/>
<path d="M129.706 267.07H-51.0078V355.517H129.706V267.07Z" fill="#FEEE99"/>
<path d="M129.706 261.949H-51.0078V272.191H129.706V261.949Z" fill="#FFB91A"/>
<path d="M129.706 264.794H-51.0078V269.346H129.706V264.794Z" fill="#FFD05E"/>
<path d="M129.706 279.637H-51.0078V289.879H129.706V279.637Z" fill="#FFB91A"/>
<path d="M129.706 282.482H-51.0078V287.034H129.706V282.482Z" fill="#FFD05E"/>
<path d="M129.706 297.327H-51.0078V307.569H129.706V297.327Z" fill="#FFB91A"/>
<path d="M129.706 300.172H-51.0078V304.724H129.706V300.172Z" fill="#FFD05E"/>
<path d="M129.706 315.017H-51.0078V325.259H129.706V315.017Z" fill="#FFB91A"/>
<path d="M129.706 317.862H-51.0078V322.414H129.706V317.862Z" fill="#FFD05E"/>
<path d="M129.706 332.706H-51.0078V342.948H129.706V332.706Z" fill="#FFB91A"/>
<path d="M129.706 335.551H-51.0078V340.103H129.706V335.551Z" fill="#FFD05E"/>
<path d="M129.706 350.395H-51.0078V360.637H129.706V350.395Z" fill="#FFB91A"/>
<path d="M129.706 353.24H-51.0078V357.792H129.706V353.24Z" fill="#FFD05E"/>
<path d="M-41.3102 416.9C-41.3102 421.785 -45.2694 425.745 -50.1523 425.745V514.191C3.56494 514.191 47.1124 470.633 47.1124 416.9H-41.3102Z" fill="#FEEE99"/>
<path d="M-50.1523 519.312V509.07C0.656994 509.07 41.9928 467.723 41.9928 416.901H52.232C52.2309 473.371 6.30223 519.312 -50.1523 519.312Z" fill="#FFB91A"/>
<path d="M-50.1523 516.467V511.915C2.22474 511.915 44.837 469.293 44.837 416.901H49.3878C49.3866 471.802 4.73335 516.467 -50.1523 516.467Z" fill="#FFD05E"/>
<path d="M-50.1523 483.934V473.692C-18.8453 473.692 6.62419 448.216 6.62419 416.901H16.8634C16.8623 453.862 -13.2001 483.934 -50.1523 483.934Z" fill="#FFB91A"/>
<path d="M-50.1523 481.089V476.537C-17.2776 476.537 9.46842 449.784 9.46842 416.901H14.0192C14.0181 452.294 -14.769 481.089 -50.1523 481.089Z" fill="#FFD05E"/>
<path d="M-50.1523 501.623V491.381C-9.0953 491.381 24.3085 457.97 24.3085 416.901H34.5477C34.5466 463.617 -3.44894 501.623 -50.1523 501.623Z" fill="#FFB91A"/>
<path d="M-50.1523 498.778V494.226C-7.52642 494.226 27.1527 459.539 27.1527 416.901H31.7035C31.7023 462.049 -5.01781 498.778 -50.1523 498.778Z" fill="#FFD05E"/>
<path d="M124.56 166.056C68.1056 166.056 22.1758 120.114 22.1758 63.644H32.415C32.415 114.467 73.7508 155.814 124.56 155.814V166.056Z" fill="#FFB91A"/>
<path d="M124.56 163.211C69.6728 163.211 25.0195 118.546 25.0195 63.644H29.5703C29.5703 116.035 72.1826 158.659 124.56 158.659V163.211Z" fill="#FFD05E"/>
<path d="M124.56 77.6096C116.862 77.6096 110.599 71.3449 110.599 63.644H120.838C120.838 65.697 122.508 67.3676 124.56 67.3676V77.6096Z" fill="#FFB91A"/>
<path d="M124.56 74.7646C118.43 74.7646 113.442 69.7756 113.442 63.644H117.993C117.993 67.2663 120.939 70.2126 124.56 70.2126V74.7646Z" fill="#FFD05E"/>
<path d="M124.56 95.2986C107.11 95.2986 92.9141 81.0987 92.9141 63.644H103.153C103.153 75.4508 112.757 85.0566 124.56 85.0566V95.2986Z" fill="#FFB91A"/>
<path d="M124.56 92.4536C108.679 92.4536 95.7578 79.5294 95.7578 63.644H100.309C100.309 77.019 111.188 87.9016 124.56 87.9016V92.4536Z" fill="#FFD05E"/>
<path d="M124.56 112.989C97.3587 112.989 75.2295 90.8535 75.2295 63.645H85.4687C85.4687 85.2056 103.005 102.747 124.56 102.747V112.989Z" fill="#FFB91A"/>
<path d="M124.559 110.144C98.9271 110.144 78.0732 89.2842 78.0732 63.645H82.624C82.624 86.7749 101.436 105.592 124.559 105.592V110.144Z" fill="#FFD05E"/>
<path d="M124.561 130.678C87.6083 130.678 57.5459 100.607 57.5459 63.645H67.7851C67.7851 94.9594 93.2546 120.436 124.561 120.436V130.678Z" fill="#FFB91A"/>
<path d="M124.56 127.833C89.1755 127.833 60.3896 99.038 60.3896 63.645H64.9404C64.9404 96.5287 91.6853 123.281 124.56 123.281V127.833Z" fill="#FFD05E"/>
<path d="M124.56 148.367C77.8568 148.367 39.8613 110.361 39.8613 63.644H50.1006C50.1006 104.712 83.5032 138.125 124.56 138.125V148.367Z" fill="#FFB91A"/>
<path d="M124.56 145.522C79.4252 145.522 42.7051 108.792 42.7051 63.644H47.2558C47.2558 106.281 81.9338 140.97 124.56 140.97V145.522Z" fill="#FFD05E"/>
<path d="M115.718 -201.167H27.2949V63.645H115.718V-201.167Z" fill="#FEEE99"/>
<path d="M120.838 -201.167H110.599V63.645H120.838V-201.167Z" fill="#FFB91A"/>
<path d="M117.993 -201.167H113.442V63.645H117.993V-201.167Z" fill="#FFD05E"/>
<path d="M103.153 -201.167H92.9141V63.645H103.153V-201.167Z" fill="#FFB91A"/>
<path d="M100.309 -201.167H95.7578V63.645H100.309V-201.167Z" fill="#FFD05E"/>
<path d="M85.4687 -201.167H75.2295V63.645H85.4687V-201.167Z" fill="#FFB91A"/>
<path d="M82.624 -201.167H78.0732V63.645H82.624V-201.167Z" fill="#FFD05E"/>
<path d="M67.7832 -201.167H57.5439V63.645H67.7832V-201.167Z" fill="#FFB91A"/>
<path d="M64.9385 -201.167H60.3877V63.645H64.9385V-201.167Z" fill="#FFD05E"/>
<path d="M50.0996 -201.167H39.8604V63.645H50.0996V-201.167Z" fill="#FFB91A"/>
<path d="M47.2549 -201.167H42.7041V63.645H47.2549V-201.167Z" fill="#FFD05E"/>
<path d="M32.415 -201.167H22.1758V63.645H32.415V-201.167Z" fill="#FFB91A"/>
<path d="M29.5703 -201.167H25.0195V63.645H29.5703V-201.167Z" fill="#FFD05E"/>
<path d="M1451.14 -69.0166H1362.71V195.795H1451.14V-69.0166Z" fill="#FEEE99"/>
<path d="M1367.83 -69.0166H1357.59V195.795H1367.83V-69.0166Z" fill="#FFB91A"/>
<path d="M1364.99 -69.0166H1360.44V195.795H1364.99V-69.0166Z" fill="#FFD05E"/>
<path d="M1385.52 -69.0166H1375.28V195.795H1385.52V-69.0166Z" fill="#FFB91A"/>
<path d="M1382.67 -69.0166H1378.12V195.795H1382.67V-69.0166Z" fill="#FFD05E"/>
<path d="M1403.2 -69.0166H1392.96V195.795H1403.2V-69.0166Z" fill="#FFB91A"/>
<path d="M1400.36 -69.0166H1395.81V195.795H1400.36V-69.0166Z" fill="#FFD05E"/>
<path d="M1420.89 -69.0166H1410.65V195.795H1420.89V-69.0166Z" fill="#FFB91A"/>
<path d="M1418.04 -69.0166H1413.49V195.795H1418.04V-69.0166Z" fill="#FFD05E"/>
<path d="M1438.57 -69.0166H1428.33V195.795H1438.57V-69.0166Z" fill="#FFB91A"/>
<path d="M1435.73 -69.0166H1431.18V195.795H1435.73V-69.0166Z" fill="#FFD05E"/>
<path d="M963.052 -201.762H874.631V63.0497H963.052V-201.762Z" fill="#FEEE99"/>
<path d="M879.75 -201.762H869.511V63.0497H879.75V-201.762Z" fill="#FFB91A"/>
<path d="M876.905 -201.762H872.354V63.0497H876.905V-201.762Z" fill="#FFD05E"/>
<path d="M897.435 -201.762H887.195V63.0497H897.435V-201.762Z" fill="#FFB91A"/>
<path d="M894.59 -201.762H890.039V63.0497H894.59V-201.762Z" fill="#FFD05E"/>
<path d="M915.117 -201.762H904.878V63.0497H915.117V-201.762Z" fill="#FFB91A"/>
<path d="M912.272 -201.762H907.722V63.0497H912.272V-201.762Z" fill="#FFD05E"/>
<path d="M932.803 -201.762H922.563V63.0497H932.803V-201.762Z" fill="#FFB91A"/>
<path d="M929.958 -201.762H925.407V63.0497H929.958V-201.762Z" fill="#FFD05E"/>
<path d="M950.487 -201.762H940.248V63.0497H950.487V-201.762Z" fill="#FFB91A"/>
<path d="M947.643 -201.762H943.092V63.0497H947.643V-201.762Z" fill="#FFD05E"/>
<path d="M968.172 -201.762H957.933V63.0497H968.172V-201.762Z" fill="#FFB91A"/>
<path d="M965.327 -201.762H960.776V63.0497H965.327V-201.762Z" fill="#FFD05E"/>
<path d="M1201 59.6048V49.3628C1251.81 49.3628 1293.15 8.01587 1293.15 -42.8072C1293.15 -93.6303 1251.81 -134.977 1201 -134.977C1150.19 -134.977 1108.86 -93.6303 1108.86 -42.8072H1098.62C1098.62 -99.277 1144.55 -145.219 1201 -145.219C1257.46 -145.219 1303.39 -99.277 1303.39 -42.8072C1303.39 13.6638 1257.46 59.6048 1201 59.6048Z" fill="#FFB91A"/>
<path d="M1201 56.76V52.208C1253.38 52.208 1295.99 9.58424 1295.99 -42.807C1295.99 -95.1982 1253.38 -137.822 1201 -137.822C1148.62 -137.822 1106.01 -95.1982 1106.01 -42.807H1101.46C1101.46 -97.7087 1146.12 -142.374 1201 -142.374C1255.89 -142.374 1300.54 -97.7087 1300.54 -42.807C1300.54 12.0947 1255.89 56.76 1201 56.76Z" fill="#FFD05E"/>
<path d="M1201 6.53746V-3.70454C1222.56 -3.70454 1240.09 -21.2457 1240.09 -42.8062C1240.09 -64.3668 1222.56 -81.9079 1201 -81.9079C1179.45 -81.9079 1161.91 -64.3668 1161.91 -42.8062H1151.67C1151.67 -70.0147 1173.8 -92.1499 1201 -92.1499C1228.2 -92.1499 1250.33 -70.0147 1250.33 -42.8062C1250.33 -15.5978 1228.2 6.53746 1201 6.53746Z" fill="#FFB91A"/>
<path d="M1201 3.69267V-0.859322C1224.12 -0.859322 1242.94 -19.6773 1242.94 -42.806C1242.94 -65.9347 1224.12 -84.7527 1201 -84.7527C1177.88 -84.7527 1159.07 -65.9347 1159.07 -42.806H1154.51C1154.51 -68.4452 1175.37 -89.3047 1201 -89.3047C1226.63 -89.3047 1247.49 -68.4452 1247.49 -42.806C1247.49 -17.1669 1226.63 3.69267 1201 3.69267Z" fill="#FFD05E"/>
<path d="M1201 24.2266V13.9846C1232.31 13.9846 1257.78 -11.4918 1257.78 -42.8061C1257.78 -74.1205 1232.31 -99.5969 1201 -99.5969C1169.7 -99.5969 1144.23 -74.1205 1144.23 -42.8061H1133.99C1133.99 -79.7684 1164.05 -109.839 1201 -109.839C1237.95 -109.839 1268.02 -79.7684 1268.02 -42.8061C1268.02 -5.84388 1237.95 24.2266 1201 24.2266Z" fill="#FFB91A"/>
<path d="M1201 21.3819V16.8298C1233.88 16.8298 1260.62 -9.92226 1260.62 -42.8059C1260.62 -75.6896 1233.87 -102.442 1201 -102.442C1168.13 -102.442 1141.38 -75.6896 1141.38 -42.8059H1136.83C1136.83 -78.2 1165.62 -106.994 1201 -106.994C1236.38 -106.994 1265.17 -78.1988 1265.17 -42.8059C1265.17 -7.41296 1236.38 21.3819 1201 21.3819Z" fill="#FFD05E"/>
<path d="M1201 41.9157V31.6737C1242.06 31.6737 1275.46 -1.73916 1275.46 -42.8073C1275.46 -83.8755 1242.06 -117.288 1201 -117.288C1159.94 -117.288 1126.54 -83.8766 1126.54 -42.8073H1116.3C1116.3 -89.5233 1154.3 -127.53 1201 -127.53C1247.71 -127.53 1285.7 -89.5233 1285.7 -42.8073C1285.7 3.90987 1247.71 41.9157 1201 41.9157Z" fill="#FFB91A"/>
<path d="M1201 39.0709V34.5189C1243.63 34.5189 1278.31 -0.169647 1278.31 -42.8071C1278.31 -85.4445 1243.63 -120.133 1201 -120.133C1158.38 -120.133 1123.7 -85.4445 1123.7 -42.8071H1119.15C1119.15 -87.955 1155.87 -124.685 1201 -124.685C1246.14 -124.685 1282.86 -87.955 1282.86 -42.8071C1282.86 2.34078 1246.14 39.0709 1201 39.0709Z" fill="#FFD05E"/>
<path d="M1201 -33.9614H945.367V54.4851H1201V-33.9614Z" fill="#FEEE99"/>
<path d="M1201 -3.70459H945.367V6.53741H1201V-3.70459Z" fill="#FFB91A"/>
<path d="M1201 -0.859375H945.367V3.69263H1201V-0.859375Z" fill="#FFD05E"/>
<path d="M1201 13.9849H945.367V24.2269H1201V13.9849Z" fill="#FFB91A"/>
<path d="M1201 16.8301H945.367V21.3821H1201V16.8301Z" fill="#FFD05E"/>
<path d="M1201 31.6738H945.367V41.9158H1201V31.6738Z" fill="#FFB91A"/>
<path d="M1201 34.519H945.367V39.071H1201V34.519Z" fill="#FFD05E"/>
<path d="M1201 49.3628H945.367V59.6048H1201V49.3628Z" fill="#FFB91A"/>
<path d="M1201 52.208H945.367V56.76H1201V52.208Z" fill="#FFD05E"/>
<path d="M848.103 254.187C791.648 254.187 745.72 208.245 745.72 151.775C745.72 95.305 791.648 49.3628 848.103 49.3628V59.6048C797.295 59.6048 755.959 100.952 755.959 151.775C755.959 202.598 797.295 243.945 848.103 243.945C898.912 243.945 940.248 202.598 940.248 151.775H950.487C950.487 208.245 904.557 254.187 848.103 254.187Z" fill="#FFB91A"/>
<path d="M848.102 251.342C793.217 251.342 748.563 206.677 748.563 151.775C748.563 96.8734 793.217 52.208 848.102 52.208V56.76C795.725 56.76 753.114 99.3838 753.114 151.775C753.114 204.166 795.725 246.79 848.102 246.79C900.479 246.79 943.092 204.166 943.092 151.775H947.643C947.643 206.677 902.989 251.342 848.102 251.342Z" fill="#FFD05E"/>
<path d="M848.103 165.74C840.404 165.74 834.143 159.475 834.143 151.775C834.143 144.074 840.406 137.809 848.103 137.809V148.051C846.051 148.051 844.382 149.722 844.382 151.775C844.382 153.828 846.052 155.498 848.103 155.498C850.157 155.498 851.826 153.828 851.826 151.775H862.065C862.066 159.475 855.802 165.74 848.103 165.74Z" fill="#FFB91A"/>
<path d="M848.103 162.895C841.973 162.895 836.986 157.906 836.986 151.775C836.986 145.643 841.974 140.654 848.103 140.654V145.206C844.481 145.206 841.537 148.153 841.537 151.775C841.537 155.397 844.483 158.343 848.103 158.343C851.724 158.343 854.67 155.397 854.67 151.775H859.22C859.221 157.906 854.234 162.895 848.103 162.895Z" fill="#FFD05E"/>
<path d="M848.103 183.429C830.653 183.429 816.458 169.229 816.458 151.775C816.458 134.32 830.654 120.12 848.103 120.12V130.362C836.299 130.362 826.697 139.968 826.697 151.775C826.697 163.581 836.299 173.187 848.103 173.187C859.906 173.187 869.51 163.581 869.51 151.775H879.749C879.75 169.229 865.553 183.429 848.103 183.429Z" fill="#FFB91A"/>
<path d="M848.102 180.585C832.221 180.585 819.302 167.661 819.302 151.775C819.302 135.888 832.223 122.965 848.102 122.965V127.517C834.731 127.517 823.853 138.4 823.853 151.775C823.853 165.15 834.732 176.033 848.102 176.033C861.475 176.033 872.354 165.15 872.354 151.775H876.904C876.905 167.661 863.985 180.585 848.102 180.585Z" fill="#FFD05E"/>
<path d="M848.103 201.119C820.902 201.119 798.772 178.983 798.772 151.775C798.772 124.566 820.902 102.431 848.103 102.431V112.673C826.548 112.673 809.012 130.214 809.012 151.775C809.012 173.335 826.548 190.877 848.103 190.877C869.658 190.877 887.194 173.335 887.194 151.775H897.433C897.434 178.983 875.304 201.119 848.103 201.119Z" fill="#FFB91A"/>
<path d="M848.102 198.274C822.47 198.274 801.616 177.414 801.616 151.775C801.616 126.136 822.47 105.276 848.102 105.276V109.828C824.979 109.828 806.167 128.646 806.167 151.775C806.167 174.904 824.979 193.722 848.102 193.722C871.226 193.722 890.038 174.904 890.038 151.775H894.588C894.59 177.414 873.735 198.274 848.102 198.274Z" fill="#FFD05E"/>
<path d="M848.103 218.808C811.151 218.808 781.088 188.737 781.088 151.775C781.088 114.813 811.151 84.7422 848.103 84.7422V94.9842C816.795 94.9842 791.327 120.461 791.327 151.775C791.327 183.089 816.797 208.566 848.103 208.566C879.41 208.566 904.878 183.089 904.878 151.775H915.117C915.117 188.737 885.055 218.808 848.103 218.808Z" fill="#FFB91A"/>
<path d="M848.102 215.963C812.718 215.963 783.932 187.168 783.932 151.775C783.932 116.381 812.719 87.5874 848.102 87.5874V92.1394C815.227 92.1394 788.482 118.891 788.482 151.775C788.482 184.659 815.228 211.411 848.102 211.411C880.977 211.411 907.722 184.659 907.722 151.775H912.272C912.272 187.169 883.487 215.963 848.102 215.963Z" fill="#FFD05E"/>
<path d="M848.103 236.498C801.4 236.498 763.404 198.492 763.404 151.775C763.404 105.058 801.4 67.0518 848.103 67.0518V77.2938C807.046 77.2938 773.644 110.705 773.644 151.775C773.644 192.844 807.046 226.256 848.103 226.256C889.161 226.256 922.564 192.844 922.564 151.775H932.803C932.803 198.491 894.808 236.498 848.103 236.498Z" fill="#FFB91A"/>
<path d="M848.103 233.653C802.967 233.653 766.248 196.923 766.248 151.775C766.248 106.627 802.967 69.897 848.103 69.897V74.449C805.477 74.449 770.799 109.136 770.799 151.775C770.799 194.414 805.477 229.101 848.103 229.101C890.73 229.101 925.408 194.414 925.408 151.775H929.959C929.959 196.923 893.238 233.653 848.103 233.653Z" fill="#FFD05E"/>
<path d="M879.75 -28.1328H869.511V151.775H879.75V-28.1328Z" fill="#FFB91A"/>
<path d="M876.905 -28.1328H872.354V151.775H876.905V-28.1328Z" fill="#FFD05E"/>
<path d="M862.065 -28.1328H851.826V151.775H862.065V-28.1328Z" fill="#FFB91A"/>
<path d="M859.221 -28.1328H854.67V151.775H859.221V-28.1328Z" fill="#FFD05E"/>
<path d="M897.435 -28.1328H887.195V151.775H897.435V-28.1328Z" fill="#FFB91A"/>
<path d="M894.59 -28.1328H890.039V151.775H894.59V-28.1328Z" fill="#FFD05E"/>
<path d="M915.117 -28.1328H904.878V151.775H915.117V-28.1328Z" fill="#FFB91A"/>
<path d="M912.272 -28.1328H907.722V151.775H912.272V-28.1328Z" fill="#FFD05E"/>
<path d="M932.803 -28.1328H922.563V151.775H932.803V-28.1328Z" fill="#FFB91A"/>
<path d="M929.958 -28.1328H925.407V151.775H929.958V-28.1328Z" fill="#FFD05E"/>
<path d="M950.487 -28.1328H940.248V151.775H950.487V-28.1328Z" fill="#FFB91A"/>
<path d="M947.643 -28.1328H943.092V151.775H947.643V-28.1328Z" fill="#FFD05E"/>
<path d="M1112.84 54.4839H848.103V142.93H1112.84V54.4839Z" fill="#FEEE99"/>
<path d="M1112.84 137.809H848.103V148.051H1112.84V137.809Z" fill="#FFB91A"/>
<path d="M1112.84 140.654H848.103V145.206H1112.84V140.654Z" fill="#FFD05E"/>
<path d="M1112.84 120.12H848.103V130.362H1112.84V120.12Z" fill="#FFB91A"/>
<path d="M1112.84 122.965H848.103V127.517H1112.84V122.965Z" fill="#FFD05E"/>
<path d="M1112.84 102.431H848.103V112.673H1112.84V102.431Z" fill="#FFB91A"/>
<path d="M1112.84 105.276H848.103V109.828H1112.84V105.276Z" fill="#FFD05E"/>
<path d="M1112.84 84.7422H848.103V94.9842H1112.84V84.7422Z" fill="#FFB91A"/>
<path d="M1112.84 87.5874H848.103V92.1394H1112.84V87.5874Z" fill="#FFD05E"/>
<path d="M1112.84 67.0518H848.103V77.2938H1112.84V67.0518Z" fill="#FFB91A"/>
<path d="M1112.84 69.897H848.103V74.449H1112.84V69.897Z" fill="#FFD05E"/>
<path d="M1112.84 49.3628H848.103V59.6048H1112.84V49.3628Z" fill="#FFB91A"/>
<path d="M1112.84 52.208H848.103V56.76H1112.84V52.208Z" fill="#FFD05E"/>
<path d="M1051.47 -28.1328H963.052V152.629H1051.47V-28.1328Z" fill="#FEEE99"/>
<path d="M968.172 -28.1328H957.933V152.629H968.172V-28.1328Z" fill="#FFB91A"/>
<path d="M965.327 -28.1328H960.776V152.629H965.327V-28.1328Z" fill="#FFD05E"/>
<path d="M985.856 -28.1328H975.617V152.629H985.856V-28.1328Z" fill="#FFB91A"/>
<path d="M983.012 -28.1328H978.461V152.629H983.012V-28.1328Z" fill="#FFD05E"/>
<path d="M1003.54 -28.1328H993.301V152.629H1003.54V-28.1328Z" fill="#FFB91A"/>
<path d="M1000.7 -28.1328H996.145V152.629H1000.7V-28.1328Z" fill="#FFD05E"/>
<path d="M1021.22 -28.1328H1010.99V152.629H1021.22V-28.1328Z" fill="#FFB91A"/>
<path d="M1018.38 -28.1328H1013.83V152.629H1018.38V-28.1328Z" fill="#FFD05E"/>
<path d="M1038.91 -28.1328H1028.67V152.629H1038.91V-28.1328Z" fill="#FFB91A"/>
<path d="M1036.07 -28.1328H1031.51V152.629H1036.07V-28.1328Z" fill="#FFD05E"/>
<path d="M1056.59 -28.1328H1046.36V152.629H1056.59V-28.1328Z" fill="#FFB91A"/>
<path d="M1053.75 -28.1328H1049.2V152.629H1053.75V-28.1328Z" fill="#FFD05E"/>
<path d="M1060.32 161.475C1055.43 161.475 1051.47 157.515 1051.47 152.63H963.052C963.052 206.362 1006.6 249.921 1060.32 249.921V161.475Z" fill="#FEEE99"/>
<path d="M1060.32 255.041C1003.86 255.041 957.933 209.099 957.933 152.629H968.172C968.172 203.452 1009.51 244.799 1060.32 244.799V255.041Z" fill="#FFB91A"/>
<path d="M1060.32 252.196C1005.43 252.196 960.776 207.531 960.776 152.629H965.327C965.327 205.021 1007.94 247.644 1060.32 247.644V252.196Z" fill="#FFD05E"/>
<path d="M1060.32 166.596C1052.62 166.596 1046.36 160.331 1046.36 152.63H1056.59C1056.59 154.683 1058.26 156.354 1060.32 156.354V166.596Z" fill="#FFB91A"/>
<path d="M1060.32 163.751C1054.19 163.751 1049.2 158.762 1049.2 152.63H1053.75C1053.75 156.253 1056.7 159.199 1060.32 159.199V163.751Z" fill="#FFD05E"/>
<path d="M1060.32 184.285C1042.87 184.285 1028.67 170.084 1028.67 152.63H1038.91C1038.91 164.438 1048.51 174.043 1060.32 174.043V184.285Z" fill="#FFB91A"/>
<path d="M1060.32 181.44C1044.43 181.44 1031.51 168.516 1031.51 152.63H1036.07C1036.07 166.006 1046.94 176.888 1060.32 176.888V181.44Z" fill="#FFD05E"/>
<path d="M1060.32 201.974C1033.12 201.974 1010.99 179.839 1010.99 152.63H1021.23C1021.23 174.191 1038.76 191.732 1060.32 191.732V201.974Z" fill="#FFB91A"/>
<path d="M1060.32 199.129C1034.68 199.129 1013.83 178.27 1013.83 152.63H1018.38C1018.38 175.76 1037.19 194.577 1060.32 194.577V199.129Z" fill="#FFD05E"/>
<path d="M1060.32 219.663C1023.36 219.663 993.301 189.592 993.301 152.629H1003.54C1003.54 183.945 1029.01 209.421 1060.32 209.421V219.663Z" fill="#FFB91A"/>
<path d="M1060.31 216.818C1024.93 216.818 996.145 188.023 996.145 152.629H1000.7C1000.7 185.513 1027.44 212.266 1060.31 212.266V216.818Z" fill="#FFD05E"/>
<path d="M1060.32 237.352C1013.61 237.352 975.617 199.347 975.617 152.629H985.856C985.856 193.698 1019.26 227.11 1060.32 227.11V237.352Z" fill="#FFB91A"/>
<path d="M1060.32 234.507C1015.18 234.507 978.461 197.777 978.461 152.629H983.012C983.012 195.267 1017.69 229.955 1060.32 229.955V234.507Z" fill="#FFD05E"/>
<path d="M1325.06 161.475H1060.32V249.922H1325.06V161.475Z" fill="#FEEE99"/>
<path d="M1325.06 156.354H1060.32V166.596H1325.06V156.354Z" fill="#FFB91A"/>
<path d="M1325.06 159.199H1060.32V163.751H1325.06V159.199Z" fill="#FFD05E"/>
<path d="M1325.06 174.043H1060.32V184.285H1325.06V174.043Z" fill="#FFB91A"/>
<path d="M1325.06 176.888H1060.32V181.44H1325.06V176.888Z" fill="#FFD05E"/>
<path d="M1325.06 191.732H1060.32V201.974H1325.06V191.732Z" fill="#FFB91A"/>
<path d="M1325.06 194.577H1060.32V199.129H1325.06V194.577Z" fill="#FFD05E"/>
<path d="M1325.06 209.421H1060.32V219.663H1325.06V209.421Z" fill="#FFB91A"/>
<path d="M1325.06 212.267H1060.32V216.819H1325.06V212.267Z" fill="#FFD05E"/>
<path d="M1325.06 227.11H1060.32V237.352H1325.06V227.11Z" fill="#FFB91A"/>
<path d="M1325.06 229.956H1060.32V234.508H1325.06V229.956Z" fill="#FFD05E"/>
<path d="M1325.06 244.799H1060.32V255.041H1325.06V244.799Z" fill="#FFB91A"/>
<path d="M1325.06 247.645H1060.32V252.197H1325.06V247.645Z" fill="#FFD05E"/>
<path d="M1112.84 142.93C1117.73 142.93 1121.68 146.891 1121.68 151.775H1210.11C1210.11 98.0431 1166.56 54.4839 1112.84 54.4839V142.93Z" fill="#FEEE99"/>
<path d="M1215.23 151.775H1204.99C1204.99 100.952 1163.65 59.6048 1112.84 59.6048V49.3628C1169.3 49.3628 1215.23 95.305 1215.23 151.775Z" fill="#FFB91A"/>
<path d="M1212.38 151.775H1207.83C1207.83 99.3838 1165.22 56.76 1112.84 56.76V52.208C1167.73 52.208 1212.38 96.8745 1212.38 151.775Z" fill="#FFD05E"/>
<path d="M1126.8 151.775H1116.57C1116.57 149.722 1114.9 148.051 1112.84 148.051V137.809C1120.54 137.809 1126.8 144.075 1126.8 151.775Z" fill="#FFB91A"/>
<path d="M1123.96 151.775H1119.41C1119.41 148.153 1116.46 145.206 1112.84 145.206V140.654C1118.97 140.654 1123.96 145.643 1123.96 151.775Z" fill="#FFD05E"/>
<path d="M1144.49 151.775H1134.25C1134.25 139.967 1124.65 130.362 1112.84 130.362V120.12C1130.29 120.12 1144.49 134.32 1144.49 151.775Z" fill="#FFB91A"/>
<path d="M1141.64 151.775H1137.09C1137.09 138.399 1126.21 127.517 1112.84 127.517V122.965C1128.72 122.965 1141.64 135.89 1141.64 151.775Z" fill="#FFD05E"/>
<path d="M1162.17 151.775H1151.93C1151.93 130.214 1134.4 112.673 1112.84 112.673V102.431C1140.04 102.431 1162.17 124.566 1162.17 151.775Z" fill="#FFB91A"/>
<path d="M1159.33 151.775H1154.78C1154.78 128.645 1135.97 109.828 1112.84 109.828V105.276C1138.48 105.276 1159.33 126.136 1159.33 151.775Z" fill="#FFD05E"/>
<path d="M1179.86 151.775H1169.62C1169.62 120.461 1144.15 94.9842 1112.84 94.9842V84.7422C1149.79 84.7422 1179.86 114.813 1179.86 151.775Z" fill="#FFB91A"/>
<path d="M1177.01 151.775H1172.46C1172.46 118.891 1145.72 92.1394 1112.84 92.1394V87.5874C1148.23 87.5874 1177.01 116.382 1177.01 151.775Z" fill="#FFD05E"/>
<path d="M1197.54 151.775H1187.3C1187.3 110.707 1153.9 77.2938 1112.84 77.2938V67.0518C1159.55 67.0518 1197.54 105.059 1197.54 151.775Z" fill="#FFB91A"/>
<path d="M1194.7 151.775H1190.15C1190.15 109.137 1155.47 74.449 1112.84 74.449V69.897C1157.98 69.897 1194.7 106.627 1194.7 151.775Z" fill="#FFD05E"/>
<path d="M1210.11 151.775H1121.68V416.586H1210.11V151.775Z" fill="#FEEE99"/>
<path d="M1126.8 151.775H1116.57V416.585H1126.8V151.775Z" fill="#FFB91A"/>
<path d="M1123.96 151.775H1119.41V416.585H1123.96V151.775Z" fill="#FFD05E"/>
<path d="M1144.49 151.775H1134.25V416.585H1144.49V151.775Z" fill="#FFB91A"/>
<path d="M1141.64 151.775H1137.09V416.585H1141.64V151.775Z" fill="#FFD05E"/>
<path d="M1162.17 151.775H1151.94V416.585H1162.17V151.775Z" fill="#FFB91A"/>
<path d="M1159.33 151.775H1154.78V416.585H1159.33V151.775Z" fill="#FFD05E"/>
<path d="M1179.86 151.775H1169.62V416.585H1179.86V151.775Z" fill="#FFB91A"/>
<path d="M1177.01 151.775H1172.46V416.585H1177.01V151.775Z" fill="#FFD05E"/>
<path d="M1197.54 151.775H1187.3V416.585H1197.54V151.775Z" fill="#FFB91A"/>
<path d="M1194.7 151.775H1190.15V416.585H1194.7V151.775Z" fill="#FFD05E"/>
<path d="M1215.23 151.775H1204.99V416.585H1215.23V151.775Z" fill="#FFB91A"/>
<path d="M1212.38 151.775H1207.83V416.585H1212.38V151.775Z" fill="#FFD05E"/>
<path d="M1106.54 501.633C1050.08 501.633 1004.15 455.691 1004.15 399.221C1004.15 342.751 1050.08 296.81 1106.54 296.81V307.052C1055.73 307.052 1014.39 348.399 1014.39 399.221C1014.39 450.044 1055.73 491.391 1106.54 491.391V501.633Z" fill="#FFB91A"/>
<path d="M1106.54 498.788C1051.65 498.788 1007 454.122 1007 399.221C1007 344.32 1051.65 299.655 1106.54 299.655V304.207C1054.16 304.207 1011.55 346.829 1011.55 399.221C1011.55 451.612 1054.16 494.236 1106.54 494.236V498.788Z" fill="#FFD05E"/>
<path d="M1106.54 413.186C1098.84 413.186 1092.58 406.92 1092.58 399.221C1092.58 391.521 1098.84 385.256 1106.54 385.256V395.498C1104.48 395.498 1102.81 397.169 1102.81 399.221C1102.81 401.275 1104.48 402.944 1106.54 402.944V413.186Z" fill="#FFB91A"/>
<path d="M1106.54 410.341C1100.41 410.341 1095.42 405.353 1095.42 399.221C1095.42 393.089 1100.41 388.102 1106.54 388.102V392.654C1102.92 392.654 1099.97 395.6 1099.97 399.221C1099.97 402.843 1102.92 405.789 1106.54 405.789V410.341Z" fill="#FFD05E"/>
<path d="M1106.54 430.875C1089.09 430.875 1074.89 416.675 1074.89 399.221C1074.89 381.766 1089.09 367.567 1106.54 367.567V377.809C1094.73 377.809 1085.13 387.414 1085.13 399.221C1085.13 411.028 1094.73 420.633 1106.54 420.633V430.875Z" fill="#FFB91A"/>
<path d="M1106.54 428.031C1090.66 428.031 1077.74 415.108 1077.74 399.221C1077.74 383.336 1090.66 370.413 1106.54 370.413V374.965C1093.16 374.965 1082.29 385.847 1082.29 399.221C1082.29 412.597 1093.17 423.479 1106.54 423.479V428.031Z" fill="#FFD05E"/>
<path d="M1106.54 448.565C1079.34 448.565 1057.21 426.429 1057.21 399.221C1057.21 372.014 1079.34 349.878 1106.54 349.878V360.12C1084.98 360.12 1067.45 377.66 1067.45 399.221C1067.45 420.781 1084.98 438.323 1106.54 438.323V448.565Z" fill="#FFB91A"/>
<path d="M1106.54 445.72C1080.9 445.72 1060.05 424.86 1060.05 399.221C1060.05 373.582 1080.9 352.724 1106.54 352.724V357.276C1083.41 357.276 1064.6 376.092 1064.6 399.221C1064.6 422.351 1083.41 441.168 1106.54 441.168V445.72Z" fill="#FFD05E"/>
<path d="M1106.54 466.255C1069.59 466.255 1039.52 436.183 1039.52 399.221C1039.52 362.26 1069.59 332.188 1106.54 332.188V342.43C1075.23 342.43 1049.76 367.906 1049.76 399.221C1049.76 430.535 1075.23 456.013 1106.54 456.013V466.255Z" fill="#FFB91A"/>
<path d="M1106.54 463.41C1071.15 463.41 1042.37 434.614 1042.37 399.221C1042.37 363.828 1071.15 335.033 1106.54 335.033V339.585C1073.66 339.585 1046.92 366.338 1046.92 399.221C1046.92 432.106 1073.66 458.858 1106.54 458.858V463.41Z" fill="#FFD05E"/>
<path d="M1106.54 483.944C1059.83 483.944 1021.84 445.938 1021.84 399.221C1021.84 352.505 1059.83 314.499 1106.54 314.499V324.741C1065.48 324.741 1032.08 358.153 1032.08 399.221C1032.08 440.29 1065.48 473.702 1106.54 473.702V483.944Z" fill="#FFB91A"/>
<path d="M1106.54 481.099C1061.4 481.099 1024.68 444.369 1024.68 399.221C1024.68 354.073 1061.4 317.344 1106.54 317.344V321.896C1063.91 321.896 1029.23 356.584 1029.23 399.221C1029.23 441.86 1063.91 476.547 1106.54 476.547V481.099Z" fill="#FFD05E"/>
<path d="M1371.28 301.93H1106.54V390.376H1371.28V301.93Z" fill="#FEEE99"/>
<path d="M1371.28 385.255H1106.54V395.497H1371.28V385.255Z" fill="#FFB91A"/>
<path d="M1371.28 388.1H1106.54V392.652H1371.28V388.1Z" fill="#FFD05E"/>
<path d="M1371.28 367.566H1106.54V377.808H1371.28V367.566Z" fill="#FFB91A"/>
<path d="M1371.28 370.411H1106.54V374.963H1371.28V370.411Z" fill="#FFD05E"/>
<path d="M1371.28 349.877H1106.54V360.119H1371.28V349.877Z" fill="#FFB91A"/>
<path d="M1371.28 352.722H1106.54V357.274H1371.28V352.722Z" fill="#FFD05E"/>
<path d="M1371.28 332.187H1106.54V342.429H1371.28V332.187Z" fill="#FFB91A"/>
<path d="M1371.28 335.032H1106.54V339.584H1371.28V335.032Z" fill="#FFD05E"/>
<path d="M1371.28 314.498H1106.54V324.74H1371.28V314.498Z" fill="#FFB91A"/>
<path d="M1371.28 317.343H1106.54V321.895H1371.28V317.343Z" fill="#FFD05E"/>
<path d="M1371.28 296.809H1106.54V307.051H1371.28V296.809Z" fill="#FFB91A"/>
<path d="M1371.28 299.654H1106.54V304.206H1371.28V299.654Z" fill="#FFD05E"/>
<path d="M1256.61 63.9165C1256.61 59.0322 1260.57 55.072 1265.45 55.072V-33.3745C1211.73 -33.3745 1168.19 10.1836 1168.19 63.9165H1256.61Z" fill="#FEEE99"/>
<path d="M1265.45 55.072C1270.33 55.072 1274.29 59.0322 1274.29 63.9165H1362.71C1362.71 10.1847 1319.17 -33.3745 1265.45 -33.3745V55.072Z" fill="#FEEE99"/>
<path d="M1256.61 63.9165C1256.61 68.8008 1260.57 72.761 1265.45 72.761V161.206C1211.73 161.206 1168.19 117.648 1168.19 63.9165H1256.61Z" fill="#FEEE99"/>
<path d="M1265.45 166.327C1209 166.327 1163.07 120.385 1163.07 63.9155C1163.07 7.44561 1209 -38.4966 1265.45 -38.4966C1321.91 -38.4966 1367.83 7.44561 1367.83 63.9155H1357.59C1357.59 13.0924 1316.26 -28.2546 1265.45 -28.2546C1214.64 -28.2546 1173.31 13.0924 1173.31 63.9155C1173.31 114.739 1214.64 156.085 1265.45 156.085V166.327Z" fill="#FFB91A"/>
<path d="M1265.45 163.483C1210.56 163.483 1165.91 118.817 1165.91 63.9157C1165.91 9.01399 1210.56 -35.6514 1265.45 -35.6514C1320.34 -35.6514 1364.99 9.01399 1364.99 63.9157H1360.44C1360.44 11.5244 1317.83 -31.0994 1265.45 -31.0994C1213.07 -31.0994 1170.46 11.5244 1170.46 63.9157C1170.46 116.307 1213.07 158.931 1265.45 158.931V163.483Z" fill="#FFD05E"/>
<path d="M1265.45 77.8819C1257.75 77.8819 1251.49 71.6172 1251.49 63.9152C1251.49 56.2144 1257.75 49.9497 1265.45 49.9497C1273.15 49.9497 1279.41 56.2144 1279.41 63.9152H1269.17C1269.17 61.8623 1267.5 60.1917 1265.45 60.1917C1263.4 60.1917 1261.73 61.8623 1261.73 63.9152C1261.73 65.9682 1263.4 67.6388 1265.45 67.6388V77.8819Z" fill="#FFB91A"/>
<path d="M1265.45 75.0371C1259.32 75.0371 1254.33 70.0481 1254.33 63.9155C1254.33 57.7839 1259.32 52.7949 1265.45 52.7949C1271.58 52.7949 1276.57 57.7839 1276.57 63.9155H1272.02C1272.02 60.2932 1269.07 57.3469 1265.45 57.3469C1261.83 57.3469 1258.88 60.2932 1258.88 63.9155C1258.88 67.5377 1261.83 70.484 1265.45 70.484V75.0371Z" fill="#FFD05E"/>
<path d="M1265.45 95.5714C1248 95.5714 1233.8 81.3703 1233.8 63.9168C1233.8 46.4633 1248 32.2622 1265.45 32.2622C1282.9 32.2622 1297.1 46.4622 1297.1 63.9168H1286.86C1286.86 52.1101 1277.25 42.5042 1265.45 42.5042C1253.65 42.5042 1244.04 52.1101 1244.04 63.9168C1244.04 75.7236 1253.65 85.3294 1265.45 85.3294V95.5714Z" fill="#FFB91A"/>
<path d="M1265.45 92.7266C1249.57 92.7266 1236.65 79.8024 1236.65 63.917C1236.65 48.0317 1249.57 35.1074 1265.45 35.1074C1281.33 35.1074 1294.25 48.0317 1294.25 63.917H1289.7C1289.7 50.5421 1278.82 39.6594 1265.45 39.6594C1252.08 39.6594 1241.2 50.5421 1241.2 63.917C1241.2 77.2931 1252.08 88.1746 1265.45 88.1746V92.7266Z" fill="#FFD05E"/>
<path d="M1265.45 113.26C1238.25 113.26 1216.12 91.1249 1216.12 63.9164C1216.12 36.708 1238.25 14.5728 1265.45 14.5728C1292.65 14.5728 1314.78 36.708 1314.78 63.9164H1304.54C1304.54 42.3559 1287.01 24.8148 1265.45 24.8148C1243.9 24.8148 1226.36 42.3559 1226.36 63.9164C1226.36 85.477 1243.9 103.018 1265.45 103.018V113.26Z" fill="#FFB91A"/>
<path d="M1265.45 110.415C1239.82 110.415 1218.96 89.5558 1218.96 63.9166C1218.96 38.2775 1239.82 17.418 1265.45 17.418C1291.08 17.418 1311.94 38.2775 1311.94 63.9166H1307.39C1307.39 40.7868 1288.57 21.97 1265.45 21.97C1242.33 21.97 1223.51 40.7879 1223.51 63.9166C1223.51 87.0454 1242.33 105.863 1265.45 105.863V110.415Z" fill="#FFD05E"/>
<path d="M1265.45 130.949C1228.5 130.949 1198.43 100.878 1198.43 63.9156C1198.43 26.9533 1228.5 -3.11719 1265.45 -3.11719C1302.4 -3.11719 1332.46 26.9533 1332.46 63.9156H1322.23C1322.23 32.6012 1296.76 7.12481 1265.45 7.12481C1234.14 7.12481 1208.67 32.6012 1208.67 63.9156C1208.67 95.231 1234.14 120.707 1265.45 120.707V130.949Z" fill="#FFB91A"/>
<path d="M1265.45 128.105C1230.07 128.105 1201.28 99.3098 1201.28 63.9158C1201.28 28.5217 1230.07 -0.271973 1265.45 -0.271973C1300.83 -0.271973 1329.62 28.5228 1329.62 63.9158H1325.07C1325.07 31.0321 1298.32 4.28003 1265.45 4.28003C1232.57 4.28003 1205.83 31.0321 1205.83 63.9158C1205.83 96.7994 1232.57 123.553 1265.45 123.553V128.105Z" fill="#FFD05E"/>
<path d="M1265.45 148.639C1218.75 148.639 1180.75 110.632 1180.75 63.9157C1180.75 17.1996 1218.75 -20.8062 1265.45 -20.8062C1312.15 -20.8062 1350.15 17.1996 1350.15 63.9157H1339.91C1339.91 22.8475 1306.51 -10.5642 1265.45 -10.5642C1224.39 -10.5642 1190.99 22.8475 1190.99 63.9157C1190.99 104.984 1224.39 138.397 1265.45 138.397V148.639Z" fill="#FFB91A"/>
<path d="M1265.45 145.794C1220.31 145.794 1183.59 109.064 1183.59 63.9159C1183.59 18.7691 1220.31 -17.9609 1265.45 -17.9609C1310.59 -17.9609 1347.31 18.7691 1347.31 63.9159H1342.75C1342.75 21.2784 1308.08 -13.4089 1265.45 -13.4089C1222.82 -13.4089 1188.15 21.2784 1188.15 63.9159C1188.15 106.553 1222.82 141.242 1265.45 141.242V145.794Z" fill="#FFD05E"/>
<path d="M1362.72 63.9165H1274.29V319.619H1362.72V63.9165Z" fill="#FEEE99"/>
<path d="M1279.41 63.9165H1269.17V304.135H1279.41V63.9165Z" fill="#FFB91A"/>
<path d="M1276.57 63.9165H1272.02V304.135H1276.57V63.9165Z" fill="#FFD05E"/>
<path d="M1297.1 63.9165H1286.86V319.619H1297.1V63.9165Z" fill="#FFB91A"/>
<path d="M1294.25 63.9165H1289.7V319.619H1294.25V63.9165Z" fill="#FFD05E"/>
<path d="M1314.78 63.9165H1304.54V319.619H1314.78V63.9165Z" fill="#FFB91A"/>
<path d="M1311.94 63.9165H1307.38V319.619H1311.94V63.9165Z" fill="#FFD05E"/>
<path d="M1332.46 63.9165H1322.23V319.619H1332.46V63.9165Z" fill="#FFB91A"/>
<path d="M1329.62 63.9165H1325.07V319.619H1329.62V63.9165Z" fill="#FFD05E"/>
<path d="M1350.15 63.9165H1339.91V319.619H1350.15V63.9165Z" fill="#FFB91A"/>
<path d="M1347.3 63.9165H1342.75V319.619H1347.3V63.9165Z" fill="#FFD05E"/>
<path d="M1367.83 63.9165H1357.59V319.619H1367.83V63.9165Z" fill="#FFB91A"/>
<path d="M1364.99 63.9165H1360.44V319.619H1364.99V63.9165Z" fill="#FFD05E"/>
<path d="M1440.55 72.7612H1265.45V161.208H1440.55V72.7612Z" fill="#FEEE99"/>
<path d="M1440.55 156.086H1265.45V166.328H1440.55V156.086Z" fill="#FFB91A"/>
<path d="M1440.55 158.932H1265.45V163.484H1440.55V158.932Z" fill="#FFD05E"/>
<path d="M1440.55 138.397H1265.45V148.639H1440.55V138.397Z" fill="#FFB91A"/>
<path d="M1440.55 141.243H1265.45V145.795H1440.55V141.243Z" fill="#FFD05E"/>
<path d="M1440.55 120.708H1265.45V130.95H1440.55V120.708Z" fill="#FFB91A"/>
<path d="M1440.55 123.554H1265.45V128.106H1440.55V123.554Z" fill="#FFD05E"/>
<path d="M1440.55 103.018H1265.45V113.26H1440.55V103.018Z" fill="#FFB91A"/>
<path d="M1440.55 105.863H1265.45V110.415H1440.55V105.863Z" fill="#FFD05E"/>
<path d="M1440.55 85.3291H1265.45V95.5711H1440.55V85.3291Z" fill="#FFB91A"/>
<path d="M1440.55 88.1743H1265.45V92.7263H1440.55V88.1743Z" fill="#FFD05E"/>
<path d="M1440.55 67.6401H1265.45V77.8821H1440.55V67.6401Z" fill="#FFB91A"/>
<path d="M1440.55 70.4854H1265.45V75.0374H1440.55V70.4854Z" fill="#FFD05E"/>
<path d="M1285.27 408.065H1106.34V496.512H1285.27V408.065Z" fill="#FEEE99"/>
<path d="M1285.27 491.391H1106.34V501.633H1285.27V491.391Z" fill="#FFB91A"/>
<path d="M1285.27 494.236H1106.34V498.788H1285.27V494.236Z" fill="#FFD05E"/>
<path d="M1285.27 473.702H1106.34V483.944H1285.27V473.702Z" fill="#FFB91A"/>
<path d="M1285.27 476.547H1106.34V481.099H1285.27V476.547Z" fill="#FFD05E"/>
<path d="M1285.27 456.013H1106.34V466.255H1285.27V456.013Z" fill="#FFB91A"/>
<path d="M1285.27 458.858H1106.34V463.41H1285.27V458.858Z" fill="#FFD05E"/>
<path d="M1285.27 438.323H1106.34V448.565H1285.27V438.323Z" fill="#FFB91A"/>
<path d="M1285.27 441.168H1106.34V445.72H1285.27V441.168Z" fill="#FFD05E"/>
<path d="M1285.27 420.633H1106.34V430.875H1285.27V420.633Z" fill="#FFB91A"/>
<path d="M1285.27 423.479H1106.34V428.031H1285.27V423.479Z" fill="#FFD05E"/>
<path d="M1285.27 402.944H1106.34V413.186H1285.27V402.944Z" fill="#FFB91A"/>
<path d="M1285.27 405.79H1106.34V410.342H1285.27V405.79Z" fill="#FFD05E"/>
<path d="M1459.98 519.321C1403.52 519.321 1357.59 473.38 1357.59 416.911H1367.83C1367.83 467.733 1409.17 509.079 1459.98 509.079C1510.79 509.079 1552.12 467.733 1552.12 416.911C1552.12 366.088 1510.79 324.741 1459.98 324.741V314.499C1516.43 314.499 1562.36 360.441 1562.36 416.911C1562.36 473.38 1516.43 519.321 1459.98 519.321Z" fill="#FFB91A"/>
<path d="M1459.98 516.477C1405.09 516.477 1360.44 471.811 1360.44 416.911H1364.99C1364.99 469.302 1407.6 511.925 1459.98 511.925C1512.36 511.925 1554.97 469.302 1554.97 416.911C1554.97 364.52 1512.36 321.896 1459.98 321.896V317.344C1514.86 317.344 1559.52 362.009 1559.52 416.911C1559.52 471.811 1514.87 516.477 1459.98 516.477Z" fill="#FFD05E"/>
<path d="M1459.98 448.564C1442.53 448.564 1428.33 434.364 1428.33 416.91H1438.57C1438.57 428.717 1448.18 438.322 1459.98 438.322C1471.78 438.322 1481.38 428.717 1481.38 416.91C1481.38 405.104 1471.78 395.498 1459.98 395.498V385.256C1477.43 385.256 1491.62 399.456 1491.62 416.91C1491.63 434.364 1477.43 448.564 1459.98 448.564Z" fill="#FFB91A"/>
<path d="M1459.98 445.719C1444.1 445.719 1431.18 432.796 1431.18 416.911H1435.73C1435.73 430.286 1446.61 441.167 1459.98 441.167C1473.35 441.167 1484.23 430.284 1484.23 416.911C1484.23 403.535 1473.35 392.653 1459.98 392.653V388.101C1475.86 388.101 1488.78 401.024 1488.78 416.911C1488.78 432.796 1475.86 445.719 1459.98 445.719Z" fill="#FFD05E"/>
<path d="M1459.98 466.254C1432.78 466.254 1410.65 444.119 1410.65 416.911H1420.89C1420.89 438.471 1438.42 456.012 1459.98 456.012C1481.53 456.012 1499.07 438.471 1499.07 416.911C1499.07 395.35 1481.53 377.809 1459.98 377.809V367.567C1487.18 367.567 1509.31 389.702 1509.31 416.911C1509.31 444.119 1487.18 466.254 1459.98 466.254Z" fill="#FFB91A"/>
<path d="M1459.98 463.409C1434.35 463.409 1413.49 442.55 1413.49 416.911H1418.04C1418.04 440.041 1436.85 458.857 1459.98 458.857C1483.1 458.857 1501.91 440.041 1501.91 416.911C1501.91 393.781 1483.1 374.964 1459.98 374.964V370.412C1485.61 370.412 1506.46 391.272 1506.46 416.911C1506.47 442.55 1485.61 463.409 1459.98 463.409Z" fill="#FFD05E"/>
<path d="M1459.98 483.943C1423.03 483.943 1392.96 453.872 1392.96 416.911H1403.2C1403.2 448.226 1428.67 473.701 1459.98 473.701C1491.29 473.701 1516.75 448.225 1516.75 416.911C1516.75 385.595 1491.29 360.12 1459.98 360.12V349.878C1496.93 349.878 1526.99 379.95 1526.99 416.911C1526.99 453.872 1496.93 483.943 1459.98 483.943Z" fill="#FFB91A"/>
<path d="M1459.98 481.099C1424.59 481.099 1395.81 452.304 1395.81 416.911H1400.36C1400.36 449.795 1427.11 476.547 1459.98 476.547C1492.85 476.547 1519.6 449.793 1519.6 416.911C1519.6 384.028 1492.85 357.275 1459.98 357.275V352.723C1495.36 352.723 1524.15 381.518 1524.15 416.911C1524.15 452.304 1495.36 481.099 1459.98 481.099Z" fill="#FFD05E"/>
<path d="M1459.98 501.632C1413.27 501.632 1375.28 463.627 1375.28 416.91H1385.52C1385.52 457.979 1418.92 491.39 1459.98 491.39C1501.04 491.39 1534.44 457.979 1534.44 416.91C1534.44 375.841 1501.04 342.43 1459.98 342.43V332.188C1506.68 332.188 1544.68 370.193 1544.68 416.91C1544.68 463.625 1506.68 501.632 1459.98 501.632Z" fill="#FFB91A"/>
<path d="M1459.98 498.788C1414.84 498.788 1378.12 462.059 1378.12 416.911H1382.67C1382.67 459.548 1417.35 494.236 1459.98 494.236C1502.6 494.236 1537.28 459.548 1537.28 416.911C1537.28 374.272 1502.6 339.585 1459.98 339.585V335.033C1505.11 335.033 1541.83 371.763 1541.83 416.911C1541.83 462.057 1505.11 498.788 1459.98 498.788Z" fill="#FFD05E"/>
<path d="M1271.28 310.775C1271.28 305.891 1275.24 301.931 1280.12 301.931V213.484C1226.4 213.484 1182.85 257.042 1182.85 310.775H1271.28Z" fill="#FEEE99"/>
<path d="M1271.28 310.775C1271.28 315.66 1275.24 319.62 1280.12 319.62V408.066C1226.4 408.066 1182.85 364.508 1182.85 310.777L1271.28 310.775Z" fill="#FEEE99"/>
<path d="M1280.12 413.186C1223.67 413.186 1177.74 367.245 1177.74 310.775C1177.74 254.304 1223.67 208.363 1280.12 208.363V218.605C1229.31 218.605 1187.98 259.952 1187.98 310.775C1187.98 361.597 1229.31 402.944 1280.12 402.944V413.186Z" fill="#FFB91A"/>
<path d="M1280.12 410.341C1225.23 410.341 1180.58 365.676 1180.58 310.776C1180.58 255.874 1225.23 211.208 1280.12 211.208V215.76C1227.74 215.76 1185.13 258.384 1185.13 310.776C1185.13 363.167 1227.74 405.789 1280.12 405.789V410.341Z" fill="#FFD05E"/>
<path d="M1280.12 324.74C1272.42 324.74 1266.16 318.475 1266.16 310.774C1266.16 303.073 1272.42 296.809 1280.12 296.809V307.051C1278.07 307.051 1276.4 308.721 1276.4 310.774C1276.4 312.827 1278.07 314.498 1280.12 314.498V324.74Z" fill="#FFB91A"/>
<path d="M1280.12 321.895C1273.99 321.895 1269 316.906 1269 310.774C1269 304.642 1273.99 299.654 1280.12 299.654V304.206C1276.5 304.206 1273.55 307.153 1273.55 310.774C1273.55 314.397 1276.5 317.343 1280.12 317.343V321.895Z" fill="#FFD05E"/>
<path d="M1280.12 342.429C1262.67 342.429 1248.47 328.229 1248.47 310.775C1248.47 293.322 1262.67 279.121 1280.12 279.121V289.363C1268.32 289.363 1258.71 298.968 1258.71 310.775C1258.71 322.582 1268.32 332.187 1280.12 332.187V342.429Z" fill="#FFB91A"/>
<path d="M1280.12 339.584C1264.24 339.584 1251.32 326.661 1251.32 310.775C1251.32 294.889 1264.24 281.966 1280.12 281.966V286.518C1266.75 286.518 1255.87 297.399 1255.87 310.775C1255.87 324.15 1266.75 335.032 1280.12 335.032V339.584Z" fill="#FFD05E"/>
<path d="M1280.12 360.119C1252.92 360.119 1230.79 337.984 1230.79 310.775C1230.79 283.567 1252.92 261.431 1280.12 261.431V271.673C1258.57 271.673 1241.03 289.215 1241.03 310.775C1241.03 332.336 1258.57 349.877 1280.12 349.877V360.119Z" fill="#FFB91A"/>
<path d="M1280.12 357.274C1254.49 357.274 1233.63 336.415 1233.63 310.776C1233.63 285.135 1254.49 264.276 1280.12 264.276V268.828C1257 268.828 1238.18 287.646 1238.18 310.776C1238.18 333.906 1257 352.722 1280.12 352.722V357.274Z" fill="#FFD05E"/>
<path d="M1280.12 377.808C1243.17 377.808 1213.11 347.736 1213.11 310.775C1213.11 273.813 1243.17 243.741 1280.12 243.741V253.983C1248.81 253.983 1223.35 279.46 1223.35 310.775C1223.35 342.091 1248.82 367.566 1280.12 367.566V377.808Z" fill="#FFB91A"/>
<path d="M1280.12 374.963C1244.74 374.963 1215.95 346.168 1215.95 310.775C1215.95 275.381 1244.74 246.586 1280.12 246.586V251.138C1247.25 251.138 1220.5 277.892 1220.5 310.775C1220.5 343.659 1247.25 370.411 1280.12 370.411V374.963Z" fill="#FFD05E"/>
<path d="M1280.12 395.497C1233.42 395.497 1195.42 357.49 1195.42 310.775C1195.42 264.059 1233.42 226.052 1280.12 226.052V236.294C1239.06 236.294 1205.66 269.706 1205.66 310.775C1205.66 351.843 1239.06 385.255 1280.12 385.255V395.497Z" fill="#FFB91A"/>
<path d="M1280.12 392.652C1234.98 392.652 1198.26 355.923 1198.26 310.775C1198.26 265.628 1234.98 228.897 1280.12 228.897V233.449C1237.49 233.449 1202.82 268.137 1202.82 310.775C1202.82 353.413 1237.49 388.1 1280.12 388.1V392.652Z" fill="#FFD05E"/>
<path d="M1459.98 385.255H1280.12V395.497H1459.98V385.255Z" fill="#FFB91A"/>
<path d="M1459.98 388.1H1280.12V392.652H1459.98V388.1Z" fill="#FFD05E"/>
<path d="M1459.98 402.944H1280.12V413.186H1459.98V402.944Z" fill="#FFB91A"/>
<path d="M1459.98 405.79H1280.12V410.342H1459.98V405.79Z" fill="#FFD05E"/>
<path d="M1459.98 367.566H1280.12V377.808H1459.98V367.566Z" fill="#FFB91A"/>
<path d="M1459.98 370.411H1280.12V374.963H1459.98V370.411Z" fill="#FFD05E"/>
<path d="M1459.98 349.877H1280.12V360.119H1459.98V349.877Z" fill="#FFB91A"/>
<path d="M1459.98 352.722H1280.12V357.274H1459.98V352.722Z" fill="#FFD05E"/>
<path d="M1459.98 332.187H1280.12V342.429H1459.98V332.187Z" fill="#FFB91A"/>
<path d="M1459.98 335.032H1280.12V339.584H1459.98V335.032Z" fill="#FFD05E"/>
<path d="M1459.98 314.498H1280.12V324.74H1459.98V314.498Z" fill="#FFB91A"/>
<path d="M1459.98 317.343H1280.12V321.895H1459.98V317.343Z" fill="#FFD05E"/>
<path d="M1451.14 152.099H1362.71V416.911H1451.14V152.099Z" fill="#FEEE99"/>
<path d="M1438.57 152.099H1428.33V416.911H1438.57V152.099Z" fill="#FFB91A"/>
<path d="M1435.73 152.099H1431.18V416.911H1435.73V152.099Z" fill="#FFD05E"/>
<path d="M1420.89 152.099H1410.65V416.911H1420.89V152.099Z" fill="#FFB91A"/>
<path d="M1418.04 152.099H1413.49V416.911H1418.04V152.099Z" fill="#FFD05E"/>
<path d="M1403.2 152.099H1392.96V416.911H1403.2V152.099Z" fill="#FFB91A"/>
<path d="M1400.36 152.099H1395.81V416.911H1400.36V152.099Z" fill="#FFD05E"/>
<path d="M1385.52 152.099H1375.28V416.911H1385.52V152.099Z" fill="#FFB91A"/>
<path d="M1382.67 152.099H1378.12V416.911H1382.67V152.099Z" fill="#FFD05E"/>
<path d="M1367.83 152.099H1357.59V416.911H1367.83V152.099Z" fill="#FFB91A"/>
<path d="M1364.99 152.099H1360.44V416.911H1364.99V152.099Z" fill="#FFD05E"/>
<path d="M1460.83 213.484H1280.12V301.931H1460.83V213.484Z" fill="#FEEE99"/>
<path d="M1460.83 296.809H1280.12V307.051H1460.83V296.809Z" fill="#FFB91A"/>
<path d="M1460.83 299.654H1280.12V304.206H1460.83V299.654Z" fill="#FFD05E"/>
<path d="M1460.83 279.121H1280.12V289.363H1460.83V279.121Z" fill="#FFB91A"/>
<path d="M1460.83 281.966H1280.12V286.518H1460.83V281.966Z" fill="#FFD05E"/>
<path d="M1460.83 261.431H1280.12V271.673H1460.83V261.431Z" fill="#FFB91A"/>
<path d="M1460.83 264.276H1280.12V268.828H1460.83V264.276Z" fill="#FFD05E"/>
<path d="M1460.83 243.741H1280.12V253.983H1460.83V243.741Z" fill="#FFB91A"/>
<path d="M1460.83 246.586H1280.12V251.138H1460.83V246.586Z" fill="#FFD05E"/>
<path d="M1460.83 226.052H1280.12V236.294H1460.83V226.052Z" fill="#FFB91A"/>
<path d="M1460.83 228.897H1280.12V233.449H1460.83V228.897Z" fill="#FFD05E"/>
<path d="M1460.83 208.363H1280.12V218.605H1460.83V208.363Z" fill="#FFB91A"/>
<path d="M1460.83 211.208H1280.12V215.76H1460.83V211.208Z" fill="#FFD05E"/>
<path d="M1451.14 152.1C1451.14 147.215 1455.1 143.255 1459.98 143.255V54.8086C1406.26 54.8086 1362.71 98.3667 1362.71 152.1H1451.14Z" fill="#FEEE99"/>
<path d="M1367.83 152.1H1357.59C1357.59 95.6297 1403.52 49.6875 1459.98 49.6875V59.9295C1409.17 59.9295 1367.83 101.276 1367.83 152.1Z" fill="#FFB91A"/>
<path d="M1364.99 152.1H1360.44C1360.44 97.1981 1405.09 52.5327 1459.98 52.5327V57.0847C1407.6 57.0847 1364.99 99.7085 1364.99 152.1Z" fill="#FFD05E"/>
<path d="M1438.57 152.099H1428.33C1428.33 134.645 1442.53 120.445 1459.98 120.445V130.687C1448.18 130.686 1438.57 140.292 1438.57 152.099Z" fill="#FFB91A"/>
<path d="M1435.73 152.1H1431.18C1431.18 136.213 1444.1 123.29 1459.98 123.29V127.842C1446.61 127.841 1435.73 138.724 1435.73 152.1Z" fill="#FFD05E"/>
<path d="M1420.89 152.1H1410.65C1410.65 124.891 1432.78 102.756 1459.98 102.756V112.998C1438.42 112.997 1420.89 130.539 1420.89 152.1Z" fill="#FFB91A"/>
<path d="M1418.04 152.1H1413.49C1413.49 126.461 1434.35 105.601 1459.98 105.601V110.153C1436.85 110.152 1418.04 128.97 1418.04 152.1Z" fill="#FFD05E"/>
<path d="M1403.2 152.1H1392.96C1392.96 115.137 1423.03 85.0669 1459.98 85.0669V95.3089C1428.67 95.3089 1403.2 120.785 1403.2 152.1Z" fill="#FFB91A"/>
<path d="M1400.36 152.1H1395.81C1395.81 116.706 1424.6 87.9121 1459.98 87.9121V92.4641C1427.11 92.4641 1400.36 119.216 1400.36 152.1Z" fill="#FFD05E"/>
<path d="M1385.52 152.099H1375.28C1375.28 105.383 1413.27 67.3765 1459.98 67.3765V77.6185C1418.92 77.6185 1385.52 111.03 1385.52 152.099Z" fill="#FFB91A"/>
<path d="M1382.67 152.1H1378.12C1378.12 106.952 1414.84 70.2217 1459.98 70.2217V74.7737C1417.35 74.7737 1382.67 109.462 1382.67 152.1Z" fill="#FFD05E"/>
<path d="M1387.65 505.356H1377.41C1377.41 454.533 1336.07 413.186 1285.27 413.186V402.944C1341.72 402.944 1387.65 448.887 1387.65 505.356Z" fill="#FFB91A"/>
<path d="M1384.81 505.357H1380.26C1380.26 452.965 1337.64 410.342 1285.27 410.342V405.79C1340.15 405.79 1384.81 450.455 1384.81 505.357Z" fill="#FFD05E"/>
<path d="M1299.23 505.356H1288.99C1288.99 503.302 1287.32 501.633 1285.27 501.633V491.391C1292.96 491.391 1299.23 497.656 1299.23 505.356Z" fill="#FFB91A"/>
<path d="M1296.38 505.356H1291.83C1291.83 501.734 1288.89 498.788 1285.27 498.788V494.236C1291.4 494.236 1296.38 499.224 1296.38 505.356Z" fill="#FFD05E"/>
<path d="M1316.91 505.356H1306.67C1306.67 493.55 1297.07 483.944 1285.27 483.944V473.702C1302.72 473.702 1316.91 487.902 1316.91 505.356Z" fill="#FFB91A"/>
<path d="M1314.07 505.356H1309.52C1309.52 491.98 1298.64 481.099 1285.27 481.099V476.547C1301.15 476.547 1314.07 489.47 1314.07 505.356Z" fill="#FFD05E"/>
<path d="M1334.6 505.356H1324.36C1324.36 483.796 1306.82 466.255 1285.27 466.255V456.013C1312.47 456.013 1334.6 478.148 1334.6 505.356Z" fill="#FFB91A"/>
<path d="M1331.75 505.357H1327.2C1327.2 482.227 1308.39 463.41 1285.27 463.41V458.858C1310.9 458.858 1331.75 479.717 1331.75 505.357Z" fill="#FFD05E"/>
<path d="M1352.28 505.357H1342.04C1342.04 474.041 1316.57 448.565 1285.27 448.565V438.323C1322.22 438.323 1352.28 468.394 1352.28 505.357Z" fill="#FFB91A"/>
<path d="M1349.44 505.357H1344.89C1344.89 472.473 1318.14 445.72 1285.27 445.72V441.168C1320.65 441.168 1349.44 469.964 1349.44 505.357Z" fill="#FFD05E"/>
<path d="M1369.96 505.356H1359.73C1359.73 464.287 1326.32 430.875 1285.27 430.875V420.633C1331.97 420.633 1369.96 458.639 1369.96 505.356Z" fill="#FFB91A"/>
<path d="M1367.12 505.356H1362.57C1362.57 462.718 1327.89 428.031 1285.27 428.031V423.479C1330.4 423.479 1367.12 460.209 1367.12 505.356Z" fill="#FFD05E"/>
<path d="M1382.53 505.356H1294.11V770.168H1382.53V505.356Z" fill="#FEEE99"/>
<path d="M1299.23 505.356H1288.99V770.167H1299.23V505.356Z" fill="#FFB91A"/>
<path d="M1296.38 505.356H1291.83V770.167H1296.38V505.356Z" fill="#FFD05E"/>
<path d="M1316.91 505.356H1306.67V770.167H1316.91V505.356Z" fill="#FFB91A"/>
<path d="M1314.07 505.356H1309.52V770.167H1314.07V505.356Z" fill="#FFD05E"/>
<path d="M1334.6 505.356H1324.36V770.167H1334.6V505.356Z" fill="#FFB91A"/>
<path d="M1331.75 505.356H1327.2V770.167H1331.75V505.356Z" fill="#FFD05E"/>
<path d="M1352.28 505.356H1342.04V770.167H1352.28V505.356Z" fill="#FFB91A"/>
<path d="M1349.44 505.356H1344.88V770.167H1349.44V505.356Z" fill="#FFD05E"/>
<path d="M1369.96 505.356H1359.73V770.167H1369.96V505.356Z" fill="#FFB91A"/>
<path d="M1367.12 505.356H1362.57V770.167H1367.12V505.356Z" fill="#FFD05E"/>
<path d="M1387.65 505.356H1377.41V770.167H1387.65V505.356Z" fill="#FFB91A"/>
<path d="M1384.81 505.356H1380.25V770.167H1384.81V505.356Z" fill="#FFD05E"/>
</g>
<defs>
<clipPath id="clip0_1579_4883">
<rect width="1479" height="569" fill="white" transform="translate(-19)"/>
</clipPath>
</defs>
</svg>
