<svg width="94" height="94" viewBox="0 0 94 94" fill="none" xmlns="http://www.w3.org/2000/svg">
<g filter="url(#filter0_d_1579_2553)">
<rect x="4" width="86" height="86" rx="10" fill="white" shape-rendering="crispEdges"/>
<path d="M35.15 35.9687C35.45 37.2438 35.9469 38.4438 36.6313 39.5501C35.7341 40.2626 35.5531 41.6083 36.3969 42.4375C36.3969 42.4375 37.7187 43.7594 37.7187 43.7594C38.55 44.6004 39.8918 44.4248 40.6063 43.525C41.7219 44.2093 42.9125 44.7062 44.1875 45.0063V45.3437C44.1875 46.375 45.0313 47.2187 46.0625 47.2187H47.9375C49.1201 47.2254 49.9453 46.1471 49.8125 45.0063C51.0875 44.7062 52.2781 44.2093 53.3938 43.525C54.1063 44.4221 55.452 44.6031 56.2813 43.7594L57.6031 42.4375C58.4442 41.6063 58.2686 40.2645 57.3687 39.5501C58.0531 38.4438 58.55 37.2438 58.85 35.9688H59.1875C60.2188 35.9688 61.0625 35.125 61.0625 34.0938V32.2188C61.0625 31.1875 60.2188 30.3438 59.1875 30.3438H58.85C58.55 29.0688 58.0531 27.8688 57.3688 26.7625L57.6031 26.5282C58.3344 25.7969 58.3344 24.6063 57.6031 23.875L56.2813 22.5532C55.45 21.7121 54.1082 21.8877 53.3938 22.7876C52.2781 22.1031 51.0875 21.6063 49.8125 21.3063V20.9688C49.8125 19.9375 48.9687 19.0938 47.9375 19.0938H46.0625C44.8799 19.0871 44.0546 20.1654 44.1876 21.3063C42.9125 21.6063 41.7219 22.1031 40.6063 22.7875C39.8937 21.8904 38.548 21.7094 37.7187 22.5532C37.7187 22.5532 36.3969 23.875 36.3969 23.875C35.5558 24.7063 35.7314 26.048 36.6313 26.7625C35.9469 27.8688 35.45 29.0688 35.15 30.3438C34.0124 30.2115 32.9275 31.0356 32.9376 32.2188C32.9375 32.2188 32.9375 34.0938 32.9375 34.0938C32.9309 35.2764 34.0091 36.1016 35.15 35.9687ZM55.4375 33.1563C55.4375 37.8063 51.65 41.5937 47 41.5937C42.4655 41.6828 38.4708 37.6926 38.5626 33.1562C39.0315 21.9597 54.9672 21.9731 55.4375 33.1563ZM47.0001 26.5938C50.5296 26.5433 53.6154 29.6084 53.5625 33.1563C53.5625 36.775 50.6187 39.7188 47 39.7188C38.3091 39.4033 38.303 26.9225 47.0001 26.5938ZM73.25 60.3438C73.25 63.9625 70.3063 66.9063 66.6875 66.9063H27.3125C23.6938 66.9063 20.75 63.9625 20.75 60.3438C20.75 59.8282 21.1719 59.4063 21.6875 59.4063H42.3126C42.8275 59.3571 43.3159 60.046 43.6438 60.3438H50.3656C50.6952 60.0501 51.1782 59.3571 51.6875 59.4063H72.3125C72.8375 59.4063 73.25 59.8282 73.25 60.3438ZM42.3125 57.5313H22.625V35.0313C22.625 32.9594 24.3125 31.2813 26.375 31.2813H31.1844C31.1 31.5813 31.0625 31.9 31.0625 32.2188C31.0462 33.7385 30.8848 35.6047 32.1408 36.7187C32.5719 37.1501 33.1062 37.4688 33.6875 37.6657C33.8844 38.2563 34.1188 38.8282 34.4 39.3906C33.6555 40.8023 33.9053 42.6642 35.0751 43.7594C35.075 43.7594 36.3875 45.0813 36.3875 45.0813C37.4986 46.2359 39.3549 46.5019 40.7656 45.7562C41.3281 46.0281 41.9 46.2719 42.4812 46.4688C42.9594 47.9876 44.3844 49.0938 46.0625 49.0938H47.9469C49.0156 49.0938 50 48.6531 50.7218 47.8469C51.0781 47.4438 51.3406 46.975 51.5094 46.4688C52.1 46.2719 52.6719 46.0281 53.2344 45.7563C54.6404 46.501 56.5124 46.2366 57.6125 45.0812C57.6125 45.0813 58.9156 43.7688 58.9156 43.7688C59.6844 43.0188 60.0781 42.0063 60.0125 40.9281C59.9843 40.3844 59.8438 39.8594 59.6 39.3906C59.8719 38.8282 60.1156 38.2563 60.3125 37.6751C61.8313 37.1969 62.9375 35.7719 62.9375 34.0938V32.2188C62.9375 31.9 62.9 31.5813 62.8156 31.2813H67.625C69.6969 31.2813 71.375 32.9594 71.375 35.0313V57.5313H51.6875C50.8818 57.523 50.1326 57.8942 49.5875 58.4688H44.4219C43.8762 57.8774 43.1143 57.5284 42.3125 57.5313Z" fill="url(#paint0_linear_1579_2553)"/>
</g>
<defs>
<filter id="filter0_d_1579_2553" x="0" y="0" width="94" height="94" filterUnits="userSpaceOnUse" color-interpolation-filters="sRGB">
<feFlood flood-opacity="0" result="BackgroundImageFix"/>
<feColorMatrix in="SourceAlpha" type="matrix" values="0 0 0 0 0 0 0 0 0 0 0 0 0 0 0 0 0 0 127 0" result="hardAlpha"/>
<feOffset dy="4"/>
<feGaussianBlur stdDeviation="2"/>
<feComposite in2="hardAlpha" operator="out"/>
<feColorMatrix type="matrix" values="0 0 0 0 0 0 0 0 0 0 0 0 0 0 0 0 0 0 0.25 0"/>
<feBlend mode="normal" in2="BackgroundImageFix" result="effect1_dropShadow_1579_2553"/>
<feBlend mode="normal" in="SourceGraphic" in2="effect1_dropShadow_1579_2553" result="shape"/>
</filter>
<linearGradient id="paint0_linear_1579_2553" x1="20.75" y1="43" x2="73.25" y2="43" gradientUnits="userSpaceOnUse">
<stop stop-color="#FFDE00"/>
<stop offset="1" stop-color="#FAAB21"/>
</linearGradient>
</defs>
</svg>
