<svg width="709" height="445" viewBox="0 0 709 445" fill="none" xmlns="http://www.w3.org/2000/svg">
<path d="M265.923 111.598V99.2546C265.923 98.0468 264.944 97.0689 263.737 97.0689H260.56C259.631 97.0689 258.807 96.4367 258.599 95.5299C257.499 90.7371 255.627 86.2393 253.1 82.1858C252.596 81.3766 252.692 80.3337 253.365 79.6593L255.599 77.4255C256.453 76.5717 256.453 75.188 255.599 74.3342L246.872 65.6071C246.018 64.7533 244.634 64.7533 243.781 65.6071L241.549 67.8386C240.875 68.5129 239.832 68.6081 239.023 68.1035C234.969 65.5758 230.47 63.7008 225.675 62.599C224.768 62.3906 224.137 61.5681 224.137 60.6385V57.4713C224.137 56.2635 223.158 55.2856 221.951 55.2856H209.608C208.4 55.2856 207.422 56.2647 207.422 57.4713V60.6385C207.422 61.5681 206.79 62.3918 205.883 62.6002C201.088 63.7008 196.588 65.5758 192.534 68.1035C191.725 68.6081 190.682 68.5129 190.008 67.8386L187.779 65.6095C186.925 64.7557 185.541 64.7557 184.688 65.6095L175.961 74.3366C175.107 75.1904 175.107 76.5741 175.961 77.4279L178.192 79.6593C178.866 80.3337 178.962 81.3766 178.457 82.1858C175.931 86.2405 174.058 90.7395 172.957 95.5323C172.749 96.4391 171.926 97.0713 170.996 97.0713H167.822C166.615 97.0713 165.637 98.0504 165.637 99.257V111.6C165.637 112.808 166.616 113.786 167.822 113.786H170.997C171.926 113.786 172.75 114.418 172.957 115.324C174.059 120.118 175.933 124.617 178.458 128.668C178.963 129.477 178.868 130.52 178.193 131.194L175.958 133.43C175.104 134.283 175.104 135.667 175.958 136.521L184.685 145.249C185.539 146.103 186.924 146.103 187.777 145.249L190.013 143.013C190.687 142.338 191.73 142.243 192.538 142.747C196.59 145.271 201.087 147.141 205.881 148.242C206.788 148.45 207.42 149.272 207.42 150.203V153.387C207.42 154.595 208.399 155.573 209.606 155.573H221.949C223.157 155.573 224.135 154.594 224.135 153.387V150.203C224.135 149.272 224.767 148.45 225.674 148.242C230.467 147.142 234.963 145.271 239.014 142.747C239.824 142.243 240.866 142.338 241.54 143.013L243.777 145.25C244.631 146.104 246.016 146.104 246.868 145.25L255.595 136.522C256.449 135.668 256.449 134.283 255.595 133.431L253.359 131.196C252.685 130.521 252.59 129.478 253.094 128.669C255.619 124.617 257.492 120.12 258.593 115.326C258.801 114.42 259.623 113.787 260.554 113.787H263.734C264.944 113.784 265.923 112.805 265.923 111.598ZM215.776 140.227C196.555 140.227 180.996 124.636 180.996 105.415C180.996 86.2236 196.555 70.6336 215.776 70.6336C234.998 70.6336 250.558 86.2248 250.558 105.415C250.558 124.637 234.998 140.227 215.776 140.227Z" stroke="#DEE3FC" stroke-width="0.7896" stroke-miterlimit="10"/>
<path d="M322.692 153.38V144.969C322.692 144.146 322.025 143.479 321.202 143.479H319.037C318.402 143.479 317.842 143.048 317.7 142.43C316.951 139.164 315.675 136.098 313.953 133.336C313.61 132.784 313.675 132.074 314.133 131.615L315.656 130.093C316.237 129.511 316.237 128.568 315.656 127.985L309.708 122.038C309.126 121.456 308.183 121.456 307.6 122.038L306.08 123.559C305.62 124.019 304.909 124.082 304.358 123.739C301.595 122.016 298.529 120.738 295.262 119.988C294.644 119.846 294.214 119.286 294.214 118.651V116.493C294.214 115.671 293.547 115.004 292.725 115.004H284.313C283.491 115.004 282.823 115.671 282.823 116.493V118.651C282.823 119.285 282.392 119.846 281.774 119.988C278.506 120.738 275.439 122.016 272.677 123.738C272.125 124.081 271.414 124.016 270.954 123.557L269.436 122.039C268.854 121.457 267.911 121.457 267.329 122.039L261.381 127.987C260.799 128.568 260.799 129.511 261.381 130.094L262.902 131.615C263.361 132.074 263.426 132.785 263.082 133.337C261.36 136.099 260.084 139.167 259.335 142.432C259.193 143.05 258.633 143.481 257.998 143.481H255.835C255.013 143.481 254.346 144.149 254.346 144.971V153.383C254.346 154.205 255.013 154.872 255.835 154.872H257.999C258.633 154.872 259.194 155.303 259.336 155.921C260.086 159.188 261.364 162.254 263.085 165.015C263.428 165.567 263.363 166.278 262.904 166.738L261.382 168.261C260.8 168.843 260.8 169.785 261.382 170.367L267.33 176.315C267.911 176.896 268.855 176.896 269.437 176.315L270.962 174.79C271.42 174.331 272.132 174.265 272.683 174.61C275.444 176.329 278.509 177.605 281.776 178.354C282.393 178.496 282.825 179.056 282.825 179.69V181.86C282.825 182.683 283.492 183.35 284.314 183.35H292.726C293.548 183.35 294.215 182.683 294.215 181.86V179.69C294.215 179.056 294.647 178.496 295.264 178.354C298.53 177.605 301.595 176.329 304.356 174.61C304.908 174.266 305.618 174.331 306.077 174.79L307.602 176.316C308.183 176.898 309.127 176.898 309.709 176.316L315.657 170.368C316.238 169.787 316.238 168.843 315.657 168.261L314.132 166.738C313.672 166.279 313.607 165.567 313.952 165.015C315.672 162.254 316.949 159.189 317.699 155.922C317.841 155.305 318.401 154.873 319.036 154.873H321.202C322.025 154.871 322.692 154.204 322.692 153.38ZM288.518 171.554C276.159 171.554 266.153 161.529 266.153 149.169C266.153 136.828 276.159 126.803 288.518 126.803C300.878 126.803 310.884 136.828 310.884 149.169C310.884 161.529 300.878 171.554 288.518 171.554Z" fill="#DEE3FC"/>
<path d="M164.294 376.101C166.546 376.101 168.372 374.275 168.372 372.023C168.372 369.771 166.546 367.946 164.294 367.946C162.042 367.946 160.217 369.771 160.217 372.023C160.217 374.275 162.042 376.101 164.294 376.101Z" fill="#A4AFFF"/>
<path d="M710.574 264.684C712.826 264.684 714.651 262.858 714.651 260.606C714.651 258.354 712.826 256.529 710.574 256.529C708.322 256.529 706.496 258.354 706.496 260.606C706.496 262.858 708.322 264.684 710.574 264.684Z" fill="#A4AFFF"/>
<path d="M702.415 119.082C704.667 119.082 706.493 117.256 706.493 115.004C706.493 112.752 704.667 110.927 702.415 110.927C700.163 110.927 698.338 112.752 698.338 115.004C698.338 117.256 700.163 119.082 702.415 119.082Z" fill="#A4AFFF"/>
<path d="M555.81 68.0726C557.222 68.0726 558.368 66.9275 558.368 65.5148C558.368 64.1022 557.222 62.957 555.81 62.957C554.397 62.957 553.252 64.1022 553.252 65.5148C553.252 66.9275 554.397 68.0726 555.81 68.0726Z" fill="#A4AFFF"/>
<path d="M180.256 31.4435C180.256 32.8561 179.111 34.0013 177.698 34.0013C176.286 34.0013 175.141 32.8561 175.141 31.4435C175.141 30.031 176.286 28.8857 177.698 28.8857C179.111 28.8857 180.256 30.031 180.256 31.4435Z" fill="#A4AFFF"/>
<path d="M236.866 188.952C236.866 190.365 235.72 191.51 234.308 191.51C232.895 191.51 231.75 190.365 231.75 188.952C231.75 187.54 232.895 186.395 234.308 186.395C235.72 186.395 236.866 187.54 236.866 188.952Z" fill="#A4AFFF"/>
<path d="M143.037 376.102C143.037 377.515 141.892 378.66 140.48 378.66C139.067 378.66 137.922 377.515 137.922 376.102C137.922 374.69 139.067 373.544 140.48 373.544C141.892 373.544 143.037 374.69 143.037 376.102Z" fill="#A4AFFF"/>
<path d="M650.757 378.511C653.009 378.511 654.835 376.685 654.835 374.433C654.835 372.181 653.009 370.356 650.757 370.356C648.505 370.356 646.68 372.181 646.68 374.433C646.68 376.685 648.505 378.511 650.757 378.511Z" fill="#A4AFFF"/>
<path d="M250.56 24.4024C252.812 24.4024 254.637 22.5768 254.637 20.3248C254.637 18.0729 252.812 16.2473 250.56 16.2473C248.308 16.2473 246.482 18.0729 246.482 20.3248C246.482 22.5768 248.308 24.4024 250.56 24.4024Z" fill="#A4AFFF"/>
<path d="M531.895 205.848C531.895 208.861 529.452 211.304 526.439 211.304C523.426 211.304 520.982 208.862 520.982 205.848C520.982 202.834 523.425 200.391 526.439 200.391C529.453 200.391 531.895 202.835 531.895 205.848Z" fill="#A4AFFF"/>
<path d="M129.483 138.38C129.483 141.393 127.041 143.836 124.027 143.836C121.014 143.836 118.57 141.393 118.57 138.38C118.57 135.367 121.013 132.923 124.027 132.923C127.041 132.925 129.483 135.367 129.483 138.38Z" fill="#A4AFFF"/>
<path d="M114.13 56.9368H107.268C106.826 56.9368 106.469 56.5791 106.469 56.1372V49.2767C106.469 48.8347 106.826 48.4771 107.268 48.4771H114.13C114.572 48.4771 114.93 48.8347 114.93 49.2767V56.1372C114.93 56.5791 114.572 56.9368 114.13 56.9368Z" fill="white"/>
<path d="M125.45 56.9368H118.589C118.147 56.9368 117.789 56.5791 117.789 56.1372V49.2767C117.789 48.8347 118.147 48.4771 118.589 48.4771H125.45C125.892 48.4771 126.25 48.8347 126.25 49.2767V56.1372C126.25 56.5791 125.892 56.9368 125.45 56.9368Z" fill="white"/>
<path d="M136.764 56.9368H129.903C129.461 56.9368 129.104 56.5791 129.104 56.1372V49.2767C129.104 48.8347 129.461 48.4771 129.903 48.4771H136.764C137.206 48.4771 137.563 48.8347 137.563 49.2767V56.1372C137.563 56.5791 137.206 56.9368 136.764 56.9368Z" fill="white"/>
<path d="M690.45 354.061H683.589C683.147 354.061 682.789 353.704 682.789 353.262V346.401C682.789 345.959 683.147 345.602 683.589 345.602H690.45C690.892 345.602 691.25 345.959 691.25 346.401V353.262C691.25 353.704 690.892 354.061 690.45 354.061Z" fill="#DEE3FC"/>
<path d="M701.767 354.062H694.905C694.463 354.062 694.105 353.704 694.105 353.262V346.401C694.105 345.959 694.463 345.602 694.905 345.602H701.767C702.209 345.602 702.566 345.959 702.566 346.401V353.262C702.566 353.704 702.209 354.062 701.767 354.062Z" fill="#DEE3FC"/>
<path d="M713.087 354.062H706.225C705.783 354.062 705.426 353.704 705.426 353.262V346.401C705.426 345.959 705.783 345.602 706.225 345.602H713.087C713.529 345.602 713.887 345.959 713.887 346.401V353.262C713.887 353.704 713.529 354.062 713.087 354.062Z" fill="#DEE3FC"/>
<path d="M167.255 349.425H160.393C159.951 349.425 159.594 349.067 159.594 348.625V341.765C159.594 341.323 159.951 340.965 160.393 340.965H167.255C167.697 340.965 168.055 341.323 168.055 341.765V348.625C168.055 349.066 167.696 349.425 167.255 349.425Z" fill="#DEE3FC"/>
<path d="M178.57 349.425H171.708C171.266 349.425 170.908 349.067 170.908 348.625V341.765C170.908 341.323 171.266 340.965 171.708 340.965H178.57C179.011 340.965 179.369 341.323 179.369 341.765V348.625C179.369 349.066 179.011 349.425 178.57 349.425Z" fill="#DEE3FC"/>
<path d="M189.889 349.425H183.028C182.586 349.425 182.229 349.067 182.229 348.625V341.765C182.229 341.323 182.586 340.965 183.028 340.965H189.889C190.331 340.965 190.688 341.323 190.688 341.765V348.625C190.688 349.066 190.331 349.425 189.889 349.425Z" fill="#DEE3FC"/>
<path d="M473.978 422.144H311.043C296.844 422.144 285.334 410.634 285.334 396.435V33.7653C285.334 19.5662 296.844 8.05615 311.043 8.05615H473.978C488.177 8.05615 499.687 19.5662 499.687 33.7653V396.435C499.687 410.634 488.177 422.144 473.978 422.144Z" fill="#FFC649"/>
<path d="M473.149 416.258H311.861C299.424 416.258 289.342 406.177 289.342 393.739V34.201C289.342 21.7637 299.424 11.6819 311.861 11.6819H473.15C485.587 11.6819 495.669 21.7637 495.669 34.201V393.739C495.668 406.177 485.586 416.258 473.149 416.258Z" fill="white"/>
<path d="M486.636 33.4953V392.616C486.636 401.038 479.808 407.866 471.385 407.866H313.623C305.201 407.866 298.373 401.038 298.373 392.616V33.4953C298.373 25.0729 305.201 18.2449 313.623 18.2449H339.931C341.391 18.2449 342.726 19.0698 343.38 20.3752L346.174 25.952C347.447 28.5254 350.074 30.1367 352.932 30.1367H432.077C434.934 30.1367 437.562 28.5254 438.835 25.952L441.629 20.3752C442.283 19.0698 443.617 18.2449 445.078 18.2449H471.385C479.808 18.2449 486.636 25.0717 486.636 33.4953Z" fill="#FFFBE2"/>
<path d="M425.724 23.6121H361.979C360.497 23.6121 359.295 22.4103 359.295 20.9279C359.295 19.4455 360.497 18.2437 361.979 18.2437H425.724C427.206 18.2437 428.408 19.4455 428.408 20.9279C428.408 22.4103 427.206 23.6121 425.724 23.6121Z" fill="#DEE3FC"/>
<path d="M461.596 395.402H319.747C314.173 395.402 309.656 390.885 309.656 385.312V335.225C309.656 329.652 314.173 325.135 319.747 325.135H461.596C467.169 325.135 471.686 329.652 471.686 335.225V385.312C471.686 390.885 467.169 395.402 461.596 395.402Z" stroke="#698BD1" stroke-miterlimit="10" stroke-linecap="round" stroke-linejoin="round" stroke-dasharray="2.84 2.84"/>
<path d="M454.407 222.972H384.04C380.02 222.972 376.762 219.714 376.762 215.694V180.916C376.762 176.896 380.02 173.637 384.04 173.637H454.407C458.427 173.637 461.685 176.896 461.685 180.916V215.694C461.685 219.714 458.427 222.972 454.407 222.972Z" stroke="#698BD1" stroke-miterlimit="10" stroke-linecap="round" stroke-linejoin="round" stroke-dasharray="2.84 2.84"/>
<path d="M469.558 313.446H324.228C319.439 313.446 315.557 309.564 315.557 304.775V243.478C315.557 238.689 319.439 234.806 324.228 234.806H469.558C474.347 234.806 478.229 238.689 478.229 243.478V304.775C478.229 309.564 474.347 313.446 469.558 313.446Z" fill="#FEEE99"/>
<path d="M471.686 237.103V298.434C471.686 303.215 467.808 307.08 463.027 307.08H318.315C313.534 307.08 309.656 303.215 309.656 298.434V237.103C309.656 232.322 313.534 228.444 318.315 228.444H463.027C467.808 228.444 471.686 232.322 471.686 237.103Z" fill="#FFD9A8"/>
<path d="M365.63 300.69H322.996C319.763 300.69 317.143 298.069 317.143 294.836V252.203C317.143 248.97 319.763 246.349 322.996 246.349H365.63C368.863 246.349 371.484 248.969 371.484 252.203V294.836C371.484 298.069 368.863 300.69 365.63 300.69Z" fill="white"/>
<path d="M416.157 253.225H378.61C377.589 253.225 376.762 252.398 376.762 251.377C376.762 250.355 377.589 249.528 378.61 249.528H416.157C417.178 249.528 418.005 250.355 418.005 251.377C418.007 252.398 417.178 253.225 416.157 253.225Z" fill="#B2C1F9"/>
<path d="M399.047 260.607H378.61C377.589 260.607 376.762 259.78 376.762 258.758C376.762 257.737 377.589 256.91 378.61 256.91H399.047C400.068 256.91 400.896 257.737 400.896 258.758C400.896 259.778 400.068 260.607 399.047 260.607Z" fill="#B2C1F9"/>
<path d="M461.868 260.607H406.567C405.546 260.607 404.719 259.779 404.719 258.758C404.719 257.737 405.546 256.91 406.567 256.91H461.868C462.889 256.91 463.717 257.737 463.717 258.758C463.717 259.778 462.888 260.607 461.868 260.607Z" fill="#B2C1F9"/>
<path d="M410.234 267.988H378.614C377.593 267.988 376.766 267.16 376.766 266.139C376.766 265.118 377.593 264.291 378.614 264.291H410.234C411.255 264.291 412.082 265.118 412.082 266.139C412.082 267.16 411.254 267.988 410.234 267.988Z" fill="#B2C1F9"/>
<path d="M437.071 267.988H417.192C416.171 267.988 415.344 267.16 415.344 266.139C415.344 265.118 416.171 264.291 417.192 264.291H437.071C438.092 264.291 438.919 265.118 438.919 266.139C438.919 267.16 438.09 267.988 437.071 267.988Z" fill="#B2C1F9"/>
<path d="M461.869 267.988H443.563C442.542 267.988 441.715 267.16 441.715 266.139C441.715 265.118 442.542 264.291 443.563 264.291H461.869C462.89 264.291 463.717 265.118 463.717 266.139C463.717 267.16 462.889 267.988 461.869 267.988Z" fill="#B2C1F9"/>
<path d="M461.87 275.368H378.61C377.589 275.368 376.762 274.541 376.762 273.52C376.762 272.499 377.589 271.671 378.61 271.671H461.87C462.891 271.671 463.718 272.499 463.718 273.52C463.718 274.541 462.89 275.368 461.87 275.368Z" fill="#B2C1F9"/>
<path d="M424.436 282.749H378.614C377.593 282.749 376.766 281.922 376.766 280.901C376.766 279.879 377.593 279.052 378.614 279.052H424.436C425.458 279.052 426.285 279.879 426.285 280.901C426.285 281.922 425.456 282.749 424.436 282.749Z" fill="#B2C1F9"/>
<path d="M461.871 282.749H431.823C430.802 282.749 429.975 281.922 429.975 280.901C429.975 279.879 430.802 279.052 431.823 279.052H461.871C462.892 279.052 463.72 279.879 463.72 280.901C463.72 281.922 462.891 282.749 461.871 282.749Z" fill="#B2C1F9"/>
<path d="M405.533 290.13H378.61C377.589 290.13 376.762 289.302 376.762 288.281C376.762 287.26 377.589 286.433 378.61 286.433H405.533C406.554 286.433 407.382 287.26 407.382 288.281C407.382 289.302 406.554 290.13 405.533 290.13Z" fill="#B2C1F9"/>
<path d="M439.744 290.13H412.821C411.8 290.13 410.973 289.302 410.973 288.281C410.973 287.26 411.8 286.433 412.821 286.433H439.744C440.765 286.433 441.593 287.26 441.593 288.281C441.593 289.302 440.765 290.13 439.744 290.13Z" fill="#B2C1F9"/>
<path d="M461.869 290.13H446.247C445.226 290.13 444.398 289.302 444.398 288.281C444.398 287.26 445.226 286.433 446.247 286.433H461.869C462.891 286.433 463.718 287.26 463.718 288.281C463.718 289.302 462.889 290.13 461.869 290.13Z" fill="#B2C1F9"/>
<path d="M416.157 297.512H378.61C377.589 297.512 376.762 296.684 376.762 295.663C376.762 294.642 377.589 293.815 378.61 293.815H416.157C417.178 293.815 418.005 294.642 418.005 295.663C418.007 296.683 417.178 297.512 416.157 297.512Z" fill="#B2C1F9"/>
<path d="M461.87 253.225H424.323C423.302 253.225 422.475 252.398 422.475 251.377C422.475 250.355 423.302 249.528 424.323 249.528H461.87C462.891 249.528 463.718 250.355 463.718 251.377C463.718 252.398 462.89 253.225 461.87 253.225Z" fill="#B2C1F9"/>
<path d="M471.686 237.103V239.68H309.656V237.103C309.656 232.322 313.534 228.444 318.315 228.444H463.027C467.808 228.444 471.686 232.322 471.686 237.103Z" fill="#FFC649"/>
<path d="M441.148 234.265C441.148 235.374 440.249 236.272 439.14 236.272C438.031 236.272 437.133 235.374 437.133 234.265C437.133 233.157 438.031 232.257 439.14 232.257C440.249 232.257 441.148 233.157 441.148 234.265Z" fill="#DEE3FC"/>
<path d="M451.415 234.265C451.415 235.374 450.517 236.272 449.408 236.272C448.299 236.272 447.4 235.374 447.4 234.265C447.4 233.157 448.299 232.257 449.408 232.257C450.517 232.257 451.415 233.157 451.415 234.265Z" fill="#DEE3FC"/>
<path d="M461.685 234.265C461.685 235.374 460.787 236.272 459.677 236.272C458.568 236.272 457.67 235.374 457.67 234.265C457.67 233.157 458.568 232.257 459.677 232.257C460.785 232.258 461.685 233.157 461.685 234.265Z" fill="#DEE3FC"/>
<path d="M359.818 222.972H327.75C322.995 222.972 319.139 219.116 319.139 214.36V182.293C319.139 177.537 322.995 173.681 327.75 173.681H359.818C364.573 173.681 368.429 177.536 368.429 182.293V214.36C368.428 219.117 364.573 222.972 359.818 222.972Z" stroke="#495AD6" stroke-width="0.8956" stroke-miterlimit="10"/>
<path d="M336.099 191.198L328.998 198.299L336.156 205.456" stroke="#495AD6" stroke-width="1.6716" stroke-miterlimit="10" stroke-linecap="round" stroke-linejoin="round"/>
<path d="M351.473 191.198L358.575 198.299L351.418 205.456" stroke="#495AD6" stroke-width="1.6716" stroke-miterlimit="10" stroke-linecap="round" stroke-linejoin="round"/>
<path d="M347.111 191.198L340.461 205.456" stroke="#495AD6" stroke-width="1.6716" stroke-miterlimit="10" stroke-linecap="round" stroke-linejoin="round"/>
<path d="M471.686 53.3724V153.649C471.686 159.092 467.278 163.499 461.835 163.499H319.507C314.076 163.499 309.656 159.092 309.656 153.649V53.3724C309.656 47.9292 314.076 43.5217 319.507 43.5217H461.835C467.278 43.5217 471.686 47.9292 471.686 53.3724Z" fill="#FEEE99"/>
<path d="M438.873 98.6878C451.842 98.6878 462.356 88.1743 462.356 75.2052C462.356 62.2362 451.842 51.7227 438.873 51.7227C425.904 51.7227 415.391 62.2362 415.391 75.2052C415.391 88.1743 425.904 98.6878 438.873 98.6878Z" fill="#F0F4FF"/>
<path d="M404.899 163.5H319.507C314.076 163.5 309.656 159.093 309.656 153.649V137.862L347.024 73.1344C348.974 69.7505 353.864 69.7505 355.814 73.1344L384.03 122.002L404.983 158.298C405.995 160.032 405.838 162.007 404.899 163.5Z" fill="white"/>
<path d="M441.725 163.5H360.066L384.031 122.002L396.94 99.6395C398.698 96.5928 403.094 96.5928 404.852 99.6395L441.725 163.5Z" fill="#F0F4FF"/>
<path d="M603.693 349.831H540.74V444.439H603.693V349.831Z" fill="#DDCF85"/>
<path d="M603.693 444.44H627.797V349.832H603.693V444.44Z" fill="#FFE4A9"/>
<path d="M624.844 353.464H607.146V356.483H624.844V353.464Z" fill="#B2C1F9"/>
<path d="M624.844 359.951H607.146V362.97H624.844V359.951Z" fill="#B2C1F9"/>
<path d="M624.844 366.437H607.146V369.456H624.844V366.437Z" fill="#B2C1F9"/>
<path d="M624.844 372.923H607.146V375.942H624.844V372.923Z" fill="#B2C1F9"/>
<path d="M624.844 379.409H607.146V382.428H624.844V379.409Z" fill="#B2C1F9"/>
<path d="M624.844 385.896H607.146V388.915H624.844V385.896Z" fill="#B2C1F9"/>
<path d="M624.844 392.382H607.146V395.401H624.844V392.382Z" fill="#B2C1F9"/>
<path d="M624.844 398.868H607.146V401.887H624.844V398.868Z" fill="#B2C1F9"/>
<path d="M624.844 405.354H607.146V408.373H624.844V405.354Z" fill="#B2C1F9"/>
<path d="M624.844 411.841H607.146V414.86H624.844V411.841Z" fill="#B2C1F9"/>
<path d="M624.844 418.328H607.146V421.347H624.844V418.328Z" fill="#B2C1F9"/>
<path d="M624.844 424.813H607.146V427.832H624.844V424.813Z" fill="#B2C1F9"/>
<path d="M624.844 431.301H607.146V434.32H624.844V431.301Z" fill="#B2C1F9"/>
<path d="M624.844 437.787H607.146V440.806H624.844V437.787Z" fill="#B2C1F9"/>
<path d="M530.516 444.439H562.51C562.51 444.439 564.299 438.741 560.423 431.683C560.423 431.683 557.847 433.749 550.134 432.352C550.134 432.352 546.915 435.085 544.692 436.153C542.457 437.236 529.654 439.751 530.516 444.439Z" fill="#281616"/>
<path d="M532.744 354.224C534.811 366.554 544.346 408.27 548.445 432.915C555.937 433.553 559.535 432.693 561.441 432.254C561.068 423.66 560.328 403.105 560.415 394.09C560.557 378.855 561.272 358.765 554.566 347.739L532.016 349.514C532.153 350.705 532.277 351.673 532.388 352.366C532.496 353.031 532.62 353.644 532.744 354.224Z" fill="#002C54"/>
<path d="M472.645 444.439H504.639C504.639 444.439 506.427 438.741 502.552 431.683C502.552 431.683 499.976 433.749 492.263 432.352C492.263 432.352 489.044 435.085 486.821 436.153C484.586 437.236 471.783 439.751 472.645 444.439Z" fill="#281616"/>
<path d="M491.336 432.193C497.45 433.707 501.878 433.559 503.974 433.323C505.676 423.418 508.363 401.621 510.782 391.406C514.534 375.527 518.207 353.688 515.655 345.896L493.473 340.326C493.399 341.028 491.592 407.865 491.336 432.193Z" fill="#052635"/>
<path d="M579.619 317.588C579.174 313.204 578.661 310.002 578.661 310.002L553.878 316.068L532.825 320.864C525.02 322.603 515.593 324.696 507.281 326.575C497.954 328.694 491.762 335.779 493.804 345.119L496.142 356.447C509.187 356.269 570.522 350.39 575.768 347.74C581.695 344.747 583.479 334.164 579.619 317.588Z" fill="#052635"/>
<path d="M616.617 317.587C616.172 313.204 614.034 308.5 614.034 308.5L590.876 316.067L569.823 320.864C562.019 322.603 552.591 324.696 544.279 326.574C534.952 328.694 528.76 335.778 530.802 345.118L533.14 356.447C546.185 356.268 600.71 354.368 612.766 347.74C618.584 344.54 620.477 334.163 616.617 317.587Z" fill="#002C54"/>
<path d="M547.25 282.069C547.25 282.069 558.258 277.097 561.288 282.083C562.946 284.813 561.8 289.884 558.045 292.013C554.29 294.143 533.075 303.115 513.052 308.119C513.052 308.119 512.196 305.334 510.818 302.407C510.818 302.407 519.801 298.681 528.731 292.41C537.661 286.137 547.25 282.069 547.25 282.069Z" fill="#E5918F"/>
<path d="M550.002 247.694L540.568 285.375C540.568 285.375 541.544 294.902 551.164 290.226C560.785 285.55 567.16 255.53 567.16 255.53L550.002 247.694Z" fill="#E5918F"/>
<path d="M565.961 268.769C564.794 268.487 563.68 268.179 562.606 267.856C561.505 267.535 560.459 267.199 559.465 266.85C550.501 263.776 545.656 260.085 545.656 260.085C548.474 247.833 551.87 239.606 554.889 234.185C554.97 234.051 555.051 233.929 555.118 233.782C555.199 233.649 555.279 233.514 555.36 233.38C556.983 230.683 559.318 228.415 561.922 226.55C562.19 226.362 562.446 226.187 562.714 226L563.828 245.673L564.016 247.7L565.961 268.769Z" fill="white"/>
<path d="M565.962 268.769C564.796 268.487 563.682 268.179 562.607 267.856C561.507 267.534 560.46 267.198 559.467 266.849C561.349 253.597 563.051 245.271 563.051 245.271L564.016 247.699L565.962 268.769Z" fill="#C7E5F2"/>
<path d="M621.656 234.75C621.429 240.574 620.409 249.928 619.522 259.322C619.241 262.301 618.972 265.294 618.744 268.179C618.583 269.977 615.872 279.572 615.765 281.291C615.282 289.504 611.257 295.65 615.068 308.157C615.981 311.15 616.208 312.694 616.208 313.928C616.208 314.787 615.094 315.686 614.651 315.927C613.054 316.853 609.914 317.497 606.102 317.967H606.089C598.588 318.88 588.469 319.054 582.362 319.054C574.163 319.054 561.856 317.753 560.299 315.686C558.877 313.794 560.192 311.043 560.863 307.244C563.882 290.107 562.809 281.169 562.621 268.797C562.621 268.489 562.608 268.179 562.608 267.858C562.3 248.774 561.038 232.442 561.924 226.551C562.192 226.363 562.448 226.189 562.716 226.001C564.018 225.115 565.293 224.323 566.528 223.625C566.635 223.571 566.77 223.491 566.903 223.411C567.279 223.196 567.668 222.995 568.031 222.793C568.164 222.712 568.312 222.645 568.46 222.578C571.239 221.222 575.291 219.774 577.613 218.968C577.908 218.874 578.176 218.78 578.404 218.713C580.592 218.579 582.967 218.551 585.53 218.619C587.758 218.686 591.166 218.981 594.871 219.464C594.884 219.464 594.884 219.464 594.884 219.464C599.071 220.001 603.647 220.793 607.284 221.786C607.284 221.786 607.324 221.799 607.351 221.812C608.035 222.027 612.478 223.691 617.108 228.643C618.649 230.281 620.233 232.293 621.656 234.75Z" fill="white"/>
<path d="M615.063 308.156C615.976 311.149 616.203 312.693 616.203 313.927C616.203 314.786 615.09 315.685 614.646 315.926C613.05 316.852 609.909 317.496 606.098 317.966C607.668 317.778 610.379 315.287 610.379 313.041C610.379 311.468 608.339 300.842 608.902 293.985C609.466 287.141 610.58 276.244 608.459 267.521C606.325 258.797 604.326 247.323 604.326 247.323L616.283 254.543C616.283 254.543 617.827 256.703 619.518 259.32C619.236 262.299 618.967 265.292 618.74 268.177C618.579 269.976 611.252 295.649 615.063 308.156Z" fill="#C7E5F2"/>
<path d="M562.457 184.313C562.457 184.313 563.491 196.819 567.639 197.66C571.785 198.501 570.767 193.186 570.767 193.186L570.188 187.248L562.457 184.313Z" fill="#002C54"/>
<path d="M581.583 229.636C573.464 228.671 576.496 220.779 577.61 218.968C577.905 218.874 579.301 218.444 579.408 218.378C579.421 218.365 579.435 218.365 579.435 218.365C579.703 218.15 579.904 217.828 580.066 217.425C580.857 215.346 580.495 211.198 580.468 210.93C580.468 210.917 580.468 210.917 580.468 210.917V210.165C580.601 209.669 580.736 209.199 580.844 208.756L585.111 205.401L594.143 198.302C594.143 198.302 591.741 210.178 593.673 217.668C593.822 218.231 594.117 219.023 594.868 219.465C594.868 219.479 594.881 219.465 594.881 219.465C595.123 219.627 595.418 219.734 595.781 219.787C597.995 220.832 594.909 231.22 581.583 229.636Z" fill="#E5918F"/>
<path d="M588.736 205.848C588.736 205.848 588.66 213.774 580.057 217.419C580.856 215.35 580.488 211.202 580.463 210.934L584.067 208.104L588.736 205.848Z" fill="#CC6362"/>
<path d="M564.441 186.094C564.441 186.094 566.318 212.041 573.324 214.246C573.324 214.246 582.251 215.087 588.66 206.466C590.506 203.983 592.84 203.424 593.602 200.424C594.84 195.552 596.586 186.566 594.358 181.15C591.186 173.437 564.742 167.314 564.441 186.094Z" fill="#E5918F"/>
<path d="M594.468 176.868C594.352 172.155 589.582 170.393 589.582 170.393C584.832 168.17 574.963 169.129 564.787 171.399C562.401 171.932 559.407 170.467 557.741 171.623C555.727 173.02 557.732 179.403 557.732 179.403C561.657 191.29 576.101 187.424 580.442 185.957C581.474 189.017 581.34 193.273 583.914 195.467C585.38 196.717 587.929 196.753 590.52 196.321C590.839 196.928 592.037 197.461 592.281 198.295C593.097 201.074 592.98 205.418 592.955 208.77L594.18 208.172C594.34 207.265 607.008 177.257 594.468 176.868Z" fill="#002C54"/>
<path d="M571.629 194.832C571.995 196.987 570.933 198.965 569.255 199.251C567.578 199.536 565.921 198.021 565.555 195.866C565.189 193.711 566.251 191.733 567.928 191.447C569.606 191.162 571.263 192.677 571.629 194.832Z" stroke="white" stroke-width="0.501" stroke-miterlimit="10"/>
<path d="M580.098 193.251C580.464 195.405 579.401 197.384 577.724 197.669C576.046 197.954 574.389 196.439 574.023 194.284C573.657 192.13 574.719 190.151 576.397 189.866C578.074 189.58 579.731 191.096 580.098 193.251Z" stroke="white" stroke-width="0.501" stroke-miterlimit="10"/>
<path d="M571.631 194.833C571.631 194.833 572.002 194.231 573.951 194.399" stroke="white" stroke-width="0.501" stroke-miterlimit="10"/>
<path d="M580.172 193.767L587.408 192.611" stroke="white" stroke-width="0.501" stroke-miterlimit="10"/>
<path d="M587.936 201.797C592.919 203.707 594.476 191.439 589.744 190.896C586.155 190.484 586.008 195.491 586.008 195.491C586.008 195.491 585.091 200.707 587.936 201.797Z" fill="#E5918F"/>
<g opacity="0.5">
<path d="M589.581 192.744C589.581 192.744 589.258 193.076 588.963 193.623C588.666 194.169 588.403 194.916 588.355 195.715C588.308 196.111 588.319 196.518 588.337 196.905C588.35 197.294 588.397 197.659 588.424 197.983C588.459 198.309 588.488 198.583 588.507 198.773C588.526 198.968 588.526 199.086 588.526 199.086C588.526 199.086 588.454 198.997 588.348 198.832C588.256 198.661 588.067 198.433 587.941 198.118C587.801 197.807 587.654 197.432 587.576 197.005C587.478 196.582 587.452 196.11 587.488 195.637C587.533 195.165 587.655 194.693 587.855 194.289C588.046 193.88 588.32 193.551 588.577 193.312C589.114 192.835 589.581 192.744 589.581 192.744Z" fill="#CC6362"/>
<path d="M590.36 195.073C590.36 195.073 590.157 195.095 589.878 195.201C589.598 195.3 589.254 195.496 588.994 195.761C588.728 196.021 588.557 196.341 588.471 196.593C588.38 196.841 588.351 197.017 588.351 197.017L587.529 196.723C587.529 196.723 587.626 196.514 587.827 196.237C588.021 195.957 588.346 195.623 588.735 195.411C589.119 195.19 589.539 195.09 589.849 195.069C590.158 195.039 590.36 195.073 590.36 195.073Z" fill="#CC6362"/>
</g>
<path d="M635.852 287.035C635.852 287.035 635.852 287.035 635.851 287.047C633.66 289.588 625.349 291.44 621.35 287.925C620.094 286.805 618.675 283.855 617.28 280.194C613.734 270.833 610.379 256.829 610.379 256.829L628.98 247.324C628.98 247.324 631.372 258.054 633.434 268.25C633.434 268.25 633.452 268.354 633.491 268.534C634.161 271.8 634.786 275.013 635.276 277.77C635.297 277.848 635.304 277.912 635.311 277.989C635.803 281.28 636.118 284.712 635.852 287.035Z" fill="#E5918F"/>
<path d="M603.357 243.802C605.154 251.271 610.8 265.426 610.8 265.426C614.754 266.082 620.058 265.354 624.452 263.775C629.524 261.953 633.147 258.127 633.147 258.127C633.147 258.127 629.403 247.603 626.043 240.043C623.026 233.256 621.215 230.722 619.91 229.377C617.943 227.319 614.774 224.958 612.524 223.885L603.357 243.802Z" fill="white"/>
<path d="M626.879 248.68L615.964 243.97L607.363 221.81C607.363 221.81 608.94 222.289 611.015 223.127C611.015 223.127 611.015 223.127 611.024 223.127C611.064 223.147 611.154 223.176 611.304 223.237C611.353 223.257 611.413 223.276 611.464 223.306C613.319 224.175 620.514 228.415 625.492 243.821C625.532 243.951 625.571 244.079 625.611 244.21C626.14 245.986 626.529 247.413 626.738 248.151C626.759 248.221 626.778 248.291 626.798 248.37C626.83 248.47 626.85 248.58 626.879 248.68Z" fill="white"/>
<path d="M635.854 287.035C635.854 287.035 635.854 287.035 635.853 287.047C635.693 288.409 635.317 289.388 634.644 289.734C634.537 289.803 633.01 290.712 632.903 290.781C630.628 292.172 626.503 294.537 621.373 296.743C608.931 302.119 590.856 308.353 581.111 311.21C581.111 311.21 580.149 308.457 578.648 305.589C578.648 305.589 587.463 301.496 596.127 294.86C604.803 288.238 617.281 280.193 617.281 280.193L620.433 276.487C620.433 276.487 631.636 266.176 633.435 268.251C633.435 268.251 633.453 268.355 633.492 268.535C633.759 269.611 634.648 273.566 635.277 277.77C635.298 277.849 635.305 277.913 635.312 277.99C635.805 281.28 636.12 284.712 635.854 287.035Z" fill="#E5918F"/>
<path d="M579.939 304.96C579.939 304.96 577.749 306.28 575.517 305.81C574.283 305.55 573.784 305.045 572.872 304.885C571.959 304.725 569.527 304.425 568.323 303.834C567.12 303.244 566.649 303.178 566.693 304.387C566.735 305.596 569.11 306.64 569.754 306.976C570.398 307.311 571.206 308.382 571.293 308.517C571.38 308.652 567.335 310.769 566.247 310.339C566.247 310.339 565.923 311.313 566.107 311.857C566.292 312.401 567.124 312.591 567.188 312.865C567.253 313.138 566.996 313.697 567.177 314.13C567.357 314.564 568.099 314.566 568.399 315.271C568.699 315.975 568.369 315.987 568.587 316.722C568.805 317.457 569.745 317.589 569.924 317.968C570.102 318.347 570.008 318.791 570.402 319.052C570.797 319.313 574.435 318.145 575.763 317.577C577.091 317.007 580.64 311.899 584.567 310.157L579.939 304.96Z" fill="#E5918F"/>
<path d="M598.532 327.766H570.236V324.997H598.532C599.297 324.997 599.917 325.617 599.917 326.382C599.917 327.145 599.297 327.766 598.532 327.766Z" fill="#375F84"/>
<path d="M583.22 327.765H512.371C511.523 327.765 510.778 327.2 510.552 326.383L496.051 274.183C495.731 273.028 496.599 271.884 497.799 271.884H566.311C567.908 271.884 569.308 272.949 569.736 274.487L584.184 326.499C584.359 327.136 583.88 327.765 583.22 327.765Z" fill="#375F84"/>
<path d="M580.657 327.765H509.809C508.961 327.765 508.217 327.2 507.989 326.383L493.489 274.183C493.169 273.028 494.037 271.884 495.236 271.884H563.749C565.345 271.884 566.746 272.949 567.173 274.487L581.622 326.499C581.798 327.136 581.318 327.765 580.657 327.765Z" fill="#FFD05E"/>
<path d="M299.859 294.037L308.066 285.623C308.066 285.623 308.35 281.871 308.797 281.08C309.244 280.289 310.399 277.357 310.973 277.038C311.549 276.719 312.699 277.038 312.699 277.038C312.699 277.038 313.839 276.655 314.35 276.655C314.862 276.655 315.818 277.123 315.818 277.123C315.818 277.123 317.045 277.04 317.556 277.04C318.067 277.04 318.231 277.183 318.231 277.183C318.231 277.183 320.21 274.907 321.168 274.141C322.127 273.374 323.592 271.962 324.027 271.967C324.437 271.972 324.617 272.692 324.319 273.459C324.02 274.226 322.722 275.463 322.722 275.463L318.983 281.13C318.983 281.13 319.622 280.875 319.963 280.662C320.304 280.449 322.584 278.318 322.722 278.233C322.86 278.147 323.883 277.466 324.479 278.147C325.075 278.829 320.564 284.234 319.839 284.957C319.114 285.682 314.968 287.781 314.968 287.781C314.968 287.781 310.589 295.657 310.163 296.169C309.738 296.679 299.859 294.037 299.859 294.037Z" fill="#E49191"/>
<path d="M307.585 255.198C307.585 255.198 303.001 281.754 298.686 282.371C298.686 282.371 281.459 283.066 277.622 262.169C274.294 244.046 287.643 240.18 293.887 241.568C300.13 242.953 308.925 243.855 307.585 255.198Z" fill="#E49191"/>
<path d="M292.363 278.123C292.363 278.123 289.948 281.377 289.103 289.257C289.103 289.257 281.929 290.283 275.314 286.876C275.314 286.876 278.879 275.761 279.316 263.694" fill="#E49191"/>
<path d="M287.503 237.12C278.09 239.2 278.842 245.065 278.842 245.065C274.435 246.156 273.488 247.975 273.524 256.11C273.561 264.246 276.505 274.013 278.128 274.808C279.752 275.603 288.954 275.641 289.723 275.362C290.491 275.083 293.711 267.62 292.961 266.306C292.209 264.994 292.998 259.83 295.142 259.635C297.285 259.438 296.865 262.762 296.865 262.762L298.627 262.376L299.986 259.04C312.426 259.78 315.64 245.604 315.64 245.604C312.652 243.656 296.918 235.041 287.503 237.12Z" fill="#002C54"/>
<path d="M183.008 416.893L192.526 418.269L189.373 429.383L179.065 426.783C179.065 426.783 174.871 421.098 181.204 416.893C181.508 416.689 182.509 416.78 183.008 416.893Z" fill="#E5918F"/>
<path d="M254.052 388.345L240.023 345.867C240.023 345.867 235.771 344.352 233.593 345.867C233.593 345.867 218.978 353.726 220.537 376.135C221.713 393.028 225.28 411.349 226.725 418.697L189.295 417.313C189.295 417.313 184.677 422.802 187.664 429.947C187.664 429.947 234.696 442.595 241.321 443.764C246.705 444.714 252.599 445.447 255.445 443.009C260.459 438.714 254.052 388.345 254.052 388.345Z" fill="black"/>
<path d="M227.326 416.893L236.844 418.269L233.692 429.383L223.383 426.783C223.383 426.783 219.189 421.098 225.522 416.893C225.827 416.689 226.827 416.78 227.326 416.893Z" fill="#E5918F"/>
<path d="M223.869 422.72C223.656 424.909 225.57 426.88 225.22 427.425C224.87 427.971 218.471 438.705 218.471 438.705C218.471 438.705 223.302 440.809 222.522 443.847H210.29C210.29 443.847 207.095 440.965 207.173 436.835C207.173 436.835 208.004 432.082 210.186 427.875C212.368 423.667 217.327 414.168 217.327 414.168C217.327 414.168 218.831 413.56 221.405 414.246C224.418 415.049 227.323 416.893 227.323 416.893C227.323 416.893 224.395 417.313 223.869 422.72Z" fill="#FDBF00"/>
<path d="M321.861 434.085C318.841 422.816 290.425 374.705 280.811 361.715C261.065 353.142 240.021 345.867 240.021 345.867C231.318 347.946 227.031 365.483 231.967 377.174C235.354 385.195 256.837 405.382 269.994 417.266L233.485 417.222C233.485 417.222 229.185 423.651 233.081 429.757C233.081 429.757 293.801 443.563 299.126 444.342C304.453 445.122 316.404 444.342 316.404 444.342C316.404 444.342 324.403 443.572 321.861 434.085Z" fill="#002C54"/>
<path d="M179.552 422.72C179.339 424.909 181.254 426.88 180.904 427.425C180.553 427.971 174.155 438.705 174.155 438.705C174.155 438.705 178.985 440.809 178.206 443.847H165.973C165.973 443.847 162.779 440.965 162.857 436.835C162.857 436.835 163.688 432.082 165.87 427.875C168.052 423.667 173.011 414.168 173.011 414.168C173.011 414.168 174.515 413.56 177.089 414.246C180.1 415.049 183.006 416.893 183.006 416.893C183.006 416.893 180.079 417.313 179.552 422.72Z" fill="#FDBF00"/>
<path d="M367.572 285.86L347.99 320.305L333.967 306.326L322.359 323.605L325.73 325.223L324.517 326.232C324.517 326.232 351.581 339.413 354.824 336.504C358.067 333.597 373.178 289.775 373.178 289.775L367.572 285.86Z" fill="#E49191"/>
<path d="M336.467 308.513C336.467 308.513 332.77 324.108 325.376 331.502L306.458 324.301C306.458 324.301 297.679 339.065 289.093 350.385C285.793 354.756 284.697 360.91 280.82 361.717C280.579 361.632 280.35 361.56 280.109 361.5C269.596 358.345 254.086 361.692 241.285 356.936C227.147 351.673 229.893 348.711 229.893 348.711C229.893 348.711 238.467 333.26 243.332 316.895C245.499 309.658 247.005 302.95 248.004 297.712C249.799 288.439 257.229 281.189 266.598 279.925C266.706 279.913 266.802 279.889 266.911 279.877C277.628 278.516 305.687 281.828 311.142 284.164C316.597 286.5 336.467 308.513 336.467 308.513Z" fill="#FDEF9E"/>
<path d="M306.458 324.301C306.458 324.301 297.68 339.065 289.093 350.385C285.794 354.756 284.698 360.91 280.82 361.717C282.518 361.114 285.336 352.179 286.336 350.168C287.347 348.169 288.949 346.158 292.417 339.137C295.873 332.104 300.565 321.797 300.565 321.797L306.458 324.301Z" fill="#FFC649"/>
<path d="M269.994 417.267C269.994 417.267 270.292 417.2 270.817 417.133C271.342 417.079 272.094 416.969 272.999 416.934C274.809 416.835 277.23 416.908 279.627 417.24C280.823 417.413 282.015 417.624 283.115 417.902C284.219 418.162 285.235 418.471 286.087 418.783C286.946 419.075 287.635 419.402 288.117 419.617C288.598 419.838 288.866 419.98 288.866 419.98C288.866 419.98 288.561 419.945 288.042 419.856C287.529 419.746 286.782 419.646 285.901 419.496C284.137 419.2 281.799 418.825 279.451 418.51C278.28 418.329 277.102 418.201 275.998 418.047C274.891 417.908 273.857 417.778 272.971 417.667C271.185 417.427 269.994 417.267 269.994 417.267Z" fill="black"/>
<path d="M382.208 273.183C381.893 273.151 379.885 274.762 378.916 275.558L380.032 273.42C380.032 273.42 381.508 271.994 382.04 271.211C382.571 270.428 382.291 269.646 381.872 269.604C381.577 269.573 379.811 270.975 378.788 271.81L379.013 271.38C379.013 271.38 380.49 269.954 381.021 269.171C381.552 268.388 381.272 267.606 380.853 267.564C380.434 267.521 377.037 270.373 377.037 270.373L375.383 272.588L376.63 270.165C376.63 270.165 377.288 269.361 377.725 268.486C378.163 267.611 377.846 267.343 377.603 267.051C377.36 266.758 375.073 268.462 374.489 269.142C373.905 269.824 372.056 272.584 371.911 272.974L370 276.928C369.878 275.782 369.685 273.822 369.55 272.573C369.355 270.773 367.726 270.348 367.669 271.223C367.613 272.099 366.705 276.405 366.911 278.74C367.117 281.075 367.508 282.608 367.654 283.922C367.799 285.236 366.438 287.861 366.438 287.861C366.438 287.861 371.887 291.245 372.787 290.232C373.688 289.219 375.605 286.97 376.533 285.455C377.805 283.374 378.665 280.638 378.665 280.638L380.368 277C380.368 277 381.844 275.574 382.376 274.791C382.907 274.007 382.627 273.223 382.208 273.183Z" fill="#E49191"/>
<path d="M695.005 163.504H631.103C627.008 163.504 623.688 166.824 623.688 170.92V186.016C623.688 189.794 626.514 192.913 630.168 193.373C630.703 193.44 631.103 193.896 631.103 194.435V202.699C631.103 203.177 631.716 203.373 631.994 202.984L638.503 193.882C638.706 193.599 639.032 193.431 639.38 193.431H695.005C699.1 193.431 702.42 190.111 702.42 186.015V170.919C702.42 166.824 699.1 163.504 695.005 163.504Z" stroke="white" stroke-width="0.8956" stroke-miterlimit="10"/>
<path d="M640.905 178.446C640.905 179.794 639.812 180.887 638.464 180.887C637.116 180.887 636.023 179.793 636.023 178.446C636.023 177.097 637.117 176.005 638.464 176.005C639.812 176.005 640.905 177.097 640.905 178.446Z" stroke="white" stroke-width="0.8956" stroke-miterlimit="10"/>
<path d="M653.2 178.446C653.2 179.794 652.107 180.887 650.759 180.887C649.411 180.887 648.318 179.793 648.318 178.446C648.318 177.097 649.412 176.005 650.759 176.005C652.107 176.005 653.2 177.097 653.2 178.446Z" stroke="white" stroke-width="0.8956" stroke-miterlimit="10"/>
<path d="M665.494 178.446C665.494 179.794 664.401 180.887 663.054 180.887C661.705 180.887 660.611 179.793 660.611 178.446C660.611 177.097 661.705 176.005 663.054 176.005C664.401 176.005 665.494 177.097 665.494 178.446Z" stroke="white" stroke-width="0.8956" stroke-miterlimit="10"/>
<path d="M677.785 178.446C677.785 179.794 676.692 180.887 675.345 180.887C673.996 180.887 672.902 179.793 672.902 178.446C672.902 177.097 673.996 176.005 675.345 176.005C676.692 176.005 677.785 177.097 677.785 178.446Z" stroke="white" stroke-width="0.8956" stroke-miterlimit="10"/>
<path d="M690.078 178.446C690.078 179.794 688.985 180.887 687.636 180.887C686.288 180.887 685.195 179.793 685.195 178.446C685.195 177.097 686.289 176.005 687.636 176.005C688.984 176.005 690.078 177.097 690.078 178.446Z" stroke="white" stroke-width="0.8956" stroke-miterlimit="10"/>
<path d="M190.068 229.686H253.969C258.065 229.686 261.385 233.006 261.385 237.101V252.197C261.385 255.976 258.559 259.094 254.905 259.554C254.369 259.622 253.969 260.077 253.969 260.616V268.88C253.969 269.358 253.356 269.554 253.078 269.165L246.569 260.064C246.367 259.781 246.041 259.613 245.693 259.613H190.068C185.972 259.613 182.652 256.293 182.652 252.197V237.101C182.652 233.006 185.972 229.686 190.068 229.686Z" stroke="white" stroke-width="0.8956" stroke-miterlimit="10"/>
<path d="M244.168 244.627C244.168 245.975 245.261 247.067 246.609 247.067C247.958 247.067 249.051 245.974 249.051 244.627C249.051 243.278 247.958 242.186 246.609 242.186C245.261 242.184 244.168 243.278 244.168 244.627Z" stroke="white" stroke-width="0.8956" stroke-miterlimit="10"/>
<path d="M231.871 244.627C231.871 245.975 232.965 247.067 234.312 247.067C235.661 247.067 236.753 245.974 236.753 244.627C236.753 243.278 235.66 242.186 234.312 242.186C232.965 242.184 231.871 243.278 231.871 244.627Z" stroke="white" stroke-width="0.8956" stroke-miterlimit="10"/>
<path d="M219.574 244.627C219.574 245.975 220.668 247.067 222.015 247.067C223.364 247.067 224.456 245.974 224.456 244.627C224.456 243.278 223.363 242.186 222.015 242.186C220.668 242.184 219.574 243.278 219.574 244.627Z" stroke="white" stroke-width="0.8956" stroke-miterlimit="10"/>
<path d="M207.281 244.627C207.281 245.975 208.375 247.067 209.722 247.067C211.071 247.067 212.163 245.974 212.163 244.627C212.163 243.278 211.07 242.186 209.722 242.186C208.375 242.184 207.281 243.278 207.281 244.627Z" stroke="white" stroke-width="0.8956" stroke-miterlimit="10"/>
<path d="M194.988 244.627C194.988 245.975 196.082 247.067 197.43 247.067C198.779 247.067 199.871 245.974 199.871 244.627C199.871 243.278 198.778 242.186 197.43 242.186C196.081 242.184 194.988 243.278 194.988 244.627Z" stroke="white" stroke-width="0.8956" stroke-miterlimit="10"/>
<path d="M575.982 128.678H459.513C453.09 128.678 447.883 123.471 447.883 117.048C447.883 110.625 453.09 105.417 459.513 105.417H575.982C582.405 105.417 587.612 110.625 587.612 117.048C587.612 123.471 582.405 128.678 575.982 128.678Z" fill="white" stroke="#495AD6" stroke-width="0.8956" stroke-miterlimit="10"/>
<path d="M574.278 116.247C574.278 119.664 571.51 122.432 568.093 122.432C564.677 122.432 561.908 119.664 561.908 116.247C561.908 112.831 564.677 110.062 568.093 110.062C571.51 110.062 574.278 112.831 574.278 116.247Z" stroke="#495AD6" stroke-width="1.6716" stroke-miterlimit="10"/>
<path d="M572.465 120.62L575.88 124.035" stroke="#495AD6" stroke-width="1.6716" stroke-miterlimit="10" stroke-linecap="round"/>
<path d="M399.555 445H370.255C365.128 445 360.973 440.844 360.973 435.718V406.417C360.973 401.291 365.128 397.135 370.255 397.135H399.555C404.681 397.135 408.837 401.291 408.837 406.417V435.718C408.837 440.844 404.681 445 399.555 445Z" fill="#FF883E"/>
<path d="M390.83 445H361.53C356.404 445 352.248 440.844 352.248 435.718V406.417C352.248 401.291 356.404 397.135 361.53 397.135H390.83C395.957 397.135 400.113 401.291 400.113 406.417V435.718C400.113 440.844 395.957 445 390.83 445Z" fill="#FFB91A"/>
<path d="M370.526 412.033L384.265 419.966C385.113 420.456 385.113 421.679 384.265 422.169L370.526 430.102C369.678 430.592 368.617 429.979 368.617 429V413.135C368.618 412.156 369.678 411.544 370.526 412.033Z" fill="white"/>
<path d="M702.64 445H664.337C657.635 445 652.203 439.568 652.203 432.866V394.563C652.203 387.862 657.635 382.429 664.337 382.429H702.64C709.342 382.429 714.774 387.862 714.774 394.563V432.866C714.774 439.567 709.342 445 702.64 445Z" fill="#FF883E"/>
<path d="M691.238 445H652.935C646.233 445 640.801 439.568 640.801 432.866V394.563C640.801 387.862 646.233 382.429 652.935 382.429H691.238C697.939 382.429 703.372 387.862 703.372 394.563V432.866C703.372 439.567 697.939 445 691.238 445Z" fill="#FFB91A"/>
<path d="M679.604 397.781C679.604 401.933 676.239 405.299 672.086 405.299C667.934 405.299 664.568 401.933 664.568 397.781C664.568 393.629 667.934 390.263 672.086 390.263C676.239 390.263 679.604 393.629 679.604 397.781Z" fill="white"/>
<path d="M687.757 423.234V434.331C687.757 435.334 686.944 436.147 685.941 436.147H658.228C657.225 436.147 656.412 435.334 656.412 434.331V423.234C656.412 414.579 663.428 407.562 672.084 407.562C680.741 407.563 687.757 414.579 687.757 423.234Z" fill="white"/>
<path d="M532.159 142.078H507.557C506.536 142.078 505.709 141.251 505.709 140.229C505.709 139.208 506.536 138.381 507.557 138.381H532.159C533.18 138.381 534.007 139.208 534.007 140.229C534.007 141.249 533.18 142.078 532.159 142.078Z" fill="#F0F4FF"/>
<path d="M556.769 142.078H538.966C537.945 142.078 537.117 141.251 537.117 140.229C537.117 139.208 537.945 138.381 538.966 138.381H556.769C557.79 138.381 558.618 139.208 558.618 140.229C558.619 141.249 557.79 142.078 556.769 142.078Z" fill="#F0F4FF"/>
<path d="M518.011 150.206H507.559C506.538 150.206 505.711 149.378 505.711 148.357C505.711 147.336 506.538 146.509 507.559 146.509H518.011C519.032 146.509 519.859 147.336 519.859 148.357C519.859 149.377 519.031 150.206 518.011 150.206Z" fill="#F0F4FF"/>
<path d="M556.771 150.206H524.216C523.195 150.206 522.367 149.378 522.367 148.357C522.367 147.336 523.195 146.509 524.216 146.509H556.771C557.792 146.509 558.619 147.336 558.619 148.357C558.621 149.377 557.792 150.206 556.771 150.206Z" fill="#F0F4FF"/>
<path d="M539.986 158.335H507.557C506.536 158.335 505.709 157.508 505.709 156.486C505.709 155.465 506.536 154.638 507.557 154.638H539.986C541.007 154.638 541.835 155.465 541.835 156.486C541.835 157.506 541.007 158.335 539.986 158.335Z" fill="#F0F4FF"/>
<path d="M556.772 158.335H546.319C545.298 158.335 544.471 157.508 544.471 156.486C544.471 155.465 545.298 154.638 546.319 154.638H556.772C557.793 154.638 558.62 155.465 558.62 156.486C558.622 157.506 557.793 158.335 556.772 158.335Z" fill="#F0F4FF"/>
<path d="M220.634 330.892H134.754C132.212 330.892 130.15 328.83 130.15 326.288V282.936C130.15 280.392 132.212 278.332 134.754 278.332H220.634C223.176 278.332 225.238 280.394 225.238 282.936V326.288C225.239 328.832 223.177 330.892 220.634 330.892Z" fill="#FFC649"/>
<path d="M134.195 285.432H221.201" stroke="white" stroke-width="0.8956" stroke-miterlimit="10" stroke-linecap="round"/>
<path d="M218.905 282.873C219.487 282.873 219.959 282.401 219.959 281.819C219.959 281.237 219.487 280.765 218.905 280.765C218.323 280.765 217.852 281.237 217.852 281.819C217.852 282.401 218.323 282.873 218.905 282.873Z" fill="white"/>
<path d="M213.411 282.873C213.993 282.873 214.465 282.402 214.465 281.82C214.465 281.238 213.993 280.766 213.411 280.766C212.829 280.766 212.357 281.238 212.357 281.82C212.357 282.402 212.829 282.873 213.411 282.873Z" fill="white"/>
<path d="M207.917 282.873C208.499 282.873 208.971 282.402 208.971 281.82C208.971 281.238 208.499 280.766 207.917 280.766C207.335 280.766 206.863 281.238 206.863 281.82C206.863 282.402 207.335 282.873 207.917 282.873Z" fill="white"/>
<path d="M150.414 292.507H135.65C134.847 292.507 134.195 291.855 134.195 291.052C134.195 290.249 134.847 289.597 135.65 289.597H150.414C151.217 289.597 151.869 290.249 151.869 291.052C151.869 291.855 151.217 292.507 150.414 292.507Z" fill="white"/>
<path d="M150.414 299.23H135.65C134.847 299.23 134.195 298.579 134.195 297.776C134.195 296.972 134.847 296.321 135.65 296.321H150.414C151.217 296.321 151.869 296.972 151.869 297.776C151.869 298.58 151.217 299.23 150.414 299.23Z" fill="white"/>
<path d="M150.414 305.955H135.65C134.847 305.955 134.195 305.303 134.195 304.5C134.195 303.697 134.847 303.045 135.65 303.045H150.414C151.217 303.045 151.869 303.697 151.869 304.5C151.869 305.303 151.217 305.955 150.414 305.955Z" fill="white"/>
<path d="M150.414 312.678H135.65C134.847 312.678 134.195 312.026 134.195 311.223C134.195 310.42 134.847 309.768 135.65 309.768H150.414C151.217 309.768 151.869 310.42 151.869 311.223C151.869 312.026 151.217 312.678 150.414 312.678Z" fill="white"/>
<path d="M150.414 319.401H135.65C134.847 319.401 134.195 318.749 134.195 317.946C134.195 317.143 134.847 316.491 135.65 316.491H150.414C151.217 316.491 151.869 317.143 151.869 317.946C151.869 318.751 151.217 319.401 150.414 319.401Z" fill="white"/>
<path d="M150.414 326.125H135.65C134.847 326.125 134.195 325.474 134.195 324.671C134.195 323.867 134.847 323.216 135.65 323.216H150.414C151.217 323.216 151.869 323.867 151.869 324.671C151.869 325.474 151.217 326.125 150.414 326.125Z" fill="white"/>
<path d="M219.748 292.507H156.125C155.321 292.507 154.67 291.855 154.67 291.052C154.67 290.249 155.321 289.597 156.125 289.597H219.748C220.551 289.597 221.203 290.249 221.203 291.052C221.204 291.855 220.552 292.507 219.748 292.507Z" fill="white"/>
<path d="M219.748 299.23H156.125C155.321 299.23 154.67 298.579 154.67 297.776C154.67 296.972 155.321 296.321 156.125 296.321H219.748C220.551 296.321 221.203 296.972 221.203 297.776C221.204 298.58 220.552 299.23 219.748 299.23Z" fill="white"/>
<path d="M219.748 305.955H156.125C155.321 305.955 154.67 305.303 154.67 304.5C154.67 303.697 155.321 303.045 156.125 303.045H219.748C220.551 303.045 221.203 303.697 221.203 304.5C221.204 305.303 220.552 305.955 219.748 305.955Z" fill="white"/>
<path d="M219.748 312.678H156.125C155.321 312.678 154.67 312.026 154.67 311.223C154.67 310.42 155.321 309.768 156.125 309.768H219.748C220.551 309.768 221.203 310.42 221.203 311.223C221.204 312.026 220.552 312.678 219.748 312.678Z" fill="white"/>
<path d="M219.748 319.401H156.125C155.321 319.401 154.67 318.749 154.67 317.946C154.67 317.143 155.321 316.491 156.125 316.491H219.748C220.551 316.491 221.203 317.143 221.203 317.946C221.204 318.751 220.552 319.401 219.748 319.401Z" fill="white"/>
<path d="M219.748 326.125H156.125C155.321 326.125 154.67 325.474 154.67 324.671C154.67 323.867 155.321 323.216 156.125 323.216H219.748C220.551 323.216 221.203 323.867 221.203 324.671C221.204 325.474 220.552 326.125 219.748 326.125Z" fill="white"/>
<path d="M666.452 56.308C671.489 35.2841 658.529 14.1575 637.505 9.12042C616.481 4.08334 595.355 17.0432 590.318 38.0671C585.281 59.091 598.241 80.2176 619.264 85.2547C640.288 90.2918 661.415 77.3319 666.452 56.308Z" stroke="#DEE3FC" stroke-width="0.7896" stroke-miterlimit="10"/>
<path d="M642.156 78.3472C659.345 70.7427 667.114 50.6442 659.509 33.4561C651.905 16.2679 631.806 8.49884 614.618 16.1034C597.43 23.7079 589.661 43.8063 597.265 60.9945C604.87 78.1826 624.968 85.9517 642.156 78.3472Z" fill="#FFC649"/>
<path d="M631.474 47.2008C631.474 48.912 630.087 50.2981 628.377 50.2981C626.665 50.2981 625.279 48.9108 625.279 47.2008C625.279 45.4896 626.667 44.1035 628.377 44.1035C630.087 44.1023 631.474 45.4896 631.474 47.2008Z" fill="white"/>
<path d="M628.039 46.5918C627.571 46.8507 626.982 46.6822 626.722 46.2137L616.713 28.1611C616.454 27.6926 616.623 27.1037 617.091 26.8436C617.56 26.5847 618.149 26.7533 618.409 27.2205L628.417 45.2732C628.676 45.7429 628.507 46.3329 628.039 46.5918Z" fill="white"/>
<path d="M628.87 47.6923C629.248 47.3142 629.862 47.3142 630.24 47.6923L638.898 56.3507C639.277 56.7289 639.277 57.343 638.898 57.7211C638.52 58.0993 637.906 58.0993 637.528 57.7211L628.87 49.0627C628.491 48.6846 628.491 48.0704 628.87 47.6923Z" fill="white"/>
<path d="M628.586 19.9611V16.0474" stroke="white" stroke-width="2" stroke-miterlimit="10" stroke-linecap="round"/>
<path d="M655.615 47.4089H659.529" stroke="white" stroke-width="2" stroke-miterlimit="10" stroke-linecap="round"/>
<path d="M628.166 74.4397V78.3535" stroke="white" stroke-width="2" stroke-miterlimit="10" stroke-linecap="round"/>
<path d="M601.136 46.9927H597.223" stroke="white" stroke-width="2" stroke-miterlimit="10" stroke-linecap="round"/>
<g opacity="0.5">
<path d="M614.937 23.5064L612.98 20.1165" stroke="#DEE3FC" stroke-miterlimit="10" stroke-linecap="round"/>
<path d="M652.07 33.7618L655.459 31.8049" stroke="#DEE3FC" stroke-miterlimit="10" stroke-linecap="round"/>
<path d="M641.818 70.8943L643.775 74.2842" stroke="#DEE3FC" stroke-miterlimit="10" stroke-linecap="round"/>
<path d="M604.683 60.6404L601.293 62.5973" stroke="#DEE3FC" stroke-miterlimit="10" stroke-linecap="round"/>
</g>
<g opacity="0.5">
<path d="M604.891 33.4007L601.502 31.4438" stroke="#DEE3FC" stroke-miterlimit="10" stroke-linecap="round"/>
<path d="M642.178 23.7146L644.135 20.3247" stroke="#DEE3FC" stroke-miterlimit="10" stroke-linecap="round"/>
<path d="M651.863 61.0002L655.252 62.9571" stroke="#DEE3FC" stroke-miterlimit="10" stroke-linecap="round"/>
<path d="M614.578 70.6858L612.621 74.0757" stroke="#DEE3FC" stroke-miterlimit="10" stroke-linecap="round"/>
</g>
<path d="M163.296 244.193H120.31C113.946 244.193 108.787 239.034 108.787 232.67V189.684C108.787 183.32 113.946 178.161 120.31 178.161H163.296C169.66 178.161 174.819 183.32 174.819 189.684V232.67C174.819 239.033 169.66 244.193 163.296 244.193Z" fill="#FF883E"/>
<path d="M160.466 238.473H112.899C107.8 238.473 103.666 234.34 103.666 229.24V181.673C103.666 176.575 107.799 172.44 112.899 172.44H160.466C165.565 172.44 169.699 176.573 169.699 181.673V229.24C169.698 234.339 165.565 238.473 160.466 238.473Z" fill="#FFB91A" stroke="#DEE3FC" stroke-miterlimit="10"/>
<path d="M148.115 197.896H147.77V194.114C147.77 187.905 142.721 182.854 136.512 182.854C130.303 182.854 125.253 187.905 125.253 194.114V197.896H125.177C123.433 197.896 122.018 199.311 122.018 201.056V215.311C122.018 217.056 123.433 218.471 125.177 218.471H148.115C149.859 218.471 151.274 217.056 151.274 215.311V201.056C151.274 199.31 149.859 197.896 148.115 197.896ZM128.105 194.114C128.105 189.479 131.878 185.707 136.512 185.707C141.146 185.707 144.918 189.479 144.918 194.114V197.896H128.104L128.105 194.114Z" fill="#DEE3FC"/>
<path d="M140.356 205.223C140.356 202.947 138.287 201.155 135.927 201.625C134.536 201.902 133.383 203.043 133.092 204.431C132.743 206.105 133.534 207.632 134.83 208.39C135.093 208.544 135.243 208.833 135.164 209.127L134.524 211.486C134.145 212.889 135.201 214.269 136.653 214.269C138.107 214.269 139.163 212.889 138.784 211.486L138.151 209.152C138.071 208.855 138.225 208.561 138.493 208.409C139.605 207.778 140.356 206.591 140.356 205.223Z" fill="#FFB91A"/>
<path d="M149.922 223.468H123.376C122.628 223.468 122.021 222.861 122.021 222.113C122.021 221.365 122.628 220.759 123.376 220.759H149.922C150.67 220.759 151.277 221.365 151.277 222.113C151.277 222.862 150.67 223.468 149.922 223.468Z" fill="#DEE3FC"/>
<path d="M149.922 228.06H123.376C122.628 228.06 122.021 227.453 122.021 226.706C122.021 225.958 122.628 225.351 123.376 225.351H149.922C150.67 225.351 151.277 225.958 151.277 226.706C151.277 227.453 150.67 228.06 149.922 228.06Z" fill="#DEE3FC"/>
<path d="M683.417 321.811H658.111C654.364 321.811 651.326 318.774 651.326 315.026V289.72C651.326 285.974 654.363 282.937 658.111 282.937H683.417C687.163 282.937 690.2 285.974 690.2 289.72V315.026C690.2 318.774 687.163 321.811 683.417 321.811Z" fill="#193091"/>
<path d="M681.756 318.443H653.753C650.751 318.443 648.318 316.01 648.318 313.009V285.006C648.318 282.003 650.752 279.571 653.753 279.571H681.756C684.758 279.571 687.191 282.005 687.191 285.006V313.009C687.191 316.01 684.758 318.443 681.756 318.443Z" fill="#7E89FD" stroke="#DEE3FC" stroke-miterlimit="10"/>
<path d="M659.895 310.615C659.786 310.615 659.676 310.6 659.566 310.569C658.926 310.39 658.554 309.724 658.736 309.084L664.615 288.274C664.795 287.632 665.464 287.258 666.099 287.443C666.74 287.622 667.112 288.288 666.93 288.928L661.051 309.738C660.903 310.269 660.419 310.615 659.895 310.615Z" fill="white"/>
<path d="M669.726 310.615C669.617 310.615 669.507 310.6 669.399 310.569C668.758 310.39 668.386 309.724 668.568 309.084L674.448 288.274C674.627 287.632 675.297 287.258 675.933 287.443C676.573 287.622 676.945 288.288 676.764 288.928L670.883 309.738C670.734 310.269 670.251 310.615 669.726 310.615Z" fill="white"/>
<path d="M678.157 295.495H657.347C656.681 295.495 656.143 294.956 656.143 294.29C656.143 293.624 656.681 293.086 657.347 293.086H678.157C678.823 293.086 679.361 293.624 679.361 294.29C679.361 294.956 678.823 295.495 678.157 295.495Z" fill="white"/>
<path d="M678.157 305.001H657.347C656.681 305.001 656.143 304.463 656.143 303.797C656.143 303.131 656.681 302.593 657.347 302.593H678.157C678.823 302.593 679.361 303.131 679.361 303.797C679.361 304.463 678.823 305.001 678.157 305.001Z" fill="white"/>
<path d="M214.13 198.327H199.079C198.168 198.327 197.43 197.588 197.43 196.677C197.43 195.766 198.169 195.028 199.079 195.028H214.13C215.042 195.028 215.78 195.767 215.78 196.677C215.78 197.588 215.042 198.327 214.13 198.327Z" fill="#F0F4FF"/>
<path d="M229.291 205.652H199.079C198.168 205.652 197.43 204.913 197.43 204.003C197.43 203.091 198.169 202.353 199.079 202.353H229.291C230.203 202.353 230.941 203.092 230.941 204.003C230.941 204.914 230.203 205.652 229.291 205.652Z" fill="#F0F4FF"/>
<path d="M202.648 212.979H199.079C198.168 212.979 197.43 212.241 197.43 211.329C197.43 210.417 198.169 209.679 199.079 209.679H202.648C203.559 209.679 204.297 210.417 204.297 211.329C204.297 212.239 203.559 212.979 202.648 212.979Z" fill="#F0F4FF"/>
<path d="M229.292 212.979H208.255C207.344 212.979 206.605 212.241 206.605 211.329C206.605 210.417 207.345 209.679 208.255 209.679H229.292C230.204 209.679 230.942 210.417 230.942 211.329C230.942 212.239 230.204 212.979 229.292 212.979Z" fill="#F0F4FF"/>
<path d="M229.289 198.327H220.165C219.254 198.327 218.516 197.588 218.516 196.677C218.516 195.766 219.255 195.028 220.165 195.028H229.289C230.2 195.028 230.938 195.767 230.938 196.677C230.938 197.588 230.2 198.327 229.289 198.327Z" fill="#F0F4FF"/>
<path d="M144.417 423.429C142.456 423.429 140.621 423.967 139.051 424.903C138.421 419.284 133.656 414.915 127.868 414.915C121.652 414.915 116.612 419.955 116.612 426.171C116.612 426.588 116.636 426.998 116.681 427.404C116.164 427.308 115.633 427.255 115.089 427.255C110.342 427.255 106.494 431.102 106.494 435.849C106.494 440.597 110.342 444.444 115.089 444.444H144.418C150.221 444.444 154.925 439.74 154.925 433.937C154.925 428.133 150.22 423.429 144.417 423.429Z" fill="white"/>
<path d="M69.8231 378.299C69.5389 376.727 69.5775 375.12 69.9737 373.572C71.2995 368.39 72.8168 358.646 69.445 348.117C63.82 330.553 41.0215 314.997 41.0215 314.997C41.0215 314.997 47.21 340.916 52.2979 351.953C56.0226 360.033 62.5387 369.229 66.155 374.07C67.1582 375.413 67.8458 376.961 68.1444 378.611C71.8306 399.007 71.2971 414.796 71.2875 415.04L72.9987 415.106C73.0071 414.861 73.549 398.91 69.8231 378.299Z" fill="#FFF2AF"/>
<path d="M88.0045 361.785C92.5336 347.467 94.6398 330.601 94.6398 330.601C94.6398 330.601 74.1979 347.467 72.5228 360.519C71.4968 368.512 72.7721 374.924 73.9161 378.696C74.4014 380.298 74.5785 381.973 74.399 383.637C72.3302 402.844 73.9511 417.562 73.9763 417.787L75.5154 417.61C75.4901 417.394 73.986 403.699 75.7574 385.551C75.9995 383.065 77.0014 380.716 78.5741 378.777C81.4992 375.167 85.6815 369.129 88.0045 361.785Z" fill="#FFD05E"/>
<path d="M108.787 329.934C108.787 329.934 86.759 338.109 80.9991 356.094C77.4936 367.04 79.1494 377.158 80.5198 382.399C80.904 383.869 80.8835 385.405 80.515 386.88C75.3549 407.577 75.2754 429.002 75.2754 429.286H77.0288C77.0288 429.007 77.1082 408.093 82.0913 387.795C82.5863 385.779 83.4654 383.884 84.7033 382.216C88.4605 377.156 94.8538 368.052 98.5556 360.021C103.768 348.72 108.787 329.934 108.787 329.934Z" fill="#FFF2AF"/>
<path d="M69.9202 405.821C69.3723 398.292 67.3203 391.514 64.8335 385.828C64.3362 384.689 64.1604 383.444 64.3193 382.21C64.6276 379.836 64.7541 376.147 63.8051 371.46C62.018 362.636 50.3057 343.573 33.3477 342.455C33.3477 342.455 39.199 351.861 42.2096 359.732C46.0186 369.69 51.4557 380.105 60.473 384.104C62.059 384.807 63.3005 386.123 63.9617 387.726C66.1353 392.994 67.8802 399.149 68.374 405.933L69.9202 405.821Z" fill="#FFD05E"/>
<path d="M58.4539 444.439H86.4378L93.6981 400.069C94.0197 398.105 92.5036 396.321 90.5142 396.321H54.3775C52.3881 396.321 50.872 398.105 51.1935 400.069L58.4539 444.439Z" fill="#FFF2AF"/>
<path d="M1 444.439H784.016" stroke="white" stroke-width="1.1144" stroke-miterlimit="10" stroke-linecap="round"/>
</svg>
