<svg width="83" height="83" viewBox="0 0 83 83" fill="none" xmlns="http://www.w3.org/2000/svg">
<rect width="83" height="83" rx="41.5" fill="white"/>
<path fill-rule="evenodd" clip-rule="evenodd" d="M41.5001 20.5C41.2031 20.5 40.9221 20.631 40.7321 20.859L30.7321 32.859C30.4831 33.157 30.4301 33.573 30.5941 33.924C30.7591 34.276 31.1121 34.5 31.5001 34.5H35.5001V45.5C35.5001 46.052 35.9481 46.5 36.5001 46.5C37.0521 46.5 37.5001 46.052 37.5001 45.5V33.5C37.5001 32.948 37.0521 32.5 36.5001 32.5H33.6351L41.5001 23.062L49.3651 32.5H46.5001C45.9481 32.5 45.5001 32.948 45.5001 33.5V45.5C45.5001 46.052 45.9481 46.5 46.5001 46.5C47.0521 46.5 47.5001 46.052 47.5001 45.5V34.5H51.5001C51.8881 34.5 52.2411 34.276 52.4061 33.924C52.5701 33.573 52.5171 33.157 52.2681 32.859L42.2681 20.859C42.0781 20.631 41.7971 20.5 41.5001 20.5ZM31.4101 24.504C31.1551 24.527 30.9091 24.647 30.7321 24.859L20.7321 36.859C20.4831 37.157 20.4301 37.573 20.5941 37.924C20.7591 38.276 21.1121 38.5 21.5001 38.5H25.5001V45.5C25.5001 46.052 25.9481 46.5 26.5001 46.5C27.0521 46.5 27.5001 46.052 27.5001 45.5V37.5C27.5001 36.948 27.0521 36.5 26.5001 36.5H23.6351L32.2681 26.141C32.6221 25.717 32.5651 25.085 32.1411 24.732C31.9291 24.555 31.6651 24.481 31.4101 24.504ZM51.5901 24.504C51.3351 24.481 51.0711 24.555 50.8591 24.732C50.4351 25.085 50.3781 25.717 50.7321 26.141L59.3651 36.5H56.5001C55.9481 36.5 55.5001 36.948 55.5001 37.5V45.5C55.5001 46.052 55.9481 46.5 56.5001 46.5C57.0521 46.5 57.5001 46.052 57.5001 45.5V38.5H61.5001C61.8881 38.5 62.2411 38.276 62.4061 37.924C62.5701 37.573 62.5171 37.157 62.2681 36.859L52.2681 24.859C52.0911 24.647 51.8451 24.527 51.5901 24.504ZM26.5001 48.5C24.2921 48.5 22.5001 50.292 22.5001 52.5C22.5001 53.604 22.9501 54.606 23.6741 55.33C21.8001 56.504 20.5001 58.807 20.5001 61.5C20.5001 62.052 20.9481 62.5 21.5001 62.5H31.5001C32.0521 62.5 32.5001 62.052 32.5001 61.5C32.5001 58.807 31.2001 56.504 29.3261 55.33L29.3281 55.328C30.0521 54.604 30.5001 53.604 30.5001 52.5C30.5001 50.292 28.7081 48.5 26.5001 48.5ZM41.5001 48.5C39.2921 48.5 37.5001 50.292 37.5001 52.5C37.5001 53.604 37.9501 54.606 38.6741 55.33C36.8001 56.504 35.5001 58.807 35.5001 61.5C35.5001 62.052 35.9481 62.5 36.5001 62.5H46.5001C47.0521 62.5 47.5001 62.052 47.5001 61.5C47.5001 58.807 46.2001 56.504 44.3261 55.33L44.3281 55.328C45.0521 54.604 45.5001 53.604 45.5001 52.5C45.5001 50.292 43.7081 48.5 41.5001 48.5ZM56.5001 48.5C54.2921 48.5 52.5001 50.292 52.5001 52.5C52.5001 53.604 52.9501 54.606 53.6741 55.33C51.8001 56.504 50.5001 58.807 50.5001 61.5C50.5001 62.052 50.9481 62.5 51.5001 62.5H61.5001C62.0521 62.5 62.5001 62.052 62.5001 61.5C62.5001 58.807 61.2001 56.504 59.3261 55.33L59.3281 55.328C60.0521 54.604 60.5001 53.604 60.5001 52.5C60.5001 50.292 58.7081 48.5 56.5001 48.5ZM26.5001 50.5C27.6041 50.5 28.5001 51.396 28.5001 52.5C28.5001 53.604 27.6041 54.5 26.5001 54.5C25.3961 54.5 24.5001 53.604 24.5001 52.5C24.5001 51.396 25.3961 50.5 26.5001 50.5ZM41.5001 50.5C42.6041 50.5 43.5001 51.396 43.5001 52.5C43.5001 53.604 42.6041 54.5 41.5001 54.5C40.3961 54.5 39.5001 53.604 39.5001 52.5C39.5001 51.396 40.3961 50.5 41.5001 50.5ZM56.5001 50.5C57.6041 50.5 58.5001 51.396 58.5001 52.5C58.5001 53.604 57.6041 54.5 56.5001 54.5C55.3961 54.5 54.5001 53.604 54.5001 52.5C54.5001 51.396 55.3961 50.5 56.5001 50.5ZM26.5001 56.5C28.4781 56.5 30.0551 58.246 30.4201 60.5H22.5801C22.9451 58.246 24.5221 56.5 26.5001 56.5ZM41.5001 56.5C43.4781 56.5 45.0551 58.246 45.4201 60.5H37.5801C37.9451 58.246 39.5221 56.5 41.5001 56.5ZM56.5001 56.5C58.4781 56.5 60.0551 58.246 60.4201 60.5H52.5801C52.9451 58.246 54.5221 56.5 56.5001 56.5Z" fill="black"/>
</svg>
