<svg width="60" height="60" viewBox="0 0 60 60" fill="none" xmlns="http://www.w3.org/2000/svg">
<path d="M13.9971 4.19002C13.692 4.12826 13.3937 4.32561 13.3317 4.631L12.3395 9.52475C12.2775 9.83037 12.4751 10.1281 12.7805 10.1901C12.8182 10.1979 12.8559 10.2014 12.8932 10.2014C13.1562 10.2014 13.3915 10.0167 13.4459 9.74904L14.4381 4.85529C14.5002 4.54979 14.3025 4.25201 13.9971 4.19002Z" fill="black"/>
<path d="M56.9797 39.1451L55.1283 38.0782C54.925 37.4121 54.6597 36.7742 54.3436 36.1759L54.8968 34.1042C54.9477 33.9123 54.8912 33.7035 54.7501 33.5624L52.4075 31.2198C52.2664 31.0787 52.0576 31.0222 51.86 31.0731L50.6012 31.4117V23.8645C50.6012 23.7347 50.5334 23.5653 50.4318 23.4637L45.2668 18.2987C45.295 18.3269 45.3345 18.3552 45.3628 18.389L46.9377 10.6274C47.2199 9.22744 46.3167 7.86139 44.9168 7.57908L13.7738 1.26232C12.3795 0.980135 11.0079 1.88892 10.7256 3.28322L2.78891 42.4248C2.50673 43.8247 3.40989 45.1908 4.80981 45.4731L13.6497 47.2681V55.7863C13.6497 57.4403 14.9988 58.7893 16.6528 58.7893H47.5924C49.252 58.7893 50.6011 57.4401 50.6011 55.7863V51.1687L51.8599 51.5074C52.0575 51.5581 52.2663 51.5074 52.4074 51.3607L54.75 49.0181C54.8911 48.877 54.9475 48.6682 54.8967 48.4762L54.3434 46.4046C54.6595 45.8062 54.9249 45.1684 55.1281 44.5023L56.9796 43.4354C57.1545 43.3338 57.2618 43.1475 57.2618 42.9443V39.6363C57.2619 39.433 57.1547 39.2467 56.9797 39.1451ZM13.6497 17.2599V46.1165L5.03563 44.3666C4.24532 44.2085 3.73731 43.4408 3.8954 42.6506L11.832 3.50904C11.9901 2.73572 12.7465 2.21072 13.548 2.36881L44.6908 8.68545C45.4811 8.84353 45.9891 9.61123 45.8311 10.4014L44.4029 17.4349L41.3885 14.4205C41.2756 14.3076 41.0893 14.2568 40.9877 14.2568H16.6528C14.9988 14.2569 13.6497 15.606 13.6497 17.2599ZM49.472 55.7861C49.472 56.8192 48.6253 57.6602 47.5923 57.6602H16.6528C15.6198 57.6602 14.7787 56.8192 14.7787 55.7861V17.2599C14.7787 16.2269 15.6198 15.3859 16.6528 15.3859H40.4233V22.2895C40.4233 23.4694 41.383 24.4289 42.5627 24.4289H49.4721V31.4737C48.9641 31.2254 48.4391 31.0052 47.8916 30.8359L46.8191 28.9843C46.7175 28.8094 46.5313 28.7021 46.3336 28.7021H43.0257C42.8225 28.7021 42.6362 28.8094 42.5346 28.9843L41.4621 30.8359C40.8016 31.0447 40.1638 31.3044 39.5654 31.6262L37.4938 31.0729C37.3018 31.0222 37.093 31.0786 36.9461 31.2197L34.6036 33.5622C34.4625 33.7033 34.406 33.9122 34.4568 34.1041L35.0157 36.1758C34.6939 36.7741 34.4286 37.412 34.2254 38.0781L32.374 39.1449C32.199 39.2465 32.0918 39.4329 32.0918 39.6361V42.944C32.0918 43.1472 32.199 43.3336 32.374 43.4352L34.2254 44.502C34.4286 45.1681 34.6939 45.806 35.0157 46.4044L34.4568 48.476C34.406 48.6679 34.4625 48.8768 34.6036 49.0179L36.9461 51.3604C37.0929 51.5072 37.3018 51.558 37.4938 51.5072L39.5654 50.9539C40.1638 51.2756 40.8016 51.5353 41.4621 51.7442L42.5346 53.5958C42.6362 53.7708 42.8225 53.878 43.0257 53.878H46.3336C46.5311 53.878 46.7175 53.7708 46.8191 53.5958L47.8916 51.7442C48.4392 51.5749 48.9641 51.3547 49.4721 51.1064V55.7861H49.472ZM44.6796 47.0874C41.4846 47.0874 38.8823 44.4852 38.8823 41.2902C38.8823 38.0952 41.4846 35.4929 44.6796 35.4929C47.8746 35.4929 50.4712 38.0952 50.4712 41.2902C50.4712 44.4852 47.8746 47.0874 44.6796 47.0874Z" fill="black"/>
<path d="M47.7246 40.7258H45.2423V37.1109C45.2423 36.7992 44.9895 36.5464 44.6778 36.5464C44.3661 36.5464 44.1133 36.7992 44.1133 37.1109V41.2903C44.1133 41.602 44.3661 41.8547 44.6778 41.8547H47.7245C48.0363 41.8547 48.289 41.602 48.289 41.2903C48.289 40.9785 48.0364 40.7258 47.7246 40.7258Z" fill="black"/>
<path d="M26.0036 19.7954H17.6719C17.3602 19.7954 17.1074 20.0482 17.1074 20.3599C17.1074 20.6716 17.3602 20.9244 17.6719 20.9244H26.0036C26.3153 20.9244 26.5681 20.6716 26.5681 20.3599C26.5681 20.0482 26.3153 19.7954 26.0036 19.7954Z" fill="black"/>
<path d="M22.2291 23.0298H17.6719C17.3602 23.0298 17.1074 23.2826 17.1074 23.5943C17.1074 23.906 17.3602 24.1588 17.6719 24.1588H22.2291C22.5408 24.1588 22.7936 23.906 22.7936 23.5943C22.7936 23.2826 22.5408 23.0298 22.2291 23.0298Z" fill="black"/>
</svg>
