<svg width="36" height="36" viewBox="0 0 36 36" fill="none" xmlns="http://www.w3.org/2000/svg">
<path d="M17.993 1.39008C16.9805 7.70625 16.1297 11.4609 13.7953 13.7953C11.4609 16.1297 7.70625 16.9805 1.39008 17.993C7.70625 19.0055 11.4609 19.8562 13.7953 22.1977C16.1297 24.532 16.9805 28.2867 17.993 34.6078C19.0055 28.2867 19.8562 24.532 22.1906 22.1906C24.532 19.8562 28.2867 19.0055 34.6078 17.993C28.2867 16.9805 24.532 16.1297 22.1977 13.7953C19.8562 11.4609 19.0055 7.70625 17.993 1.39008ZM29.7422 6.25781C26.5219 8.58515 24.0469 10.2586 21.8391 11.1937C22.1977 11.8547 22.6125 12.4172 23.0906 12.8953C23.5687 13.3734 24.1312 13.7883 24.7992 14.1539C25.7414 11.9461 27.4148 9.47109 29.7422 6.25781ZM6.26203 6.26203C8.59218 9.47812 10.2586 11.9461 11.1937 14.1469C11.8547 13.7883 12.4172 13.3734 12.8953 12.8953C13.3734 12.4172 13.7883 11.8547 14.1469 11.1937C11.9461 10.2586 9.47812 8.59218 6.26203 6.26203ZM24.7992 21.832C24.1312 22.1977 23.5687 22.6125 23.0906 23.0906C22.6125 23.5687 22.1977 24.1312 21.832 24.7992C24.0469 25.7344 26.5219 27.4078 29.7422 29.7422C27.4078 26.5219 25.7344 24.0469 24.7992 21.832ZM11.1937 21.8391C10.2586 24.0469 8.58515 26.5219 6.25781 29.7422C9.47109 27.4148 11.9461 25.7414 14.1539 24.7992C13.7883 24.1312 13.3734 23.5687 12.8953 23.0906C12.4172 22.6125 11.8547 22.1977 11.1937 21.8391Z" fill="black"/>
</svg>
