<svg width="38" height="38" viewBox="0 0 38 38" fill="none" xmlns="http://www.w3.org/2000/svg">
<path d="M22.1988 22.119L24.8905 17.464C24.8905 17.464 24.748 17.3373 24.5263 17.179L22.1988 15.3423L22.183 15.374C22.2305 14.994 22.2621 14.6298 22.2621 14.2498C22.2621 13.8698 22.2305 13.5057 22.1671 13.1573L22.183 13.1732L24.8905 11.0515L22.1988 6.38067L19.0163 7.66317V7.679C18.4305 7.23567 17.7971 6.85567 17.1163 6.57067H17.1321L16.6571 3.1665H11.258L10.7671 6.57067H10.783C10.1021 6.85567 9.46879 7.23567 8.88296 7.679V7.66317L5.70046 6.38067L3.00879 11.0515L5.70046 13.1732L5.71629 13.1573C5.66879 13.5057 5.63712 13.8698 5.63712 14.2498C5.63712 14.6298 5.66879 14.994 5.71629 15.374L5.70046 15.3423L3.37296 17.179C3.16712 17.3373 3.00879 17.464 3.00879 17.464L5.70046 22.119L8.89879 20.8523L8.86712 20.8048C9.45296 21.264 10.0863 21.644 10.783 21.929H10.7671L11.258 25.3332H16.6413C16.6413 25.3332 16.673 25.1273 16.7046 24.8582L17.1321 21.929H17.1163C17.813 21.644 18.4463 21.264 19.0321 20.8048L19.0005 20.8523L22.1988 22.119ZM13.9496 17.4165C12.208 17.4165 10.783 15.9915 10.783 14.2498C10.783 12.5082 12.208 11.0832 13.9496 11.0832C15.6913 11.0832 17.1163 12.5082 17.1163 14.2498C17.1163 15.9915 15.6913 17.4165 13.9496 17.4165ZM33.2188 28.4048L33.203 28.4207C33.2346 28.1832 33.2505 27.9457 33.2505 27.7082C33.2505 27.4707 33.2346 27.2332 33.1871 27.0115L33.203 27.0273L34.9446 25.6657L33.2188 22.6573L31.1763 23.4807V23.4965C30.7963 23.2115 30.4005 22.974 29.9571 22.784H29.973L29.6563 20.5832H26.1888L25.8721 22.7682H25.888C25.4446 22.9582 25.0488 23.1957 24.6688 23.4807V23.4648L22.6263 22.6415L20.9005 25.6498L22.6263 27.0115L22.6421 26.9957C22.6105 27.2173 22.5946 27.4548 22.5946 27.6923C22.5946 27.9298 22.6105 28.1673 22.6421 28.4207L22.6263 28.4048L21.138 29.5923C21.0113 29.6873 20.9005 29.7823 20.9005 29.7823L22.6263 32.7748L24.6846 31.9673L24.6688 31.9357C25.0488 32.2365 25.4605 32.474 25.9038 32.664H25.888L26.2046 34.849H29.6721C29.6721 34.849 29.688 34.7223 29.7196 34.5482L29.9888 32.664H29.973C30.4163 32.474 30.828 32.2365 31.208 31.9357L31.1921 31.9673L33.2505 32.7748L34.9763 29.7823C34.9763 29.7823 34.8813 29.7032 34.7388 29.5923L33.2188 28.4048ZM27.9146 29.7507C26.7905 29.7507 25.8721 28.8323 25.8721 27.7082C25.8721 26.584 26.7905 25.6657 27.9146 25.6657C29.0388 25.6657 29.9571 26.584 29.9571 27.7082C29.9571 28.8323 29.0388 29.7507 27.9146 29.7507Z" fill="black"/>
</svg>
