<svg width="55" height="55" viewBox="0 0 55 55" fill="none" xmlns="http://www.w3.org/2000/svg">
<path d="M27.4999 13.7676C14.6759 13.8283 8.96871 29.8229 18.6579 37.9908C21.1394 40.0628 24.2698 41.1975 27.5026 41.1968C30.7354 41.1961 33.8652 40.0601 36.3459 37.9871C46.0312 29.824 40.3193 13.8236 27.4999 13.7676ZM27.4999 39.5448C24.8594 39.544 22.2932 38.6699 20.2011 37.0588C20.7173 35.8914 21.505 34.8643 22.4986 34.063C24.8679 38.4381 30.1354 38.4323 32.5012 34.0633C33.4947 34.8644 34.2827 35.8912 34.7996 37.0582C32.7074 38.6697 30.1409 39.544 27.4999 39.5448ZM27.4999 29.1331C26.1649 29.1317 24.885 28.6007 23.941 27.6567C22.997 26.7127 22.466 25.4328 22.4646 24.0978C22.7007 17.4334 32.3002 17.4351 32.5353 24.0978C32.5338 25.4328 32.0029 26.7127 31.0589 27.6567C30.1149 28.6007 28.835 29.1317 27.4999 29.1331ZM28.1262 30.8206V31.4091C28.129 31.4932 28.1149 31.5769 28.0847 31.6553C28.0545 31.7338 28.0089 31.8054 27.9504 31.8658C27.892 31.9263 27.822 31.9743 27.7446 32.0072C27.6672 32.04 27.584 32.0569 27.4999 32.0569C27.4159 32.0569 27.3327 32.04 27.2553 32.0072C27.1779 31.9743 27.1079 31.9263 27.0495 31.8658C26.991 31.8054 26.9453 31.7338 26.9152 31.6553C26.885 31.5769 26.8709 31.4932 26.8737 31.4091V30.8206L28.1262 30.8206ZM27.4999 33.7597C27.9139 33.7582 28.3198 33.6454 28.6751 33.433C29.0304 33.2207 29.322 32.9166 29.5193 32.5527C30.06 32.6937 30.5842 32.8916 31.0832 33.143C29.3753 36.4831 25.6207 36.4778 23.9167 33.143C24.4158 32.8917 24.94 32.6938 25.4806 32.5527C25.6779 32.9166 25.9695 33.2207 26.3248 33.433C26.6801 33.6454 27.086 33.7582 27.4999 33.7597ZM36.1124 35.9033C35.486 34.6632 34.5988 33.5732 33.5115 32.7082C32.4243 31.8431 31.1629 31.2235 29.8137 30.8918V30.4017C31.2953 29.8582 32.5384 28.8105 33.3249 27.4423C34.1114 26.0741 34.3912 24.4727 34.1153 22.9188C33.8393 21.3649 33.0251 19.9578 31.8155 18.9441C30.6059 17.9305 29.0781 17.3749 27.4999 17.3749C25.9218 17.3749 24.394 17.9305 23.1844 18.9441C21.9748 19.9578 21.1606 21.3649 20.8846 22.9188C20.6087 24.4727 20.8885 26.0741 21.675 27.4423C22.4615 28.8105 23.7046 29.8582 25.1862 30.4017V30.8919C23.837 31.2235 22.5755 31.843 21.4883 32.7081C20.401 33.5731 19.5138 34.6631 18.8875 35.9033C11.4882 28.4337 16.8768 15.4287 27.5001 15.4551C38.1229 15.4287 43.5121 28.4358 36.1124 35.9033Z" fill="black"/>
<path d="M44.8213 43.6282L43.3791 42.186C43.9862 41.5367 44.5527 40.8506 45.0754 40.1315C45.171 39.9982 45.2256 39.8399 45.2327 39.676C45.2397 39.5121 45.1988 39.3497 45.115 39.2087C44.7034 38.5298 44.4574 37.7635 44.397 36.9719C44.3366 36.1802 44.4635 35.3855 44.7673 34.652C45.0712 33.9185 45.5434 33.2669 46.146 32.7498C46.7485 32.2328 47.4642 31.8649 48.2354 31.6759C48.3942 31.6356 48.5378 31.5498 48.6486 31.4291C48.7594 31.3083 48.8325 31.1579 48.8591 30.9962C49.2418 28.6869 49.2443 26.3305 48.8665 24.0204C48.8398 23.8582 48.7663 23.7073 48.655 23.5863C48.5438 23.4653 48.3997 23.3793 48.2403 23.339C47.4678 23.1468 46.7512 22.776 46.1481 22.2566C45.5449 21.7371 45.072 21.0835 44.7673 20.3481C44.4626 19.6127 44.3347 18.8161 44.3938 18.0222C44.4529 17.2284 44.6974 16.4595 45.1076 15.7774C45.192 15.6361 45.2332 15.4732 45.2262 15.3088C45.2192 15.1443 45.1642 14.9856 45.068 14.852C44.548 14.1382 43.9842 13.4573 43.38 12.8132L44.8213 11.3719C45.6754 11.9836 46.6995 12.3125 47.75 12.3125C54.4502 12.0749 54.4487 2.42409 47.7499 2.1875C46.8249 2.19627 45.9198 2.45729 45.1321 2.94242C44.3444 3.42756 43.7041 4.11843 43.28 4.94058C42.856 5.76274 42.6643 6.68503 42.7256 7.60807C42.787 8.53111 43.099 9.41991 43.6282 10.1787L42.186 11.6209C41.5367 11.0138 40.8506 10.4473 40.1315 9.92462C39.9982 9.82903 39.8399 9.77437 39.676 9.76734C39.5121 9.76031 39.3497 9.80121 39.2087 9.88503C38.5298 10.2966 37.7635 10.5426 36.9719 10.603C36.1802 10.6634 35.3855 10.5365 34.652 10.2327C33.9185 9.92884 33.2669 9.45655 32.7499 8.85405C32.2328 8.25154 31.8649 7.53576 31.6759 6.76464C31.6356 6.60581 31.5498 6.4622 31.4291 6.35141C31.3083 6.24062 31.1579 6.16746 30.9962 6.14089C28.6869 5.75778 26.3305 5.75529 24.0204 6.13352C23.8582 6.16029 23.7073 6.23379 23.5863 6.34502C23.4653 6.45625 23.3793 6.60038 23.3389 6.75974C23.1467 7.5322 22.776 8.2488 22.2566 8.85197C21.7371 9.45515 21.0834 9.92807 20.348 10.2327C19.6127 10.5374 18.816 10.6653 18.0222 10.6063C17.2284 10.5472 16.4595 10.3027 15.7773 9.89249C15.6361 9.80786 15.4732 9.7665 15.3087 9.77353C15.1443 9.78056 14.9855 9.83567 14.852 9.93204C14.1382 10.4521 13.4573 11.0158 12.8131 11.62L11.3718 10.1787C11.8332 9.52957 12.1348 8.7807 12.2521 7.99301C12.3695 7.20532 12.2992 6.40106 12.0471 5.64564C11.795 4.89022 11.3681 4.20498 10.8012 3.64564C10.2343 3.08631 9.54341 2.66869 8.78468 2.42674C8.02594 2.18479 7.2208 2.12536 6.43476 2.25326C5.64872 2.38117 4.90397 2.6928 4.26108 3.16282C3.61819 3.63284 3.09533 4.24797 2.73501 4.95818C2.3747 5.66839 2.18711 6.45362 2.1875 7.25C2.19626 8.17504 2.45726 9.08016 2.94239 9.86783C3.42752 10.6555 4.11839 11.2959 4.94055 11.7199C5.76271 12.144 6.68499 12.3357 7.60804 12.2744C8.53109 12.213 9.4199 11.901 10.1787 11.3718L11.6209 12.814C11.0138 13.4633 10.4473 14.1494 9.92462 14.8685C9.82902 15.0018 9.77437 15.1601 9.76735 15.324C9.76032 15.4879 9.80123 15.6503 9.88507 15.7913C10.2967 16.4702 10.5426 17.2365 10.603 18.0282C10.6634 18.8198 10.5366 19.6145 10.2327 20.348C9.92888 21.0815 9.45659 21.7332 8.85408 22.2502C8.25158 22.7672 7.53579 23.1351 6.76468 23.3241C6.60585 23.3644 6.46224 23.4502 6.35145 23.571C6.24066 23.6917 6.1675 23.8422 6.14093 24.0039C5.75822 26.3132 5.75572 28.6695 6.13352 30.9796C6.16029 31.1418 6.23379 31.2927 6.34502 31.4137C6.45625 31.5347 6.60038 31.6207 6.75974 31.661C7.5322 31.8533 8.24881 32.224 8.85198 32.7434C9.45515 33.2629 9.92807 33.9165 10.2327 34.6519C10.5374 35.3873 10.6653 36.184 10.6063 36.9778C10.5472 37.7716 10.3027 38.5405 9.89249 39.2227C9.80805 39.3639 9.76681 39.5268 9.77383 39.6912C9.78086 39.8557 9.83586 40.0144 9.93204 40.148C10.4521 40.8618 11.0158 41.5427 11.62 42.1869L10.1787 43.6281C9.52957 43.1668 8.7807 42.8652 7.99301 42.7479C7.20533 42.6305 6.40106 42.7008 5.64564 42.9529C4.89023 43.205 4.20498 43.6319 3.64565 44.1988C3.08632 44.7657 2.6687 45.4566 2.42675 46.2153C2.18481 46.9741 2.12537 47.7792 2.25327 48.5652C2.38118 49.3513 2.69281 50.096 3.16283 50.7389C3.63285 51.3818 4.24798 51.9047 4.95819 52.265C5.66839 52.6253 6.45362 52.8129 7.25 52.8125C8.17504 52.8037 9.08016 52.5427 9.86784 52.0576C10.6555 51.5725 11.2959 50.8816 11.7199 50.0595C12.144 49.2373 12.3357 48.315 12.2744 47.392C12.213 46.4689 11.901 45.5801 11.3718 44.8213L12.814 43.3791C13.4633 43.9862 14.1494 44.5527 14.8685 45.0754C15.0017 45.1712 15.16 45.2259 15.324 45.233C15.4879 45.24 15.6504 45.199 15.7913 45.1149C16.4702 44.7033 17.2365 44.4574 18.0282 44.397C18.8198 44.3366 19.6145 44.4634 20.348 44.7673C21.0815 45.0711 21.7332 45.5434 22.2502 46.1459C22.7672 46.7484 23.1351 47.4642 23.3241 48.2353C23.3644 48.3942 23.4502 48.5378 23.571 48.6486C23.6917 48.7593 23.8422 48.8325 24.0039 48.8591C26.3132 49.2422 28.6696 49.2447 30.9796 48.8665C31.1418 48.8397 31.2927 48.7662 31.4137 48.655C31.5348 48.5438 31.6207 48.3996 31.6611 48.2403C31.8533 47.4678 32.224 46.7512 32.7434 46.148C33.2629 45.5449 33.9166 45.0719 34.652 44.7673C35.3874 44.4626 36.184 44.3347 36.9778 44.3938C37.7716 44.4529 38.5405 44.6973 39.2227 45.1075C39.364 45.1919 39.5268 45.2332 39.6913 45.2262C39.8557 45.2191 40.0145 45.1641 40.148 45.068C40.8618 44.5479 41.5428 43.9842 42.1869 43.38L43.6282 44.8213C42.8932 45.8554 42.5735 47.1279 42.7325 48.3866C42.8915 49.6453 43.5175 50.7984 44.4865 51.6173C45.4555 52.4362 46.6968 52.8612 47.9644 52.8081C49.232 52.755 50.4334 52.2276 51.3305 51.3305C52.2276 50.4334 52.755 49.232 52.8081 47.9644C52.8612 46.6968 52.4362 45.4555 51.6173 44.4865C50.7984 43.5175 49.6453 42.8915 48.3866 42.7325C47.1279 42.5735 45.8554 42.8932 44.8213 43.6282ZM47.75 3.875C48.6399 3.88297 49.4906 4.24206 50.117 4.87413C50.7435 5.50621 51.0949 6.36011 51.0949 7.25002C51.0949 8.13994 50.7434 8.99384 50.117 9.6259C49.4906 10.258 48.6398 10.617 47.7499 10.625C46.8601 10.617 46.0094 10.2579 45.3829 9.62587C44.7565 8.99379 44.405 8.13989 44.405 7.24998C44.405 6.36006 44.7565 5.50616 45.3829 4.8741C46.0094 4.24203 46.8601 3.88295 47.75 3.875ZM7.25 10.625C6.36012 10.617 5.5094 10.2579 4.88297 9.62587C4.25653 8.99379 3.90507 8.13989 3.90508 7.24998C3.90508 6.36006 4.25655 5.50616 4.883 4.8741C5.50945 4.24203 6.36017 3.88295 7.25005 3.875C8.13993 3.88297 8.99065 4.24206 9.61709 4.87413C10.2435 5.50621 10.595 6.36011 10.595 7.25002C10.595 8.13994 10.2435 8.99384 9.61705 9.6259C8.9906 10.258 8.13988 10.617 7.25 10.625ZM7.25 51.125C6.36012 51.117 5.5094 50.7579 4.88297 50.1259C4.25653 49.4938 3.90507 48.6399 3.90508 47.75C3.90508 46.8601 4.25655 46.0062 4.883 45.3741C5.50945 44.742 6.36017 44.383 7.25005 44.375C8.13993 44.383 8.99065 44.7421 9.61709 45.3741C10.2435 46.0062 10.595 46.8601 10.595 47.75C10.595 48.6399 10.2435 49.4938 9.61705 50.1259C8.9906 50.758 8.13988 51.117 7.25 51.125ZM39.5852 43.3862C38.7203 42.9683 37.7768 42.738 36.8166 42.7104C35.8564 42.6828 34.9012 42.8585 34.0137 43.2261C33.1262 43.5937 32.3265 44.1448 31.667 44.8432C31.0075 45.5416 30.5031 46.3716 30.187 47.2787C28.3983 47.5231 26.5846 47.5212 24.7965 47.2729C24.4838 46.3672 23.9825 45.5382 23.3256 44.8406C22.6688 44.1431 21.8714 43.5928 20.9862 43.2261C20.101 42.8595 19.1481 42.6848 18.1903 42.7137C17.2326 42.7426 16.2919 42.9743 15.4304 43.3937C13.9907 42.3039 12.7066 41.0226 11.6138 39.5852C12.0317 38.7203 12.2621 37.7768 12.2897 36.8166C12.3173 35.8564 12.1416 34.9012 11.774 34.0137C11.4064 33.1262 10.8553 32.3264 10.1569 31.6669C9.45844 31.0074 8.62842 30.5031 7.72131 30.187C7.47727 28.3983 7.47921 26.5847 7.72708 24.7965C8.63275 24.4838 9.46175 23.9824 10.1593 23.3256C10.8569 22.6688 11.4072 21.8714 11.7738 20.9862C12.1405 20.101 12.3151 19.1481 12.2863 18.1903C12.2574 17.2326 12.0257 16.292 11.6064 15.4304C12.6961 13.9907 13.9774 12.7066 15.4148 11.6138C16.2797 12.0318 17.2232 12.2622 18.1834 12.2898C19.1436 12.3175 20.0989 12.1417 20.9864 11.7741C21.8739 11.4066 22.6736 10.8555 23.3331 10.157C23.9926 9.4585 24.497 8.62846 24.813 7.72132C26.6017 7.47686 28.4154 7.4788 30.2035 7.72708C30.5162 8.63277 31.0175 9.46179 31.6743 10.1594C32.3312 10.857 33.1285 11.4073 34.0137 11.7739C34.899 12.1406 35.8519 12.3152 36.8096 12.2863C37.7674 12.2575 38.7081 12.0257 39.5696 11.6064C41.0093 12.6961 42.2934 13.9774 43.3862 15.4148C42.9683 16.2797 42.7379 17.2232 42.7103 18.1834C42.6827 19.1436 42.8584 20.0988 43.226 20.9863C43.5936 21.8738 44.1447 22.6736 44.8431 23.3331C45.5416 23.9926 46.3716 24.4969 47.2787 24.813C47.5227 26.6017 47.5208 28.4153 47.2729 30.2035C46.3672 30.5162 45.5382 31.0175 44.8406 31.6743C44.143 32.3311 43.5927 33.1285 43.226 34.0137C42.8594 34.899 42.6847 35.8519 42.7136 36.8096C42.7425 37.7674 42.9743 38.7081 43.3936 39.5696C42.3039 41.0093 41.0226 42.2934 39.5852 43.3862ZM47.7499 51.125C46.8601 51.117 46.0094 50.7579 45.3829 50.1259C44.7565 49.4938 44.405 48.6399 44.405 47.75C44.405 46.8601 44.7565 46.0062 45.3829 45.3741C46.0094 44.742 46.8601 44.383 47.75 44.375C48.6399 44.383 49.4906 44.7421 50.117 45.3741C50.7435 46.0062 51.0949 46.8601 51.0949 47.75C51.0949 48.6399 50.7434 49.4938 50.117 50.1259C49.4906 50.758 48.6398 51.117 47.7499 51.125Z" fill="black"/>
</svg>
