<svg width="38" height="38" viewBox="0 0 38 38" fill="none" xmlns="http://www.w3.org/2000/svg">
<path d="M13.2996 24.7002C13.8036 24.7002 14.2868 24.5 14.6431 24.1437C14.9995 23.7874 15.1996 23.3041 15.1996 22.8002C15.1996 22.2963 14.9995 21.813 14.6431 21.4567C14.2868 21.1004 13.8036 20.9002 13.2996 20.9002C12.7957 20.9002 12.3125 21.1004 11.9561 21.4567C11.5998 21.813 11.3996 22.2963 11.3996 22.8002C11.3996 23.3041 11.5998 23.7874 11.9561 24.1437C12.3125 24.5 12.7957 24.7002 13.2996 24.7002ZM20.8996 22.8002C20.8996 23.3041 20.6995 23.7874 20.3431 24.1437C19.9868 24.5 19.5036 24.7002 18.9996 24.7002C18.4957 24.7002 18.0125 24.5 17.6561 24.1437C17.2998 23.7874 17.0996 23.3041 17.0996 22.8002C17.0996 22.2963 17.2998 21.813 17.6561 21.4567C18.0125 21.1004 18.4957 20.9002 18.9996 20.9002C19.5036 20.9002 19.9868 21.1004 20.3431 21.4567C20.6995 21.813 20.8996 22.2963 20.8996 22.8002ZM24.6996 24.7002C25.2036 24.7002 25.6868 24.5 26.0431 24.1437C26.3995 23.7874 26.5996 23.3041 26.5996 22.8002C26.5996 22.2963 26.3995 21.813 26.0431 21.4567C25.6868 21.1004 25.2036 20.9002 24.6996 20.9002C24.1957 20.9002 23.7125 21.1004 23.3561 21.4567C22.9998 21.813 22.7996 22.2963 22.7996 22.8002C22.7996 23.3041 22.9998 23.7874 23.3561 24.1437C23.7125 24.5 24.1957 24.7002 24.6996 24.7002ZM7.59964 6.2569C7.95588 5.90055 8.43907 5.7003 8.94294 5.7002H29.0563C29.5602 5.7003 30.0434 5.90055 30.3996 6.2569L35.4194 11.2748C36.8672 12.7245 35.8412 15.2002 33.793 15.2002H32.2996V28.5002C32.2996 29.508 31.8993 30.4746 31.1866 31.1872C30.474 31.8998 29.5075 32.3002 28.4996 32.3002H9.49964C8.49182 32.3002 7.52528 31.8998 6.81264 31.1872C6.1 30.4746 5.69964 29.508 5.69964 28.5002V15.2002H4.20624C2.15804 15.2002 1.13394 12.7245 2.58364 11.2748L7.59964 6.2569ZM30.3996 28.5002V15.2002H7.59964V28.5002C7.59964 29.0041 7.79982 29.4874 8.15614 29.8437C8.51246 30.2 8.99573 30.4002 9.49964 30.4002H28.4996C29.0036 30.4002 29.4868 30.2 29.8431 29.8437C30.1995 29.4874 30.3996 29.0041 30.3996 28.5002ZM33.793 13.3002C33.8718 13.3002 33.9489 13.2769 34.0145 13.2331C34.08 13.1894 34.1312 13.1273 34.1614 13.0545C34.1917 12.9818 34.1998 12.9017 34.1846 12.8243C34.1694 12.747 34.1317 12.6759 34.0761 12.62L29.0563 7.6002H8.94294L3.92504 12.62C3.86962 12.6758 3.83192 12.7467 3.81667 12.8239C3.80143 12.901 3.80933 12.981 3.83938 13.0536C3.86942 13.1263 3.92027 13.1885 3.98555 13.2324C4.05082 13.2762 4.1276 13.2998 4.20624 13.3002H33.793Z" fill="black"/>
</svg>
