<svg width="68" height="68" viewBox="0 0 68 68" fill="none" xmlns="http://www.w3.org/2000/svg">
<rect x="34" width="48.0834" height="48.0834" rx="24.0417" transform="rotate(45 34 0)" fill="white"/>
<g clip-path="url(#clip0_1344_253)">
<path d="M37.771 27.4009C37.771 28.1004 38.4621 29.1451 39.1617 30.0219C40.0611 31.1533 41.1359 32.1404 42.3681 32.8937C43.2921 33.4584 44.4122 34.0005 45.3135 34.0005M45.3135 34.0005C44.4122 34.0005 43.2912 34.5427 42.3681 35.1074C41.1359 35.8616 40.0611 36.8488 39.1617 37.9782C38.4621 38.856 37.771 39.9025 37.771 40.6002M45.3135 34.0005H22.6861" stroke="black"/>
</g>
<defs>
<clipPath id="clip0_1344_253">
<rect width="22.6274" height="22.6274" fill="white" transform="matrix(0 1 -1 0 45.3135 22.6865)"/>
</clipPath>
</defs>
</svg>
