<svg width="943" height="181" viewBox="0 0 943 181" fill="none" xmlns="http://www.w3.org/2000/svg">
<path d="M46.6299 116C48.9632 134.5 63.2966 143.75 89.6299 143.75C99.2966 143.75 107.63 142.667 114.63 140.5C121.63 138.167 125.13 134.583 125.13 129.75C125.13 126.25 123.297 123.5 119.63 121.5C116.13 119.333 110.047 117 101.38 114.5L51.6299 101C22.6299 93 8.12988 77 8.12988 53C8.12988 40.8333 11.7965 30.6667 19.1299 22.5C26.4632 14.3333 35.6299 8.58333 46.6299 5.24999C57.7966 1.74999 70.3799 -3.09944e-06 84.3799 -3.09944e-06C107.547 -3.09944e-06 126.713 5.08333 141.88 15.25C157.213 25.4167 165.713 39.8333 167.38 58.5L121.13 60.75C120.13 54.0833 116.63 48.5 110.63 44C104.63 39.5 95.4632 37.25 83.1299 37.25C74.9632 37.25 68.5466 38.4167 63.8799 40.75C59.3799 42.9167 57.1299 45.8333 57.1299 49.5C57.1299 52.6667 58.7132 55.3333 61.8799 57.5C65.0466 59.5 70.0466 61.4167 76.8799 63.25L124.38 76.25C140.88 80.75 153.297 86.75 161.63 94.25C169.963 101.75 174.13 112.25 174.13 125.75C174.13 144.417 166.463 158.333 151.13 167.5C135.963 176.5 115.297 181 89.1299 181C32.6299 181 3.12988 159.833 0.629883 117.5L46.6299 116ZM217.63 157C200.297 140.833 191.63 118.667 191.63 90.5C191.63 62.3333 200.047 40.25 216.88 24.25C233.88 8.08333 257.463 -3.09944e-06 287.63 -3.09944e-06C312.797 -3.09944e-06 333.13 5.5 348.63 16.5C364.13 27.5 373.63 42.5833 377.13 61.75L329.88 65.25C327.547 57.5833 322.547 51.5 314.88 47C307.38 42.3333 298.297 40 287.63 40C272.297 40 260.63 44.75 252.63 54.25C244.797 63.75 240.88 75.8333 240.88 90.5C240.88 106 245.213 118.333 253.88 127.5C262.713 136.5 274.88 141 290.38 141C301.88 141 311.213 138.417 318.38 133.25C325.713 128.083 330.547 121.417 332.88 113.25L380.38 116C377.213 137.167 368.047 153.333 352.88 164.5C337.713 175.5 316.88 181 290.38 181C259.213 181 234.963 173 217.63 157ZM540.47 178L528.47 143H448.72L436.72 178H388.47L452.47 2.99999H526.22L590.47 178H540.47ZM461.47 106H515.72L488.72 27.25L461.47 106ZM661.513 137.75H756.513V178H612.263V2.99999H661.513V137.75ZM832.655 139.75H942.405V178H783.405V2.99999H938.405V41.25H832.655V71H914.905V107H832.655V139.75Z" fill="#FFB91A"/>
</svg>
