<svg width="55" height="55" viewBox="0 0 55 55" fill="none" xmlns="http://www.w3.org/2000/svg">
<path d="M10.7431 34.7458C11.7889 36.7901 13.1689 39.5998 17.1131 44.201C18.7895 46.1564 21.01 48.5168 23.0086 50.1091C23.5168 50.4722 23.814 50.7919 24.4892 50.7246C24.5615 50.7196 25.9701 50.6234 25.8805 50.6295C36.6914 49.6807 43.5593 44.1248 43.3579 43.8407C43.1154 43.4961 37.6181 47.7798 29.4165 49.3569C26.9244 49.835 25.1381 49.9041 24.9054 49.9281C24.1022 49.95 24.2661 50.099 23.4825 49.4996C20.6721 47.2559 16.4229 42.6501 13.3273 37.852C10.6612 34.1626 5.46091 24.4115 10.7431 34.7458Z" fill="black"/>
<path d="M43.5633 23.6217C43.6205 23.5108 43.563 23.3684 43.4652 23.2913C43.3674 23.2143 43.2401 23.1876 43.1173 23.1668C41.9604 22.9708 40.7756 23.0961 39.6084 23.2218C39.4297 23.241 39.1372 23.2783 39.0479 23.4642C38.9606 23.6456 39.0892 23.9046 39.2403 24.0072C39.4377 24.1412 39.6926 24.1475 39.9313 24.1445C41.0468 24.1299 42.1611 24.0111 43.2548 23.7899C43.3738 23.7659 43.5076 23.7295 43.5633 23.6217Z" fill="black"/>
<path d="M42.0454 26.4996C41.3839 25.9384 40.5836 25.5712 39.7944 25.2109C39.6735 25.1558 39.4736 25.0691 39.3466 25.1539C39.2228 25.2365 39.2069 25.4499 39.2643 25.5722C39.4699 26.0108 41.4416 26.789 41.8979 26.9482C41.9826 26.9779 42.0814 27.0052 42.1574 26.9576C42.2355 26.9085 42.2527 26.7961 42.2196 26.7101C42.1865 26.6241 42.1156 26.5592 42.0454 26.4996Z" fill="black"/>
<path d="M40.9415 20.4168C40.999 20.3525 41.0597 20.2747 41.0454 20.1897C41.0308 20.1023 40.9373 20.0458 40.8487 20.0438C40.7602 20.0417 40.6762 20.0809 40.5975 20.1214C39.8548 20.5035 39.2332 21.08 38.6219 21.6494C38.5282 21.7366 38.3775 21.8825 38.4058 22.0262C38.4334 22.1665 38.6171 22.2589 38.7469 22.2527C38.9166 22.2447 39.0645 22.1396 39.1991 22.0359C39.8284 21.5519 40.4125 21.009 40.9415 20.4168Z" fill="black"/>
<path d="M14.7832 16.6408C15.9289 15.8699 16.7224 16.3039 17.5679 17.3078C17.3028 16.5763 17.3519 15.7368 17.7004 15.0411C17.8727 14.6971 18.1121 14.3917 18.3496 14.0889C17.6168 14.1642 16.9884 15.2572 15.9195 13.9163C15.825 13.7978 15.7212 13.7018 15.6386 13.575C15.6493 13.73 15.7146 13.8808 15.7337 14.0364C15.8392 14.9005 15.2524 16.2044 14.7832 16.6408Z" fill="black"/>
<path d="M16.5643 44.8417C15.7911 44.9912 15.2203 46.2163 13.955 44.8872C13.843 44.7698 13.7232 44.677 13.623 44.5496C13.6763 44.8867 14.0889 45.3324 13.5296 46.9085C13.4034 47.2645 13.2528 47.6212 13 47.9018C14.1496 46.9711 15.0377 47.3587 16.0344 48.3502C15.6824 47.5948 15.6554 46.6943 15.9616 45.9191C16.113 45.5357 16.3395 45.1873 16.5643 44.8417Z" fill="black"/>
<path d="M10.1708 26.8338C9.95392 27.1624 9.89996 27.6099 10.0662 27.9959C10.2735 28.378 10.3291 28.4669 13.2957 33.5621C17.99 41.1143 25.2582 47.4688 26.5767 47.8944C26.779 47.9657 27.0566 47.9569 27.1931 47.9365C27.5425 47.8948 28.5599 47.8182 30.0389 47.564C35.6606 46.6069 41.0062 44.3331 45.7082 40.8172C45.8467 40.7085 45.9376 40.654 46.1149 40.5008C46.6377 40.0119 46.6669 39.2064 46.2324 38.69C45.2911 37.5692 42.7299 34.6856 38.9902 29.9469C31.7242 20.3202 37.503 28.0053 30.5013 18.4581C30.6944 18.5554 31.0114 18.6184 31.402 18.4225C32.0501 17.8918 32.5091 16.1889 32.6457 15.3593C32.6802 15.1419 32.6659 14.9769 32.6344 14.8397C34.0635 14.3232 35.603 14.0359 37.1418 13.5996C37.7209 13.3754 38.2242 13.1401 38.6606 12.9064C39.0379 13.1475 39.331 13.0139 39.9036 12.8629L40.3147 12.7097C40.8718 12.5145 41.4781 12.3334 42.0353 12.0897L42.4532 11.9085L42.6623 11.8109C43.3258 11.4796 43.0364 10.8661 42.948 10.369C42.7251 9.21249 42.4256 8.06306 42.2652 6.89974C42.032 5.4001 42.1513 4.92484 41.7219 4.51017C41.5268 4.32208 41.2621 4.26636 41.0671 4.26636C40.7097 4.26636 39.1274 4.61903 38.4687 4.90734C37.8701 5.13894 36.9606 5.36266 36.8673 5.95061C36.1855 5.94621 35.1552 6.05221 33.8436 5.96836C30.2478 5.91602 27.5288 5.60458 25.5165 10.2889C24.3993 12.846 24.6999 15.4103 25.3572 16.3547L23.1598 17.852C20.7033 20.0013 20.6421 19.9099 23.4769 18.3174C26.1283 16.4939 25.6079 16.8887 25.9447 16.6076C25.9559 16.6603 25.9601 16.7133 25.9787 16.7654C26.1112 17.2072 26.6083 17.5138 27.0103 17.5109C27.6323 17.5406 28.1259 17.2678 28.6155 17.0099C37.1449 29.1215 36.5233 27.96 38.3843 30.4252C45.4213 39.3432 45.9463 39.0567 45.7361 39.7042C45.6578 39.9323 45.5097 39.9954 45.2455 40.1992C40.165 43.9967 34.3385 46.3251 28.0552 47.0695C26.6138 47.2105 26.9796 47.2469 26.4809 46.9814C25.4837 46.3009 24.5214 45.4685 23.597 44.6326C17.2242 38.7829 14.787 34.5184 10.5634 27.7778C10.4291 27.5005 10.4779 27.1142 10.8548 26.8511C23.0636 18.1681 22.4954 18.5763 10.9466 26.1984C10.6229 26.4122 10.3281 26.5733 10.1708 26.8338ZM39.6667 5.56213C39.7225 5.56907 39.6946 5.91044 39.834 6.54439C39.7992 7.54063 40.0222 8.54373 40.4749 9.43547C41.0567 10.5487 40.4644 10.4844 40.029 9.65845C39.5344 8.69692 39.2977 7.6033 39.3395 6.52356C39.4926 5.86175 39.625 5.56213 39.6667 5.56213ZM26.7066 16.5077C26.3691 15.5209 29.3923 13.7659 30.2205 13.1878C30.4321 13.1827 30.7511 13.1054 31.0433 12.941C31.2314 12.8238 31.5559 12.6263 31.6044 12.1194C31.5604 11.7148 31.3643 11.5024 31.1755 11.3038C30.535 10.7021 29.6042 10.5238 28.9337 10.8724C27.949 11.3546 27.5387 12.4023 27.3635 13.2591C27.2627 13.7459 27.2363 14.0987 27.2577 14.3356C26.6877 14.8177 26.087 15.3528 25.9438 16.0372C25.9 16.0566 25.8541 16.0731 25.8113 16.094C25.6926 15.733 25.517 14.6728 25.5417 13.6248C25.6082 11.3522 26.7778 9.04533 27.8998 7.99345C29.5115 6.45109 31.7148 6.70564 33.8415 6.74048C35.2407 6.59115 36.2175 6.331 36.889 6.22122C36.9222 6.31438 36.9679 6.34936 36.9987 6.34936C37.0057 6.42601 37.0126 6.49561 37.0196 6.57226C36.9848 6.43286 36.9568 6.35631 36.9429 6.35631C36.908 6.35631 36.908 6.73257 36.929 7.47788C36.929 8.22972 37.2448 10.0307 37.4863 10.8357C37.7132 11.4201 37.9748 11.9239 38.2762 12.4862C37.288 12.825 34.564 13.4359 33.4327 13.7621C31.0875 14.3973 30 15.3685 28.5242 16.1913C28.0125 16.4685 26.9353 17.0831 26.7066 16.5077ZM30.8099 12.4699C30.1857 12.5134 28.7705 13.2483 28.0419 13.741C28.0683 13.6448 28.0931 13.5422 28.1158 13.4322C28.2114 13.0221 28.3204 12.6296 28.5096 12.3149C28.6977 11.9904 28.9655 11.7132 29.2649 11.5699C29.5662 11.4238 29.8743 11.435 30.2097 11.5814C30.372 11.6498 30.5212 11.7491 30.6402 11.8601C30.7557 11.9645 30.8394 12.1252 30.8336 12.1616C30.9005 12.2025 30.8785 12.3447 30.8099 12.4699ZM29.2062 16.7111C29.3446 16.6199 29.4742 16.5344 29.607 16.4469C29.7204 16.3772 29.8331 16.3091 29.9453 16.2393L29.7189 17.395C29.1523 16.6283 29.2966 16.8226 29.2062 16.7111ZM30.159 17.9912C30.2253 17.9181 30.3146 17.7978 30.4607 17.6227C30.7714 15.9561 30.8313 15.9117 30.7906 15.7182C31.1529 15.4947 31.5248 15.2951 31.91 15.1263C31.784 15.7213 31.3982 17.4441 30.9178 17.8212C30.8777 18.0379 30.6595 18.1574 30.5203 18.1668C30.396 18.1805 30.3216 18.1519 30.2798 18.1559C30.2423 18.1046 30.2399 18.1014 30.159 17.9912Z" fill="black"/>
<path d="M20.3257 28.5576C20.1202 28.6138 19.9616 28.6729 19.7602 28.7667C19.5426 28.8558 19.409 29.0833 19.3894 29.2673C19.3763 29.3705 19.3531 29.4702 19.3241 29.5641C18.9355 30.8325 17.6137 30.5999 17.6083 30.6843C17.5596 30.8239 19.3873 31.18 19.9732 29.4209C19.9924 29.3762 20.0096 29.3855 20.0284 29.3856C20.9594 29.1655 21.7994 29.3255 22.5532 29.912C22.7555 30.0638 22.724 30.0691 22.7339 30.0936C22.6548 30.144 21.3365 30.9856 21.4199 30.9324L17.1097 33.6839C17.1068 33.678 17.1219 33.7003 17.0807 33.6557C17.0405 33.5232 17.0125 33.4184 16.9832 33.2108C16.837 32.1463 17.1331 31.5039 17.4835 30.7746C17.5327 30.7054 17.6114 30.6759 17.6192 30.6275C17.6643 30.0644 15.7292 31.1942 16.2806 33.6582C16.3075 33.7462 16.3174 33.8982 16.4377 34.083C16.617 34.3942 17.1403 34.5976 17.5014 34.3498C17.5736 34.3037 23.0834 30.7902 23.2201 30.6941C23.5271 30.4703 23.617 29.9883 23.3373 29.5909C23.1965 29.4174 23.1176 29.3804 23.0244 29.3005C22.2886 28.7249 21.2963 28.3935 20.3257 28.5576Z" fill="black"/>
<path d="M17.0759 26.2825C17.6549 26.0681 18.2097 26.2984 18.4917 26.5016C18.785 26.7161 18.8984 26.8861 18.9374 26.8624C19.0386 26.8141 18.4743 25.5057 16.974 25.5172C15.4282 25.7042 14.6042 27.5214 15.4863 28.8883C16.3474 30.2649 18.3477 30.2795 19.1623 28.9277C19.831 27.8135 19.139 26.7494 18.8863 26.8892C18.7959 26.9363 18.7979 27.1163 18.7937 27.3994C18.7483 29.4548 16.8233 29.5729 16.1381 28.4742C15.564 27.5828 16.0785 26.4051 17.0759 26.2825Z" fill="black"/>
<path d="M28.5575 32.5576C29.3677 31.3656 29.5572 30.7016 29.5122 30.6718C29.4341 30.6136 29.0769 31.2216 28.0186 32.0048C26.303 33.6875 24.7084 33.8873 23.8661 34.2991C22.9621 34.739 22.3963 35.6718 21.6495 36.1905C21.4503 36.3339 21.3092 36.4177 21.3106 36.5206C21.3051 36.7459 22.1073 36.9393 23.0557 35.9549C23.4521 35.5569 23.7912 35.1902 24.2104 34.9901C24.8718 34.658 26.7137 34.3646 28.5575 32.5576Z" fill="black"/>
<path d="M24.31 38.8903C24.5118 38.927 24.7106 38.71 24.9882 38.3295C25.7651 37.2938 27.0374 37.8086 27.7973 36.7281C27.9285 36.3118 27.9181 36.0363 27.9253 35.8493C27.9212 35.1303 27.7051 35.9071 27.1765 36.2692C26.6664 37.027 25.3194 36.5901 24.3689 37.8683C23.9581 38.4495 24.1337 38.8707 24.31 38.8903Z" fill="black"/>
<path d="M25.9219 40.6475L35.838 34.4499L36.4104 35.3657L26.4943 41.5633L25.9219 40.6475Z" fill="black"/>
<path d="M30.6297 41.0775C30.1273 41.4932 29.6068 41.887 29.07 42.257C28.4991 42.6421 28.9099 43.2963 29.5082 42.8927C30.0637 42.5098 30.6023 42.1023 31.1221 41.6723C31.4135 40.7194 31.4942 40.8483 30.6297 41.0775Z" fill="black"/>
<path d="M36.8854 38.4334C36.5639 38.0598 35.9171 37.9704 35.5924 38.3687C35.4152 38.5856 35.3976 38.8539 35.3948 39.0884C35.3899 39.5957 35.4159 40.11 35.4714 40.6173C35.5504 41.3149 35.9355 41.5398 36.2645 41.4842C35.9805 42.1431 35.5565 42.7414 35.02 43.2167C34.7527 43.4536 35.1122 43.8576 35.3786 43.6203C36.1703 42.9186 36.7427 41.975 37.0204 40.9534C37.2967 40.6686 37.5597 40.3691 37.8079 40.0569C38.3266 40.684 39.36 40.2739 39.4349 39.1836C40.1696 39.4633 40.8404 38.8883 41.0057 38.1219C41.0985 37.6937 41.0437 37.2595 40.9952 36.8767C40.9496 36.5221 40.414 36.5903 40.4594 36.9442C40.5044 37.301 40.5508 37.6698 40.4784 38.008C40.4221 38.2678 40.259 38.5832 39.9679 38.6883C39.7531 38.7666 39.4421 38.6562 39.3927 38.445C39.3154 38.112 38.8206 38.2052 38.8619 38.5385C38.8949 38.8169 38.9329 39.1326 38.8527 39.3963C38.7923 39.5974 38.6235 39.8052 38.4196 39.8136C38.2984 39.8231 38.1324 39.6559 38.1792 39.5566C38.3235 39.2631 37.9103 39.014 37.7172 39.2814C37.5513 39.512 37.3769 39.7366 37.1941 39.9546C37.2046 39.8228 37.2102 39.6909 37.2102 39.5591C37.2109 39.2385 37.1779 38.773 36.8854 38.4334ZM36.5338 40.6778C36.4566 40.755 36.2612 40.9671 36.1668 40.9492C35.9303 40.9088 35.9328 39.2862 35.9348 39.094C35.937 38.8724 35.9517 38.634 36.1703 38.6478C36.85 38.6478 36.6936 40.0212 36.5338 40.6778Z" fill="black"/>
<path d="M23.9283 23.0594C27.1867 20.4758 27.2441 20.5115 23.5876 22.55C23.3174 22.6906 22.9205 23.009 22.8376 23.5059C22.7537 24.494 23.3773 25.0544 24.5745 26.5441C25.3655 27.5583 25.9049 28.4065 26.9609 27.6812C27.0346 27.6277 30.5032 25.1128 30.2842 25.2716C30.4876 25.1075 30.8159 24.9451 30.9766 24.4754C31.0495 24.2408 30.9935 23.9677 30.8952 23.7953C30.7497 23.5219 30.6146 23.4202 29.4556 22.1958C28.7086 21.4133 27.9614 20.5226 27.2056 20.5758C26.6502 20.6169 26.3313 21.0321 26.382 21.1202C26.4063 21.1626 26.4943 21.1641 26.6378 21.1382C27.114 21.0645 27.3311 21.0015 27.8756 21.6095C29.4733 23.4201 30.3503 24.1389 30.2337 24.2651C30.2267 24.3325 30.0576 24.4942 29.8308 24.6466C29.7571 24.7001 26.2996 27.2071 26.5186 27.0483C26.103 27.323 26.1164 27.2141 25.1753 26.0593C24.4159 25.0647 23.5136 24.231 23.6024 23.6118C23.5913 23.4143 23.7075 23.2315 23.9283 23.0594Z" fill="black"/>
</svg>
