<svg id="Layer_1" viewBox="0 0 512 512" xmlns="http://www.w3.org/2000/svg" data-name="Layer 1"><path d="m468.027 353.668-68.996 39.847-68.995-39.847 68.995-39.823zm-96.477-74.241c0-26.403-6.887-51.989-19.969-74.594l-19.198 19.199c-5.387 5.387-12.462 8.08-19.538 8.08-3.845 0-7.688-.802-11.263-2.394 4.018 16.172 6.104 32.865 6.104 49.709 0 24.346-4.117 47.905-12.26 70.315 3.578 1.494 7.105 3.11 10.588 4.825v-.901c0-.023.004-.044.004-.067.002-.328.022-.656.065-.984.002-.017.006-.033.009-.05.041-.297.103-.592.178-.886.02-.078.042-.155.064-.232.068-.236.148-.469.24-.701.03-.076.057-.153.089-.229.125-.29.262-.577.423-.857.162-.281.342-.543.532-.797.047-.063.098-.122.147-.184.158-.199.324-.389.497-.569.052-.054.104-.109.158-.162.224-.22.457-.429.702-.618.005-.004.009-.008.014-.012.266-.205.545-.388.832-.557.017-.01.032-.023.049-.033l57.627-33.262c2.583-11.072 3.906-22.504 3.906-34.042zm-120.402-134.093h220.772c-2.24-3.571-4.425-7.237-6.577-10.85-10.423-17.493-21.201-35.582-33.969-35.582h-148.025c-2.125 0-4.162-.845-5.664-2.348l-39.21-39.236h-5.03v70.285c0 9.776 7.941 17.73 17.703 17.73zm69.91 67.373 26.27-26.27c.015-.015.03-.03.045-.045l25.042-25.042h-32.882l-43.129 43.129 8.229 8.229c4.528 4.528 11.897 4.528 16.426 0zm-98.737 213.719c22.584-18.591 40.192-41.604 52.022-67.33-16.737-5.246-34.282-7.967-52.024-7.967s-35.278 2.735-51.991 7.984c11.825 25.716 29.424 48.723 51.993 67.313zm-63.456-239.599c10.169-20.233 23.808-38.839 40.029-54.786-31.241 4.947-59.284 19.624-80.924 40.818 11.561 8.698 24.123 15.876 37.357 21.412 1.134-2.496 2.3-4.981 3.538-7.444zm212.761-103.94-50.571-50.593c-4.526-4.528-11.896-4.527-16.425 0l-8.228 8.229 42.363 42.363h32.86zm-212.761 289.162c-1.239-2.465-2.406-4.952-3.54-7.449-13.233 5.535-25.791 12.711-37.343 21.407 21.636 21.185 49.669 35.856 80.9 40.804-16.216-15.937-29.852-34.535-40.018-54.763zm11.464-172.288c16.719 5.254 34.252 7.991 51.991 7.991s35.189-2.657 51.913-7.892c-6.282-13.673-14.192-26.623-23.609-38.525-15.561-.24-28.594-11.075-32.198-25.605-20.707 17.996-36.961 39.815-48.096 64.03zm-97.239 79.666c0 35.936 12.77 68.945 34.007 94.731 12.994-9.953 27.182-18.125 42.158-24.377-8.151-22.424-12.272-45.995-12.272-70.354s4.121-47.914 12.273-70.336c-14.975-6.253-29.167-14.426-42.17-24.38-21.231 25.783-33.996 58.786-33.996 94.716zm333.949 127.958v79.668l68.996-39.847v-79.669l-68.996 39.847zm-85.011 39.822 68.877 39.779-.052-6.147c-.005-.589.054-1.163.17-1.717v-71.737l-68.995-39.847zm-99.709-223.438c-19.83 0-39.422-3.141-58.069-9.146-7.365 20.454-11.252 42.305-11.252 64.804s3.887 44.368 11.252 64.824c18.641-6 38.232-9.137 58.069-9.137s39.433 3.121 58.102 9.12c7.363-20.45 11.248-42.302 11.248-64.806 0-22.178-3.906-44.077-11.349-64.689-18.67 5.994-38.142 9.031-58.001 9.031zm48.25-62.419c6.485 9.303 12.172 19.106 17.021 29.294l29.294-29.294zm35.444 260.608c-25.269 14.899-53.912 22.715-83.693 22.715-47.879 0-91.06-20.476-121.267-53.123-.423-.335-.823-.712-1.183-1.144-.208-.249-.392-.508-.565-.773-26.242-29.262-42.23-67.9-42.23-110.206s16.008-80.994 42.281-110.262c.157-.235.326-.464.511-.686.338-.406.71-.766 1.105-1.087 29.179-31.581 70.492-51.789 116.458-53.131v-29.639c-105.2 2.604-189.978 88.991-189.978 194.806 0 107.45 87.417 194.868 194.867 194.868 29.241 0 58.278-6.618 84.416-19.17-.462-1.021-.722-2.137-.722-3.295v-29.872zm0-49.331c-5.413-2.986-10.969-5.686-16.656-8.065-1.14 2.51-2.313 5.01-3.558 7.487-10.176 20.242-23.827 38.85-40.063 54.793 21.589-3.382 42.055-11.47 60.277-23.856z"/></svg>