<svg width="22" height="22" viewBox="0 0 22 22" fill="none" xmlns="http://www.w3.org/2000/svg">
<g clip-path="url(#clip0_1107_443)">
<path d="M19.5556 3.05566H5.5V8.55566H22V5.50011C22 4.8518 21.7425 4.23005 21.284 3.77163C20.8256 3.3132 20.2039 3.05566 19.5556 3.05566Z" fill="#068241"/>
<path d="M5.5 8.55566H22V13.4446H5.5V8.55566Z" fill="#EEEEEE"/>
<path d="M5.5 18.9443H19.5556C20.2039 18.9443 20.8256 18.6868 21.284 18.2284C21.7425 17.77 22 17.1482 22 16.4999V13.4443H5.5V18.9443Z" fill="#141414"/>
<path d="M2.44444 3.05566C1.79614 3.05566 1.17438 3.3132 0.715961 3.77163C0.257539 4.23005 0 4.8518 0 5.50011L0 16.5001C0 17.1484 0.257539 17.7702 0.715961 18.2286C1.17438 18.687 1.79614 18.9446 2.44444 18.9446H5.5V3.05566H2.44444Z" fill="#EC2028"/>
</g>
<defs>
<clipPath id="clip0_1107_443">
<rect width="22" height="22" fill="white"/>
</clipPath>
</defs>
</svg>
