<svg width="22" height="22" viewBox="0 0 22 22" fill="none" xmlns="http://www.w3.org/2000/svg">
<g clip-path="url(#clip0_1107_436)">
<path d="M0 5.53616V7.94455H3.43933L0 5.53616ZM2.85022 18.9446H7.94444V15.3775L2.85022 18.9446ZM14.0556 15.3781V18.9446H19.1492L14.0556 15.3781ZM0 14.0557V16.4641L3.44056 14.0557H0ZM19.1504 3.05566H14.0556V6.62272L19.1504 3.05566ZM22 16.4647V14.0557H18.5588L22 16.4647ZM22 7.94455V5.53616L18.5601 7.94455H22ZM7.94444 3.05566H2.85022L7.94444 6.62272V3.05566Z" fill="#00247D"/>
<path d="M15.3631 14.0557L21.2982 18.2119C21.5875 17.9129 21.7958 17.545 21.9032 17.143L17.494 14.0557H15.3631ZM7.9442 14.0557H6.63581L0.701314 18.2113C1.0197 18.5351 1.42793 18.7668 1.88565 18.8743L7.9442 14.632V14.0557ZM14.0553 7.94459H15.3637L21.2982 3.78903C20.9741 3.46074 20.5637 3.23087 20.1145 3.12598L14.0553 7.36831V7.94459ZM6.63581 7.94459L0.701314 3.78903C0.41175 4.08795 0.203297 4.45584 0.0957031 4.85787L4.50487 7.94459H6.63581Z" fill="#CF1B2B"/>
<path d="M22 12.8334H12.8333V18.9446H14.0556V15.3781L19.1492 18.9446H19.5556C19.8802 18.9443 20.2015 18.8793 20.5007 18.7535C20.7999 18.6277 21.0711 18.4436 21.2984 18.2118L15.3633 14.0557H17.4943L21.9034 17.143C21.9603 16.9371 22 16.7238 22 16.5001V16.4647L18.5588 14.0557H22V12.8334ZM0 12.8334V14.0557H3.44056L0 16.4641V16.5001C0 17.1668 0.268278 17.77 0.701556 18.2112L6.63606 14.0557H7.94444V14.6319L1.88589 18.8737C2.06556 18.9164 2.25133 18.9446 2.44444 18.9446H2.85022L7.94444 15.3775V18.9446H9.16667V12.8334H0ZM22 5.50011C22.0006 4.85961 21.7485 4.24475 21.2984 3.789L15.3639 7.94455H14.0556V7.36828L20.1147 3.12594C19.9317 3.08104 19.744 3.05745 19.5556 3.05566H19.1504L14.0556 6.62272V3.05566H12.8333V9.16678H22V7.94455H18.5601L22 5.53616V5.50011ZM7.94444 3.05566V6.62272L2.85022 3.05566H2.44444C2.11979 3.05604 1.79846 3.12107 1.49922 3.24698C1.19998 3.37289 0.928813 3.55715 0.701556 3.789L6.63606 7.94455H4.50511L0.0959444 4.85783C0.0355402 5.0667 0.00327408 5.2827 0 5.50011L0 5.53616L3.43933 7.94455H0V9.16678H9.16667V3.05566H7.94444Z" fill="#EEEEEE"/>
<path d="M12.8333 9.16678V3.05566H9.16667V9.16678H0V12.8334H9.16667V18.9446H12.8333V12.8334H22V9.16678H12.8333Z" fill="#CF1B2B"/>
</g>
<defs>
<clipPath id="clip0_1107_436">
<rect width="22" height="22" fill="white"/>
</clipPath>
</defs>
</svg>
