<svg width="41" height="41" viewBox="0 0 41 41" fill="none" xmlns="http://www.w3.org/2000/svg">
<g clip-path="url(#clip0_2567_3880)">
<path d="M13.3 26.5013C14.6438 25.3538 15.5 23.6512 15.5 21.75C15.5 18.3038 12.6962 15.5 9.25 15.5C5.80375 15.5 3 18.3038 3 21.75C3 23.6512 3.85625 25.3538 5.2 26.5013C2.41 27.965 0.5 30.8869 0.5 34.25V36.75C0.5 37.44 1.06 38 1.75 38H16.75C17.44 38 18 37.44 18 36.75V34.25C18 30.8869 16.09 27.965 13.3 26.5013ZM5.5 21.75C5.5 19.6819 7.18188 18 9.25 18C11.3181 18 13 19.6819 13 21.75C13 23.8181 11.3181 25.5 9.25 25.5C7.18188 25.5 5.5 23.8181 5.5 21.75ZM15.5 35.5H3V34.25C3 30.8038 5.80375 28 9.25 28C12.6962 28 15.5 30.8038 15.5 34.25V35.5Z" fill="black"/>
<path d="M35.8 26.5013C37.1438 25.3538 38 23.6512 38 21.75C38 18.3038 35.1962 15.5 31.75 15.5C28.3038 15.5 25.5 18.3038 25.5 21.75C25.5 23.6512 26.3563 25.3538 27.7 26.5013C24.91 27.965 23 30.8869 23 34.25V36.75C23 37.44 23.56 38 24.25 38H39.25C39.94 38 40.5 37.44 40.5 36.75V34.25C40.5 30.8869 38.59 27.965 35.8 26.5013ZM28 21.75C28 19.6819 29.6819 18 31.75 18C33.8181 18 35.5 19.6819 35.5 21.75C35.5 23.8181 33.8181 25.5 31.75 25.5C29.6819 25.5 28 23.8181 28 21.75ZM38 35.5H25.5V34.25C25.5 30.8038 28.3038 28 31.75 28C35.1962 28 38 30.8038 38 34.25V35.5Z" fill="black"/>
<path d="M22.1119 12.63L23.1513 13.6694C23.3956 13.9137 23.715 14.0356 24.035 14.0356C24.355 14.0356 24.6744 13.9137 24.9187 13.6694C25.4069 13.1812 25.4069 12.39 24.9187 11.9019L23.8794 10.8625C23.9363 10.745 23.9863 10.6238 24.0306 10.5H25.5C26.19 10.5 26.75 9.94 26.75 9.25C26.75 8.56 26.19 8 25.5 8H24.0306C23.9863 7.87625 23.9363 7.755 23.88 7.6375L24.9194 6.5975C25.4075 6.10937 25.4075 5.3175 24.9194 4.83C24.4312 4.34187 23.6388 4.34187 23.1519 4.83L22.1125 5.87C21.995 5.81312 21.8738 5.76313 21.7494 5.71875V4.25C21.7494 3.56 21.1894 3 20.4994 3C19.8094 3 19.2494 3.56 19.2494 4.25V5.71875C19.1256 5.76313 19.0044 5.81312 18.8869 5.87L17.8481 4.83125C17.36 4.34312 16.5688 4.34312 16.0806 4.83125C15.5925 5.31937 15.5925 6.11063 16.0806 6.59875L17.1194 7.6375C17.0625 7.755 17.0125 7.87625 16.9681 8H15.5C14.81 8 14.25 8.56 14.25 9.25C14.25 9.94 14.81 10.5 15.5 10.5H16.9681C17.0125 10.6238 17.0625 10.745 17.1194 10.8625L16.0806 11.9013C15.5925 12.3894 15.5925 13.1806 16.0806 13.6687C16.325 13.9131 16.6444 14.035 16.9644 14.035C17.2844 14.035 17.6037 13.9131 17.8481 13.6687L18.8869 12.63C19.0044 12.6869 19.1256 12.7369 19.2494 12.7812V14.25C19.2494 14.94 19.8094 15.5 20.4994 15.5C21.1894 15.5 21.7494 14.94 21.7494 14.25V12.7812C21.8731 12.7369 21.9944 12.6869 22.1119 12.63ZM19.2494 9.25313C19.2494 9.25187 19.25 9.25125 19.25 9.25C19.25 9.24875 19.2494 9.24813 19.2494 9.24687C19.2513 8.55937 19.8113 8 20.4994 8C21.1888 8 21.7494 8.56063 21.7494 9.25C21.7494 9.93937 21.1888 10.5 20.4994 10.5C19.8113 10.5 19.2513 9.94063 19.2494 9.25313Z" fill="black"/>
<path d="M30.5 10.5H33V13C33 13.69 33.56 14.25 34.25 14.25C34.94 14.25 35.5 13.69 35.5 13V9.25C35.5 8.56 34.94 8 34.25 8H30.5C29.81 8 29.25 8.56 29.25 9.25C29.25 9.94 29.81 10.5 30.5 10.5Z" fill="black"/>
<path d="M6.75 14.25C7.44 14.25 8 13.69 8 13V10.5H10.5C11.19 10.5 11.75 9.94 11.75 9.25C11.75 8.56 11.19 8 10.5 8H6.75C6.06 8 5.5 8.56 5.5 9.25V13C5.5 13.69 6.06 14.25 6.75 14.25Z" fill="black"/>
</g>
<defs>
<clipPath id="clip0_2567_3880">
<rect width="40" height="40" fill="white" transform="translate(0.5 0.5)"/>
</clipPath>
</defs>
</svg>
