<svg width="41" height="41" viewBox="0 0 41 41" fill="none" xmlns="http://www.w3.org/2000/svg">
<g clip-path="url(#clip0_2567_3892)">
<path d="M39.25 32.2185H37.6875V11.1248C37.6875 8.97087 35.9352 7.21853 33.7812 7.21853H33V4.09353L33.9375 5.34353C34.1951 5.68696 34.6844 5.75985 35.0312 5.49978C35.3764 5.24095 35.4463 4.75118 35.1875 4.40603L32.8438 1.28103C32.5311 0.864229 31.9057 0.865088 31.5938 1.28103L29.25 4.40603C28.9911 4.75118 29.0611 5.24095 29.4062 5.49978C29.7514 5.7586 30.241 5.6886 30.5 5.34353L31.4375 4.09353V7.21853H22.7786L22.0024 5.35556C21.8811 5.06438 21.5967 4.87478 21.2813 4.87478C20.9659 4.87478 20.6815 5.06438 20.5602 5.35556L19.7839 7.21853H7.21875C5.06484 7.21853 3.3125 8.97087 3.3125 11.1248V32.2185H1.75C1.31852 32.2185 0.96875 32.5684 0.96875 32.9998C0.96875 36.8768 4.12297 40.031 8 40.031H33C36.877 40.031 40.0312 36.8768 40.0312 32.9998C40.0312 32.5684 39.6814 32.2185 39.25 32.2185ZM27.9219 23.6248H14.6406C14.8882 23.0307 20.8716 8.67032 21.2812 7.68728C21.2812 7.68728 27.3693 22.2984 27.9219 23.6248ZM4.875 11.1248C4.875 9.83243 5.92641 8.78103 7.21875 8.78103H19.1328L12.7476 24.1056C12.6471 24.3467 12.6738 24.622 12.8187 24.8395C12.9636 25.0568 13.2076 25.1874 13.4688 25.1874H29.0938C29.6508 25.1874 30.0291 24.6195 29.8148 24.1056L23.4297 8.78095H31.4375V26.7497H9.5625L10.8125 25.8122C11.1577 25.5533 11.2276 25.0636 10.9688 24.7184C10.7098 24.3734 10.2202 24.3033 9.875 24.5622C6.54063 27.064 6.7082 26.9269 6.62555 27.0234C6.38078 27.3032 6.37086 27.7474 6.62555 28.0384C6.70992 28.137 6.55258 28.007 9.875 30.4997C10.2186 30.7575 10.7087 30.6902 10.9688 30.3434C11.2276 29.9983 11.1577 29.5086 10.8125 29.2497L9.5625 28.3122H32.2188C32.6502 28.3122 33 27.9624 33 27.5309V8.78095H33.7812C35.0736 8.78095 36.125 9.83235 36.125 11.1247V32.2184C35.0546 32.2184 5.94414 32.2184 4.875 32.2184V11.1248ZM15.8125 33.781H25.1875V35.3435H15.8125V33.781ZM33 38.4685H8C5.24969 38.4685 2.96711 36.4277 2.58687 33.781H14.25V36.1248C14.25 36.5563 14.5998 36.906 15.0312 36.906H25.9688C26.4002 36.906 26.75 36.5563 26.75 36.1248V33.781H38.4131C38.0329 36.4277 35.7502 38.4685 33 38.4685Z" fill="black"/>
</g>
<defs>
<clipPath id="clip0_2567_3892">
<rect width="40" height="40" fill="white" transform="translate(0.5 0.5)"/>
</clipPath>
</defs>
</svg>
