<svg width="41" height="41" viewBox="0 0 41 41" fill="none" xmlns="http://www.w3.org/2000/svg">
<g clip-path="url(#clip0_2567_3604)">
<path d="M6.4375 40.4219H34.5625C35.2098 40.4219 35.7344 39.8973 35.7344 39.25C35.7344 33.4385 31.0063 28.7031 25.1875 28.7031H15.8125C10.0273 28.7031 5.26562 33.4059 5.26562 39.25C5.26562 39.8973 5.79022 40.4219 6.4375 40.4219ZM33.3073 38.0781H21.6719V37.2569L26.2941 31.1213C29.9119 31.6115 32.7888 34.4691 33.3073 38.0781ZM23.4157 31.0469L20.5 34.9174L17.5844 31.0469H23.4157ZM14.7062 31.1213L19.3281 37.2569V38.0781H7.69269C8.21149 34.4691 11.0881 31.6115 14.7062 31.1213Z" fill="black"/>
<path d="M25.1874 23.8595H27.5311C28.1784 23.8595 28.703 23.3346 28.703 22.6876C28.703 22.0403 28.1784 21.5157 27.5311 21.5157H25.6198C26.0174 20.5227 26.6812 19.5867 27.5815 18.7719C29.7836 16.7782 31.0467 13.9343 31.0467 10.9689C31.0467 4.69902 25.5813 -0.25795 19.2132 0.498275C14.6264 1.04332 10.7882 4.70573 10.0812 9.30443C9.53031 12.8878 10.8056 16.4523 13.4933 18.839C14.382 19.6285 15.0335 20.5422 15.4156 21.5157H13.4686C12.8213 21.5157 12.2967 22.0403 12.2967 22.6876C12.2967 23.3346 12.8213 23.8595 13.4686 23.8595H15.8124C15.8124 26.4849 17.959 28.7032 20.4999 28.7032C23.0407 28.7032 25.1874 26.4849 25.1874 23.8595ZM15.0497 17.0867C12.9596 15.2303 11.9681 12.4541 12.3977 9.66057C12.9416 6.12358 15.924 3.24944 19.4897 2.82585C24.5587 2.22313 28.703 6.1895 28.703 10.9689C28.703 13.2735 27.7209 15.4842 26.0086 17.0342C24.5849 18.323 23.6081 19.8663 23.1469 21.5157H17.8817C17.4395 19.8766 16.4715 18.3495 15.0497 17.0867ZM20.4999 26.3595C19.2514 26.3595 18.1561 25.1904 18.1561 23.8586H22.8436C22.8436 25.1904 21.7483 26.3595 20.4999 26.3595Z" fill="black"/>
<path d="M2.92188 10.9688C2.92188 11.6157 3.44647 12.1406 4.09375 12.1406H6.4375C7.08478 12.1406 7.60938 11.6157 7.60938 10.9688C7.60938 10.3215 7.08478 9.79688 6.4375 9.79688H4.09375C3.44647 9.79688 2.92188 10.3215 2.92188 10.9688Z" fill="black"/>
<path d="M8.04954 17.8426C8.60984 17.5191 8.8018 16.8023 8.47831 16.242C8.15482 15.6814 7.43797 15.4894 6.87766 15.8129L4.84763 16.9848C4.28733 17.3086 4.09538 18.0251 4.41886 18.5857C4.74418 19.1488 5.46195 19.3368 6.01951 19.0145L8.04954 17.8426Z" fill="black"/>
<path d="M4.419 3.35148C4.09521 3.91178 4.28747 4.62864 4.84777 4.95213L6.87749 6.124C7.43566 6.44627 8.15343 6.25798 8.47845 5.69523C8.80193 5.13462 8.60998 4.41777 8.04937 4.09428L6.01964 2.9224C5.45934 2.59861 4.74248 2.79087 4.419 3.35148Z" fill="black"/>
<path d="M36.9063 9.79688H34.5625C33.9155 9.79688 33.3906 10.3215 33.3906 10.9688C33.3906 11.6157 33.9155 12.1406 34.5625 12.1406H36.9063C37.5535 12.1406 38.0781 11.6157 38.0781 10.9688C38.0781 10.3215 37.5535 9.79688 36.9063 9.79688Z" fill="black"/>
<path d="M34.9812 2.92242L32.9514 4.09429C32.3908 4.41778 32.1989 5.13463 32.5224 5.69494C32.8477 6.25829 33.5655 6.44598 34.1233 6.12401L36.153 4.95214C36.7137 4.62835 36.9056 3.9118 36.5818 3.35119C36.2583 2.79089 35.5415 2.59862 34.9812 2.92242Z" fill="black"/>
<path d="M32.9514 17.8428L34.9812 19.0146C35.539 19.3369 36.2571 19.1486 36.5818 18.5859C36.9056 18.0252 36.7137 17.3087 36.153 16.9849L34.1233 15.813C33.5627 15.4892 32.8459 15.6815 32.5224 16.2421C32.1989 16.8024 32.3908 17.5193 32.9514 17.8428Z" fill="black"/>
<path d="M20.5 7.45312C19.853 7.45312 19.3281 7.97772 19.3281 8.625V13.3125C19.3281 13.9595 19.853 14.4844 20.5 14.4844C21.1473 14.4844 21.6719 13.9595 21.6719 13.3125V8.625C21.6719 7.97772 21.1473 7.45312 20.5 7.45312Z" fill="black"/>
</g>
<defs>
<clipPath id="clip0_2567_3604">
<rect width="40" height="40" fill="white" transform="translate(0.5 0.5)"/>
</clipPath>
</defs>
</svg>
