<svg width="66" height="66" viewBox="0 0 66 66" fill="none" xmlns="http://www.w3.org/2000/svg">
<rect width="66" height="66" rx="33" fill="white"/>
<mask id="mask0_1576_1480" style="mask-type:luminance" maskUnits="userSpaceOnUse" x="15" y="15" width="36" height="36">
<path d="M15 15H51V51H15V15Z" fill="white"/>
</mask>
<g mask="url(#mask0_1576_1480)">
<path d="M15.7031 25.9214H26.7348H47.7318" stroke="black" stroke-miterlimit="10" stroke-linecap="round" stroke-linejoin="round"/>
<path d="M21.5745 22.9292C22.4953 22.9292 23.2467 22.1802 23.2467 21.2599C23.2467 20.3396 22.4953 19.5906 21.5745 19.5906C20.6557 19.5906 19.9043 20.3396 19.9043 21.2599C19.9043 22.1802 20.6557 22.9292 21.5745 22.9292Z" stroke="black" stroke-miterlimit="10" stroke-linecap="round" stroke-linejoin="round"/>
<path d="M36.0901 19.5906H42.3803C43.2991 19.5906 44.0505 20.3416 44.0505 21.2599C44.0505 22.1783 43.2991 22.9292 42.3803 22.9292H36.0901C35.1714 22.9292 34.4199 22.1783 34.4199 21.2599C34.4199 20.3416 35.1714 19.5906 36.0901 19.5906Z" stroke="black" stroke-miterlimit="10" stroke-linecap="round" stroke-linejoin="round"/>
<path d="M27.7415 22.9292C28.6623 22.9292 29.4137 22.1802 29.4137 21.2599C29.4137 20.3396 28.6623 19.5906 27.7415 19.5906C26.8227 19.5906 26.0713 20.3396 26.0713 21.2599C26.0713 22.1802 26.8227 22.9292 27.7415 22.9292Z" stroke="black" stroke-miterlimit="10" stroke-linecap="round" stroke-linejoin="round"/>
<path d="M26.4199 31.3296L25.0127 37.218" stroke="black" stroke-miterlimit="10" stroke-linecap="round" stroke-linejoin="round"/>
<path d="M29.6611 36.6863L31.6522 34.4512C31.7399 34.3536 31.7399 34.1943 31.6522 34.0967L29.6611 31.8616" stroke="black" stroke-miterlimit="10" stroke-linecap="round" stroke-linejoin="round"/>
<path d="M21.7717 36.6863L19.7807 34.4512C19.6929 34.3536 19.6929 34.1943 19.7807 34.0967L21.7717 31.8616" stroke="black" stroke-miterlimit="10" stroke-linecap="round" stroke-linejoin="round"/>
<path d="M43.4426 34.4372C44.2118 34.6085 44.9313 34.9113 45.5791 35.3176L46.1551 34.744C46.4959 34.4013 47.056 34.4013 47.3988 34.744L48.3056 35.6504C48.6484 35.993 48.6484 36.5528 48.3056 36.8934L47.7316 37.4691C48.1363 38.1105 48.4352 38.8237 48.6086 39.5846H49.4157C49.9001 39.5846 50.2967 39.981 50.2967 40.4631V41.748C50.2967 42.23 49.9001 42.6264 49.4157 42.6264H48.6046C48.4312 43.3834 48.1323 44.0926 47.7316 44.73L48.3056 45.3037C48.6484 45.6463 48.6484 46.2061 48.3056 46.5468L47.3988 47.4551C47.056 47.7978 46.4959 47.7978 46.1551 47.4551L45.5791 46.8814C44.9394 47.2838 44.2278 47.5826 43.4665 47.7559V48.5726C43.4665 49.0567 43.0698 49.4531 42.5876 49.4531H41.302C40.8196 49.4531 40.4231 49.0567 40.4231 48.5726V47.754C39.6656 47.5826 38.9542 47.2818 38.3143 46.8814L37.7404 47.4551C37.3975 47.7978 36.8375 47.7978 36.4967 47.4551L35.5879 46.5468C35.247 46.2061 35.247 45.6463 35.5879 45.3037L36.1638 44.73C35.7613 44.0926 35.4623 43.3834 35.2889 42.6264H34.4737C33.9895 42.6264 33.5947 42.23 33.5947 41.748V40.4631C33.5947 39.981 33.9895 39.5846 34.4737 39.5846H35.2869C35.4583 38.8317 35.7533 38.1265 36.1499 37.491L35.5719 36.9113C35.2291 36.5707 35.2291 36.0109 35.5719 35.6683L36.4787 34.7619C36.8216 34.4193 37.3816 34.4193 37.7224 34.7619L38.2944 35.3316C38.9323 34.9273 39.6417 34.6264 40.3991 34.4491V33.6384C40.3991 33.1543 40.7937 32.7579 41.2781 32.7579H42.5616C43.0459 32.7579 43.4426 33.1543 43.4426 33.6384V34.4372Z" stroke="black" stroke-miterlimit="10" stroke-linecap="round" stroke-linejoin="round"/>
<path d="M41.9458 37.483C43.9468 37.483 45.5692 39.1046 45.5692 41.1065C45.5692 43.1066 43.9468 44.728 41.9458 44.728C39.9428 44.728 38.3203 43.1066 38.3203 41.1065C38.3203 39.1046 39.9428 37.483 41.9458 37.483Z" stroke="black" stroke-miterlimit="10" stroke-linecap="round" stroke-linejoin="round"/>
<path d="M22.4836 42.6265H18.322C16.8831 42.6265 15.7031 41.2182 15.7031 39.499V19.6744C15.7031 17.9533 16.881 16.5469 18.322 16.5469H21.3555H45.1129C46.5539 16.5469 47.7318 17.9553 47.7318 19.6744V35.0767M34.4739 42.6265H28.7677" stroke="black" stroke-miterlimit="10" stroke-linecap="round" stroke-linejoin="round"/>
<path d="M25.6328 42.6265H25.6467" stroke="black" stroke-miterlimit="10" stroke-linecap="round" stroke-linejoin="round"/>
</g>
</svg>
