<svg width="60" height="60" viewBox="0 0 60 60" fill="none" xmlns="http://www.w3.org/2000/svg">
<path d="M55.4453 25.3217L51.8967 24.8145C51.3454 22.4701 50.4175 20.2306 49.1492 18.1833L51.2997 15.3195C51.4354 15.139 51.5013 14.9156 51.4853 14.6903C51.4693 14.4651 51.3726 14.2532 51.2128 14.0936L45.9064 8.78719C45.7467 8.62765 45.5348 8.53103 45.3097 8.51505C45.0845 8.49907 44.8611 8.56481 44.6805 8.70021L41.8167 10.8508C39.7694 9.58248 37.5299 8.6546 35.1855 8.10333L34.6784 4.55475C34.6462 4.3314 34.5347 4.12711 34.3642 3.97931C34.1937 3.83151 33.9756 3.7501 33.75 3.75H26.25C26.0244 3.75011 25.8063 3.83152 25.6358 3.97932C25.4653 4.12712 25.3538 4.33141 25.3217 4.55475L24.8145 8.10333C22.4701 8.6546 20.2306 9.58248 18.1833 10.8508L15.3195 8.70021C15.139 8.56459 14.9156 8.49872 14.6903 8.5147C14.4651 8.53068 14.2532 8.62744 14.0936 8.78719L8.78719 14.0936C8.62743 14.2532 8.53067 14.4651 8.51469 14.6903C8.49871 14.9156 8.56458 15.139 8.70021 15.3195L10.8508 18.1833C9.58248 20.2306 8.6546 22.4701 8.10333 24.8145L4.55475 25.3216C4.3314 25.3538 4.12711 25.4653 3.97931 25.6358C3.83151 25.8063 3.7501 26.0244 3.75 26.25V33.75C3.75011 33.9756 3.83152 34.1937 3.97932 34.3642C4.12712 34.5347 4.33141 34.6462 4.55475 34.6783L8.10333 35.1855C8.6546 37.5299 9.58248 39.7694 10.8508 41.8167L8.70021 44.6805C8.56458 44.861 8.4987 45.0844 8.51468 45.3097C8.53066 45.5349 8.62743 45.7468 8.78719 45.9064L14.0936 51.2128C14.2533 51.3723 14.4652 51.469 14.6904 51.4849C14.9155 51.5009 15.1389 51.4352 15.3195 51.2998L18.1833 49.1492C20.2306 50.4176 22.4701 51.3454 24.8145 51.8967L25.3216 55.4453C25.3538 55.6686 25.4653 55.8729 25.6358 56.0207C25.8063 56.1685 26.0244 56.2499 26.25 56.25H33.75C33.9756 56.2499 34.1937 56.1685 34.3642 56.0207C34.5347 55.8729 34.6462 55.6686 34.6783 55.4453L35.1855 51.8967C37.5299 51.3454 39.7694 50.4175 41.8167 49.1492L44.6805 51.2997C44.8611 51.4351 45.0845 51.5008 45.3096 51.4849C45.5348 51.4689 45.7467 51.3723 45.9064 51.2128L47.2375 49.8816C47.4115 49.7054 47.5087 49.4675 47.5079 49.22C47.5071 48.9724 47.4084 48.7351 47.2334 48.5601C47.0583 48.385 46.8211 48.2863 46.5735 48.2855C46.3259 48.2848 46.088 48.382 45.9119 48.5559L45.1556 49.3122L42.4228 47.2596C42.268 47.1436 42.0811 47.0783 41.8877 47.0725C41.6944 47.0668 41.5039 47.1209 41.3425 47.2275C39.1608 48.6698 36.7226 49.6802 34.1602 50.2039C33.9712 50.2429 33.7988 50.3392 33.6666 50.4798C33.5344 50.6204 33.4487 50.7984 33.4214 50.9894L32.937 54.375H27.063L26.5787 50.9894C26.5513 50.7983 26.4657 50.6204 26.3335 50.4798C26.2012 50.3392 26.0289 50.2429 25.8398 50.2039C23.2774 49.6802 20.8393 48.6698 18.6575 47.2275C18.4961 47.1209 18.3057 47.0668 18.1123 47.0725C17.9189 47.0783 17.7321 47.1436 17.5772 47.2595L14.8444 49.3121L10.6879 45.1556L12.7405 42.4228C12.8566 42.2681 12.9221 42.0811 12.9278 41.8877C12.9336 41.6943 12.8793 41.5039 12.7725 41.3425C11.3302 39.1608 10.3198 36.7226 9.79614 34.1602C9.75715 33.9712 9.66078 33.7988 9.5202 33.6666C9.37962 33.5343 9.20167 33.4487 9.01062 33.4213L5.625 32.937V27.063L9.01062 26.5787C9.20167 26.5513 9.37962 26.4657 9.5202 26.3335C9.66078 26.2012 9.75715 26.0289 9.79614 25.8398C10.3198 23.2774 11.3302 20.8393 12.7725 18.6575C12.8793 18.4962 12.9336 18.3057 12.9278 18.1123C12.9221 17.9189 12.8566 17.732 12.7405 17.5772L10.6879 14.8444L14.8444 10.6879L17.5772 12.7405C17.7319 12.8566 17.9189 12.9221 18.1123 12.9278C18.3057 12.9336 18.4961 12.8793 18.6575 12.7725C20.8392 11.3302 23.2774 10.3198 25.8398 9.79614C26.0288 9.75715 26.2012 9.66078 26.3334 9.5202C26.4657 9.37962 26.5513 9.20167 26.5787 9.01062L27.063 5.625H32.937L33.4213 9.01062C33.4487 9.20167 33.5343 9.37962 33.6665 9.5202C33.7988 9.66078 33.9711 9.75715 34.1602 9.79614C36.7226 10.3198 39.1607 11.3302 41.3425 12.7725C41.5038 12.8793 41.6943 12.9336 41.8877 12.9278C42.0811 12.9221 42.268 12.8567 42.4228 12.7405L45.1556 10.6879L49.3121 14.8444L47.2595 17.5772C47.1434 17.7319 47.0779 17.9189 47.0722 18.1123C47.0664 18.3057 47.1207 18.4961 47.2275 18.6575C48.6698 20.8392 49.6802 23.2774 50.2039 25.8398C50.2429 26.0288 50.3392 26.2012 50.4798 26.3334C50.6204 26.4657 50.7983 26.5513 50.9894 26.5787L54.375 27.063V32.937L50.9894 33.4213C50.7983 33.4487 50.6204 33.5343 50.4798 33.6665C50.3392 33.7988 50.2429 33.9711 50.2039 34.1602C49.6802 36.7226 48.6698 39.1607 47.2275 41.3425C47.1207 41.5038 47.0664 41.6943 47.0722 41.8877C47.0779 42.0811 47.1434 42.268 47.2595 42.4228L49.3121 45.1556L48.5559 45.9118C48.3801 46.0876 48.2813 46.3261 48.2813 46.5747C48.2813 46.8233 48.3801 47.0617 48.5559 47.2375C48.7317 47.4133 48.9701 47.5121 49.2187 47.5121C49.4673 47.5121 49.7058 47.4133 49.8816 47.2375L51.2128 45.9064C51.3726 45.7468 51.4693 45.5349 51.4853 45.3097C51.5013 45.0844 51.4354 44.861 51.2998 44.6805L49.1492 41.8167C50.4176 39.7694 51.3454 37.5299 51.8967 35.1855L55.4453 34.6784C55.6686 34.6462 55.8729 34.5347 56.0207 34.3642C56.1685 34.1937 56.2499 33.9756 56.25 33.75V26.25C56.2499 26.0244 56.1685 25.8063 56.0207 25.6358C55.8729 25.4653 55.6686 25.3538 55.4453 25.3217Z" fill="white"/>
<path d="M17.7458 20.5664C15.6501 23.2633 14.5184 26.5846 14.5314 30C14.5314 33.0594 15.4386 36.0501 17.1383 38.594C18.838 41.1378 21.2539 43.1205 24.0805 44.2912C26.907 45.462 30.0173 45.7684 33.0179 45.1715C36.0186 44.5746 38.7748 43.1014 40.9382 40.938C43.1015 38.7747 44.5748 36.0184 45.1716 33.0178C45.7685 30.0171 45.4622 26.9069 44.2914 24.0804C43.1206 21.2538 41.1379 18.8379 38.5941 17.1382C36.0503 15.4385 33.0595 14.5312 30.0001 14.5312C26.5847 14.5183 23.2634 15.65 20.5665 17.7457C20.4685 17.8208 20.3863 17.9146 20.3246 18.0216C20.2629 18.1286 20.223 18.2468 20.2071 18.3693C20.1912 18.4918 20.1997 18.6162 20.232 18.7354C20.2644 18.8546 20.3199 18.9663 20.3955 19.0639C20.4711 19.1616 20.5653 19.2434 20.6726 19.3046C20.7799 19.3657 20.8982 19.4051 21.0208 19.4204C21.1434 19.4358 21.2678 19.4267 21.3868 19.3938C21.5059 19.3609 21.6173 19.3048 21.7146 19.2288C24.0832 17.3882 27.0004 16.3944 30.0001 16.4062C32.6887 16.4062 35.3169 17.2035 37.5524 18.6972C39.7879 20.1909 41.5302 22.314 42.5591 24.7979C43.588 27.2818 43.8572 30.0151 43.3327 32.652C42.8081 35.2889 41.5135 37.7111 39.6123 39.6122C37.7112 41.5133 35.289 42.808 32.6521 43.3325C30.0152 43.8571 27.2819 43.5879 24.798 42.559C22.3141 41.5301 20.191 39.7878 18.6973 37.5523C17.2036 35.3168 16.4064 32.6886 16.4064 30C16.3945 27.0003 17.3883 24.0831 19.2289 21.7145C19.3798 21.5177 19.4466 21.2692 19.4147 21.0233C19.3828 20.7774 19.2548 20.5541 19.0587 20.4023C18.8627 20.2505 18.6144 20.1826 18.3684 20.2133C18.1224 20.2441 17.8985 20.371 17.7458 20.5664Z" fill="white"/>
<path d="M32.2196 34.49C32.3427 34.49 32.4647 34.4658 32.5784 34.4188C32.6922 34.3717 32.7956 34.3026 32.8827 34.2155C32.9697 34.1285 33.0388 34.0251 33.0859 33.9113C33.133 33.7975 33.1572 33.6756 33.1571 33.5525V26.448C33.157 26.2445 33.0908 26.0465 32.9683 25.884C32.8458 25.7215 32.6738 25.6033 32.4782 25.5471C32.2826 25.491 32.0741 25.5 31.8841 25.5728C31.694 25.6457 31.5329 25.7784 31.4249 25.9508L29.9994 28.2314L28.574 25.9508C28.466 25.7784 28.3048 25.6457 28.1148 25.5728C27.9248 25.5 27.7163 25.491 27.5207 25.5471C27.3251 25.6033 27.1531 25.7215 27.0306 25.884C26.9081 26.0465 26.8419 26.2445 26.8418 26.448V33.5525C26.8418 33.8011 26.9406 34.0396 27.1164 34.2154C27.2922 34.3912 27.5307 34.49 27.7793 34.49C28.0279 34.49 28.2664 34.3912 28.4422 34.2154C28.618 34.0396 28.7168 33.8011 28.7168 33.5525V29.7164L29.2048 30.4974C29.2948 30.6243 29.4139 30.7278 29.5522 30.7993C29.6905 30.8707 29.8438 30.908 29.9994 30.908C30.1551 30.908 30.3084 30.8707 30.4467 30.7993C30.585 30.7278 30.7041 30.6243 30.7941 30.4974L31.2821 29.7164V33.5525C31.282 33.6756 31.3062 33.7975 31.3533 33.9113C31.4004 34.0251 31.4695 34.1285 31.5565 34.2155C31.6436 34.3026 31.747 34.3717 31.8607 34.4188C31.9745 34.4658 32.0965 34.49 32.2196 34.49Z" fill="white"/>
<path d="M38.6358 32.6147H35.9707C35.7221 32.6147 35.4836 32.7135 35.3078 32.8893C35.132 33.0651 35.0332 33.3036 35.0332 33.5522C35.0332 33.8009 35.132 34.0393 35.3078 34.2152C35.4836 34.391 35.7221 34.4897 35.9707 34.4897H38.6358C39.3555 34.4897 40.0457 34.2038 40.5546 33.6949C41.0635 33.186 41.3494 32.4958 41.3494 31.7761C41.3494 31.0564 41.0635 30.3662 40.5546 29.8573C40.0457 29.3484 39.3555 29.0625 38.6358 29.0625H37.7468C37.5244 29.0625 37.3111 28.9741 37.1538 28.8169C36.9966 28.6596 36.9082 28.4463 36.9082 28.2239C36.9082 28.0015 36.9966 27.7882 37.1538 27.6309C37.3111 27.4736 37.5244 27.3853 37.7468 27.3853H40.4119C40.6606 27.3853 40.899 27.2865 41.0748 27.1107C41.2507 26.9349 41.3494 26.6964 41.3494 26.4478C41.3494 26.1991 41.2507 25.9607 41.0748 25.7848C40.899 25.609 40.6606 25.5103 40.4119 25.5103H37.7468C37.3905 25.5103 37.0376 25.5804 36.7084 25.7168C36.3791 25.8532 36.08 26.0531 35.828 26.3051C35.576 26.557 35.3761 26.8562 35.2398 27.1854C35.1034 27.5147 35.0332 27.8675 35.0332 28.2239C35.0332 28.5802 35.1034 28.9331 35.2398 29.2623C35.3761 29.5916 35.576 29.8907 35.828 30.1427C36.08 30.3947 36.3791 30.5946 36.7084 30.7309C37.0376 30.8673 37.3905 30.9375 37.7468 30.9375H38.6358C38.8582 30.9375 39.0715 31.0259 39.2288 31.1831C39.3861 31.3404 39.4744 31.5537 39.4744 31.7761C39.4744 31.9985 39.3861 32.2118 39.2288 32.3691C39.0715 32.5264 38.8582 32.6147 38.6358 32.6147Z" fill="white"/>
<path d="M24.0291 28.2733C24.1523 28.2734 24.2742 28.2492 24.388 28.2021C24.5017 28.155 24.6051 28.086 24.6922 27.9989C24.7793 27.9118 24.8483 27.8084 24.8954 27.6947C24.9425 27.5809 24.9667 27.4589 24.9666 27.3358C24.9656 26.8515 24.7726 26.3873 24.4298 26.0451C24.0871 25.7029 23.6226 25.5105 23.1383 25.5103H20.4787C19.9944 25.5105 19.5299 25.7029 19.1872 26.0451C18.8444 26.3873 18.6514 26.8515 18.6504 27.3358V32.6642C18.6514 33.1485 18.8444 33.6127 19.1872 33.9549C19.5299 34.2971 19.9944 34.4895 20.4787 34.4897H23.1383C23.6226 34.4895 24.0871 34.2971 24.4298 33.9549C24.7726 33.6127 24.9656 33.1485 24.9666 32.6642C24.9728 32.4155 24.8801 32.1745 24.7088 31.9941C24.5375 31.8137 24.3016 31.7086 24.0529 31.702C23.9323 31.6996 23.8124 31.7215 23.7005 31.7665C23.5886 31.8115 23.4869 31.8786 23.4015 31.9638C23.3161 32.0491 23.2488 32.1506 23.2036 32.2625C23.1583 32.3743 23.1361 32.4941 23.1383 32.6147L20.5254 32.6642L20.4787 27.3853L23.0916 27.3358C23.0915 27.4589 23.1157 27.5809 23.1628 27.6947C23.2099 27.8084 23.279 27.9118 23.366 27.9989C23.4531 28.086 23.5565 28.155 23.6703 28.2021C23.784 28.2492 23.906 28.2734 24.0291 28.2733Z" fill="white"/>
</svg>
