<svg width="26" height="26" viewBox="0 0 26 26" fill="none" xmlns="http://www.w3.org/2000/svg">
<path d="M13 0C9.155 0 6 3.155 6 7V8H5C3.9 8 3 8.9 3 10V22C3 23.1 3.9 24 5 24H21C22.1 24 23 23.1 23 22V10C23 8.9 22.1 8 21 8H20V7C20 3.155 16.845 0 13 0ZM13 2C15.755 2 18 4.245 18 7V8H8V7C8 4.245 10.245 2 13 2ZM13 11C15.8 11 18 13.2 18 16C18 18.8 15.8 21 13 21C10.2 21 8 18.8 8 16C8 13.2 10.2 11 13 11ZM13 13C11.3 13 10 14.3 10 16C10 17.7 11.3 19 13 19C14.7 19 16 17.7 16 16C16 15.7 15.906 15.394 15.906 15.094C15.606 15.594 15.1 16 14.5 16C13.7 16 13 15.3 13 14.5C13 13.9 13.406 13.394 13.906 13.094C13.606 13.094 13.3 13 13 13Z" fill="#27D088"/>
</svg>
