<svg width="60" height="60" viewBox="0 0 60 60" fill="none" xmlns="http://www.w3.org/2000/svg">
<g clip-path="url(#clip0_3224_2255)">
<path d="M58.8258 28.828H53.6698V26.5673C53.6698 26.0291 53.3033 25.5603 52.7811 25.4301L49.311 24.5656L47.4967 20.1876L49.3382 17.1241C49.6154 16.6629 49.5429 16.0722 49.1624 15.6918L44.3068 10.8362C43.9262 10.4557 43.3355 10.3833 42.8745 10.6605L39.8109 12.502L35.4328 10.6877L34.5683 7.2175C34.4382 6.69531 33.9693 6.32887 33.4311 6.32887H31.1707V1.17285C31.1707 0.525625 30.6461 0.000976562 29.9988 0.000976562C29.3516 0.000976562 28.827 0.525625 28.827 1.17285V6.32887H26.5662C26.028 6.32887 25.5592 6.69531 25.429 7.2175L24.5645 10.6877L20.1865 12.502L17.123 10.6605C16.6616 10.3832 16.0711 10.4556 15.6907 10.8362L10.8352 15.6918C10.4546 16.0723 10.3822 16.663 10.6594 17.1241L12.5009 20.1876L10.6866 24.5656L7.21641 25.4301C6.69422 25.5602 6.32777 26.0291 6.32777 26.5673V28.828H1.17188C0.524648 28.828 0 29.3527 0 29.9999C0 30.647 0.524648 31.1718 1.17188 31.1718H6.32789V33.4326C6.32789 33.9707 6.69434 34.4397 7.21652 34.5696L10.6867 35.4343L12.501 39.8123L10.6594 42.8758C10.3821 43.337 10.4546 43.9278 10.8352 44.3083L15.6907 49.1638C16.0712 49.5442 16.662 49.6166 17.1232 49.3395L20.1866 47.498L24.5647 49.3123L25.4292 52.7823C25.5593 53.3045 26.0283 53.671 26.5664 53.671H28.8271V58.827C28.8271 59.4741 29.3517 59.9989 29.9989 59.9989C30.6462 59.9989 31.1708 59.4741 31.1708 58.827V53.671H33.4316C33.9697 53.671 34.4386 53.3045 34.5688 52.7823L35.4333 49.3123L39.8114 47.498L42.8748 49.3395C43.3361 49.6166 43.9267 49.5442 44.3073 49.1638L49.1629 44.3083C49.5432 43.9278 49.6158 43.3369 49.3385 42.8758L47.497 39.8123L49.3113 35.4343L52.7815 34.5696C53.3037 34.4397 53.6701 33.9707 53.6701 33.4326V31.1718H58.8261C59.4734 31.1718 59.998 30.647 59.998 29.9999C59.9977 29.3527 59.473 28.828 58.8258 28.828ZM51.3261 32.5169L48.1713 33.303C47.8109 33.3929 47.5143 33.6482 47.372 33.9914L45.1054 39.4611C44.9631 39.8043 44.9921 40.1948 45.1836 40.5134L46.8578 43.2985L43.2973 46.8591L40.5122 45.185C40.1936 44.9934 39.8031 44.9643 39.4597 45.1067L33.9901 47.3734C33.6469 47.5157 33.3915 47.8122 33.3016 48.1728L32.5157 51.3275H27.4818L26.6958 48.1728C26.6059 47.8122 26.3505 47.5157 26.0073 47.3734L20.5377 45.1067C20.1943 44.9643 19.8039 44.9934 19.4852 45.185L16.7002 46.8591L13.1396 43.2985L14.8138 40.5134C15.0053 40.1948 15.0342 39.8043 14.892 39.4611L12.6253 33.9914C12.483 33.6482 12.1864 33.3929 11.826 33.303L8.67129 32.5169V27.483L11.8261 26.697C12.1866 26.6071 12.4832 26.3518 12.6254 26.0085L14.8921 20.5389C15.0343 20.1955 15.0053 19.8051 14.8139 19.4866L13.1398 16.7015L16.7003 13.141L19.4854 14.8151C19.8039 15.0066 20.1943 15.0357 20.5377 14.8933L26.0073 12.6266C26.3505 12.4844 26.6059 12.1878 26.6958 11.8273L27.4818 8.6725H32.5157L33.3016 11.8273C33.3915 12.1878 33.6469 12.4844 33.9901 12.6266L39.4597 14.8933C39.8032 15.0355 40.1936 15.0065 40.5121 14.8151L43.2971 13.141L46.8577 16.7015L45.1835 19.4866C44.992 19.8051 44.9631 20.1955 45.1054 20.5389L47.372 26.0085C47.5143 26.3518 47.8109 26.6071 48.1713 26.697L51.3261 27.483V32.5169Z" fill="white"/>
<path d="M35.1671 15.9147C34.5596 15.692 33.8863 16.0035 33.6633 16.611C33.4403 17.2187 33.7521 17.8919 34.3596 18.1149C39.3213 19.9359 42.655 24.7121 42.655 29.9998C42.655 36.9783 36.9776 42.6556 29.9992 42.6556C23.0208 42.6556 17.3435 36.9782 17.3435 29.9997C17.3435 24.9963 20.2999 20.4524 24.8752 18.4239C25.4668 18.1617 25.7338 17.4693 25.4714 16.8778C25.2091 16.2862 24.5167 16.0191 23.9252 16.2815C18.5034 18.6854 15 24.0701 15 29.9997C15 38.2703 21.7287 44.9991 29.9994 44.9991C38.2702 44.9991 44.9987 38.2703 44.9987 29.9997C44.9987 23.7332 41.0476 18.0728 35.1671 15.9147Z" fill="white"/>
<path d="M30.0602 15.0006L29.998 15.0005C29.3508 15.0005 28.8262 15.5251 28.8262 16.1724C28.8262 16.8196 29.3508 17.3442 29.998 17.3442L30.0532 17.3444C30.0544 17.3444 30.0556 17.3444 30.0568 17.3444C30.7023 17.3444 31.2266 16.8219 31.2286 16.1759C31.2305 15.5287 30.7074 15.0025 30.0602 15.0006Z" fill="white"/>
<path d="M38.1621 25.3384C37.5149 25.3384 36.9902 25.863 36.9902 26.5103V33.3405C36.9902 33.9876 37.5149 34.5124 38.1621 34.5124C38.8093 34.5124 39.334 33.9876 39.334 33.3405V26.5101C39.334 25.8629 38.8093 25.3384 38.1621 25.3384Z" fill="white"/>
<path d="M32.4788 25.3384H30.0645C29.4172 25.3384 28.8926 25.863 28.8926 26.5103V28.8467V30.4453V33.3404C28.8926 33.9875 29.4172 34.5123 30.0645 34.5123C30.7117 34.5123 31.2363 33.9875 31.2363 33.3404V31.6172H32.4789C34.1136 31.6172 35.4437 30.287 35.4437 28.6523V28.3032C35.4436 26.6683 34.1136 25.3384 32.4788 25.3384ZM33.1 28.6522C33.1 28.9947 32.8213 29.2734 32.4788 29.2734H31.2362V28.8466V27.6819H32.4788C32.8213 27.6819 33.1 27.9606 33.1 28.3031V28.6522Z" fill="white"/>
<path d="M27.6376 33.0578L24.6298 26.0483C24.4451 25.6175 24.0216 25.3384 23.553 25.3384C23.0844 25.3384 22.6609 25.6175 22.476 26.0482L19.4683 33.0576C19.2131 33.6524 19.4884 34.3414 20.0832 34.5965C20.678 34.8517 21.367 34.5765 21.6222 33.9818L23.553 29.4819L25.4839 33.9818C25.6744 34.4259 26.1069 34.6919 26.5613 34.6919C26.7154 34.6919 26.8722 34.6612 27.0228 34.5967C27.6175 34.3415 27.8928 33.6525 27.6376 33.0578Z" fill="white"/>
<path d="M56.0158 0.0012207C53.8189 0.0012207 52.0315 1.78845 52.0315 3.98548C52.0315 4.65767 52.1995 5.29107 52.4947 5.84689L48.0112 10.3302C47.5536 10.7879 47.5536 11.5299 48.0112 11.9875C48.24 12.2163 48.54 12.3306 48.8399 12.3306C49.1398 12.3306 49.4398 12.2163 49.6686 11.9874L54.1511 7.50485C54.7079 7.80099 55.3424 7.96962 56.0157 7.96962C58.2126 7.96962 59.9999 6.18239 59.9999 3.98536C59.9999 1.78833 58.2128 0.0012207 56.0158 0.0012207ZM56.0158 5.62599C55.1111 5.62599 54.3753 4.89005 54.3753 3.98548C54.3753 3.08079 55.1112 2.34497 56.0158 2.34497C56.9205 2.34497 57.6563 3.08091 57.6563 3.98548C57.6564 4.89005 56.9205 5.62599 56.0158 5.62599Z" fill="white"/>
<path d="M11.9863 48.0122C11.5287 47.5548 10.7866 47.5548 10.3291 48.0123L5.8473 52.4942C5.2909 52.1985 4.65691 52.0302 3.98426 52.0302C1.78723 52.0303 0 53.8176 0 56.0145C0 58.2114 1.78723 59.9987 3.98426 59.9987C6.18129 59.9987 7.96852 58.2115 7.96852 56.0145C7.96852 55.3417 7.80023 54.7077 7.50457 54.1514L11.9864 49.6695C12.4439 49.212 12.4439 48.4699 11.9863 48.0122ZM3.98426 57.6551C3.07957 57.6551 2.34375 56.9192 2.34375 56.0146C2.34375 55.1099 3.07969 54.3741 3.98426 54.3741C4.88895 54.3741 5.62477 55.11 5.62477 56.0146C5.62477 56.9192 4.88883 57.6551 3.98426 57.6551Z" fill="white"/>
<path d="M49.6695 48.0123C49.4504 47.7943 49.148 47.6689 48.8398 47.6689C48.5316 47.6689 48.2293 47.7942 48.0113 48.0123C47.7934 48.2302 47.668 48.5325 47.668 48.8408C47.668 49.149 47.7934 49.4514 48.0113 49.6692C48.2293 49.8872 48.5316 50.0127 48.8398 50.0127C49.1492 50.0127 49.4504 49.8873 49.6695 49.6692C49.8875 49.4514 50.0117 49.1501 50.0117 48.8408C50.0117 48.5325 49.8875 48.2302 49.6695 48.0123Z" fill="white"/>
<path d="M56.0166 52.0304C55.3433 52.0304 54.7087 52.199 54.152 52.4952L52.1723 50.5154C51.7147 50.0581 50.9726 50.0579 50.5151 50.5154C50.0575 50.9731 50.0574 51.7151 50.5151 52.1727L52.4956 54.1533C52.2005 54.7094 52.0325 55.3427 52.0325 56.0147C52.0325 58.2116 53.8197 59.999 56.0167 59.999C58.2138 59.999 60.0009 58.2117 60.0009 56.0147C60.0009 53.8177 58.2136 52.0304 56.0166 52.0304ZM56.0166 57.6552C55.1119 57.6552 54.3761 56.9193 54.3761 56.0147C54.3761 55.11 55.112 54.3742 56.0166 54.3742C56.9213 54.3742 57.6571 55.1101 57.6571 56.0147C57.6572 56.9193 56.9213 57.6552 56.0166 57.6552Z" fill="white"/>
<path d="M11.9863 10.3302L7.50457 5.84853C7.80023 5.29212 7.96852 4.65813 7.96852 3.98548C7.96852 1.78856 6.18129 0.0012207 3.98426 0.0012207C1.78723 0.0012207 0 1.78845 0 3.98548C0 6.18251 1.78723 7.96974 3.98426 7.96974C4.65703 7.96974 5.29102 7.80146 5.8473 7.50579L10.3291 11.9875C10.558 12.2164 10.8579 12.3308 11.1578 12.3308C11.4577 12.3308 11.7577 12.2164 11.9864 11.9875C12.4439 11.5299 12.4439 10.7879 11.9863 10.3302ZM3.98426 5.62599C3.07957 5.62599 2.34375 4.89005 2.34375 3.98548C2.34375 3.08079 3.07969 2.34497 3.98426 2.34497C4.88895 2.34497 5.62477 3.08091 5.62477 3.98548C5.62477 4.89005 4.88883 5.62599 3.98426 5.62599Z" fill="white"/>
</g>
<defs>
<clipPath id="clip0_3224_2255">
<rect width="60" height="60" fill="white"/>
</clipPath>
</defs>
</svg>
