<svg width="60" height="60" viewBox="0 0 60 60" fill="none" xmlns="http://www.w3.org/2000/svg">
<g clip-path="url(#clip0_3235_4865)">
<path fill-rule="evenodd" clip-rule="evenodd" d="M23.163 44.2535H20.2217C19.1052 44.2535 18.203 43.4602 17.9223 42.232L17.5937 40.7949C16.4412 40.3559 15.3564 39.7283 14.3966 38.9461L12.9844 39.381C11.7997 39.7461 10.6343 39.3532 10.0841 38.4008L8.6132 35.8534C8.05568 34.8873 8.29153 33.7083 9.21363 32.852L10.2954 31.8474C10.1972 31.2381 10.148 30.6197 10.148 30C10.148 29.3805 10.1977 28.7621 10.2954 28.1528L9.2146 27.1488C8.29153 26.292 8.05513 25.1136 8.61362 24.1469L10.084 21.5996C10.6347 20.6466 11.798 20.2542 12.9842 20.6194L14.3964 21.0543C15.3563 20.2718 16.4409 19.6448 17.5936 19.2055L17.9222 17.7678C18.2034 16.5396 19.1056 15.7463 20.2215 15.7463L23.1635 15.7465C24.2794 15.7465 25.1821 16.5397 25.4622 17.768L25.7908 19.2056C26.9435 19.6447 28.0281 20.272 28.988 21.0544L30.4007 20.6195C30.7 20.5273 31.0008 20.4799 31.2936 20.4799C32.1581 20.4799 32.8894 20.888 33.2999 21.5993L34.7713 24.1475C35.3289 25.1141 35.0931 26.292 34.1709 27.1489L33.0892 28.1529C33.1874 28.7628 33.2372 29.3812 33.2372 30.0003C33.2372 30.6193 33.1874 31.2383 33.0892 31.848L34.1701 32.8516C35.0931 33.7074 35.3294 34.8858 34.7719 35.8525L33.3005 38.4008C32.7508 39.3532 31.5851 39.7471 30.3996 39.381L28.9884 38.9465C28.0281 39.7289 26.9435 40.3562 25.7903 40.7953L25.4617 42.232C25.182 43.4597 24.2794 44.2535 23.163 44.2535ZM20.6259 41.4415H22.7582L23.2246 39.4038C23.3372 38.9094 23.7077 38.5149 24.193 38.3699C25.4887 37.9832 26.6967 37.2846 27.6879 36.3494C28.0555 36.0009 28.5823 35.8797 29.0666 36.0276L31.0682 36.6442L32.1343 34.7978L30.602 33.3748C30.2306 33.0307 30.0738 32.513 30.1901 32.0204C30.3464 31.3608 30.4252 30.6819 30.4252 30.0005C30.4252 29.3191 30.3461 28.639 30.1901 27.9805C30.0734 27.4879 30.2306 26.9705 30.602 26.6259L32.1349 25.2033L31.0683 23.3566L29.0662 23.9732C28.583 24.123 28.0556 23.9995 27.6872 23.6514C26.6971 22.7162 25.489 22.0179 24.1934 21.6314C23.7076 21.4864 23.3376 21.0915 23.225 20.5974L22.7587 18.5594H20.6259L20.1603 20.5974C20.0475 21.0915 19.6774 21.4864 19.1918 21.6314C17.8961 22.0182 16.6884 22.7167 15.6979 23.6514C15.3299 23.999 14.8027 24.122 14.3189 23.9732L12.3168 23.3566L11.2506 25.2033L12.783 26.6264C13.1539 26.9711 13.3111 27.488 13.1943 27.9806C13.0386 28.6392 12.9594 29.3186 12.9594 30.0011C12.9594 30.6831 13.0386 31.3627 13.1943 32.0211C13.311 32.5139 13.1538 33.0308 12.783 33.3749L11.2501 34.7981L12.3167 36.6447L14.3182 36.0281C14.802 35.8792 15.3293 36.0011 15.6972 36.3494C16.6873 37.2846 17.8955 37.9833 19.191 38.3699C19.6768 38.5149 20.0468 38.9097 20.1594 39.4038L20.6259 41.4415Z" fill="white"/>
<path fill-rule="evenodd" clip-rule="evenodd" d="M21.6916 36.4473C18.1367 36.4473 15.2441 33.5548 15.2441 29.9999C15.2441 26.4451 18.1361 23.5525 21.6916 23.5525C25.247 23.5525 28.1389 26.4452 28.1389 30.0001C28.1389 33.555 25.247 36.4473 21.6916 36.4473ZM21.6916 26.3645C19.6871 26.3645 18.0561 27.9957 18.0561 30.0001C18.0561 32.0046 19.6872 33.6356 21.6916 33.6356C23.6961 33.6356 25.3271 32.0046 25.3271 30.0001C25.3274 27.9957 23.6966 26.3645 21.6916 26.3645Z" fill="white"/>
<path fill-rule="evenodd" clip-rule="evenodd" d="M39.1824 59.7103H4.2022C1.88838 59.7103 0.00585938 57.8283 0.00585938 55.514V20.5474C0.00585938 19.7712 0.634937 19.1415 1.41184 19.1415C2.18804 19.1415 2.81768 19.7712 2.81768 20.5474V55.514C2.81768 56.2769 3.43873 56.8985 4.2022 56.8985H39.1824C39.9453 56.8985 40.5669 56.2775 40.5669 55.514V4.48554C40.5669 3.72261 39.9459 3.10101 39.1824 3.10101L4.2022 3.10129C3.43928 3.10129 2.81768 3.72234 2.81768 4.48581V15.8701C2.81768 16.6469 2.18805 17.276 1.41184 17.276C0.634937 17.276 0.00585938 16.6469 0.00585938 15.8701V4.48553C0.00585938 2.17227 1.88839 0.289757 4.2022 0.289757H39.1824C41.4963 0.289757 43.3789 2.17201 43.3789 4.48609V55.5145C43.3789 57.8281 41.4963 59.7103 39.1824 59.7103Z" fill="white"/>
<path fill-rule="evenodd" clip-rule="evenodd" d="M41.9728 48.6343H1.41184C0.634937 48.6343 0.00585938 48.0051 0.00585938 47.2283C0.00585938 46.4516 0.634937 45.8223 1.41184 45.8223H41.9725C42.7492 45.8223 43.3784 46.4516 43.3784 47.2283C43.3784 48.0051 42.7494 48.6343 41.9728 48.6343ZM41.9728 14.1773H1.41184C0.634937 14.1773 0.00585938 13.5482 0.00585938 12.7713C0.00585938 11.9946 0.634937 11.3655 1.41184 11.3655H41.9725C42.7492 11.3655 43.3784 11.9946 43.3784 12.7713C43.3784 13.5482 42.7494 14.1773 41.9728 14.1773Z" fill="white"/>
<path fill-rule="evenodd" clip-rule="evenodd" d="M30.0264 14.1773H13.357C12.5802 14.1773 11.9512 13.5482 11.9512 12.7713V7.37068C11.9512 6.59391 12.5802 5.9647 13.357 5.9647H30.0264C30.8032 5.9647 31.4323 6.59391 31.4323 7.37068V12.7713C31.4323 13.5482 30.8032 14.1773 30.0264 14.1773ZM14.7626 11.3655H28.6204V8.77665H14.7626V11.3655Z" fill="white"/>
<path fill-rule="evenodd" clip-rule="evenodd" d="M27.4888 54.8183H15.8943C15.1175 54.8183 14.4883 54.1891 14.4883 53.4123C14.4883 52.6356 15.1175 52.0065 15.8943 52.0065H27.4888C28.2656 52.0065 28.8948 52.6356 28.8948 53.4123C28.8948 54.1891 28.2656 54.8183 27.4888 54.8183Z" fill="white"/>
<path fill-rule="evenodd" clip-rule="evenodd" d="M55.0553 22.3728H50.1556C49.6346 22.3728 49.1562 22.0847 48.9126 21.6244L46.8527 17.7317C46.6915 17.4265 46.6477 17.0736 46.7302 16.7386L48.3562 10.118C48.5104 9.4892 49.0743 9.04753 49.7215 9.04753L55.4887 9.04767C56.1359 9.04767 56.6993 9.48934 56.8541 10.1181L58.4797 16.7389C58.5618 17.0737 58.5183 17.4272 58.3572 17.7319L56.2975 21.6247C56.0541 22.0847 55.5761 22.3728 55.0553 22.3728ZM51.0021 19.5609H54.2082L55.6216 16.8896L54.3865 11.8593L50.8238 11.8596L49.5888 16.8897L51.0021 19.5609Z" fill="white"/>
<path fill-rule="evenodd" clip-rule="evenodd" d="M52.6051 39.7728C51.8283 39.7728 51.1992 39.1436 51.1992 38.3668V20.9666C51.1992 20.1898 51.8283 19.5608 52.6051 19.5608C53.3818 19.5608 54.011 20.1898 54.011 20.9666V38.3672C54.011 39.1434 53.3817 39.7728 52.6051 39.7728Z" fill="white"/>
<path fill-rule="evenodd" clip-rule="evenodd" d="M58.5868 45.2108H46.6246C45.8478 45.2108 45.2188 44.5816 45.2188 43.8048V38.3665C45.2188 37.5897 45.8478 36.9605 46.6246 36.9605H58.5868C59.3635 36.9605 59.9927 37.5897 59.9927 38.3665V43.8048C59.9927 44.5814 59.3635 45.2108 58.5868 45.2108ZM48.0306 42.399H57.1808V39.7725H48.0306V42.399Z" fill="white"/>
<path fill-rule="evenodd" clip-rule="evenodd" d="M55.7461 59.7103H49.4495C47.804 59.7103 46.4648 58.3712 46.4648 56.7256L46.465 43.8047C46.465 43.0279 47.0942 42.3988 47.871 42.3988H57.3409C58.1178 42.3988 58.7469 43.0279 58.7469 43.8047V50.1721C58.7469 50.9489 58.1178 51.578 57.3409 51.578C56.5641 51.578 55.9351 50.9489 55.9351 50.1721V45.2106H49.2764V56.7257C49.2764 56.8175 49.3573 56.8986 49.4492 56.8986L55.7457 56.8985C55.8463 56.8985 55.9346 56.81 55.9346 56.7095V54.8492C55.9346 54.0724 56.5638 53.4432 57.3406 53.4432C58.1173 53.4432 58.7466 54.0724 58.7466 54.8492V56.7095C58.7463 58.3645 57.4005 59.7103 55.7461 59.7103Z" fill="white"/>
</g>
<defs>
<clipPath id="clip0_3235_4865">
<rect width="60" height="60" fill="white"/>
</clipPath>
</defs>
</svg>
