<svg width="55" height="55" viewBox="0 0 55 55" fill="none" xmlns="http://www.w3.org/2000/svg">
<path d="M49.1589 23.8887L49.2517 23.8381C51.4623 22.5556 52.2301 19.7206 50.9476 17.5015L47.8764 12.1859C47.2604 11.1143 46.2564 10.3465 45.0582 10.0259C43.8601 9.70528 42.6114 9.87403 41.5398 10.49L41.447 10.5406C40.4851 11.0975 39.3461 11.0806 38.4517 10.5153C37.9032 10.1609 37.3295 9.83185 36.7304 9.5281C35.8023 9.0556 35.1948 8.03466 35.1948 6.94622V6.83653C35.1948 4.27997 33.1192 2.20435 30.5626 2.20435H24.4201C21.8636 2.20435 19.7879 4.27997 19.7879 6.83653V6.94622C19.7879 8.0431 19.1889 9.0556 18.2523 9.5281C17.6532 9.83185 17.0795 10.1609 16.5311 10.5153C15.6451 11.089 14.4976 11.0975 13.5442 10.549L13.4514 10.4984C12.3798 9.88247 11.1311 9.71372 9.93293 10.0343C8.7348 10.355 7.73918 11.1228 7.1148 12.1943L4.04355 17.51C2.76949 19.7206 3.52887 22.564 5.73949 23.8465L5.82387 23.8972C6.78574 24.454 7.34262 25.5172 7.29199 26.6731C7.27512 26.9515 7.27512 27.23 7.27512 27.5084C7.27512 27.7868 7.27512 28.0653 7.29199 28.3353C7.35105 29.4997 6.78574 30.5628 5.8323 31.1112L5.73949 31.1618C3.52887 32.4443 2.76105 35.2793 4.04355 37.4984L7.1148 42.814C7.73074 43.8856 8.7348 44.6534 9.93293 44.974C11.1311 45.2947 12.3798 45.1259 13.4514 44.51L13.5442 44.4593C14.5061 43.9025 15.6451 43.9193 16.5395 44.4847C17.0879 44.839 17.6617 45.1681 18.2607 45.4718C19.1889 45.9443 19.7964 46.9653 19.7964 48.0537V48.1634C19.7964 50.72 21.872 52.7956 24.4286 52.7956H30.5711C33.1276 52.7956 35.2032 50.72 35.2032 48.1634V48.0537C35.2032 46.9568 35.8023 45.9443 36.7389 45.4718C37.3295 45.1681 37.9032 44.839 38.4601 44.4847C39.3461 43.9109 40.4936 43.9025 41.4554 44.4593L41.5482 44.51C43.7589 45.784 46.6023 45.0247 47.8848 42.814L50.9561 37.4984C52.2301 35.2878 51.4707 32.4443 49.2601 31.1618L49.1757 31.1112C48.2139 30.5543 47.657 29.4912 47.7076 28.3353C47.7245 28.0568 47.7245 27.7784 47.7245 27.5C47.7245 27.2215 47.7245 26.9431 47.7076 26.6731C47.6486 25.5087 48.2139 24.4456 49.1673 23.8972L49.1589 23.8887ZM48.3151 22.429C46.8048 23.2981 45.9189 24.9603 46.0032 26.749C46.0117 26.9937 46.0201 27.2468 46.0201 27.5C46.0201 27.7531 46.0201 27.9978 46.0032 28.2509C45.9189 30.0481 46.8048 31.7018 48.3151 32.5709L48.3995 32.6215C49.8086 33.4315 50.2895 35.2372 49.4795 36.6462L46.4082 41.9618C46.0117 42.6453 45.3789 43.1347 44.6195 43.3372C43.8601 43.5397 43.067 43.4384 42.3836 43.0418L42.2907 42.9912C40.7804 42.1222 38.9664 42.1475 37.5404 43.0587C37.0342 43.3793 36.5026 43.6831 35.9626 43.9615C34.4523 44.7378 33.5073 46.2987 33.5073 48.0453V48.155C33.5073 49.7834 32.1826 51.0997 30.5626 51.0997H24.4201C22.7917 51.0997 21.4754 49.775 21.4754 48.155V48.0453C21.4754 46.2987 20.5304 44.7293 19.0201 43.9615C18.4717 43.6831 17.9401 43.3793 17.4423 43.0587C16.7082 42.5862 15.8729 42.3584 15.0292 42.3584C14.2276 42.3584 13.4261 42.5693 12.692 42.9912L12.5992 43.0418C11.9157 43.4384 11.1226 43.5397 10.3632 43.3372C9.60386 43.1347 8.96262 42.6453 8.57449 41.9618L5.50324 36.6462C4.69324 35.2372 5.17418 33.4315 6.5748 32.6215L6.66762 32.5709C8.17793 31.7018 9.06387 30.0397 8.97949 28.2509C8.97105 28.0062 8.96262 27.7531 8.96262 27.5C8.96262 27.2468 8.96262 27.0022 8.97949 26.749C9.06387 24.9518 8.17793 23.2981 6.66762 22.429L6.58324 22.3784C5.17418 21.5684 4.69324 19.7628 5.50324 18.3537L8.57449 13.0381C8.97105 12.3547 9.60386 11.8653 10.3632 11.6628C11.1226 11.4603 11.9157 11.5615 12.5992 11.9581L12.692 12.0087C14.2023 12.8778 16.0164 12.8525 17.4423 11.9412C17.9401 11.6206 18.4717 11.3168 19.0201 11.0384C20.5304 10.2622 21.4754 8.70122 21.4754 6.95466V6.84497C21.4754 5.21653 22.8001 3.90028 24.4201 3.90028H30.5626C32.1911 3.90028 33.5073 5.22497 33.5073 6.84497V6.95466C33.5073 8.70122 34.4523 10.2706 35.9626 11.0384C36.5111 11.3168 37.0426 11.6206 37.5404 11.9412C38.9664 12.8525 40.7804 12.8778 42.2907 12.0087L42.3836 11.9581C43.067 11.5615 43.8601 11.4603 44.6195 11.6628C45.3789 11.8653 46.0201 12.3547 46.4082 13.0381L49.4795 18.3537C50.2895 19.7628 49.8086 21.5684 48.4079 22.3784L48.3151 22.429ZM27.4998 11.0131C18.4126 11.0131 11.0129 18.4043 11.0129 27.5C11.0129 35.6084 16.9023 42.35 24.6311 43.7168C24.7492 43.7759 24.8673 43.8181 25.0107 43.8181C25.0529 43.8181 25.0867 43.8012 25.1289 43.7928C25.9051 43.9025 26.6982 43.9868 27.5082 43.9868C36.5954 43.9868 43.9951 36.5956 43.9951 27.5C43.9951 18.4043 36.6039 11.0131 27.5082 11.0131H27.4998ZM40.2657 20.0581C41.5482 22.2434 42.2907 24.7831 42.2907 27.5C42.2907 34.8237 36.9414 40.8987 29.9467 42.0715V37.4478H34.0895C35.8867 37.4478 37.3464 35.9881 37.3464 34.1909V29.449C38.4432 29.0947 39.2448 28.0653 39.2448 26.8503C39.2448 25.34 38.0129 24.1081 36.5026 24.1081C34.9923 24.1081 33.7604 25.34 33.7604 26.8503C33.7604 28.0653 34.562 29.0862 35.6589 29.449V34.1909C35.6589 35.06 34.9501 35.7603 34.0895 35.7603H29.9467V33.4822C31.0436 33.1278 31.8451 32.0984 31.8451 30.8834C31.8451 29.3731 30.6132 28.1412 29.1029 28.1412C27.5926 28.1412 26.3607 29.3731 26.3607 30.8834C26.3607 32.0984 27.1623 33.1193 28.2592 33.4822V42.2572C28.0061 42.274 27.7529 42.2993 27.4998 42.2993C26.9429 42.2993 26.3945 42.2656 25.8545 42.1981V35.6422C25.8545 33.845 24.3948 32.3853 22.5976 32.3853H21.5345C21.1801 31.2884 20.1507 30.4868 18.9357 30.4868C17.4254 30.4868 16.1936 31.7187 16.1936 33.229C16.1936 34.7393 17.4254 35.9712 18.9357 35.9712C20.1507 35.9712 21.1717 35.1697 21.5345 34.0728H22.5976C23.4667 34.0728 24.167 34.7815 24.167 35.6422V41.9028C17.6111 40.384 12.7089 34.5115 12.7089 27.5C12.7089 22.6147 15.0967 18.2862 18.767 15.5862V23.2475C17.6701 23.6018 16.8686 24.6312 16.8686 25.8462C16.8686 27.3565 18.1004 28.5884 19.6107 28.5884C21.1211 28.5884 22.3529 27.3565 22.3529 25.8462C22.3529 24.6312 21.5514 23.6103 20.4545 23.2475V18.8768H25.8461C26.2004 18.8768 26.4789 19.1637 26.4789 19.5097V20.3787C25.382 20.7331 24.5804 21.7625 24.5804 22.9775C24.5804 24.4878 25.8123 25.7197 27.3226 25.7197C28.8329 25.7197 30.0648 24.4878 30.0648 22.9775C30.0648 21.7625 29.2632 20.7415 28.1664 20.3787V19.5097C28.1664 18.2272 27.1201 17.1893 25.8461 17.1893H20.4545V14.7593C20.4545 14.675 20.4292 14.599 20.4039 14.5231C22.5132 13.3672 24.9348 12.7006 27.5082 12.7006C32.2248 12.7006 36.4267 14.9281 39.1436 18.379H36.4773C36.1229 17.2822 35.0936 16.4806 33.8786 16.4806C32.3682 16.4806 31.1364 17.7125 31.1364 19.2228C31.1364 20.7331 32.3682 21.965 33.8786 21.965C35.0936 21.965 36.1145 21.1634 36.4773 20.0665H40.1982C40.1982 20.0665 40.2489 20.0497 40.2742 20.0497L40.2657 20.0581Z" fill="black"/>
</svg>
