<svg width="50" height="50" viewBox="0 0 50 50" fill="none" xmlns="http://www.w3.org/2000/svg">
<path d="M44.6016 26.8906C44.5501 26.7851 44.4757 26.6925 44.3837 26.6195C44.2918 26.5465 44.1847 26.495 44.0703 26.4688C43.9568 26.4421 43.8388 26.4416 43.7251 26.4673C43.6114 26.4931 43.505 26.5443 43.4141 26.6172L33.0391 34.7812C32.9464 34.8534 32.8714 34.9459 32.82 35.0515C32.7685 35.1571 32.7419 35.2731 32.7422 35.3906C32.7395 35.5077 32.7643 35.6238 32.8144 35.7296C32.8646 35.8354 32.9389 35.928 33.0312 36C33.9328 36.7322 34.9917 37.2456 36.125 37.5C36.6711 37.6236 37.2292 37.6865 37.7891 37.6875C39.0637 37.6875 40.3177 37.3648 41.4339 36.7492C42.5501 36.1337 43.4922 35.2455 44.1724 34.1675C44.8526 33.0895 45.2487 31.8568 45.3238 30.5843C45.3988 29.3119 45.1503 28.0411 44.6016 26.8906ZM43.625 31.4375C43.5869 31.6371 43.532 31.8331 43.4609 32.0234L43.4375 32.0938C42.9879 33.3756 42.1179 34.4677 40.969 35.1925C39.8202 35.9173 38.4599 36.2321 37.1094 36.0859C37.1016 36.0859 36.6719 36.0234 36.4688 35.9766C35.8966 35.8501 35.3463 35.6394 34.8359 35.3516L43.5469 28.5C43.815 29.4577 43.8418 30.4669 43.625 31.4375ZM44.6016 26.8906C44.5501 26.7851 44.4757 26.6925 44.3837 26.6195C44.2918 26.5465 44.1847 26.495 44.0703 26.4688C43.9568 26.4421 43.8388 26.4416 43.7251 26.4673C43.6114 26.4931 43.505 26.5443 43.4141 26.6172L33.0391 34.7812C32.9464 34.8534 32.8714 34.9459 32.82 35.0515C32.7685 35.1571 32.7419 35.2731 32.7422 35.3906C32.7395 35.5077 32.7643 35.6238 32.8144 35.7296C32.8646 35.8354 32.9389 35.928 33.0312 36C33.9328 36.7322 34.9917 37.2456 36.125 37.5C36.6711 37.6236 37.2292 37.6865 37.7891 37.6875C39.0637 37.6875 40.3177 37.3648 41.4339 36.7492C42.5501 36.1337 43.4922 35.2455 44.1724 34.1675C44.8526 33.0895 45.2487 31.8568 45.3238 30.5843C45.3988 29.3119 45.1503 28.0411 44.6016 26.8906ZM43.625 31.4375C43.5869 31.6371 43.532 31.8331 43.4609 32.0234L43.4375 32.0938C42.9879 33.3756 42.1179 34.4677 40.969 35.1925C39.8202 35.9173 38.4599 36.2321 37.1094 36.0859C37.1016 36.0859 36.6719 36.0234 36.4688 35.9766C35.8966 35.8501 35.3463 35.6394 34.8359 35.3516L43.5469 28.5C43.815 29.4577 43.8418 30.4669 43.625 31.4375ZM42.5312 24.2578C41.2004 23.1801 39.5429 22.5866 37.8305 22.5746C36.1181 22.5626 34.4524 23.1327 33.1066 24.1916C31.7607 25.2505 30.8146 26.7352 30.4233 28.4024C30.0321 30.0695 30.2189 31.8201 30.9531 33.3672C31.0046 33.4727 31.079 33.5653 31.171 33.6383C31.2629 33.7113 31.37 33.7628 31.4844 33.7891C31.5412 33.7981 31.5987 33.8034 31.6562 33.8047C31.8317 33.8066 32.0025 33.7487 32.1406 33.6406L42.5156 25.4766C42.6069 25.4039 42.6809 25.3119 42.7322 25.2071C42.7836 25.1024 42.811 24.9875 42.8125 24.8709C42.814 24.7542 42.7895 24.6387 42.7409 24.5327C42.6922 24.4267 42.6206 24.3328 42.5312 24.2578ZM32.0078 31.7578C31.7398 30.8001 31.713 29.7909 31.9297 28.8203C32.0975 28.0497 32.4176 27.3204 32.871 26.6751C33.3244 26.0298 33.9022 25.4816 34.5703 25.0625C35.5262 24.457 36.6341 24.1346 37.7656 24.1328C38.7997 24.1354 39.8161 24.4016 40.7188 24.9062L32.0078 31.7578ZM42.5312 24.2578C41.2004 23.1801 39.5429 22.5866 37.8305 22.5746C36.1181 22.5626 34.4524 23.1327 33.1066 24.1916C31.7607 25.2505 30.8146 26.7352 30.4233 28.4024C30.0321 30.0695 30.2189 31.8201 30.9531 33.3672C31.0046 33.4727 31.079 33.5653 31.171 33.6383C31.2629 33.7113 31.37 33.7628 31.4844 33.7891C31.5412 33.7981 31.5987 33.8034 31.6562 33.8047C31.8317 33.8066 32.0025 33.7487 32.1406 33.6406L42.5156 25.4766C42.6069 25.4039 42.6809 25.3119 42.7322 25.2071C42.7836 25.1024 42.811 24.9875 42.8125 24.8709C42.814 24.7542 42.7895 24.6387 42.7409 24.5327C42.6922 24.4267 42.6206 24.3328 42.5312 24.2578ZM32.0078 31.7578C31.7398 30.8001 31.713 29.7909 31.9297 28.8203C32.0975 28.0497 32.4176 27.3204 32.871 26.6751C33.3244 26.0298 33.9022 25.4816 34.5703 25.0625C35.5262 24.457 36.6341 24.1346 37.7656 24.1328C38.7997 24.1354 39.8161 24.4016 40.7188 24.9062L32.0078 31.7578ZM44.6016 26.8906C44.5501 26.7851 44.4757 26.6925 44.3837 26.6195C44.2918 26.5465 44.1847 26.495 44.0703 26.4688C43.9568 26.4421 43.8388 26.4416 43.7251 26.4673C43.6114 26.4931 43.505 26.5443 43.4141 26.6172L33.0391 34.7812C32.9464 34.8534 32.8714 34.9459 32.82 35.0515C32.7685 35.1571 32.7419 35.2731 32.7422 35.3906C32.7395 35.5077 32.7643 35.6238 32.8144 35.7296C32.8646 35.8354 32.9389 35.928 33.0312 36C33.9328 36.7322 34.9917 37.2456 36.125 37.5C36.6711 37.6236 37.2292 37.6865 37.7891 37.6875C39.0637 37.6875 40.3177 37.3648 41.4339 36.7492C42.5501 36.1337 43.4922 35.2455 44.1724 34.1675C44.8526 33.0895 45.2487 31.8568 45.3238 30.5843C45.3988 29.3119 45.1503 28.0411 44.6016 26.8906ZM43.625 31.4375C43.5869 31.6371 43.532 31.8331 43.4609 32.0234L43.4375 32.0938C42.9879 33.3756 42.1179 34.4677 40.969 35.1925C39.8202 35.9173 38.4599 36.2321 37.1094 36.0859C37.1016 36.0859 36.6719 36.0234 36.4688 35.9766C35.8966 35.8501 35.3463 35.6394 34.8359 35.3516L43.5469 28.5C43.815 29.4577 43.8418 30.4669 43.625 31.4375ZM44.6016 26.8906C44.5501 26.7851 44.4757 26.6925 44.3837 26.6195C44.2918 26.5465 44.1847 26.495 44.0703 26.4688C43.9568 26.4421 43.8388 26.4416 43.7251 26.4673C43.6114 26.4931 43.505 26.5443 43.4141 26.6172L33.0391 34.7812C32.9464 34.8534 32.8714 34.9459 32.82 35.0515C32.7685 35.1571 32.7419 35.2731 32.7422 35.3906C32.7395 35.5077 32.7643 35.6238 32.8144 35.7296C32.8646 35.8354 32.9389 35.928 33.0312 36C33.9328 36.7322 34.9917 37.2456 36.125 37.5C36.6711 37.6236 37.2292 37.6865 37.7891 37.6875C39.0637 37.6875 40.3177 37.3648 41.4339 36.7492C42.5501 36.1337 43.4922 35.2455 44.1724 34.1675C44.8526 33.0895 45.2487 31.8568 45.3238 30.5843C45.3988 29.3119 45.1503 28.0411 44.6016 26.8906ZM43.625 31.4375C43.5869 31.6371 43.532 31.8331 43.4609 32.0234L43.4375 32.0938C42.9879 33.3756 42.1179 34.4677 40.969 35.1925C39.8202 35.9173 38.4599 36.2321 37.1094 36.0859C37.1016 36.0859 36.6719 36.0234 36.4688 35.9766C35.8966 35.8501 35.3463 35.6394 34.8359 35.3516L43.5469 28.5C43.815 29.4577 43.8418 30.4669 43.625 31.4375ZM42.8125 24.8672C42.8149 24.7509 42.7908 24.6357 42.7421 24.5301C42.6934 24.4245 42.6213 24.3314 42.5312 24.2578C41.2004 23.1801 39.5429 22.5866 37.8305 22.5746C36.1181 22.5626 34.4524 23.1327 33.1066 24.1916C31.7607 25.2505 30.8146 26.7352 30.4233 28.4024C30.0321 30.0695 30.2189 31.8201 30.9531 33.3672C31.0046 33.4727 31.079 33.5653 31.171 33.6383C31.2629 33.7113 31.37 33.7628 31.4844 33.7891C31.5412 33.7981 31.5987 33.8034 31.6562 33.8047C31.8317 33.8066 32.0025 33.7487 32.1406 33.6406L42.5156 25.4766C42.6083 25.4044 42.6833 25.3119 42.7347 25.2063C42.7862 25.1007 42.8128 24.9847 42.8125 24.8672ZM32.0078 31.7578C31.7398 30.8001 31.713 29.7909 31.9297 28.8203C32.0975 28.0497 32.4176 27.3204 32.871 26.6751C33.3244 26.0298 33.9022 25.4816 34.5703 25.0625C35.5262 24.457 36.6341 24.1346 37.7656 24.1328C38.7997 24.1354 39.8161 24.4016 40.7188 24.9062L32.0078 31.7578ZM44.6016 26.8906C44.5501 26.7851 44.4757 26.6925 44.3837 26.6195C44.2918 26.5465 44.1847 26.495 44.0703 26.4688C43.9568 26.4421 43.8388 26.4416 43.7251 26.4673C43.6114 26.4931 43.505 26.5443 43.4141 26.6172L33.0391 34.7812C32.9464 34.8534 32.8714 34.9459 32.82 35.0515C32.7685 35.1571 32.7419 35.2731 32.7422 35.3906C32.7395 35.5077 32.7643 35.6238 32.8144 35.7296C32.8646 35.8354 32.9389 35.928 33.0312 36C33.9328 36.7322 34.9917 37.2456 36.125 37.5C36.6711 37.6236 37.2292 37.6865 37.7891 37.6875C39.0637 37.6875 40.3177 37.3648 41.4339 36.7492C42.5501 36.1337 43.4922 35.2455 44.1724 34.1675C44.8526 33.0895 45.2487 31.8568 45.3238 30.5843C45.3988 29.3119 45.1503 28.0411 44.6016 26.8906ZM43.625 31.4375C43.5869 31.6371 43.532 31.8331 43.4609 32.0234L43.4375 32.0938C42.9879 33.3756 42.1179 34.4677 40.969 35.1925C39.8202 35.9173 38.4599 36.2321 37.1094 36.0859C37.1016 36.0859 36.6719 36.0234 36.4688 35.9766C35.8966 35.8501 35.3463 35.6394 34.8359 35.3516L43.5469 28.5C43.815 29.4577 43.8418 30.4669 43.625 31.4375ZM42.8125 24.8672C42.8149 24.7509 42.7908 24.6357 42.7421 24.5301C42.6934 24.4245 42.6213 24.3314 42.5312 24.2578C41.2004 23.1801 39.5429 22.5866 37.8305 22.5746C36.1181 22.5626 34.4524 23.1327 33.1066 24.1916C31.7607 25.2505 30.8146 26.7352 30.4233 28.4024C30.0321 30.0695 30.2189 31.8201 30.9531 33.3672C31.0046 33.4727 31.079 33.5653 31.171 33.6383C31.2629 33.7113 31.37 33.7628 31.4844 33.7891C31.5412 33.7981 31.5987 33.8034 31.6562 33.8047C31.8317 33.8066 32.0025 33.7487 32.1406 33.6406L42.5156 25.4766C42.6083 25.4044 42.6833 25.3119 42.7347 25.2063C42.7862 25.1007 42.8128 24.9847 42.8125 24.8672ZM32.0078 31.7578C31.7398 30.8001 31.713 29.7909 31.9297 28.8203C32.0975 28.0497 32.4176 27.3204 32.871 26.6751C33.3244 26.0298 33.9022 25.4816 34.5703 25.0625C35.5262 24.457 36.6341 24.1346 37.7656 24.1328C38.7997 24.1354 39.8161 24.4016 40.7188 24.9062L32.0078 31.7578ZM42.5312 24.2578C41.2004 23.1801 39.5429 22.5866 37.8305 22.5746C36.1181 22.5626 34.4524 23.1327 33.1066 24.1916C31.7607 25.2505 30.8146 26.7352 30.4233 28.4024C30.0321 30.0695 30.2189 31.8201 30.9531 33.3672C31.0046 33.4727 31.079 33.5653 31.171 33.6383C31.2629 33.7113 31.37 33.7628 31.4844 33.7891C31.5412 33.7981 31.5987 33.8034 31.6562 33.8047C31.8317 33.8066 32.0025 33.7487 32.1406 33.6406L42.5156 25.4766C42.6069 25.4039 42.6809 25.3119 42.7322 25.2071C42.7836 25.1024 42.811 24.9875 42.8125 24.8709C42.814 24.7542 42.7895 24.6387 42.7409 24.5327C42.6922 24.4267 42.6206 24.3328 42.5312 24.2578ZM32.0078 31.7578C31.7398 30.8001 31.713 29.7909 31.9297 28.8203C32.0975 28.0497 32.4176 27.3204 32.871 26.6751C33.3244 26.0298 33.9022 25.4816 34.5703 25.0625C35.5262 24.457 36.6341 24.1346 37.7656 24.1328C38.7997 24.1354 39.8161 24.4016 40.7188 24.9062L32.0078 31.7578ZM44.6016 26.8906C44.5501 26.7851 44.4757 26.6925 44.3837 26.6195C44.2918 26.5465 44.1847 26.495 44.0703 26.4688C43.9568 26.4421 43.8388 26.4416 43.7251 26.4673C43.6114 26.4931 43.505 26.5443 43.4141 26.6172L33.0391 34.7812C32.9464 34.8534 32.8714 34.9459 32.82 35.0515C32.7685 35.1571 32.7419 35.2731 32.7422 35.3906C32.7395 35.5077 32.7643 35.6238 32.8144 35.7296C32.8646 35.8354 32.9389 35.928 33.0312 36C33.9328 36.7322 34.9917 37.2456 36.125 37.5C36.6711 37.6236 37.2292 37.6865 37.7891 37.6875C39.0637 37.6875 40.3177 37.3648 41.4339 36.7492C42.5501 36.1337 43.4922 35.2455 44.1724 34.1675C44.8526 33.0895 45.2487 31.8568 45.3238 30.5843C45.3988 29.3119 45.1503 28.0411 44.6016 26.8906ZM43.625 31.4375C43.5869 31.6371 43.532 31.8331 43.4609 32.0234L43.4375 32.0938C42.9879 33.3756 42.1179 34.4677 40.969 35.1925C39.8202 35.9173 38.4599 36.2321 37.1094 36.0859C37.1016 36.0859 36.6719 36.0234 36.4688 35.9766C35.8966 35.8501 35.3463 35.6394 34.8359 35.3516L43.5469 28.5C43.815 29.4577 43.8418 30.4669 43.625 31.4375ZM44.6016 26.8906C44.5501 26.7851 44.4757 26.6925 44.3837 26.6195C44.2918 26.5465 44.1847 26.495 44.0703 26.4688C43.9568 26.4421 43.8388 26.4416 43.7251 26.4673C43.6114 26.4931 43.505 26.5443 43.4141 26.6172L33.0391 34.7812C32.9464 34.8534 32.8714 34.9459 32.82 35.0515C32.7685 35.1571 32.7419 35.2731 32.7422 35.3906C32.7395 35.5077 32.7643 35.6238 32.8144 35.7296C32.8646 35.8354 32.9389 35.928 33.0312 36C33.9328 36.7322 34.9917 37.2456 36.125 37.5C36.6711 37.6236 37.2292 37.6865 37.7891 37.6875C39.0637 37.6875 40.3177 37.3648 41.4339 36.7492C42.5501 36.1337 43.4922 35.2455 44.1724 34.1675C44.8526 33.0895 45.2487 31.8568 45.3238 30.5843C45.3988 29.3119 45.1503 28.0411 44.6016 26.8906ZM43.625 31.4375C43.5869 31.6371 43.532 31.8331 43.4609 32.0234L43.4375 32.0938C42.9879 33.3756 42.1179 34.4677 40.969 35.1925C39.8202 35.9173 38.4599 36.2321 37.1094 36.0859C37.1016 36.0859 36.6719 36.0234 36.4688 35.9766C35.8966 35.8501 35.3463 35.6394 34.8359 35.3516L43.5469 28.5C43.815 29.4577 43.8418 30.4669 43.625 31.4375ZM42.5312 24.2578C41.2004 23.1801 39.5429 22.5866 37.8305 22.5746C36.1181 22.5626 34.4524 23.1327 33.1066 24.1916C31.7607 25.2505 30.8146 26.7352 30.4233 28.4024C30.0321 30.0695 30.2189 31.8201 30.9531 33.3672C31.0046 33.4727 31.079 33.5653 31.171 33.6383C31.2629 33.7113 31.37 33.7628 31.4844 33.7891C31.5412 33.7981 31.5987 33.8034 31.6562 33.8047C31.8317 33.8066 32.0025 33.7487 32.1406 33.6406L42.5156 25.4766C42.6069 25.4039 42.6809 25.3119 42.7322 25.2071C42.7836 25.1024 42.811 24.9875 42.8125 24.8709C42.814 24.7542 42.7895 24.6387 42.7409 24.5327C42.6922 24.4267 42.6206 24.3328 42.5312 24.2578ZM32.0078 31.7578C31.7398 30.8001 31.713 29.7909 31.9297 28.8203C32.0975 28.0497 32.4176 27.3204 32.871 26.6751C33.3244 26.0298 33.9022 25.4816 34.5703 25.0625C35.5262 24.457 36.6341 24.1346 37.7656 24.1328C38.7997 24.1354 39.8161 24.4016 40.7188 24.9062L32.0078 31.7578ZM42.5312 24.2578C41.2004 23.1801 39.5429 22.5866 37.8305 22.5746C36.1181 22.5626 34.4524 23.1327 33.1066 24.1916C31.7607 25.2505 30.8146 26.7352 30.4233 28.4024C30.0321 30.0695 30.2189 31.8201 30.9531 33.3672C31.0046 33.4727 31.079 33.5653 31.171 33.6383C31.2629 33.7113 31.37 33.7628 31.4844 33.7891C31.5412 33.7981 31.5987 33.8034 31.6562 33.8047C31.8317 33.8066 32.0025 33.7487 32.1406 33.6406L42.5156 25.4766C42.6069 25.4039 42.6809 25.3119 42.7322 25.2071C42.7836 25.1024 42.811 24.9875 42.8125 24.8709C42.814 24.7542 42.7895 24.6387 42.7409 24.5327C42.6922 24.4267 42.6206 24.3328 42.5312 24.2578ZM32.0078 31.7578C31.7398 30.8001 31.713 29.7909 31.9297 28.8203C32.0975 28.0497 32.4176 27.3204 32.871 26.6751C33.3244 26.0298 33.9022 25.4816 34.5703 25.0625C35.5262 24.457 36.6341 24.1346 37.7656 24.1328C38.7997 24.1354 39.8161 24.4016 40.7188 24.9062L32.0078 31.7578ZM46.7031 24.4688C45.5819 22.6988 43.9597 21.3022 42.0428 20.4564C40.1258 19.6106 38.0007 19.3538 35.9375 19.7188V13.2812C35.9369 13.0742 35.8544 12.8759 35.708 12.7295C35.5616 12.5831 35.3633 12.5006 35.1562 12.5H27.3438V8.59375C27.3409 6.72981 26.5992 4.94302 25.2812 3.62501C23.9632 2.307 22.1764 1.56531 20.3125 1.5625H17.1875C15.3236 1.56531 13.5368 2.307 12.2188 3.62501C10.9008 4.94302 10.1591 6.72981 10.1562 8.59375V12.5H2.34375C2.13673 12.5006 1.93837 12.5831 1.79198 12.7295C1.6456 12.8759 1.5631 13.0742 1.5625 13.2812V44.5312C1.56287 45.5671 1.97454 46.5605 2.70703 47.293C3.43951 48.0255 4.43286 48.4371 5.46875 48.4375H32.0312C33.0671 48.4371 34.0605 48.0255 34.793 47.293C35.5255 46.5605 35.9371 45.5671 35.9375 44.5312V40.5234C37.9552 40.8833 40.0339 40.6481 41.9202 39.8466C43.8064 39.0451 45.4186 37.7119 46.5601 36.0097C47.7015 34.3075 48.3228 32.3098 48.3482 30.2605C48.3736 28.2112 47.802 26.1987 46.7031 24.4688ZM14.8438 8.59375C14.8456 7.97271 15.0931 7.37762 15.5322 6.93847C15.9714 6.49933 16.5665 6.25181 17.1875 6.25H20.3125C20.9335 6.25181 21.5286 6.49933 21.9678 6.93847C22.4069 7.37762 22.6544 7.97271 22.6562 8.59375V12.5H14.8438V8.59375ZM34.375 44.5312C34.3732 45.1523 34.1257 45.7474 33.6865 46.1865C33.2474 46.6257 32.6523 46.8732 32.0312 46.875H5.46875C4.84771 46.8732 4.25262 46.6257 3.81347 46.1865C3.37433 45.7474 3.12681 45.1523 3.125 44.5312V14.0625H34.375V20.1328C33.583 20.3997 32.8252 20.7589 32.1172 21.2031C30.4332 22.2703 29.0855 23.7922 28.2298 25.5929C27.3741 27.3937 27.0453 29.3997 27.2814 31.3794C27.5175 33.3591 28.3089 35.2315 29.5641 36.7805C30.8194 38.3294 32.4872 39.4916 34.375 40.1328V44.5312ZM46.5625 32.0938C46.173 33.8311 45.2774 35.4141 43.9886 36.6427C42.6999 37.8712 41.0759 38.6902 39.3219 38.9962C37.5679 39.3022 35.7626 39.0815 34.134 38.3618C32.5054 37.6422 31.1266 36.456 30.1719 34.9531C29.3101 33.592 28.8289 32.0249 28.7783 30.4147C28.7276 28.8045 29.1094 27.2102 29.8839 25.7976C30.6584 24.3851 31.7972 23.2059 33.182 22.3827C34.5668 21.5596 36.1469 21.1226 37.7578 21.1172C38.4251 21.12 39.0903 21.1933 39.7422 21.3359C40.8965 21.5942 41.9886 22.0774 42.9562 22.7579C43.9237 23.4384 44.7477 24.3029 45.381 25.3019C46.0144 26.3009 46.4447 27.4149 46.6475 28.5803C46.8502 29.7456 46.8213 30.9395 46.5625 32.0938ZM25.7812 33.5938C25.7792 34.9076 25.3045 36.1768 24.4438 37.1694C23.5832 38.1621 22.394 38.8118 21.0938 39V39.8438C21.0938 40.4654 20.8468 41.0615 20.4073 41.501C19.9677 41.9406 19.3716 42.1875 18.75 42.1875C18.1284 42.1875 17.5323 41.9406 17.0927 41.501C16.6532 41.0615 16.4062 40.4654 16.4062 39.8438V39.0625H14.8438C14.2221 39.0625 13.626 38.8156 13.1865 38.376C12.7469 37.9365 12.5 37.3404 12.5 36.7188C12.5 36.0971 12.7469 35.501 13.1865 35.0615C13.626 34.6219 14.2221 34.375 14.8438 34.375H20.3125C20.5197 34.375 20.7184 34.2927 20.8649 34.1462C21.0114 33.9997 21.0938 33.8009 21.0938 33.5938C21.0938 33.3865 21.0114 33.1878 20.8649 33.0413C20.7184 32.8948 20.5197 32.8125 20.3125 32.8125H17.1875C15.8052 32.8134 14.4739 32.2904 13.4618 31.349C12.4496 30.4076 11.8318 29.1176 11.7327 27.7388C11.6337 26.3601 12.0608 24.995 12.928 23.9185C13.7951 22.8421 15.038 22.1342 16.4062 21.9375V21.0938C16.4062 20.4721 16.6532 19.876 17.0927 19.4365C17.5323 18.9969 18.1284 18.75 18.75 18.75C19.3716 18.75 19.9677 18.9969 20.4073 19.4365C20.8468 19.876 21.0938 20.4721 21.0938 21.0938V21.875H22.6562C23.2779 21.875 23.874 22.1219 24.3135 22.5615C24.7531 23.001 25 23.5971 25 24.2188C25 24.8404 24.7531 25.4365 24.3135 25.876C23.874 26.3156 23.2779 26.5625 22.6562 26.5625H17.1875C16.9805 26.5631 16.7821 26.6456 16.6357 26.792C16.4894 26.9384 16.4068 27.1367 16.4062 27.3438C16.4052 27.4466 16.4247 27.5487 16.4636 27.644C16.5025 27.7392 16.56 27.8258 16.6327 27.8985C16.7055 27.9713 16.792 28.0288 16.8873 28.0677C16.9826 28.1065 17.0846 28.126 17.1875 28.125H20.3125C21.7624 28.1266 23.1525 28.7033 24.1777 29.7285C25.203 30.7538 25.7797 32.1438 25.7812 33.5938Z" fill="#FDEF9E"/>
</svg>
