<svg width="22" height="22" viewBox="0 0 22 22" fill="none" xmlns="http://www.w3.org/2000/svg">
<g clip-path="url(#clip0_1107_430)">
<path d="M2.44444 3.05566C1.79614 3.05566 1.17438 3.3132 0.715961 3.77163C0.257539 4.23005 0 4.8518 0 5.50011L0 16.5001C0 17.1484 0.257539 17.7702 0.715961 18.2286C1.17438 18.687 1.79614 18.9446 2.44444 18.9446H6.11111V3.05566H2.44444ZM19.5556 3.05566H15.8889V18.9446H19.5556C20.2039 18.9446 20.8256 18.687 21.284 18.2286C21.7425 17.7702 22 17.1484 22 16.5001V5.50011C22 4.8518 21.7425 4.23005 21.284 3.77163C20.8256 3.3132 20.2039 3.05566 19.5556 3.05566Z" fill="#D52B1E"/>
<path d="M6.11133 3.05566H15.8891V18.9446H6.11133V3.05566Z" fill="#EEEEEE"/>
<path d="M11.3758 13.5137C12.1079 13.5987 12.7643 13.6751 13.4958 13.7588L13.3094 13.1464C13.2957 13.0938 13.2976 13.0382 13.3148 12.9866C13.3321 12.9349 13.3639 12.8894 13.4066 12.8556L15.5326 11.1237L15.0926 10.9165C14.8989 10.8474 14.9521 10.7381 15.0223 10.4753L15.3468 9.29217L14.1118 9.55311C13.9914 9.57145 13.9113 9.49506 13.893 9.42173L13.7335 8.865L12.7569 9.96134C12.6182 10.1373 12.3371 10.1373 12.4245 9.73156L12.8419 7.51078L12.2815 7.80106C12.1244 7.88906 11.9674 7.90373 11.88 7.74667L11.1069 6.30078L10.3339 7.74667C10.2459 7.90373 10.0888 7.88906 9.93178 7.80106L9.372 7.51078L9.78939 9.73156C9.87739 10.1373 9.59566 10.1373 9.45694 9.96134L8.48039 8.86561L8.3215 9.42234C8.30316 9.49567 8.2225 9.57206 8.10211 9.55373L6.86705 9.29278L7.19155 10.4759C7.26061 10.7387 7.31439 10.8481 7.12066 10.9171L6.68066 11.1243L8.80672 12.8562C8.89105 12.9216 8.93383 13.0395 8.90328 13.1471L8.71689 13.7594L10.8374 13.5143C10.9022 13.5143 10.945 13.5504 10.9444 13.6249L10.8136 15.8885H11.3978L11.2677 13.6249C11.2689 13.5498 11.3111 13.5137 11.3758 13.5137Z" fill="#D52B1E"/>
</g>
<defs>
<clipPath id="clip0_1107_430">
<rect width="22" height="22" fill="white"/>
</clipPath>
</defs>
</svg>
