<svg width="41" height="41" viewBox="0 0 41 41" fill="none" xmlns="http://www.w3.org/2000/svg">
<path d="M14.25 23H16.75V26.75H14.25V23Z" fill="black"/>
<path d="M11.75 29.25H29.25V14.25H11.75V29.25ZM28 22.375V27.375C28 27.5408 27.9342 27.6997 27.8169 27.8169C27.6997 27.9342 27.5408 28 27.375 28H23.625C23.4592 28 23.3003 27.9342 23.1831 27.8169C23.0658 27.6997 23 27.5408 23 27.375V22.375C23 22.2092 23.0658 22.0503 23.1831 21.9331C23.3003 21.8158 23.4592 21.75 23.625 21.75H27.375C27.5408 21.75 27.6997 21.8158 27.8169 21.9331C27.9342 22.0503 28 22.2092 28 22.375ZM21.125 16.125C21.125 15.9592 21.1908 15.8003 21.3081 15.6831C21.4253 15.5658 21.5842 15.5 21.75 15.5H26.75C26.9158 15.5 27.0747 15.5658 27.1919 15.6831C27.3092 15.8003 27.375 15.9592 27.375 16.125V19.875C27.375 20.0408 27.3092 20.1997 27.1919 20.3169C27.0747 20.4342 26.9158 20.5 26.75 20.5H21.75C21.5842 20.5 21.4253 20.4342 21.3081 20.3169C21.1908 20.1997 21.125 20.0408 21.125 19.875V16.125ZM13.625 16.125C13.625 15.9592 13.6908 15.8003 13.8081 15.6831C13.9253 15.5658 14.0842 15.5 14.25 15.5H19.25C19.4158 15.5 19.5747 15.5658 19.6919 15.6831C19.8092 15.8003 19.875 15.9592 19.875 16.125V19.875C19.875 20.0408 19.8092 20.1997 19.6919 20.3169C19.5747 20.4342 19.4158 20.5 19.25 20.5H14.25C14.0842 20.5 13.9253 20.4342 13.8081 20.3169C13.6908 20.1997 13.625 20.0408 13.625 19.875V16.125ZM13 22.375C13 22.2092 13.0658 22.0503 13.1831 21.9331C13.3003 21.8158 13.4592 21.75 13.625 21.75H17.375C17.5408 21.75 17.6997 21.8158 17.8169 21.9331C17.9342 22.0503 18 22.2092 18 22.375V27.375C18 27.5408 17.9342 27.6997 17.8169 27.8169C17.6997 27.9342 17.5408 28 17.375 28H13.625C13.4592 28 13.3003 27.9342 13.1831 27.8169C13.0658 27.6997 13 27.5408 13 27.375V22.375Z" fill="black"/>
<path d="M25.5 11.75H26.75V12.9994H25.5V11.75Z" fill="black"/>
<path d="M21.75 11.75H11.75V13.0162C12.2713 13 13.005 13 14.055 13H21.75V11.75Z" fill="black"/>
<path d="M28 11.75H29.25V12.9994H28V11.75Z" fill="black"/>
<path d="M14.875 16.75H18.625V19.25H14.875V16.75Z" fill="black"/>
<path d="M24.25 23H26.75V26.75H24.25V23Z" fill="black"/>
<path d="M23 11.75H24.25V12.9994H23V11.75Z" fill="black"/>
<path d="M22.375 16.75H26.125V19.25H22.375V16.75Z" fill="black"/>
<path d="M9.25 6.75H7.63375L5.13375 4.25H8V1.75H1.75V8H4.25V5.13375L6.75 7.63375V9.25H7.375V9.875H8.625V9.25H9.25V8.625H9.875V7.375H9.25V6.75Z" fill="black"/>
<path d="M13.625 7.375H14.875V8.625H13.625V7.375Z" fill="black"/>
<path d="M23.625 7.375H24.875V8.625H23.625V7.375Z" fill="black"/>
<path d="M26.125 7.375H27.375V8.625H26.125V7.375Z" fill="black"/>
<path d="M28.625 7.375H29.875V8.625H28.625V7.375Z" fill="black"/>
<path d="M21.125 7.375H22.375V8.625H21.125V7.375Z" fill="black"/>
<path d="M11.125 7.375H12.375V8.625H11.125V7.375Z" fill="black"/>
<path d="M16.125 7.375H17.375V8.625H16.125V7.375Z" fill="black"/>
<path d="M18.625 7.375H19.875V8.625H18.625V7.375Z" fill="black"/>
<path d="M9.25 31.75H8.625V31.125H7.375V31.75H6.75V33.3662L4.25 35.8662V33H1.75V39.25H8V36.75H5.13375L7.63375 34.25H9.25V33.625H9.875V32.375H9.25V31.75Z" fill="black"/>
<path d="M18.625 32.375H19.875V33.625H18.625V32.375Z" fill="black"/>
<path d="M16.125 32.375H17.375V33.625H16.125V32.375Z" fill="black"/>
<path d="M13.625 32.375H14.875V33.625H13.625V32.375Z" fill="black"/>
<path d="M11.125 32.375H12.375V33.625H11.125V32.375Z" fill="black"/>
<path d="M21.125 32.375H22.375V33.625H21.125V32.375Z" fill="black"/>
<path d="M28.625 32.375H29.875V33.625H28.625V32.375Z" fill="black"/>
<path d="M26.125 32.375H27.375V33.625H26.125V32.375Z" fill="black"/>
<path d="M23.625 32.375H24.875V33.625H23.625V32.375Z" fill="black"/>
<path d="M32.375 13.625H33.625V14.875H32.375V13.625Z" fill="black"/>
<path d="M32.375 21.125H33.625V22.375H32.375V21.125Z" fill="black"/>
<path d="M32.375 23.625H33.625V24.875H32.375V23.625Z" fill="black"/>
<path d="M32.375 18.625H33.625V19.875H32.375V18.625Z" fill="black"/>
<path d="M32.375 28.625H33.625V29.875H32.375V28.625Z" fill="black"/>
<path d="M32.375 26.125H33.625V27.375H32.375V26.125Z" fill="black"/>
<path d="M32.375 11.125H33.625V12.375H32.375V11.125Z" fill="black"/>
<path d="M32.375 16.125H33.625V17.375H32.375V16.125Z" fill="black"/>
<path d="M7.375 23.625H8.625V24.875H7.375V23.625Z" fill="black"/>
<path d="M7.375 21.125H8.625V22.375H7.375V21.125Z" fill="black"/>
<path d="M7.375 13.625H8.625V14.875H7.375V13.625Z" fill="black"/>
<path d="M7.375 18.625H8.625V19.875H7.375V18.625Z" fill="black"/>
<path d="M7.375 26.125H8.625V27.375H7.375V26.125Z" fill="black"/>
<path d="M7.375 28.625H8.625V29.875H7.375V28.625Z" fill="black"/>
<path d="M7.375 11.125H8.625V12.375H7.375V11.125Z" fill="black"/>
<path d="M7.375 16.125H8.625V17.375H7.375V16.125Z" fill="black"/>
<path d="M33 1.75V4.25H35.8662L33.3662 6.75H31.75V7.375H31.125V8.625H31.75V9.25H32.375V9.875H33.625V9.25H34.25V7.63375L36.75 5.13375V8H39.25V1.75H33Z" fill="black"/>
<path d="M36.75 35.8662L34.25 33.3662V31.75H33.625V31.125H32.375V31.75H31.75V32.375H31.125V33.625H31.75V34.25H33.3662L35.8662 36.75H33V39.25H39.25V33H36.75V35.8662Z" fill="black"/>
</svg>
