<svg width="41" height="41" viewBox="0 0 41 41" fill="none" xmlns="http://www.w3.org/2000/svg">
<g clip-path="url(#clip0_2950_3334)">
<path d="M40.5001 24.308V12.4936C40.5001 11.66 40.1689 10.8606 39.5795 10.2712C38.9901 9.68176 38.1907 9.35063 37.3571 9.35063C36.5235 9.35063 35.7241 9.68176 35.1347 10.2712C34.5452 10.8606 34.2141 11.66 34.2141 12.4936V17.6889C34.0033 17.6456 33.7887 17.6238 33.5735 17.6238C33.1607 17.6223 32.7518 17.7027 32.3703 17.8603C31.9888 18.0179 31.6424 18.2496 31.3511 18.542L25.8301 24.0633C25.5654 24.3236 25.3558 24.6344 25.2138 24.9774C25.0717 25.3203 25.0001 25.6883 25.0032 26.0595V30.1355H24.4063C24.0748 30.1355 23.7568 30.2672 23.5224 30.5017C23.288 30.7361 23.1563 31.054 23.1563 31.3855V38.2188C23.1563 38.5503 23.288 38.8682 23.5224 39.1026C23.7568 39.3371 24.0748 39.4688 24.4063 39.4688H37.334C37.6656 39.4688 37.9835 39.3371 38.2179 39.1026C38.4523 38.8682 38.584 38.5503 38.584 38.2188V31.3855C38.584 31.054 38.4523 30.7361 38.2179 30.5017C37.9835 30.2672 37.6656 30.1355 37.334 30.1355H37.0059L39.9796 25.9409C40.3213 25.4653 40.5035 24.8937 40.5001 24.308ZM36.084 36.9688H25.6563V32.6355H36.084V36.9688ZM38.0001 24.308C38.0043 24.3756 37.9831 24.4423 37.9405 24.495L33.9419 30.1356H27.5032V26.0595C27.5002 26.0167 27.5072 25.9738 27.5236 25.9342C27.54 25.8945 27.5654 25.8592 27.5978 25.831L33.1188 20.3101C33.2394 20.1895 33.4029 20.1218 33.5735 20.1218C33.744 20.1218 33.9075 20.1895 34.0281 20.3101C34.1487 20.4307 34.2164 20.5942 34.2164 20.7647C34.2164 20.9353 34.1487 21.0988 34.0281 21.2194L31.0062 24.2413C30.7742 24.4762 30.6445 24.7933 30.6455 25.1235C30.6465 25.4538 30.7781 25.7701 31.0116 26.0036C31.2451 26.2371 31.5615 26.3687 31.8917 26.3697C32.2219 26.3708 32.5391 26.2411 32.774 26.009L35.7958 22.9872C36.0883 22.6959 36.32 22.3494 36.4776 21.968C36.6353 21.5865 36.7157 21.1775 36.7142 20.7648C36.7142 20.7498 36.7133 20.7349 36.7131 20.72C36.7131 20.7133 36.7141 20.7068 36.7141 20.7001V12.4936C36.7141 12.3231 36.7819 12.1595 36.9024 12.0389C37.023 11.9184 37.1866 11.8506 37.3571 11.8506C37.5276 11.8506 37.6912 11.9184 37.8117 12.0389C37.9323 12.1595 38.0001 12.3231 38.0001 12.4936V24.308ZM3.9938 30.1355H3.66607C3.33455 30.1355 3.0166 30.2672 2.78218 30.5017C2.54776 30.7361 2.41607 31.054 2.41607 31.3855V38.2188C2.41607 38.5503 2.54776 38.8682 2.78218 39.1026C3.0166 39.3371 3.33455 39.4688 3.66607 39.4688H16.5938C16.9253 39.4688 17.2433 39.3371 17.4777 39.1026C17.7121 38.8682 17.8438 38.5503 17.8438 38.2188V31.3855C17.8438 31.054 17.7121 30.7361 17.4777 30.5017C17.2433 30.2672 16.9253 30.1355 16.5938 30.1355H15.9969V26.0595C16 25.6883 15.9284 25.3203 15.7863 24.9774C15.6443 24.6344 15.4347 24.3236 15.1701 24.0633L9.64904 18.5423C9.35771 18.2499 9.01128 18.0182 8.6298 17.8605C8.24832 17.7029 7.83937 17.6226 7.42661 17.6241C7.21142 17.6241 6.99679 17.6459 6.78599 17.6891V12.4938C6.78599 11.6603 6.45486 10.8608 5.86543 10.2714C5.27601 9.68199 4.47659 9.35086 3.64302 9.35086C2.80945 9.35086 2.01003 9.68199 1.42061 10.2714C0.831185 10.8608 0.500052 11.6603 0.500052 12.4938V24.308C0.496461 24.8936 0.678507 25.4652 1.02005 25.9409L3.9938 30.1355ZM15.3438 36.9688H4.91607V32.6355H15.3438V36.9688ZM3.00005 12.4936C3.00005 12.3231 3.06779 12.1595 3.18837 12.0389C3.30895 11.9184 3.4725 11.8506 3.64302 11.8506C3.81355 11.8506 3.97709 11.9184 4.09767 12.0389C4.21825 12.1595 4.28599 12.3231 4.28599 12.4936V20.7001C4.28599 20.7068 4.28693 20.7133 4.28701 20.72C4.28701 20.7349 4.28591 20.7498 4.28591 20.7648C4.28443 21.1775 4.36483 21.5865 4.52247 21.9679C4.6801 22.3494 4.91184 22.6958 5.20427 22.9871L8.22615 26.009C8.34196 26.1262 8.47981 26.2194 8.63177 26.2831C8.78373 26.3469 8.94679 26.38 9.11158 26.3805C9.27637 26.381 9.43964 26.3489 9.59198 26.2861C9.74432 26.2232 9.88274 26.1309 9.99926 26.0144C10.1158 25.8978 10.2081 25.7594 10.271 25.6071C10.3338 25.4547 10.3659 25.2915 10.3654 25.1267C10.3649 24.9619 10.3318 24.7988 10.268 24.6469C10.2043 24.4949 10.1111 24.3571 9.99388 24.2413L6.97201 21.2193C6.85143 21.0987 6.78368 20.9352 6.78368 20.7647C6.78368 20.5941 6.85143 20.4306 6.97201 20.31C7.09259 20.1894 7.25613 20.1217 7.42665 20.1217C7.59718 20.1217 7.76072 20.1894 7.8813 20.31L13.4023 25.831C13.4347 25.8592 13.4601 25.8945 13.4765 25.9342C13.4929 25.9738 13.4999 26.0167 13.4969 26.0595V30.1355H7.05818L3.05951 24.4949C3.01699 24.4423 2.99577 24.3756 3.00005 24.308V12.4936ZM17.7295 6.35297C17.7385 5.50453 17.3495 4.86031 16.5733 4.43828C15.5122 3.86148 14.0552 3.89844 13.1086 4.52617C12.3594 5.02242 12.0339 5.82242 12.1407 6.90352C12.1568 7.06688 12.1406 7.23181 12.0929 7.38891C12.0453 7.546 11.9672 7.69217 11.8631 7.81907C11.7589 7.94598 11.6308 8.05113 11.4861 8.12853C11.3413 8.20592 11.1827 8.25405 11.0194 8.27016C10.856 8.28626 10.6911 8.27004 10.534 8.2224C10.3769 8.17477 10.2307 8.09666 10.1038 7.99253C9.97689 7.88841 9.87174 7.76031 9.79434 7.61554C9.71694 7.47078 9.66882 7.31219 9.65271 7.14883C9.45372 5.13281 10.1904 3.46094 11.7266 2.44227C13.4268 1.31484 15.9107 1.23234 17.767 2.24148C19.3506 3.10234 20.248 4.61047 20.2292 6.37914C20.2004 9.07898 17.4312 11.4828 14.8718 13.3202H18.8058C19.1373 13.3202 19.4552 13.4519 19.6896 13.6864C19.9241 13.9208 20.0558 14.2387 20.0558 14.5702C20.0558 14.9018 19.9241 15.2197 19.6896 15.4541C19.4552 15.6885 19.1373 15.8202 18.8058 15.8202H10.8805C10.6187 15.8203 10.3635 15.7381 10.1509 15.5853C9.9383 15.4326 9.77903 15.2169 9.69556 14.9687C9.6121 14.7206 9.60865 14.4525 9.68571 14.2023C9.76277 13.9521 9.91644 13.7324 10.1251 13.5742C10.5347 13.2635 11.0587 12.9087 11.6655 12.4978C13.7772 11.0679 17.7076 8.40625 17.7295 6.35258V6.35297ZM28.8793 14.5703V10.8478H23.284C22.9543 10.8478 22.6379 10.7175 22.4038 10.4853C22.1696 10.2531 22.0367 9.93779 22.034 9.60805L21.9779 2.79156C21.9766 2.62741 22.0076 2.46459 22.0691 2.31242C22.1307 2.16024 22.2216 2.02168 22.3368 1.90465C22.4519 1.78761 22.5889 1.6944 22.7401 1.63034C22.8912 1.56627 23.0535 1.5326 23.2176 1.53125H23.2282C23.5579 1.53124 23.8743 1.66152 24.1084 1.89371C24.3426 2.12591 24.4755 2.44121 24.4782 2.77094L24.5241 8.34781H28.8796V2.78125C28.8796 2.44973 29.0113 2.13179 29.2457 1.89737C29.4801 1.66295 29.7981 1.53125 30.1296 1.53125C30.4611 1.53125 30.779 1.66295 31.0135 1.89737C31.2479 2.13179 31.3796 2.44973 31.3796 2.78125V14.5703C31.3796 14.9018 31.2479 15.2198 31.0135 15.4542C30.779 15.6886 30.4611 15.8203 30.1296 15.8203C29.7981 15.8203 29.4801 15.6886 29.2457 15.4542C29.0113 15.2198 28.8796 14.9018 28.8796 14.5703H28.8793Z" fill="black"/>
</g>
<defs>
<clipPath id="clip0_2950_3334">
<rect width="40" height="40" fill="white" transform="translate(0.5 0.5)"/>
</clipPath>
</defs>
</svg>
