<svg width="41" height="43" viewBox="0 0 41 43" fill="none" xmlns="http://www.w3.org/2000/svg">
<path d="M26.2109 35.6501C25.7474 35.6501 25.2942 35.5127 24.9088 35.2552C24.5234 34.9976 24.223 34.6316 24.0456 34.2033C23.8682 33.775 23.8218 33.3038 23.9122 32.8492C24.0027 32.3945 24.2259 31.9769 24.5537 31.6491C24.8814 31.3213 25.2991 31.0981 25.7537 31.0077C26.2083 30.9172 26.6796 30.9637 27.1079 31.1411C27.5361 31.3184 27.9022 31.6189 28.1597 32.0043C28.4172 32.3897 28.5547 32.8428 28.5547 33.3064C28.5547 33.928 28.3078 34.5241 27.8682 34.9637C27.4287 35.4032 26.8325 35.6501 26.2109 35.6501ZM26.2109 32.5251C26.0564 32.5251 25.9054 32.571 25.7769 32.6568C25.6484 32.7427 25.5483 32.8647 25.4892 33.0074C25.43 33.1502 25.4146 33.3073 25.4447 33.4588C25.4748 33.6104 25.5493 33.7496 25.6585 33.8588C25.7678 33.9681 25.907 34.0425 26.0585 34.0726C26.2101 34.1028 26.3672 34.0873 26.5099 34.0282C26.6527 33.969 26.7747 33.8689 26.8605 33.7404C26.9464 33.612 26.9922 33.4609 26.9922 33.3064C26.9922 33.0992 26.9099 32.9005 26.7634 32.754C26.6169 32.6075 26.4181 32.5251 26.2109 32.5251Z" fill="black"/>
<path d="M31.2757 7.67191C30.2725 5.32352 28.5282 3.36806 26.3091 2.1042C24.0901 0.840342 21.5184 0.337569 18.9868 0.672673C16.4552 1.00778 14.1028 2.16234 12.289 3.96001C10.4753 5.75768 9.29978 8.09963 8.94211 10.6282C7.97149 10.4249 6.96955 10.4221 5.99782 10.62C5.02608 10.8179 4.10503 11.2123 3.29121 11.779C2.47739 12.3457 1.78797 13.0727 1.26525 13.9154C0.742535 14.7582 0.397556 15.6989 0.251488 16.6797C0.12902 17.6194 0.194189 18.5741 0.443223 19.4885C0.692257 20.4028 1.12021 21.2587 1.70229 22.0065C2.28438 22.7544 3.00903 23.3793 3.8343 23.8451C4.65957 24.3109 5.56905 24.6084 6.51008 24.7204V33.6625C6.50592 34.2433 6.73221 34.802 7.13934 35.2162C7.54647 35.6303 8.10122 35.8661 8.68196 35.8719H21.0859L19.4062 38.8657C19.3088 39.0256 19.2585 39.2098 19.2611 39.397C19.2638 39.5842 19.3192 39.7669 19.4211 39.924C19.5229 40.0811 19.6671 40.2063 19.8369 40.2851C20.0068 40.364 20.1954 40.3932 20.3812 40.3696L22.1156 40.1141L22.778 41.8125C22.8483 41.9891 22.9682 42.1415 23.1231 42.2516C23.278 42.3616 23.4614 42.4246 23.6512 42.4328C23.8411 42.4411 24.0292 42.3943 24.1931 42.2981C24.357 42.2019 24.4896 42.0604 24.5749 41.8907L26.2156 38.9579L27.8562 41.8907C27.9419 42.0603 28.0749 42.2015 28.2391 42.2973C28.4032 42.3931 28.5915 42.4394 28.7814 42.4306C28.9713 42.4219 29.1545 42.3584 29.3092 42.248C29.4638 42.1375 29.5832 41.9846 29.653 41.8078L30.3124 40.1133L32.0452 40.3688C32.2311 40.3929 32.4201 40.364 32.5902 40.2853C32.7604 40.2067 32.9048 40.0815 33.0069 39.9242C33.1089 39.7669 33.1644 39.584 33.1669 39.3966C33.1694 39.2091 33.1188 39.0248 33.021 38.8649L31.3421 35.875H32.3179C32.8986 35.8693 33.4534 35.6334 33.8605 35.2193C34.2676 34.8051 34.4939 34.2464 34.4898 33.6657V24.4094C36.0619 23.9843 37.4806 23.1205 38.58 21.919C39.6794 20.7175 40.4142 19.2279 40.6984 17.6243C41.5155 12.6024 37.8335 7.46254 31.2757 7.67191ZM26.2116 36.7805C25.5245 36.7805 24.8528 36.5767 24.2815 36.195C23.7101 35.8132 23.2648 35.2706 23.0019 34.6358C22.7389 34.001 22.6701 33.3024 22.8042 32.6285C22.9382 31.9546 23.2691 31.3355 23.755 30.8496C24.2409 30.3638 24.8599 30.0329 25.5339 29.8988C26.2078 29.7648 26.9063 29.8336 27.5412 30.0965C28.176 30.3595 28.7186 30.8048 29.1003 31.3761C29.4821 31.9474 29.6859 32.6192 29.6859 33.3063C29.6848 34.2274 29.3185 35.1105 28.6671 35.7618C28.0158 36.4131 27.1327 36.7795 26.2116 36.7805ZM23.7898 40.0922C23.0866 38.2899 23.1757 38.3797 21.3226 38.6524L22.4499 36.6399C23.0941 37.3682 23.9352 37.8946 24.8718 38.1555L23.7898 40.0922ZM28.6398 40.0922L27.5562 38.1555C28.495 37.8947 29.3379 37.3672 29.9827 36.6368L31.1085 38.6532C29.207 38.375 29.3218 38.3282 28.6366 40.0938L28.6398 40.0922ZM32.321 34.311H31.1491C31.2977 33.5794 31.2818 32.824 31.1027 32.0994C30.9235 31.3748 30.5855 30.699 30.1131 30.121C29.6407 29.5431 29.0457 29.0773 28.3713 28.7575C27.6968 28.4377 26.9597 28.2717 26.2132 28.2717C25.4667 28.2717 24.7296 28.4377 24.0551 28.7575C23.3807 29.0773 22.7857 29.5431 22.3133 30.121C21.841 30.699 21.5029 31.3748 21.3238 32.0994C21.1446 32.824 21.1287 33.5794 21.2773 34.311H8.68196C8.51548 34.3057 8.35789 34.2346 8.24368 34.1134C8.12947 33.9921 8.06795 33.8306 8.07258 33.6641V17.961C8.06816 17.7946 8.12978 17.6333 8.24397 17.5122C8.35815 17.3911 8.51562 17.3202 8.68196 17.3149H26.9843V20.3407C26.9849 20.7371 27.1427 21.117 27.423 21.3973C27.7032 21.6776 28.0832 21.8354 28.4796 21.836H32.9327V33.6625C32.9354 33.7457 32.9216 33.8285 32.8921 33.9063C32.8626 33.9841 32.818 34.0553 32.7608 34.1157C32.7037 34.1762 32.6351 34.2247 32.5591 34.2585C32.483 34.2922 32.4011 34.3106 32.3179 34.3125L32.321 34.311ZM28.5468 17.8477L31.7663 20.2696H28.5468V17.8477ZM39.1577 17.3743C38.9367 18.6093 38.3867 19.7619 37.5656 20.7106C36.7445 21.6593 35.6827 22.369 34.4921 22.7649V21.4766C34.4914 21.1329 34.4112 20.794 34.258 20.4864C34.1047 20.1788 33.8824 19.9107 33.6085 19.7032L28.921 16.1821C28.5487 15.9027 28.0959 15.7511 27.6304 15.75H8.68196C8.10129 15.7556 7.54654 15.9913 7.13939 16.4053C6.73223 16.8193 6.50592 17.378 6.51008 17.9586V23.1407C5.06398 22.921 3.76135 22.1439 2.88102 20.9758C2.0007 19.8076 1.61264 18.3413 1.79993 16.8907C1.92258 16.124 2.19917 15.3902 2.61305 14.7333C3.02692 14.0764 3.5695 13.5101 4.20809 13.0685C4.84668 12.627 5.56806 12.3193 6.32876 12.164C7.08946 12.0087 7.87373 12.009 8.6343 12.1649C8.84415 12.2099 9.06106 12.2108 9.27128 12.1676C9.4815 12.1243 9.68046 12.0379 9.85555 11.9138C10.0306 11.7897 10.178 11.6306 10.2884 11.4465C10.3988 11.2625 10.4698 11.0575 10.4968 10.8446C10.8071 8.65616 11.8247 6.62933 13.3944 5.07329C14.9642 3.51724 16.9999 2.51742 19.1909 2.22635C21.382 1.93529 23.6081 2.36896 25.5296 3.46121C27.4512 4.55346 28.9627 6.24432 29.8335 8.27582C29.9645 8.58729 30.191 8.8491 30.4804 9.0235C30.7698 9.1979 31.1071 9.27586 31.4437 9.24613C32.52 9.13709 33.607 9.2761 34.6212 9.65248C35.6354 10.0289 36.5499 10.6326 37.2945 11.4174C38.0391 12.2022 38.594 13.1472 38.9165 14.1798C39.2391 15.2124 39.3208 16.3052 39.1554 17.3743H39.1577Z" fill="black"/>
<path d="M17.375 21.5H11.125C10.9178 21.5 10.7191 21.4177 10.5726 21.2712C10.4261 21.1247 10.3438 20.926 10.3438 20.7188C10.3438 20.5115 10.4261 20.3128 10.5726 20.1663C10.7191 20.0198 10.9178 19.9375 11.125 19.9375H17.375C17.5822 19.9375 17.7809 20.0198 17.9274 20.1663C18.0739 20.3128 18.1562 20.5115 18.1562 20.7188C18.1562 20.926 18.0739 21.1247 17.9274 21.2712C17.7809 21.4177 17.5822 21.5 17.375 21.5Z" fill="black"/>
<path d="M25.1875 24.625H11.125C10.9178 24.625 10.7191 24.5427 10.5726 24.3962C10.4261 24.2497 10.3438 24.051 10.3438 23.8438C10.3438 23.6365 10.4261 23.4378 10.5726 23.2913C10.7191 23.1448 10.9178 23.0625 11.125 23.0625H25.1875C25.3947 23.0625 25.5934 23.1448 25.7399 23.2913C25.8864 23.4378 25.9688 23.6365 25.9688 23.8438C25.9688 24.051 25.8864 24.2497 25.7399 24.3962C25.5934 24.5427 25.3947 24.625 25.1875 24.625Z" fill="black"/>
<path d="M25.1875 27.75H11.125C10.9178 27.75 10.7191 27.6677 10.5726 27.5212C10.4261 27.3747 10.3438 27.176 10.3438 26.9688C10.3438 26.7615 10.4261 26.5628 10.5726 26.4163C10.7191 26.2698 10.9178 26.1875 11.125 26.1875H25.1875C25.3947 26.1875 25.5934 26.2698 25.7399 26.4163C25.8864 26.5628 25.9688 26.7615 25.9688 26.9688C25.9688 27.176 25.8864 27.3747 25.7399 27.5212C25.5934 27.6677 25.3947 27.75 25.1875 27.75Z" fill="black"/>
</svg>
