<svg width="41" height="41" viewBox="0 0 41 41" fill="none" xmlns="http://www.w3.org/2000/svg">
<g clip-path="url(#clip0_2950_3326)">
<path d="M20.5007 40.5C20.3487 40.5 20.1961 40.4719 20.0521 40.417L17.203 39.3208C8.01359 35.7869 1.83984 26.7976 1.83984 16.9526V7.10763C1.83984 6.41675 2.39959 5.85763 3.08984 5.85763C5.35422 5.85763 7.19684 4.01437 7.19684 1.75C7.19684 1.05913 7.75659 0.5 8.44684 0.5H32.5546C33.2448 0.5 33.8046 1.05913 33.8046 1.75C33.8046 4.01437 35.6472 5.85763 37.9116 5.85763C38.6018 5.85763 39.1616 6.41675 39.1616 7.10763V16.9526C39.1616 26.7976 32.9878 35.7869 23.7985 39.3208L20.9493 40.417C20.8053 40.4719 20.6527 40.5 20.5007 40.5ZM4.33984 8.23925V16.9526C4.33984 25.7698 9.86959 33.8215 18.1002 36.9867L20.5007 37.9109L22.9012 36.9867C31.1318 33.8215 36.6616 25.7698 36.6616 16.9526V8.23925C34.0187 7.7315 31.9313 5.64288 31.423 3H9.57847C9.07009 5.64288 6.98259 7.7315 4.33984 8.23925Z" fill="black"/>
<path d="M24.25 29.7748C23.5597 29.7748 23 29.2156 23 28.5248V20.7953L20.5 15.7953L18 20.7953V28.5248C18 29.2156 17.4403 29.7748 16.75 29.7748C16.0597 29.7748 15.5 29.2156 15.5 28.5248V20.4999C15.5 20.3058 15.5451 20.1141 15.6319 19.9408L19.3819 12.4408C19.8055 11.5936 21.1946 11.5936 21.6182 12.4408L25.3682 19.9408C25.4549 20.1141 25.5001 20.3058 25.5001 20.4999V28.5248C25.5001 29.2156 24.9403 29.7748 24.25 29.7748Z" fill="black"/>
<path d="M23 21.75H18C17.3097 21.75 16.75 21.1909 16.75 20.5C16.75 19.8091 17.3097 19.25 18 19.25H23C23.6902 19.25 24.25 19.8091 24.25 20.5C24.25 21.1909 23.6902 21.75 23 21.75Z" fill="black"/>
<path d="M20.5 30.5C14.297 30.5 9.25 25.4536 9.25 19.25C9.25 13.0464 14.297 8 20.5 8C26.703 8 31.75 13.0464 31.75 19.25C31.75 25.4536 26.703 30.5 20.5 30.5ZM20.5 10.5C15.6751 10.5 11.75 14.4257 11.75 19.25C11.75 24.0742 15.6751 28 20.5 28C25.3249 28 29.25 24.0742 29.25 19.25C29.25 14.4257 25.3249 10.5 20.5 10.5Z" fill="black"/>
</g>
<defs>
<clipPath id="clip0_2950_3326">
<rect width="40" height="40" fill="white" transform="translate(0.5 0.5)"/>
</clipPath>
</defs>
</svg>
