<svg width="54" height="54" viewBox="0 0 54 54" fill="none" xmlns="http://www.w3.org/2000/svg">
<rect width="54" height="54" rx="27" fill="#FFC649"/>
<path d="M35.7671 32.4687H40.2241C40.3531 32.8336 40.607 33.1411 40.9408 33.3369C41.2746 33.5328 41.6669 33.6043 42.0484 33.5388C42.4298 33.4734 42.7758 33.2752 43.0253 32.9793C43.2747 32.6834 43.4116 32.3088 43.4116 31.9218C43.4116 31.5348 43.2747 31.1602 43.0253 30.8644C42.7758 30.5685 42.4298 30.3703 42.0484 30.3048C41.6669 30.2394 41.2746 30.3109 40.9408 30.5067C40.607 30.7025 40.3531 31.0101 40.2241 31.3749H35.7671C35.7616 31.3749 35.7562 31.3804 35.7507 31.3804V30.2812H36.2976C38.1831 30.2812 39.9914 29.5322 41.3247 28.1989C42.6579 26.8656 43.407 25.0573 43.407 23.1718C43.407 21.2863 42.6579 19.478 41.3247 18.1447C39.9914 16.8115 38.1831 16.0624 36.2976 16.0624C35.9129 16.0631 35.5289 16.0942 35.1491 16.1554C34.5078 14.5164 33.3872 13.1089 31.9335 12.1167C30.4798 11.1245 28.7607 10.5937 27.0007 10.5938C25.2407 10.5937 23.5216 11.1245 22.0679 12.1167C20.6143 13.1089 19.4936 14.5164 18.8523 16.1554C18.4725 16.0942 18.0885 16.0631 17.7038 16.0624C15.8183 16.0624 14.01 16.8115 12.6767 18.1447C11.3435 19.478 10.5945 21.2863 10.5945 23.1718C10.5945 25.0573 11.3435 26.8656 12.6767 28.1989C14.01 29.5322 15.8183 30.2812 17.7038 30.2812H18.2507V31.3804C18.2452 31.3804 18.2398 31.3749 18.2343 31.3749H13.7773C13.6483 31.0101 13.3944 30.7025 13.0606 30.5067C12.7268 30.3109 12.3345 30.2394 11.953 30.3048C11.5716 30.3703 11.2256 30.5685 10.9761 30.8644C10.7267 31.1602 10.5898 31.5348 10.5898 31.9218C10.5898 32.3088 10.7267 32.6834 10.9761 32.9793C11.2256 33.2752 11.5716 33.4734 11.953 33.5388C12.3345 33.6043 12.7268 33.5328 13.0606 33.3369C13.3944 33.1411 13.6483 32.8336 13.7773 32.4687H18.2343C18.2398 32.4687 18.2452 32.4632 18.2507 32.4632V35.7554C18.2452 35.7554 18.2398 35.7499 18.2343 35.7499H15.9648C15.8358 35.3851 15.5819 35.0775 15.2481 34.8817C14.9143 34.6859 14.522 34.6144 14.1405 34.6798C13.7591 34.7453 13.4131 34.9435 13.1636 35.2394C12.9142 35.5352 12.7773 35.9098 12.7773 36.2968C12.7773 36.6838 12.9142 37.0584 13.1636 37.3543C13.4131 37.6502 13.7591 37.8484 14.1405 37.9138C14.522 37.9793 14.9143 37.9078 15.2481 37.7119C15.5819 37.5161 15.8358 37.2086 15.9648 36.8437H18.2343C18.2398 36.8437 18.2452 36.8382 18.2507 36.8382V40.1304C18.2452 40.1304 18.2398 40.1249 18.2343 40.1249H13.7773C13.6483 39.7601 13.3944 39.4525 13.0606 39.2567C12.7268 39.0609 12.3345 38.9894 11.953 39.0548C11.5716 39.1203 11.2256 39.3185 10.9761 39.6144C10.7267 39.9102 10.5898 40.2848 10.5898 40.6718C10.5898 41.0588 10.7267 41.4334 10.9761 41.7293C11.2256 42.0252 11.5716 42.2234 11.953 42.2888C12.3345 42.3543 12.7268 42.2828 13.0606 42.0869C13.3944 41.8911 13.6483 41.5836 13.7773 41.2187H18.2343C18.2585 41.2158 18.2824 41.2103 18.3054 41.2023C18.4281 41.8229 18.7623 42.3818 19.2509 42.7837C19.7395 43.1856 20.3524 43.4056 20.9851 43.4062H33.0163C33.649 43.4056 34.2619 43.1856 34.7505 42.7837C35.2391 42.3818 35.5733 41.8229 35.696 41.2023C35.719 41.2103 35.7429 41.2158 35.7671 41.2187H40.2241C40.3531 41.5836 40.607 41.8911 40.9408 42.0869C41.2746 42.2828 41.6669 42.3543 42.0484 42.2888C42.4298 42.2234 42.7758 42.0252 43.0253 41.7293C43.2747 41.4334 43.4116 41.0588 43.4116 40.6718C43.4116 40.2848 43.2747 39.9102 43.0253 39.6144C42.7758 39.3185 42.4298 39.1203 42.0484 39.0548C41.6669 38.9894 41.2746 39.0609 40.9408 39.2567C40.607 39.4525 40.3531 39.7601 40.2241 40.1249H35.7671C35.7616 40.1249 35.7562 40.1304 35.7507 40.1304V36.8382C35.7562 36.8382 35.7616 36.8437 35.7671 36.8437H38.0366C38.1656 37.2086 38.4195 37.5161 38.7533 37.7119C39.0871 37.9078 39.4794 37.9793 39.8609 37.9138C40.2423 37.8484 40.5883 37.6502 40.8378 37.3543C41.0872 37.0584 41.2241 36.6838 41.2241 36.2968C41.2241 35.9098 41.0872 35.5352 40.8378 35.2394C40.5883 34.9435 40.2423 34.7453 39.8609 34.6798C39.4794 34.6144 39.0871 34.6859 38.7533 34.8817C38.4195 35.0775 38.1656 35.3851 38.0366 35.7499H35.7671C35.7616 35.7499 35.7562 35.7554 35.7507 35.7554V32.4632C35.7562 32.4632 35.7616 32.4687 35.7671 32.4687ZM41.7663 31.3749C41.8745 31.3749 41.9802 31.407 42.0702 31.4671C42.1601 31.5272 42.2302 31.6126 42.2716 31.7125C42.313 31.8125 42.3238 31.9224 42.3027 32.0285C42.2816 32.1346 42.2295 32.232 42.153 32.3085C42.0765 32.385 41.9791 32.4371 41.873 32.4582C41.7669 32.4793 41.657 32.4685 41.557 32.4271C41.4571 32.3857 41.3717 32.3156 41.3116 32.2256C41.2515 32.1357 41.2195 32.03 41.2195 31.9218C41.2195 31.7768 41.2771 31.6377 41.3796 31.5351C41.4822 31.4326 41.6213 31.3749 41.7663 31.3749ZM12.2351 32.4687C12.1269 32.4687 12.0212 32.4366 11.9312 32.3765C11.8413 32.3164 11.7712 32.231 11.7298 32.1311C11.6884 32.0312 11.6776 31.9212 11.6987 31.8151C11.7198 31.709 11.7719 31.6116 11.8484 31.5351C11.9249 31.4586 12.0223 31.4066 12.1284 31.3855C12.2345 31.3644 12.3444 31.3752 12.4444 31.4166C12.5443 31.458 12.6297 31.5281 12.6898 31.618C12.7499 31.7079 12.782 31.8137 12.782 31.9218C12.782 32.0669 12.7243 32.206 12.6218 32.3085C12.5192 32.4111 12.3801 32.4687 12.2351 32.4687ZM14.4226 36.8437C14.3144 36.8437 14.2087 36.8116 14.1187 36.7515C14.0288 36.6914 13.9587 36.606 13.9173 36.5061C13.8759 36.4062 13.8651 36.2962 13.8862 36.1901C13.9073 36.084 13.9594 35.9866 14.0359 35.9101C14.1124 35.8336 14.2098 35.7816 14.3159 35.7605C14.422 35.7394 14.5319 35.7502 14.6319 35.7916C14.7318 35.833 14.8172 35.9031 14.8773 35.993C14.9374 36.0829 14.9695 36.1887 14.9695 36.2968C14.9695 36.4419 14.9118 36.581 14.8093 36.6835C14.7067 36.7861 14.5676 36.8437 14.4226 36.8437ZM12.2351 41.2187C12.1269 41.2187 12.0212 41.1866 11.9312 41.1265C11.8413 41.0664 11.7712 40.981 11.7298 40.8811C11.6884 40.7812 11.6776 40.6712 11.6987 40.5651C11.7198 40.459 11.7719 40.3616 11.8484 40.2851C11.9249 40.2086 12.0223 40.1566 12.1284 40.1355C12.2345 40.1144 12.3444 40.1252 12.4444 40.1666C12.5443 40.208 12.6297 40.2781 12.6898 40.368C12.7499 40.4579 12.782 40.5637 12.782 40.6718C12.782 40.8169 12.7243 40.956 12.6218 41.0585C12.5192 41.1611 12.3801 41.2187 12.2351 41.2187ZM41.7663 40.1249C41.8745 40.1249 41.9802 40.157 42.0702 40.2171C42.1601 40.2772 42.2302 40.3626 42.2716 40.4625C42.313 40.5625 42.3238 40.6724 42.3027 40.7785C42.2816 40.8846 42.2295 40.982 42.153 41.0585C42.0765 41.135 41.9791 41.1871 41.873 41.2082C41.7669 41.2293 41.657 41.2185 41.557 41.1771C41.4571 41.1357 41.3717 41.0656 41.3116 40.9756C41.2515 40.8857 41.2195 40.78 41.2195 40.6718C41.2195 40.5268 41.2771 40.3877 41.3796 40.2851C41.4822 40.1826 41.6213 40.1249 41.7663 40.1249ZM39.5788 35.7499C39.687 35.7499 39.7927 35.782 39.8827 35.8421C39.9726 35.9022 40.0427 35.9876 40.0841 36.0875C40.1255 36.1875 40.1363 36.2974 40.1152 36.4035C40.0941 36.5096 40.042 36.607 39.9655 36.6835C39.889 36.76 39.7916 36.8121 39.6855 36.8332C39.5794 36.8543 39.4695 36.8435 39.3695 36.8021C39.2696 36.7607 39.1842 36.6906 39.1241 36.6006C39.064 36.5107 39.032 36.405 39.032 36.2968C39.032 36.1518 39.0896 36.0127 39.1921 35.9101C39.2947 35.8076 39.4338 35.7499 39.5788 35.7499ZM34.657 40.6718C34.6557 41.1065 34.4824 41.5231 34.175 41.8305C33.8676 42.1379 33.451 42.3111 33.0163 42.3124H20.9851C20.5504 42.3111 20.1338 42.1379 19.8264 41.8305C19.519 41.5231 19.3458 41.1065 19.3445 40.6718V28.6406C19.3458 28.2059 19.519 27.7893 19.8264 27.4819C20.1338 27.1745 20.5504 27.0012 20.9851 26.9999H33.0163C33.451 27.0012 33.8676 27.1745 34.175 27.4819C34.4824 27.7893 34.6557 28.2059 34.657 28.6406V40.6718ZM27.0007 19.3437C25.9858 19.3449 25.0127 19.7485 24.2951 20.4662C23.5774 21.1839 23.1737 22.1569 23.1726 23.1718V25.9062H22.0788V23.1718C22.0788 21.8665 22.5974 20.6146 23.5204 19.6915C24.4434 18.7685 25.6953 18.2499 27.0007 18.2499C28.3061 18.2499 29.558 18.7685 30.481 19.6915C31.404 20.6146 31.9226 21.8665 31.9226 23.1718V25.9062H30.8288V23.1718C30.8277 22.1569 30.424 21.1839 29.7063 20.4662C28.9887 19.7485 28.0156 19.3449 27.0007 19.3437ZM29.7351 23.1718V25.9062H24.2663V23.1718C24.2663 22.4466 24.5544 21.7511 25.0672 21.2383C25.58 20.7255 26.2755 20.4374 27.0007 20.4374C27.7259 20.4374 28.4214 20.7255 28.9342 21.2383C29.447 21.7511 29.7351 22.4466 29.7351 23.1718ZM33.0163 25.9062V23.1718C33.0163 21.5764 32.3825 20.0463 31.2544 18.9181C30.1262 17.79 28.5961 17.1562 27.0007 17.1562C25.4053 17.1562 23.8752 17.79 22.747 18.9181C21.6189 20.0463 20.9851 21.5764 20.9851 23.1718V25.9062C20.2599 25.9062 19.5644 26.1943 19.0516 26.7071C18.5388 27.2199 18.2507 27.9154 18.2507 28.6406V29.1874H17.7038C16.1084 29.1874 14.5783 28.5537 13.4501 27.4255C12.322 26.2974 11.6882 24.7673 11.6882 23.1718C11.6882 21.5764 12.322 20.0463 13.4501 18.9181C14.5783 17.79 16.1084 17.1562 17.7038 17.1562C18.1677 17.1564 18.6301 17.2096 19.082 17.3148C19.2152 17.3463 19.3554 17.3267 19.4748 17.2599C19.5943 17.1931 19.6844 17.0839 19.7273 16.9539C20.2307 15.4221 21.2049 14.0884 22.511 13.1428C23.8171 12.1973 25.3883 11.6883 27.0007 11.6883C28.6131 11.6883 30.1843 12.1973 31.4904 13.1428C32.7965 14.0884 33.7707 15.4221 34.2741 16.9539C34.317 17.0839 34.4071 17.1931 34.5266 17.2599C34.646 17.3267 34.7862 17.3463 34.9195 17.3148C35.3713 17.2096 35.8337 17.1564 36.2976 17.1562C37.893 17.1562 39.4231 17.79 40.5513 18.9181C41.6794 20.0463 42.3132 21.5764 42.3132 23.1718C42.3132 24.7673 41.6794 26.2974 40.5513 27.4255C39.4231 28.5537 37.893 29.1874 36.2976 29.1874H35.7507V28.6406C35.7507 28.2815 35.68 27.9259 35.5426 27.5942C35.4051 27.2624 35.2037 26.961 34.9498 26.7071C34.6959 26.4532 34.3945 26.2518 34.0627 26.1143C33.731 25.9769 33.3754 25.9062 33.0163 25.9062Z" fill="black"/>
<path d="M27.6634 29.8131C27.2575 29.7134 26.8341 29.7075 26.4255 29.7958C26.017 29.8841 25.6339 30.0643 25.3053 30.3227C24.9767 30.5823 24.7121 30.9138 24.5318 31.2918C24.3516 31.6698 24.2606 32.0841 24.2658 32.5028C24.2711 32.9215 24.3724 33.3334 24.562 33.7068C24.7516 34.0801 25.0244 34.4049 25.3594 34.6562V37.9374C25.3594 38.3726 25.5323 38.7899 25.84 39.0975C26.1477 39.4052 26.565 39.5781 27.0001 39.5781C27.4352 39.5781 27.8525 39.4052 28.1602 39.0975C28.4678 38.7899 28.6407 38.3726 28.6407 37.9374V34.6562C29.0735 34.3315 29.4004 33.8859 29.5804 33.3756C29.7603 32.8654 29.7852 32.3133 29.6519 31.7889C29.5326 31.3093 29.2841 30.8716 28.9336 30.5233C28.583 30.175 28.1437 29.9293 27.6634 29.8131ZM27.8209 33.8867C27.7377 33.9348 27.6686 34.0039 27.6206 34.0871C27.5726 34.1704 27.5474 34.2648 27.5475 34.3609V37.9374C27.5475 38.0825 27.4899 38.2216 27.3873 38.3241C27.2848 38.4267 27.1457 38.4843 27.0006 38.4843C26.8556 38.4843 26.7165 38.4267 26.6139 38.3241C26.5114 38.2216 26.4537 38.0825 26.4537 37.9374V34.3609C26.4538 34.2648 26.4286 34.1704 26.3806 34.0871C26.3326 34.0039 26.2635 33.9348 26.1803 33.8867C25.9489 33.7526 25.7537 33.564 25.6119 33.3372C25.47 33.1104 25.3858 32.8524 25.3665 32.5856C25.3471 32.3188 25.3934 32.0513 25.5011 31.8064C25.6088 31.5616 25.7748 31.3468 25.9845 31.1808C26.272 30.9515 26.6291 30.827 26.9968 30.8281C27.1363 30.8283 27.2752 30.845 27.4108 30.8778C27.6942 30.9485 27.9533 31.0944 28.1608 31.3001C28.3682 31.5058 28.5162 31.7636 28.5893 32.0465C28.6793 32.3951 28.6529 32.7636 28.5141 33.0958C28.3753 33.4281 28.1322 33.7058 27.8209 33.8867Z" fill="black"/>
</svg>
