<svg width="54" height="54" viewBox="0 0 54 54" fill="none" xmlns="http://www.w3.org/2000/svg">
<rect width="54" height="54" rx="27" fill="#FFC649"/>
<g clip-path="url(#clip0_2950_2855)">
<path d="M44.5 24.0303C44.5 21.3258 42.4318 19.1515 39.8333 18.8864C39.8333 18.7273 39.8333 18.5152 39.8333 18.3561C39.8333 14.1668 36.4394 10.7197 32.25 10.7197C32.25 10.7197 32.25 10.7197 32.1969 10.7197C30.1818 10.7197 28.2727 11.5152 26.8409 12.894C25.4621 10.7728 23.1288 9.5 20.5834 9.5C20.5834 9.5 20.5834 9.5 20.5303 9.5C16.3409 9.5 12.8939 12.8939 12.8939 17.0834C12.8939 17.7197 13 18.4091 13.1591 19.0455C11.0379 19.6818 9.5 21.644 9.5 23.9242C9.5 26.7879 11.7803 29.0682 14.6439 29.0682H16.553V34.9015H13.8485C13.6363 34.9015 13.4772 35.0075 13.3712 35.2197C13.2652 35.3788 13.3182 35.6439 13.4243 35.803L19.947 44.2879C20.0531 44.3939 20.2122 44.5 20.3712 44.5C20.5303 44.5 20.6894 44.447 20.7955 44.2879L27.3713 35.856C27.4773 35.6969 27.5304 35.4848 27.4243 35.2727C27.3182 35.1136 27.1591 34.9545 26.9471 34.9545H24.2425V29.1212H30.8713L27.9016 32.9394C27.7955 33.0985 27.7424 33.3106 27.8485 33.5227C27.9546 33.6818 28.1137 33.8409 28.3258 33.8409H31.0303V41.3182C31.0303 41.4773 31.0833 41.5834 31.1894 41.6895C31.2955 41.7955 31.4015 41.8486 31.5606 41.8486H38.2425C38.5607 41.8486 38.7728 41.6364 38.7728 41.3183V33.8409H41.4773C41.7955 33.8409 42.0076 33.6288 42.0076 33.3106C42.0076 33.1515 41.9546 32.9924 41.8485 32.9394L38.9318 29.1742H39.3561C42.1667 29.1742 44.5 26.894 44.5 24.0303ZM25.8333 36.0682L20.3182 43.1212L14.9091 36.0152H17.0303C17.3485 36.0152 17.5606 35.8031 17.5606 35.4849V28.591V25.5682H23.1818V28.591V35.4849C23.1818 35.8031 23.394 36.0152 23.7121 36.0152L25.8333 36.0682ZM40.3637 32.8333H38.2424C38.0833 32.8333 37.9773 32.8864 37.8712 32.9924C37.7651 33.0985 37.7121 33.2046 37.7121 33.3637V40.841H32.0909V33.3637C32.0909 33.2046 32.0378 33.0985 31.9317 32.9924C31.8257 32.8864 31.7196 32.8333 31.5605 32.8333H29.4393L34.9544 25.7803L40.3637 32.8333ZM38.0833 28.1136L35.3257 24.5606C35.2197 24.4545 35.0606 24.3485 34.9015 24.3485C34.7424 24.3485 34.5833 24.4015 34.4773 24.5606L31.7197 28.1136H24.2425V25.0909C24.2425 24.7727 24.0303 24.5606 23.7122 24.5606H17.0303C16.8712 24.5606 16.7652 24.6136 16.6591 24.7197C16.553 24.8258 16.5 24.9318 16.5 25.0909V28.1137H14.5909C12.3636 28.0607 10.5605 26.2046 10.5605 23.9243C10.5605 21.9622 11.9923 20.2652 13.9014 19.947C14.0605 19.894 14.1666 19.8409 14.2727 19.6818C14.3257 19.5227 14.3787 19.3636 14.3257 19.2576C14.0605 18.5683 13.9545 17.8258 13.9545 17.1364C13.9545 13.5303 16.8181 10.5606 20.5303 10.5606C22.9696 10.5606 25.1439 11.8863 26.3106 14.0606C26.4167 14.2197 26.5227 14.3258 26.7349 14.3258C26.894 14.3258 27.1061 14.2727 27.2121 14.1667C28.4849 12.6819 30.2879 11.8334 32.25 11.8334C35.856 11.8334 38.8257 14.8031 38.7727 18.4092C38.7727 18.7804 38.7197 19.0985 38.6666 19.3637C38.6666 19.5228 38.6666 19.6819 38.7727 19.7879C38.8788 19.894 39.0379 19.947 39.197 19.947H39.3561C41.5834 19.947 43.4394 21.8031 43.4394 24.0303C43.4394 26.2576 41.5833 28.1137 39.3561 28.1137L38.0833 28.1136Z" fill="black"/>
<path d="M20.3708 11.6213C17.5071 11.6213 15.1738 13.9546 15.1738 16.8183C15.1738 17.0835 15.1738 17.4016 15.2269 17.6668C15.2799 17.9319 15.492 18.091 15.7571 18.091C15.8102 18.091 15.8102 18.091 15.8632 18.091C16.1284 18.0379 16.3404 17.7728 16.2875 17.5077C16.2344 17.2955 16.2344 17.0304 16.2344 16.8183C16.2344 14.591 18.0375 12.682 20.3708 12.682C21.6966 12.682 22.9693 13.3183 23.7117 14.432C23.8708 14.6971 24.1889 14.7502 24.4541 14.538C24.7193 14.3789 24.7723 14.0608 24.5602 13.7956C23.6056 12.4698 22.0147 11.6213 20.3708 11.6213Z" fill="black"/>
<path d="M32.2498 12.8408C30.8711 12.8408 29.5453 13.3711 28.5907 14.3256C28.3786 14.5378 28.3786 14.8559 28.5907 15.0681C28.8029 15.2802 29.121 15.2802 29.3332 15.0681C30.1286 14.2726 31.1362 13.8483 32.2498 13.8483C34.5301 13.8483 36.3862 15.7044 36.3862 17.9847C36.3862 18.0907 36.3862 18.2498 36.3862 18.3559C36.3331 18.6211 36.5983 18.8862 36.8634 18.9392H36.9165C37.1816 18.9392 37.3937 18.7271 37.4467 18.462C37.4467 18.3029 37.4467 18.1438 37.4467 17.9847C37.4468 15.2272 35.1135 12.8939 32.2498 12.8408Z" fill="black"/>
</g>
<defs>
<clipPath id="clip0_2950_2855">
<rect width="35" height="35" fill="white" transform="translate(9.5 9.5)"/>
</clipPath>
</defs>
</svg>
