<svg width="41" height="41" viewBox="0 0 41 41" fill="none" xmlns="http://www.w3.org/2000/svg">
<path d="M2.16667 7.16667V2.16667H7.16667C7.38768 2.16667 7.59964 2.07887 7.75592 1.92259C7.9122 1.76631 8 1.55435 8 1.33333C8 1.11232 7.9122 0.900358 7.75592 0.744078C7.59964 0.587797 7.38768 0.5 7.16667 0.5H1.33333C1.11232 0.5 0.900358 0.587797 0.744078 0.744078C0.587797 0.900358 0.5 1.11232 0.5 1.33333L0.5 7.16667C0.5 7.38768 0.587797 7.59964 0.744078 7.75592C0.900358 7.9122 1.11232 8 1.33333 8C1.55435 8 1.76631 7.9122 1.92259 7.75592C2.07887 7.59964 2.16667 7.38768 2.16667 7.16667Z" fill="black"/>
<path d="M7.16667 38.8333H2.16667V33.8333C2.16667 33.6123 2.07887 33.4004 1.92259 33.2441C1.76631 33.0878 1.55435 33 1.33333 33C1.11232 33 0.900358 33.0878 0.744078 33.2441C0.587797 33.4004 0.5 33.6123 0.5 33.8333L0.5 39.6667C0.5 39.8877 0.587797 40.0996 0.744078 40.2559C0.900358 40.4122 1.11232 40.5 1.33333 40.5H7.16667C7.38768 40.5 7.59964 40.4122 7.75592 40.2559C7.9122 40.0996 8 39.8877 8 39.6667C8 39.4457 7.9122 39.2337 7.75592 39.0774C7.59964 38.9211 7.38768 38.8333 7.16667 38.8333Z" fill="black"/>
<path d="M38.8333 33.8333V38.8333H33.8333C33.6123 38.8333 33.4004 38.9211 33.2441 39.0774C33.0878 39.2337 33 39.4457 33 39.6667C33 39.8877 33.0878 40.0996 33.2441 40.2559C33.4004 40.4122 33.6123 40.5 33.8333 40.5H39.6667C39.8877 40.5 40.0996 40.4122 40.2559 40.2559C40.4122 40.0996 40.5 39.8877 40.5 39.6667V33.8333C40.5 33.6123 40.4122 33.4004 40.2559 33.2441C40.0996 33.0878 39.8877 33 39.6667 33C39.4457 33 39.2337 33.0878 39.0774 33.2441C38.9211 33.4004 38.8333 33.6123 38.8333 33.8333Z" fill="black"/>
<path d="M39.6667 0.5H33.8333C33.6123 0.5 33.4004 0.587797 33.2441 0.744078C33.0878 0.900358 33 1.11232 33 1.33333C33 1.55435 33.0878 1.76631 33.2441 1.92259C33.4004 2.07887 33.6123 2.16667 33.8333 2.16667H38.8333V7.16667C38.8333 7.38768 38.9211 7.59964 39.0774 7.75592C39.2337 7.9122 39.4457 8 39.6667 8C39.8877 8 40.0996 7.9122 40.2559 7.75592C40.4122 7.59964 40.5 7.38768 40.5 7.16667V1.33333C40.5 1.11232 40.4122 0.900358 40.2559 0.744078C40.0996 0.587797 39.8877 0.5 39.6667 0.5Z" fill="black"/>
<path d="M39.6667 19.6667H38.8333C38.6297 15.0909 36.7205 10.757 33.4818 7.51824C30.243 4.27946 25.9091 2.37033 21.3333 2.16667V1.33333C21.3333 1.11232 21.2455 0.900358 21.0893 0.744078C20.933 0.587797 20.721 0.5 20.5 0.5C20.279 0.5 20.067 0.587797 19.9107 0.744078C19.7545 0.900358 19.6667 1.11232 19.6667 1.33333V2.16667C15.0909 2.37033 10.757 4.27946 7.51824 7.51824C4.27946 10.757 2.37033 15.0909 2.16667 19.6667H1.33333C1.11232 19.6667 0.900358 19.7545 0.744078 19.9107C0.587797 20.067 0.5 20.279 0.5 20.5C0.5 20.721 0.587797 20.933 0.744078 21.0893C0.900358 21.2455 1.11232 21.3333 1.33333 21.3333H2.16667C2.37033 25.9091 4.27946 30.243 7.51824 33.4818C10.757 36.7205 15.0909 38.6297 19.6667 38.8333V39.6667C19.6667 39.8877 19.7545 40.0996 19.9107 40.2559C20.067 40.4122 20.279 40.5 20.5 40.5C20.721 40.5 20.933 40.4122 21.0893 40.2559C21.2455 40.0996 21.3333 39.8877 21.3333 39.6667V38.8333C25.9091 38.6297 30.243 36.7205 33.4818 33.4818C36.7205 30.243 38.6297 25.9091 38.8333 21.3333H39.6667C39.8877 21.3333 40.0996 21.2455 40.2559 21.0893C40.4122 20.933 40.5 20.721 40.5 20.5C40.5 20.279 40.4122 20.067 40.2559 19.9107C40.0996 19.7545 39.8877 19.6667 39.6667 19.6667ZM37.1667 19.6667H35.5C35.2901 15.9818 33.7289 12.5036 31.1153 9.89762C28.5016 7.29162 25.0188 5.74074 21.3333 5.54167V3.875C25.4605 4.07616 29.3659 5.80329 32.2915 8.72127C35.2172 11.6393 36.9546 15.54 37.1667 19.6667ZM20.5 33.8333C17.8629 33.8333 15.2851 33.0513 13.0924 31.5863C10.8997 30.1212 9.19077 28.0388 8.18161 25.6024C7.17244 23.1661 6.90839 20.4852 7.42286 17.8988C7.93733 15.3124 9.20721 12.9366 11.0719 11.0719C12.9366 9.20721 15.3124 7.93733 17.8988 7.42286C20.4852 6.90839 23.1661 7.17244 25.6024 8.18161C28.0388 9.19077 30.1212 10.8997 31.5863 13.0924C33.0513 15.2851 33.8333 17.8629 33.8333 20.5C33.8333 24.0362 32.4286 27.4276 29.9281 29.9281C27.4276 32.4286 24.0362 33.8333 20.5 33.8333ZM19.6667 3.875V5.54167C15.9885 5.75064 12.5159 7.30589 9.91091 9.91091C7.30589 12.5159 5.75064 15.9885 5.54167 19.6667H3.875C4.08617 15.5468 5.81771 11.6517 8.7347 8.7347C11.6517 5.81771 15.5468 4.08617 19.6667 3.875ZM3.875 21.3333H5.54167C5.74074 25.0188 7.29162 28.5016 9.89762 31.1153C12.5036 33.7289 15.9818 35.2901 19.6667 35.5V37.1667C15.54 36.9546 11.6393 35.2172 8.72127 32.2915C5.80329 29.3659 4.07616 25.4605 3.875 21.3333ZM21.3333 37.1667V35.5C25.0256 35.3 28.5139 33.7432 31.1286 31.1286C33.7432 28.5139 35.3 25.0256 35.5 21.3333H37.1667C36.9647 25.4673 35.2317 29.3783 32.305 32.305C29.3783 35.2317 25.4673 36.9647 21.3333 37.1667Z" fill="black"/>
<path d="M24.666 14.6665C24.445 14.6665 24.233 14.7543 24.0768 14.9106C23.9205 15.0669 23.8327 15.2788 23.8327 15.4998C23.8327 15.7208 23.9205 15.9328 24.0768 16.0891C24.233 16.2454 24.445 16.3332 24.666 16.3332H25.991L21.166 21.1498C18.3827 19.7582 18.1743 19.4832 17.641 19.7582C17.491 19.8332 17.8827 19.5415 14.166 22.3332C13.691 22.6915 13.8327 22.9665 13.8327 26.3332H12.9993C12.7783 26.3332 12.5664 26.421 12.4101 26.5772C12.2538 26.7335 12.166 26.9455 12.166 27.1665C12.166 27.3875 12.2538 27.5995 12.4101 27.7558C12.5664 27.912 12.7783 27.9998 12.9993 27.9998H26.3327C26.5537 27.9998 26.7657 27.912 26.9219 27.7558C27.0782 27.5995 27.166 27.3875 27.166 27.1665C27.166 26.9455 27.0782 26.7335 26.9219 26.5772C26.7657 26.421 26.5537 26.3332 26.3327 26.3332H25.4993V19.1748L27.166 17.5082V18.8332C27.166 19.0542 27.2538 19.2661 27.4101 19.4224C27.5664 19.5787 27.7783 19.6665 27.9993 19.6665C28.2204 19.6665 28.4323 19.5787 28.5886 19.4224C28.7449 19.2661 28.8327 19.0542 28.8327 18.8332C28.8327 13.8748 29.5493 14.6665 24.666 14.6665ZM18.8327 21.8498L20.4993 22.6832V26.3332H18.8327V21.8498ZM15.4993 23.4165L17.166 22.1665V26.3332H15.4993V23.4165ZM23.8327 26.3332H22.166V22.5082L23.8327 20.8415V26.3332Z" fill="black"/>
<path d="M12.9993 14.6667H19.666C19.887 14.6667 20.099 14.5789 20.2553 14.4226C20.4116 14.2663 20.4993 14.0543 20.4993 13.8333C20.4993 13.6123 20.4116 13.4004 20.2553 13.2441C20.099 13.0878 19.887 13 19.666 13H12.9993C12.7783 13 12.5664 13.0878 12.4101 13.2441C12.2538 13.4004 12.166 13.6123 12.166 13.8333C12.166 14.0543 12.2538 14.2663 12.4101 14.4226C12.5664 14.5789 12.7783 14.6667 12.9993 14.6667Z" fill="black"/>
<path d="M12.9993 18.0002H16.3327C16.5537 18.0002 16.7657 17.9124 16.9219 17.7561C17.0782 17.5998 17.166 17.3878 17.166 17.1668C17.166 16.9458 17.0782 16.7339 16.9219 16.5776C16.7657 16.4213 16.5537 16.3335 16.3327 16.3335H12.9993C12.7783 16.3335 12.5664 16.4213 12.4101 16.5776C12.2538 16.7339 12.166 16.9458 12.166 17.1668C12.166 17.3878 12.2538 17.5998 12.4101 17.7561C12.5664 17.9124 12.7783 18.0002 12.9993 18.0002Z" fill="black"/>
</svg>
