<svg width="54" height="54" viewBox="0 0 54 54" fill="none" xmlns="http://www.w3.org/2000/svg">
<rect width="54" height="54" rx="27" fill="#FFC649"/>
<g clip-path="url(#clip0_2949_2724)">
<path d="M42.8068 27.5645C41.8731 27.5645 41.1133 28.3243 41.1133 29.258C41.1133 29.993 41.5869 30.614 42.2423 30.8477V34.9032H43.3713V30.8477C44.0267 30.614 44.5004 29.993 44.5004 29.258C44.5004 28.3243 43.7405 27.5645 42.8068 27.5645ZM42.8068 29.8225C42.4952 29.8225 42.2423 29.569 42.2423 29.258C42.2423 28.947 42.4952 28.6935 42.8068 28.6935C43.1184 28.6935 43.3713 28.947 43.3713 29.258C43.3713 29.569 43.1184 29.8225 42.8068 29.8225Z" fill="black"/>
<path d="M39.4201 32.0806C38.4864 32.0806 37.7266 32.8404 37.7266 33.7741C37.7266 34.5091 38.2002 35.1301 38.8556 35.3638V37.1612H39.9846V35.3638C40.64 35.1301 41.1137 34.5091 41.1137 33.7741C41.1137 32.8404 40.3538 32.0806 39.4201 32.0806ZM39.4201 34.3386C39.1085 34.3386 38.8556 34.0852 38.8556 33.7741C38.8556 33.4631 39.1085 33.2096 39.4201 33.2096C39.7317 33.2096 39.9846 33.4631 39.9846 33.7741C39.9846 34.0852 39.7317 34.3386 39.4201 34.3386Z" fill="black"/>
<path d="M39.9845 38.2903H38.8555V39.4193H39.9845V38.2903Z" fill="black"/>
<path d="M43.3712 36.0322H42.2422V37.1613H43.3712V36.0322Z" fill="black"/>
<path d="M11.1935 28.6936C10.2598 28.6936 9.5 29.4534 9.5 30.3872C9.5 31.1222 9.97363 31.7431 10.629 31.9768V36.0323H11.7581V31.9768C12.4135 31.7431 12.8871 31.1222 12.8871 30.3872C12.8871 29.4534 12.1273 28.6936 11.1935 28.6936ZM11.1935 30.9517C10.8819 30.9517 10.629 30.6982 10.629 30.3872C10.629 30.0761 10.8819 29.8226 11.1935 29.8226C11.5052 29.8226 11.7581 30.0761 11.7581 30.3872C11.7581 30.6982 11.5052 30.9517 11.1935 30.9517Z" fill="black"/>
<path d="M16.2738 33.7741C16.2738 32.8404 15.514 32.0806 14.5803 32.0806C13.6466 32.0806 12.8867 32.8404 12.8867 33.7741C12.8867 34.5091 13.3603 35.1301 14.0158 35.3638V39.4193H15.1448V35.3638C15.8002 35.1301 16.2738 34.5091 16.2738 33.7741ZM14.5803 34.3386C14.2687 34.3386 14.0158 34.0852 14.0158 33.7741C14.0158 33.4631 14.2687 33.2096 14.5803 33.2096C14.8919 33.2096 15.1448 33.4631 15.1448 33.7741C15.1448 34.0852 14.8919 34.3386 14.5803 34.3386Z" fill="black"/>
<path d="M11.7579 37.1614H10.6289V38.2904H11.7579V37.1614Z" fill="black"/>
<path d="M27.0008 17.4033C23.577 17.4033 20.7911 20.1892 20.7911 23.613V25.0559C20.1194 25.4477 19.6621 26.168 19.6621 27.0001C19.6621 28.1314 20.501 29.0623 21.5882 29.2249C21.7886 29.7899 22.1115 30.3104 22.5445 30.7338L24.5836 32.7277C24.9019 33.0387 25.3225 33.2098 25.7674 33.2098H28.2337C28.6786 33.2098 29.0991 33.0387 29.4181 32.7271L31.4565 30.7338C31.8895 30.3104 32.2124 29.7899 32.4128 29.2249C33.5007 29.0623 34.3395 28.1314 34.3395 27.0001C34.3395 26.168 33.8823 25.4477 33.2105 25.0559V23.613C33.2105 20.1892 30.4246 17.4033 27.0008 17.4033ZM20.7911 27.0001C20.7911 26.584 21.0198 26.2239 21.3557 26.028V27.9078C21.3557 27.9299 21.3585 27.9519 21.359 27.9739C21.0215 27.7786 20.7911 27.4173 20.7911 27.0001ZM31.5169 27.9078C31.5169 28.6632 31.207 29.3987 30.6674 29.9265L28.6294 31.9199C28.5228 32.0232 28.3822 32.0807 28.2343 32.0807H25.7679C25.6194 32.0807 25.4789 32.0232 25.3733 31.9199L23.3349 29.926C22.7946 29.3987 22.4847 28.6632 22.4847 27.9078V25.8711H24.1782C25.9232 25.8711 27.6545 25.3528 29.1149 24.4016C29.7037 25.175 30.5657 25.6774 31.5169 25.8231V27.9078ZM32.0815 24.742C31.2104 24.742 30.4015 24.309 29.9182 23.5842L29.3978 22.8035L28.9202 23.1614C27.5608 24.1803 25.8769 24.742 24.1782 24.742H21.9202V23.613C21.9202 20.8119 24.1991 18.5324 27.0008 18.5324C29.8025 18.5324 32.0815 20.8119 32.0815 23.613V24.742ZM32.6426 27.9739C32.6432 27.9519 32.646 27.9299 32.646 27.9078V26.028C32.9819 26.2239 33.2105 26.584 33.2105 27.0001C33.2105 27.4173 32.9802 27.7786 32.6426 27.9739Z" fill="black"/>
<path d="M34.9251 35.3882L30.9509 33.9436V33.2097H29.8218V34.2919L29.4453 36.5505L27.7975 34.9033H26.201L24.5532 36.5511L24.1767 34.2919V33.2097H23.0477V33.9436L19.0949 35.3808C17.7384 35.8742 16.7589 37.0671 16.5399 38.4942L15.6152 44.5H38.4657L37.4744 38.4625C37.243 37.0541 36.2664 35.8765 34.9251 35.3882ZM24.7948 43.371H20.876L21.3485 40.0641L20.2307 39.9043L19.7351 43.371H16.9317L17.6554 38.6652C17.8118 37.6462 18.5118 36.7944 19.4805 36.4421L23.1668 35.1014L23.8002 38.9006L24.8795 37.8212L25.2888 38.4349L24.7948 43.371ZM28.069 43.371H25.9295L26.4517 38.1453L25.693 37.0072L26.6685 36.0323H27.3301L28.305 37.0072L27.5463 38.1453L28.069 43.371ZM34.2635 43.371L33.7684 39.9037L32.6506 40.0635L33.1226 43.371H29.2037L28.7097 38.4354L29.119 37.8218L30.1984 38.9012L30.8318 35.102L34.5395 36.4506C35.4975 36.7989 36.1958 37.6406 36.3612 38.6466L37.1357 43.371H34.2635Z" fill="black"/>
<path d="M15.1447 40.5483H14.0156V41.6774H15.1447V40.5483Z" fill="black"/>
<path d="M14.5806 27.5645H18.5323V26.4355H14.5806C12.4022 26.4355 10.629 24.6629 10.629 22.4839C10.629 20.6966 11.8303 19.1583 13.503 18.6847C13.6469 19.8131 14.1234 20.8756 14.8894 21.7314L15.7306 20.9783C14.9894 20.1502 14.5806 19.081 14.5806 17.9677C14.5806 15.4777 16.6067 13.4516 19.0968 13.4516C20.8242 13.4516 22.3749 14.413 23.1438 15.9609L24.1548 15.4579C23.8782 14.9013 23.5135 14.4141 23.093 13.9902C24.4399 11.9094 26.7674 10.629 29.2581 10.629C32.8456 10.629 35.9346 13.2738 36.4997 16.7992C35.5671 17.2282 34.7508 17.9011 34.1609 18.7829L35.0991 19.4106C35.9402 18.154 37.3442 17.4032 38.8548 17.4032C41.3449 17.4032 43.371 19.4293 43.371 21.9194C43.371 24.4094 41.3449 26.4355 38.8548 26.4355H35.4677V27.5645H38.8548C41.9676 27.5645 44.5 25.0321 44.5 21.9194C44.5 18.8066 41.9676 16.2742 38.8548 16.2742C38.419 16.2742 37.9917 16.3295 37.5768 16.4255C36.8429 12.4558 33.3305 9.5 29.2581 9.5C26.4287 9.5 23.7789 10.9305 22.2152 13.2665C21.3097 12.6652 20.2365 12.3226 19.0968 12.3226C16.1336 12.3226 13.7017 14.6185 13.4742 17.5246C11.1777 18.0338 9.5 20.0875 9.5 22.4839C9.5 25.285 11.779 27.5645 14.5806 27.5645Z" fill="black"/>
</g>
<defs>
<clipPath id="clip0_2949_2724">
<rect width="35" height="35" fill="white" transform="translate(9.5 9.5)"/>
</clipPath>
</defs>
</svg>
