<svg width="83" height="83" viewBox="0 0 83 83" fill="none" xmlns="http://www.w3.org/2000/svg">
<rect width="83" height="83" rx="41.5" fill="white"/>
<path d="M41.2971 30.4344H41.7021C41.7853 30.4346 41.8651 30.4678 41.9238 30.5267C41.9826 30.5856 42.0156 30.6654 42.0156 30.7487C42.0156 30.9476 42.0946 31.1383 42.2353 31.279C42.3759 31.4196 42.5667 31.4987 42.7656 31.4987C42.9645 31.4987 43.1553 31.4196 43.296 31.279C43.4366 31.1383 43.5156 30.9476 43.5156 30.7487C43.5143 30.3647 43.391 29.9911 43.1634 29.6818C42.9358 29.3725 42.6158 29.1436 42.2496 29.0282V28.8999C42.2496 28.701 42.1706 28.5102 42.03 28.3696C41.8893 28.2289 41.6985 28.1499 41.4996 28.1499C41.3007 28.1499 41.1099 28.2289 40.9693 28.3696C40.8286 28.5102 40.7496 28.701 40.7496 28.8999V29.0319C40.3836 29.1474 40.0638 29.3762 39.8364 29.6853C39.609 29.9945 39.4857 30.3679 39.4844 30.7517V31.0914C39.4848 31.5723 39.676 32.0333 40.016 32.3733C40.356 32.7133 40.817 32.9045 41.2979 32.9049H41.7029C41.7861 32.9051 41.8658 32.9383 41.9246 32.9972C41.9834 33.0561 42.0164 33.1359 42.0164 33.2192V33.5589C42.0164 33.6421 41.9834 33.7219 41.9246 33.7808C41.8658 33.8398 41.7861 33.873 41.7029 33.8732H41.2979C41.2147 33.873 41.1349 33.8398 41.0762 33.7808C41.0174 33.7219 40.9844 33.6421 40.9844 33.5589C40.9844 33.36 40.9054 33.1692 40.7647 33.0286C40.6241 32.8879 40.4333 32.8089 40.2344 32.8089C40.0355 32.8089 39.8447 32.8879 39.704 33.0286C39.5634 33.1692 39.4844 33.36 39.4844 33.5589C39.4865 33.942 39.6101 34.3146 39.8375 34.623C40.0649 34.9314 40.3842 35.1596 40.7496 35.2749V35.4054C40.7496 35.6043 40.8286 35.7951 40.9693 35.9357C41.1099 36.0764 41.3007 36.1554 41.4996 36.1554C41.6985 36.1554 41.8893 36.0764 42.03 35.9357C42.1706 35.7951 42.2496 35.6043 42.2496 35.4054V35.2749C42.616 35.1596 42.9361 34.9307 43.1638 34.6214C43.3916 34.3121 43.515 33.9385 43.5164 33.5544V33.2147C43.516 32.7337 43.3248 32.2726 42.9848 31.9325C42.6448 31.5924 42.1838 31.401 41.7029 31.4004H41.2979C41.2147 31.4004 41.135 31.3674 41.0762 31.3086C41.0174 31.2498 40.9844 31.17 40.9844 31.0869V30.7472C40.9848 30.6643 41.0178 30.585 41.0764 30.5264C41.135 30.4679 41.2143 30.4348 41.2971 30.4344Z" fill="black"/>
<path d="M49.7374 34.7501C49.7603 34.6805 49.8048 34.6201 49.8644 34.5776C49.9241 34.5351 49.9957 34.5128 50.0689 34.5139C50.3133 34.5136 50.5551 34.4651 50.7807 34.3712C51.0063 34.2774 51.2111 34.14 51.3835 33.9669C51.5559 33.7938 51.6925 33.5884 51.7854 33.3624C51.8784 33.1365 51.9259 32.8944 51.9252 32.6501V31.6496C51.9248 31.1573 51.7291 30.6854 51.3811 30.3372C51.0331 29.9891 50.5612 29.7932 50.0689 29.7926C49.9957 29.7938 49.924 29.7715 49.8643 29.729C49.8047 29.6865 49.7602 29.626 49.7374 29.5564C49.5861 29.0775 49.3928 28.613 49.1599 28.1681C49.126 28.102 49.1143 28.0267 49.1264 27.9533C49.1386 27.88 49.174 27.8125 49.2274 27.7609C49.5748 27.4124 49.7698 26.9404 49.7698 26.4484C49.7698 25.9563 49.5748 25.4844 49.2274 25.1359L48.5164 24.4256C48.1681 24.0779 47.6961 23.8826 47.2039 23.8826C46.7118 23.8826 46.2397 24.0779 45.8914 24.4256C45.8397 24.4782 45.7725 24.5129 45.6996 24.5246C45.6268 24.5363 45.5521 24.5245 45.4864 24.4909C45.0412 24.2579 44.5765 24.0644 44.0974 23.9126C44.028 23.8899 43.9677 23.8455 43.9253 23.786C43.8829 23.7264 43.8607 23.6549 43.8619 23.5819C43.8614 23.0894 43.6654 22.6173 43.3171 22.2691C42.9688 21.921 42.4967 21.7253 42.0042 21.7249H40.9984C40.506 21.7253 40.0338 21.921 39.6855 22.2691C39.3372 22.6173 39.1413 23.0894 39.1407 23.5819C39.1419 23.655 39.1196 23.7266 39.077 23.7861C39.0345 23.8457 38.974 23.89 38.9044 23.9126C38.4257 24.0645 37.9612 24.258 37.5162 24.4909C37.4502 24.5247 37.375 24.5364 37.3018 24.5243C37.2286 24.5121 37.1612 24.4767 37.1097 24.4234C36.7614 24.0756 36.2894 23.8804 35.7972 23.8804C35.305 23.8804 34.833 24.0756 34.4847 24.4234L33.7737 25.1336C33.4265 25.4822 33.2316 25.9541 33.2316 26.4461C33.2316 26.9381 33.4265 27.41 33.7737 27.7586C33.8265 27.8102 33.8613 27.8774 33.8731 27.9504C33.8848 28.0233 33.8728 28.098 33.8389 28.1636C33.6061 28.6085 33.4128 29.073 33.2614 29.5519C33.2387 29.6215 33.1942 29.682 33.1346 29.7245C33.0749 29.767 33.0032 29.7893 32.9299 29.7881C32.4372 29.7891 31.965 29.9858 31.6172 30.3348C31.2693 30.6839 31.0744 31.1568 31.0752 31.6496V32.6501C31.0756 33.1424 31.2713 33.6143 31.6193 33.9625C31.9673 34.3106 32.4392 34.5065 32.9314 34.5071C33.0048 34.5061 33.0765 34.5285 33.1361 34.5711C33.1958 34.6138 33.2402 34.6744 33.2629 34.7441C33.4145 35.2226 33.6077 35.6869 33.8404 36.1316C33.8744 36.1977 33.8861 36.273 33.874 36.3464C33.8618 36.4197 33.8264 36.4872 33.7729 36.5389C33.4256 36.8874 33.2306 37.3593 33.2306 37.8514C33.2306 38.3434 33.4256 38.8154 33.7729 39.1639L34.4839 39.8741C34.8323 40.2216 35.3044 40.4168 35.7964 40.4168C36.2885 40.4168 36.7605 40.2216 37.1089 39.8741C37.1607 39.8215 37.228 39.7869 37.3009 39.7753C37.3737 39.7637 37.4484 39.7757 37.5139 39.8096C37.9593 40.042 38.4241 40.2353 38.9029 40.3871C38.9723 40.4099 39.0326 40.4544 39.0749 40.5139C39.1173 40.5734 39.1396 40.6448 39.1384 40.7179C39.139 41.2103 39.335 41.6824 39.6833 42.0306C40.0316 42.3787 40.5037 42.5745 40.9962 42.5749H41.9997C42.4922 42.5745 42.9643 42.3787 43.3126 42.0306C43.6609 41.6824 43.8569 41.2103 43.8574 40.7179C43.8564 40.6447 43.8787 40.5732 43.9213 40.5137C43.9638 40.4542 44.0242 40.4098 44.0937 40.3871C44.5723 40.2351 45.0368 40.0419 45.4819 39.8096C45.5479 39.7755 45.623 39.7636 45.6963 39.7756C45.7695 39.7877 45.8369 39.823 45.8884 39.8764C46.2368 40.2241 46.7088 40.4193 47.2009 40.4193C47.6931 40.4193 48.1651 40.2241 48.5134 39.8764L49.2244 39.1661C49.5716 38.8175 49.7665 38.3456 49.7665 37.8536C49.7665 37.3616 49.5716 36.8897 49.2244 36.5411C49.1717 36.4896 49.1369 36.4225 49.1252 36.3497C49.1134 36.277 49.1254 36.2023 49.1592 36.1369C49.3921 35.6924 49.5856 35.2284 49.7374 34.7501ZM48.3072 34.3001C48.1822 34.6951 48.0225 35.0784 47.8302 35.4454C47.6474 35.7943 47.5815 36.1927 47.6421 36.582C47.7028 36.9712 47.8867 37.3307 48.1669 37.6076C48.2337 37.6746 48.2711 37.7654 48.2711 37.86C48.2711 37.9546 48.2337 38.0453 48.1669 38.1124L47.4559 38.8226C47.4228 38.8561 47.3834 38.8826 47.34 38.9007C47.2965 38.9188 47.2499 38.9282 47.2028 38.9282C47.1557 38.9282 47.1091 38.9188 47.0657 38.9007C47.0222 38.8826 46.9828 38.8561 46.9497 38.8226C46.6726 38.5432 46.3132 38.36 45.9243 38.2999C45.5354 38.2399 45.1374 38.3061 44.7889 38.4889C44.4222 38.6812 44.0392 38.8408 43.6444 38.9659C43.2703 39.0836 42.9436 39.3181 42.7124 39.6351C42.4812 39.952 42.3576 40.3346 42.3597 40.7269C42.3595 40.8216 42.3217 40.9124 42.2546 40.9793C42.1876 41.0463 42.0967 41.0839 42.0019 41.0839H40.9984C40.9037 41.0839 40.8128 41.0463 40.7457 40.9793C40.6787 40.9124 40.6409 40.8216 40.6407 40.7269C40.6429 40.3346 40.5195 39.952 40.2884 39.6351C40.0573 39.3182 39.7308 39.0837 39.3567 38.9659C38.9614 38.8408 38.5779 38.6812 38.2107 38.4889C37.8619 38.3056 37.4634 38.2394 37.0741 38.2999C36.6848 38.3604 36.3252 38.5444 36.0484 38.8249C36.0154 38.8581 35.9761 38.8844 35.9329 38.9024C35.8897 38.9203 35.8433 38.9296 35.7964 38.9296C35.7496 38.9296 35.7032 38.9203 35.66 38.9024C35.6167 38.8844 35.5775 38.8581 35.5444 38.8249L34.8334 38.1146C34.8002 38.0813 34.7737 38.0418 34.7557 37.9983C34.7377 37.9548 34.7284 37.9082 34.7284 37.8611C34.7284 37.814 34.7377 37.7674 34.7557 37.7239C34.7737 37.6804 34.8002 37.6409 34.8334 37.6076C35.113 37.3308 35.2964 36.9715 35.3566 36.5827C35.4168 36.1939 35.3507 35.796 35.1679 35.4476C34.9757 35.0808 34.8161 34.6978 34.6909 34.3031C34.5732 33.9287 34.3386 33.6019 34.0215 33.3706C33.7045 33.1392 33.3217 33.0155 32.9292 33.0176C32.8817 33.0172 32.8347 33.0074 32.791 32.9886C32.7474 32.9698 32.7079 32.9425 32.6749 32.9083C32.642 32.8741 32.6161 32.8336 32.599 32.7893C32.5819 32.7449 32.5738 32.6976 32.5752 32.6501V31.6496C32.5752 31.555 32.6127 31.4644 32.6795 31.3974C32.7463 31.3305 32.8369 31.2928 32.9314 31.2926C33.3238 31.2948 33.7066 31.1713 34.0237 30.9401C34.3407 30.7089 34.5754 30.3822 34.6932 30.0079C34.8184 29.6129 34.978 29.2297 35.1702 28.8626C35.353 28.5136 35.4189 28.1152 35.3583 27.726C35.2976 27.3367 35.1137 26.9772 34.8334 26.7004C34.7667 26.6333 34.7293 26.5426 34.7293 26.448C34.7293 26.3534 34.7667 26.2626 34.8334 26.1956L35.5444 25.4854C35.5777 25.4521 35.6171 25.4257 35.6606 25.4077C35.704 25.3897 35.7506 25.3804 35.7976 25.3804C35.8446 25.3804 35.8911 25.3897 35.9346 25.4077C35.978 25.4257 36.0175 25.4521 36.0507 25.4854C36.3279 25.7646 36.6873 25.9476 37.0762 26.0077C37.465 26.0677 37.8629 26.0016 38.2114 25.8191C38.5783 25.6271 38.9613 25.4675 39.3559 25.3421C39.7301 25.2243 40.0567 24.9898 40.2879 24.6729C40.5191 24.356 40.6428 23.9734 40.6407 23.5811C40.6409 23.4864 40.6787 23.3955 40.7457 23.3286C40.8128 23.2617 40.9037 23.2241 40.9984 23.2241H42.0019C42.0967 23.2241 42.1876 23.2617 42.2546 23.3286C42.3217 23.3955 42.3595 23.4864 42.3597 23.5811C42.3576 23.9733 42.4811 24.3558 42.7121 24.6727C42.9432 24.9896 43.2697 25.2242 43.6437 25.3421C44.0388 25.4675 44.4223 25.6271 44.7897 25.8191C45.1385 26.0022 45.537 26.0684 45.9263 26.0079C46.3156 25.9474 46.6751 25.7634 46.9519 25.4831C46.985 25.4499 47.0242 25.4236 47.0675 25.4056C47.1107 25.3876 47.1571 25.3784 47.2039 25.3784C47.2508 25.3784 47.2972 25.3876 47.3404 25.4056C47.3836 25.4236 47.4229 25.4499 47.4559 25.4831L48.1669 26.1934C48.2002 26.2266 48.2266 26.2662 48.2447 26.3097C48.2627 26.3532 48.272 26.3998 48.272 26.4469C48.272 26.4939 48.2627 26.5406 48.2447 26.584C48.2266 26.6275 48.2002 26.6671 48.1669 26.7004C47.8874 26.9772 47.704 27.3364 47.6438 27.7252C47.5836 28.114 47.6497 28.5119 47.8324 28.8604C48.0247 29.2274 48.1843 29.6106 48.3094 30.0056C48.4273 30.3799 48.6619 30.7066 48.979 30.9378C49.296 31.169 49.6788 31.2926 50.0712 31.2904C50.1658 31.2906 50.2564 31.3283 50.3231 31.3952C50.3899 31.4621 50.4274 31.5528 50.4274 31.6474V32.6501C50.4274 32.7447 50.3899 32.8353 50.3231 32.9023C50.2564 32.9692 50.1658 33.0069 50.0712 33.0071C49.678 33.0048 49.2944 33.1287 48.9768 33.3606C48.6593 33.5926 48.4246 33.9203 48.3072 34.2956V34.3001Z" fill="black"/>
<path d="M41.4996 25.7627C40.2359 25.7627 39.0006 26.1374 37.9499 26.8395C36.8992 27.5415 36.0803 28.5394 35.5967 29.7069C35.1131 30.8744 34.9866 32.159 35.2331 33.3984C35.4797 34.6378 36.0882 35.7763 36.9817 36.6698C37.8753 37.5634 39.0137 38.1719 40.2531 38.4184C41.4925 38.665 42.7772 38.5384 43.9447 38.0548C45.1121 37.5713 46.11 36.7523 46.8121 35.7016C47.5141 34.6509 47.8889 33.4156 47.8889 32.1519C47.8869 30.458 47.2131 28.834 46.0153 27.6363C44.8175 26.4385 43.1935 25.7647 41.4996 25.7627ZM41.4996 37.0412C40.5326 37.0412 39.5873 36.7544 38.7833 36.2172C37.9792 35.68 37.3526 34.9164 36.9825 34.023C36.6125 33.1296 36.5156 32.1465 36.7043 31.1981C36.893 30.2497 37.3586 29.3785 38.0424 28.6947C38.7262 28.0109 39.5973 27.5453 40.5458 27.3566C41.4942 27.168 42.4772 27.2648 43.3706 27.6349C44.264 28.0049 45.0276 28.6316 45.5649 29.4356C46.1021 30.2397 46.3889 31.1849 46.3889 32.1519C46.3875 33.4482 45.8719 34.691 44.9553 35.6076C44.0387 36.5242 42.7959 37.0398 41.4996 37.0412Z" fill="black"/>
<path d="M63.25 59.7737H60.745V58.8504C60.7426 57.5014 60.2827 56.1932 59.4403 55.1395C58.598 54.0859 57.4231 53.3492 56.1077 53.0499C56.9248 52.7265 57.6144 52.1462 58.0727 51.3966C58.531 50.6469 58.7331 49.7685 58.6484 48.8939C58.5638 48.0193 58.197 47.196 57.6034 46.5481C57.0098 45.9003 56.2216 45.4631 55.3577 45.3024V43.5647C55.3577 43.3658 55.2787 43.175 55.138 43.0344L51.913 39.8094C51.7715 39.6728 51.5821 39.5972 51.3854 39.5989C51.1888 39.6006 51.0007 39.6795 50.8616 39.8185C50.7226 39.9576 50.6437 40.1457 50.642 40.3424C50.6403 40.539 50.7159 40.7285 50.8525 40.8699L53.8525 43.8699V45.2949C52.9886 45.4556 52.2005 45.8928 51.6069 46.5406C51.0133 47.1885 50.6465 48.0118 50.5618 48.8864C50.4772 49.761 50.6792 50.6394 51.1375 51.3891C51.5958 52.1387 52.2855 52.719 53.1025 53.0424C51.787 53.3417 50.612 54.0785 49.7697 55.1323C48.9273 56.1861 48.4674 57.4946 48.4652 58.8437V59.7669H47.638V58.8504C47.6356 57.5013 47.1755 56.193 46.333 55.1394C45.4905 54.0857 44.3155 53.3491 43 53.0499C43.817 52.7265 44.5067 52.1462 44.965 51.3966C45.4233 50.6469 45.6253 49.7685 45.5407 48.8939C45.456 48.0193 45.0892 47.196 44.4956 46.5481C43.902 45.9003 43.1139 45.4631 42.25 45.3024V44.4572C42.25 44.2582 42.171 44.0675 42.0303 43.9268C41.8897 43.7862 41.6989 43.7072 41.5 43.7072C41.3011 43.7072 41.1103 43.7862 40.9697 43.9268C40.829 44.0675 40.75 44.2582 40.75 44.4572V45.3017C39.8859 45.4621 39.0974 45.8992 38.5035 46.5472C37.9097 47.1951 37.5427 48.0186 37.458 48.8934C37.3733 49.7682 37.5755 50.6469 38.0341 51.3967C38.4926 52.1465 39.1827 52.7267 40 53.0499C38.6845 53.3492 37.5095 54.086 36.6672 55.1398C35.8248 56.1936 35.3649 57.5021 35.3627 58.8512V59.7744H34.531V58.8504C34.5286 57.5014 34.0687 56.1932 33.2263 55.1395C32.384 54.0859 31.2091 53.3492 29.8937 53.0499C30.7108 52.7265 31.4004 52.1462 31.8587 51.3966C32.317 50.6469 32.5191 49.7685 32.4344 48.8939C32.3498 48.0193 31.983 47.196 31.3894 46.5481C30.7958 45.9003 30.0076 45.4631 29.1437 45.3024V43.8774L32.1437 40.8774C32.2804 40.736 32.356 40.5465 32.3543 40.3499C32.3525 40.1532 32.2737 39.9651 32.1346 39.826C31.9956 39.687 31.8074 39.6081 31.6108 39.6064C31.4142 39.6047 31.2247 39.6803 31.0833 39.8169L27.8582 43.0419C27.7176 43.1825 27.6385 43.3733 27.6385 43.5722V45.3092C26.7746 45.4698 25.9865 45.907 25.3929 46.5549C24.7993 47.2028 24.4325 48.0261 24.3478 48.9007C24.2632 49.7752 24.4652 50.6536 24.9235 51.4033C25.3818 52.153 26.0715 52.7333 26.8885 53.0567C25.575 53.3564 24.4018 54.0924 23.5603 55.1446C22.7188 56.1968 22.2587 57.5031 22.255 58.8504V59.7737H19.75C19.5511 59.7737 19.3603 59.8527 19.2197 59.9933C19.079 60.134 19 60.3247 19 60.5237C19 60.7226 19.079 60.9133 19.2197 61.054C19.3603 61.1946 19.5511 61.2737 19.75 61.2737H63.25C63.4489 61.2737 63.6397 61.1946 63.7803 61.054C63.921 60.9133 64 60.7226 64 60.5237C64 60.3247 63.921 60.134 63.7803 59.9933C63.6397 59.8527 63.4489 59.7737 63.25 59.7737ZM52.0518 49.2849C52.0518 48.7794 52.2017 48.2852 52.4825 47.8649C52.7634 47.4445 53.1626 47.1169 53.6296 46.9235C54.0967 46.73 54.6106 46.6794 55.1064 46.778C55.6022 46.8766 56.0577 47.1201 56.4151 47.4775C56.7726 47.835 57.016 48.2904 57.1146 48.7863C57.2133 49.2821 57.1626 49.796 56.9692 50.2631C56.7757 50.7301 56.4481 51.1293 56.0278 51.4101C55.6075 51.691 55.1133 51.8409 54.6077 51.8409C53.93 51.8403 53.2803 51.5708 52.801 51.0916C52.3218 50.6124 52.0523 49.9626 52.0518 49.2849ZM38.9447 49.2849C38.9449 48.7796 39.0949 48.2856 39.3758 47.8655C39.6566 47.4454 40.0557 47.118 40.5227 46.9247C40.9896 46.7314 41.5033 46.6809 41.999 46.7796C42.4946 46.8783 42.9498 47.1217 43.3071 47.4791C43.6644 47.8365 43.9077 48.2918 44.0062 48.7874C44.1047 49.2831 44.0541 49.7968 43.8607 50.2637C43.6672 50.7306 43.3397 51.1296 42.9195 51.4103C42.4993 51.6911 42.0053 51.8409 41.5 51.8409C40.8224 51.8403 40.1727 51.5708 39.6936 51.0916C39.2145 50.6123 38.9451 49.9626 38.9447 49.2849ZM25.837 49.2849C25.837 48.7794 25.9869 48.2851 26.2678 47.8648C26.5487 47.4444 26.9479 47.1168 27.415 46.9234C27.8821 46.73 28.3961 46.6794 28.8919 46.7781C29.3878 46.8768 29.8432 47.1203 30.2006 47.4778C30.5581 47.8354 30.8014 48.2909 30.9 48.7867C30.9985 49.2826 30.9478 49.7965 30.7542 50.2636C30.5606 50.7306 30.2329 51.1297 29.8125 51.4105C29.3921 51.6913 28.8978 51.8411 28.3923 51.8409C27.7147 51.8401 27.0651 51.5705 26.586 51.0914C26.107 50.6122 25.8376 49.9625 25.837 49.2849ZM23.755 59.7737V58.8504C23.7568 57.6704 24.2265 56.5392 25.061 55.7049C25.8956 54.8706 27.0269 54.4013 28.207 54.3999H28.582C29.7624 54.4013 30.894 54.8708 31.7288 55.7054C32.5635 56.5399 33.0332 57.6715 33.0347 58.8519V59.7752L23.755 59.7737ZM36.862 59.7737V58.8504C36.8638 57.6704 37.3335 56.5392 38.168 55.7049C39.0026 54.8706 40.1339 54.4013 41.314 54.3999H41.689C42.8693 54.4013 44.0009 54.8708 44.8355 55.7054C45.6701 56.54 46.1396 57.6716 46.141 58.8519V59.7752L36.862 59.7737ZM49.969 59.7737V58.8504C49.971 57.6703 50.4408 56.5391 51.2755 55.7048C52.1102 54.8706 53.2416 54.4013 54.4217 54.3999H54.793C55.9733 54.4013 57.1049 54.8708 57.9395 55.7054C58.7741 56.54 59.2436 57.6716 59.245 58.8519V59.7752L49.969 59.7737Z" fill="black"/>
</svg>
