<svg width="60" height="60" viewBox="0 0 60 60" fill="none" xmlns="http://www.w3.org/2000/svg">
<path d="M30 49.4531H22.9688V52.9688H30V49.4531Z" fill="white"/>
<path d="M45.9375 7.03125V0H7.03125V60H45.9375V45.9375H52.9688V7.03125H45.9375ZM10.5469 3.51562H42.4219V7.03125H10.5469V3.51562ZM42.4219 10.5469V14.0625H20.1562V10.5469H42.4219ZM10.5469 10.5469H16.6406V42.4219H10.5469V10.5469ZM42.4219 56.4844H10.5469V45.9375H42.4219V56.4844ZM49.4531 42.4219H20.1562V17.5781H49.4531V42.4219ZM49.4531 14.0625H45.9375V10.5469H49.4531V14.0625Z" fill="white"/>
<path d="M34.8047 21.0938C29.8937 21.0938 25.8984 25.0891 25.8984 30C25.8984 34.9109 29.8937 38.9062 34.8047 38.9062C39.7155 38.9062 43.7109 34.9109 43.7109 30C43.7109 25.0891 39.7155 21.0938 34.8047 21.0938ZM34.8047 35.3906C31.8323 35.3906 29.4141 32.9723 29.4141 30C29.4141 27.0277 31.8323 24.6094 34.8047 24.6094C37.777 24.6094 40.1953 27.0277 40.1953 30C40.1953 32.9723 37.777 35.3906 34.8047 35.3906Z" fill="white"/>
<path d="M36.5625 28.2422H33.0469V31.7578H36.5625V28.2422Z" fill="white"/>
</svg>
