<svg width="274" height="204" viewBox="0 0 274 204" fill="none" xmlns="http://www.w3.org/2000/svg">
<path d="M273.868 179.274H0.123047V179.411H273.868V179.274Z" fill="#EBEBEB"/>
<path d="M246.443 188.086H228.309V188.223H246.443V188.086Z" fill="#EBEBEB"/>
<path d="M181.462 189.572H176.703V189.709H181.462V189.572Z" fill="#EBEBEB"/>
<path d="M227.759 183.002H217.252V183.139H227.759V183.002Z" fill="#EBEBEB"/>
<path d="M52.4915 183.922H28.8438V184.059H52.4915V183.922Z" fill="#EBEBEB"/>
<path d="M60.8344 183.922H57.3672V184.059H60.8344V183.922Z" fill="#EBEBEB"/>
<path d="M123.388 186.234H72.1016V186.371H123.388V186.234Z" fill="#EBEBEB"/>
<path d="M129.888 154.857H24.168C22.4451 154.857 21.043 153.454 21.043 151.731V3.12508C21.043 1.40212 22.4451 0 24.168 0H129.888C131.61 0 133.012 1.40212 133.012 3.12508V151.731C133.012 153.454 131.61 154.857 129.888 154.857ZM24.168 0.13742C22.5201 0.13742 21.1798 1.47768 21.1798 3.12562V151.732C21.1798 153.38 22.5201 154.72 24.168 154.72H129.888C131.535 154.72 132.876 153.38 132.876 151.732V3.12508C132.876 1.47768 131.535 0.136873 129.888 0.136873L24.168 0.13742Z" fill="#EBEBEB"/>
<path d="M248.309 154.857H142.589C140.866 154.857 139.465 153.454 139.465 151.731V3.12508C139.465 1.40212 140.867 0 142.589 0H248.309C250.032 0 251.434 1.40212 251.434 3.12508V151.731C251.434 153.454 250.032 154.857 248.309 154.857ZM142.589 0.13742C140.942 0.13742 139.602 1.47768 139.602 3.12562V151.732C139.602 153.38 140.942 154.72 142.589 154.72H248.309C249.957 154.72 251.297 153.38 251.297 151.732V3.12508C251.297 1.47768 249.957 0.136873 248.309 0.136873L142.589 0.13742Z" fill="#EBEBEB"/>
<path d="M164.968 120.698L224.539 120.698V13.0518L164.968 13.0518V120.698Z" fill="#E6E6E6"/>
<path d="M162.219 120.698L223.254 120.698V13.0518L162.219 13.0518V120.698Z" fill="#F0F0F0"/>
<path d="M164.968 123.252L224.539 123.252V120.698H164.968V123.252Z" fill="#E6E6E6"/>
<path d="M161.229 123.252L222.264 123.252V120.698L161.229 120.698V123.252Z" fill="#F0F0F0"/>
<path d="M219.406 116.851L219.406 16.9001L166.068 16.9001L166.068 116.851L219.406 116.851Z" fill="#FAFAFA"/>
<path d="M181.152 116.85L196.168 16.9001H206.83L191.814 116.85H181.152Z" fill="white"/>
<path d="M182.848 116.85L197.863 16.9001H208.525L193.509 116.85H182.848Z" fill="white"/>
<path d="M194.105 116.85L209.121 16.9001H213.278L198.263 116.85H194.105Z" fill="white"/>
<path d="M166.555 116.851L166.555 16.9004H166.066L166.066 116.851H166.555Z" fill="#E6E6E6"/>
<path opacity="0.6" d="M161.311 19.8003H220.881L221.235 18.396H161.665L161.311 19.8003Z" fill="#EBEBEB"/>
<path opacity="0.6" d="M161.311 22.1041H220.881L221.235 20.6992H161.665L161.311 22.1041Z" fill="#EBEBEB"/>
<path opacity="0.6" d="M161.311 24.4075H220.881L221.235 23.0027H161.665L161.311 24.4075Z" fill="#EBEBEB"/>
<path opacity="0.6" d="M161.311 26.7105H220.881L221.235 25.3062H161.665L161.311 26.7105Z" fill="#EBEBEB"/>
<path opacity="0.6" d="M161.311 29.0139H220.881L221.235 27.6096H161.665L161.311 29.0139Z" fill="#EBEBEB"/>
<path opacity="0.6" d="M161.311 31.3174H220.881L221.235 29.9131H161.665L161.311 31.3174Z" fill="#EBEBEB"/>
<path d="M236.336 6.59619H150.426V8.67173H236.336V6.59619Z" fill="#F0F0F0"/>
<path opacity="0.8" d="M234.782 4.84839H230.266V137.799H234.782V4.84839Z" fill="#FAFAFA"/>
<path opacity="0.8" d="M231.435 4.84839H230.266V137.799H231.435V4.84839Z" fill="#F0F0F0"/>
<path opacity="0.8" d="M230.266 4.84839H225.75V137.799H230.266V4.84839Z" fill="#FAFAFA"/>
<path opacity="0.8" d="M226.919 4.84839H225.75V137.799H226.919V4.84839Z" fill="#F0F0F0"/>
<path opacity="0.8" d="M225.753 4.84839H221.236V137.799H225.753V4.84839Z" fill="#FAFAFA"/>
<path opacity="0.8" d="M164.969 4.84839H160.453V137.799H164.969V4.84839Z" fill="#FAFAFA"/>
<path opacity="0.8" d="M161.622 4.84839H160.453V137.799H161.622V4.84839Z" fill="#F0F0F0"/>
<path opacity="0.8" d="M160.454 4.84839H155.938V137.799H160.454V4.84839Z" fill="#FAFAFA"/>
<path opacity="0.8" d="M157.106 4.84839H155.938V137.799H157.106V4.84839Z" fill="#F0F0F0"/>
<path opacity="0.8" d="M155.936 4.84839H151.42V137.799H155.936V4.84839Z" fill="#FAFAFA"/>
<path d="M46.8491 120.698L106.42 120.698L106.42 13.052L46.8491 13.052L46.8491 120.698Z" fill="#E6E6E6"/>
<path d="M44.098 120.698L105.133 120.698L105.133 13.052L44.098 13.052L44.098 120.698Z" fill="#F0F0F0"/>
<path d="M46.8491 123.252L106.42 123.252V120.698H46.8491V123.252Z" fill="#E6E6E6"/>
<path d="M43.1078 123.252L104.143 123.252V120.698L43.1078 120.698V123.252Z" fill="#F0F0F0"/>
<path d="M101.285 116.851L101.285 16.9004L47.9465 16.9004L47.9465 116.851L101.285 116.851Z" fill="#FAFAFA"/>
<path d="M63.0352 116.85L78.0512 16.9001H88.713L73.697 116.85H63.0352Z" fill="white"/>
<path d="M64.7266 116.85L79.7426 16.9001H90.4044L75.3884 116.85H64.7266Z" fill="white"/>
<path d="M75.9844 116.85L91.0004 16.9001H95.1569L80.1409 116.85H75.9844Z" fill="white"/>
<path d="M48.4375 116.851L48.4375 16.9001H47.9491L47.9491 116.851H48.4375Z" fill="#E6E6E6"/>
<path opacity="0.6" d="M43.1875 19.8003H102.758L103.112 18.396H43.5417L43.1875 19.8003Z" fill="#EBEBEB"/>
<path opacity="0.6" d="M43.1875 22.1041H102.758L103.112 20.6992H43.5417L43.1875 22.1041Z" fill="#EBEBEB"/>
<path opacity="0.6" d="M43.1875 24.4075H102.758L103.112 23.0027H43.5417L43.1875 24.4075Z" fill="#EBEBEB"/>
<path opacity="0.6" d="M43.1875 26.7105H102.758L103.112 25.3062H43.5417L43.1875 26.7105Z" fill="#EBEBEB"/>
<path opacity="0.6" d="M43.1875 29.0139H102.758L103.112 27.6096H43.5417L43.1875 29.0139Z" fill="#EBEBEB"/>
<path opacity="0.6" d="M43.1875 31.3174H102.758L103.112 29.9131H43.5417L43.1875 31.3174Z" fill="#EBEBEB"/>
<path d="M118.213 6.59619H32.3027V8.67173H118.213V6.59619Z" fill="#F0F0F0"/>
<path opacity="0.8" d="M116.663 4.84839H112.146V137.799H116.663V4.84839Z" fill="#FAFAFA"/>
<path opacity="0.8" d="M113.315 4.84839H112.146V137.799H113.315V4.84839Z" fill="#F0F0F0"/>
<path opacity="0.8" d="M112.145 4.84839H107.629V137.799H112.145V4.84839Z" fill="#FAFAFA"/>
<path opacity="0.8" d="M108.798 4.84839H107.629V137.799H108.798V4.84839Z" fill="#F0F0F0"/>
<path opacity="0.8" d="M107.63 4.84839H103.113V137.799H107.63V4.84839Z" fill="#FAFAFA"/>
<path opacity="0.8" d="M46.8463 4.84839H42.3301V137.799H46.8463V4.84839Z" fill="#FAFAFA"/>
<path opacity="0.8" d="M43.499 4.84839H42.3301V137.799H43.499V4.84839Z" fill="#F0F0F0"/>
<path opacity="0.8" d="M42.3287 4.84839H37.8125V137.799H42.3287V4.84839Z" fill="#FAFAFA"/>
<path opacity="0.8" d="M38.9814 4.84839H37.8125V137.799H38.9814V4.84839Z" fill="#F0F0F0"/>
<path opacity="0.8" d="M37.8151 4.84839H33.2988V137.799H37.8151V4.84839Z" fill="#FAFAFA"/>
<path d="M205.855 175.557H215.061V129.569H205.855V175.557Z" fill="#F0F0F0"/>
<path d="M133.706 179.274H211.701V175.557H133.706V179.274Z" fill="#F0F0F0"/>
<path d="M205.852 129.569H130.344V175.556H205.852V129.569Z" fill="#F5F5F5"/>
<path d="M198.977 134.44H137.227V149.735H198.977V134.44Z" fill="#F0F0F0"/>
<path d="M198.977 153.243H137.227V168.538H198.977V153.243Z" fill="#F0F0F0"/>
<path d="M160.78 136.549H175.419C176.145 136.549 176.739 135.955 176.739 135.229C176.739 134.504 176.145 133.91 175.419 133.91H160.78C160.055 133.91 159.461 134.503 159.461 135.229C159.461 135.955 160.055 136.549 160.78 136.549Z" fill="#F5F5F5"/>
<path d="M160.78 155.353H175.419C176.145 155.353 176.739 154.759 176.739 154.033C176.739 153.308 176.145 152.714 175.419 152.714H160.78C160.055 152.714 159.461 153.307 159.461 154.033C159.461 154.759 160.055 155.353 160.78 155.353Z" fill="#F5F5F5"/>
<path d="M128.012 129.569H205.852V127.774L128.012 127.774V129.569Z" fill="#F0F0F0"/>
<path d="M217.502 127.774H205.852V129.569H217.502V127.774Z" fill="#E6E6E6"/>
<path d="M59.4352 176.224C57.259 176.224 55.4785 174.443 55.4785 172.267V133.526C55.4785 131.349 57.259 129.569 59.4352 129.569C61.6115 129.569 63.3919 131.349 63.3919 133.526V172.267C63.3919 174.443 61.6115 176.224 59.4352 176.224Z" fill="#F5F5F5"/>
<path d="M61.7013 174.666C60.2307 174.666 59.0273 173.462 59.0273 171.992V133.802C59.0273 132.331 60.2307 131.128 61.7013 131.128C63.1718 131.128 64.3752 132.331 64.3752 133.802V171.992C64.3752 173.462 63.1724 174.666 61.7013 174.666Z" fill="#EBEBEB"/>
<path d="M65.1833 176.224C63.007 176.224 61.2266 174.443 61.2266 172.267V133.526C61.2266 131.349 63.007 129.569 65.1833 129.569C67.3595 129.569 69.14 131.349 69.14 133.526V172.267C69.14 174.443 67.3595 176.224 65.1833 176.224Z" fill="#F5F5F5"/>
<path d="M67.4474 174.666C65.9768 174.666 64.7734 173.462 64.7734 171.992V133.802C64.7734 132.331 65.9768 131.128 67.4474 131.128C68.9179 131.128 70.1213 132.331 70.1213 133.802V171.992C70.1213 173.462 68.9179 174.666 67.4474 174.666Z" fill="#EBEBEB"/>
<path d="M70.9313 176.224C68.755 176.224 66.9746 174.443 66.9746 172.267V133.526C66.9746 131.349 68.755 129.569 70.9313 129.569C73.1076 129.569 74.888 131.349 74.888 133.526V172.267C74.888 174.443 73.1076 176.224 70.9313 176.224Z" fill="#F5F5F5"/>
<path d="M73.1954 174.666C71.7249 174.666 70.5215 173.462 70.5215 171.992V133.802C70.5215 132.331 71.7249 131.128 73.1954 131.128C74.666 131.128 75.8694 132.331 75.8694 133.802V171.992C75.8694 173.462 74.666 174.666 73.1954 174.666Z" fill="#EBEBEB"/>
<path d="M76.6794 176.224C74.5031 176.224 72.7227 174.443 72.7227 172.267V133.526C72.7227 131.349 74.5031 129.569 76.6794 129.569C78.8556 129.569 80.6361 131.349 80.6361 133.526V172.267C80.6361 174.443 78.8556 176.224 76.6794 176.224Z" fill="#F5F5F5"/>
<path d="M78.9435 174.666C77.4729 174.666 76.2695 173.462 76.2695 171.992V133.802C76.2695 132.331 77.4729 131.128 78.9435 131.128C80.414 131.128 81.6174 132.331 81.6174 133.802V171.992C81.618 173.462 80.4146 174.666 78.9435 174.666Z" fill="#EBEBEB"/>
<path d="M82.4274 176.224C80.2511 176.224 78.4707 174.443 78.4707 172.267V133.526C78.4707 131.349 80.2511 129.569 82.4274 129.569C84.6037 129.569 86.3841 131.349 86.3841 133.526V172.267C86.3841 174.443 84.6031 176.224 82.4274 176.224Z" fill="#F5F5F5"/>
<path d="M84.6935 174.666C83.2229 174.666 82.0195 173.462 82.0195 171.992V133.802C82.0195 132.331 83.2229 131.128 84.6935 131.128C86.164 131.128 87.3674 132.331 87.3674 133.802V171.992C87.3674 173.462 86.164 174.666 84.6935 174.666Z" fill="#EBEBEB"/>
<path d="M88.1755 176.224C85.9992 176.224 84.2188 174.443 84.2188 172.267V133.526C84.2188 131.349 85.9992 129.569 88.1755 129.569C90.3517 129.569 92.1322 131.349 92.1322 133.526V172.267C92.1322 174.443 90.3517 176.224 88.1755 176.224Z" fill="#F5F5F5"/>
<path d="M90.4415 174.666C88.971 174.666 87.7676 173.462 87.7676 171.992V133.802C87.7676 132.331 88.971 131.128 90.4415 131.128C91.9121 131.128 93.1155 132.331 93.1155 133.802V171.992C93.1155 173.462 91.9121 174.666 90.4415 174.666Z" fill="#EBEBEB"/>
<path d="M93.9216 176.224C91.7453 176.224 89.9648 174.443 89.9648 172.267V133.526C89.9648 131.349 91.7453 129.569 93.9216 129.569C96.0978 129.569 97.8783 131.349 97.8783 133.526V172.267C97.8783 174.443 96.0978 176.224 93.9216 176.224Z" fill="#F5F5F5"/>
<path d="M98.7733 171.037H87.1676C86.6852 171.037 86.291 170.643 86.291 170.161C86.291 169.679 86.6852 169.284 87.1676 169.284H98.7733C99.2556 169.284 99.6498 169.679 99.6498 170.161C99.6498 170.643 99.255 171.037 98.7733 171.037Z" fill="#F5F5F5"/>
<path d="M98.7733 137.653H87.1676C86.6852 137.653 86.291 137.259 86.291 136.777C86.291 136.295 86.6852 135.9 87.1676 135.9H98.7733C99.2556 135.9 99.6498 136.295 99.6498 136.777C99.6498 137.259 99.255 137.653 98.7733 137.653Z" fill="#F5F5F5"/>
<path d="M136.996 204C195.622 204 243.148 201.225 243.148 197.801C243.148 194.377 195.622 191.602 136.996 191.602C78.3698 191.602 30.8438 194.377 30.8438 197.801C30.8438 201.225 78.3698 204 136.996 204Z" fill="#F5F5F5"/>
<path d="M224.503 106.055H93.6385C90.6465 106.055 88.3503 103.607 88.5359 100.615L93.3314 23.3757C93.517 20.3836 96.117 17.9358 99.109 17.9358H229.973C232.965 17.9358 235.261 20.3836 235.075 23.3757L230.279 100.615C230.095 103.607 227.495 106.055 224.503 106.055Z" fill="#407BFF"/>
<path opacity="0.8" d="M224.503 106.055H93.6385C90.6465 106.055 88.3503 103.607 88.5359 100.615L93.3314 23.3757C93.517 20.3836 96.117 17.9358 99.109 17.9358H229.973C232.965 17.9358 235.261 20.3836 235.075 23.3757L230.279 100.615C230.095 103.607 227.495 106.055 224.503 106.055Z" fill="white"/>
<path opacity="0.4" d="M110.422 40.1926H94.8392C93.9868 40.1926 93.3391 39.5017 93.3917 38.6492L93.8346 31.5143C93.8877 30.6619 94.6213 29.9709 95.4738 29.9709H111.057L110.422 40.1926Z" fill="white"/>
<path d="M229.889 19.2957H115.798C113.545 19.2957 111.605 21.1226 111.465 23.3756L110.365 41.0989H94.7818C93.9294 41.0989 93.1958 41.7898 93.1426 42.6423L92.7277 49.3239C92.6745 50.1763 93.3228 50.8672 94.1752 50.8672H109.758L106.67 100.615C106.53 102.868 108.244 104.695 110.497 104.695H224.587C226.841 104.695 228.781 102.868 228.921 100.615L233.716 23.3756C233.855 21.1221 232.142 19.2957 229.889 19.2957Z" fill="white"/>
<path opacity="0.4" d="M109.096 61.5422H93.513C92.6606 61.5422 92.0129 60.8513 92.0655 59.9989L92.4805 53.3173C92.5336 52.4649 93.2672 51.7739 94.1197 51.7739H109.703L109.096 61.5422Z" fill="white"/>
<path opacity="0.4" d="M108.436 72.2166H92.8529C92.0004 72.2166 91.3528 71.5256 91.4053 70.6732L91.8203 63.9916C91.8734 63.1392 92.6071 62.4482 93.4595 62.4482H109.043L108.436 72.2166Z" fill="white"/>
<path opacity="0.4" d="M107.772 82.8919H92.1888C91.3364 82.8919 90.6887 82.2009 90.7413 81.3485L91.1563 74.6669C91.2094 73.8145 91.943 73.1235 92.7954 73.1235H108.379L107.772 82.8919Z" fill="white"/>
<path opacity="0.4" d="M107.109 93.5667H91.5267C90.6743 93.5667 90.0266 92.8757 90.0792 92.0233L90.4942 85.3417C90.5473 84.4893 91.2809 83.7983 92.1333 83.7983H107.717L107.109 93.5667Z" fill="white"/>
<path opacity="0.2" d="M94.6344 49.6221C94.4526 49.6221 94.2884 49.5531 94.1707 49.4283C94.0529 49.3024 93.9938 49.1326 94.0053 48.9498L94.3699 43.0834C94.3946 42.6826 94.7543 42.3438 95.1545 42.3438H108.364C108.546 42.3438 108.71 42.4127 108.828 42.5376C108.945 42.6629 109.004 42.8327 108.993 43.0155L108.628 48.8819C108.604 49.2826 108.244 49.6215 107.844 49.6215H94.6344V49.6221Z" fill="#407BFF"/>
<path opacity="0.3" d="M138.626 28.4986H119.788C118.347 28.4986 117.241 27.3199 117.331 25.8795C117.421 24.439 118.673 23.2603 120.113 23.2603H138.952C140.392 23.2603 141.498 24.439 141.408 25.8795C141.319 27.3199 140.067 28.4986 138.626 28.4986Z" fill="#407BFF"/>
<path d="M228.406 25.8795C228.316 27.3259 227.07 28.4986 225.624 28.4986C224.177 28.4986 223.077 27.3259 223.167 25.8795C223.257 24.433 224.503 23.2603 225.949 23.2603C227.396 23.2603 228.495 24.433 228.406 25.8795Z" fill="#407BFF"/>
<path opacity="0.4" d="M175.067 73.302H119.466C116.603 73.302 114.418 70.9724 114.596 68.1096L116.274 41.0943C116.452 38.2309 118.925 35.9019 121.788 35.9019H177.389C180.253 35.9019 182.438 38.2314 182.26 41.0943L180.582 68.1096C180.404 70.9724 177.93 73.302 175.067 73.302ZM121.774 36.1285C119.036 36.1285 116.67 38.3563 116.5 41.0943L114.823 68.1096C114.652 70.8476 116.742 73.0754 119.48 73.0754H175.081C177.82 73.0754 180.185 70.8476 180.356 68.1096L182.033 41.0943C182.203 38.3563 180.114 36.1285 177.375 36.1285H121.774Z" fill="#407BFF"/>
<path d="M126.23 53.8694L134.206 59.0273C135.8 56.701 137.935 54.765 140.408 53.4095L136.122 44.9097C132.178 47.0723 128.772 50.159 126.23 53.8694Z" fill="#407BFF"/>
<path opacity="0.8" d="M126.23 53.8694L134.206 59.0273C135.8 56.701 137.935 54.765 140.408 53.4095L136.122 44.9097C132.178 47.0723 128.772 50.159 126.23 53.8694Z" fill="white"/>
<path d="M121.42 67.6984H131.189C131.387 64.5148 132.48 61.5441 134.205 59.0273L126.229 53.8694C123.478 57.8836 121.735 62.6205 121.42 67.6984Z" fill="#263238"/>
<path d="M149.238 41.5054C144.543 41.5054 140.064 42.7465 136.119 44.9097L140.405 53.4095C142.879 52.0533 145.688 51.2748 148.631 51.2748C157.702 51.2748 164.598 58.6281 164.036 67.6984H173.805C174.703 53.2326 163.704 41.5054 149.238 41.5054Z" fill="#407BFF"/>
<path d="M142.9 83.2367H114.268C113.993 83.2367 113.785 83.0138 113.802 82.739L113.927 80.7242C113.944 80.4494 114.18 80.2266 114.455 80.2266H143.087L142.9 83.2367Z" fill="#407BFF"/>
<path opacity="0.2" d="M142.898 83.2367H179.031C179.305 83.2367 179.542 83.0138 179.559 82.739L179.684 80.7242C179.701 80.4494 179.492 80.2266 179.217 80.2266H143.085L142.898 83.2367Z" fill="#407BFF"/>
<path d="M162.347 91.1905H113.774C113.499 91.1905 113.291 90.9677 113.308 90.6929L113.432 88.6781C113.449 88.4032 113.686 88.1804 113.961 88.1804H162.534L162.347 91.1905Z" fill="#407BFF"/>
<path opacity="0.2" d="M162.346 91.1905H178.537C178.812 91.1905 179.049 90.9677 179.066 90.6929L179.19 88.6781C179.207 88.4032 178.999 88.1804 178.724 88.1804H162.532L162.346 91.1905Z" fill="#407BFF"/>
<path d="M118.983 99.1438H113.278C113.003 99.1438 112.795 98.921 112.812 98.6467L112.937 96.6319C112.954 96.3571 113.19 96.1343 113.465 96.1343H119.171L118.983 99.1438Z" fill="#407BFF"/>
<path opacity="0.2" d="M118.984 99.1438H178.044C178.319 99.1438 178.555 98.921 178.572 98.6467L178.697 96.6319C178.714 96.3571 178.506 96.1343 178.231 96.1343H119.171L118.984 99.1438Z" fill="#407BFF"/>
<path d="M191.07 99.3706C190.945 99.3706 190.85 99.2693 190.858 99.1439L194.777 36.015C194.785 35.8896 194.893 35.7883 195.018 35.7883C195.144 35.7883 195.238 35.8896 195.231 36.015L191.311 99.1439C191.304 99.2693 191.196 99.3706 191.07 99.3706Z" fill="#407BFF"/>
<path d="M195.487 52.5509C195.435 53.3852 194.716 54.0619 193.881 54.0619C193.047 54.0619 192.412 53.3852 192.464 52.5509C192.516 51.7165 193.234 51.0398 194.069 51.0398C194.903 51.0398 195.539 51.7159 195.487 52.5509Z" fill="white"/>
<path d="M193.868 54.2887C192.91 54.2887 192.178 53.5091 192.238 52.551C192.297 51.5929 193.125 50.8132 194.083 50.8132C195.041 50.8132 195.773 51.5929 195.713 52.551C195.654 53.5091 194.826 54.2887 193.868 54.2887ZM194.055 51.2666C193.346 51.2666 192.734 51.8425 192.691 52.551C192.647 53.2594 193.187 53.8354 193.896 53.8354C194.604 53.8354 195.216 53.2594 195.26 52.551C195.304 51.8425 194.763 51.2666 194.055 51.2666Z" fill="#407BFF"/>
<path d="M194.642 66.151C194.59 66.9853 193.872 67.662 193.038 67.662C192.203 67.662 191.569 66.9853 191.62 66.151C191.672 65.3166 192.39 64.6399 193.225 64.6399C194.059 64.6399 194.694 65.316 194.642 66.151Z" fill="white"/>
<path d="M193.022 67.8889C192.064 67.8889 191.332 67.1092 191.392 66.1511C191.452 65.1925 192.28 64.4128 193.238 64.4128C194.196 64.4128 194.927 65.1925 194.868 66.1511C194.808 67.1092 193.981 67.8889 193.022 67.8889ZM193.21 64.8662C192.501 64.8662 191.889 65.4427 191.845 66.1511C191.802 66.8596 192.342 67.4355 193.05 67.4355C193.759 67.4355 194.37 66.8596 194.415 66.1511C194.459 65.4427 193.918 64.8662 193.21 64.8662Z" fill="#407BFF"/>
<path d="M192.721 72.7639L190.721 75.8917H194.333L192.721 72.7639Z" fill="white"/>
<path d="M194.318 76.1186H190.705C190.624 76.1186 190.552 76.0754 190.516 76.0053C190.48 75.9352 190.485 75.8487 190.53 75.7786L192.531 72.6503C192.62 72.5101 192.851 72.5101 192.923 72.6503L194.535 75.7786C194.571 75.8487 194.566 75.9352 194.521 76.0053C194.476 76.0754 194.399 76.1186 194.318 76.1186ZM191.126 75.6653H193.953L192.692 73.2169L191.126 75.6653Z" fill="#407BFF"/>
<path d="M218.27 99.3706C218.144 99.3706 218.049 99.2693 218.057 99.1439L221.977 36.015C221.984 35.8896 222.092 35.7883 222.217 35.7883C222.343 35.7883 222.438 35.8896 222.43 36.015L218.51 99.1439C218.503 99.2693 218.395 99.3706 218.27 99.3706Z" fill="#407BFF"/>
<path d="M221.131 77.6112C221.183 76.7768 220.548 76.1001 219.713 76.1001C218.879 76.1001 218.16 76.7768 218.108 77.6112C218.056 78.4456 218.691 79.1222 219.526 79.1222C220.36 79.1222 221.079 78.4456 221.131 77.6112Z" fill="white"/>
<path d="M219.512 79.3488C218.554 79.3488 217.823 78.5692 217.882 77.6111C217.942 76.6524 218.77 75.8728 219.728 75.8728C220.686 75.8728 221.417 76.6524 221.358 77.6111C221.298 78.5692 220.47 79.3488 219.512 79.3488ZM219.699 76.3261C218.991 76.3261 218.379 76.9026 218.335 77.6111C218.291 78.3195 218.832 78.8955 219.54 78.8955C220.249 78.8955 220.861 78.3195 220.904 77.6111C220.948 76.9026 220.408 76.3261 219.699 76.3261Z" fill="#407BFF"/>
<path d="M223.244 43.6051C223.296 42.7707 222.662 42.094 221.827 42.094C220.993 42.094 220.274 42.7707 220.222 43.6051C220.17 44.4394 220.804 45.1161 221.639 45.1161C222.474 45.1161 223.193 44.44 223.244 43.6051Z" fill="white"/>
<path d="M221.622 45.3424C220.663 45.3424 219.932 44.5628 219.992 43.6047C220.051 42.6466 220.879 41.8669 221.837 41.8669C222.795 41.8669 223.527 42.6466 223.467 43.6047C223.408 44.5628 222.58 45.3424 221.622 45.3424ZM221.809 42.3203C221.101 42.3203 220.489 42.8962 220.445 43.6047C220.401 44.3131 220.942 44.8891 221.65 44.8891C222.359 44.8891 222.971 44.3131 223.014 43.6047C223.058 42.8968 222.518 42.3203 221.809 42.3203Z" fill="#407BFF"/>
<path d="M220.565 62.3945L218.953 59.2661H222.565L220.565 62.3945Z" fill="white"/>
<path d="M220.552 62.6215C220.47 62.6215 220.398 62.5782 220.362 62.5081L218.75 59.3798C218.714 59.3097 218.72 59.2232 218.765 59.1531C218.809 59.083 218.887 59.0398 218.968 59.0398H222.58C222.661 59.0398 222.733 59.083 222.769 59.1531C222.806 59.2232 222.8 59.3097 222.755 59.3798L220.755 62.5081C220.71 62.5782 220.633 62.6215 220.552 62.6215ZM219.332 59.4931L220.594 61.9415L222.159 59.4931H219.332Z" fill="#407BFF"/>
<path d="M204.668 99.3706C204.543 99.3706 204.448 99.2693 204.456 99.1439L208.375 36.015C208.383 35.8896 208.491 35.7883 208.616 35.7883C208.741 35.7883 208.837 35.8896 208.828 36.015L204.909 99.1439C204.901 99.2693 204.793 99.3706 204.668 99.3706Z" fill="#407BFF"/>
<path d="M208.845 56.4293C208.793 57.2637 208.075 57.9404 207.241 57.9404C206.406 57.9404 205.772 57.2637 205.823 56.4293C205.875 55.5949 206.594 54.9182 207.428 54.9182C208.263 54.9182 208.897 55.5949 208.845 56.4293Z" fill="white"/>
<path d="M207.227 58.1669C206.269 58.1669 205.537 57.3872 205.597 56.4291C205.657 55.471 206.485 54.6914 207.443 54.6914C208.401 54.6914 209.132 55.471 209.073 56.4291C209.013 57.3872 208.185 58.1669 207.227 58.1669ZM207.415 55.1447C206.706 55.1447 206.094 55.7207 206.05 56.4291C206.007 57.1376 206.547 57.7136 207.256 57.7136C207.964 57.7136 208.576 57.1376 208.62 56.4291C208.663 55.7207 208.123 55.1447 207.415 55.1447Z" fill="#407BFF"/>
<path d="M206.971 86.6698C206.919 87.5041 206.201 88.1808 205.366 88.1808C204.531 88.1808 203.897 87.5041 203.948 86.6698C204 85.8354 204.719 85.1587 205.553 85.1587C206.388 85.1587 207.022 85.8354 206.971 86.6698Z" fill="white"/>
<path d="M205.35 88.4077C204.392 88.4077 203.661 87.628 203.72 86.6694C203.78 85.7113 204.608 84.9316 205.566 84.9316C206.524 84.9316 207.255 85.7113 207.196 86.6694C207.137 87.628 206.309 88.4077 205.35 88.4077ZM205.538 85.385C204.829 85.385 204.217 85.9609 204.174 86.6694C204.13 87.3778 204.67 87.9543 205.379 87.9543C206.087 87.9543 206.699 87.3778 206.743 86.6694C206.787 85.9609 206.246 85.385 205.538 85.385Z" fill="#407BFF"/>
<path d="M208.42 38.9653L206.42 42.0937H210.032L208.42 38.9653Z" fill="white"/>
<path d="M210.019 42.3205H206.407C206.325 42.3205 206.253 42.2773 206.217 42.2072C206.181 42.1371 206.186 42.0506 206.231 41.9806L208.232 38.8522C208.322 38.712 208.552 38.712 208.624 38.8522L210.236 41.9806C210.272 42.0506 210.267 42.1371 210.222 42.2072C210.177 42.2778 210.1 42.3205 210.019 42.3205ZM206.828 41.8672H209.654L208.393 39.4188L206.828 41.8672Z" fill="#407BFF"/>
<path d="M61.1906 55.217L60.6354 57.8855L60.0896 60.6197C59.7304 62.4401 59.4216 64.2588 59.1413 66.0426C59.0033 66.9361 58.8927 67.8181 58.798 68.6875C58.6918 69.5564 58.6212 70.4022 58.5779 71.2153C58.5298 72.0277 58.5434 72.8013 58.5703 73.4512C58.5905 74.0918 58.7088 74.6387 58.683 74.7L58.3173 74.0699C58.1503 73.904 57.852 73.754 57.8016 73.8246C57.7441 73.8783 57.9434 74.0217 58.2927 74.1131C58.6393 74.2057 59.1304 74.273 59.6685 74.302C60.2127 74.3283 60.8084 74.3015 61.4325 74.2577C62.6847 74.1728 64.0276 73.9626 65.3925 73.7102C66.0753 73.5799 66.7695 73.4474 67.4604 73.2913L69.5086 72.8473L69.7812 72.7882C71.3312 72.452 72.8603 73.4364 73.1965 74.9864C73.4428 76.1235 72.9769 77.2497 72.1004 77.9018L71.0804 78.6584L70.0687 79.3455C69.3837 79.7829 68.6868 80.21 67.9657 80.6042C66.5226 81.3964 65.0027 82.0977 63.3307 82.6753C62.4925 82.9611 61.611 83.1976 60.6655 83.3898C59.714 83.576 58.7011 83.715 57.553 83.6887C56.4115 83.663 55.1178 83.5135 53.6894 82.9524C52.2697 82.4164 50.7554 81.2957 49.7502 79.8826C49.6429 79.7315 49.5476 79.5749 49.4655 79.4145L49.3845 79.2524C48.5216 77.5382 48.2276 76.1454 47.9851 74.8511C47.7546 73.5602 47.6801 72.3727 47.6352 71.2278C47.5964 70.083 47.5991 68.9716 47.638 67.8876C47.69 66.8047 47.7639 65.7371 47.8635 64.687C48.0519 62.5835 48.3623 60.5337 48.7171 58.5042C48.9049 57.4913 49.0921 56.4812 49.3199 55.4782C49.4332 54.9761 49.5427 54.4741 49.667 53.9715L50.0683 52.4205C50.8611 49.3556 53.9883 47.5133 57.0532 48.3061C60.0244 49.0748 61.8464 52.0367 61.2327 55.0095L61.1906 55.217Z" fill="#407BFF"/>
<path opacity="0.2" d="M61.1906 55.217L60.6354 57.8855L60.0896 60.6197C59.7304 62.4401 59.4216 64.2588 59.1413 66.0426C59.0033 66.9361 58.8927 67.8181 58.798 68.6875C58.6918 69.5564 58.6212 70.4022 58.5779 71.2153C58.5298 72.0277 58.5434 72.8013 58.5703 73.4512C58.5905 74.0918 58.7088 74.6387 58.683 74.7L58.3173 74.0699C58.1503 73.904 57.852 73.754 57.8016 73.8246C57.7441 73.8783 57.9434 74.0217 58.2927 74.1131C58.6393 74.2057 59.1304 74.273 59.6685 74.302C60.2127 74.3283 60.8084 74.3015 61.4325 74.2577C62.6847 74.1728 64.0276 73.9626 65.3925 73.7102C66.0753 73.5799 66.7695 73.4474 67.4604 73.2913L69.5086 72.8473L69.7812 72.7882C71.3312 72.452 72.8603 73.4364 73.1965 74.9864C73.4428 76.1235 72.9769 77.2497 72.1004 77.9018L71.0804 78.6584L70.0687 79.3455C69.3837 79.7829 68.6868 80.21 67.9657 80.6042C66.5226 81.3964 65.0027 82.0977 63.3307 82.6753C62.4925 82.9611 61.611 83.1976 60.6655 83.3898C59.714 83.576 58.7011 83.715 57.553 83.6887C56.4115 83.663 55.1178 83.5135 53.6894 82.9524C52.2697 82.4164 50.7554 81.2957 49.7502 79.8826C49.6429 79.7315 49.5476 79.5749 49.4655 79.4145L49.3845 79.2524C48.5216 77.5382 48.2276 76.1454 47.9851 74.8511C47.7546 73.5602 47.6801 72.3727 47.6352 71.2278C47.5964 70.083 47.5991 68.9716 47.638 67.8876C47.69 66.8047 47.7639 65.7371 47.8635 64.687C48.0519 62.5835 48.3623 60.5337 48.7171 58.5042C48.9049 57.4913 49.0921 56.4812 49.3199 55.4782C49.4332 54.9761 49.5427 54.4741 49.667 53.9715L50.0683 52.4205C50.8611 49.3556 53.9883 47.5133 57.0532 48.3061C60.0244 49.0748 61.8464 52.0367 61.2327 55.0095L61.1906 55.217Z" fill="black"/>
<path d="M47.3384 195.248C47.3384 195.248 42.1559 190.548 42.2687 189.063L37.9616 186.857L35.4004 191.282L37.7798 192.613L38.4264 192.415L38.86 193.166C41.0078 194.266 45.6927 196.401 47.3318 196.341C47.6477 195.63 47.3384 195.248 47.3384 195.248Z" fill="#263238"/>
<path d="M47.704 139.977C50.8367 117.549 49.814 103.914 53.1028 92.8598L73.47 91.2212C73.47 91.2212 64.4435 126.805 60.3045 141.622C56.1496 156.496 43.2064 190.031 43.2064 190.031L37.5371 187.128C37.5371 187.128 42.1891 157.328 47.704 139.977Z" fill="#263238"/>
<path opacity="0.2" d="M64.3157 107.808C62.9289 111.014 60.2254 131.584 60.2364 141.856C60.2583 141.78 60.2802 141.698 60.3021 141.621C61.7556 136.415 63.8159 128.64 65.875 120.746L64.3157 107.808Z" fill="black"/>
<path d="M80.0559 195.985C80.0559 195.985 71.6081 194.068 71.2211 192.695H65.8611L65.416 197.8H68.3949L68.9451 197.33L69.6081 197.8C72.0215 197.8 78.9845 197.821 80.483 196.927C80.495 196.154 80.0559 195.985 80.0559 195.985Z" fill="#263238"/>
<path d="M65.7534 140.607C61.2793 110.212 61.2793 91.3971 61.2793 91.3971L81.2101 91.0757C81.2101 91.0757 78.8171 127.32 77.9849 142.501C77.1215 158.286 72.1935 193.024 72.1935 193.024H65.2464C65.2464 193.024 63.656 160.121 65.7534 140.607Z" fill="#263238"/>
<path d="M63.5908 34.3398C62.6453 40.2976 60.924 43.4994 59.7715 46.4607C61.7824 48.3299 66.0862 50.6496 70.43 50.5866C74.7738 50.5237 73.9794 47.5858 72.8143 46.0726C69.7019 44.5024 69.5809 42.9146 70.3419 41.5191L63.5908 34.3398Z" fill="#7F3E3B"/>
<path d="M56.1406 47.3044C56.1406 47.3044 58.9126 44.0452 60.0048 43.4994C61.0971 42.9535 69.3828 44.0737 71.3395 44.4378C73.2962 44.8018 75.6751 47.7139 75.6751 47.7139L56.1406 47.3044Z" fill="#263238"/>
<path d="M77.3079 33.8386C77.2198 34.2312 77.3572 34.5942 77.6145 34.6495C77.8718 34.7048 78.1522 34.4316 78.2403 34.039C78.3285 33.6465 78.191 33.2835 77.9337 33.2282C77.6758 33.1734 77.3961 33.4466 77.3079 33.8386Z" fill="#263238"/>
<path d="M77.1614 34.3818C77.1614 34.3818 77.5479 36.8384 78.2881 38.1431C77.4461 38.6413 76.3281 38.09 76.3281 38.09L77.1614 34.3818Z" fill="#630F0F"/>
<path d="M78.6695 31.5789C78.6055 31.6205 78.5222 31.6304 78.4472 31.5975C77.4952 31.1814 76.7763 31.6369 76.7462 31.6561C76.6372 31.7273 76.4916 31.6966 76.421 31.5871C76.3503 31.4776 76.3805 31.332 76.4889 31.2597C76.5288 31.2345 77.4437 30.6399 78.6361 31.1617C78.7549 31.2137 78.8091 31.3533 78.7571 31.4738C78.7385 31.5187 78.7073 31.5542 78.6695 31.5789Z" fill="#263238"/>
<path d="M64.2784 29.842C63.4928 34.7257 62.7838 37.5463 64.6699 40.546C67.5075 45.0579 73.9723 44.1359 76.2071 39.5726C78.2186 35.4659 79.1658 28.1689 74.863 25.2316C70.6249 22.3387 65.0646 24.9579 64.2784 29.842Z" fill="#7F3E3B"/>
<path d="M73.1547 34.5184C77.1087 35.3702 75.9567 30.4861 75.014 29.9999C77.3862 31.4256 78.9641 29.7738 78.8212 28.2835C80.6367 27.9797 80.5458 24.9685 79.2986 24.9072C78.508 22.8387 74.8234 21.1054 74.1413 22.3827C72.1511 20.0712 66.8328 20.4665 67.6059 22.1396C65.5812 21.7443 61.2807 21.9266 62.7217 24.9685C59.6497 25.3638 59.7943 30.6219 61.8014 31.1694C59.7028 32.33 61.7335 36.2933 62.6363 38.7789C63.5216 41.2153 72.5623 39.0505 73.1547 34.5184Z" fill="#263238"/>
<path d="M70.9007 34.0195C70.72 35.1879 71.0381 36.2878 71.5505 37.0067C72.3214 38.088 73.5149 37.4151 73.977 36.0978C74.3931 34.912 74.4933 32.9207 73.3939 32.324C72.3105 31.736 71.1071 32.6831 70.9007 34.0195Z" fill="#7F3E3B"/>
<path d="M56.4224 46.7549C63.156 45.9249 72.707 46.001 79.0475 47.1069C82.276 47.6698 84.6948 50.3656 84.9609 53.6325C85.7482 63.3039 83.6086 80.2131 81.7614 97.2319C66.8417 102.238 51.697 97.1645 51.697 97.1645C51.3642 93.7301 53.2141 82.4814 54.3666 76.4743C53.5191 70.2729 51.3696 63.1719 50.1553 54.9366C49.5667 50.9372 52.411 47.2493 56.4224 46.7549Z" fill="#407BFF"/>
<path opacity="0.2" d="M76.6855 60.3003C77.7011 66.1267 80.9286 73.0672 83.8774 77.6601C84.2814 73.6355 84.6203 69.802 84.8382 66.269L76.6855 60.3003Z" fill="black"/>
<path d="M126.01 46.8024C121.387 44.054 115.412 45.5728 112.663 50.1952C110.014 54.6491 111.337 60.3517 115.573 63.2211C114.597 64.5356 111.751 68.3998 110.867 69.8857C109.795 71.6881 109.224 73.3075 109.98 73.757C110.735 74.2065 111.886 72.9309 112.958 71.1291C113.841 69.6437 115.876 65.2972 116.566 63.8124C121.109 66.1655 126.751 64.6035 129.4 60.1486C132.148 55.525 130.632 49.5508 126.01 46.8024ZM128.347 59.5217C125.944 63.5633 120.722 64.8877 116.683 62.4869C112.642 60.084 111.312 54.8626 113.715 50.821C116.118 46.7794 121.34 45.4545 125.382 47.858C129.42 50.2593 130.75 55.4807 128.347 59.5217Z" fill="#407BFF"/>
<path opacity="0.2" d="M128.747 59.7585C126.213 64.0197 120.706 65.4169 116.448 62.8847C112.187 60.3509 110.785 54.8454 113.318 50.5843C115.852 46.3231 121.359 44.9259 125.62 47.4597C129.878 49.9913 131.28 55.4969 128.747 59.7585Z" fill="#407BFF"/>
<path d="M114.783 68.2783L113.598 67.2265C113.152 66.8313 112.543 66.6752 111.962 66.8088L109.247 67.4319C108.162 67.681 107.265 68.4403 106.84 69.4691L106.576 70.1058C108.423 71.9842 111.803 72.6538 111.803 72.6538L112.745 72.9517C113.584 73.2161 114.436 72.7984 114.703 71.9908L115.317 70.1315C115.53 69.4893 115.317 68.7519 114.783 68.2783Z" fill="#7F3E3B"/>
<path d="M84.6948 51.6494L85.8002 54.0512L86.9554 56.5029C87.7279 58.1322 88.5421 59.7287 89.3584 61.2781C89.7701 62.0506 90.1933 62.8045 90.6264 63.5277C91.0485 64.2586 91.4832 64.9594 91.9217 65.6049C92.3553 66.2515 92.813 66.8357 93.2067 67.312C93.5905 67.7856 93.9874 68.1217 93.994 68.1754L93.3195 67.9C93.7591 68.1431 94.6553 68.4125 95.7065 68.5006C96.7566 68.5959 97.9583 68.6216 99.1946 68.5455C100.438 68.4907 101.728 68.3604 103.039 68.205C103.693 68.1245 104.357 68.0456 105.018 67.9476L106.974 67.6837L107.247 67.6471C108.822 67.4346 110.272 68.54 110.484 70.1157C110.637 71.2457 110.108 72.3122 109.217 72.903L108.221 73.5611L107.239 74.154C106.577 74.5296 105.908 74.8964 105.22 75.232C104.532 75.5627 103.833 75.8906 103.115 76.1852C102.395 76.4748 101.659 76.7475 100.904 77.0026C99.3851 77.4784 97.7952 77.9065 96.0345 78.0981C94.283 78.2875 92.3323 78.3428 90.0865 77.7357C89.9431 77.6968 89.8062 77.6464 89.6759 77.5857L89.412 77.4597C87.7066 76.65 86.6253 75.7329 85.6568 74.8624C84.6976 73.987 83.93 73.0968 83.2068 72.2224C81.7712 70.4727 80.5947 68.7185 79.5139 66.9441C78.4239 65.1784 77.4674 63.3838 76.5613 61.5781C76.1179 60.6704 75.6755 59.7659 75.2709 58.8423C75.0672 58.3813 74.8614 57.9204 74.667 57.4517L74.0801 55.9893C72.9008 53.0515 74.3265 49.714 77.2643 48.5347C80.1091 47.3927 83.3289 48.6935 84.6007 51.4446L84.6948 51.6494Z" fill="#407BFF"/>
<path d="M198.782 177.326C197.935 170.709 201.627 165.367 205.196 160.203C209.396 154.126 213.739 147.843 211.171 139.223C210.431 136.741 209.228 134.589 207.716 132.778C206.2 136.648 203.644 140.045 200.189 142.616C195.427 146.161 189.802 147.28 185.86 145.468C183.639 144.447 180.91 142.049 180.519 136.418C180.118 130.657 183.462 126.567 189.463 125.478C195.443 124.394 202.749 126.566 207.518 131.727C208.702 128.298 209.07 124.522 208.525 120.641L209.067 120.565C209.64 124.642 209.226 128.609 207.934 132.194C209.588 134.106 210.9 136.402 211.694 139.068C214.337 147.939 209.919 154.332 205.646 160.515C201.973 165.829 198.504 170.848 199.324 177.257L198.782 177.326ZM192.575 125.751C191.546 125.751 190.536 125.839 189.561 126.015C183.862 127.05 180.686 130.923 181.065 136.379C181.36 140.624 183.097 143.595 186.089 144.97C189.85 146.699 195.258 145.602 199.863 142.176C203.312 139.609 205.844 136.195 207.308 132.307C203.445 127.989 197.773 125.751 192.575 125.751Z" fill="#263238"/>
<path d="M209.029 122.484C204.692 118.611 204.194 113.504 206.733 112.427C210.253 110.933 211.567 117.149 209.029 122.484Z" fill="#407BFF"/>
<path d="M205.741 159.897C202.643 154.976 202.473 148.828 206.236 148.39C209.68 147.99 210.439 153.829 205.741 159.897Z" fill="#407BFF"/>
<path d="M209.13 124.107C208.533 120.438 210.34 117.699 212.035 118.185C214.385 118.859 212.538 122.477 209.13 124.107Z" fill="#407BFF"/>
<path d="M200.601 141.867C198.701 137.77 199.92 133.974 202.063 133.988C205.033 134.007 204.054 138.844 200.601 141.867Z" fill="#407BFF"/>
<path d="M193.313 125.536C189.401 126.195 186.467 124.284 186.975 122.471C187.68 119.96 191.552 121.909 193.313 125.536Z" fill="#407BFF"/>
<path d="M193.313 125.536C190.911 124.253 190.558 122.347 191.801 121.839C193.525 121.134 194.349 123.424 193.313 125.536Z" fill="#407BFF"/>
<path d="M212.156 141.825C211.209 139.271 212.209 137.611 213.477 138.055C215.234 138.671 214.331 140.931 212.156 141.825Z" fill="#407BFF"/>
<path d="M181.403 140.037C178.696 140.332 177.33 138.957 178.071 137.836C179.097 136.282 181.068 137.709 181.403 140.037Z" fill="#407BFF"/>
<path d="M216.153 177.26L214.861 186.763L215.404 186.837L216.696 177.334L216.153 177.26Z" fill="#407BFF"/>
<path d="M214.526 189.203L213.9 193.799L214.443 193.873L215.068 189.277L214.526 189.203Z" fill="#407BFF"/>
<path d="M188.442 173.161L191.611 196.34C191.726 197.177 192.441 197.801 193.286 197.801H210.399C211.244 197.801 211.96 197.177 212.074 196.34L215.244 173.161C215.383 172.145 214.593 171.24 213.568 171.24H190.118C189.092 171.24 188.303 172.145 188.442 173.161Z" fill="#407BFF"/>
</svg>
