<svg width="60" height="60" viewBox="0 0 60 60" fill="none" xmlns="http://www.w3.org/2000/svg">
<path d="M52.9541 26.2637L49.1484 25.6035C48.9766 25.0791 48.7666 24.5654 48.5205 24.0693L50.7412 20.9199C51.0215 20.5225 50.9756 19.9814 50.6318 19.6377L47.6123 16.6104C47.2676 16.2646 46.7236 16.2188 46.3271 16.5L43.209 18.7061C42.7061 18.4512 42.1797 18.2334 41.6357 18.0518L40.9844 14.2861C40.9014 13.8076 40.4854 13.457 39.999 13.457H38.957V10C38.957 7.79395 37.1631 6 34.957 6H10.2168C8.01074 6 6.2168 7.79395 6.2168 10V50C6.2168 52.2061 8.01074 54 10.2168 54H34.957C37.1631 54 38.957 52.2061 38.957 50V45.3135H39.999C40.4854 45.3135 40.9014 44.9629 40.9844 44.4834L41.6543 40.5977C42.1484 40.4307 42.6338 40.2305 43.1084 39.999L46.3281 42.2715C46.7256 42.5498 47.2676 42.5059 47.6113 42.1611L50.6309 39.1416C50.9746 38.7979 51.0215 38.2559 50.7412 37.8584L48.4873 34.6602C48.7266 34.1807 48.9336 33.6846 49.1064 33.1768L52.9531 32.5146C53.4326 32.4326 53.7832 32.0166 53.7832 31.5293V27.249C53.7832 26.7627 53.4336 26.3467 52.9541 26.2637ZM36.957 50C36.957 51.1025 36.0596 52 34.957 52H10.2168C9.11426 52 8.2168 51.1025 8.2168 50V47.0957H36.957V50ZM36.957 23.9648V34.8047V44.3135V45.0957H8.2168V14.9043H36.957V23.9648ZM36.957 12.9043H8.2168V10C8.2168 8.89746 9.11426 8 10.2168 8H34.957C36.0596 8 36.957 8.89746 36.957 10V12.9043ZM38.957 25.1045C40.8604 25.5996 42.2793 27.3428 42.2793 29.3848C42.2793 31.4268 40.8613 33.1709 38.957 33.665V25.1045ZM51.7832 30.6865L48.1641 31.3096C47.7842 31.375 47.4756 31.6523 47.3711 32.0234C47.1543 32.7959 46.8428 33.542 46.4463 34.2412C46.2559 34.5781 46.2764 34.9941 46.499 35.3105L48.6221 38.3223L46.793 40.1514L43.7627 38.0127C43.4492 37.791 43.0361 37.7705 42.7012 37.9561C41.998 38.3457 41.2598 38.6494 40.5059 38.8584C40.1338 38.9619 39.8535 39.2715 39.7881 39.6523L39.1562 43.3135H38.957V35.7021C41.967 35.1725 44.2793 32.5257 44.2793 29.3848C44.2793 26.2447 41.967 23.5978 38.957 23.0676V15.457H39.1572L39.7705 19.001C39.8369 19.3828 40.1182 19.6924 40.4922 19.7949C41.3047 20.0176 42.0732 20.3369 42.7773 20.7461C43.1152 20.9414 43.5391 20.9238 43.8564 20.6973L46.793 18.6201L48.6221 20.4551L46.5322 23.418C46.3096 23.7334 46.2891 24.1504 46.4795 24.4863C46.8818 25.1982 47.1914 25.957 47.4014 26.7412C47.501 27.1182 47.8115 27.4023 48.1963 27.4688L51.7832 28.0908V30.6865Z" fill="white"/>
<path d="M21.3457 50.5479H23.8281C24.3809 50.5479 24.8281 50.1006 24.8281 49.5479C24.8281 48.9951 24.3809 48.5479 23.8281 48.5479H21.3457C20.793 48.5479 20.3457 48.9951 20.3457 49.5479C20.3457 50.1006 20.793 50.5479 21.3457 50.5479Z" fill="white"/>
<path d="M27.96 9.45215H17.2109C16.6582 9.45215 16.2109 9.89941 16.2109 10.4521C16.2109 11.0049 16.6582 11.4521 17.2109 11.4521H27.96C28.5127 11.4521 28.96 11.0049 28.96 10.4521C28.96 9.89941 28.5127 9.45215 27.96 9.45215Z" fill="white"/>
<path d="M14.999 37.5889C15.0069 37.5967 15.0176 37.599 15.0257 37.6066C16.9673 39.5369 19.6402 40.7324 22.5879 40.7324C25.5372 40.7324 28.2118 39.5355 30.1536 37.6027C30.1603 37.5963 30.1693 37.5944 30.1758 37.5879C30.1824 37.5812 30.1843 37.5721 30.1907 37.5654C32.1227 35.6235 33.3193 32.9492 33.3193 30C33.3193 24.083 28.5049 19.2686 22.5879 19.2686C16.6699 19.2686 11.8555 24.083 11.8555 30C11.8555 32.9477 13.051 35.6206 14.9813 37.5622C14.9889 37.5703 14.9911 37.581 14.999 37.5889ZM29.4217 35.4197L25.002 31H31.2576C31.0674 32.659 30.4103 34.1756 29.4217 35.4197ZM23.5879 21.3303C27.6038 21.791 30.7969 24.9841 31.2576 29H23.5879V21.3303ZM28.0078 36.8339C26.5171 38.0189 24.6356 38.7324 22.5879 38.7324C20.5399 38.7324 18.6584 38.019 17.1677 36.8343L22.5879 31.4141L28.0078 36.8339ZM21.5879 21.3303V29.5859L15.7536 35.4202C14.5688 33.9295 13.8555 32.048 13.8555 30C13.8555 25.5241 17.2424 21.8286 21.5879 21.3303Z" fill="white"/>
</svg>
