<svg width="255" height="169" viewBox="0 0 255 169" fill="none" xmlns="http://www.w3.org/2000/svg">
<path d="M232.152 73.9355H149.201V139.877H232.152V73.9355Z" fill="#E2EAFF"/>
<path d="M224.18 84.7582H185.352C185.183 84.7582 185.047 84.6218 185.047 84.4536C185.047 84.2854 185.183 84.1489 185.352 84.1489H224.18C224.349 84.1489 224.485 84.2854 224.485 84.4536C224.485 84.6218 224.349 84.7582 224.18 84.7582Z" fill="white"/>
<path d="M224.18 92.9243H185.352C185.183 92.9243 185.047 92.7878 185.047 92.6196C185.047 92.4514 185.183 92.3149 185.352 92.3149H224.18C224.349 92.3149 224.485 92.4514 224.485 92.6196C224.485 92.7878 224.349 92.9243 224.18 92.9243Z" fill="white"/>
<path d="M224.18 101.091H185.352C185.183 101.091 185.047 100.954 185.047 100.786C185.047 100.618 185.183 100.481 185.352 100.481H224.18C224.349 100.481 224.485 100.618 224.485 100.786C224.485 100.954 224.349 101.091 224.18 101.091Z" fill="white"/>
<path d="M169.1 92.6195V80.6155C162.511 80.6155 157.17 85.9899 157.17 92.6195C157.17 99.2491 162.511 104.624 169.1 104.624C175.688 104.624 181.029 99.2491 181.029 92.6195C181.029 90.6156 180.541 88.7268 179.678 87.0661L169.1 92.6195Z" fill="white"/>
<path d="M179.678 87.066L169.1 80.6155C162.511 80.6155 157.17 85.9899 157.17 92.6194C157.17 99.2491 162.511 104.623 169.1 104.623C175.688 104.623 181.029 99.249 181.029 92.6194C181.029 90.6156 180.541 88.7268 179.678 87.066Z" fill="white"/>
<path d="M179.678 87.066C177.686 83.2323 173.697 80.6155 169.1 80.6155V92.6195L179.678 87.066Z" fill="#5479F7"/>
<path d="M173.149 96.6717C175.386 94.4341 175.386 90.8062 173.149 88.5686C170.911 86.331 167.283 86.3309 165.046 88.5686C162.808 90.8062 162.808 94.4341 165.046 96.6717C167.283 98.9093 170.911 98.9093 173.149 96.6717Z" fill="#E2EAFF"/>
<path d="M174.389 84.0441C174.276 84.0441 174.186 83.9533 174.186 83.8411V70.7433C174.186 70.6894 174.207 70.6377 174.245 70.5997L178.305 66.5402V57.9683C178.305 57.856 178.395 57.7651 178.508 57.7651C178.62 57.7651 178.711 57.856 178.711 57.9683V66.6243C178.711 66.6783 178.689 66.7299 178.651 66.7679L174.592 70.8274V83.8411C174.592 83.9533 174.501 84.0441 174.389 84.0441Z" fill="#5479F7"/>
<path d="M134.629 98.1132C134.517 98.1132 134.426 98.0224 134.426 97.9102V82.3269C134.426 82.273 134.447 82.2213 134.485 82.1833L148.897 67.7716V57.9683C148.897 57.856 148.988 57.7651 149.1 57.7651C149.213 57.7651 149.303 57.856 149.303 57.9683V67.8555C149.303 67.9095 149.282 67.9611 149.244 67.9991L134.832 82.4108V97.91C134.832 98.0224 134.741 98.1132 134.629 98.1132Z" fill="#5479F7"/>
<path d="M135.258 77.1219C135.206 77.1219 135.154 77.102 135.114 77.0624C135.035 76.9831 135.035 76.8545 135.114 76.7752L146.279 65.6099V57.9683C146.279 57.856 146.37 57.7651 146.482 57.7651C146.595 57.7651 146.685 57.856 146.685 57.9683V65.694C146.685 65.7479 146.664 65.7996 146.626 65.8376L135.401 77.0624C135.362 77.102 135.31 77.1219 135.258 77.1219Z" fill="#5479F7"/>
<path d="M238.775 114.591H185.352V118.88H238.775V114.591Z" fill="#5479F7"/>
<path d="M238.775 122.403H185.352V126.692H238.775V122.403Z" fill="#5479F7"/>
<path d="M238.775 130.216H185.352V134.504H238.775V130.216Z" fill="#5479F7"/>
<path d="M254.333 116.938H241.024C240.911 116.938 240.82 116.847 240.82 116.735C240.82 116.623 240.911 116.532 241.024 116.532H254.13V52.4365L245.756 44.0625H229.228C229.116 44.0625 229.025 43.9716 229.025 43.8593C229.025 43.747 229.116 43.6562 229.228 43.6562H245.84C245.894 43.6562 245.946 43.6777 245.984 43.7157L254.477 52.2087C254.515 52.2467 254.536 52.2983 254.536 52.3523V116.735C254.536 116.847 254.445 116.938 254.333 116.938Z" fill="#5479F7"/>
<path d="M77.3853 153.185H33.5917C33.5378 153.185 33.4862 153.163 33.4481 153.125L19.5458 139.223C19.5078 139.185 19.4863 139.133 19.4863 139.079V106.37C19.4863 106.258 19.5772 106.167 19.6894 106.167C19.8017 106.167 19.8926 106.258 19.8926 106.37V138.995L33.6758 152.779H77.3854C77.4977 152.779 77.5884 152.87 77.5884 152.982C77.5884 153.094 77.4976 153.185 77.3853 153.185Z" fill="#5479F7"/>
<path d="M57.8649 158.654H31.5469C31.493 158.654 31.4414 158.633 31.4033 158.594L15.5731 142.764C15.5351 142.726 15.5137 142.675 15.5137 142.621V106.37C15.5137 106.258 15.6045 106.167 15.7167 106.167C15.829 106.167 15.9198 106.258 15.9198 106.37V142.537L31.6311 158.248H57.8649C57.9772 158.248 58.0681 158.339 58.0681 158.451C58.0681 158.563 57.9772 158.654 57.8649 158.654Z" fill="#5479F7"/>
<path d="M56.1758 158.451C56.1758 157.519 56.9317 156.763 57.864 156.763C58.7964 156.763 59.5523 157.519 59.5523 158.451C59.5523 159.383 58.7964 160.139 57.864 160.139C56.9317 160.139 56.1758 159.383 56.1758 158.451Z" fill="white"/>
<path d="M57.866 160.342C56.823 160.342 55.9746 159.494 55.9746 158.451C55.9746 157.408 56.823 156.56 57.866 156.56C58.9088 156.56 59.7573 157.408 59.7573 158.451C59.7573 159.494 58.9088 160.342 57.866 160.342ZM57.866 156.966C57.0472 156.966 56.3809 157.632 56.3809 158.451C56.3809 159.27 57.0472 159.936 57.866 159.936C58.6849 159.936 59.351 159.27 59.351 158.451C59.351 157.632 58.6849 156.966 57.866 156.966Z" fill="#5479F7"/>
<path d="M77.3814 148.583H36.2534C36.1995 148.583 36.1479 148.562 36.1098 148.524L23.6435 136.057C23.6054 136.019 23.584 135.968 23.584 135.914V106.37C23.584 106.258 23.6749 106.167 23.7872 106.167C23.8995 106.167 23.9902 106.258 23.9902 106.37V135.829L36.3376 148.177H77.3814C77.4937 148.177 77.5845 148.268 77.5845 148.38C77.5845 148.492 77.4937 148.583 77.3814 148.583Z" fill="#5479F7"/>
<path d="M22.0996 136.082C22.0996 135.15 22.8555 134.394 23.7879 134.394C24.7202 134.394 25.4761 135.15 25.4761 136.082C25.4761 137.015 24.7202 137.771 23.7879 137.771C22.8554 137.77 22.0996 137.015 22.0996 136.082Z" fill="white"/>
<path d="M23.7899 137.973C22.7469 137.973 21.8984 137.125 21.8984 136.082C21.8984 135.039 22.7469 134.191 23.7899 134.191C24.8327 134.191 25.6811 135.039 25.6811 136.082C25.6811 137.125 24.8327 137.973 23.7899 137.973ZM23.7899 134.597C22.971 134.597 22.3047 135.263 22.3047 136.082C22.3047 136.901 22.971 137.567 23.7899 137.567C24.6087 137.567 25.2748 136.901 25.2748 136.082C25.2748 135.263 24.6087 134.597 23.7899 134.597Z" fill="#5479F7"/>
<path d="M38.1891 143.424C38.1371 143.424 38.0852 143.404 38.0455 143.365L29.4696 134.789C29.4316 134.751 29.4102 134.699 29.4102 134.645V106.37C29.4102 106.258 29.501 106.167 29.6133 106.167C29.7256 106.167 29.8164 106.258 29.8164 106.37V134.561L38.3328 143.077C38.4121 143.157 38.4121 143.285 38.3328 143.365C38.293 143.404 38.2411 143.424 38.1891 143.424Z" fill="#5479F7"/>
<path d="M39.8263 143.62C40.0406 142.713 39.4787 141.804 38.5713 141.59C37.6639 141.375 36.7546 141.937 36.5403 142.845C36.326 143.752 36.8879 144.661 37.7953 144.876C38.7027 145.09 39.612 144.528 39.8263 143.62Z" fill="white"/>
<path d="M38.1902 145.112C37.1472 145.112 36.2988 144.264 36.2988 143.221C36.2988 142.178 37.1472 141.33 38.1902 141.33C39.2331 141.33 40.0815 142.178 40.0815 143.221C40.0814 144.264 39.2331 145.112 38.1902 145.112ZM38.1902 141.736C37.3714 141.736 36.7051 142.402 36.7051 143.221C36.7051 144.04 37.3714 144.706 38.1902 144.706C39.0091 144.706 39.6752 144.04 39.6752 143.221C39.6751 142.402 39.009 141.736 38.1902 141.736Z" fill="#5479F7"/>
<path d="M7.87763 160.43C7.94246 160.448 8.00738 160.461 8.07221 160.472C8.04885 161.148 8.12836 161.814 8.30087 162.45C8.24001 162.475 8.1798 162.502 8.12097 162.535C7.33129 162.975 7.04732 163.971 7.48672 164.761C7.92612 165.55 8.92248 165.834 9.71216 165.395C9.77098 165.362 9.82612 165.325 9.87922 165.287C10.3289 165.769 10.853 166.187 11.4399 166.524C11.4144 166.585 11.3913 166.647 11.3728 166.711C11.1251 167.581 11.6288 168.486 12.498 168.734C13.3671 168.981 14.2724 168.478 14.5202 167.608C14.5386 167.544 14.5516 167.479 14.5619 167.414C15.2383 167.437 15.9043 167.358 16.5404 167.185C16.5651 167.246 16.5927 167.306 16.6254 167.365C17.0648 168.155 18.0612 168.439 18.8509 167.999C19.6406 167.56 19.9245 166.564 19.4851 165.774C19.4524 165.715 19.4157 165.66 19.377 165.607C19.859 165.157 20.2776 164.633 20.6144 164.046C20.6749 164.072 20.7369 164.095 20.8017 164.113C21.6708 164.361 22.5762 163.857 22.8239 162.988C23.0715 162.119 22.5678 161.214 21.6987 160.966C21.6338 160.948 21.569 160.935 21.5041 160.924C21.5274 160.248 21.448 159.582 21.2754 158.946C21.3363 158.921 21.3965 158.893 21.4553 158.861C22.245 158.421 22.529 157.425 22.0896 156.635C21.6502 155.846 20.6538 155.562 19.8642 156.001C19.8053 156.034 19.7502 156.07 19.6971 156.109C19.2474 155.627 18.7234 155.209 18.1364 154.872C18.1619 154.811 18.1851 154.749 18.2035 154.684C18.4512 153.815 17.9474 152.91 17.0784 152.662C16.2093 152.415 15.3039 152.918 15.0562 153.787C15.0378 153.852 15.0248 153.917 15.0145 153.982C14.3382 153.959 13.6721 154.038 13.036 154.211C13.0113 154.15 12.9837 154.089 12.951 154.031C12.5116 153.241 11.5152 152.957 10.7255 153.396C9.93583 153.836 9.65185 154.832 10.0913 155.622C10.124 155.681 10.1607 155.736 10.1994 155.789C9.71733 156.239 9.2988 156.763 8.962 157.35C8.90151 157.324 8.83945 157.301 8.77472 157.282C7.90561 157.035 7.00031 157.539 6.75254 158.408C6.50485 159.277 7.00853 160.182 7.87763 160.43ZM15.8493 156.975C17.9053 157.561 19.0972 159.703 18.5111 161.759C17.9252 163.815 15.7831 165.007 13.7271 164.421C11.6709 163.835 10.4791 161.693 11.0651 159.637C11.6511 157.581 13.7931 156.389 15.8493 156.975Z" fill="#5479F7"/>
<path d="M2.18343 150.007C2.22379 150.018 2.26424 150.026 2.3046 150.033C2.2901 150.454 2.3396 150.869 2.447 151.265C2.40913 151.28 2.37164 151.297 2.33489 151.318C1.84303 151.592 1.66627 152.212 1.93991 152.704C2.21354 153.196 2.83413 153.373 3.32589 153.099C3.36255 153.078 3.39681 153.056 3.42997 153.032C3.70997 153.332 4.03643 153.592 4.40195 153.802C4.38606 153.84 4.37166 153.878 4.36011 153.919C4.20589 154.46 4.5196 155.024 5.06086 155.178C5.60212 155.332 6.16601 155.019 6.32023 154.477C6.33178 154.437 6.33981 154.397 6.34618 154.356C6.76739 154.371 7.18222 154.321 7.5784 154.214C7.59383 154.252 7.61091 154.289 7.63132 154.326C7.90495 154.818 8.52545 154.995 9.0173 154.721C9.50916 154.447 9.68601 153.827 9.41228 153.335C9.39187 153.298 9.36906 153.264 9.34496 153.231C9.64509 152.951 9.90589 152.624 10.1156 152.259C10.1533 152.275 10.1919 152.289 10.2323 152.301C10.7735 152.455 11.3373 152.141 11.4916 151.6C11.6459 151.059 11.3321 150.495 10.7909 150.341C10.7505 150.329 10.7101 150.321 10.6697 150.315C10.6842 149.893 10.6348 149.479 10.5273 149.082C10.5652 149.067 10.6027 149.05 10.6393 149.029C11.1312 148.756 11.308 148.135 11.0343 147.643C10.7607 147.152 10.1401 146.975 9.64833 147.248C9.61166 147.269 9.57731 147.292 9.54425 147.316C9.26425 147.016 8.93779 146.755 8.57227 146.545C8.58816 146.507 8.60256 146.469 8.6141 146.429C8.76833 145.887 8.45462 145.323 7.91336 145.169C7.3721 145.015 6.80821 145.329 6.65399 145.87C6.64253 145.91 6.63441 145.951 6.62804 145.991C6.20683 145.977 5.79199 146.026 5.39581 146.133C5.38039 146.096 5.36331 146.058 5.3429 146.021C5.06927 145.529 4.44868 145.353 3.95691 145.626C3.46506 145.9 3.28831 146.521 3.56194 147.012C3.58235 147.049 3.60515 147.083 3.62926 147.116C3.32903 147.396 3.06833 147.723 2.8586 148.088C2.82092 148.072 2.78232 148.058 2.74196 148.046C2.2007 147.892 1.63691 148.206 1.48259 148.747C1.32846 149.289 1.64217 149.853 2.18343 150.007ZM7.14796 147.855C8.42848 148.22 9.17079 149.554 8.80582 150.835C8.44086 152.115 7.10687 152.857 5.82635 152.492C4.54583 152.128 3.80352 150.794 4.16849 149.513C4.53345 148.232 5.86744 147.49 7.14796 147.855Z" fill="#5479F7"/>
<path d="M181.704 114.591H72.9805V168.797H181.704V114.591Z" fill="white"/>
<path d="M181.704 169H72.9805C72.8682 169 72.7773 168.909 72.7773 168.797V114.591C72.7773 114.479 72.8682 114.388 72.9805 114.388H181.704C181.816 114.388 181.907 114.479 181.907 114.591V168.797C181.907 168.909 181.816 169 181.704 169ZM73.1836 168.594H181.501V114.794H73.1836V168.594Z" fill="black"/>
<path d="M141.588 99.9155H127.666V164.502H141.588V99.9155Z" fill="#5479F7"/>
<path d="M95.2583 139.741H86.5664V155.625H95.2583V139.741Z" fill="#E2EAFF"/>
<path d="M109.831 134.918H101.139V155.625H109.831V134.918Z" fill="#E2EAFF"/>
<path d="M124.403 127.762H115.711V155.625H124.403V127.762Z" fill="#E2EAFF"/>
<path d="M138.973 139.741H130.281V155.625H138.973V139.741Z" fill="#E2EAFF"/>
<path d="M153.545 133.86H144.854V155.625H153.545V133.86Z" fill="#E2EAFF"/>
<path d="M168.118 138.572H159.426V155.625H168.118V138.572Z" fill="#E2EAFF"/>
<path d="M95.2581 160.857H86.5664C86.4541 160.857 86.3633 160.766 86.3633 160.654V122.733C86.3633 122.621 86.4541 122.53 86.5664 122.53H95.2581C95.3704 122.53 95.4612 122.621 95.4612 122.733V160.654C95.4613 160.766 95.3704 160.857 95.2581 160.857ZM86.7695 160.451H95.055V122.936H86.7695V160.451Z" fill="black"/>
<path d="M109.83 160.857H101.139C101.026 160.857 100.936 160.766 100.936 160.654V122.733C100.936 122.621 101.026 122.53 101.139 122.53H109.83C109.943 122.53 110.033 122.621 110.033 122.733V160.654C110.033 160.766 109.943 160.857 109.83 160.857ZM101.342 160.451H109.627V122.936H101.342V160.451Z" fill="black"/>
<path d="M124.403 160.857H115.711C115.599 160.857 115.508 160.766 115.508 160.654V122.733C115.508 122.621 115.599 122.53 115.711 122.53H124.403C124.515 122.53 124.606 122.621 124.606 122.733V160.654C124.606 160.766 124.515 160.857 124.403 160.857ZM115.914 160.451H124.2V122.936H115.914V160.451Z" fill="black"/>
<path d="M138.973 160.857H130.281C130.169 160.857 130.078 160.766 130.078 160.654V122.733C130.078 122.621 130.169 122.53 130.281 122.53H138.973C139.086 122.53 139.176 122.621 139.176 122.733V160.654C139.176 160.766 139.086 160.857 138.973 160.857ZM130.484 160.451H138.77V122.936H130.484V160.451Z" fill="white"/>
<path d="M153.547 160.857H144.856C144.743 160.857 144.652 160.766 144.652 160.654V122.733C144.652 122.621 144.743 122.53 144.856 122.53H153.547C153.66 122.53 153.751 122.621 153.751 122.733V160.654C153.751 160.766 153.66 160.857 153.547 160.857ZM145.059 160.451H153.344V122.936H145.059V160.451Z" fill="black"/>
<path d="M168.116 160.857H159.424C159.312 160.857 159.221 160.766 159.221 160.654V122.733C159.221 122.621 159.312 122.53 159.424 122.53H168.116C168.228 122.53 168.319 122.621 168.319 122.733V160.654C168.319 160.766 168.228 160.857 168.116 160.857ZM159.627 160.451H167.913V122.936H159.627V160.451Z" fill="black"/>
<path d="M55.0851 30.6297C64.7152 30.6297 72.5219 23.8185 72.5219 15.4164C72.5219 7.01435 64.7152 0.203125 55.0851 0.203125C45.4551 0.203125 37.6484 7.01435 37.6484 15.4164C37.6484 23.8185 45.4551 30.6297 55.0851 30.6297Z" fill="white"/>
<path d="M55.0831 30.8328C45.3565 30.8328 37.4434 23.917 37.4434 15.4165C37.4434 6.91578 45.3565 0 55.0831 0C64.8099 0 72.7229 6.91578 72.7229 15.4165C72.723 23.9171 64.8099 30.8328 55.0831 30.8328ZM55.0831 0.406338C45.5805 0.406338 37.8496 7.13982 37.8496 15.4166C37.8496 23.6931 45.5805 30.4266 55.0831 30.4266C64.5856 30.4266 72.3167 23.6931 72.3167 15.4166C72.3168 7.13982 64.5857 0.406338 55.0831 0.406338Z" fill="black"/>
<path d="M70.1313 7.92512C67.854 7.44601 64.4419 7.08843 59.7953 7.5161C53.9665 8.05256 49.3224 12.6873 48.7771 18.5152C48.5544 20.8958 48.4696 23.7196 48.6602 26.9786C49.068 33.9537 54.3169 39.7152 61.2371 40.679C62.9884 40.9229 64.9961 41.0976 67.2955 41.1695C71.046 41.2867 74.275 38.5523 74.7639 34.8319C75.497 29.253 76.055 20.6926 74.3928 12.2142C73.9701 10.0579 72.2816 8.37744 70.1313 7.92512Z" fill="white"/>
<path d="M67.53 41.376C67.4496 41.376 67.3696 41.3748 67.2887 41.3722C65.1113 41.3043 63.0658 41.1387 61.2089 40.8799C54.2338 39.9087 48.8711 34.0673 48.4573 26.9902C48.2843 24.0342 48.3237 21.1764 48.5746 18.4961C49.1298 12.5628 53.8407 7.86002 59.7764 7.31349C63.6703 6.95527 67.168 7.09388 70.173 7.72611C72.4202 8.19903 74.1547 9.94518 74.5919 12.1751C76.2515 20.6405 75.7107 29.1828 74.9648 34.8581C74.4717 38.6126 71.2971 41.376 67.53 41.376ZM63.8335 7.5258C62.5483 7.5258 61.2072 7.58989 59.8136 7.71817C54.0725 8.24659 49.5159 12.7953 48.9791 18.5338C48.7302 21.1938 48.6911 24.0309 48.8627 26.9664C49.2651 33.8506 54.4811 39.533 61.2648 40.4776C63.1073 40.7343 65.1384 40.8987 67.3014 40.9661C70.9652 41.0859 74.0857 38.4321 74.5621 34.8053C75.3039 29.1599 75.8422 20.6646 74.1932 12.2531C73.7875 10.1837 72.1766 8.5627 70.0892 8.12358C68.1964 7.72556 66.1025 7.5258 63.8335 7.5258Z" fill="black"/>
<path d="M47.3057 34.1237H52.4653C54.9415 34.1237 56.9489 32.1163 56.9489 29.6402V20.3051C56.9489 17.8288 54.9415 15.8215 52.4653 15.8215H47.3057C44.8296 15.8215 42.8223 17.8288 42.8223 20.3051V29.6402C42.8222 32.1163 44.8296 34.1237 47.3057 34.1237Z" fill="#E2EAFF"/>
<path d="M11.0671 98.8972L37.649 68.023L30.7777 58.8559C28.5359 55.8651 24.1608 55.5862 21.545 58.256C15.1488 64.7843 4.79256 77.3593 2.30078 92.3848L11.0671 98.8972Z" fill="white"/>
<path d="M11.0668 99.1004C11.0248 99.1004 10.9821 99.0873 10.9458 99.0603L2.17965 92.548C2.11842 92.5026 2.08794 92.4269 2.10041 92.3516C4.62589 77.1234 15.2761 64.3641 21.4 58.1138C22.6913 56.7957 24.4877 56.1103 26.3242 56.2312C28.1563 56.3524 29.8385 57.2647 30.9401 58.7341L37.8114 67.9013C37.8688 67.9775 37.8652 68.0834 37.8029 68.1556L11.2209 99.0298C11.1809 99.0762 11.1242 99.1004 11.0668 99.1004ZM2.52162 92.2959L11.0365 98.6216L37.3886 68.0144L30.6152 58.9778C29.5847 57.6031 28.0111 56.7499 26.2974 56.6367C24.5789 56.5211 22.8985 57.1651 21.69 58.3984C15.6161 64.5976 5.06529 77.2312 2.52162 92.2959Z" fill="black"/>
<path d="M116.254 84.4436C116.254 84.4436 98.1743 60.5626 86.7695 55.0257C86.7695 55.0257 82.2916 51.7592 76.584 63.1457V70.787C76.584 70.787 96.4188 97.398 109.557 99.4849L116.254 84.4436Z" fill="white"/>
<path d="M109.559 99.6877C109.549 99.6877 109.538 99.6869 109.527 99.6852C104.034 98.8125 96.7905 93.7013 87.9988 84.4935C81.4647 77.6499 76.4727 70.9748 76.4231 70.9081C76.3969 70.873 76.3828 70.8305 76.3828 70.7868V63.1454C76.3828 63.1139 76.3901 63.0827 76.4044 63.0543C79.5481 56.7825 82.3472 54.947 84.1418 54.5118C85.7307 54.1262 86.7309 54.7516 86.8747 54.8498C98.1934 60.3578 116.237 84.082 116.417 84.321C116.462 84.3799 116.471 84.4586 116.441 84.5261L109.745 99.5672C109.712 99.6413 109.639 99.6877 109.559 99.6877ZM76.7892 70.7188C77.7971 72.0567 96.8103 97.0744 109.438 99.2584L116.021 84.4707C114.756 82.8154 97.5499 60.484 86.6829 55.2081C86.672 55.2029 86.6617 55.1966 86.652 55.1895C86.6151 55.1631 85.7227 54.5402 84.2206 54.9106C82.517 55.3311 79.8467 57.1101 76.7892 63.1934V70.7188Z" fill="black"/>
<path d="M119.297 98.2875C122.556 95.0278 122.556 89.7427 119.297 86.483C116.037 83.2233 110.752 83.2233 107.492 86.483C104.232 89.7427 104.232 95.0278 107.492 98.2875C110.752 101.547 116.037 101.547 119.297 98.2875Z" fill="#E2EAFF"/>
<path d="M130.469 57.2565L123.8 91.1471C123.246 93.9644 120.387 95.6933 117.635 94.8761L110.041 92.6213C107.297 91.8065 105.843 88.8122 106.901 86.1521L119.661 54.0649C120.787 51.2339 123.97 49.8232 126.824 50.8907L126.938 50.9332C129.503 51.893 130.997 54.5687 130.469 57.2565Z" fill="white"/>
<path d="M119.018 95.2799C118.534 95.2799 118.048 95.2108 117.576 95.0708L109.982 92.816C108.62 92.4115 107.482 91.4461 106.862 90.1674C106.241 88.8887 106.186 87.3979 106.711 86.0772L119.472 53.9898C120.63 51.0782 123.959 49.6024 126.894 50.7003L127.008 50.743C129.679 51.742 131.218 54.4978 130.667 57.2958L123.999 91.1864C123.724 92.585 122.866 93.8105 121.646 94.5483C120.847 95.0314 119.935 95.2799 119.018 95.2799ZM124.886 50.743C122.734 50.743 120.685 52.0397 119.85 54.1398L107.089 86.2271C106.606 87.4421 106.656 88.8136 107.227 89.9901C107.798 91.1664 108.845 92.0545 110.098 92.4264L117.692 94.6812C118.949 95.0547 120.314 94.8792 121.436 94.2008C122.558 93.522 123.347 92.3947 123.6 91.1079L130.268 57.2173C130.78 54.6153 129.349 52.0524 126.866 51.1235L126.752 51.0808C126.139 50.8517 125.508 50.743 124.886 50.743Z" fill="black"/>
<path d="M125.771 60.2835C125.191 60.2835 124.611 60.2083 124.05 60.0538C122.013 59.4935 120.3 57.9121 119.579 55.9268C119.54 55.8213 119.595 55.7048 119.7 55.6666C119.806 55.6283 119.922 55.6825 119.96 55.7879C120.638 57.6516 122.246 59.1362 124.158 59.6622C126.07 60.188 128.211 59.7354 129.746 58.4803C129.832 58.4093 129.96 58.4219 130.031 58.509C130.102 58.5959 130.09 58.7238 130.003 58.7948C128.818 59.7634 127.295 60.2835 125.771 60.2835Z" fill="black"/>
<path d="M141.901 30.5334C141.901 30.5334 141.848 35.4397 140.304 41.4684C138.99 46.599 134.043 49.988 128.8 49.2423C128.044 49.1349 127.255 48.9919 126.437 48.8053C121.649 47.7124 118.679 42.9099 119.804 38.1291C121.146 32.4266 122.792 25.289 122.928 24.0278L129.293 26.6616L141.901 30.5334Z" fill="white"/>
<path d="M130.257 49.5489C129.766 49.5489 129.27 49.5144 128.771 49.4433C127.978 49.3305 127.177 49.1823 126.392 49.0032C124.033 48.4646 122.026 47.0344 120.742 44.9757C119.451 42.9056 119.048 40.4574 119.607 38.0823C120.955 32.3502 122.592 25.2549 122.726 24.006C122.733 23.9424 122.769 23.8856 122.824 23.8529C122.879 23.8202 122.946 23.8154 123.006 23.84L129.37 26.4739L141.961 30.3392C142.047 30.3656 142.105 30.4455 142.104 30.5355C142.104 30.5849 142.033 35.5355 140.501 41.5187C139.276 46.3019 135.018 49.5489 130.257 49.5489ZM123.093 24.3158C122.811 26.1102 121.278 32.753 120.002 38.1754C119.468 40.4441 119.854 42.7828 121.087 44.7605C122.313 46.7267 124.229 48.0928 126.483 48.6071C127.257 48.7837 128.046 48.9297 128.828 49.041C133.959 49.7726 138.808 46.4934 140.107 41.4179C141.477 36.0674 141.67 31.5533 141.694 30.6823L129.233 26.8557L123.093 24.3158Z" fill="black"/>
<path d="M137.549 38.6299L138.973 39.048C139.656 39.2486 140.373 38.8574 140.574 38.1741L142.606 31.2518L138.708 30.1074L136.676 37.0296C136.475 37.7128 136.866 38.4292 137.549 38.6299Z" fill="white"/>
<path d="M139.338 39.3035C139.199 39.3035 139.058 39.2838 138.918 39.243L137.495 38.8247C137.112 38.7124 136.796 38.4578 136.605 38.1082C136.414 37.7583 136.371 37.355 136.483 36.9726L138.515 30.0502C138.53 29.9984 138.566 29.9548 138.613 29.9291C138.66 29.9031 138.716 29.8975 138.767 29.9125L142.665 31.057C142.773 31.0888 142.835 31.2017 142.803 31.3092L140.771 38.2313C140.58 38.881 139.983 39.3035 139.338 39.3035ZM138.848 30.3595L136.873 37.0868C136.791 37.3653 136.823 37.6589 136.962 37.9134C137.101 38.1681 137.331 38.3534 137.609 38.4349C137.609 38.4349 137.609 38.4349 137.609 38.4351L139.033 38.8533C139.607 39.0213 140.212 38.6916 140.381 38.1168L142.356 31.3897L138.848 30.3595Z" fill="black"/>
<path d="M138.344 29.3908C137.942 30.7591 138.725 32.194 140.094 32.5958C141.462 32.9975 142.897 32.2139 143.299 30.8455C143.7 29.4772 142.917 28.0424 141.549 27.6406C140.18 27.2389 138.745 28.0225 138.344 29.3908Z" fill="white"/>
<path d="M140.82 32.9041C140.561 32.9041 140.298 32.8676 140.037 32.7911C139.323 32.5814 138.734 32.1063 138.377 31.4535C138.021 30.8005 137.94 30.0476 138.149 29.334C138.582 27.8603 140.133 27.0137 141.606 27.446C143.08 27.8786 143.926 29.4294 143.494 30.9031C143.138 32.1158 142.025 32.9041 140.82 32.9041ZM140.818 27.7383C140.425 27.7383 140.036 27.8369 139.681 28.0304C139.124 28.3349 138.718 28.8386 138.539 29.4482C138.36 30.058 138.429 30.7008 138.734 31.2586C139.038 31.8164 139.542 32.2221 140.151 32.401C140.761 32.5801 141.404 32.5107 141.962 32.2064C142.52 31.9019 142.925 31.3983 143.104 30.7887C143.283 30.1789 143.214 29.536 142.91 28.9782C142.605 28.4204 142.101 28.0147 141.492 27.8359C141.27 27.7706 141.043 27.7383 140.818 27.7383Z" fill="black"/>
<path d="M132.188 37.0553L133.612 37.4733C134.295 37.6738 135.012 37.2826 135.212 36.5993L137.244 29.6771L133.346 28.5327L131.314 35.4549C131.114 36.1382 131.505 36.8547 132.188 37.0553Z" fill="white"/>
<path d="M133.973 37.7289C133.834 37.7289 133.693 37.7092 133.553 37.6684L132.13 37.2505C131.747 37.1382 131.431 36.8835 131.24 36.5335C131.049 36.1836 131.005 35.7803 131.118 35.3979L133.15 28.4758C133.182 28.3681 133.294 28.3062 133.402 28.3379L137.3 29.4823C137.352 29.4975 137.396 29.5327 137.421 29.5799C137.447 29.6273 137.453 29.6829 137.438 29.7344L135.406 36.6565C135.215 37.3064 134.618 37.7289 133.973 37.7289ZM133.483 28.785L131.508 35.5122C131.426 35.7907 131.458 36.0843 131.597 36.339C131.736 36.5937 131.966 36.7789 132.244 36.8605L133.668 37.2784C134.243 37.4483 134.847 37.117 135.016 36.5421L136.991 29.815L133.483 28.785Z" fill="black"/>
<path d="M132.982 27.8161C132.58 29.1844 133.364 30.6193 134.732 31.021C136.101 31.4227 137.536 30.6391 137.937 29.2708C138.339 27.9025 137.555 26.4676 136.187 26.0659C134.819 25.6643 133.384 26.4479 132.982 27.8161Z" fill="white"/>
<path d="M135.462 31.3302C135.199 31.3302 134.934 31.2924 134.674 31.2162C133.96 31.0066 133.371 30.5314 133.014 29.8786C132.657 29.2256 132.576 28.4728 132.786 27.7591V27.7589C133.219 26.2855 134.77 25.4393 136.243 25.8711C136.957 26.0807 137.546 26.5559 137.903 27.2087C138.26 27.8617 138.34 28.6145 138.131 29.3282C137.921 30.0422 137.446 30.6316 136.793 30.9881C136.378 31.2147 135.923 31.3302 135.462 31.3302ZM133.176 27.8733C132.997 28.4831 133.066 29.126 133.371 29.6837C133.675 30.2415 134.179 30.6472 134.788 30.8261C135.398 31.005 136.041 30.9358 136.599 30.6315C137.156 30.3271 137.562 29.8234 137.741 29.2138C137.92 28.604 137.851 27.9611 137.546 27.4034C137.242 26.8456 136.738 26.4399 136.129 26.261C134.87 25.8912 133.545 26.6151 133.176 27.8735V27.8733H133.176Z" fill="black"/>
<path d="M128.669 12.9596L128.262 12.8254C127.309 12.5114 126.282 13.0293 125.968 13.9823L122.77 24.8627L126.628 26.1344L129.826 15.254C130.14 14.301 129.622 13.2738 128.669 12.9596Z" fill="white"/>
<path d="M126.626 26.3376C126.604 26.3376 126.583 26.3343 126.562 26.3275L122.704 25.0558C122.6 25.0214 122.542 24.9106 122.573 24.8054L125.771 13.925C126.122 12.8611 127.266 12.2836 128.324 12.6325L128.731 12.7666H128.731C129.788 13.1153 130.366 14.2597 130.017 15.3175L126.821 26.1919C126.805 26.2446 126.769 26.2888 126.72 26.3144C126.691 26.3298 126.658 26.3376 126.626 26.3376ZM123.018 24.7315L126.49 25.8759L129.629 15.1967C129.91 14.3454 129.449 13.4311 128.603 13.1526H128.604L128.197 13.0185C127.351 12.7398 126.437 13.2008 126.159 14.0458L123.018 24.7315Z" fill="black"/>
<path d="M126.825 35.4807L128.249 35.8987C128.932 36.0993 129.648 35.708 129.849 35.0248L131.881 28.1027L127.983 26.9583L125.951 33.8804C125.75 34.5636 126.142 35.2802 126.825 35.4807Z" fill="white"/>
<path d="M128.609 36.154C128.47 36.154 128.329 36.1343 128.189 36.0935L126.766 35.6755C125.976 35.4436 125.522 34.6127 125.754 33.823L127.786 26.9009C127.801 26.8491 127.837 26.8055 127.884 26.7798C127.931 26.7538 127.987 26.748 128.038 26.7631L131.936 27.9075C132.044 27.9393 132.106 28.0521 132.074 28.1596L130.042 35.0818C129.851 35.7315 129.254 36.154 128.609 36.154ZM128.119 27.2102L126.144 33.9373C126.062 34.2158 126.094 34.5094 126.233 34.7641C126.372 35.0188 126.602 35.2041 126.88 35.2856L128.304 35.7036C128.879 35.8726 129.483 35.5422 129.652 34.9673L131.627 28.2402L128.119 27.2102Z" fill="black"/>
<path d="M127.619 26.2413C127.217 27.6097 128.001 29.0445 129.369 29.4462C130.737 29.848 132.172 29.0644 132.574 27.6961C132.976 26.3278 132.192 24.8929 130.824 24.4912C129.455 24.0895 128.021 24.8731 127.619 26.2413Z" fill="white"/>
<path d="M130.098 29.7555C129.834 29.7555 129.569 29.7176 129.31 29.6414C127.836 29.2088 126.989 27.6579 127.422 26.1845C127.631 25.4705 128.106 24.8811 128.759 24.5244C129.413 24.1678 130.165 24.087 130.879 24.2963C132.352 24.7291 133.199 26.28 132.767 27.7534C132.557 28.4674 132.082 29.0568 131.429 29.4133C131.014 29.64 130.558 29.7555 130.098 29.7555ZM130.091 24.5887C129.698 24.5887 129.308 24.6873 128.954 24.8811C128.396 25.1855 127.99 25.6892 127.812 26.2988C127.632 26.9086 127.702 27.5514 128.006 28.1092C128.311 28.6668 128.814 29.0725 129.424 29.2514C130.034 29.4309 130.677 29.3613 131.234 29.0568C131.792 28.7524 132.198 28.2487 132.377 27.6391C132.746 26.3805 132.023 25.0558 130.764 24.6862C130.542 24.621 130.316 24.5887 130.091 24.5887Z" fill="black"/>
<path d="M122.219 24.7712C121.817 26.1396 122.6 27.5744 123.969 27.9761C125.337 28.3778 126.772 27.5943 127.174 26.2259C127.575 24.8577 126.792 23.4227 125.423 23.021C124.055 22.6193 122.62 23.4029 122.219 24.7712Z" fill="white"/>
<path d="M124.702 28.2854C124.439 28.2854 124.174 28.2475 123.914 28.1714C123.2 27.9617 122.611 27.4868 122.254 26.8338C121.898 26.1809 121.817 25.4282 122.026 24.7142L122.026 24.7144C122.236 24.0005 122.711 23.411 123.364 23.0544C124.017 22.6977 124.77 22.6172 125.483 22.8263C126.957 23.2591 127.803 24.8099 127.371 26.2834C127.161 26.9972 126.686 27.5868 126.033 27.9432C125.618 28.17 125.163 28.2854 124.702 28.2854ZM124.695 23.1186C124.302 23.1186 123.913 23.2173 123.558 23.411C123.001 23.7155 122.595 24.2192 122.416 24.8288C122.416 24.8288 122.416 24.8289 122.416 24.8289C122.237 25.4385 122.306 26.0814 122.611 26.6392C122.915 27.1968 123.419 27.6024 124.028 27.7814C124.638 27.9607 125.281 27.8911 125.838 27.5868C126.396 27.2823 126.802 26.7786 126.981 26.169C127.35 24.9104 126.627 23.5857 125.368 23.2161C125.147 23.151 124.92 23.1186 124.695 23.1186Z" fill="black"/>
<path d="M122.527 32.7478C122.416 32.7478 122.325 32.6578 122.324 32.5461C122.323 32.4339 122.414 32.3423 122.526 32.3415L126.174 32.3159C126.175 32.3159 126.175 32.3159 126.176 32.3159C126.287 32.3159 126.378 32.406 126.379 32.5176C126.379 32.6297 126.289 32.7213 126.177 32.7222L122.529 32.7477C122.528 32.7478 122.528 32.7478 122.527 32.7478Z" fill="black"/>
<path d="M130.523 32.584C130.997 32.6785 131.471 32.7729 131.945 32.8673L130.523 32.584Z" fill="white"/>
<path d="M131.945 33.0705C131.932 33.0705 131.919 33.0693 131.905 33.0665L130.484 32.7831C130.374 32.7611 130.302 32.6542 130.324 32.5441C130.346 32.4344 130.452 32.362 130.563 32.3848L131.985 32.6682C132.095 32.69 132.166 32.797 132.144 32.9071C132.125 33.0037 132.04 33.0705 131.945 33.0705Z" fill="black"/>
<path d="M123.106 39.9873C123.03 39.9873 122.958 39.945 122.923 39.8724C122.874 39.7715 122.916 39.65 123.017 39.6013C124.534 38.8683 125.895 37.8803 127.06 36.6641C127.117 36.6052 127.203 36.5857 127.28 36.6151C128.073 36.9192 128.894 37.2335 129.741 37.35C130.392 37.439 131.335 37.441 132.14 36.9448C132.235 36.8858 132.36 36.9158 132.419 37.0112C132.478 37.1066 132.448 37.2319 132.353 37.2907C131.445 37.8499 130.401 37.8497 129.686 37.7524C128.838 37.636 128.036 37.3393 127.26 37.0423C126.081 38.2489 124.714 39.2326 123.194 39.967C123.165 39.9808 123.135 39.9873 123.106 39.9873Z" fill="black"/>
<path d="M48.3166 50.5247H60.3115C61.2523 50.5247 62.0148 49.7621 62.0148 48.8214V45.0602C62.0148 44.1195 61.2522 43.3569 60.3115 43.3569H48.3166C47.3759 43.3569 46.6133 44.1196 46.6133 45.0602V48.8214C46.6133 49.7621 47.3758 50.5247 48.3166 50.5247Z" fill="white"/>
<path d="M60.3115 50.728H48.3166C47.2653 50.728 46.4102 49.8728 46.4102 48.8215V45.0603C46.4102 44.009 47.2653 43.1538 48.3166 43.1538H60.3114C61.3628 43.1538 62.2179 44.009 62.2179 45.0603V48.8215C62.218 49.8728 61.3629 50.728 60.3115 50.728ZM48.3166 43.5601C47.4894 43.5601 46.8164 44.2331 46.8164 45.0603V48.8215C46.8164 49.6487 47.4894 50.3217 48.3166 50.3217H60.3114C61.1386 50.3217 61.8117 49.6487 61.8117 48.8215V45.0603C61.8117 44.2331 61.1386 43.5601 60.3114 43.5601H48.3166Z" fill="black"/>
<path d="M35.9162 52.4253H75.7166C80.3035 52.4253 83.8887 56.3838 83.436 60.9482L79.524 100.389C79.1163 104.499 75.6589 107.63 71.5286 107.63H40.1042C35.9739 107.63 32.5166 104.499 32.1088 100.389L28.1968 60.9482C27.7441 56.3837 31.3293 52.4253 35.9162 52.4253Z" fill="white"/>
<path d="M71.5277 107.833H40.1033C35.8497 107.833 32.3256 104.641 31.9058 100.408L27.9937 60.9682C27.7724 58.7356 28.509 56.5014 30.0153 54.8386C31.5215 53.1757 33.6719 52.2219 35.9154 52.2219H75.7158C77.959 52.2219 80.1096 53.1756 81.6157 54.8384C83.1219 56.5013 83.8586 58.7356 83.6372 60.9683L79.7251 100.409C79.3053 104.641 75.7812 107.833 71.5277 107.833ZM35.9154 52.6282C33.7864 52.6282 31.7456 53.5331 30.3164 55.1111C28.8872 56.6892 28.1879 58.8094 28.398 60.9281L32.3102 100.368C32.7093 104.392 36.0596 107.427 40.1033 107.427H71.5277C75.5713 107.427 78.9218 104.392 79.3208 100.368L83.2329 60.9281C83.443 58.8093 82.7438 56.6891 81.3145 55.1111C79.8853 53.5331 77.8446 52.6282 75.7158 52.6282H35.9154Z" fill="black"/>
<path d="M13.7822 95.0167C14.2002 91.6221 11.7871 88.5314 8.3925 88.1134C4.99788 87.6954 1.90716 90.1085 1.4892 93.5031C1.07124 96.8978 3.48432 99.9885 6.87894 100.406C10.2736 100.824 13.3643 98.4113 13.7822 95.0167Z" fill="#E2EAFF"/>
<path d="M51.6404 93.2609C51.6404 93.2609 26.9427 89.6651 12.1878 91.1448C9.6789 91.3964 7.60759 93.1952 7.0099 95.6448C6.76859 96.6339 6.55434 97.7654 6.43133 98.9876C6.06904 102.587 8.41666 105.911 11.935 106.75C20.269 108.739 37.1108 111.438 50.0276 104.987L51.6404 93.2609Z" fill="white"/>
<path d="M30.3808 109.256C23.1766 109.256 16.4624 108.039 11.8875 106.948C8.28997 106.089 5.85729 102.658 6.22881 98.9671C6.34028 97.8602 6.53643 96.7262 6.81219 95.5965C7.42816 93.0723 9.58018 91.2022 12.1673 90.9427C26.778 89.4777 51.4221 93.0239 51.6694 93.0598C51.7797 93.0759 51.8565 93.1778 51.8412 93.2885L50.2285 105.015C50.2194 105.081 50.1781 105.139 50.118 105.169C43.9771 108.236 36.9737 109.256 30.3808 109.256ZM20.3794 90.9939C17.4763 90.9939 14.6961 91.0975 12.2076 91.347C9.79176 91.5892 7.78195 93.3355 7.20689 95.6929C6.93557 96.8042 6.74256 97.9196 6.63303 99.008C6.28173 102.498 8.58133 105.741 11.9819 106.552C20.6677 108.625 37.117 111.153 49.8406 104.853L51.4113 93.4334C49.4575 93.1585 33.6493 90.9939 20.3794 90.9939Z" fill="black"/>
<path d="M35.9199 123.077H80.4035L94.5106 75.7568H50.0271L35.9199 123.077Z" fill="#5479F7"/>
<path d="M56.4183 97.9525L56.5279 97.4627C56.7426 96.5031 56.1387 95.5513 55.1793 95.3367L45.0685 93.0859L44.1816 97.0504L54.2924 99.3011C55.2519 99.5158 56.2037 98.9119 56.4183 97.9525Z" fill="white"/>
<path d="M43.4898 97.4601C44.8815 97.7714 46.2619 96.8956 46.5732 95.504C46.8845 94.1123 46.0088 92.7317 44.6171 92.4205C43.2254 92.1092 41.8449 92.9849 41.5335 94.3767C41.2222 95.7683 42.0981 97.1488 43.4898 97.4601Z" fill="white"/>
<path d="M44.0603 97.7267C43.8564 97.7267 43.6509 97.7041 43.447 97.6585C41.9484 97.3233 41.0018 95.8312 41.337 94.3325C41.6722 92.8337 43.1659 91.8877 44.663 92.2223C45.3892 92.3848 46.0085 92.8202 46.407 93.4485C46.8055 94.0767 46.9354 94.8224 46.773 95.5485C46.6107 96.2745 46.1753 96.8939 45.547 97.2923C45.0953 97.579 44.5826 97.7267 44.0603 97.7267ZM43.5359 97.2622C44.1557 97.4008 44.7929 97.2898 45.3295 96.9494C45.866 96.609 46.238 96.08 46.3766 95.4599C46.5152 94.8396 46.4044 94.2027 46.064 93.6661C45.7236 93.1296 45.1946 92.7576 44.5743 92.6188C43.2945 92.3323 42.0199 93.1411 41.7334 94.4214C41.4471 95.7013 42.2556 96.9758 43.5359 97.2622Z" fill="black"/>
<path d="M53.4527 103.023L53.5622 102.533C53.7768 101.573 53.173 100.621 52.2134 100.407L43.8478 98.541L42.9609 102.505L51.3266 104.371C52.2861 104.586 53.238 103.982 53.4527 103.023Z" fill="white"/>
<path d="M42.2709 102.915C43.6625 103.226 45.0431 102.351 45.3544 100.959C45.6657 99.5673 44.7899 98.1869 43.3982 97.8756C42.0066 97.5643 40.6261 98.4401 40.3148 99.8317C40.0035 101.223 40.8793 102.604 42.2709 102.915Z" fill="white"/>
<path d="M42.8333 103.181C42.6325 103.181 42.4288 103.159 42.2251 103.114C42.2251 103.114 42.2251 103.114 42.2249 103.114C41.4991 102.951 40.8798 102.516 40.4811 101.888C40.0826 101.259 39.9526 100.514 40.1151 99.7876C40.2773 99.0616 40.7128 98.4422 41.341 98.0437C41.9695 97.6452 42.7149 97.5151 43.4411 97.6775C44.9397 98.0128 45.8863 99.5049 45.5511 101.004C45.2615 102.298 44.108 103.181 42.8333 103.181ZM42.3137 102.717C43.5939 103.003 44.8684 102.195 45.1548 100.915C45.441 99.6348 44.6325 98.3603 43.3522 98.0739C42.7329 97.9359 42.0954 98.0465 41.5586 98.3867C41.022 98.7271 40.6501 99.2561 40.5114 99.8762C40.3727 100.496 40.4838 101.133 40.8242 101.67C41.1646 102.207 41.6936 102.579 42.3137 102.717Z" fill="black"/>
<path d="M55.8609 92.1053L55.9704 91.6155C56.185 90.656 55.5813 89.7041 54.6216 89.4895L46.256 87.6238L45.3691 91.5883L53.7348 93.4541C54.6944 93.6686 55.6463 93.0648 55.8609 92.1053Z" fill="white"/>
<path d="M44.6772 91.9982C46.0688 92.3095 47.4493 91.4337 47.7606 90.042C48.072 88.6504 47.1962 87.2699 45.8045 86.9586C44.4129 86.6473 43.0323 87.5231 42.721 88.9147C42.4097 90.3064 43.2856 91.6869 44.6772 91.9982Z" fill="white"/>
<path d="M45.2435 92.2636C45.0427 92.2636 44.839 92.2418 44.6352 92.1962C43.909 92.0339 43.2897 91.5985 42.8912 90.9703C42.4927 90.3421 42.3628 89.5962 42.5252 88.8702C42.6875 88.1442 43.1229 87.5248 43.7511 87.1264C44.3793 86.7277 45.1253 86.5976 45.8509 86.7602C46.5772 86.9224 47.1965 87.3579 47.595 87.986C47.9934 88.6143 48.1236 89.3601 47.9611 90.0861C47.6716 91.3809 46.5182 92.2636 45.2435 92.2636ZM45.2385 87.0984C44.7923 87.0984 44.3546 87.2245 43.9688 87.4693C43.4322 87.8097 43.0602 88.3387 42.9216 88.9588C42.783 89.5792 42.8938 90.2161 43.2342 90.7526C43.5746 91.2892 44.1037 91.6612 44.7237 91.7998C46.0043 92.0854 47.2783 91.2775 47.5648 89.9975C47.7035 89.3775 47.5924 88.7404 47.2521 88.2037C46.9117 87.6672 46.3826 87.2952 45.7626 87.1565C45.5884 87.1177 45.4128 87.0984 45.2385 87.0984Z" fill="black"/>
<path d="M50.3222 108.558L50.6462 107.11C50.8016 106.415 50.3643 105.726 49.6694 105.571L42.629 103.996L41.7422 107.96L48.7825 109.535C49.4774 109.691 50.1668 109.253 50.3222 108.558Z" fill="white"/>
<path d="M41.0502 108.37C42.4418 108.681 43.8224 107.805 44.1337 106.414C44.445 105.022 43.5692 103.642 42.1775 103.33C40.7859 103.019 39.4054 103.895 39.0941 105.287C38.7828 106.678 39.6586 108.059 41.0502 108.37Z" fill="white"/>
<path d="M41.6189 108.637C41.415 108.637 41.2095 108.614 41.0056 108.568C39.507 108.233 38.5604 106.741 38.8956 105.242C39.231 103.743 40.7214 102.797 42.2218 103.132C42.9475 103.295 43.5668 103.73 43.9656 104.358C44.3641 104.987 44.494 105.732 44.3316 106.458C44.1693 107.184 43.7339 107.804 43.1057 108.202C42.6538 108.489 42.1412 108.637 41.6189 108.637ZM41.0945 108.172C41.7143 108.311 42.3513 108.2 42.8881 107.859C43.4246 107.519 43.7966 106.99 43.9352 106.37C44.0738 105.75 43.9628 105.112 43.6224 104.576C43.282 104.039 42.753 103.667 42.1329 103.529C40.8555 103.244 39.5786 104.051 39.292 105.331C39.0057 106.611 39.8142 107.886 41.0945 108.172Z" fill="black"/>
<path d="M238.776 56.6239H108.469C108.356 56.6239 108.266 56.533 108.266 56.4207V3.06758C108.266 2.95528 108.356 2.8645 108.469 2.8645H238.776C238.888 2.8645 238.979 2.95537 238.979 3.06758V56.4207C238.979 56.533 238.888 56.6239 238.776 56.6239ZM108.672 56.2176H238.573V3.27075H108.672V56.2176Z" fill="#5479F7"/>
<path d="M229.228 14.3151H134.096C133.983 14.3151 133.893 14.2242 133.893 14.112C133.893 13.9997 133.983 13.9089 134.096 13.9089H229.228C229.34 13.9089 229.431 13.9998 229.431 14.112C229.431 14.2242 229.34 14.3151 229.228 14.3151Z" fill="#5479F7"/>
<path d="M136.525 15.636C137.369 13.1036 136.001 10.3664 133.468 9.52237C130.936 8.67832 128.199 10.047 127.354 12.5794C126.51 15.1119 127.879 17.849 130.412 18.6931C132.944 19.5371 135.681 18.1684 136.525 15.636Z" fill="white"/>
<path d="M131.945 19.1484C129.168 19.1484 126.908 16.889 126.908 14.1119C126.908 11.3348 129.168 9.07544 131.945 9.07544C134.722 9.07544 136.981 11.3348 136.981 14.1119C136.981 16.889 134.722 19.1484 131.945 19.1484ZM131.945 9.48168C129.391 9.48168 127.314 11.5587 127.314 14.1119C127.314 16.6651 129.391 18.7421 131.945 18.7421C134.498 18.7421 136.575 16.6651 136.575 14.1119C136.575 11.5587 134.498 9.48168 131.945 9.48168Z" fill="#5479F7"/>
<path d="M134.12 14.8342C134.521 13.6307 133.87 12.3299 132.667 11.9287C131.463 11.5276 130.163 12.1781 129.761 13.3816C129.36 14.5851 130.011 15.886 131.214 16.2871C132.418 16.6882 133.719 16.0378 134.12 14.8342Z" fill="#5479F7"/>
<path d="M229.231 24.231H150.15C150.038 24.231 149.947 24.1401 149.947 24.0279C149.947 23.9156 150.038 23.8247 150.15 23.8247H229.231C229.344 23.8247 229.434 23.9156 229.434 24.0279C229.435 24.1401 229.344 24.231 229.231 24.231Z" fill="#5479F7"/>
<path d="M229.231 34.1465H150.15C150.038 34.1465 149.947 34.0556 149.947 33.9433C149.947 33.831 150.038 33.7402 150.15 33.7402H229.231C229.344 33.7402 229.434 33.8311 229.434 33.9433C229.435 34.0557 229.344 34.1465 229.231 34.1465Z" fill="#5479F7"/>
<path d="M229.231 44.0625H150.15C150.038 44.0625 149.947 43.9716 149.947 43.8593C149.947 43.747 150.038 43.6562 150.15 43.6562H229.231C229.344 43.6562 229.434 43.7471 229.434 43.8593C229.435 43.9716 229.344 44.0625 229.231 44.0625Z" fill="#5479F7"/>
<path d="M136.525 15.636C137.369 13.1036 136.001 10.3664 133.468 9.52237C130.936 8.67832 128.199 10.047 127.354 12.5794C126.51 15.1119 127.879 17.849 130.412 18.6931C132.944 19.5371 135.681 18.1684 136.525 15.636Z" fill="white"/>
<path d="M131.945 19.1484C129.168 19.1484 126.908 16.889 126.908 14.1119C126.908 11.3348 129.168 9.07544 131.945 9.07544C134.722 9.07544 136.981 11.3348 136.981 14.1119C136.981 16.889 134.722 19.1484 131.945 19.1484ZM131.945 9.48168C129.391 9.48168 127.314 11.5587 127.314 14.1119C127.314 16.6651 129.391 18.7421 131.945 18.7421C134.498 18.7421 136.575 16.6651 136.575 14.1119C136.575 11.5587 134.498 9.48168 131.945 9.48168Z" fill="#5479F7"/>
<path d="M134.12 14.8342C134.521 13.6307 133.87 12.3299 132.667 11.9287C131.463 11.5276 130.163 12.1781 129.761 13.3816C129.36 14.5851 130.011 15.886 131.214 16.2871C132.418 16.6882 133.719 16.0378 134.12 14.8342Z" fill="#5479F7"/>
<path d="M254.334 18.2871H225.326V29.7682H254.334V18.2871Z" fill="#5479F7"/>
<path d="M227.695 27.2658L221.219 24.0275L227.695 20.7893V27.2658Z" fill="#5479F7"/>
<path d="M241.66 38.1189H212.652V49.6H241.66V38.1189Z" fill="#5479F7"/>
<path d="M215.019 47.0977L208.543 43.8596L215.019 40.6213V47.0977Z" fill="#5479F7"/>
<path d="M196.824 28.2029H167.816V39.684H196.824V28.2029Z" fill="#5479F7"/>
<path d="M170.185 37.1815L163.709 33.9433L170.185 30.7051V37.1815Z" fill="#5479F7"/>
<path d="M161.562 34.6807C161.99 32.0458 160.201 29.5631 157.566 29.1355C154.931 28.7078 152.448 30.4972 152.02 33.1321C151.593 35.767 153.382 38.2497 156.017 38.6774C158.652 39.105 161.135 37.3156 161.562 34.6807Z" fill="white"/>
<path d="M156.786 38.944C154.009 38.944 151.75 36.6847 151.75 33.9076C151.75 31.1304 154.009 28.8711 156.786 28.8711C159.564 28.8711 161.823 31.1304 161.823 33.9076C161.823 36.6847 159.564 38.944 156.786 38.944ZM156.786 29.2773C154.233 29.2773 152.156 31.3544 152.156 33.9076C152.156 36.4608 154.233 38.5378 156.786 38.5378C159.34 38.5378 161.417 36.4608 161.417 33.9076C161.417 31.3544 159.34 29.2773 156.786 29.2773Z" fill="#5479F7"/>
<path d="M156.787 36.2046C158.056 36.2046 159.084 35.1762 159.084 33.9076C159.084 32.639 158.056 31.6106 156.787 31.6106C155.519 31.6106 154.49 32.639 154.49 33.9076C154.49 35.1762 155.519 36.2046 156.787 36.2046Z" fill="#5479F7"/>
<path d="M217.899 27.4467C219.787 25.5592 219.787 22.4989 217.899 20.6114C216.012 18.7239 212.952 18.7239 211.064 20.6114C209.177 22.4989 209.177 25.5592 211.064 27.4467C212.952 29.3342 216.012 29.3342 217.899 27.4467Z" fill="white"/>
<path d="M214.482 29.0644C211.705 29.0644 209.445 26.8051 209.445 24.0279C209.445 21.2508 211.705 18.9915 214.482 18.9915C217.259 18.9915 219.518 21.2508 219.518 24.0279C219.518 26.8051 217.259 29.0644 214.482 29.0644ZM214.482 19.3977C211.929 19.3977 209.852 21.4747 209.852 24.0279C209.852 26.5811 211.929 28.6581 214.482 28.6581C217.035 28.6581 219.112 26.5811 219.112 24.0279C219.112 21.4747 217.035 19.3977 214.482 19.3977Z" fill="#5479F7"/>
<path d="M214.483 26.325C215.751 26.325 216.78 25.2966 216.78 24.028C216.78 22.7594 215.751 21.731 214.483 21.731C213.214 21.731 212.186 22.7594 212.186 24.028C212.186 25.2966 213.214 26.325 214.483 26.325Z" fill="#5479F7"/>
<path d="M205.224 47.2782C207.111 45.3907 207.111 42.3305 205.224 40.443C203.336 38.5555 200.276 38.5555 198.388 40.443C196.501 42.3305 196.501 45.3907 198.388 47.2782C200.276 49.1657 203.336 49.1657 205.224 47.2782Z" fill="white"/>
<path d="M201.806 48.8962C199.029 48.8962 196.77 46.6368 196.77 43.8597C196.77 41.0827 199.029 38.8232 201.806 38.8232C204.583 38.8232 206.842 41.0826 206.842 43.8597C206.842 46.6368 204.583 48.8962 201.806 48.8962ZM201.806 39.2295C199.253 39.2295 197.176 41.3065 197.176 43.8597C197.176 46.4129 199.253 48.4899 201.806 48.4899C204.359 48.4899 206.436 46.4129 206.436 43.8597C206.436 41.3065 204.359 39.2295 201.806 39.2295Z" fill="#5479F7"/>
<path d="M203.429 45.4848C204.326 44.5878 204.326 43.1334 203.429 42.2364C202.532 41.3394 201.078 41.3393 200.181 42.2364C199.284 43.1334 199.284 44.5878 200.181 45.4848C201.078 46.3818 202.532 46.3818 203.429 45.4848Z" fill="#5479F7"/>
<path d="M172.574 8.37134H143.566V19.8524H172.574V8.37134Z" fill="#5479F7"/>
<path d="M145.937 17.3499L139.461 14.1118L145.937 10.8735V17.3499Z" fill="#5479F7"/>
</svg>
