<svg width="60" height="60" viewBox="0 0 60 60" fill="none" xmlns="http://www.w3.org/2000/svg">
<path d="M28.9766 48.9795H30.7588C31.4497 48.9795 32.0088 48.4204 32.0088 47.7295C32.0088 47.0386 31.4497 46.4795 30.7588 46.4795H28.9766C28.2856 46.4795 27.7266 47.0386 27.7266 47.7295C27.7266 48.4204 28.2856 48.9795 28.9766 48.9795Z" fill="white"/>
<path d="M48.094 1.25C48.094 0.559082 47.5349 0 46.844 0H12.8865C12.1956 0 11.6365 0.559082 11.6365 1.25V9.05518V10.5359H6.25806C3.09888 10.5359 0.529297 13.1165 0.529297 16.2891V43.7109V47.2412V47.2522C0.529297 47.3254 0.548142 47.3933 0.550888 47.4657C0.56279 47.7804 0.584381 48.0933 0.645035 48.3968C0.659988 48.4705 0.69104 48.5374 0.70874 48.6099C0.952499 49.6242 1.45001 50.5626 2.20776 51.3306C2.58824 51.7001 3.02167 51.989 3.47462 52.2388C4.30722 52.7087 5.2541 52.9993 6.27637 52.9993H20.7246V57.5H15.4207C14.7297 57.5 14.1707 58.0591 14.1707 58.75C14.1707 59.4409 14.7297 60 15.4207 60H21.9746H37.7607H44.3159C45.0068 60 45.5659 59.4409 45.5659 58.75C45.5659 58.0591 45.0068 57.5 44.3159 57.5H39.0107V52.9993H53.459C55.4477 52.9993 57.202 51.9827 58.2341 50.4431C58.2846 50.3681 58.3161 50.2835 58.3628 50.2065C58.5083 49.9659 58.6519 49.724 58.7614 49.4622C58.8226 49.3159 58.8539 49.1591 58.9027 49.0082C58.9695 48.8022 59.0481 48.6016 59.0914 48.3862C59.1438 48.1255 59.1562 47.8555 59.1723 47.5865C59.1789 47.4737 59.2061 47.3667 59.2061 47.2522V47.2412V43.7109V16.3013C59.2061 13.1226 56.6304 10.5359 53.4651 10.5359H48.094V9.05518V1.25ZM14.1365 11.798C14.1366 11.7937 14.1389 11.7902 14.1389 11.7859C14.1389 11.7816 14.1366 11.778 14.1365 11.7738V10.3052H45.594V37.5122H14.1365V11.798ZM14.1365 2.5H45.594V7.80518H14.1365V2.5ZM56.7061 47.2412C56.7061 47.3079 56.6912 47.3703 56.6874 47.436C56.6785 47.5922 56.671 47.7492 56.6407 47.8988C56.6301 47.952 56.6074 48.001 56.5941 48.0534C56.5543 48.2088 56.5136 48.364 56.4522 48.5096C56.4157 48.596 56.3627 48.6751 56.3184 48.7582C56.2659 48.8573 56.2201 48.9606 56.158 49.0535C56.0396 49.2284 55.9031 49.3943 55.7478 49.5496C55.1545 50.1428 54.3232 50.4822 53.4651 50.4822H6.27026C5.75925 50.4822 5.28043 50.3603 4.84288 50.151C3.80864 49.6372 3.08904 48.5963 3.04189 47.3764C3.04013 47.3306 3.0293 47.2876 3.0293 47.2412V44.9609H56.7061V47.2412ZM36.5107 57.5H23.2246V52.9993H36.5107V57.5ZM53.4651 13.0359C55.2522 13.0359 56.7061 14.5007 56.7061 16.3013V42.4609H3.0293V16.2891C3.0293 14.4958 4.47827 13.0359 6.25806 13.0359H11.6365V38.7622C11.6365 39.4531 12.1956 40.0122 12.8865 40.0122H46.844C47.5349 40.0122 48.094 39.4531 48.094 38.7622V13.0359H53.4651Z" fill="white"/>
<path d="M17.5747 3.90234H16.8984C16.2075 3.90234 15.6484 4.46143 15.6484 5.15234C15.6484 5.84326 16.2075 6.40234 16.8984 6.40234H17.5747C18.2656 6.40234 18.8247 5.84326 18.8247 5.15234C18.8247 4.46143 18.2656 3.90234 17.5747 3.90234Z" fill="white"/>
<path d="M22.0559 3.90234H21.3809C20.6899 3.90234 20.1309 4.46143 20.1309 5.15234C20.1309 5.84326 20.6899 6.40234 21.3809 6.40234H22.0559C22.7468 6.40234 23.3059 5.84326 23.3059 5.15234C23.3059 4.46143 22.7468 3.90234 22.0559 3.90234Z" fill="white"/>
<path d="M26.5356 3.90234H25.8594C25.1685 3.90234 24.6094 4.46143 24.6094 5.15234C24.6094 5.84326 25.1685 6.40234 25.8594 6.40234H26.5356C27.2266 6.40234 27.7856 5.84326 27.7856 5.15234C27.7856 4.46143 27.2266 3.90234 26.5356 3.90234Z" fill="white"/>
<path d="M40.2791 21.5042L37.7974 20.9402C37.7302 20.7681 37.657 20.5984 37.5789 20.4312L38.9363 18.2815C39.2476 17.7871 39.1755 17.1426 38.7629 16.73L37.0649 15.032C36.6511 14.6182 36.0115 14.5486 35.5146 14.8574L33.3149 16.2429C33.166 16.1758 33.0146 16.1135 32.8621 16.0562L32.2749 13.5122C32.1431 12.9446 31.6389 12.543 31.0566 12.543H28.6665C28.083 12.543 27.5776 12.9458 27.4482 13.5146L26.8672 16.0574C26.7146 16.1147 26.5632 16.177 26.4143 16.2429L24.2085 14.8574C23.7141 14.5461 23.0684 14.6206 22.6582 15.0332L20.9663 16.7312C20.5549 17.1438 20.4829 17.7859 20.793 18.2791L22.1479 20.4336C22.071 20.6008 21.999 20.7693 21.9331 20.9402L19.4514 21.5042C18.8826 21.6335 18.4785 22.1401 18.4785 22.7236V25.1284C18.4785 25.7119 18.8826 26.2173 19.4514 26.3467L21.844 26.8923C21.9197 27.1023 22.0039 27.3098 22.0955 27.5112L20.7942 29.5779C20.4829 30.0723 20.5549 30.7156 20.9675 31.1282L22.6594 32.8213C23.0708 33.2351 23.7141 33.3047 24.2097 32.9958L26.2239 31.7275C26.4509 31.8337 26.6841 31.9314 26.9209 32.0181L27.447 34.3411C27.5764 34.9111 28.083 35.3152 28.6665 35.3152H31.0566C31.6389 35.3152 32.1455 34.9124 32.2749 34.3447L32.8083 32.0168C33.0439 31.9302 33.2747 31.8337 33.5005 31.7263L35.5159 32.9958C36.0078 33.3047 36.6523 33.2351 37.0637 32.8225L38.7617 31.1294C39.1755 30.7168 39.2488 30.071 38.9363 29.5767L37.635 27.5161C37.7266 27.3135 37.8108 27.1047 37.8865 26.8911L40.2791 26.3467C40.8479 26.2173 41.252 25.7119 41.252 25.1284V22.7236C41.252 22.1401 40.8479 21.6335 40.2791 21.5042ZM38.752 24.1311L36.6292 24.6145C36.1738 24.717 35.8149 25.0662 35.6965 25.5178C35.561 26.0378 35.3645 26.5261 35.113 26.9692C34.886 27.3696 34.8982 27.8628 35.1436 28.2534L36.2886 30.0662L36.0042 30.3494L34.2219 29.2263C33.824 28.9797 33.3223 28.97 32.9194 29.208C32.4568 29.4827 31.9526 29.6938 31.4216 29.8379C30.9761 29.9575 30.6331 30.3152 30.5305 30.7644L30.0605 32.8152H29.665L29.2012 30.7681C29.0986 30.3152 28.7532 29.9563 28.3052 29.8367C27.7729 29.6938 27.2676 29.4827 26.8062 29.2092C26.4021 28.97 25.8992 28.9797 25.5024 29.2263L23.7214 30.3481L23.4407 30.0662L24.5869 28.2461C24.8323 27.8567 24.8445 27.3635 24.6174 26.9631C24.3635 26.5164 24.167 26.0305 24.0339 25.5178C23.9155 25.0662 23.5566 24.717 23.1013 24.6145L20.9785 24.1311V23.7209L23.1624 23.2253C23.6006 23.1252 23.9521 22.7981 24.0815 22.3672C24.2268 21.8887 24.4258 21.4224 24.6736 20.9792C24.8982 20.5789 24.8848 20.0894 24.6418 19.7024L23.4395 17.7908L23.7239 17.5051L25.6782 18.7332C26.0664 18.9773 26.551 18.9871 26.9502 18.7673C27.3701 18.5342 27.812 18.3523 28.2625 18.2278C28.7043 18.1045 29.0437 17.7493 29.1462 17.3013L29.6626 15.043H30.063L30.5842 17.3037C30.688 17.7505 31.0261 18.1045 31.468 18.2278C31.9185 18.3523 32.3604 18.5342 32.7803 18.7673C33.1807 18.9895 33.6653 18.9749 34.0535 18.7332L36.0029 17.5051L36.2886 17.7908L35.0837 19.7C34.8372 20.0918 34.8262 20.5874 35.0557 20.9878C35.3035 21.4211 35.5024 21.885 35.6489 22.3672C35.7783 22.7981 36.1299 23.1252 36.5681 23.2253L38.752 23.7209V24.1311Z" fill="white"/>
<path d="M29.8694 20.0977C27.7551 20.0977 26.0352 21.8152 26.0352 23.927C26.0352 26.0413 27.7551 27.7612 29.8694 27.7612C31.9812 27.7612 33.6987 26.0413 33.6987 23.927C33.6987 21.8152 31.9812 20.0977 29.8694 20.0977ZM29.8694 25.2612C29.1333 25.2612 28.5352 24.6631 28.5352 23.927C28.5352 23.1946 29.1333 22.5977 29.8694 22.5977C30.6018 22.5977 31.1987 23.1946 31.1987 23.927C31.1987 24.6631 30.6018 25.2612 29.8694 25.2612Z" fill="white"/>
</svg>
