<svg width="54" height="54" viewBox="0 0 54 54" fill="none" xmlns="http://www.w3.org/2000/svg">
<rect width="54" height="54" rx="27" fill="#FFC649"/>
<g clip-path="url(#clip0_2950_2940)">
<path d="M25.1628 29.0014C25.5606 29.4077 25.5537 30.0594 25.1475 30.4572C24.7412 30.8549 24.0895 30.848 23.6917 30.4418C21.5931 28.2984 19.4457 27.2574 17.2206 27.2574C14.0937 27.2574 11.5588 29.7923 11.5588 32.9192C11.5588 36.0461 14.0937 38.5809 17.2206 38.5809C20.321 38.5809 23.2954 36.5458 26.1481 32.3412C29.3485 27.6243 32.8938 25.1986 36.7794 25.1986C41.0434 25.1986 44.5 28.6552 44.5 32.9192C44.5 37.1831 41.0434 40.6397 36.7794 40.6397C33.9568 40.6397 31.2999 39.3519 28.8379 36.8376C28.4401 36.4314 28.4469 35.7796 28.8531 35.3819C29.2594 34.9841 29.9111 34.9909 30.3089 35.3971C32.4073 37.5401 34.5545 38.5809 36.7794 38.5809C39.9063 38.5809 42.4412 36.0461 42.4412 32.9192C42.4412 29.7923 39.9063 27.2574 36.7794 27.2574C33.679 27.2574 30.7046 29.2925 27.8519 33.4971C24.6515 38.214 21.1062 40.6397 17.2206 40.6397C12.9566 40.6397 9.5 37.1831 9.5 32.9192C9.5 28.6552 12.9566 25.1986 17.2206 25.1986C20.0435 25.1986 22.7006 26.4867 25.1628 29.0014ZM31.4192 15.1177C31.0171 14.7156 31.0171 14.0639 31.4192 13.6618C31.8212 13.2598 32.473 13.2598 32.875 13.6618L35.9632 16.7501C36.3652 17.1521 36.3652 17.8039 35.9632 18.2059L32.875 21.2941C32.473 21.6961 31.8212 21.6961 31.4192 21.2941C31.0171 20.8921 31.0171 20.2403 31.4192 19.8383L33.7795 17.478L31.4192 15.1177ZM20.2205 17.478L22.5808 19.8383C22.9829 20.2403 22.9829 20.8921 22.5808 21.2941C22.1788 21.6961 21.527 21.6961 21.125 21.2941L18.0368 18.2059C17.6348 17.8039 17.6348 17.1521 18.0368 16.7501L21.125 13.6618C21.527 13.2598 22.1788 13.2598 22.5808 13.6618C22.9829 14.0639 22.9829 14.7156 22.5808 15.1177L20.2205 17.478ZM27.6234 13.9294C27.8776 13.4209 28.496 13.2148 29.0045 13.469C29.513 13.7233 29.7191 14.3416 29.4648 14.8501L26.3766 21.0266C26.1224 21.5351 25.504 21.7412 24.9955 21.487C24.487 21.2327 24.2809 20.6144 24.5352 20.1059L27.6234 13.9294Z" fill="black"/>
</g>
<defs>
<clipPath id="clip0_2950_2940">
<rect width="35" height="35" fill="white" transform="translate(9.5 9.5)"/>
</clipPath>
</defs>
</svg>
