<svg width="50" height="50" viewBox="0 0 50 50" fill="none" xmlns="http://www.w3.org/2000/svg">
<g clip-path="url(#clip0_1584_5788)">
<path d="M20.4671 0C9.16503 0 0.00292969 9.16222 0.00292969 20.4642C0.00292969 20.4803 0.00292969 20.4964 0.00292969 20.5125C0.0295443 31.7957 9.18395 40.9284 20.4671 40.9284C31.7691 40.9284 40.9312 31.7662 40.9312 20.4641C40.9312 9.1621 31.7691 0 20.4671 0ZM20.4668 38.4881C10.5275 38.488 2.45895 30.4517 2.41908 20.5125C2.41897 10.533 10.4877 2.43178 20.4672 2.39192C30.4349 2.39203 38.5152 10.4724 38.5152 20.4401C38.515 30.4078 30.4345 38.4882 20.4668 38.4881Z" fill="#FEEE99"/>
<path d="M30.9536 22.9043C30.769 22.1547 30.1066 21.6207 29.3348 21.5996H25.1067C24.4854 21.616 23.9215 21.9672 23.633 22.5178C21.0096 21.9305 18.8997 19.9865 18.1002 17.4199C18.8656 17.2079 19.3854 16.4982 19.3565 15.7044V11.6454C19.3486 10.7961 18.7035 10.0886 17.8585 10.0024H17.5445H11.1417C10.4745 10.0024 9.93359 10.5433 9.93359 11.2105V11.6454C9.99871 13.2811 10.2583 14.9033 10.7068 16.4776C12.6038 23.0916 17.7852 28.2548 24.4059 30.1284C26.055 30.5171 27.7382 30.7437 29.4313 30.8049H29.7454C30.4126 30.8049 30.9535 30.264 30.9535 29.5968V23.3392C30.9799 23.1955 30.9799 23.048 30.9536 22.9043ZM28.5617 28.5096C27.3976 28.3866 26.2434 28.1847 25.1066 27.9056C19.282 26.2922 14.7098 21.7749 13.0262 15.9701C12.7033 14.7999 12.4851 13.6032 12.3739 12.3944H16.9161V15.0521H16.6021C16.0286 15.1045 15.5573 15.5267 15.4424 16.091C15.4099 16.2504 15.4099 16.4147 15.4424 16.5742C16.1141 20.9137 19.5498 24.3005 23.8987 24.9097V24.8856H24.1645H24.7927C25.3069 24.8381 25.7341 24.4692 25.8558 23.9674H28.5618L28.5617 28.5096Z" fill="#FEEE99"/>
<path d="M36.8641 35.2061L35.1709 36.9297L39.6351 41.315L41.3282 39.5914L36.8641 35.2061Z" fill="#FEEE99"/>
<path d="M43.4691 39.0209L39.0049 43.4062L40.698 45.1299L45.1622 40.7445L43.4691 39.0209Z" fill="#FEEE99"/>
<path d="M45.8449 41.3827L41.3887 45.9126L43.1111 47.607L47.5673 43.0771L45.8449 41.3827Z" fill="#FEEE99"/>
<path d="M48.2968 43.8678L43.833 48.2876L45.5329 50.0044L49.9967 45.5846L48.2968 43.8678Z" fill="#FEEE99"/>
</g>
<defs>
<clipPath id="clip0_1584_5788">
<rect width="50" height="50" fill="white"/>
</clipPath>
</defs>
</svg>
