<svg width="36" height="27" viewBox="0 0 36 27" fill="none" xmlns="http://www.w3.org/2000/svg">
<path d="M26.9502 0.125C23.8627 0.125 20.5377 0.758333 18.2419 2.5C15.946 0.758333 12.621 0.125 9.53353 0.125C7.23769 0.125 4.79936 0.473333 2.75686 1.37583C1.60103 1.89833 0.825195 3.0225 0.825195 4.305V22.165C0.825195 24.2233 2.75686 25.7433 4.75186 25.2367C6.30353 24.8408 7.95019 24.6667 9.53353 24.6667C12.0035 24.6667 14.6319 25.0783 16.7535 26.1233C17.7035 26.5983 18.7802 26.5983 19.7144 26.1233C21.836 25.0625 24.4644 24.6667 26.9344 24.6667C28.5177 24.6667 30.1644 24.8408 31.716 25.2367C33.711 25.7592 35.6427 24.2392 35.6427 22.165V4.305C35.6427 3.0225 34.8669 1.89833 33.711 1.37583C31.6844 0.473333 29.246 0.125 26.9502 0.125ZM32.4919 20.2808C32.4919 21.2783 31.5735 22.0067 30.5919 21.8325C29.4044 21.6108 28.1694 21.5158 26.9502 21.5158C24.2585 21.5158 20.3794 22.545 18.2419 23.8908V5.66667C20.3794 4.32083 24.2585 3.29167 26.9502 3.29167C28.4069 3.29167 29.8477 3.43417 31.2252 3.735C31.9535 3.89333 32.4919 4.5425 32.4919 5.28667V20.2808Z" fill="black"/>
</svg>
