<svg width="60" height="60" viewBox="0 0 60 60" fill="none" xmlns="http://www.w3.org/2000/svg">
<path d="M21.5414 4.07764H13.1232C12.4608 4.07764 11.9238 4.61459 11.9238 5.27698C11.9238 5.93936 12.4608 6.47631 13.1232 6.47631H21.5414C22.2038 6.47631 22.7408 5.93936 22.7408 5.27698C22.7408 4.61459 22.2038 4.07764 21.5414 4.07764Z" fill="white"/>
<path d="M54.4651 34.3208L44.9097 24.7654C42.9729 22.8286 39.9187 22.7311 38.1019 24.548C37.4839 25.1655 37.0728 25.9345 36.8957 26.7814C36.1843 26.3644 35.3874 26.125 34.5648 26.0902C34.1985 26.0746 33.8401 26.1012 33.494 26.1648V20.6469H43.8628C44.5252 20.6469 45.0622 20.1104 45.0622 19.4481C45.0622 18.7857 44.5252 18.2487 43.8628 18.2487H33.494V5.31096C33.494 2.3822 31.1118 0 28.1831 0H6.48284C3.55453 0 1.17188 2.3822 1.17188 5.31096V13.7631C1.17188 14.4255 1.70883 14.9624 2.37121 14.9624C3.03314 14.9624 3.57009 14.4255 3.57009 13.7631V10.5839H31.0958V27.4507C30.5195 28.0494 30.1222 28.8152 29.9523 29.6278C28.0847 28.5346 25.7189 28.7219 24.2083 30.2325C23.6279 30.8125 23.2434 31.5188 23.0511 32.2741L18.9683 28.1913C17.1524 26.3754 14.355 26.1762 12.5148 27.6557C12.3921 27.7542 12.274 27.8604 12.1605 27.9739C10.3436 29.7912 10.4411 32.8449 12.3779 34.7817L18.0185 40.4223H3.57009V23.3807C3.57009 22.7183 3.03314 22.1814 2.37121 22.1814C1.70883 22.1814 1.17188 22.7183 1.17188 23.3807V50.5434C1.17188 53.4722 3.55453 55.8544 6.48284 55.8544H20.3013C20.608 58.1858 22.6062 59.9916 25.0195 59.9916C25.0195 59.9916 43.655 59.9999 43.8198 59.9999C47.7946 59.9999 51.6489 58.411 54.4651 55.5948C60.3304 49.7295 60.3304 40.1861 54.4651 34.3208ZM3.57009 8.18526V5.31096C3.57009 3.70513 4.87701 2.39822 6.48284 2.39822H28.1835C29.7894 2.39822 31.0958 3.70513 31.0958 5.31096V8.18526H3.57009ZM3.57055 50.5434V42.821H20.4167L27.263 49.6673C26.58 49.6673 25.8966 49.6673 25.2136 49.6673C24.6862 49.6673 24.1699 49.7167 23.6613 49.8659C22.8886 50.093 22.1768 50.5283 21.6156 51.1051C20.9857 51.7519 20.5435 52.5718 20.359 53.4562H6.48284C4.87701 53.4562 3.57055 52.1492 3.57055 50.5434ZM52.7691 53.8988C50.2999 56.3684 46.8822 57.7156 43.3868 57.5939C43.373 57.5934 25.0199 57.5934 25.0199 57.5934C23.7982 57.5934 22.7494 56.6175 22.6638 55.3984C22.6414 55.0808 22.6561 54.7571 22.6579 54.439C22.6606 53.8581 22.8671 53.2964 23.2539 52.8611C23.6993 52.3594 24.3489 52.0659 25.0199 52.0659H29.6617L31.4744 53.8787C31.7088 54.113 32.0155 54.2302 32.3226 54.2302C32.6293 54.2302 32.936 54.113 33.1704 53.8787C33.6387 53.4104 33.6387 52.651 33.1704 52.1827L14.0739 33.0862C13.4335 32.4458 13.0916 31.4845 13.3291 30.5923C13.4459 30.1533 13.7063 29.7491 14.0767 29.4827C14.5349 29.1526 15.0865 29.0258 15.6454 29.0862C16.2588 29.1531 16.8383 29.4534 17.2723 29.8873L30.4595 43.0746C30.6939 43.3085 31.0006 43.4257 31.3073 43.4257C31.6145 43.4257 31.9212 43.3085 32.1555 43.0746C32.6238 42.6063 32.6238 41.8468 32.1555 41.3785L26.1218 35.3448C25.1197 34.3432 25.0222 32.8106 25.9043 31.9285C26.786 31.0468 28.3186 31.1443 29.3202 32.1459L35.2857 38.1115C35.5201 38.3459 35.8268 38.4626 36.1335 38.4626C36.4407 38.4626 36.7474 38.3459 36.9817 38.1115C37.45 37.6432 37.45 36.8838 36.9817 36.4155L33.0683 32.5021C32.8806 32.3144 32.7245 32.1079 32.6005 31.8905C32.3533 31.4561 32.2347 30.9777 32.2494 30.5181C32.2668 29.9821 32.465 29.4721 32.8509 29.0862C32.8957 29.0414 32.9434 28.9997 32.9919 28.9594C33.0033 28.9503 33.0143 28.9407 33.0258 28.9315C33.4194 28.6207 33.9225 28.4637 34.4627 28.4861C35.1273 28.5145 35.7682 28.8047 36.2672 29.3037L40.1801 33.2166C40.4145 33.451 40.7212 33.5682 41.0284 33.5682C41.3351 33.5682 41.6418 33.451 41.8761 33.2166C42.3444 32.7488 42.3444 31.9894 41.8761 31.5211L40.0108 29.6557C39.5145 29.1577 39.2261 28.5186 39.1978 27.8558C39.1712 27.23 39.3841 26.6574 39.7974 26.244C40.6795 25.3619 42.2117 25.4594 43.2137 26.4614L52.7691 36.0168C57.6992 40.9469 57.6992 48.9687 52.7691 53.8988Z" fill="white"/>
<path d="M1.26302 19.0309C1.45483 19.495 1.92769 19.793 2.42894 19.7692C2.92928 19.7459 3.37239 19.3985 3.5175 18.9196C3.65666 18.4619 3.50148 17.9478 3.13069 17.6448C2.72557 17.3143 2.1401 17.2868 1.70431 17.5752C1.23235 17.8878 1.04787 18.5099 1.26302 19.0309Z" fill="white"/>
<path d="M17.3338 44.7207C15.4547 44.7207 13.9258 46.2496 13.9258 48.1287C13.9258 50.0074 15.4547 51.5363 17.3338 51.5363C19.2129 51.5363 20.7414 50.0079 20.7414 48.1287C20.7414 46.2496 19.2129 44.7207 17.3338 44.7207ZM17.3338 49.1381C16.7772 49.1381 16.3245 48.6854 16.3245 48.1287C16.3245 47.5721 16.7772 47.1189 17.3338 47.1189C17.8905 47.1189 18.3432 47.5721 18.3432 48.1287C18.3432 48.6854 17.8905 49.1381 17.3338 49.1381Z" fill="white"/>
<path d="M10.673 25.09C10.2047 24.6217 9.4457 24.6217 8.97695 25.09C7.32306 26.7439 6.41211 28.943 6.41211 31.2817C6.41211 33.6209 7.32306 35.8195 8.97695 37.4734C9.21133 37.7078 9.51803 37.8249 9.82473 37.8249C10.1319 37.8249 10.4386 37.7078 10.673 37.4734C11.1413 37.0051 11.1413 36.2457 10.673 35.7774C9.47225 34.5767 8.81079 32.98 8.81079 31.2817C8.81079 29.5834 9.47225 27.9867 10.673 26.786C11.1413 26.3177 11.1413 25.5583 10.673 25.09Z" fill="white"/>
<path d="M37.1017 15.6531H46.9559C47.6183 15.6531 48.1553 15.1161 48.1553 14.4537C48.1553 13.7914 47.6183 13.2544 46.9559 13.2544H37.1017C36.4398 13.2544 35.9023 13.7914 35.9023 14.4537C35.9023 15.1161 36.4393 15.6531 37.1017 15.6531Z" fill="white"/>
<path d="M50.6538 14.9132C50.847 15.3806 51.3318 15.6836 51.8376 15.6506C52.3311 15.6191 52.7646 15.2748 52.9083 14.8019C53.0544 14.3208 52.8758 13.783 52.4689 13.4873C52.0757 13.2016 51.5415 13.1828 51.1285 13.4364C50.6333 13.7409 50.4328 14.379 50.6538 14.9132Z" fill="white"/>
</svg>
