<svg width="39" height="39" viewBox="0 0 39 39" fill="none" xmlns="http://www.w3.org/2000/svg">
<rect width="39" height="39" rx="19.5" fill="white" fill-opacity="0.1"/>
<path d="M25.5666 11.7C26.0263 11.7 26.4672 11.8826 26.7923 12.2077C27.1173 12.5328 27.3 12.9736 27.3 13.4334V25.5667C27.3 26.0264 27.1173 26.4673 26.7923 26.7923C26.4672 27.1174 26.0263 27.3 25.5666 27.3H13.4333C12.9736 27.3 12.5327 27.1174 12.2076 26.7923C11.8826 26.4673 11.7 26.0264 11.7 25.5667V13.4334C11.7 12.9736 11.8826 12.5328 12.2076 12.2077C12.5327 11.8826 12.9736 11.7 13.4333 11.7H25.5666ZM25.1333 25.1334V20.54C25.1333 19.7907 24.8356 19.0721 24.3058 18.5422C23.7759 18.0124 23.0573 17.7147 22.308 17.7147C21.5713 17.7147 20.7133 18.1654 20.2973 18.8414V17.8794H17.8793V25.1334H20.2973V20.8607C20.2973 20.1934 20.8346 19.6474 21.502 19.6474C21.8237 19.6474 22.1324 19.7752 22.3599 20.0027C22.5875 20.2303 22.7153 20.5389 22.7153 20.8607V25.1334H25.1333ZM15.0626 16.5187C15.4488 16.5187 15.8191 16.3653 16.0922 16.0922C16.3652 15.8192 16.5186 15.4488 16.5186 15.0627C16.5186 14.2567 15.8686 13.598 15.0626 13.598C14.6742 13.598 14.3016 13.7523 14.0269 14.027C13.7523 14.3017 13.598 14.6742 13.598 15.0627C13.598 15.8687 14.2566 16.5187 15.0626 16.5187ZM16.2673 25.1334V17.8794H13.8666V25.1334H16.2673Z" fill="white"/>
</svg>
