<svg width="39" height="39" viewBox="0 0 39 39" fill="none" xmlns="http://www.w3.org/2000/svg">
<rect width="39" height="39" rx="19.5" fill="white" fill-opacity="0.1"/>
<path d="M25.584 13.4117C24.3802 12.2084 22.8466 11.3891 21.1772 11.0574C19.5077 10.7257 17.7774 10.8965 16.205 11.5482C14.6327 12.1999 13.2888 13.3032 12.3435 14.7186C11.3981 16.134 10.8937 17.798 10.894 19.5001C10.894 21.7829 11.8006 23.9723 13.4144 25.587C15.0282 27.2016 17.2172 28.1092 19.5 28.1104C20.6297 28.1104 21.7485 27.8896 22.7934 27.4604C23.8347 27.0206 24.7821 26.3851 25.584 25.5884C26.3837 24.7889 27.018 23.8397 27.4507 22.7951C27.8835 21.7505 28.1062 20.6308 28.1062 19.5001C28.1062 18.3693 27.8835 17.2497 27.4507 16.205C27.018 15.1604 26.3837 14.2112 25.584 13.4117ZM24.9774 24.9731C23.7381 26.2177 22.112 27.0033 20.3667 27.2004V21.5151H21.996C22.2259 21.5151 22.4463 21.4237 22.6089 21.2612C22.7714 21.0987 22.8627 20.8782 22.8627 20.6484C22.8627 20.4185 22.7714 20.1981 22.6089 20.0356C22.4463 19.873 22.2259 19.7817 21.996 19.7817H20.3667V17.4071C20.3667 17.1772 20.458 16.9568 20.6206 16.7942C20.7831 16.6317 21.0035 16.5404 21.2334 16.5404H22.2734C22.5032 16.5404 22.7237 16.4491 22.8862 16.2865C23.0487 16.124 23.14 15.9036 23.14 15.6737C23.14 15.4439 23.0487 15.2234 22.8862 15.0609C22.7237 14.8984 22.5032 14.8071 22.2734 14.8071H20.8C20.2254 14.8071 19.6743 15.0353 19.268 15.4417C18.8616 15.848 18.6334 16.3991 18.6334 16.9737V19.7817H17.0127C16.7829 19.7817 16.5624 19.873 16.3999 20.0356C16.2374 20.1981 16.146 20.4185 16.146 20.6484C16.146 20.8782 16.2374 21.0987 16.3999 21.2612C16.5624 21.4237 16.7829 21.5151 17.0127 21.5151H18.6334V27.2004C17.0239 27.0168 15.5128 26.3321 14.3134 25.2432C13.1141 24.1542 12.2872 22.716 11.9496 21.1316C11.6119 19.5473 11.7805 17.8969 12.4316 16.4136C13.0827 14.9302 14.1834 13.689 15.5782 12.865C16.9729 12.0411 18.5913 11.6763 20.2047 11.8219C21.818 11.9676 23.3449 12.6165 24.5695 13.6769C25.7941 14.7373 26.6547 16.1556 27.0295 17.7316C27.4044 19.3076 27.2747 20.9615 26.6587 22.4597C26.2656 23.3981 25.6947 24.2516 24.9774 24.9731Z" fill="white"/>
</svg>
