<svg width="39" height="39" viewBox="0 0 39 39" fill="none" xmlns="http://www.w3.org/2000/svg">
<rect width="39" height="39" rx="19.5" fill="white" fill-opacity="0.1"/>
<path d="M25.61 13.3554C24.8154 12.5529 23.8689 11.9167 22.8259 11.4837C21.7828 11.0507 20.664 10.8296 19.5347 10.8334C14.8027 10.8334 10.946 14.69 10.946 19.422C10.946 20.9387 11.3447 22.412 12.09 23.712L10.8767 28.1667L15.4267 26.9707C16.6834 27.6554 18.096 28.0194 19.5347 28.0194C24.2667 28.0194 28.1234 24.1627 28.1234 19.4307C28.1234 17.134 27.2307 14.976 25.61 13.3554ZM19.5347 26.5634C18.252 26.5634 16.9954 26.2167 15.8947 25.5667L15.6347 25.4107L12.9307 26.1214L13.65 23.4867L13.4767 23.218C12.7639 22.0801 12.3855 20.7647 12.3847 19.422C12.3847 15.4874 15.5914 12.2807 19.526 12.2807C21.4327 12.2807 23.2267 13.026 24.57 14.378C25.2353 15.04 25.7625 15.8276 26.121 16.6949C26.4796 17.5623 26.6623 18.4922 26.6587 19.4307C26.676 23.3654 23.4694 26.5634 19.5347 26.5634ZM23.452 21.2247C23.2354 21.1207 22.178 20.6007 21.9874 20.5227C21.788 20.4534 21.6494 20.4187 21.502 20.6267C21.3547 20.8434 20.9474 21.3287 20.826 21.4674C20.7047 21.6147 20.5747 21.632 20.358 21.5194C20.1414 21.4154 19.448 21.1814 18.6334 20.4534C17.992 19.8814 17.5674 19.1794 17.4374 18.9627C17.316 18.746 17.42 18.6334 17.5327 18.5207C17.628 18.4254 17.7494 18.2694 17.8534 18.148C17.9574 18.0267 18.0007 17.9314 18.07 17.7927C18.1394 17.6454 18.1047 17.524 18.0527 17.42C18.0007 17.316 17.5674 16.2587 17.394 15.8254C17.2207 15.4094 17.0387 15.4614 16.9087 15.4527H16.4927C16.3454 15.4527 16.12 15.5047 15.9207 15.7214C15.73 15.938 15.1754 16.458 15.1754 17.5154C15.1754 18.5727 15.9467 19.5954 16.0507 19.734C16.1547 19.8814 17.5674 22.048 19.7167 22.9754C20.228 23.2007 20.6267 23.3307 20.9387 23.426C21.45 23.5907 21.918 23.5647 22.2907 23.5127C22.7067 23.452 23.5647 22.9927 23.738 22.49C23.92 21.9874 23.92 21.5627 23.8594 21.4674C23.7987 21.372 23.6687 21.3287 23.452 21.2247Z" fill="white"/>
</svg>
