<svg width="60" height="60" viewBox="0 0 60 60" fill="none" xmlns="http://www.w3.org/2000/svg">
<path d="M52.5 1.875H7.5C4.40625 1.875 1.875 4.40625 1.875 7.5V41.25C1.875 44.3437 4.40625 46.875 7.5 46.875H23.4375V54.375H15.9375C14.9062 54.375 14.0625 55.2187 14.0625 56.25C14.0625 57.2813 14.9062 58.125 15.9375 58.125H44.0625C45.0938 58.125 45.9375 57.2813 45.9375 56.25C45.9375 55.2187 45.0938 54.375 44.0625 54.375H36.5625V46.875H52.5C55.5937 46.875 58.125 44.3437 58.125 41.25V7.5C58.125 4.40625 55.5937 1.875 52.5 1.875ZM7.5 5.625H52.5C53.5313 5.625 54.375 6.46875 54.375 7.5V13.125H5.625V7.5C5.625 6.46875 6.46875 5.625 7.5 5.625ZM32.8125 54.375H27.1875V46.875H32.8125V54.375ZM52.5 43.125H7.5C6.46875 43.125 5.625 42.2813 5.625 41.25V16.875H54.375V41.25C54.375 42.2813 53.5313 43.125 52.5 43.125Z" fill="white"/>
<path d="M35.625 19.6875H11.25C10.2187 19.6875 9.375 20.5312 9.375 21.5625V38.4375C9.375 39.4688 10.2187 40.3125 11.25 40.3125H35.625C36.6563 40.3125 37.5 39.4688 37.5 38.4375V21.5625C37.5 20.5312 36.6563 19.6875 35.625 19.6875ZM33.75 36.5625H13.125V31.875H28.125C29.1563 31.875 30 31.0313 30 30C30 28.9687 29.1563 28.125 28.125 28.125H13.125V23.4375H33.75V36.5625Z" fill="white"/>
<path d="M9.375 11.25H10.3125C11.3438 11.25 12.1875 10.4063 12.1875 9.375C12.1875 8.34375 11.3438 7.5 10.3125 7.5H9.375C8.34375 7.5 7.5 8.34375 7.5 9.375C7.5 10.4063 8.34375 11.25 9.375 11.25Z" fill="white"/>
<path d="M15.9375 11.25H16.875C17.9063 11.25 18.75 10.4063 18.75 9.375C18.75 8.34375 17.9063 7.5 16.875 7.5H15.9375C14.9062 7.5 14.0625 8.34375 14.0625 9.375C14.0625 10.4063 14.9062 11.25 15.9375 11.25Z" fill="white"/>
<path d="M22.5 11.25H23.4375C24.4688 11.25 25.3125 10.4063 25.3125 9.375C25.3125 8.34375 24.4688 7.5 23.4375 7.5H22.5C21.4687 7.5 20.625 8.34375 20.625 9.375C20.625 10.4063 21.4687 11.25 22.5 11.25Z" fill="white"/>
<path d="M44.4559 23.0436C43.7246 22.3123 42.5434 22.3123 41.8121 23.0436C41.0809 23.7748 41.0809 24.9561 41.8121 25.6873L46.1059 29.9811L41.8121 34.2748C41.0809 35.0061 41.0809 36.1873 41.8121 36.9186C42.1871 37.2936 42.6559 37.4623 43.1434 37.4623C43.6309 37.4623 44.0996 37.2748 44.4746 36.9186L50.0996 31.2936C50.8309 30.5623 50.8309 29.3811 50.0996 28.6498L44.4746 23.0248L44.4559 23.0436Z" fill="white"/>
</svg>
