<svg width="22" height="22" viewBox="0 0 22 22" fill="none" xmlns="http://www.w3.org/2000/svg">
<g clip-path="url(#clip0_1107_450)">
<path d="M2.44444 3.05566C1.79614 3.05566 1.17438 3.3132 0.715961 3.77163C0.257539 4.23005 0 4.8518 0 5.50011L0 16.5001C0 17.1484 0.257539 17.7702 0.715961 18.2286C1.17438 18.687 1.79614 18.9446 2.44444 18.9446H7.33333V3.05566H2.44444Z" fill="#169B62"/>
<path d="M7.3335 3.05566H14.6668V18.9446H7.3335V3.05566Z" fill="#EEEEEE"/>
<path d="M19.5554 3.05566H14.6665V18.9446H19.5554C20.2037 18.9446 20.8255 18.687 21.2839 18.2286C21.7423 17.7702 21.9998 17.1484 21.9998 16.5001V5.50011C21.9998 4.8518 21.7423 4.23005 21.2839 3.77163C20.8255 3.3132 20.2037 3.05566 19.5554 3.05566Z" fill="#FF883E"/>
</g>
<defs>
<clipPath id="clip0_1107_450">
<rect width="22" height="22" fill="white"/>
</clipPath>
</defs>
</svg>
