<svg width="55" height="55" viewBox="0 0 55 55" fill="none" xmlns="http://www.w3.org/2000/svg">
<path d="M32.5275 14.665V12.9605L34.0218 10.8479C34.3221 10.9504 34.6436 11.0069 34.9783 11.0069C36.6156 11.0069 37.9476 9.67486 37.9476 8.03756C37.9476 6.39858 36.6156 5.06503 34.9783 5.06503C33.341 5.06503 32.0089 6.39858 32.0089 8.03756C32.0089 8.72933 32.2474 9.36605 32.6454 9.87145L30.9948 12.2053C30.8941 12.3478 30.8399 12.518 30.8399 12.6924V14.1447C30.0367 13.9537 29.2029 13.8326 28.3448 13.7846V7.97133C29.6491 7.6024 30.6081 6.401 30.6081 4.97907C30.6081 3.26584 29.2143 1.87207 27.5011 1.87207C25.7862 1.87207 24.3912 3.26584 24.3912 4.97907C24.3912 6.40132 25.3514 7.60282 26.6573 7.97164V13.7843C25.7991 13.8324 24.9656 13.9535 24.1623 14.1444V12.6923C24.1623 12.5177 24.1081 12.3473 24.0071 12.2046L22.3542 9.87093C22.7521 9.36562 22.9905 8.72902 22.9905 8.03746C22.9905 6.39847 21.6584 5.06493 20.0211 5.06493C18.3838 5.06493 17.0517 6.39847 17.0517 8.03746C17.0517 9.67475 18.3838 11.0068 20.0211 11.0068C20.356 11.0068 20.6776 10.9503 20.9781 10.8476L22.4748 12.9608V14.6645C19.261 15.8931 16.6746 18.3249 15.1781 21.6677C12.9308 26.6876 13.7422 32.4656 17.2453 36.3883C19.4727 38.8807 20.5555 41.7176 20.5555 45.061V48.8908C20.5555 49.3568 20.9333 49.7345 21.3993 49.7345H23.3487C23.741 51.668 25.4537 53.1279 27.5011 53.1279C29.5485 53.1279 31.2612 51.668 31.6536 49.7345H33.6C34.0661 49.7345 34.4437 49.3568 34.4437 48.8908V45.061C34.4437 41.7207 35.5267 38.8837 37.7542 36.388C41.2573 32.4655 42.0686 26.6871 39.8213 21.6668C38.3252 18.3249 35.7398 15.8937 32.5275 14.665ZM34.9783 6.75243C35.6851 6.75243 36.2601 7.32892 36.2601 8.03746C36.2601 8.7442 35.6851 9.31932 34.9783 9.31932C34.2715 9.31932 33.6964 8.7442 33.6964 8.03746C33.6964 7.32892 34.2715 6.75243 34.9783 6.75243ZM18.7392 8.03746C18.7392 7.32892 19.3142 6.75243 20.0211 6.75243C20.7278 6.75243 21.303 7.32892 21.303 8.03746C21.303 8.7442 20.7278 9.31932 20.0211 9.31932C19.3142 9.31932 18.7392 8.7442 18.7392 8.03746ZM26.0787 4.97907C26.0787 4.19639 26.7168 3.55957 27.5011 3.55957C28.2838 3.55957 28.9206 4.19639 28.9206 4.97907C28.9206 5.76334 28.2838 6.40132 27.5011 6.40132C26.7168 6.40132 26.0787 5.76323 26.0787 4.97907ZM27.5012 51.4405C26.391 51.4405 25.4442 50.727 25.0951 49.7346H29.9072C29.5582 50.7271 28.6114 51.4405 27.5012 51.4405ZM32.7563 48.0471H30.8945H24.1079H22.243V45.9049H32.7563V48.0471ZM36.4955 35.2643C34.1691 37.8708 32.9481 40.8068 32.7772 44.2175H28.3449V34.5736C28.3449 34.1075 27.9672 33.7299 27.5012 33.7299C27.0352 33.7299 26.6574 34.1075 26.6574 34.5736V44.2175H22.2222C22.0515 40.8039 20.8304 37.8676 18.5037 35.2641C15.4432 31.8371 14.7424 26.7709 16.7182 22.3574C18.6555 18.03 22.6865 15.4464 27.5011 15.4464C32.3141 15.4464 36.344 18.0296 38.281 22.3565C40.2571 26.7704 39.5562 31.8369 36.4955 35.2643Z" fill="black"/>
<path d="M34.2532 23.6599L27.5012 30.4145L25.249 28.1622C24.9195 27.8327 24.3853 27.8327 24.0558 28.1622C23.7262 28.4917 23.7262 29.0259 24.0558 29.3554L26.9049 32.2045C27.0631 32.3627 27.2778 32.4516 27.5016 32.4516C27.7254 32.4516 27.94 32.3627 28.0982 32.2044L35.4468 24.8529C35.7763 24.5233 35.7762 23.9891 35.4466 23.6596C35.117 23.3302 34.5828 23.3303 34.2532 23.6599Z" fill="black"/>
<path d="M15.218 16.4103C15.3826 16.5751 15.5986 16.6574 15.8145 16.6574C16.0305 16.6574 16.2464 16.5751 16.4111 16.4103C16.7406 16.0808 16.7406 15.5466 16.4111 15.2171L14.0702 12.8763C13.7408 12.5468 13.2066 12.5468 12.8771 12.8763C12.5475 13.2057 12.5475 13.7399 12.8771 14.0694L15.218 16.4103Z" fill="black"/>
<path d="M12.5356 20.4385L9.47115 19.1797C9.03988 19.0027 8.54713 19.2085 8.37016 19.6395C8.19308 20.0706 8.39895 20.5636 8.83 20.7405L11.8945 21.9992C11.9994 22.0422 12.1079 22.0627 12.2147 22.0627C12.5467 22.0627 12.8615 21.8654 12.9955 21.5393C13.1726 21.1085 12.9667 20.6154 12.5356 20.4385Z" fill="black"/>
<path d="M10.9747 26.6562H7.66211C7.19615 26.6562 6.81836 27.034 6.81836 27.5C6.81836 27.9661 7.19615 28.3438 7.66211 28.3438H10.9747C11.4406 28.3438 11.8184 27.9661 11.8184 27.5C11.8184 27.034 11.4406 26.6562 10.9747 26.6562Z" fill="black"/>
<path d="M39.1855 16.6572C39.4013 16.6572 39.6171 16.575 39.7817 16.4105L42.1256 14.0696C42.4553 13.7402 42.4558 13.206 42.1265 12.8763C41.7972 12.5467 41.2629 12.5464 40.9332 12.8756L38.5893 15.2165C38.2596 15.5458 38.2593 16.0801 38.5885 16.4098C38.7533 16.5747 38.9694 16.6572 39.1855 16.6572Z" fill="black"/>
<path d="M46.6293 19.6395C46.4522 19.2085 45.9591 19.0027 45.5282 19.1797L42.4638 20.4385C42.0327 20.6155 41.8269 21.1085 42.0039 21.5394C42.1379 21.8656 42.4527 22.0628 42.7846 22.0628C42.8915 22.0628 43 22.0424 43.1049 21.9993L46.1693 20.7406C46.6004 20.5634 46.8064 20.0706 46.6293 19.6395Z" fill="black"/>
<path d="M47.338 26.6562H44.0254C43.5594 26.6562 43.1816 27.034 43.1816 27.5C43.1816 27.9661 43.5594 28.3438 44.0254 28.3438H47.338C47.8039 28.3438 48.1817 27.9661 48.1817 27.5C48.1817 27.034 47.8039 26.6562 47.338 26.6562Z" fill="black"/>
<path d="M28.0164 17.6571C28.0009 17.1914 27.6109 16.8289 27.145 16.8419C24.3953 16.9331 21.8244 18.0736 19.9059 20.0528C17.9829 22.0368 16.9238 24.6508 16.9238 27.4134C16.9238 28.8381 17.2027 30.2218 17.7525 31.5261C17.8883 31.8485 18.2012 32.0424 18.5303 32.0424C18.6396 32.0424 18.7507 32.0211 18.8577 31.9759C19.2871 31.7949 19.4884 31.3001 19.3075 30.8707C18.8456 29.7749 18.6113 28.6118 18.6113 27.4136C18.6113 22.5912 22.3844 18.6883 27.201 18.5285C27.6668 18.5129 28.0318 18.1228 28.0164 17.6571Z" fill="black"/>
</svg>
