<svg width="60" height="60" viewBox="0 0 60 60" fill="none" xmlns="http://www.w3.org/2000/svg">
<path d="M52.3913 1.875H7.60875C4.4475 1.875 1.875 4.4475 1.875 7.60875V42.5859C1.875 45.7472 4.4475 48.3197 7.60875 48.3197H21.7969L20.8256 51.4313H20.4216C18.09 51.4313 16.1925 53.3316 16.1925 55.6678V57.1884C16.1925 57.7059 16.6116 58.1259 17.13 58.1259H42.8691C43.3875 58.1259 43.8066 57.7059 43.8066 57.1884V55.6678C43.8066 53.3316 41.91 51.4313 39.5775 51.4313H39.1734L38.2022 48.3197H52.3903C55.5516 48.3197 58.1241 45.7472 58.1241 42.5859V7.60875C58.1241 4.44656 55.5525 1.875 52.3913 1.875ZM7.60875 3.75H52.3913C54.5194 3.75 56.25 5.48156 56.25 7.60875V39.0187H3.75V7.60875C3.75 5.48063 5.48156 3.75 7.60875 3.75ZM41.9325 55.6669V56.25H18.0675V55.6669C18.0675 54.3647 19.1231 53.3053 20.4216 53.3053H39.5784C40.8769 53.3053 41.9325 54.3647 41.9325 55.6669ZM37.2103 51.4303H22.7906L23.7619 48.3188H36.24L37.2103 51.4303ZM52.3913 46.4438H36.9366C36.9366 46.4438 36.9309 46.4428 36.9281 46.4428H23.0728C23.0728 46.4428 23.0672 46.4438 23.0644 46.4438H7.60875C5.48063 46.4438 3.75 44.7131 3.75 42.585V40.8928H56.25V42.585C56.25 44.7131 54.5184 46.4438 52.3913 46.4438Z" fill="white"/>
<path d="M31.1002 42.7031H28.8184C28.2999 42.7031 27.8809 43.1231 27.8809 43.6406C27.8809 44.1581 28.2999 44.5781 28.8184 44.5781H31.1002C31.6187 44.5781 32.0377 44.1581 32.0377 43.6406C32.0377 43.1231 31.6187 42.7031 31.1002 42.7031Z" fill="white"/>
<path d="M19.9093 29.7874C20.8787 29.7874 21.79 29.4095 22.4743 28.7242L31.1509 20.0486C31.2709 20.0777 31.3918 20.0899 31.5118 20.1133C31.644 20.1845 31.7875 20.2352 31.9478 20.2352H31.9515C31.9956 20.2352 32.034 20.2155 32.0762 20.2099C34.1462 20.4339 36.22 19.7252 37.7331 18.212C39.669 16.2752 40.2925 13.3661 39.3212 10.8011C39.2078 10.5039 38.9518 10.2836 38.6406 10.217C38.334 10.1514 38.0059 10.2452 37.7809 10.4711L34.659 13.592L33.0943 12.9695L32.4728 11.4049L35.5937 8.28392C35.8187 8.05892 35.9143 7.73549 35.8478 7.42424C35.7812 7.11299 35.5609 6.85705 35.2637 6.74455C32.7015 5.7733 29.7971 6.40236 27.8593 8.34017C26.1193 10.0802 25.4387 12.5561 26.0181 14.9205L17.3434 23.5952C16.6581 24.2795 16.2803 25.1917 16.2803 26.1602C16.2803 27.1286 16.6571 28.0408 17.3434 28.7252C18.0287 29.4105 18.94 29.7883 19.9084 29.7883L19.9093 29.7874ZM18.67 24.9199L27.7356 15.8542C27.9878 15.603 28.074 15.2308 27.9615 14.8942C27.3418 13.0436 27.8115 11.0402 29.1859 9.66486C30.1618 8.68892 31.4715 8.16767 32.8028 8.16767C32.8862 8.16767 32.9696 8.16955 33.0531 8.1733L30.7121 10.5142C30.4478 10.7786 30.3653 11.1761 30.504 11.5239L31.5025 14.0374C31.599 14.2764 31.7884 14.4667 32.0275 14.5624L34.5409 15.5617C34.8897 15.7005 35.2853 15.6189 35.5506 15.3536L37.8934 13.0117C37.9665 14.433 37.4443 15.8505 36.4084 16.8864C35.034 18.2599 33.0296 18.7249 31.1771 18.1061C30.8425 17.9936 30.4684 18.0799 30.2171 18.3321L21.1496 27.3986C20.4878 28.0614 19.3337 28.0614 18.67 27.3986C18.3381 27.0667 18.1562 26.627 18.1562 26.1592C18.1562 25.6914 18.3381 25.2508 18.67 24.9199Z" fill="white"/>
<path d="M39.4742 18.2655L38.5648 19.4749C38.3388 19.7767 38.3145 20.1855 38.5057 20.5117C38.8526 21.1042 39.1067 21.7202 39.2829 22.3942C39.3795 22.7608 39.686 23.0336 40.061 23.0852L41.8423 23.3336V25.0549L40.061 25.3024C39.687 25.3548 39.3804 25.6258 39.2838 25.9905C39.1048 26.6683 38.8432 27.2973 38.5085 27.8627C38.3145 28.1908 38.337 28.6033 38.5676 28.907L39.6532 30.3414L38.4373 31.5611L36.9982 30.4745C36.6954 30.2458 36.2838 30.2233 35.9557 30.4164C35.3895 30.752 34.7595 31.0127 34.0835 31.1917C33.7179 31.2883 33.447 31.5948 33.3954 31.9689L33.147 33.7502H31.4257L31.1773 31.9689C31.1248 31.5939 30.852 31.2864 30.4863 31.1908C29.8198 31.0164 29.1907 30.7558 28.6179 30.4164C28.2888 30.2214 27.8782 30.2449 27.5763 30.4745L26.1354 31.5611L24.9195 30.3414L25.0957 30.108C25.4088 29.6955 25.3273 29.1067 24.9148 28.7945C24.5013 28.4805 23.9135 28.563 23.6023 28.9755L22.9329 29.8586C22.6498 30.2317 22.6854 30.7558 23.0163 31.0867L25.3835 33.4624C25.7135 33.7942 26.2385 33.8308 26.6117 33.5486L28.2232 32.3345C28.6029 32.5239 28.9976 32.687 29.4054 32.823L29.6829 34.8161C29.7467 35.2802 30.1432 35.6242 30.611 35.6242H33.9645C34.4323 35.6242 34.8288 35.2792 34.8926 34.8161L35.1701 32.822C35.5798 32.6852 35.9735 32.522 36.3513 32.3336L37.962 33.5486C38.336 33.8308 38.861 33.7933 39.191 33.4624L41.5582 31.0867C41.8892 30.7549 41.9248 30.2317 41.6417 29.8586L40.4285 28.2564C40.616 27.8805 40.7792 27.4858 40.917 27.077L42.911 26.8005C43.3742 26.7358 43.7192 26.3392 43.7192 25.8714V22.518C43.7192 22.0502 43.3742 21.6536 42.911 21.5898L40.9179 21.3123C40.781 20.9036 40.617 20.507 40.4267 20.1227L40.9348 19.4467C41.2882 19.082 41.2685 18.5167 40.9113 18.1539C40.5476 17.7873 39.9401 17.7977 39.5726 18.1577C39.5379 18.1914 39.506 18.227 39.476 18.2655H39.4742Z" fill="white"/>
<path d="M32.2177 27.6534C30.7543 27.6534 29.4399 26.7862 28.868 25.4447C28.6646 24.9675 28.1124 24.7453 27.638 24.9497C27.1618 25.1531 26.9405 25.7034 27.144 26.1797C28.0121 28.214 30.0033 29.5284 32.2187 29.5284C35.2665 29.5284 37.7462 27.0525 37.7462 24.0103C37.7462 22.9275 37.4293 21.8737 36.8302 20.9644C36.6568 20.7009 36.3624 20.5425 36.0474 20.5425H36.039C35.5205 20.5425 35.1062 20.9625 35.1062 21.48C35.1062 21.6919 35.1765 21.8869 35.2946 22.0434C35.6715 22.635 35.8702 23.3137 35.8702 24.0112C35.8702 26.0203 34.2324 27.6534 32.2177 27.6534Z" fill="white"/>
<path d="M20.4221 26.5855C20.6621 26.5855 20.9021 26.4937 21.0849 26.3109L21.9671 25.4287C22.3337 25.0621 22.3337 24.4696 21.9671 24.103C21.6005 23.7365 21.008 23.7365 20.6415 24.103L19.7593 24.9852C19.3927 25.3518 19.3927 25.9443 19.7593 26.3109C19.9421 26.4937 20.1821 26.5855 20.4221 26.5855Z" fill="white"/>
</svg>
