<svg width="54" height="54" viewBox="0 0 54 54" fill="none" xmlns="http://www.w3.org/2000/svg">
<rect width="54" height="54" rx="27" fill="#FFC649"/>
<g clip-path="url(#clip0_2950_2992)">
<path d="M43.0249 32.0228H42.437C43.2407 31.246 43.8393 30.282 44.1793 29.2172C44.5193 28.1523 44.59 27.0198 44.3851 25.921C44.1803 24.8221 43.7062 23.7912 43.0054 22.9204C42.3046 22.0496 41.3989 21.3661 40.3692 20.931C40.5552 20.2311 40.6517 19.5104 40.6564 18.7862C40.6569 13.6656 36.4913 9.5 31.3707 9.5C27.6344 9.5 24.2838 11.7671 22.8438 15.2032C22.1213 14.8743 21.3368 14.7039 20.543 14.7033C19.0201 14.7052 17.56 15.3111 16.4831 16.3881C15.4063 17.4651 14.8005 18.9252 14.7987 20.4482C14.7987 20.4818 14.7998 20.5155 14.8009 20.5486C11.7452 21.2428 9.5 23.997 9.5 27.1597C9.50214 28.9638 10.2198 30.6933 11.4955 31.969C12.7713 33.2446 14.5009 33.9621 16.305 33.9641H16.9789V36.291C16.9793 36.4619 16.9412 36.6306 16.8674 36.7847C16.7937 36.9389 16.6861 37.0744 16.5528 37.1812L15.0923 38.3596C14.8022 38.1992 14.4767 38.1139 14.1452 38.1116C13.7458 38.1108 13.3551 38.2285 13.0225 38.4498C12.69 38.6711 12.4306 38.9861 12.2772 39.3549C12.1237 39.7237 12.0831 40.1297 12.1605 40.5216C12.238 40.9134 12.4299 41.2735 12.712 41.5563C12.9942 41.839 13.3539 42.0317 13.7456 42.1099C14.1373 42.1882 14.5434 42.1485 14.9125 41.9958C15.2817 41.8431 15.5972 41.5844 15.8192 41.2523C16.0412 40.9202 16.1597 40.5298 16.1597 40.1303C16.1576 39.7774 16.0621 39.4313 15.8829 39.1273L17.2406 38.0326C17.5009 37.8231 17.7108 37.5579 17.8548 37.2565C17.9988 36.955 18.0733 36.6251 18.0727 36.291V33.9641H20.4407V40.5477C19.9725 40.6798 19.5679 40.9768 19.3017 41.3839C19.0354 41.791 18.9254 42.2807 18.9921 42.7626C19.0588 43.2445 19.2975 43.6859 19.6643 44.0055C20.0311 44.325 20.5011 44.501 20.9876 44.501C21.474 44.501 21.9441 44.325 22.3109 44.0055C22.6776 43.6859 22.9164 43.2445 22.9831 42.7626C23.0497 42.2807 22.9398 41.791 22.6735 41.3839C22.4072 40.9768 22.0026 40.6798 21.5345 40.5477V33.9641H23.66V34.6627C23.6606 35.0537 23.8161 35.4286 24.0926 35.7051C24.3692 35.9816 24.744 36.1372 25.1351 36.1377H26.5001C26.6767 36.7824 26.9355 37.4016 27.2702 37.9802L26.3004 38.95C26.0244 39.227 25.8694 39.6021 25.8694 39.9931C25.8694 40.3841 26.0244 40.7591 26.3004 41.0361L27.1239 41.8596C27.6783 42.4166 28.6534 42.4177 29.2099 41.8596L30.1798 40.8897C30.7583 41.2246 31.3776 41.4835 32.0223 41.6599V43.0249C32.0228 43.416 32.1784 43.7909 32.4549 44.0674C32.7314 44.3439 33.1063 44.4995 33.4974 44.5H34.6627C35.0537 44.4995 35.4286 44.3439 35.7051 44.0674C35.9816 43.7909 36.1372 43.416 36.1377 43.0249V41.6599C36.7825 41.4834 37.4017 41.2246 37.9802 40.8897L38.95 41.8596C39.5044 42.4166 40.4796 42.4177 41.0361 41.8596L41.8596 41.0366C41.9967 40.8997 42.1055 40.7371 42.1798 40.5581C42.254 40.379 42.2922 40.1871 42.2922 39.9933C42.2922 39.7995 42.254 39.6076 42.1798 39.4286C42.1055 39.2496 41.9967 39.087 41.8596 38.95L40.8897 37.9802C41.2245 37.4017 41.4833 36.7824 41.6599 36.1377H43.0249C43.416 36.1372 43.7909 35.9816 44.0674 35.7051C44.3439 35.4286 44.4995 35.0537 44.5 34.6627V33.4979C44.4995 33.1069 44.3439 32.732 44.0674 32.4555C43.7909 32.1789 43.416 32.0234 43.0249 32.0228ZM14.1452 41.0553C13.8999 41.0553 13.6646 40.9579 13.4912 40.7844C13.3177 40.6109 13.2203 40.3757 13.2203 40.1303C13.2203 39.885 13.3177 39.6497 13.4912 39.4763C13.6646 39.3028 13.8999 39.2054 14.1452 39.2054C14.3329 39.21 14.5143 39.2736 14.6638 39.3871C14.6674 39.3918 14.668 39.3977 14.6718 39.4024C14.7159 39.4533 14.7692 39.4952 14.829 39.5261C14.9792 39.6918 15.0634 39.9067 15.0659 40.1303C15.0661 40.375 14.9693 40.6097 14.7967 40.7831C14.6242 40.9565 14.3899 41.0544 14.1452 41.0553ZM21.9083 42.4813C21.9076 42.6634 21.8529 42.8411 21.7512 42.9921C21.6495 43.1432 21.5053 43.2607 21.3369 43.3298C21.1684 43.3989 20.9833 43.4166 20.8048 43.3806C20.6263 43.3446 20.4625 43.2565 20.3341 43.1274C20.2056 42.9984 20.1183 42.8342 20.0831 42.6555C20.0479 42.4769 20.0665 42.2918 20.1364 42.1237C20.2063 41.9556 20.3245 41.812 20.476 41.711C20.6275 41.61 20.8055 41.5561 20.9876 41.5562C21.2322 41.5571 21.4666 41.655 21.6392 41.8284C21.8118 42.0018 21.9086 42.2366 21.9083 42.4813ZM23.8125 32.8704H16.305C14.7909 32.8686 13.3393 32.2664 12.2686 31.1959C11.1979 30.1253 10.5956 28.6738 10.5938 27.1597C10.5938 24.3596 12.6937 21.9409 15.4793 21.5337L15.9995 21.4579L15.9215 20.7502C15.9049 20.6503 15.8952 20.5493 15.8927 20.448C15.894 19.2149 16.3844 18.0327 17.2562 17.1608C18.1281 16.2888 19.3102 15.7983 20.5433 15.7969C21.3601 15.8009 22.1611 16.0233 22.8632 16.4409L23.4389 16.7747L23.6546 16.1451C24.792 12.8245 27.8929 10.5938 31.3707 10.5938C33.5427 10.5962 35.6251 11.4601 37.1609 12.996C38.6968 14.5318 39.5607 16.6142 39.5632 18.7862C39.5632 19.505 39.4435 20.2423 39.1862 21.1072L39.0366 21.6108L39.5333 21.7806C40.4812 22.0993 41.3283 22.6625 41.989 23.4133C42.6497 24.164 43.1007 25.0758 43.2964 26.0565C43.4921 27.0373 43.4256 28.0523 43.1036 28.9991C42.7816 29.946 42.2155 30.7911 41.4625 31.4492C41.3098 31.01 41.1181 30.5854 40.8897 30.1803L41.8596 29.2105C41.9967 29.0735 42.1055 28.9109 42.1798 28.7319C42.254 28.5529 42.2922 28.361 42.2922 28.1672C42.2922 27.9734 42.254 27.7815 42.1798 27.6025C42.1055 27.4234 41.9967 27.2608 41.8596 27.1239L41.0361 26.3004C40.4796 25.7428 39.5044 25.7439 38.95 26.3004L37.9802 27.2711C37.4017 26.9362 36.7825 26.6774 36.1377 26.501V25.1356C36.1373 24.7445 35.9818 24.3695 35.7053 24.0929C35.4288 23.8163 35.0538 23.6606 34.6627 23.66H33.4974C33.1062 23.6606 32.7313 23.8162 32.4547 24.0929C32.1782 24.3695 32.0227 24.7445 32.0223 25.1356V26.501C31.3776 26.6774 30.7583 26.9362 30.1798 27.2711L29.2099 26.3004C28.6534 25.7428 27.6783 25.7439 27.1239 26.3004L26.3004 27.1239C26.0244 27.4008 25.8694 27.7759 25.8694 28.1669C25.8694 28.5579 26.0244 28.933 26.3004 29.2099L27.2702 30.1806C26.9355 30.7592 26.6767 31.3785 26.5001 32.0232H25.1351C24.8571 32.0249 24.5853 32.1053 24.3512 32.2553C24.1171 32.4052 23.9303 32.6185 23.8125 32.8704ZM43.4062 34.6627C43.4062 34.7638 43.366 34.8607 43.2945 34.9322C43.223 35.0037 43.1261 35.0439 43.0249 35.044H40.7862L40.6943 35.4781C40.521 36.2925 40.1972 37.0674 39.7394 37.7628L39.4969 38.1346L41.0863 39.7239C41.1218 39.7592 41.15 39.8012 41.1693 39.8474C41.1885 39.8937 41.1984 39.9433 41.1984 39.9934C41.1984 40.0435 41.1885 40.0931 41.1693 40.1393C41.15 40.1855 41.1218 40.2275 41.0863 40.2628L40.2628 41.0863C40.1901 41.1556 40.0935 41.1942 39.9931 41.1942C39.8927 41.1942 39.7961 41.1556 39.7234 41.0863L38.134 39.4975L37.7623 39.7399C37.0668 40.1974 36.2919 40.5211 35.4777 40.6943L35.044 40.7856V43.0249C35.0439 43.1261 35.0037 43.223 34.9322 43.2945C34.8607 43.366 34.7638 43.4062 34.6627 43.4062H33.4974C33.3962 43.4062 33.2993 43.366 33.2278 43.2945C33.1563 43.223 33.1161 43.1261 33.116 43.0249V40.7856L32.6824 40.6943C31.868 40.5211 31.0931 40.1974 30.3975 39.7399L30.0258 39.4975L28.4364 41.0863C28.3637 41.1556 28.2672 41.1942 28.1667 41.1942C28.0663 41.1942 27.9697 41.1556 27.897 41.0863L27.0735 40.2628C27.0022 40.1912 26.9621 40.0942 26.9621 39.9931C26.9621 39.892 27.0022 39.795 27.0735 39.7234L28.6628 38.1346L28.4204 37.7628C27.9626 37.0673 27.6388 36.2925 27.4655 35.4781L27.3737 35.044H25.1349C25.0338 35.0439 24.9368 35.0037 24.8653 34.9322C24.7938 34.8607 24.7536 34.7638 24.7536 34.6627V33.4979C24.7536 33.3968 24.7938 33.2998 24.8653 33.2283C24.9368 33.1568 25.0338 33.1166 25.1349 33.1166H27.3737L27.4655 32.6824C27.6386 31.8679 27.9626 31.0929 28.4206 30.3975L28.663 30.0258L27.0737 28.4364C27.0024 28.3648 26.9623 28.2678 26.9623 28.1667C26.9623 28.0656 27.0024 27.9687 27.0737 27.897L27.8972 27.0735C27.97 27.0043 28.0665 26.9657 28.1669 26.9657C28.2673 26.9657 28.3639 27.0043 28.4366 27.0735L30.026 28.6628L30.3977 28.4204C31.0928 27.9628 31.8673 27.6392 32.6813 27.466L33.116 27.3747V25.1356C33.1161 25.0345 33.1562 24.9374 33.2277 24.8659C33.2992 24.7943 33.3962 24.754 33.4974 24.7538H34.6627C34.7638 24.754 34.8608 24.7943 34.9323 24.8659C35.0038 24.9374 35.0439 25.0345 35.044 25.1356V27.3749L35.4787 27.4662C36.2927 27.6393 37.0672 27.963 37.7623 28.4206L38.134 28.663L39.7234 27.0737C39.7961 27.0045 39.8927 26.9659 39.9931 26.9659C40.0935 26.9659 40.1901 27.0045 40.2628 27.0737L41.0863 27.8978C41.1218 27.9331 41.15 27.975 41.1693 28.0213C41.1885 28.0675 41.1984 28.1171 41.1984 28.1672C41.1984 28.2173 41.1885 28.2669 41.1693 28.3131C41.15 28.3594 41.1218 28.4014 41.0863 28.4366L39.4969 30.026L39.7394 30.3977C40.1974 31.093 40.5212 31.8679 40.6943 32.6824L40.7862 33.1166H43.0249C43.1261 33.1166 43.223 33.1568 43.2945 33.2283C43.366 33.2998 43.4062 33.3968 43.4062 33.4979V34.6627ZM34.0805 28.9258C33.0611 28.9257 32.0645 29.2279 31.2168 29.7942C30.3691 30.3605 29.7084 31.1654 29.3181 32.1072C28.9279 33.049 28.8258 34.0854 29.0246 35.0853C29.2234 36.0852 29.7142 37.0036 30.4351 37.7245C31.1559 38.4454 32.0743 38.9364 33.0741 39.1353C34.074 39.3343 35.1104 39.2322 36.0522 38.8421C36.9941 38.452 37.7991 37.7914 38.3655 36.9438C38.9319 36.0961 39.2342 35.0996 39.2342 34.0801C39.2327 32.7137 38.6892 31.4037 37.723 30.4374C36.7569 29.4711 35.4469 28.9275 34.0805 28.9258ZM34.0805 38.1407C33.2774 38.1408 32.4923 37.9027 31.8244 37.4566C31.1566 37.0105 30.6361 36.3764 30.3286 35.6344C30.0212 34.8925 29.9407 34.076 30.0973 33.2883C30.2539 32.5006 30.6406 31.777 31.2085 31.2091C31.7763 30.6412 32.4998 30.2544 33.2875 30.0976C34.0752 29.9409 34.8917 30.0213 35.6337 30.3286C36.3757 30.6359 37.0099 31.1564 37.4561 31.8241C37.9023 32.4919 38.1405 33.277 38.1405 34.0801C38.139 35.1565 37.7108 36.1883 36.9498 36.9495C36.1887 37.7106 35.1569 38.1389 34.0805 38.1405V38.1407ZM36.7412 32.9125C36.8438 33.0151 36.9014 33.1542 36.9014 33.2992C36.9014 33.4442 36.8438 33.5833 36.7412 33.6859L34.0677 36.3599C33.9652 36.4624 33.8261 36.5201 33.6811 36.5201C33.536 36.5201 33.397 36.4624 33.2944 36.3599L31.9464 35.0132C31.8947 34.9627 31.8535 34.9023 31.8253 34.8357C31.7971 34.7691 31.7823 34.6976 31.7819 34.6253C31.7815 34.5529 31.7954 34.4813 31.8229 34.4144C31.8504 34.3475 31.8909 34.2867 31.9421 34.2355C31.9932 34.1844 32.054 34.1439 32.1209 34.1164C32.1878 34.0889 32.2595 34.0749 32.3318 34.0754C32.4042 34.0758 32.4757 34.0905 32.5423 34.1187C32.6089 34.147 32.6692 34.1882 32.7198 34.2399L33.6808 35.2003L35.9679 32.9127C36.0704 32.8102 36.2095 32.7525 36.3545 32.7525C36.4995 32.7525 36.6386 32.81 36.7412 32.9125Z" fill="black"/>
</g>
<defs>
<clipPath id="clip0_2950_2992">
<rect width="35" height="35" fill="white" transform="translate(9.5 9.5)"/>
</clipPath>
</defs>
</svg>
