<svg width="94" height="94" viewBox="0 0 94 94" fill="none" xmlns="http://www.w3.org/2000/svg">
<g filter="url(#filter0_d_1579_2589)">
<rect x="4" width="86" height="86" rx="10" fill="white" shape-rendering="crispEdges"/>
<g clip-path="url(#clip0_1579_2589)">
<g clip-path="url(#clip1_1579_2589)">
<path d="M66.8777 62.8844C77.8596 51.9025 77.8596 34.0975 66.8777 23.1156C55.8959 12.1338 38.0908 12.1338 27.109 23.1156C16.1271 34.0975 16.1271 51.9025 27.109 62.8844C38.0908 73.8662 55.8959 73.8662 66.8777 62.8844Z" fill="#FFD53D"/>
<path fill-rule="evenodd" clip-rule="evenodd" d="M75.0743 44.6712C74.2979 57.9194 64.3523 68.7022 51.4918 70.7668L33.2631 52.538C32.8765 52.2159 32.5395 51.8222 32.2741 51.3627L31.5602 50.127L30.8473 48.8911C29.6345 46.7903 30.3606 44.0794 32.4614 42.8663L35.577 41.0677L39.6036 45.0944L36.9575 40.2067C40.3377 37.8854 42.9393 35.3035 44.9577 32.5929L49.4197 37.055L46.165 31.4179C45.7144 30.6378 45.9847 29.6308 46.7645 29.1806C47.4476 28.7866 48.3035 28.9438 48.8086 29.5118L53.6508 34.354C54.5374 34.2958 55.4257 34.6452 56.0303 35.3263L56.0288 35.3245L59.3893 38.6851C59.5995 38.4833 59.9108 38.4006 60.2071 38.4971L61.4306 38.8947L61.2142 38.3859C59.108 36.2797 56.9243 34.1753 54.8626 32.0343C54.681 31.846 54.5931 31.5735 54.6513 31.298L55.3003 28.2439C55.3943 27.8035 55.827 27.5222 56.2673 27.6155C56.46 27.6565 56.6223 27.7625 56.7361 27.9054L61.2243 32.3936L61.6797 32.1308C62.0214 31.9334 62.4465 32.0112 62.6984 32.2954L75.0743 44.6712Z" fill="#DBAD09"/>
<path fill-rule="evenodd" clip-rule="evenodd" d="M36.9575 40.2062C40.3377 37.8849 42.9393 35.303 44.9577 32.5925L53.444 47.2913C50.0875 47.6837 46.5504 48.6462 42.8501 50.4126L36.9575 40.2062ZM31.5602 50.1265L32.2741 51.3623C33.4869 53.4628 36.1982 54.1892 38.2988 52.9764L41.4143 51.1778L35.577 41.0671L32.4614 42.8657C30.3606 44.0788 29.6345 46.7897 30.8473 48.8905L31.5602 50.1265ZM46.7645 29.1801C45.9847 29.6303 45.7144 30.6373 46.165 31.4174L55.1172 46.9225C55.5672 47.7026 56.5744 47.9723 57.3541 47.522C58.1348 47.0718 58.4043 46.0648 57.9537 45.2847L54.9084 40.0098L55.3066 39.78C56.6939 38.9788 57.1739 37.1885 56.3727 35.801C55.5718 34.4138 53.7813 33.9341 52.3937 34.7349L51.9955 34.9647L49.0021 29.7796C48.5516 28.9995 47.5453 28.7298 46.7645 29.1801ZM55.3003 28.2434C55.3943 27.803 55.827 27.5218 56.2673 27.615C56.7077 27.7087 56.9896 28.1417 56.8956 28.5821L56.2463 31.6362C56.1529 32.0768 55.7202 32.3581 55.2792 32.2644C54.8392 32.1712 54.5579 31.738 54.6512 31.2974L55.3003 28.2434ZM59.8137 35.0935C59.4232 35.3188 58.9242 35.1852 58.6984 34.7944C58.4731 34.4039 58.6064 33.9044 58.9972 33.6791L61.6798 32.1305C62.0702 31.9049 62.5698 32.0389 62.795 32.4293C63.021 32.8198 62.887 33.3194 62.4966 33.545L59.8137 35.0935ZM63.1768 39.4618C63.6054 39.6007 63.8397 40.0609 63.7 40.4891C63.5612 40.9173 63.1008 41.1516 62.6725 41.0123L59.7027 40.0475C59.2745 39.9085 59.0405 39.4483 59.1792 39.0201C59.3189 38.5919 59.7788 38.3573 60.207 38.4966L63.1768 39.4618ZM43.3375 51.9905L46.6441 55.2968C47.0418 55.6944 47.0418 56.3428 46.6441 56.7403L45.2806 58.1046C44.8823 58.5021 44.2339 58.5021 43.8363 58.1046L39.7538 54.0222L42.8945 52.2093C43.0414 52.1353 43.1898 52.0625 43.3375 51.9905Z" fill="white"/>
</g>
</g>
</g>
<defs>
<filter id="filter0_d_1579_2589" x="0" y="0" width="94" height="94" filterUnits="userSpaceOnUse" color-interpolation-filters="sRGB">
<feFlood flood-opacity="0" result="BackgroundImageFix"/>
<feColorMatrix in="SourceAlpha" type="matrix" values="0 0 0 0 0 0 0 0 0 0 0 0 0 0 0 0 0 0 127 0" result="hardAlpha"/>
<feOffset dy="4"/>
<feGaussianBlur stdDeviation="2"/>
<feComposite in2="hardAlpha" operator="out"/>
<feColorMatrix type="matrix" values="0 0 0 0 0 0 0 0 0 0 0 0 0 0 0 0 0 0 0.25 0"/>
<feBlend mode="normal" in2="BackgroundImageFix" result="effect1_dropShadow_1579_2589"/>
<feBlend mode="normal" in="SourceGraphic" in2="effect1_dropShadow_1579_2589" result="shape"/>
</filter>
<clipPath id="clip0_1579_2589">
<rect width="60" height="60" fill="white" transform="translate(17 13)"/>
</clipPath>
<clipPath id="clip1_1579_2589">
<rect width="60" height="60" fill="white" transform="translate(17 13)"/>
</clipPath>
</defs>
</svg>
