<svg width="94" height="94" viewBox="0 0 94 94" fill="none" xmlns="http://www.w3.org/2000/svg">
<g filter="url(#filter0_d_1579_2558)">
<rect x="4" width="86" height="86" rx="10" fill="white" shape-rendering="crispEdges"/>
<g clip-path="url(#clip0_1579_2558)">
<path d="M47 73C63.5685 73 77 59.5685 77 43C77 26.4315 63.5685 13 47 13C30.4315 13 17 26.4315 17 43C17 59.5685 30.4315 73 47 73Z" fill="url(#paint0_linear_1579_2558)"/>
<path d="M76.4145 48.9062C73.6992 62.5246 61.766 72.8172 47.3848 73L33.7148 59.3266L34.418 27.3156L53.5488 27.0625L62.2852 35.7988L63.6645 36.1504L76.4145 48.9062Z" fill="url(#paint1_linear_1579_2558)"/>
<path d="M52.8756 54.2652V56.5691C52.875 57.0081 52.7001 57.4289 52.3894 57.7389C52.0786 58.049 51.6575 58.223 51.2186 58.2227H35.5998C35.1613 58.2223 34.7407 58.0481 34.4305 57.7381C34.1203 57.4281 33.9457 57.0077 33.9451 56.5691V29.4637C33.9457 29.0251 34.1203 28.6047 34.4305 28.2947C34.7407 27.9847 35.1613 27.8105 35.5998 27.8102H51.2186C51.6569 27.8108 52.0771 27.9852 52.3871 28.2951C52.697 28.6051 52.8714 29.0253 52.8721 29.4637V31.7676C53.2321 31.5113 53.663 31.3737 54.1049 31.3738H54.5596V29.4637C54.5589 28.578 54.2067 27.7288 53.5802 27.1027C52.9537 26.4767 52.1042 26.125 51.2186 26.125H35.5998C34.7137 26.125 33.8639 26.477 33.2373 27.1036C32.6108 27.7301 32.2588 28.5799 32.2588 29.466V56.5715C32.2588 57.4576 32.6108 58.3074 33.2373 58.9339C33.8639 59.5605 34.7137 59.9125 35.5998 59.9125H51.2186C52.1046 59.9125 52.9544 59.5605 53.581 58.9339C54.2076 58.3074 54.5596 57.4576 54.5596 56.5715V54.6613H54.1049C53.6639 54.6601 53.2343 54.5216 52.8756 54.2652Z" fill="white"/>
<path d="M47.7781 33.9952C48.179 33.5945 48.7225 33.3695 49.2893 33.3695C49.856 33.3695 50.3996 33.5945 50.8004 33.9952L51.1871 34.3819C51.4438 34.2647 51.7062 34.1476 51.9723 34.0573V33.5077C51.9724 33.3095 52.0004 33.1122 52.0555 32.9218V29.4636C52.0552 29.2427 51.9673 29.0309 51.8111 28.8748C51.6549 28.7186 51.4431 28.6307 51.2223 28.6304H35.6C35.3789 28.6304 35.1669 28.7181 35.0104 28.8743C34.854 29.0306 34.7659 29.2425 34.7656 29.4636V56.569C34.7659 56.7901 34.854 57.0021 35.0104 57.1583C35.1669 57.3145 35.3789 57.4022 35.6 57.4022H51.2188C51.4396 57.4019 51.6514 57.3141 51.8076 57.1579C51.9638 57.0017 52.0516 56.7899 52.052 56.569V53.1108C51.9969 52.9204 51.9689 52.7231 51.9687 52.5249V51.9776C51.7027 51.8815 51.4402 51.7726 51.1836 51.6519L50.7969 52.0397C50.3962 52.4403 49.8529 52.6654 49.2863 52.6654C48.7198 52.6654 48.1764 52.4403 47.7758 52.0397L46.1984 50.4636C45.7989 50.0621 45.5746 49.5188 45.5746 48.9524C45.5746 48.3861 45.7989 47.8427 46.1984 47.4413L46.5863 47.0546C46.4691 46.7979 46.352 46.5354 46.2605 46.2694H45.7133C45.1469 46.2688 44.6039 46.0435 44.2034 45.643C43.8028 45.2425 43.5776 44.6995 43.577 44.1331V41.9065C43.5776 41.3401 43.8028 40.7971 44.2034 40.3966C44.6039 39.9961 45.1469 39.7708 45.7133 39.7702H46.2605C46.3566 39.503 46.4652 39.2413 46.5863 38.9851L46.1984 38.5983C45.7989 38.1969 45.5746 37.6536 45.5746 37.0872C45.5746 36.5208 45.7989 35.9775 46.1984 35.5761L47.7781 33.9952ZM45.0934 32.6558H41.7266C41.4352 32.6463 41.159 32.524 40.9563 32.3146C40.7535 32.1052 40.6402 31.8252 40.6402 31.5337C40.6402 31.2422 40.7535 30.9622 40.9563 30.7528C41.159 30.5434 41.4352 30.421 41.7266 30.4116H45.0922C45.2426 30.4068 45.3924 30.4322 45.5328 30.4864C45.6732 30.5406 45.8013 30.6225 45.9094 30.7271C46.0175 30.8318 46.1034 30.9571 46.1621 31.0957C46.2209 31.2343 46.2511 31.3832 46.2511 31.5337C46.2511 31.6842 46.2209 31.8331 46.1621 31.9717C46.1034 32.1102 46.0175 32.2356 45.9094 32.3402C45.8013 32.4449 45.6732 32.5268 45.5328 32.581C45.3924 32.6352 45.2426 32.6606 45.0922 32.6558H45.0934Z" fill="white"/>
<path d="M64.7289 40.586H63.5875C63.4091 39.9728 63.1639 39.3809 62.8562 38.8212L63.6637 38.0138C63.786 37.8916 63.8831 37.7464 63.9493 37.5867C64.0155 37.4269 64.0496 37.2557 64.0496 37.0827C64.0496 36.9098 64.0155 36.7385 63.9493 36.5788C63.8831 36.419 63.786 36.2739 63.6637 36.1517L62.0875 34.5755C61.8404 34.329 61.5055 34.1905 61.1564 34.1905C60.8074 34.1905 60.4725 34.329 60.2254 34.5755L59.4215 35.3829C58.862 35.0744 58.2701 34.8288 57.6566 34.6505V33.5079C57.6566 33.1589 57.518 32.8242 57.2712 32.5774C57.0244 32.3306 56.6897 32.1919 56.3406 32.1919H54.1141C53.9407 32.1911 53.769 32.2246 53.6086 32.2904C53.4483 32.3562 53.3025 32.453 53.1797 32.5753C53.0569 32.6976 52.9594 32.8429 52.8929 33.0029C52.8264 33.163 52.7922 33.3346 52.7922 33.5079V34.6493C52.1786 34.828 51.5868 35.074 51.0273 35.3829L50.2199 34.5743C49.9728 34.3278 49.6379 34.1894 49.2889 34.1894C48.9398 34.1894 48.605 34.3278 48.3578 34.5743L46.7816 36.1505C46.5351 36.3976 46.3967 36.7325 46.3967 37.0816C46.3967 37.4306 46.5351 37.7655 46.7816 38.0126L47.5902 38.82C47.2816 39.3793 47.0364 39.9712 46.859 40.5849H45.7164C45.3674 40.5849 45.0326 40.7235 44.7858 40.9703C44.539 41.2171 44.4004 41.5519 44.4004 41.9009V44.1275C44.4004 44.3003 44.4344 44.4714 44.5006 44.6311C44.5667 44.7907 44.6636 44.9358 44.7858 45.058C44.908 45.1802 45.0531 45.2772 45.2128 45.3433C45.3725 45.4094 45.5436 45.4435 45.7164 45.4435H46.859C47.0346 46.0581 47.2783 46.6512 47.5855 47.2118L46.777 48.0192C46.5304 48.2664 46.392 48.6012 46.392 48.9503C46.392 49.2994 46.5304 49.6342 46.777 49.8814L48.3531 51.4575C48.6003 51.7041 48.9351 51.8425 49.2842 51.8425C49.6333 51.8425 49.9681 51.7041 50.2152 51.4575L51.0227 50.6489C51.5821 50.9574 52.174 51.2031 52.7875 51.3814V52.5228C52.7875 52.8718 52.9262 53.2065 53.173 53.4533C53.4198 53.7001 53.7545 53.8388 54.1035 53.8388H56.3301C56.6791 53.8388 57.0138 53.7001 57.2606 53.4533C57.5074 53.2065 57.6461 52.8718 57.6461 52.5228V51.3814C58.2632 51.2038 58.8587 50.9581 59.4215 50.6489L60.2289 51.4575C60.4761 51.7041 60.8109 51.8425 61.16 51.8425C61.509 51.8425 61.8439 51.7041 62.091 51.4575L63.6672 49.8814C63.7895 49.7591 63.8866 49.614 63.9528 49.4542C64.019 49.2945 64.0531 49.1232 64.0531 48.9503C64.0531 48.7774 64.019 48.6061 63.9528 48.4464C63.8866 48.2866 63.7895 48.1415 63.6672 48.0192L62.8598 47.2118C63.1674 46.6521 63.4126 46.0603 63.591 45.447H64.7324C65.0815 45.447 65.4162 45.3083 65.663 45.0615C65.9098 44.8147 66.0484 44.48 66.0484 44.131V41.9044C66.0487 41.7311 66.0148 41.5594 65.9486 41.3993C65.8824 41.2391 65.7852 41.0936 65.6626 40.9711C65.54 40.8486 65.3944 40.7515 65.2341 40.6854C65.0739 40.6194 64.9022 40.5856 64.7289 40.586ZM55.2227 47.6665C54.303 47.6665 53.4039 47.3938 52.6393 46.8829C51.8746 46.3719 51.2786 45.6457 50.9266 44.796C50.5747 43.9463 50.4826 43.0114 50.662 42.1093C50.8414 41.2073 51.2843 40.3788 51.9346 39.7285C52.5849 39.0782 53.4135 38.6353 54.3155 38.4559C55.2175 38.2764 56.1525 38.3685 57.0021 38.7205C57.8518 39.0724 58.578 39.6684 59.089 40.4331C59.5999 41.1978 59.8727 42.0968 59.8727 43.0165C59.8727 44.2498 59.3827 45.4325 58.5107 46.3046C57.6387 47.1766 56.4559 47.6665 55.2227 47.6665Z" fill="white"/>
</g>
</g>
<defs>
<filter id="filter0_d_1579_2558" x="0" y="0" width="94" height="94" filterUnits="userSpaceOnUse" color-interpolation-filters="sRGB">
<feFlood flood-opacity="0" result="BackgroundImageFix"/>
<feColorMatrix in="SourceAlpha" type="matrix" values="0 0 0 0 0 0 0 0 0 0 0 0 0 0 0 0 0 0 127 0" result="hardAlpha"/>
<feOffset dy="4"/>
<feGaussianBlur stdDeviation="2"/>
<feComposite in2="hardAlpha" operator="out"/>
<feColorMatrix type="matrix" values="0 0 0 0 0 0 0 0 0 0 0 0 0 0 0 0 0 0 0.25 0"/>
<feBlend mode="normal" in2="BackgroundImageFix" result="effect1_dropShadow_1579_2558"/>
<feBlend mode="normal" in="SourceGraphic" in2="effect1_dropShadow_1579_2558" result="shape"/>
</filter>
<linearGradient id="paint0_linear_1579_2558" x1="25.7867" y1="21.7867" x2="68.2133" y2="64.2133" gradientUnits="userSpaceOnUse">
<stop stop-color="#F8DA30"/>
<stop offset="1" stop-color="#FDAB22"/>
</linearGradient>
<linearGradient id="paint1_linear_1579_2558" x1="31.3383" y1="30.3883" x2="66.6879" y2="65.7379" gradientUnits="userSpaceOnUse">
<stop stop-color="#DD8317"/>
<stop offset="1" stop-color="#DD8317" stop-opacity="0"/>
</linearGradient>
<clipPath id="clip0_1579_2558">
<rect width="60" height="60" fill="white" transform="translate(17 13)"/>
</clipPath>
</defs>
</svg>
