<svg width="478" height="480" viewBox="0 0 478 480" fill="none" xmlns="http://www.w3.org/2000/svg">
<path d="M350.865 337.838L356.952 328.025L353.947 326.163C353.063 325.615 352.584 324.616 352.673 323.58C352.722 323.007 352.74 322.431 352.727 321.853C352.705 320.816 353.246 319.852 354.16 319.362L357.275 317.691L351.816 307.511L348.701 309.182C347.787 309.672 346.684 309.589 345.832 308.997C345.358 308.667 344.868 308.364 344.364 308.087C343.452 307.587 342.884 306.635 342.917 305.597L343.029 302.063L331.487 301.705L331.379 305.251C331.348 306.29 330.71 307.196 329.77 307.641C329.515 307.761 329.262 307.889 329.011 308.023C328.76 308.158 328.513 308.299 328.272 308.444C327.385 308.98 326.285 309.011 325.405 308.465L322.378 306.59L316.291 316.403L319.302 318.272C320.185 318.82 320.664 319.821 320.573 320.857C320.524 321.428 320.505 322.002 320.517 322.577C320.538 323.612 319.997 324.576 319.084 325.066L315.968 326.737L321.427 336.917L324.543 335.246C325.456 334.756 326.558 334.839 327.41 335.43C327.882 335.758 328.371 336.06 328.874 336.334C329.786 336.833 330.355 337.784 330.323 338.823L330.214 342.365L341.756 342.723L341.867 339.179C341.899 338.143 342.535 337.242 343.473 336.799C343.729 336.677 343.985 336.549 344.238 336.413C344.489 336.279 344.735 336.137 344.976 335.991C345.868 335.453 346.974 335.423 347.858 335.971L350.865 337.838ZM341.092 330.551C336.488 333.02 330.76 331.29 328.291 326.687C325.822 322.084 327.547 316.347 332.15 313.878C336.754 311.409 342.494 313.142 344.963 317.745C347.432 322.349 345.695 328.081 341.092 330.551Z" fill="#DBDBDB"/>
<path d="M49.0584 58.3379C31.6541 58.3379 17.5518 72.4403 17.5518 89.8446C17.5518 107.241 31.6541 121.351 49.0584 121.351C66.455 121.351 80.5651 107.241 80.5651 89.8446C80.5651 72.4403 66.4561 58.3379 49.0584 58.3379ZM49.0584 104.555C40.9308 104.555 34.3412 97.9734 34.3412 89.8446C34.3412 81.7169 40.9308 75.1274 49.0584 75.1274C57.1861 75.1274 63.7767 81.7169 63.7767 89.8446C63.7767 97.9734 57.1872 104.555 49.0584 104.555Z" fill="#EBEBEB"/>
<path d="M55.1162 59.6435H43.001L43.67 51.0669H54.4472L55.1162 59.6435Z" fill="#EBEBEB"/>
<path d="M32.0541 63.7262L23.4875 72.294L17.8965 65.7554L25.5166 58.1353L32.0541 63.7262Z" fill="#EBEBEB"/>
<path d="M18.6343 82.9194V95.0358L10.0576 94.3657V83.5895L18.6343 82.9194Z" fill="#EBEBEB"/>
<path d="M22.716 105.981L31.2827 114.549L24.7451 120.14L17.125 112.52L22.716 105.981Z" fill="#EBEBEB"/>
<path d="M41.9102 119.401H54.0265L53.3564 127.978H42.5803L41.9102 119.401Z" fill="#EBEBEB"/>
<path d="M64.9727 115.32L73.5405 106.752L79.1303 113.291L71.5102 120.911L64.9727 115.32Z" fill="#EBEBEB"/>
<path d="M78.3926 96.1261V84.0098L86.9692 84.6788V95.456L78.3926 96.1261Z" fill="#EBEBEB"/>
<path d="M74.311 73.0645L65.7432 64.4967L72.2807 58.9058L79.9019 66.5259L74.311 73.0645Z" fill="#EBEBEB"/>
<path d="M439.542 228.231C422.138 228.231 408.035 242.334 408.035 259.738C408.035 277.136 422.138 291.245 439.542 291.245C456.938 291.245 471.049 277.135 471.049 259.738C471.049 242.333 456.938 228.231 439.542 228.231ZM439.542 274.448C431.414 274.448 424.825 267.866 424.825 259.737C424.825 251.609 431.414 245.02 439.542 245.02C447.67 245.02 454.259 251.609 454.259 259.737C454.259 267.866 447.67 274.448 439.542 274.448Z" fill="#EBEBEB"/>
<path d="M445.599 229.537H433.482L434.153 220.96H444.929L445.599 229.537Z" fill="#EBEBEB"/>
<path d="M422.537 233.619L413.969 242.187L408.378 235.648L415.998 228.028L422.537 233.619Z" fill="#EBEBEB"/>
<path d="M409.116 252.812V264.929L400.539 264.26V253.483L409.116 252.812Z" fill="#EBEBEB"/>
<path d="M413.197 275.874L421.765 284.442L415.227 290.033L407.606 282.413L413.197 275.874Z" fill="#EBEBEB"/>
<path d="M432.391 289.295H444.507L443.837 297.872H433.061L432.391 289.295Z" fill="#EBEBEB"/>
<path d="M455.454 285.212L464.022 276.645L469.613 283.183L461.993 290.803L455.454 285.212Z" fill="#EBEBEB"/>
<path d="M468.874 266.019V253.903L477.451 254.573V265.349L468.874 266.019Z" fill="#EBEBEB"/>
<path d="M464.792 242.957L456.225 234.389L462.763 228.798L470.383 236.418L464.792 242.957Z" fill="#EBEBEB"/>
<path d="M337.159 85.6187H335.5V84.5129H336.053V83.96H337.159V85.6187Z" fill="#EBEBEB"/>
<path d="M333.291 85.619H331.082V84.5132H333.291V85.619ZM328.871 85.619H326.662V84.5132H328.871V85.619ZM324.451 85.619H322.241V84.5132H324.451V85.619ZM320.031 85.619H317.821V84.5132H320.031V85.619ZM315.611 85.619H313.402V84.5132H315.611V85.619ZM311.191 85.619H308.982V84.5132H311.191V85.619ZM306.773 85.619H304.562V84.5132H306.773V85.619ZM302.353 85.619H300.142V84.5132H302.353V85.619ZM297.933 85.619H295.723V84.5132H297.933V85.619ZM293.513 85.619H291.304V84.5132H293.513V85.619ZM289.094 85.619H286.884V84.5132H289.094V85.619ZM284.674 85.619H282.465V84.5132H284.674V85.619ZM280.254 85.619H278.045V84.5132H280.254V85.619ZM275.834 85.619H273.625V84.5132H275.834V85.619ZM271.416 85.619H269.205V84.5132H271.416V85.619ZM266.996 85.619H264.786V84.5132H266.996V85.619ZM262.575 85.619H260.365V84.5132H262.575V85.619Z" fill="#EBEBEB"/>
<path d="M258.154 85.6187H256.495V83.96H257.601V84.5129H258.154V85.6187Z" fill="#EBEBEB"/>
<path d="M257.601 81.7499H256.495V79.5405H257.601V81.7499ZM257.601 77.3311H256.495V75.1217H257.601V77.3311ZM257.601 72.9112H256.495V70.7007H257.601V72.9112ZM257.601 68.4913H256.495V66.2808H257.601V68.4913ZM257.601 64.0714H256.495V61.862H257.601V64.0714ZM257.601 59.6526H256.495V57.4432H257.601V59.6526ZM257.601 55.2326H256.495V53.0221H257.601V55.2326ZM257.601 50.8127H256.495V48.6022H257.601V50.8127ZM257.601 46.3928H256.495V44.1823H257.601V46.3928ZM257.601 41.9729H256.495V39.7635H257.601V41.9729ZM257.601 37.553H256.495V35.3425H257.601V37.553ZM257.601 33.1342H256.495V30.9237H257.601V33.1342ZM257.601 28.7143H256.495V26.5037H257.601V28.7143ZM257.601 24.2943H256.495V22.0849H257.601V24.2943ZM257.601 19.8744H256.495V17.6639H257.601V19.8744ZM257.601 15.4545H256.495V13.244H257.601V15.4545ZM257.601 11.0346H256.495V8.8252H257.601V11.0346Z" fill="#EBEBEB"/>
<path d="M257.601 6.61623H256.495V4.95752H258.154V6.06333H257.601V6.61623Z" fill="#EBEBEB"/>
<path d="M333.291 6.06333H331.082V4.95752H333.291V6.06333ZM328.871 6.06333H326.662V4.95752H328.871V6.06333ZM324.451 6.06333H322.241V4.95752H324.451V6.06333ZM320.031 6.06333H317.822V4.95752H320.031V6.06333ZM315.611 6.06333H313.402V4.95752H315.611V6.06333ZM311.191 6.06333H308.982V4.95752H311.191V6.06333ZM306.773 6.06333H304.562V4.95752H306.773V6.06333ZM302.353 6.06333H300.143V4.95752H302.353V6.06333ZM297.933 6.06333H295.723V4.95752H297.933V6.06333ZM293.514 6.06333H291.304V4.95752H293.514V6.06333ZM289.094 6.06333H286.884V4.95752H289.094V6.06333ZM284.674 6.06333H282.465V4.95752H284.674V6.06333ZM280.254 6.06333H278.045V4.95752H280.254V6.06333ZM275.835 6.06333H273.625V4.95752H275.835V6.06333ZM271.416 6.06333H269.205V4.95752H271.416V6.06333ZM266.996 6.06333H264.786V4.95752H266.996V6.06333ZM262.575 6.06333H260.365V4.95752H262.575V6.06333Z" fill="#EBEBEB"/>
<path d="M337.159 6.61623H336.053V6.06333H335.5V4.95752H337.159V6.61623Z" fill="#EBEBEB"/>
<path d="M337.159 81.751H336.053V79.5405H337.159V81.751ZM337.159 77.3311H336.053V75.1217H337.159V77.3311ZM337.159 72.9112H336.053V70.7018H337.159V72.9112ZM337.159 68.4913H336.053V66.2808H337.159V68.4913ZM337.159 64.0725H336.053V61.8631H337.159V64.0725ZM337.159 59.6526H336.053V57.4431H337.159V59.6526ZM337.159 55.2326H336.053V53.0221H337.159V55.2326ZM337.159 50.8127H336.053V48.6022H337.159V50.8127ZM337.159 46.3928H336.053V44.1834H337.159V46.3928ZM337.159 41.9729H336.053V39.7635H337.159V41.9729ZM337.159 37.5541H336.053V35.3436H337.159V37.5541ZM337.159 33.1342H336.053V30.9237H337.159V33.1342ZM337.159 28.7143H336.053V26.5049H337.159V28.7143ZM337.159 24.2943H336.053V22.0849H337.159V24.2943ZM337.159 19.8755H336.053V17.665H337.159V19.8755ZM337.159 15.4545H336.053V13.244H337.159V15.4545ZM337.159 11.0357H336.053V8.8252H337.159V11.0357Z" fill="#EBEBEB"/>
<path d="M262.004 80.1094H252.091V90.0229H262.004V80.1094Z" fill="white"/>
<path d="M262.559 90.577H251.538V79.5576H262.559V90.577ZM252.644 89.4712H261.453V80.6634H252.644V89.4712Z" fill="#EBEBEB"/>
<path d="M262.046 40.3311H252.133V50.2446H262.046V40.3311Z" fill="white"/>
<path d="M262.559 50.7988H251.538V39.7783H262.559V50.7988ZM252.644 49.693H261.453V40.8841H252.644V49.693Z" fill="#EBEBEB"/>
<path d="M262.046 0.552734H252.133V10.4663H262.046V0.552734Z" fill="white"/>
<path d="M262.559 11.0194H251.538V0H262.559V11.0194ZM252.644 9.91357H261.453V1.10581H252.644V9.91357Z" fill="#EBEBEB"/>
<path d="M341.603 80.1089H331.689V90.0225H341.603V80.1089Z" fill="white"/>
<path d="M342.115 90.5765H331.095V79.5571H342.115V90.5765ZM332.201 89.4707H341.009V80.6629H332.201V89.4707Z" fill="#EBEBEB"/>
<path d="M341.603 40.3315H331.689V50.2451H341.603V40.3315Z" fill="white"/>
<path d="M342.115 50.7993H331.095V39.7788H342.115V50.7993ZM332.201 49.6935H341.009V40.8846H332.201V49.6935Z" fill="#EBEBEB"/>
<path d="M341.603 0.552734H331.689V10.4663H341.603V0.552734Z" fill="white"/>
<path d="M342.115 11.0194H331.095V0H342.115V11.0194ZM332.201 9.91357H341.009V1.10581H332.201V9.91357Z" fill="#EBEBEB"/>
<path d="M301.825 0.552734H291.911V10.4663H301.825V0.552734Z" fill="white"/>
<path d="M302.335 11.0194H291.315V0H302.335V11.0194ZM292.422 9.91357H301.23V1.10581H292.422V9.91357Z" fill="#EBEBEB"/>
<path d="M301.783 80.1094H291.869V90.0229H301.783V80.1094Z" fill="white"/>
<path d="M302.335 90.577H291.315V79.5576H302.335V90.577ZM292.422 89.4712H301.23V80.6634H292.422V89.4712Z" fill="#EBEBEB"/>
<path d="M89.3911 380.409H87.7324V379.303H88.2853V378.75H89.3911V380.409Z" fill="#EBEBEB"/>
<path d="M85.5224 380.41H83.313V379.304H85.5224V380.41ZM81.1025 380.41H78.8931V379.304H81.1025V380.41ZM76.6837 380.41H74.4732V379.304H76.6837V380.41ZM72.2637 380.41H70.0532V379.304H72.2637V380.41ZM67.8438 380.41H65.6344V379.304H67.8438V380.41ZM63.4239 380.41H61.2145V379.304H63.4239V380.41ZM59.004 380.41H56.7935V379.304H59.004V380.41ZM54.5841 380.41H52.3736V379.304H54.5841V380.41ZM50.1642 380.41H47.9548V379.304H50.1642V380.41ZM45.7443 380.41H43.5348V379.304H45.7443V380.41ZM41.3254 380.41H39.1149V379.304H41.3254V380.41ZM36.9055 380.41H34.6961V379.304H36.9055V380.41ZM32.4856 380.41H30.2762V379.304H32.4856V380.41ZM28.0657 380.41H25.8563V379.304H28.0657V380.41ZM23.6469 380.41H21.4364V379.304H23.6469V380.41ZM19.227 380.41H17.0176V379.304H19.227V380.41ZM14.8071 380.41H12.5977V379.304H14.8071V380.41Z" fill="#EBEBEB"/>
<path d="M10.3872 380.409H8.72852V378.75H9.83432V379.303H10.3872V380.409Z" fill="#EBEBEB"/>
<path d="M9.83432 376.542H8.72852V374.331H9.83432V376.542ZM9.83432 372.122H8.72852V369.911H9.83432V372.122ZM9.83432 367.702H8.72852V365.491H9.83432V367.702ZM9.83432 363.282H8.72852V361.071H9.83432V363.282ZM9.83432 358.862H8.72852V356.652H9.83432V358.862ZM9.83432 354.443H8.72852V352.233H9.83432V354.443ZM9.83432 350.023H8.72852V347.813H9.83432V350.023ZM9.83432 345.603H8.72852V343.393H9.83432V345.603ZM9.83432 341.183H8.72852V338.973H9.83432V341.183ZM9.83432 336.764H8.72852V334.553H9.83432V336.764ZM9.83432 332.344H8.72852V330.133H9.83432V332.344ZM9.83432 327.925H8.72852V325.714H9.83432V327.925ZM9.83432 323.505H8.72852V321.294H9.83432V323.505ZM9.83432 319.085H8.72852V316.876H9.83432V319.085ZM9.83432 314.665H8.72852V312.456H9.83432V314.665ZM9.83432 310.245H8.72852V308.035H9.83432V310.245ZM9.83432 305.825H8.72852V303.615H9.83432V305.825Z" fill="#EBEBEB"/>
<path d="M9.83432 301.407H8.72852V299.748H10.3872V300.854H9.83432V301.407Z" fill="#EBEBEB"/>
<path d="M85.5224 300.854H83.313V299.748H85.5224V300.854ZM81.1025 300.854H78.8931V299.748H81.1025V300.854ZM76.6837 300.854H74.4732V299.748H76.6837V300.854ZM72.2637 300.854H70.0543V299.748H72.2637V300.854ZM67.8438 300.854H65.6344V299.748H67.8438V300.854ZM63.4239 300.854H61.2145V299.748H63.4239V300.854ZM59.004 300.854H56.7935V299.748H59.004V300.854ZM54.5841 300.854H52.3747V299.748H54.5841V300.854ZM50.1642 300.854H47.9548V299.748H50.1642V300.854ZM45.7454 300.854H43.5348V299.748H45.7454V300.854ZM41.3254 300.854H39.1149V299.748H41.3254V300.854ZM36.9055 300.854H34.6961V299.748H36.9055V300.854ZM32.4856 300.854H30.2762V299.748H32.4856V300.854ZM28.0668 300.854H25.8563V299.748H28.0668V300.854ZM23.6469 300.854H21.4364V299.748H23.6469V300.854ZM19.227 300.854H17.0176V299.748H19.227V300.854ZM14.8071 300.854H12.5977V299.748H14.8071V300.854Z" fill="#EBEBEB"/>
<path d="M89.3911 301.407H88.2853V300.854H87.7324V299.748H89.3911V301.407Z" fill="#EBEBEB"/>
<path d="M89.3919 376.542H88.2861V374.331H89.3919V376.542ZM89.3919 372.122H88.2861V369.912H89.3919V372.122ZM89.3919 367.702H88.2861V365.493H89.3919V367.702ZM89.3919 363.282H88.2861V361.072H89.3919V363.282ZM89.3919 358.863H88.2861V356.653H89.3919V358.863ZM89.3919 354.444H88.2861V352.233H89.3919V354.444ZM89.3919 350.024H88.2861V347.813H89.3919V350.024ZM89.3919 345.604H88.2861V343.393H89.3919V345.604ZM89.3919 341.184H88.2861V338.973H89.3919V341.184ZM89.3919 336.764H88.2861V334.553H89.3919V336.764ZM89.3919 332.345H88.2861V330.135H89.3919V332.345ZM89.3919 327.925H88.2861V325.715H89.3919V327.925ZM89.3919 323.505H88.2861V321.296H89.3919V323.505ZM89.3919 319.085H88.2861V316.876H89.3919V319.085ZM89.3919 314.667H88.2861V312.456H89.3919V314.667ZM89.3919 310.246H88.2861V308.035H89.3919V310.246ZM89.3919 305.827H88.2861V303.616H89.3919V305.827Z" fill="#EBEBEB"/>
<path d="M14.2358 374.901H4.32227V384.815H14.2358V374.901Z" fill="white"/>
<path d="M14.79 385.368H3.76953V374.348H14.79V385.368ZM4.87534 384.262H13.6842V375.454H4.87534V384.262Z" fill="#EBEBEB"/>
<path d="M14.2778 335.122H4.36426V345.036H14.2778V335.122Z" fill="white"/>
<path d="M14.79 345.589H3.76953V334.569H14.79V345.589ZM4.87534 344.484H13.6842V335.675H4.87534V344.484Z" fill="#EBEBEB"/>
<path d="M14.2778 295.344H4.36426V305.257H14.2778V295.344Z" fill="white"/>
<path d="M14.79 305.81H3.76953V294.791H14.79V305.81ZM4.87534 304.705H13.6842V295.897H4.87534V304.705Z" fill="#EBEBEB"/>
<path d="M93.8354 374.901H83.9219V384.814H93.8354V374.901Z" fill="white"/>
<path d="M94.3467 385.368H83.3262V374.348H94.3467V385.368ZM84.4331 384.262H93.242V375.454H84.4331V384.262Z" fill="#EBEBEB"/>
<path d="M93.8354 335.123H83.9219V345.036H93.8354V335.123Z" fill="white"/>
<path d="M94.3467 345.59H83.3262V334.57H94.3467V345.59ZM84.4331 344.485H93.242V335.676H84.4331V344.485Z" fill="#EBEBEB"/>
<path d="M93.8354 295.343H83.9219V305.257H93.8354V295.343Z" fill="white"/>
<path d="M94.3467 305.81H83.3262V294.791H94.3467V305.81ZM84.4331 304.704H93.242V295.896H84.4331V304.704Z" fill="#EBEBEB"/>
<path d="M54.0571 295.343H44.1436V305.257H54.0571V295.343Z" fill="white"/>
<path d="M54.5672 305.81H43.5479V294.791H54.5672V305.81ZM44.6537 304.704H53.4614V295.896H44.6537V304.704Z" fill="#EBEBEB"/>
<path d="M54.0151 374.901H44.1016V384.814H54.0151V374.901Z" fill="white"/>
<path d="M54.5672 385.367H43.5479V374.348H54.5672V385.367ZM44.6537 384.261H53.4614V375.453H44.6537V384.261Z" fill="#EBEBEB"/>
<path d="M236.123 479.711C360.1 479.711 460.603 470.194 460.603 458.455C460.603 446.716 360.1 437.199 236.123 437.199C112.146 437.199 11.6426 446.716 11.6426 458.455C11.6426 470.194 112.146 479.711 236.123 479.711Z" fill="#EBEBEB"/>
<path d="M56.9044 278.278C57.8344 284.643 57.4872 291.207 55.9357 297.437C55.207 300.355 54.2074 303.167 52.9998 305.907C51.476 309.412 49.8825 312.835 50.2663 316.67C50.6367 316.917 49.3661 316.876 49.3252 316.504C39.0755 310.67 25.9318 309.6 18.0441 300.058C14.3076 295.541 12.4233 289.814 11.5298 284.086C10.56 277.849 10.2902 270.945 11.8991 264.797C13.2549 259.599 16.2936 254.584 21.178 252.036C26.2205 249.414 32.8243 249.632 38.1333 251.281C49.5884 254.84 55.2844 267.199 56.9044 278.278Z" fill="#FEEE99"/>
<path d="M62.1658 354.151C60.7669 349.489 59.3692 344.827 57.9339 340.176C55.1218 331.068 52.198 321.991 48.9613 313.023C47.0228 307.651 44.9782 302.331 42.8263 297.062C43.1934 293.752 43.3383 290.454 44.0493 287.155C44.9063 283.182 46.1515 279.344 47.3103 275.454C47.3811 275.216 46.9941 275.089 46.8968 275.316C44.5956 280.674 41.5922 287.529 41.5181 293.874C39.0157 287.912 36.3407 282.031 33.4623 276.242C33.2998 271.306 33.1195 266.523 33.9135 261.557C33.9489 261.333 33.6094 261.266 33.5674 261.489C32.7977 265.659 32.2548 270.131 32.5644 274.453C30.3605 270.103 28.0405 265.806 25.5702 261.575C25.3479 261.194 24.8204 261.584 25.0162 261.959C28.8677 269.376 32.4405 276.948 35.7923 284.62C31.149 280.503 25.527 277.386 19.7227 275.315C19.4672 275.224 19.2748 275.594 19.5347 275.702C26.1397 278.463 31.6853 282.366 36.9158 287.209C39.3253 292.827 41.6199 298.495 43.8049 304.199C37.3913 297.912 28.6156 293.775 20.1263 291.557C19.8365 291.482 19.7602 291.924 20.0389 292.008C29.8629 294.966 37.4952 300.536 44.966 307.228C45.8341 309.535 46.6867 311.848 47.5216 314.163C50.6875 322.947 53.6875 331.79 56.5638 340.672C57.9427 344.929 59.3006 349.194 60.632 353.466C62.0663 358.063 63.1853 362.915 65.0519 367.354C65.23 367.777 65.9919 367.681 65.8946 367.172C65.0564 362.768 63.454 358.442 62.1658 354.151Z" fill="#263238"/>
<path d="M45.1644 269.307C43.3288 272.121 42.1025 275.214 41.4721 278.508C41.4556 278.592 41.5872 278.643 41.6192 278.557C42.7615 275.457 44.1051 272.461 45.6211 269.529C45.7771 269.229 45.338 269.042 45.1644 269.307Z" fill="#263238"/>
<path d="M26.881 290.662C24.2282 289.154 20.7073 287.962 17.6829 287.565C17.6 287.554 17.548 287.676 17.6343 287.712C19.1127 288.325 20.6664 288.755 22.1637 289.33C23.6676 289.907 25.1327 290.608 26.651 291.136C26.9662 291.247 27.1818 290.833 26.881 290.662Z" fill="#263238"/>
<path d="M21.7295 264.973C20.7973 264.356 19.8054 263.564 18.7704 263.146C18.6078 263.081 18.4663 263.283 18.6001 263.406C19.4206 264.162 20.564 264.723 21.5161 265.298C21.7052 265.411 21.9153 265.096 21.7295 264.973Z" fill="#263238"/>
<path d="M91.4564 313.09C84.074 315.281 76.6541 317.307 69.2739 319.473C68.6325 319.666 56.1535 295.754 60.6641 283.435C64.8319 272.033 74.3761 263.499 85.7538 259.627C91.0251 257.836 97.5041 256.333 103.073 257.56C108.024 258.656 111.52 262.708 113.129 267.363C115.321 273.692 114.59 281.24 113.398 287.701C112.29 293.692 110.097 299.592 106.135 304.299C102.213 308.959 97.2099 311.384 91.4564 313.09Z" fill="#FEEE99"/>
<path d="M102.158 290.364C97.4578 292.734 92.6951 294.451 87.6836 296.063C84.5453 297.071 81.0311 297.981 78.0222 299.56C81.1394 292.61 84.5597 285.806 88.1912 279.063C92.9594 277.683 97.9754 275.531 101.571 272.155C101.767 271.971 101.516 271.694 101.303 271.844C97.3694 274.624 93.0313 276.293 88.6799 278.172C89.663 276.357 90.6516 274.545 91.6623 272.737C91.9443 272.234 91.2509 271.734 90.9126 272.223C87.0433 277.806 83.5634 283.723 80.424 289.838C79.6455 284.443 79.3646 279.187 79.6654 273.698C79.6731 273.557 79.4719 273.547 79.4509 273.682C78.5375 279.487 78.5817 285.628 79.6322 291.417C77.0435 296.585 74.6848 301.878 72.5661 307.238C71.7235 304.018 70.6298 300.849 69.8989 297.602C68.8484 292.93 68.3541 288.169 68.8384 283.392C68.8528 283.253 68.6471 283.243 68.6239 283.377C67.1919 291.848 68.4978 301.414 71.7213 309.462C70.4872 312.688 69.3095 315.927 68.2335 319.171C62.7211 335.78 59.3241 352.904 58.4361 370.387C58.4151 370.791 59.0133 370.832 59.0598 370.433C61.0657 353.283 64.6065 336.211 70.0603 319.819C72.2012 313.383 74.6649 307.134 77.3686 301.002C81.7277 299.714 86.0713 297.966 90.3541 296.483C94.533 295.035 98.8147 293.362 102.322 290.614C102.459 290.508 102.309 290.288 102.158 290.364Z" fill="#263238"/>
<path d="M109.041 283.418C104.526 285.024 100.247 287.272 95.7366 288.9C95.5254 288.976 95.6481 289.311 95.8615 289.267C100.634 288.282 105.367 286.806 109.212 283.677C109.36 283.556 109.196 283.362 109.041 283.418Z" fill="#263238"/>
<path d="M72.1762 273.679C72.2304 273.44 71.8809 273.302 71.8079 273.549C70.5705 277.71 69.7158 282.126 70.92 286.38C70.9675 286.547 71.2296 286.552 71.2396 286.36C71.4552 282.073 71.2152 277.903 72.1762 273.679Z" fill="#263238"/>
<path d="M90.831 264.065C89.3182 265.996 88.7731 268.739 88.8715 271.141C88.8781 271.299 89.1314 271.392 89.1745 271.204C89.7241 268.823 90.6441 266.653 91.375 264.341C91.4823 264.003 91.0455 263.791 90.831 264.065Z" fill="#263238"/>
<path d="M3.65071 323.638C5.81478 330.506 10.9568 340.001 19.1011 340.076C24.3802 340.126 29.6969 339.501 34.9893 339.426C40.6566 339.338 46.336 339.35 51.99 339.689C52.4534 339.713 51.3111 322.719 37.6908 314.444C33.8747 312.125 29.2093 311.392 24.88 310.453C19.926 309.377 14.8216 308.652 9.74261 308.878C6.61539 309.003 4.01342 309.666 2.89987 312.868C1.73656 316.219 2.61236 320.372 3.65071 323.638Z" fill="#FEEE99"/>
<path d="M9.51115 315.042C12.8208 315.894 16.1604 316.871 19.4811 317.926C18.5932 317.006 17.7273 316.073 16.7365 315.249C15.31 314.063 13.7409 313.116 12.2104 312.078C12.0822 311.99 12.1585 311.745 12.3232 311.81C15.3432 312.997 18.4837 315.476 20.3558 318.198C24.496 319.536 28.5952 321.012 32.5418 322.632C35.3428 323.781 37.926 325.152 40.3444 326.741C39.4752 325.06 38.6824 323.334 37.5213 321.829C35.7144 319.486 33.2683 318.181 30.9019 316.518C30.6774 316.361 30.8676 316.045 31.1142 316.155C36.4586 318.53 39.7086 322.385 41.7355 327.673C44.5299 329.666 47.0876 331.991 49.4618 334.688C58.473 344.924 65.5701 358.543 65.5955 372.438C65.5966 372.77 65.0647 372.863 65.0006 372.519C62.4429 358.715 56.9923 346.32 47.8152 335.606C47.1706 334.854 46.5093 334.136 45.8336 333.443C43.3555 333.183 40.9006 332.853 38.3893 332.89C35.4899 332.933 32.6126 333.316 29.7264 333.55C24.9726 333.936 19.7144 333.993 15.4261 331.601C15.237 331.496 15.3642 331.166 15.5765 331.244C25.1373 334.72 35.1659 330.31 44.7488 332.384C40.6596 328.463 36.0152 325.507 30.6155 323.269C30.3236 323.147 30.0294 323.035 29.7364 322.917C23.6003 323.654 17.1224 325.254 11.1466 323.259C10.9686 323.199 11.0405 322.93 11.2252 322.976C16.9997 324.418 22.5365 322.604 28.2347 322.315C22.03 319.9 15.707 317.978 9.4813 315.58C8.95714 315.375 8.94387 314.896 9.51115 315.042Z" fill="#263238"/>
<path d="M6.80438 321.083C9.80002 321.576 12.7238 321.592 15.736 321.76C15.8046 321.763 15.8267 321.868 15.7526 321.885C12.8156 322.545 9.60319 322.138 6.74246 321.31C6.59428 321.267 6.65842 321.059 6.80438 321.083Z" fill="#263238"/>
<path d="M26.9765 315.192C28.6054 315.756 30.1225 317.137 31.3975 318.265C31.5534 318.402 31.3445 318.682 31.1731 318.557C30.4244 318.011 29.6526 317.498 28.8741 316.995C28.1641 316.537 27.3713 316.171 26.7211 315.632C26.5165 315.465 26.7332 315.108 26.9765 315.192Z" fill="#263238"/>
<path d="M75.0665 337.307C74.967 337.532 75.2921 337.745 75.4171 337.507C75.4292 337.507 75.4292 337.507 75.4292 337.495C75.479 337.558 75.542 337.62 75.6415 337.632C81.1462 338.821 86.6753 340.034 92.2795 340.535C96.7835 340.935 101.974 341.185 105.915 338.571C111.257 335.03 114.772 325.56 111.882 319.543C108.467 312.399 98.1713 316.278 93.0049 318.818C85.063 322.695 78.6825 329.25 75.0665 337.307Z" fill="#FEEE99"/>
<path d="M71.0721 340.608C74.102 337.644 77.4537 335.176 81.0067 333.046C83.4428 328.91 87.1804 325.477 91.0817 322.778C91.2763 322.644 91.4433 322.953 91.2642 323.091C87.9014 325.68 85.2751 328.719 82.7749 332.022C86.7491 329.804 90.9523 327.978 95.2396 326.352C96.7324 323.614 99.1641 321.053 101.935 319.643C101.991 319.615 102.061 319.692 102.006 319.735C99.5887 321.627 97.6491 323.592 95.9583 326.081C98.4906 325.136 101.048 324.256 103.605 323.409C103.835 323.332 103.921 323.682 103.703 323.767C99.153 325.545 94.4998 327.421 89.9914 329.584C95.683 330.348 100.808 330.524 106.597 329.535C106.75 329.509 106.816 329.726 106.663 329.77C101.077 331.365 94.6734 331.659 89.0437 330.034C86.1675 331.447 83.3598 332.989 80.686 334.715C82.9242 334.424 85.1734 334.816 87.4414 335.267C91.3958 336.054 95.2628 336.75 99.3111 336.611C99.4626 336.607 99.5013 336.853 99.3476 336.88C92.4618 338.064 85.9508 334.935 79.1257 335.748C76.5978 337.486 74.2082 339.403 72.0176 341.554C67.7281 345.764 64.2968 350.796 61.6506 356.18C58.7777 362.028 57.2196 368.226 54.8975 374.267C54.7957 374.532 54.4264 374.431 54.4739 374.15C56.4633 362.238 62.3937 349.1 71.0721 340.608Z" fill="#263238"/>
<path d="M91.8399 324.273C92.2413 323.451 92.9435 322.751 93.6037 322.133C94.1809 321.592 94.8842 320.893 95.6362 320.611C95.7058 320.586 95.7434 320.679 95.7025 320.725C95.1385 321.367 94.3523 321.835 93.743 322.449C93.1293 323.067 92.6217 323.789 92.0003 324.396C91.914 324.482 91.789 324.375 91.8399 324.273Z" fill="#263238"/>
<path d="M103.198 327.97C104.219 327.714 105.299 327.732 106.338 327.52C107.388 327.306 108.364 326.931 109.382 326.608C109.516 326.566 109.593 326.762 109.476 326.831C107.801 327.826 105.155 328.674 103.198 328.29C103.034 328.259 103.044 328.009 103.198 327.97Z" fill="#263238"/>
<path d="M42.6992 359.471L43.6027 369.736L46.6702 404.393H73.8122L77.6439 369.736L78.7762 359.471H42.6992Z" fill="#455A64"/>
<path d="M42.6992 359.471L43.6027 369.736H77.6439L78.7762 359.471H42.6992Z" fill="#263238"/>
<path d="M40.0126 364.999H81.4639V356.672H40.0126V364.999Z" fill="#455A64"/>
<path d="M0 404.393L59.0313 404.124L118.062 404.026L236.124 403.841L354.187 404.025L413.217 404.122L472.249 404.393L413.217 404.663L354.187 404.76L236.124 404.945L118.062 404.759L59.0313 404.662L0 404.393Z" fill="#263238"/>
<path d="M279.127 33.8564H92.1788C81.74 33.8564 73.2695 42.4707 73.2695 53.1196V437.952C73.2695 448.579 81.74 457.215 92.1788 457.215H279.127C289.566 457.215 298.058 448.579 298.058 437.952V53.1196C298.058 42.4707 289.566 33.8564 279.127 33.8564ZM286.226 426.053C286.226 436.183 278.64 444.377 269.285 444.377H102.043C92.6654 444.377 85.0796 436.183 85.0796 426.053V67.7052C85.0796 47.0708 92.6654 46.0646 102.043 46.0646H135.549C137.495 46.0646 139.087 48.2762 139.087 51.0186V52.2018C139.087 58.6265 142.604 58.6487 146.916 58.6487H224.389C228.746 58.6487 232.241 58.6265 232.241 52.2018V51.0186C232.241 48.2762 233.811 46.0646 235.79 46.0646H269.285C278.64 46.0646 286.226 48.807 286.226 67.7052V426.053Z" fill="#263238"/>
<path d="M286.227 67.7056V426.054C286.227 436.183 278.641 444.377 269.286 444.377H102.043C92.6659 444.377 85.0801 436.183 85.0801 426.054V67.7056C85.0801 47.0712 92.6659 46.0649 102.043 46.0649H135.549C137.495 46.0649 139.088 48.2766 139.088 51.019V52.2022C139.088 58.6269 142.604 58.649 146.917 58.649H224.39C228.747 58.649 232.241 58.6269 232.241 52.2022V51.019C232.241 48.2766 233.811 46.0649 235.791 46.0649H269.286C278.641 46.0649 286.227 48.8073 286.227 67.7056Z" fill="white"/>
<path d="M286.227 67.7056V95.8971H85.0801V67.7056C85.0801 47.0712 92.6659 46.0649 102.043 46.0649H135.549C137.495 46.0649 139.088 48.2766 139.088 51.019V52.2022C139.088 58.6269 142.604 58.649 146.917 58.649H224.39C228.747 58.649 232.241 58.6269 232.241 52.2022V51.019C232.241 48.2766 233.811 46.0649 235.791 46.0649H269.286C278.641 46.0649 286.227 48.8073 286.227 67.7056Z" fill="#FEEE99"/>
<path d="M129.764 54.1144C129.655 54.2216 129.548 54.3289 129.44 54.4362C129.379 54.497 129.318 54.5589 129.256 54.6208C128.387 53.7771 127.351 53.327 126.139 53.327C124.927 53.327 123.892 53.776 123.015 54.6253C122.957 54.5655 122.9 54.5036 122.84 54.4428C122.734 54.3355 122.628 54.2283 122.521 54.121C122.518 54.1188 122.514 54.1177 122.511 54.1155C122.511 54.1133 122.511 54.11 122.511 54.1077C122.518 54.1011 122.527 54.0956 122.534 54.0878C122.67 53.9673 122.803 53.8412 122.943 53.7251C123.234 53.4852 123.552 53.2872 123.89 53.1214C124.289 52.9256 124.707 52.7797 125.145 52.7C125.352 52.6624 125.563 52.6425 125.772 52.6171C125.843 52.6083 126.306 52.6072 126.32 52.6083C126.463 52.6193 126.606 52.6249 126.747 52.6403C127.142 52.6835 127.526 52.7786 127.898 52.9146C128.168 53.013 128.428 53.1357 128.677 53.2784C128.94 53.4299 129.189 53.6013 129.42 53.7992C129.536 53.8987 129.648 54.0038 129.762 54.1066C129.764 54.1088 129.764 54.1111 129.764 54.1144Z" fill="white"/>
<path d="M124.043 55.637C123.872 55.4678 123.705 55.3009 123.531 55.1295C124.114 54.5578 124.803 54.1939 125.612 54.0845C126.822 53.9208 127.862 54.2879 128.743 55.1217C128.569 55.2953 128.4 55.4634 128.23 55.6326C127.652 55.0709 126.954 54.7668 126.138 54.7679C125.322 54.769 124.626 55.072 124.043 55.637Z" fill="white"/>
<path d="M127.717 56.1466C127.548 56.3147 127.38 56.4838 127.209 56.6552C126.913 56.3688 126.556 56.2107 126.136 56.2107C125.717 56.2118 125.361 56.3688 125.063 56.6575C124.893 56.4872 124.724 56.318 124.556 56.1499C125.365 55.3017 126.821 55.2343 127.717 56.1466Z" fill="white"/>
<path d="M126.597 57.1177C126.597 57.3721 126.391 57.5777 126.137 57.5777C125.882 57.5777 125.677 57.3721 125.677 57.1177C125.677 56.8645 125.882 56.6577 126.137 56.6577C126.391 56.6588 126.597 56.8645 126.597 57.1177Z" fill="white"/>
<path d="M98.1992 55.0918C98.1992 54.3553 98.7964 53.7593 99.5328 53.7593C100.269 53.7593 100.865 54.3564 100.865 55.0918C100.865 55.8282 100.268 56.4243 99.5328 56.4243C98.7964 56.4254 98.1992 55.8282 98.1992 55.0918Z" fill="white"/>
<path d="M102.398 55.0918C102.398 54.3553 102.996 53.7593 103.731 53.7593C104.467 53.7593 105.063 54.3564 105.063 55.0918C105.063 55.8282 104.466 56.4243 103.731 56.4243C102.994 56.4254 102.398 55.8282 102.398 55.0918Z" fill="white"/>
<path d="M106.598 55.0918C106.598 54.3553 107.195 53.7593 107.931 53.7593C108.668 53.7593 109.264 54.3564 109.264 55.0918C109.264 55.8282 108.667 56.4243 107.931 56.4243C107.196 56.4243 106.598 55.8282 106.598 55.0918Z" fill="white"/>
<path d="M110.797 55.0918C110.797 54.3553 111.394 53.7593 112.129 53.7593C112.866 53.7593 113.462 54.3564 113.462 55.0918C113.462 55.8282 112.865 56.4243 112.129 56.4243C111.393 56.4254 110.797 55.8282 110.797 55.0918Z" fill="white"/>
<path d="M114.995 55.0918C114.995 54.3553 115.592 53.7593 116.329 53.7593C117.065 53.7593 117.661 54.3564 117.661 55.0918C117.661 55.8282 117.064 56.4243 116.329 56.4243C115.591 56.4254 114.995 55.8282 114.995 55.0918Z" fill="white"/>
<path d="M271.14 58.0021H260.288V52.9751H271.14V58.0021ZM260.841 57.4492H270.588V53.528H260.841V57.4492Z" fill="white"/>
<path d="M268.184 53.8286H261.188V57.1482H268.184V53.8286Z" fill="white"/>
<path d="M272.113 54.144H271.147V56.8334H272.113V54.144Z" fill="white"/>
<path d="M196.226 50.6244H175.094C174.373 50.6244 173.789 50.0405 173.789 49.3195C173.789 48.5985 174.373 48.0146 175.094 48.0146H196.226C196.947 48.0146 197.531 48.5985 197.531 49.3195C197.531 50.0405 196.947 50.6244 196.226 50.6244Z" fill="white"/>
<path d="M276.559 193.042H192.805V276.796H276.559V193.042Z" fill="white"/>
<path d="M276.973 277.21H274.347V276.381H276.144V274.584H276.973V277.21Z" fill="#FEEE99"/>
<path d="M271.087 277.211H266.74V276.381H271.087V277.211ZM263.48 277.211H259.132V276.381H263.48V277.211ZM255.873 277.211H251.525V276.381H255.873V277.211ZM248.265 277.211H243.918V276.381H248.265V277.211ZM240.66 277.211H236.313V276.381H240.66V277.211ZM233.053 277.211H228.706V276.381H233.053V277.211ZM225.445 277.211H221.098V276.381H225.445V277.211ZM217.838 277.211H213.491V276.381H217.838V277.211ZM210.231 277.211H205.884V276.381H210.231V277.211ZM202.624 277.211H198.277V276.381H202.624V277.211Z" fill="#FEEE99"/>
<path d="M195.016 277.21H192.39V274.584H193.219V276.381H195.016V277.21Z" fill="#FEEE99"/>
<path d="M193.219 271.323H192.39V266.976H193.219V271.323ZM193.219 263.716H192.39V259.368H193.219V263.716ZM193.219 256.11H192.39V251.762H193.219V256.11ZM193.219 248.502H192.39V244.155H193.219V248.502ZM193.219 240.895H192.39V236.549H193.219V240.895ZM193.219 233.289H192.39V228.942H193.219V233.289ZM193.219 225.681H192.39V221.334H193.219V225.681ZM193.219 218.075H192.39V213.728H193.219V218.075ZM193.219 210.467H192.39V206.12H193.219V210.467ZM193.219 202.86H192.39V198.513H193.219V202.86Z" fill="#FEEE99"/>
<path d="M193.219 195.253H192.39V192.627H195.016V193.456H193.219V195.253Z" fill="#FEEE99"/>
<path d="M271.086 193.456H266.739V192.627H271.086V193.456ZM263.479 193.456H259.132V192.627H263.479V193.456ZM255.872 193.456H251.525V192.627H255.872V193.456ZM248.265 193.456H243.917V192.627H248.265V193.456ZM240.659 193.456H236.312V192.627H240.659V193.456ZM233.052 193.456H228.705V192.627H233.052V193.456ZM225.445 193.456H221.098V192.627H225.445V193.456ZM217.838 193.456H213.491V192.627H217.838V193.456ZM210.23 193.456H205.883V192.627H210.23V193.456ZM202.624 193.456H198.277V192.627H202.624V193.456Z" fill="#FEEE99"/>
<path d="M276.973 195.253H276.144V193.456H274.347V192.627H276.973V195.253Z" fill="#FEEE99"/>
<path d="M276.972 271.323H276.143V266.976H276.972V271.323ZM276.972 263.716H276.143V259.368H276.972V263.716ZM276.972 256.109H276.143V251.762H276.972V256.109ZM276.972 248.502H276.143V244.155H276.972V248.502ZM276.972 240.895H276.143V236.549H276.972V240.895ZM276.972 233.288H276.143V228.941H276.972V233.288ZM276.972 225.681H276.143V221.334H276.972V225.681ZM276.972 218.075H276.143V213.728H276.972V218.075ZM276.972 210.467H276.143V206.12H276.972V210.467ZM276.972 202.86H276.143V198.513H276.972V202.86Z" fill="#FEEE99"/>
<path d="M200.807 268.794H268.558V201.043H200.807V268.794Z" fill="#FEEE99"/>
<path opacity="0.1" d="M210.49 216.757C209.669 221.09 213.397 224.817 217.73 223.997C220.151 223.538 222.102 221.586 222.561 219.166C223.383 214.833 219.655 211.105 215.322 211.927C212.902 212.385 210.949 214.336 210.49 216.757Z" fill="black"/>
<g opacity="0.2">
<path d="M223.158 250.01H268.557L245.858 222.033L223.158 250.01Z" fill="black"/>
</g>
<path d="M200.806 250.034H241.067L220.936 231.817L200.806 250.034Z" fill="#FEEE99"/>
<g opacity="0.1">
<path d="M200.806 250.034H241.067L220.936 231.817L200.806 250.034Z" fill="black"/>
</g>
<path d="M268.556 250.034H200.806V268.793H268.556V250.034Z" fill="#FEEE99"/>
<g opacity="0.1">
<path d="M268.556 250.034H200.806V268.793H268.556V250.034Z" fill="black"/>
</g>
<path d="M275.615 109.512H94.9072V184.247H275.615V109.512Z" fill="white"/>
<path d="M276.032 184.663H273.405V183.834H275.202V182.037H276.032V184.663Z" fill="#FEEE99"/>
<path d="M270.036 184.663H265.545V183.833H270.036V184.663ZM262.177 184.663H257.686V183.833H262.177V184.663ZM254.316 184.663H249.824V183.833H254.316V184.663ZM246.457 184.663H241.965V183.833H246.457V184.663ZM238.597 184.663H234.105V183.833H238.597V184.663ZM230.737 184.663H226.245V183.833H230.737V184.663ZM222.878 184.663H218.386V183.833H222.878V184.663ZM215.018 184.663H210.526V183.833H215.018V184.663ZM207.158 184.663H202.666V183.833H207.158V184.663ZM199.298 184.663H194.806V183.833H199.298V184.663ZM191.438 184.663H186.946V183.833H191.438V184.663ZM183.579 184.663H179.087V183.833H183.579V184.663ZM175.719 184.663H171.227V183.833H175.719V184.663ZM167.859 184.663H163.367V183.833H167.859V184.663ZM160 184.663H155.508V183.833H160V184.663ZM152.139 184.663H147.648V183.833H152.139V184.663ZM144.279 184.663H139.788V183.833H144.279V184.663ZM136.419 184.663H131.928V183.833H136.419V184.663ZM128.56 184.663H124.069V183.833H128.56V184.663ZM120.7 184.663H116.208V183.833H120.7V184.663ZM112.84 184.663H108.348V183.833H112.84V184.663ZM104.98 184.663H100.488V183.833H104.98V184.663Z" fill="#FEEE99"/>
<path d="M97.1204 184.663H94.4941V182.037H95.3235V183.834H97.1204V184.663Z" fill="#FEEE99"/>
<path d="M95.3235 178.841H94.4941V174.579H95.3235V178.841ZM95.3235 171.384H94.4941V167.122H95.3235V171.384ZM95.3235 163.926H94.4941V159.664H95.3235V163.926ZM95.3235 156.468H94.4941V152.207H95.3235V156.468ZM95.3235 149.011H94.4941V144.749H95.3235V149.011ZM95.3235 141.554H94.4941V137.293H95.3235V141.554ZM95.3235 134.097H94.4941V129.835H95.3235V134.097ZM95.3235 126.639H94.4941V122.377H95.3235V126.639ZM95.3235 119.182H94.4941V114.92H95.3235V119.182Z" fill="#FEEE99"/>
<path d="M95.3235 111.724H94.4941V109.098H97.1204V109.927H95.3235V111.724Z" fill="#FEEE99"/>
<path d="M270.036 109.927H265.545V109.098H270.036V109.927ZM262.176 109.927H257.684V109.098H262.176V109.927ZM254.316 109.927H249.824V109.098H254.316V109.927ZM246.457 109.927H241.965V109.098H246.457V109.927ZM238.596 109.927H234.104V109.098H238.596V109.927ZM230.737 109.927H226.245V109.098H230.737V109.927ZM222.877 109.927H218.385V109.098H222.877V109.927ZM215.017 109.927H210.525V109.098H215.017V109.927ZM207.158 109.927H202.666V109.098H207.158V109.927ZM199.298 109.927H194.806V109.098H199.298V109.927ZM191.438 109.927H186.946V109.098H191.438V109.927ZM183.578 109.927H179.086V109.098H183.578V109.927ZM175.719 109.927H171.227V109.098H175.719V109.927ZM167.859 109.927H163.367V109.098H167.859V109.927ZM159.998 109.927H155.507V109.098H159.998V109.927ZM152.138 109.927H147.647V109.098H152.138V109.927ZM144.278 109.927H139.786V109.098H144.278V109.927ZM136.419 109.927H131.928V109.098H136.419V109.927ZM128.559 109.927H124.067V109.098H128.559V109.927ZM120.699 109.927H116.207V109.098H120.699V109.927ZM112.84 109.927H108.348V109.098H112.84V109.927ZM104.98 109.927H100.488V109.098H104.98V109.927Z" fill="#FEEE99"/>
<path d="M276.032 111.724H275.202V109.927H273.405V109.098H276.032V111.724Z" fill="#FEEE99"/>
<path d="M276.031 178.84H275.201V174.578H276.031V178.84ZM276.031 171.382H275.201V167.121H276.031V171.382ZM276.031 163.926H275.201V159.664H276.031V163.926ZM276.031 156.468H275.201V152.207H276.031V156.468ZM276.031 149.011H275.201V144.749H276.031V149.011ZM276.031 141.553H275.201V137.292H276.031V141.553ZM276.031 134.097H275.201V129.835H276.031V134.097ZM276.031 126.639H275.201V122.377H276.031V126.639ZM276.031 119.182H275.201V114.92H276.031V119.182Z" fill="#FEEE99"/>
<path d="M104.784 173.129H157.279V120.634H104.784V173.129Z" fill="#FEEE99"/>
<path opacity="0.1" d="M112.289 132.809C111.652 136.166 114.541 139.055 117.898 138.418C119.773 138.062 121.286 136.55 121.641 134.674C122.277 131.317 119.388 128.429 116.032 129.066C114.157 129.421 112.645 130.933 112.289 132.809Z" fill="black"/>
<g opacity="0.2">
<path d="M122.103 158.574H157.279L139.692 136.897L122.103 158.574Z" fill="black"/>
</g>
<path d="M104.784 158.593H135.979L120.382 144.478L104.784 158.593Z" fill="#FEEE99"/>
<g opacity="0.1">
<path d="M104.784 158.593H135.979L120.382 144.478L104.784 158.593Z" fill="black"/>
</g>
<path d="M157.279 158.593H104.784V173.128H157.279V158.593Z" fill="#FEEE99"/>
<g opacity="0.1">
<path d="M157.279 158.593H104.784V173.128H157.279V158.593Z" fill="black"/>
</g>
<path d="M264.745 120.819H164.305V122.658H264.745V120.819Z" fill="#EBEBEB"/>
<path d="M264.745 130.833H164.305V132.671H264.745V130.833Z" fill="#EBEBEB"/>
<path d="M264.745 136.164H164.305V138.003H264.745V136.164Z" fill="#EBEBEB"/>
<path d="M264.745 141.495H164.305V143.334H264.745V141.495Z" fill="#EBEBEB"/>
<path d="M264.745 152.157H164.305V153.996H264.745V152.157Z" fill="#EBEBEB"/>
<path d="M264.745 157.487H164.305V159.326H264.745V157.487Z" fill="#EBEBEB"/>
<path d="M264.745 162.818H164.305V164.657H264.745V162.818Z" fill="#EBEBEB"/>
<path d="M220.309 168.149H164.305V169.988H220.309V168.149Z" fill="#EBEBEB"/>
<path d="M137.602 193.042H53.8477V276.796H137.602V193.042Z" fill="white"/>
<path d="M138.016 277.21H135.39V276.381H137.187V274.584H138.016V277.21Z" fill="#FEEE99"/>
<path d="M132.13 277.211H127.783V276.381H132.13V277.211ZM124.523 277.211H120.176V276.381H124.523V277.211ZM116.916 277.211H112.569V276.381H116.916V277.211ZM109.309 277.211H104.963V276.381H109.309V277.211ZM101.702 277.211H97.3546V276.381H101.702V277.211ZM94.0958 277.211H89.7488V276.381H94.0958V277.211ZM86.4878 277.211H82.1409V276.381H86.4878V277.211ZM78.881 277.211H74.534V276.381H78.881V277.211ZM71.2741 277.211H66.9272V276.381H71.2741V277.211ZM63.6672 277.211H59.3203V276.381H63.6672V277.211Z" fill="#FEEE99"/>
<path d="M56.0589 277.21H53.4326V274.584H54.262V276.381H56.0589V277.21Z" fill="#FEEE99"/>
<path d="M54.262 271.323H53.4326V266.976H54.262V271.323ZM54.262 263.717H53.4326V259.369H54.262V263.717ZM54.262 256.111H53.4326V251.763H54.262V256.111ZM54.262 248.503H53.4326V244.156H54.262V248.503ZM54.262 240.896H53.4326V236.549H54.262V240.896ZM54.262 233.289H53.4326V228.942H54.262V233.289ZM54.262 225.681H53.4326V221.334H54.262V225.681ZM54.262 218.075H53.4326V213.728H54.262V218.075ZM54.262 210.467H53.4326V206.121H54.262V210.467ZM54.262 202.861H53.4326V198.514H54.262V202.861Z" fill="#FEEE99"/>
<path d="M54.262 195.253H53.4326V192.627H56.0589V193.456H54.262V195.253Z" fill="#FEEE99"/>
<path d="M132.13 193.456H127.783V192.627H132.13V193.456ZM124.523 193.456H120.176V192.627H124.523V193.456ZM116.916 193.456H112.569V192.627H116.916V193.456ZM109.308 193.456H104.961V192.627H109.308V193.456ZM101.702 193.456H97.3546V192.627H101.702V193.456ZM94.0947 193.456H89.7477V192.627H94.0947V193.456ZM86.4878 193.456H82.1409V192.627H86.4878V193.456ZM78.881 193.456H74.534V192.627H78.881V193.456ZM71.2741 193.456H66.9272V192.627H71.2741V193.456ZM63.6672 193.456H59.3203V192.627H63.6672V193.456Z" fill="#FEEE99"/>
<path d="M138.016 195.253H137.187V193.456H135.39V192.627H138.016V195.253Z" fill="#FEEE99"/>
<path d="M138.016 271.323H137.187V266.976H138.016V271.323ZM138.016 263.717H137.187V259.369H138.016V263.717ZM138.016 256.11H137.187V251.763H138.016V256.11ZM138.016 248.503H137.187V244.156H138.016V248.503ZM138.016 240.896H137.187V236.549H138.016V240.896ZM138.016 233.288H137.187V228.941H138.016V233.288ZM138.016 225.681H137.187V221.334H138.016V225.681ZM138.016 218.075H137.187V213.728H138.016V218.075ZM138.016 210.467H137.187V206.121H138.016V210.467ZM138.016 202.861H137.187V198.514H138.016V202.861Z" fill="#FEEE99"/>
<path d="M57.1068 189.782H50.5869V196.302H57.1068V189.782Z" fill="#FEEE99"/>
<path d="M98.9827 189.782H92.4629V196.302H98.9827V189.782Z" fill="#FEEE99"/>
<path d="M140.86 189.782H134.34V196.302H140.86V189.782Z" fill="#FEEE99"/>
<path d="M57.1068 273.535H50.5869V280.055H57.1068V273.535Z" fill="#FEEE99"/>
<path d="M98.9827 273.535H92.4629V280.055H98.9827V273.535Z" fill="#FEEE99"/>
<path d="M140.86 273.535H134.34V280.055H140.86V273.535Z" fill="#FEEE99"/>
<path d="M57.1068 231.659H50.5869V238.179H57.1068V231.659Z" fill="#FEEE99"/>
<path d="M140.86 231.659H134.34V238.179H140.86V231.659Z" fill="#FEEE99"/>
<path d="M127.711 202.931H63.7354V266.907H127.711V202.931Z" fill="#455A64"/>
<path d="M86.6621 242.76V227.078L104.785 236.881L86.6621 242.76Z" fill="white"/>
<path d="M201.711 288.275H94.7432V301.678H201.711V288.275Z" fill="#FEEE99"/>
<path d="M201.434 301.637H95.0361V420.021H201.434V301.637Z" fill="white"/>
<path d="M201.847 420.435H197.009V419.606H201.018V419.418H201.847V420.435ZM193.692 420.435H189.268V419.606H193.692V420.435ZM185.951 420.435H181.528V419.606H185.951V420.435ZM178.21 420.435H173.787V419.606H178.21V420.435ZM170.47 420.435H166.046V419.606H170.47V420.435ZM162.729 420.435H158.306V419.606H162.729V420.435ZM154.988 420.435H150.565V419.606H154.988V420.435ZM147.248 420.435H142.825V419.606H147.248V420.435ZM139.507 420.435H135.084V419.606H139.507V420.435ZM131.766 420.435H127.343V419.606H131.766V420.435ZM124.026 420.435H119.603V419.606H124.026V420.435ZM116.285 420.435H111.862V419.606H116.285V420.435ZM108.544 420.435H104.121V419.606H108.544V420.435ZM100.804 420.435H96.3806V419.606H100.804V420.435ZM95.4506 418.049H94.6212V413.626H95.4506V418.049ZM201.847 416.101H201.018V411.677H201.847V416.101ZM95.4506 410.308H94.6212V405.885H95.4506V410.308ZM201.847 408.36H201.018V403.937H201.847V408.36ZM95.4506 402.568H94.6212V398.145H95.4506V402.568ZM201.847 400.619H201.018V396.196H201.847V400.619ZM95.4506 394.827H94.6212V390.404H95.4506V394.827ZM201.847 392.879H201.018V388.455H201.847V392.879ZM95.4506 387.086H94.6212V382.663H95.4506V387.086ZM201.847 385.138H201.018V380.715H201.847V385.138ZM95.4506 379.346H94.6212V374.923H95.4506V379.346ZM201.847 377.397H201.018V372.974H201.847V377.397ZM95.4506 371.605H94.6212V367.182H95.4506V371.605ZM201.847 369.657H201.018V365.233H201.847V369.657ZM95.4506 363.864H94.6212V359.441H95.4506V363.864ZM201.847 361.916H201.018V357.493H201.847V361.916ZM95.4506 356.124H94.6212V351.701H95.4506V356.124ZM201.847 354.175H201.018V349.752H201.847V354.175ZM95.4506 348.383H94.6212V343.96H95.4506V348.383ZM201.847 346.435H201.018V342.011H201.847V346.435ZM95.4506 340.642H94.6212V336.219H95.4506V340.642ZM201.847 338.694H201.018V334.271H201.847V338.694ZM95.4506 332.902H94.6212V328.479H95.4506V332.902ZM201.847 330.953H201.018V326.53H201.847V330.953ZM95.4506 325.161H94.6212V320.738H95.4506V325.161ZM201.847 323.213H201.018V318.79H201.847V323.213ZM95.4506 317.421H94.6212V312.997H95.4506V317.421ZM201.847 315.472H201.018V311.049H201.847V315.472ZM95.4506 309.68H94.6212V305.257H95.4506V309.68ZM201.847 307.731H201.018V303.308H201.847V307.731ZM199.786 302.052H195.363V301.223H199.786V302.052ZM192.045 302.052H187.622V301.223H192.045V302.052ZM184.304 302.052H179.881V301.223H184.304V302.052ZM176.564 302.052H172.141V301.223H176.564V302.052ZM168.823 302.052H164.4V301.223H168.823V302.052ZM161.083 302.052H156.659V301.223H161.083V302.052ZM153.342 302.052H148.919V301.223H153.342V302.052ZM145.601 302.052H141.178V301.223H145.601V302.052ZM137.861 302.052H133.437V301.223H137.861V302.052ZM130.12 302.052H125.697V301.223H130.12V302.052ZM122.379 302.052H117.956V301.223H122.379V302.052ZM114.639 302.052H110.215V301.223H114.639V302.052ZM106.898 302.052H102.475V301.223H106.898V302.052ZM99.1572 302.052H95.0348V301.938H94.6201V301.223H99.1572V302.052Z" fill="#FEEE99"/>
<path d="M201.73 420.217H94.7412V301.442H201.73V420.217ZM95.3328 419.825H201.139V301.834H95.3328V419.825Z" fill="#DBDBDB"/>
<path d="M95.3124 420.094L94.7617 419.948L201.159 301.565L201.71 301.711L95.3124 420.094Z" fill="#DBDBDB"/>
<path d="M201.159 420.094L94.7617 301.711L95.3124 301.565L201.71 419.948L201.159 420.094Z" fill="#DBDBDB"/>
<path d="M286.088 177.82C286.088 189.731 295.776 199.419 307.679 199.419C319.595 199.419 329.283 189.731 329.283 177.82C329.283 165.908 319.595 156.215 307.679 156.215C295.777 156.215 286.088 165.908 286.088 177.82ZM290.686 177.82C290.686 168.424 298.293 160.812 307.68 160.812C317.085 160.812 324.692 168.424 324.692 177.82C324.692 187.211 317.085 194.822 307.68 194.822C298.293 194.822 290.686 187.211 290.686 177.82ZM286.088 177.82C286.088 189.731 295.776 199.419 307.679 199.419C319.595 199.419 329.283 189.731 329.283 177.82C329.283 165.908 319.595 156.215 307.679 156.215C295.777 156.215 286.088 165.908 286.088 177.82ZM290.686 177.82C290.686 168.424 298.293 160.812 307.68 160.812C317.085 160.812 324.692 168.424 324.692 177.82C324.692 187.211 317.085 194.822 307.68 194.822C298.293 194.822 290.686 187.211 290.686 177.82ZM271.274 177.82C271.274 197.928 287.581 214.229 307.68 214.229C327.796 214.229 344.099 197.928 344.099 177.82C344.099 157.707 327.797 141.401 307.68 141.401C287.581 141.401 271.274 157.707 271.274 177.82ZM284.016 177.82C284.016 164.769 294.632 154.143 307.68 154.143C320.735 154.143 331.361 164.769 331.361 177.82C331.361 190.875 320.735 201.492 307.68 201.492C294.632 201.492 284.016 190.875 284.016 177.82ZM286.088 177.82C286.088 189.731 295.776 199.419 307.679 199.419C319.595 199.419 329.283 189.731 329.283 177.82C329.283 165.908 319.595 156.215 307.679 156.215C295.777 156.215 286.088 165.908 286.088 177.82ZM290.686 177.82C290.686 168.424 298.293 160.812 307.68 160.812C317.085 160.812 324.692 168.424 324.692 177.82C324.692 187.211 317.085 194.822 307.68 194.822C298.293 194.822 290.686 187.211 290.686 177.82Z" fill="#FEEE99"/>
<path d="M303.412 142.063H311.749L310.918 133.74H304.241L303.412 142.063Z" fill="#FEEE99"/>
<path d="M321.86 144.715L329.081 148.884L332.524 141.261L326.74 137.923L321.86 144.715Z" fill="#FEEE99"/>
<path d="M336.514 156.236L340.683 163.457L347.474 158.577L344.136 152.794L336.514 156.236Z" fill="#FEEE99"/>
<path d="M343.443 173.541V181.879L351.766 181.048V174.371L343.443 173.541Z" fill="#FEEE99"/>
<path d="M340.791 191.991L336.622 199.211L344.244 202.653L347.583 196.871L340.791 191.991Z" fill="#FEEE99"/>
<path d="M329.269 206.644L322.048 210.812L326.928 217.604L332.71 214.265L329.269 206.644Z" fill="#FEEE99"/>
<path d="M311.964 213.572H303.626L304.456 221.894H311.133L311.964 213.572Z" fill="#FEEE99"/>
<path d="M293.515 210.92L286.294 206.751L282.853 214.372L288.635 217.712L293.515 210.92Z" fill="#FEEE99"/>
<path d="M278.861 199.398L274.692 192.178L267.9 197.058L271.239 202.84L278.861 199.398Z" fill="#FEEE99"/>
<path d="M271.933 182.093V173.756L263.61 174.587V181.264L271.933 182.093Z" fill="#FEEE99"/>
<path d="M274.587 163.644L278.755 156.423L271.132 152.98L267.794 158.764L274.587 163.644Z" fill="#FEEE99"/>
<path d="M286.107 148.991L293.327 144.822L288.447 138.03L282.665 141.368L286.107 148.991Z" fill="#FEEE99"/>
<path d="M216.062 143.42C215.696 157.27 226.63 168.797 240.479 169.163C254.334 169.529 265.861 158.594 266.226 144.745C266.592 130.891 255.657 119.364 241.803 118.999C227.954 118.633 216.427 129.566 216.062 143.42ZM229.43 143.773C229.6 137.3 234.981 132.195 241.45 132.367C247.923 132.537 253.028 137.918 252.856 144.391C252.686 150.86 247.305 155.964 240.832 155.792C234.363 155.622 229.259 150.242 229.43 143.773Z" fill="#C7C7C7"/>
<path d="M236.956 119.913L246.601 120.167L246.247 113.325L237.669 113.099L236.956 119.913Z" fill="#C7C7C7"/>
<path d="M255.228 123.646L261.868 130.647L266.456 125.559L260.55 119.333L255.228 123.646Z" fill="#C7C7C7"/>
<path d="M265.508 139.207L265.253 148.852L272.095 148.499L272.321 139.92L265.508 139.207Z" fill="#C7C7C7"/>
<path d="M261.773 157.479L254.772 164.119L259.86 168.707L266.086 162.801L261.773 157.479Z" fill="#C7C7C7"/>
<path d="M246.212 167.759L236.567 167.504L236.92 174.346L245.499 174.572L246.212 167.759Z" fill="#C7C7C7"/>
<path d="M227.941 164.025L221.301 157.025L216.713 162.113L222.619 168.338L227.941 164.025Z" fill="#C7C7C7"/>
<path d="M217.662 148.463L217.916 138.818L211.074 139.172L210.849 147.75L217.662 148.463Z" fill="#C7C7C7"/>
<path d="M221.396 130.192L228.396 123.552L223.308 118.964L217.082 124.87L221.396 130.192Z" fill="#C7C7C7"/>
<path d="M247.808 137.933L239.584 135.494L233.361 141.402L235.364 149.738L243.582 152.177L249.81 146.275L247.808 137.933ZM241.514 146.553C240.009 146.513 238.828 145.268 238.867 143.763C238.907 142.265 240.152 141.077 241.657 141.117C243.155 141.157 244.343 142.408 244.304 143.907C244.265 145.412 243.013 146.593 241.514 146.553Z" fill="#C7C7C7"/>
<path d="M339.356 127.617C345.159 128.156 350.296 123.889 350.835 118.091C351.375 112.283 347.108 107.152 341.305 106.612C335.508 106.072 330.377 110.334 329.837 116.137C329.296 121.935 333.558 127.077 339.356 127.617ZM331.113 116.258C331.587 111.16 336.096 107.416 341.189 107.889C346.282 108.363 350.026 112.872 349.553 117.97C349.079 123.062 344.57 126.806 339.472 126.333C334.384 125.861 330.64 121.351 331.113 116.258ZM339.356 127.617C345.159 128.156 350.296 123.889 350.835 118.091C351.375 112.283 347.108 107.152 341.305 106.612C335.508 106.072 330.377 110.334 329.837 116.137C329.296 121.935 333.558 127.077 339.356 127.617ZM331.113 116.258C331.587 111.16 336.096 107.416 341.189 107.889C346.282 108.363 350.026 112.872 349.553 117.97C349.079 123.062 344.57 126.806 339.472 126.333C334.384 125.861 330.64 121.351 331.113 116.258ZM339.356 127.617C345.159 128.156 350.296 123.889 350.835 118.091C351.375 112.283 347.108 107.152 341.305 106.612C335.508 106.072 330.377 110.334 329.837 116.137C329.296 121.935 333.558 127.077 339.356 127.617ZM331.113 116.258C331.587 111.16 336.096 107.416 341.189 107.889C346.282 108.363 350.026 112.872 349.553 117.97C349.079 123.062 344.57 126.806 339.472 126.333C334.384 125.861 330.64 121.351 331.113 116.258ZM338.271 139.25C350.505 140.385 361.329 131.388 362.468 119.171C363.603 106.948 354.617 96.1124 342.389 94.9789C330.172 93.8444 319.336 102.836 318.203 115.058C317.063 127.275 326.054 138.117 338.271 139.25ZM328.202 115.988C328.824 109.294 334.77 104.354 341.459 104.977C348.148 105.599 353.088 111.545 352.465 118.24C351.843 124.934 345.891 129.867 339.202 129.246C332.518 128.624 327.579 122.678 328.202 115.988ZM329.837 116.137C329.296 121.935 333.558 127.077 339.356 127.617C345.159 128.156 350.296 123.889 350.835 118.091C351.375 112.283 347.108 107.152 341.305 106.612C335.508 106.072 330.377 110.334 329.837 116.137ZM331.113 116.258C331.587 111.16 336.096 107.416 341.189 107.889C346.282 108.363 350.026 112.872 349.553 117.97C349.079 123.062 344.57 126.806 339.472 126.333C334.384 125.861 330.64 121.351 331.113 116.258ZM339.356 127.617C345.159 128.156 350.296 123.889 350.835 118.091C351.375 112.283 347.108 107.152 341.305 106.612C335.508 106.072 330.377 110.334 329.837 116.137C329.296 121.935 333.558 127.077 339.356 127.617ZM331.113 116.258C331.587 111.16 336.096 107.416 341.189 107.889C346.282 108.363 350.026 112.872 349.553 117.97C349.079 123.062 344.57 126.806 339.472 126.333C334.384 125.861 330.64 121.351 331.113 116.258ZM339.356 127.617C345.159 128.156 350.296 123.889 350.835 118.091C351.375 112.283 347.108 107.152 341.305 106.612C335.508 106.072 330.377 110.334 329.837 116.137C329.296 121.935 333.558 127.077 339.356 127.617ZM331.113 116.258C331.587 111.16 336.096 107.416 341.189 107.889C346.282 108.363 350.026 112.872 349.553 117.97C349.079 123.062 344.57 126.806 339.472 126.333C334.384 125.861 330.64 121.351 331.113 116.258Z" fill="#C7C7C7"/>
<path d="M338.051 95.5028L346.562 96.2935L346.651 90.2248L339.081 89.5215L338.051 95.5028Z" fill="#C7C7C7"/>
<path d="M353.984 99.8754L359.443 106.453L363.797 102.225L358.942 96.3755L353.984 99.8754Z" fill="#C7C7C7"/>
<path d="M362.158 114.234L361.367 122.745L367.435 122.834L368.138 115.264L362.158 114.234Z" fill="#C7C7C7"/>
<path d="M357.785 130.167L351.208 135.626L355.437 139.979L361.286 135.125L357.785 130.167Z" fill="#C7C7C7"/>
<path d="M343.427 138.341L334.916 137.55L334.827 143.619L342.396 144.322L343.427 138.341Z" fill="#C7C7C7"/>
<path d="M327.494 133.968L322.035 127.391L317.681 131.619L322.536 137.468L327.494 133.968Z" fill="#C7C7C7"/>
<path d="M319.319 119.61L320.11 111.099L314.042 111.01L313.339 118.58L319.319 119.61Z" fill="#C7C7C7"/>
<path d="M323.692 103.677L330.27 98.2173L326.041 93.8638L320.191 98.7194L323.692 103.677Z" fill="#C7C7C7"/>
<path d="M422.098 436.496C426.203 434.281 431.756 433.238 436.09 435.278C436.258 435.358 436.143 435.595 435.987 435.596C431.244 435.62 426.942 436.039 422.293 437.042C421.965 437.113 421.805 436.655 422.098 436.496Z" fill="#263238"/>
<path d="M419.558 439.406C423.661 437.191 429.216 436.148 433.549 438.189C433.718 438.268 433.603 438.505 433.447 438.506C428.705 438.53 424.403 438.948 419.752 439.952C419.424 440.023 419.264 439.565 419.558 439.406Z" fill="#263238"/>
<path d="M417.015 442.316C421.12 440.101 426.674 439.059 431.007 441.099C431.175 441.178 431.06 441.415 430.904 441.416C426.162 441.441 421.86 441.858 417.209 442.863C416.883 442.932 416.721 442.474 417.015 442.316Z" fill="#263238"/>
<path d="M414.472 445.226C418.577 443.011 424.13 441.968 428.464 444.008C428.632 444.088 428.517 444.325 428.361 444.326C423.618 444.35 419.317 444.768 414.667 445.772C414.339 445.843 414.179 445.385 414.472 445.226Z" fill="#263238"/>
<path d="M414.748 434.577C418.606 435.988 422.939 435.679 426.972 435.857C427.39 435.876 427.576 435.428 427.482 435.093C427.549 435.057 427.593 434.984 427.534 434.903C425.175 431.638 421.35 428.592 417.603 427.06C415.289 426.113 411.754 426.074 410.797 428.987C409.892 431.743 412.496 433.754 414.748 434.577ZM412.51 431.421C410.205 426.878 416.153 427.743 417.831 428.509C418.909 429.001 419.947 429.633 420.946 430.267C423.039 431.595 424.904 433.195 426.846 434.72C424.871 434.511 422.895 434.472 420.914 434.336C418.553 434.174 413.781 433.926 412.51 431.421Z" fill="#263238"/>
<path d="M439.976 423.576C438.048 421.193 434.756 422.482 432.928 424.189C429.969 426.951 427.473 431.155 426.426 435.046C426.4 435.142 426.465 435.195 426.542 435.205C426.574 435.552 426.905 435.905 427.29 435.739C430.997 434.141 435.159 432.891 438.264 430.203C440.079 428.635 441.801 425.831 439.976 423.576ZM432.416 432.166C430.611 432.996 428.778 433.733 427.005 434.63C428.279 432.515 429.455 430.357 430.942 428.373C431.65 427.425 432.397 426.467 433.231 425.624C434.527 424.314 439.783 421.393 439.239 426.459C438.938 429.251 434.565 431.176 432.416 432.166Z" fill="#263238"/>
<path d="M468.1 430.253C468.371 431.84 468.625 433.39 468.868 434.887C470.435 444.532 471.366 451.973 470.643 452.655C468.423 454.767 401.849 468.125 399.363 467.822C396.886 467.507 397.602 460.408 399.771 457.83C401.093 456.267 410.185 449.546 417.114 444.523C417.133 444.509 417.14 444.496 417.14 444.496C421.597 441.275 425.152 438.741 425.152 438.741L411.795 395.572L456.531 386.767C456.531 386.767 467.67 427.7 468.1 430.253Z" fill="#AD6359"/>
<path d="M399.359 467.825C401.849 468.121 468.421 454.766 470.639 452.655C471.363 451.967 470.438 444.531 468.86 434.888C468.622 433.394 468.374 431.84 468.102 430.25C467.948 429.36 466.477 423.775 464.65 416.896C458.175 418.188 432.142 423.419 421.099 425.637L425.155 438.742C425.155 438.742 421.597 441.269 417.138 444.494C417.138 444.494 417.126 444.506 417.115 444.519C410.188 449.547 401.092 456.26 399.775 457.826C397.604 460.411 396.881 467.504 399.359 467.825Z" fill="#EBEBEB"/>
<path d="M398.806 468.253C400.453 468.447 429.328 462.707 450.248 458.016C455.088 456.928 459.506 455.893 463.061 455.011C467.958 453.781 471.219 452.84 471.689 452.389C472.499 451.603 467.399 424.312 466.506 421.151L422.245 430.308L424.845 438.492C424.845 438.492 401.397 455.375 399.171 458.026C396.969 460.672 396.272 467.935 398.806 468.253Z" fill="#FEEE99"/>
<path d="M399.854 465.202C411.208 462.575 457.252 453.054 468.675 451.32C468.768 451.306 468.781 451.369 468.689 451.392C457.492 454.241 411.373 463.389 399.891 465.389C399.65 465.431 399.615 465.257 399.854 465.202Z" fill="#263238"/>
<path d="M416.722 432.361C416.244 432.129 398.38 363.935 392.463 341.223C383.927 308.459 375.658 255.055 373.172 243.933C373.172 243.933 365.189 224.996 362.827 204.025C362.823 203.988 416.644 204.019 416.644 204.019C416.644 204.019 430.759 231.02 423.482 250.098C422.815 251.847 432.879 319.29 438.083 330.209C442.584 339.651 467.992 421.332 467.992 421.332L416.722 432.361Z" fill="#37474F"/>
<path d="M417.008 420.948C418.328 420.472 419.734 420.23 421.091 419.879C422.525 419.51 423.957 419.148 425.402 418.822C428.286 418.17 431.176 417.547 434.066 416.922C439.844 415.673 445.639 414.496 451.432 413.323C453.017 413.002 454.602 412.692 456.189 412.388C457.758 412.087 459.407 411.668 461.009 411.658C461.096 411.658 461.118 411.789 461.041 411.822C459.773 412.383 458.346 412.635 457.005 412.966C455.57 413.32 454.128 413.654 452.686 413.979C449.846 414.618 447.01 415.271 444.166 415.891C438.434 417.14 432.707 418.416 426.957 419.574C425.327 419.903 423.699 420.239 422.058 420.51C420.428 420.778 418.785 421.209 417.137 421.332C416.931 421.347 416.77 421.033 417.008 420.948Z" fill="#263238"/>
<path d="M387.257 241.457C388.295 247.062 389.15 252.702 390.079 258.326C390.552 261.191 391.178 264.029 391.652 266.894C392.118 269.707 392.576 272.523 393.028 275.338C394.847 286.66 396.647 297.986 398.454 309.311C399.351 314.93 400.252 320.55 401.162 326.169C402.059 331.702 403.07 337.198 404.556 342.609C406.041 348.018 418.94 401.605 421.943 412.632C422.316 414.003 422.691 415.374 423.072 416.744C423.116 416.902 422.879 416.961 422.827 416.808C419.113 405.978 407.703 357.863 404.459 346.945C402.875 341.613 401.598 336.231 400.662 330.749C399.703 325.125 398.864 319.477 397.965 313.843C396.157 302.519 394.346 291.195 392.542 279.869C391.657 274.304 390.674 268.74 389.985 263.146C389.27 257.351 388.271 251.595 387.407 245.821C387.196 244.407 386.989 242.994 386.799 241.578C386.764 241.285 387.201 241.154 387.257 241.457Z" fill="#263238"/>
<path d="M340.975 440.21C345.554 439.325 351.166 439.994 354.689 443.238C354.826 443.364 354.645 443.556 354.496 443.51C349.964 442.113 345.734 441.225 340.997 440.789C340.663 440.758 340.646 440.274 340.975 440.21Z" fill="#263238"/>
<path d="M337.678 442.225C342.258 441.34 347.87 442.01 351.393 445.255C351.529 445.381 351.349 445.572 351.199 445.527C346.668 444.129 342.438 443.24 337.7 442.804C337.366 442.773 337.35 442.288 337.678 442.225Z" fill="#263238"/>
<path d="M334.381 444.24C338.96 443.355 344.572 444.025 348.095 447.268C348.232 447.395 348.051 447.586 347.902 447.541C343.37 446.143 339.14 445.254 334.402 444.818C334.069 444.788 334.053 444.304 334.381 444.24Z" fill="#263238"/>
<path d="M331.084 446.255C335.663 445.37 341.275 446.039 344.798 449.284C344.936 449.41 344.754 449.601 344.606 449.556C340.074 448.158 335.845 447.269 331.106 446.833C330.772 446.802 330.756 446.318 331.084 446.255Z" fill="#263238"/>
<path d="M334.536 436.177C337.794 438.678 342.021 439.682 345.815 441.06C346.209 441.203 346.52 440.831 346.531 440.483C346.606 440.469 346.669 440.411 346.638 440.317C345.365 436.495 342.627 432.444 339.512 429.859C337.588 428.263 334.227 427.168 332.441 429.66C330.751 432.018 332.633 434.717 334.536 436.177ZM333.346 432.496C332.507 427.471 337.923 430.078 339.294 431.311C340.176 432.104 340.976 433.018 341.741 433.921C343.341 435.815 344.641 437.901 346.037 439.937C344.214 439.145 342.341 438.517 340.491 437.794C338.286 436.932 333.809 435.266 333.346 432.496Z" fill="#263238"/>
<path d="M361.899 433.237C360.772 430.385 357.246 430.629 354.991 431.71C351.341 433.459 347.7 436.723 345.537 440.12C345.484 440.204 345.53 440.275 345.6 440.307C345.526 440.648 345.737 441.085 346.154 441.041C350.169 440.627 354.514 440.682 358.282 439.048C360.483 438.095 362.965 435.935 361.899 433.237ZM352.114 439.169C350.145 439.42 348.174 439.574 346.213 439.899C348.062 438.264 349.83 436.557 351.843 435.109C352.803 434.418 353.804 433.727 354.85 433.173C356.48 432.31 362.368 431.098 360.331 435.768C359.21 438.341 354.462 438.869 352.114 439.169Z" fill="#263238"/>
<path d="M386.897 434.931C386.855 437.642 385.722 464.84 384.881 465.369C382.294 467.01 314.393 467.208 312.014 466.429C309.645 465.639 311.723 458.814 314.351 456.705C315.951 455.428 326.173 450.597 333.944 447.013C333.965 447.003 333.975 446.992 333.975 446.992C338.972 444.696 342.951 442.898 342.951 442.898L342.733 434.93L342.118 398.642H386.976C386.976 398.642 387.197 417.321 386.897 434.931Z" fill="#AD6359"/>
<path d="M312.01 466.424C314.394 467.207 382.294 467.006 384.88 465.369C385.722 464.835 386.86 437.64 386.896 434.936C386.919 433.134 386.955 431.331 386.966 429.528H342.632L342.727 434.936L342.953 442.895C342.953 442.895 338.968 444.697 333.975 446.998C333.975 446.998 333.963 446.998 333.94 447.011C326.171 450.592 315.948 455.431 314.347 456.712C311.726 458.81 309.651 465.641 312.01 466.424Z" fill="#EBEBEB"/>
<path d="M310.404 466.982C311.981 467.495 341.421 467.503 362.855 466.987C367.815 466.865 372.35 466.713 376.009 466.542C381.052 466.292 384.435 466.006 384.983 465.655C385.93 465.041 387.281 437.275 387.024 434.001L342.158 434.238L341.995 442.788C341.995 442.788 315.461 454.857 312.761 457.023C310.083 459.189 307.979 466.176 310.404 466.982Z" fill="#FEEE99"/>
<path d="M312.027 464.195C323.676 463.837 370.693 463.49 382.234 464.021C382.328 464.025 382.328 464.089 382.234 464.094C370.696 464.701 323.679 464.666 312.027 464.385C311.783 464.38 311.782 464.203 312.027 464.195Z" fill="#263238"/>
<path d="M394.904 252.177C394.894 252.208 387.237 327.413 387.112 329.189C387.06 329.886 390.406 433.687 390.406 433.687H339.688C339.688 433.687 341.494 335.672 342.264 325.044C342.358 323.807 345.63 247.325 360.393 204.024H416.724C416.724 204.024 416.234 229.465 404.664 247.865C404.664 247.865 398.26 250.29 394.904 252.177Z" fill="#37474F"/>
<path d="M342.891 424.185C344.279 423.984 345.705 424.028 347.104 423.958C348.582 423.883 350.058 423.817 351.539 423.787C354.495 423.726 357.451 423.696 360.408 423.663C366.318 423.597 372.231 423.608 378.143 423.619C379.759 423.622 381.375 423.635 382.992 423.656C384.589 423.677 386.289 423.597 387.86 423.908C387.946 423.925 387.94 424.059 387.858 424.076C386.502 424.371 385.056 424.332 383.675 424.387C382.198 424.446 380.718 424.485 379.24 424.513C376.33 424.57 373.42 424.64 370.509 424.678C364.644 424.752 358.778 424.854 352.911 424.835C351.248 424.83 349.586 424.833 347.924 424.77C346.273 424.707 344.578 424.797 342.938 424.588C342.735 424.562 342.641 424.221 342.891 424.185Z" fill="#263238"/>
<path d="M354.385 333.391C355.714 306.289 358.563 279.31 362.151 252.423C364.116 237.703 366.415 222.998 370.395 208.668C370.412 208.608 370.501 208.635 370.487 208.695C367.263 221.777 365.179 235.107 363.485 248.464C361.805 261.703 360.211 274.967 358.865 288.245C356.131 315.191 354.917 342.244 354.75 369.324C354.656 384.557 355.064 403.596 355.487 418.821C355.491 418.969 355.272 418.958 355.26 418.815C353.028 391.722 353.055 360.529 354.385 333.391Z" fill="#263238"/>
<path d="M357.098 214.505C357.126 214.412 357.275 214.433 357.269 214.533C357.052 217.74 356.512 221.239 357.937 224.26C359.194 226.929 361.587 228.429 363.787 230.231C363.858 230.288 363.776 230.398 363.699 230.375C360.771 229.485 357.854 227.861 356.702 224.868C355.409 221.504 356.108 217.844 357.098 214.505Z" fill="#263238"/>
<path d="M381.525 250.523C383.864 250.325 386.221 250.657 388.566 250.759C390.861 250.859 393.157 250.87 395.444 250.634C396.593 250.516 397.734 250.332 398.859 250.067C400.023 249.793 401.13 249.358 402.28 249.042C403.377 248.741 404.367 248.919 405.454 249.164C406.671 249.438 407.9 249.63 409.137 249.791C411.931 250.152 414.86 250.331 417.665 250.011C417.774 249.998 417.82 250.159 417.707 250.18C415.299 250.631 412.909 250.996 410.449 250.939C409.196 250.911 407.953 250.794 406.714 250.6C405.602 250.426 404.347 249.962 403.221 250.144C402.061 250.332 400.948 250.964 399.812 251.28C398.679 251.596 397.521 251.827 396.355 251.988C394.025 252.307 391.646 252.352 389.3 252.203C386.676 252.038 383.946 251.831 381.448 250.997C381.174 250.909 381.259 250.546 381.525 250.523Z" fill="#263238"/>
<path d="M386.987 325.039C387 325.015 387.025 325.002 387.051 324.999C387.075 324.997 387.096 325.003 387.115 325.018C387.134 325.034 387.151 325.061 387.147 325.088L387.12 325.268C387.118 325.284 387.115 325.3 387.102 325.311C387.092 325.32 387.079 325.326 387.066 325.327C387.039 325.33 387.004 325.311 387 325.281C386.991 325.224 386.983 325.165 386.974 325.107C386.972 325.082 386.974 325.061 386.987 325.039Z" fill="#263238"/>
<path d="M388.327 312.089C388.773 307.211 389.254 302.336 389.765 297.464C390.786 287.713 391.755 277.958 392.759 268.205C393.328 262.675 393.74 257.097 394.642 251.605C394.665 251.464 394.885 251.458 394.882 251.611C394.801 256.497 394.281 261.388 393.868 266.257C393.453 271.137 393.02 276.016 392.563 280.892C391.65 290.648 390.775 300.412 389.633 310.147C389.309 312.912 388.961 315.676 388.6 318.437C388.238 321.202 387.751 323.956 387.4 326.723C387.386 326.834 387.204 326.833 387.215 326.718C387.652 321.849 387.88 316.961 388.327 312.089Z" fill="#263238"/>
<path d="M387.744 140.765C387.668 141.88 383.678 149.681 378.734 150.25C377.124 150.432 375.735 141.686 375.735 141.686L375.485 141.064L371.992 132.351L381.504 123.808L382.892 122.655C382.892 122.655 383.691 125.102 384.655 128.159C384.7 128.3 384.745 128.442 384.792 128.595C384.851 128.766 384.909 128.927 384.957 129.09C385.107 129.544 385.257 130.01 385.399 130.476C385.507 130.831 385.615 131.174 385.715 131.55C385.826 131.925 385.925 132.291 386.036 132.666C387.044 136.388 387.771 140.293 387.744 140.765Z" fill="#AD6359"/>
<path d="M384.655 128.16C383.236 135.778 377.965 139.647 375.485 141.065L371.992 132.352L381.504 123.809L382.892 122.656C382.892 122.656 383.691 125.103 384.655 128.16Z" fill="#263238"/>
<path d="M384.512 125.416C387.249 124.758 394.354 126.589 396.787 130.212C399.221 133.834 399.133 139.775 397.925 140.376C396.718 140.978 391.476 140.629 387.848 138.714C384.219 136.799 383.164 125.74 384.512 125.416Z" fill="#263238"/>
<path d="M384.505 125.433C384.413 125.415 384.399 125.262 384.505 125.257C386.909 125.152 389.501 125.915 391.806 126.533C393.666 127.032 395.576 127.629 397.095 128.861C398.614 130.093 399.427 131.742 399.533 133.688C399.648 135.807 399.395 138.377 398.387 140.276C398.357 140.331 398.251 140.318 398.27 140.245C399.303 136.217 400.182 131.303 396.149 128.646C392.724 126.391 388.393 126.202 384.505 125.433Z" fill="#263238"/>
<path d="M386.571 122.859C387.316 121.874 388.829 123.052 388.083 124.037C387.339 125.022 385.826 123.845 386.571 122.859Z" fill="#FEEE99"/>
<path d="M385.86 124.494C386.605 123.51 388.118 124.688 387.371 125.673C386.627 126.657 385.113 125.48 385.86 124.494Z" fill="#FEEE99"/>
<path d="M384.867 125.995C385.612 125.011 387.125 126.189 386.378 127.174C385.633 128.158 384.12 126.981 384.867 125.995Z" fill="#FEEE99"/>
<path d="M383.716 127.317C384.462 126.332 385.974 127.51 385.228 128.495C384.483 129.48 382.97 128.303 383.716 127.317Z" fill="#FEEE99"/>
<path d="M382.325 128.445C383.07 127.461 384.583 128.638 383.836 129.624C383.092 130.607 381.578 129.43 382.325 128.445Z" fill="#FEEE99"/>
<path d="M380.814 129.274C381.559 128.289 383.072 129.467 382.326 130.452C381.58 131.437 380.067 130.26 380.814 129.274Z" fill="#FEEE99"/>
<path d="M356.857 118.217C354.266 134.486 363.651 138.032 367.228 138.43C370.432 138.787 381.322 140.243 385.581 124.328C389.838 108.414 383.093 102.066 375.869 100.528C368.644 98.991 359.448 101.947 356.857 118.217Z" fill="#AD6359"/>
<path d="M358.222 116.014C358.611 116.003 358.968 115.929 359.351 115.878C359.783 115.822 360.135 115.821 360.477 115.52C360.66 115.358 360.678 115 360.539 114.806C360.212 114.358 359.665 114.296 359.141 114.342C358.572 114.394 358.148 114.579 357.74 114.977C357.346 115.363 357.709 116.028 358.222 116.014Z" fill="#263238"/>
<path d="M368.471 117.396C368.09 117.318 367.751 117.182 367.383 117.065C366.967 116.933 366.622 116.87 366.338 116.515C366.185 116.324 366.231 115.968 366.402 115.802C366.801 115.416 367.351 115.451 367.858 115.589C368.409 115.74 368.795 115.996 369.127 116.46C369.447 116.909 368.974 117.5 368.471 117.396Z" fill="#263238"/>
<path d="M365.694 121.224C365.708 121.182 365.775 121.286 365.77 121.332C365.609 122.442 365.613 123.742 366.58 124.225C366.61 124.239 366.6 124.296 366.564 124.286C365.353 123.975 365.365 122.25 365.694 121.224Z" fill="#263238"/>
<path d="M366.82 120.169C368.628 120.233 368.367 123.845 366.692 123.785C365.043 123.728 365.304 120.116 366.82 120.169Z" fill="#263238"/>
<path d="M367.516 120.411C367.817 120.638 368.1 121.022 368.477 121.087C368.914 121.162 369.273 120.808 369.587 120.465C369.619 120.43 369.649 120.463 369.646 120.512C369.606 121.205 369.289 121.895 368.539 121.945C367.856 121.99 367.413 121.342 367.292 120.633C367.27 120.502 367.394 120.32 367.516 120.411Z" fill="#263238"/>
<path d="M360.026 120.296C360.021 120.252 359.935 120.343 359.933 120.388C359.897 121.51 359.666 122.789 358.628 123.094C358.596 123.104 358.595 123.161 358.634 123.157C359.881 123.064 360.171 121.364 360.026 120.296Z" fill="#263238"/>
<path d="M359.102 119.062C357.31 118.808 356.935 122.41 358.595 122.644C360.228 122.875 360.603 119.274 359.102 119.062Z" fill="#263238"/>
<path d="M358.327 119.221C358.022 119.382 357.705 119.699 357.363 119.686C356.966 119.671 356.715 119.252 356.502 118.851C356.48 118.81 356.448 118.837 356.443 118.884C356.352 119.571 356.506 120.312 357.153 120.512C357.743 120.696 358.249 120.151 358.483 119.482C358.526 119.359 358.449 119.155 358.327 119.221Z" fill="#263238"/>
<path d="M365.415 129.933C365.164 130.212 364.921 130.591 364.517 130.653C364.13 130.711 363.661 130.566 363.295 130.451C363.259 130.44 363.226 130.48 363.251 130.512C363.571 130.922 364.2 131.15 364.713 131.025C365.214 130.902 365.435 130.448 365.527 129.977C365.54 129.911 365.452 129.892 365.415 129.933Z" fill="#263238"/>
<path d="M360.754 125.426C360.754 125.426 360.383 127.076 360.316 127.863C360.311 127.937 360.498 127.988 360.764 128.026C360.777 128.031 360.783 128.037 360.795 128.029C362.168 128.363 363.608 128.002 364.548 126.938C364.609 126.865 364.516 126.775 364.44 126.818C363.338 127.493 362.174 127.594 360.939 127.51C360.901 127.287 361.669 124.705 361.545 124.685C361.117 124.612 360.245 124.833 359.723 124.94C360.396 121.481 361.62 118.157 362.24 114.702C362.259 114.578 362.084 114.526 362.038 114.635C360.51 118.026 359.647 121.99 358.859 125.546C358.756 125.989 360.427 125.533 360.754 125.426Z" fill="#263238"/>
<path d="M361.338 127.752C361.338 127.752 361.869 128.721 362.718 129.16C363.031 129.322 363.378 129.417 363.763 129.37C364.553 129.273 364.667 128.577 364.61 127.96C364.564 127.452 364.394 126.997 364.394 126.997C364.394 126.997 363.137 127.887 361.338 127.752Z" fill="#263238"/>
<path d="M362.718 129.161C363.031 129.323 363.378 129.418 363.763 129.371C364.552 129.274 364.667 128.578 364.61 127.961C363.78 127.932 362.896 128.375 362.718 129.161Z" fill="#FF99BA"/>
<path d="M383.764 129.383C382.031 128.873 378.456 119.871 380.273 111.352C380.273 111.352 379.171 119.114 379.486 120.363C379.801 121.611 377.555 117.052 378.924 110.162C378.924 110.162 374.503 112.024 371.063 112.184C367.623 112.345 365.652 111.858 365.475 111.572C365.298 111.284 370.399 110.883 372.027 109.696C372.027 109.696 362.51 111.711 358.477 111.1C358.01 111.029 359.873 102.043 366.921 99.4554C373.969 96.8678 382.441 102.859 384.47 105.98C384.47 105.98 386.498 107.039 388.784 112.339C391.068 117.637 385.631 129.931 383.764 129.383Z" fill="#263238"/>
<path d="M377.985 124.731C377.985 124.731 381.764 119.723 384.05 121.088C386.335 122.454 383.363 129.806 380.589 130.725C377.814 131.645 376.913 129.092 376.913 129.092L377.985 124.731Z" fill="#AD6359"/>
<path d="M383.147 123.174C383.191 123.172 383.197 123.234 383.159 123.248C381.212 123.956 380.136 125.7 379.362 127.52C379.958 126.83 380.749 126.469 381.676 127.182C381.725 127.22 381.674 127.296 381.621 127.283C380.841 127.086 380.268 127.202 379.714 127.813C379.322 128.245 379.044 128.799 378.756 129.304C378.659 129.473 378.353 129.37 378.426 129.174C378.432 129.16 378.438 129.144 378.444 129.13C378.484 126.68 380.511 123.325 383.147 123.174Z" fill="#263238"/>
<path d="M358.121 107.91C358.121 107.91 366.385 91.0014 381.52 98.2511C396.655 105.501 388.658 122.538 388.658 122.538L358.121 107.91Z" fill="#FEEE99"/>
<path d="M390.386 121.879L357.576 106.164L356.424 108.569L389.234 124.285L390.386 121.879Z" fill="#FEEE99"/>
<path d="M367.088 110.752L361.983 108.322L369.664 95.8965L375.722 96.1099L367.088 110.752Z" fill="#FEEE99"/>
<path opacity="0.1" d="M367.088 110.752L361.983 108.322L369.664 95.8965L375.722 96.1099L367.088 110.752Z" fill="black"/>
<path opacity="0.1" d="M358.788 106.719C363.901 109.043 368.95 111.5 374.034 113.885C379.075 116.359 384.15 118.761 389.161 121.299C384.048 118.977 378.998 116.52 373.916 114.134C368.874 111.659 363.8 109.256 358.788 106.719Z" fill="black"/>
<path d="M359.093 189.038L355.498 213.68H422.063C422.063 213.68 410.058 158.329 394.9 144.603C386.781 137.252 381.289 135.672 375.737 141.305C374.331 142.73 357.568 164.885 355.802 173.35C354.262 180.817 359.093 189.038 359.093 189.038Z" fill="#FEEE99"/>
<path d="M419.457 202.922H357.061L357.523 199.768H418.626C418.924 200.87 419.196 201.926 419.457 202.922Z" fill="#EBEBEB"/>
<path d="M420.881 208.639H356.231L356.694 205.484H420.111C420.396 206.647 420.657 207.702 420.881 208.639Z" fill="#EBEBEB"/>
<path d="M381.724 154.261C378.285 164.495 361.033 198.928 350.925 200.851C335.08 203.864 311.144 200.541 300.964 199.767C295.431 199.347 303.545 165.017 309.283 167.408C316.756 170.522 340.616 171.896 343.505 172.196C346.395 172.497 360.419 156.797 371.148 146.016C380.099 137.025 386.081 141.294 381.724 154.261Z" fill="#AD6359"/>
<path d="M272.591 163.887C270.957 166.696 273.223 169.183 273.223 169.183C273.223 169.183 270.895 170.326 270.058 172.675C269.099 175.364 272.896 178.046 272.896 178.046C272.896 178.046 270.779 179.691 270.144 182.261C269.486 184.927 272.93 188.179 272.93 188.179C272.93 188.179 271.8 190.796 272.845 193.41C274.631 197.879 281.865 199.184 286.454 200.06C291.045 200.936 304.885 199.122 307.557 199.043L315.014 171.127C315.014 171.127 304.221 160.392 288.424 159.584C283.755 159.346 274.425 160.734 272.591 163.887Z" fill="#AD6359"/>
<path d="M273.521 168.751C278.542 167.796 283.573 168.378 288.626 168.673C288.739 168.679 288.727 168.855 288.614 168.847C283.591 168.496 278.563 169.145 273.536 168.993C273.398 168.989 273.386 168.777 273.521 168.751Z" fill="#263238"/>
<path d="M273.068 177.681C274.21 177.499 275.409 177.694 276.55 177.818C277.777 177.952 279.002 178.106 280.225 178.28C282.674 178.628 285.113 179.032 287.539 179.506C287.647 179.527 287.641 179.698 287.527 179.681C285.087 179.338 282.642 179.032 280.19 178.793C278.964 178.674 277.734 178.564 276.505 178.463C275.362 178.369 274.148 178.364 273.047 178.017C272.883 177.966 272.895 177.707 273.068 177.681Z" fill="#263238"/>
<path d="M273.034 188.192C274.02 187.994 275.182 188.322 276.162 188.483C277.273 188.664 278.387 188.84 279.5 189.009C281.727 189.348 283.956 189.686 286.193 189.946C286.304 189.959 286.293 190.134 286.181 190.12C283.905 189.867 281.627 189.644 279.354 189.371C278.239 189.236 277.123 189.095 276.008 188.949C275.061 188.824 273.862 188.777 273.011 188.301C272.964 188.276 272.984 188.202 273.034 188.192Z" fill="#263238"/>
<path d="M355.425 160.304L373.495 175.929C373.495 175.929 382.214 158.653 383.228 148.027C384.242 137.402 379.139 138.419 373.038 143.342C366.936 148.266 355.425 160.304 355.425 160.304Z" fill="#EBEBEB"/>
<path d="M359.414 158.478C359.298 158.373 359.189 158.421 359.301 158.529C364.946 163.933 371.807 169.757 374.521 171.581C374.563 171.608 374.603 171.547 374.572 171.513C372.352 169.067 360.696 159.631 359.414 158.478Z" fill="#263238"/>
<path d="M381.758 155.976C379.425 163.272 377.387 169.517 373.878 176.335C373.821 176.448 372.505 175.426 372.114 175.003C371.987 174.865 372.104 174.769 372.265 174.847C372.673 175.041 373.211 175.446 373.655 175.584C376.466 169.321 378.997 162.715 381.624 155.713C381.644 155.662 381.775 155.924 381.758 155.976Z" fill="#263238"/>
<path d="M380.395 159.806C380.874 158.849 381.423 157.992 382.007 157.101C381.908 157.633 381.66 158.112 381.399 158.572C381.109 159.017 380.804 159.454 380.395 159.806Z" fill="#263238"/>
<path d="M397.509 139.341C399.92 139.606 406.25 144.064 407.382 148.616C408.513 153.169 404.931 159.992 403.762 160.504C402.594 161.016 397.201 156.732 395.409 153.547C394.212 151.418 395.08 148.894 395.557 146.39C396.265 142.696 397.134 139.3 397.509 139.341Z" fill="#263238"/>
<path d="M393.958 152.999C393.157 148.354 395.71 143.693 397.219 139.457C397.234 139.413 397.309 139.43 397.299 139.479C396.495 143.531 394.132 147.201 394.144 151.424C394.152 153.931 395.069 156.373 397.162 157.871C398.976 159.169 401.235 159.735 403.323 160.432C403.461 160.478 403.375 160.681 403.239 160.64C399.076 159.364 394.784 157.792 393.958 152.999Z" fill="#263238"/>
<path d="M398.038 139.762C397.916 139.705 397.993 139.512 398.116 139.568C401.565 141.122 405.724 143.408 407.617 146.836C409.669 150.549 407.754 154.513 406.055 157.931C406.034 157.974 405.964 157.947 405.985 157.903C407.66 154.434 409.419 150.135 407.097 146.523C405.102 143.415 401.29 141.283 398.038 139.762Z" fill="#263238"/>
<path d="M403.901 160.296C406.876 162.854 410.539 166.685 409.598 170.162C408.657 173.637 404.202 178.595 403.807 178.568C403.411 178.543 397.364 174.259 396.334 169.978C395.303 165.697 403.514 159.963 403.901 160.296Z" fill="#263238"/>
<path d="M403.495 178.827C406.289 176.712 409.589 173.786 409.987 170.064C410.37 166.481 406.819 162.872 404.349 160.721C404.318 160.694 404.353 160.645 404.387 160.669C407.104 162.66 410.538 166.212 410.3 169.867C410.064 173.492 406.597 177.257 403.561 178.937C403.496 178.973 403.438 178.87 403.495 178.827Z" fill="#263238"/>
<path d="M404.01 177.656C402.828 179.021 401.675 182.442 402.376 185.635C403.574 191.097 401.24 190.861 396.192 194.46C391.926 197.502 393.038 203.195 396.604 204.799C396.604 204.799 393.837 202.123 396.383 199.25C399.426 195.817 409.733 196.333 411.922 189.216C414.754 180.008 404.01 177.656 404.01 177.656Z" fill="#263238"/>
<path d="M402.947 180.828C402.981 180.733 402.82 180.672 402.78 180.765C402.401 181.678 402.167 182.617 402.132 183.608C402.086 184.884 402.534 186.065 402.575 187.329C402.68 190.546 399.251 191.805 396.863 192.963C393.66 194.517 391.815 197.591 393 201.143C393.018 201.195 393.097 201.169 393.081 201.117C392.387 198.895 392.904 196.404 394.586 194.74C396.187 193.155 398.532 192.715 400.339 191.433C401.576 190.555 402.705 189.429 402.805 187.841C402.861 186.973 402.607 186.1 402.48 185.249C402.249 183.698 402.422 182.305 402.947 180.828Z" fill="#263238"/>
<path d="M405.125 177.929C405.085 177.917 405.06 177.982 405.098 177.999C407.704 179.096 410.422 180.154 412.037 182.634C413.777 185.304 413.443 188.807 411.865 191.471C410.098 194.454 406.985 194.613 403.911 195.198C401.687 195.621 399.486 196.218 397.744 197.733C397.691 197.78 397.766 197.868 397.823 197.828C400.78 195.767 404.154 195.544 407.564 194.78C410.351 194.156 412.044 192.423 412.914 189.717C414.834 183.75 410.511 179.543 405.125 177.929Z" fill="#263238"/>
<path d="M202.532 420.218C213.307 420.238 222.623 426.468 227.096 435.498L204.605 435.457L200.238 447.686L204.56 459.932L227.066 459.973C222.545 469.002 213.208 475.183 202.433 475.163C187.27 475.136 174.982 462.818 175.01 447.641C175.036 432.478 187.369 420.19 202.532 420.218Z" fill="#455A64"/>
<path d="M44.5272 474.884C33.7522 474.864 24.4369 468.634 19.9639 459.604L42.4549 459.645L46.8217 447.416L42.4991 435.17L19.9937 435.129C24.5143 426.101 33.8517 419.919 44.6267 419.939C59.7895 419.967 72.0773 432.284 72.0496 447.461C72.0231 462.624 59.69 474.912 44.5272 474.884Z" fill="#455A64"/>
<path d="M59.8722 435.187L59.8281 459.662L193.455 459.902L193.499 435.427L59.8722 435.187Z" fill="#455A64"/>
<path d="M99.1549 442.452L99.1367 452.531L154.167 452.63L154.185 442.551L99.1549 442.452Z" fill="#37474F"/>
</svg>
