<svg width="83" height="83" viewBox="0 0 83 83" fill="none" xmlns="http://www.w3.org/2000/svg">
<rect width="83" height="83" rx="41.5" fill="white"/>
<path d="M63.25 56.4999H61V36.9999C60.9988 36.0057 60.6034 35.0525 59.9004 34.3495C59.1973 33.6465 58.2442 33.2511 57.25 33.2499H48.9891C48.9937 33.0024 49 32.7582 49 32.4999C48.9932 29.288 47.9997 26.1557 46.1542 23.527L46.1527 23.5245C44.9978 21.8445 43.5722 20.3678 41.934 19.1545C41.7988 19.0586 41.637 19.0077 41.4713 19.0091C41.3056 19.0104 41.1446 19.0639 41.0111 19.162C39.3882 20.3732 37.978 21.8454 36.8381 23.5191C34.994 26.1509 34.0033 29.2864 34 32.4999C34 32.7582 34.0063 33.0024 34.0109 33.2499H25.75C24.7558 33.2511 23.8027 33.6465 23.0996 34.3495C22.3966 35.0525 22.0012 36.0057 22 36.9999V56.4999H19.75C19.5511 56.4999 19.3603 56.5789 19.2197 56.7196C19.079 56.8602 19 57.051 19 57.2499C19.002 59.0395 19.7138 60.7552 20.9792 62.0207C22.2447 63.2861 23.9604 63.9979 25.75 63.9999H57.25C59.0396 63.9979 60.7553 63.2861 62.0208 62.0207C63.2862 60.7552 63.998 59.0395 64 57.2499C64 57.051 63.921 56.8602 63.7803 56.7196C63.6397 56.5789 63.4489 56.4999 63.25 56.4999ZM52 39.2359L48.1709 39.2411C48.4056 38.4649 48.5846 37.6728 48.7065 36.8711C49.5565 37.4382 50.4879 37.8726 51.4686 38.1594C51.6227 38.2025 51.7583 38.2953 51.8544 38.4233C51.9505 38.5513 52.0016 38.7074 52 38.8674V39.2359ZM34.8307 39.2584L31 39.2639V38.8974C31.0008 38.7333 31.0545 38.5739 31.1531 38.4428C31.2517 38.3118 31.3901 38.216 31.5475 38.1699C32.5231 37.8817 33.4491 37.4467 34.2938 36.8799C34.416 37.6846 34.5954 38.4792 34.8307 39.2584ZM31 40.7638L35.3765 40.7579C35.5949 41.269 35.8413 41.7676 36.1144 42.2516L31.75 42.2574C31.5521 42.2582 31.3621 42.1804 31.2215 42.0412C31.0809 41.902 31.0012 41.7127 31 41.5149V40.7638ZM42.0317 42.0298C41.9623 42.0997 41.8797 42.1551 41.7887 42.1929C41.6977 42.2307 41.6 42.2501 41.5015 42.2499C41.403 42.2499 41.3048 42.2305 41.2138 42.1928C41.1228 42.1551 41.0401 42.0999 40.9705 42.0302C40.9009 41.9606 40.8457 41.8779 40.808 41.7869C40.7704 41.6959 40.7511 41.5984 40.7511 41.4999L40.7436 36.9999C40.7436 36.8011 40.8225 36.6104 40.963 36.4698C41.1035 36.3292 41.2941 36.2501 41.4929 36.2499H41.4936C41.6925 36.2499 41.8833 36.3289 42.024 36.4696C42.1646 36.6102 42.2436 36.801 42.2436 36.9999L42.2511 41.4999C42.2513 41.5983 42.232 41.6958 42.1944 41.7867C42.1567 41.8777 42.1015 41.9603 42.0317 42.0298ZM41.4234 43.7499H41.5007H41.503L43.75 43.7477L43.7507 44.8119C43.7506 44.9274 43.7046 45.0382 43.6229 45.1199C43.5412 45.2016 43.4305 45.2476 43.3149 45.2477L39.6869 45.2521C39.5714 45.252 39.4599 45.2061 39.3783 45.1243C39.2966 45.0426 39.2507 44.9318 39.2507 44.8163L39.25 43.7539L41.4234 43.7499ZM40.3091 46.7514L42.688 46.7485L44.7197 48.7801C45.0334 49.028 45.2471 49.3806 45.3218 49.7733C45.3104 50.1198 44.8332 50.5387 44.3722 50.9445C43.8495 51.3459 43.4101 51.8455 43.0788 52.4152C42.7563 53.0634 42.0321 54.2565 41.5037 55.109C41.0088 54.3349 40.337 53.2465 39.9212 52.4144C39.5895 51.8461 39.1506 51.3476 38.6289 50.9467C38.1672 50.5402 37.6896 50.1212 37.6782 49.7748C37.7526 49.3815 37.9666 49.0283 38.2806 48.7801L40.3091 46.7514ZM47.6275 40.7419L52 40.7359V41.4849C51.9983 41.6841 51.9189 41.8748 51.7787 42.0163C51.6384 42.1578 51.4484 42.2389 51.2493 42.2424L46.893 42.2471C47.1664 41.7598 47.4117 41.2573 47.6275 40.7419ZM41.4792 20.6892C42.575 21.5627 43.5599 22.5671 44.4116 23.68C42.5389 24.4318 40.4478 24.4287 38.5772 23.6716C39.419 22.5626 40.3936 21.561 41.4792 20.6892ZM37.7288 24.9142C38.9085 25.4685 40.1966 25.754 41.5 25.7499C42.8003 25.7549 44.0855 25.472 45.2634 24.9214C46.7166 27.1825 47.4927 29.8121 47.5 32.4999C47.5959 34.9554 47.2307 37.4072 46.4234 39.7282C46.0872 40.6114 45.6581 41.4565 45.1433 42.2491L43.6154 42.2479C43.703 42.0074 43.7489 41.7538 43.7511 41.4979L43.7436 36.9979C43.7431 36.4014 43.5059 35.8296 43.084 35.408C42.6621 34.9865 42.0901 34.7497 41.4936 34.7497H41.4914C41.196 34.7499 40.9035 34.8084 40.6306 34.9218C40.3577 35.0351 40.1098 35.2011 39.9011 35.4102C39.6924 35.6193 39.5269 35.8675 39.4141 36.1406C39.3013 36.4137 39.2433 36.7064 39.2436 37.0018L39.2511 41.5018C39.2536 41.7571 39.2997 42.0101 39.3876 42.2499H37.8617C37.3492 41.4583 36.9181 40.6169 36.5752 39.7384C35.7691 37.4136 35.4045 34.9586 35.5 32.4999C35.5046 29.8105 36.2779 27.1786 37.7288 24.9142ZM23.5 36.9999C23.5007 36.4033 23.7379 35.8314 24.1597 35.4096C24.5815 34.9878 25.1535 34.7505 25.75 34.7499H34.0675C34.0764 34.8898 34.09 35.0218 34.1004 35.1583C33.2251 35.8759 32.2146 36.4102 31.1288 36.7296C30.6601 36.8674 30.2484 37.1529 29.955 37.5434C29.6615 37.934 29.5019 38.4089 29.5 38.8974V41.5149C29.5017 42.1106 29.7397 42.6813 30.1617 43.1018C30.5838 43.5222 31.1554 43.758 31.7511 43.7574L37.7495 43.7568L37.7504 44.8179C37.7463 45.1248 37.8178 45.428 37.9584 45.7009C38.0991 45.9737 38.3047 46.2077 38.5571 46.3824L37.2197 47.7196C36.9089 47.9781 36.6557 48.2988 36.4764 48.6611C36.297 49.0234 36.1956 49.4193 36.1786 49.8232C36.2108 50.8192 36.9696 51.485 37.6387 52.0732C38.0074 52.3548 38.3254 52.6972 38.5791 53.0857C39.2854 54.402 40.0584 55.6815 40.8951 56.9191C40.9637 57.021 41.0563 57.1044 41.1647 57.1621C41.2731 57.2198 41.3941 57.2499 41.5169 57.2499H41.5264C41.6508 57.2481 41.7728 57.2154 41.8815 57.1548C41.9901 57.0942 42.082 57.0076 42.1489 56.9027C42.2181 56.7943 43.85 54.2308 44.4209 53.0846C44.6744 52.6956 44.9926 52.3527 45.3617 52.0709C46.0304 51.4835 46.7885 50.8177 46.8207 49.8224C46.8037 49.4187 46.7024 49.023 46.5232 48.6608C46.344 48.2986 46.0909 47.978 45.7803 47.7196L44.4404 46.3798C44.6905 46.2015 44.8945 45.9661 45.0354 45.6932C45.1762 45.4202 45.25 45.1176 45.2504 44.8105L45.2495 43.749L51.25 43.7424C51.8475 43.7407 52.42 43.502 52.8418 43.0788C53.2636 42.6556 53.5003 42.0824 53.5 41.4849V38.8674C53.5021 38.3798 53.3439 37.9051 53.0499 37.5162C52.7558 37.1273 52.3422 36.8457 51.8725 36.7149C50.7878 36.3981 49.7772 35.868 48.9 35.1556C48.9107 35.02 48.924 34.8887 48.9329 34.7498H57.25C57.8465 34.7505 58.4185 34.9877 58.8403 35.4095C59.2621 35.8314 59.4993 36.4033 59.5 36.9998V56.4999H49.6C49.06 56.4982 48.528 56.631 48.0521 56.8862C47.5762 57.1414 47.1713 57.511 46.8739 57.9618C46.713 58.2052 46.494 58.4048 46.2367 58.5424C45.9794 58.6799 45.6918 58.7513 45.4 58.7499H37.6C37.3082 58.7512 37.0208 58.6799 36.7635 58.5423C36.5062 58.4047 36.2873 58.2052 36.1264 57.9618C35.829 57.511 35.424 57.1413 34.948 56.8861C34.4721 56.6309 33.9401 56.4982 33.4 56.4999H23.5V36.9999ZM57.25 62.4999H25.75C24.488 62.4983 23.2686 62.0428 22.3146 61.2166C21.3605 60.3905 20.7354 59.2487 20.5535 57.9999H33.4C33.6918 57.9986 33.9792 58.0699 34.2365 58.2075C34.4938 58.3451 34.7127 58.5446 34.8736 58.788C35.171 59.2388 35.576 59.6084 36.052 59.8637C36.5279 60.1189 37.0599 60.2516 37.6 60.2499H45.4C45.94 60.2516 46.472 60.1188 46.9479 59.8636C47.4238 59.6084 47.8287 59.2387 48.1261 58.788C48.287 58.5445 48.506 58.345 48.7633 58.2074C49.0206 58.0698 49.3082 57.9985 49.6 57.9999H62.4465C62.2646 59.2487 61.6395 60.3905 60.6854 61.2166C59.7314 62.0428 58.512 62.4983 57.25 62.4999ZM41.5 32.4999C42.0192 32.4999 42.5267 32.3459 42.9584 32.0575C43.3901 31.7691 43.7265 31.3591 43.9252 30.8794C44.1239 30.3998 44.1758 29.872 44.0746 29.3628C43.9733 28.8536 43.7233 28.3858 43.3562 28.0187C42.989 27.6516 42.5213 27.4016 42.0121 27.3003C41.5029 27.199 40.9751 27.251 40.4955 27.4497C40.0158 27.6484 39.6058 27.9848 39.3174 28.4165C39.029 28.8482 38.875 29.3557 38.875 29.8749C38.8758 30.5708 39.1527 31.238 39.6448 31.7301C40.1369 32.2222 40.8041 32.4991 41.5 32.4999ZM41.5 28.7499C41.7225 28.7499 41.94 28.8159 42.125 28.9395C42.31 29.0631 42.4542 29.2388 42.5394 29.4444C42.6245 29.6499 42.6468 29.8761 42.6034 30.0944C42.56 30.3126 42.4528 30.513 42.2955 30.6704C42.1382 30.8277 41.9377 30.9349 41.7195 30.9783C41.5012 31.0217 41.275 30.9994 41.0695 30.9142C40.8639 30.8291 40.6882 30.6849 40.5646 30.4999C40.441 30.3149 40.375 30.0974 40.375 29.8749C40.3753 29.5766 40.494 29.2907 40.7049 29.0798C40.9158 28.8689 41.2017 28.7502 41.5 28.7499Z" fill="black"/>
</svg>
