<svg width="60" height="60" viewBox="0 0 60 60" fill="none" xmlns="http://www.w3.org/2000/svg">
<path d="M30 22.5H18.75C17.7187 22.5 16.875 23.3437 16.875 24.375C16.875 25.4063 17.7187 26.25 18.75 26.25H30C31.0313 26.25 31.875 25.4063 31.875 24.375C31.875 23.3437 31.0313 22.5 30 22.5Z" fill="white"/>
<path d="M11.25 26.25H12.1875C13.2188 26.25 14.0625 25.4063 14.0625 24.375C14.0625 23.3437 13.2188 22.5 12.1875 22.5H11.25C10.2187 22.5 9.375 23.3437 9.375 24.375C9.375 25.4063 10.2187 26.25 11.25 26.25Z" fill="white"/>
<path d="M30 30.9375H11.25C10.2187 30.9375 9.375 31.7812 9.375 32.8125C9.375 33.8438 10.2187 34.6875 11.25 34.6875H30C31.0313 34.6875 31.875 33.8438 31.875 32.8125C31.875 31.7812 31.0313 30.9375 30 30.9375Z" fill="white"/>
<path d="M30 39.375H11.25C10.2187 39.375 9.375 40.2187 9.375 41.25C9.375 42.2813 10.2187 43.125 11.25 43.125H30C31.0313 43.125 31.875 42.2813 31.875 41.25C31.875 40.2187 31.0313 39.375 30 39.375Z" fill="white"/>
<path d="M52.5 20.625V7.5C52.5 4.40625 49.9687 1.875 46.875 1.875H7.5C4.40625 1.875 1.875 4.40625 1.875 7.5V45C1.875 48.0937 4.40625 50.625 7.5 50.625H35.625V52.5C35.625 55.5937 38.1563 58.125 41.25 58.125H52.5C55.5937 58.125 58.125 55.5937 58.125 52.5V26.25C58.125 23.1563 55.5937 20.625 52.5 20.625ZM7.5 5.625H46.875C47.9063 5.625 48.75 6.46875 48.75 7.5V13.125H5.625V7.5C5.625 6.46875 6.46875 5.625 7.5 5.625ZM7.5 46.875C6.46875 46.875 5.625 46.0313 5.625 45V16.875H48.75V20.625H41.25C38.1563 20.625 35.625 23.1563 35.625 26.25V46.875H7.5ZM54.375 52.5C54.375 53.5313 53.5313 54.375 52.5 54.375H41.25C40.2187 54.375 39.375 53.5313 39.375 52.5V26.25C39.375 25.2187 40.2187 24.375 41.25 24.375H52.5C53.5313 24.375 54.375 25.2187 54.375 26.25V52.5Z" fill="white"/>
<path d="M9.375 11.25H10.3125C11.3438 11.25 12.1875 10.4063 12.1875 9.375C12.1875 8.34375 11.3438 7.5 10.3125 7.5H9.375C8.34375 7.5 7.5 8.34375 7.5 9.375C7.5 10.4063 8.34375 11.25 9.375 11.25Z" fill="white"/>
<path d="M16.875 11.25H17.8125C18.8438 11.25 19.6875 10.4063 19.6875 9.375C19.6875 8.34375 18.8438 7.5 17.8125 7.5H16.875C15.8437 7.5 15 8.34375 15 9.375C15 10.4063 15.8437 11.25 16.875 11.25Z" fill="white"/>
<path d="M24.375 11.25H25.3125C26.3438 11.25 27.1875 10.4063 27.1875 9.375C27.1875 8.34375 26.3438 7.5 25.3125 7.5H24.375C23.3437 7.5 22.5 8.34375 22.5 9.375C22.5 10.4063 23.3437 11.25 24.375 11.25Z" fill="white"/>
<path d="M45.9375 30H47.8125C48.8438 30 49.6875 29.1563 49.6875 28.125C49.6875 27.0937 48.8438 26.25 47.8125 26.25H45.9375C44.9062 26.25 44.0625 27.0937 44.0625 28.125C44.0625 29.1563 44.9062 30 45.9375 30Z" fill="white"/>
<path d="M43.125 44.0625H44.0625C45.0938 44.0625 45.9375 43.2188 45.9375 42.1875C45.9375 41.1562 45.0938 40.3125 44.0625 40.3125H43.125C42.0937 40.3125 41.25 41.1562 41.25 42.1875C41.25 43.2188 42.0937 44.0625 43.125 44.0625Z" fill="white"/>
<path d="M50.625 40.3125H49.6875C48.6562 40.3125 47.8125 41.1562 47.8125 42.1875C47.8125 43.2188 48.6562 44.0625 49.6875 44.0625H50.625C51.6563 44.0625 52.5 43.2188 52.5 42.1875C52.5 41.1562 51.6563 40.3125 50.625 40.3125Z" fill="white"/>
<path d="M50.625 46.875H43.125C42.0937 46.875 41.25 47.7187 41.25 48.75C41.25 49.7813 42.0937 50.625 43.125 50.625H50.625C51.6563 50.625 52.5 49.7813 52.5 48.75C52.5 47.7187 51.6563 46.875 50.625 46.875Z" fill="white"/>
</svg>
