<svg width="50" height="50" viewBox="0 0 50 50" fill="none" xmlns="http://www.w3.org/2000/svg">
<g clip-path="url(#clip0_1584_5831)">
<path d="M14.1328 26.3984C14.0391 27.0252 14.0391 27.6623 14.1328 28.2891L15.1172 28.7969C15.268 29.4116 15.5131 29.9993 15.8437 30.5391L15.5078 31.6016C15.89 32.1009 16.3366 32.5475 16.8359 32.9297L17.8984 32.5937C18.4382 32.9244 19.0259 33.1695 19.6406 33.3203L20.1484 34.3047C20.7752 34.3984 21.4123 34.3984 22.0391 34.3047L22.5469 33.3203C23.1616 33.1695 23.7493 32.9244 24.2891 32.5937L25.3516 32.9297C25.8509 32.5475 26.2975 32.1009 26.6797 31.6016L26.3437 30.5391C26.6744 29.9993 26.9195 29.4116 27.0703 28.7969L28.0547 28.2891C28.1484 27.6623 28.1484 27.0252 28.0547 26.3984L27.0703 25.8906C26.9195 25.2759 26.6744 24.6882 26.3437 24.1484L26.6797 23.0859C26.2975 22.5866 25.8509 22.14 25.3516 21.7578L24.2891 22.0937C23.7493 21.7631 23.1616 21.518 22.5469 21.3672L22.0391 20.3828C21.4123 20.2891 20.7752 20.2891 20.1484 20.3828L19.6406 21.3672C19.0259 21.518 18.4382 21.7631 17.8984 22.0937L16.8359 21.7578C16.3366 22.14 15.89 22.5866 15.5078 23.0859L15.8437 24.1484C15.5131 24.6882 15.268 25.2759 15.1172 25.8906L14.1328 26.3984ZM21.0937 24.7031C21.616 24.7031 22.1265 24.858 22.5608 25.1481C22.995 25.4383 23.3335 25.8507 23.5334 26.3332C23.7332 26.8157 23.7855 27.3467 23.6836 27.8589C23.5817 28.3711 23.3302 28.8416 22.9609 29.2109C22.5916 29.5802 22.1211 29.8317 21.6089 29.9336C21.0967 30.0355 20.5657 29.9832 20.0832 29.7834C19.6007 29.5835 19.1883 29.245 18.8981 28.8108C18.608 28.3765 18.4531 27.866 18.4531 27.3437C18.4552 26.644 18.734 25.9736 19.2288 25.4788C19.7236 24.984 20.394 24.7052 21.0937 24.7031Z" fill="#FDEF9E"/>
<path d="M40.5547 42.3516C40.6484 41.7248 40.6484 41.0877 40.5547 40.4609L39.5703 39.9531C39.4195 39.3384 39.1744 38.7507 38.8437 38.2109L39.1797 37.1484C38.7975 36.6491 38.3509 36.2025 37.8516 35.8203L36.7891 36.1562C36.2493 35.8256 35.6616 35.5805 35.0469 35.4297L34.5391 34.4453C33.9123 34.3516 33.2752 34.3516 32.6484 34.4453L32.1406 35.4297C31.5259 35.5805 30.9382 35.8256 30.3984 36.1562L29.3359 35.8203C28.8366 36.2025 28.39 36.6491 28.0078 37.1484L28.3437 38.2109C28.0131 38.7507 27.768 39.3384 27.6172 39.9531L26.6328 40.4609C26.5391 41.0877 26.5391 41.7248 26.6328 42.3516L27.6172 42.8594C27.768 43.4741 28.0131 44.0618 28.3437 44.6016L28.0078 45.6641C28.39 46.1634 28.8366 46.61 29.3359 46.9922L30.3984 46.6562C30.9382 46.9869 31.5259 47.232 32.1406 47.3828L32.6484 48.3672C33.2752 48.4609 33.9123 48.4609 34.5391 48.3672L35.0469 47.3828C35.6616 47.232 36.2493 46.9869 36.7891 46.6562L37.8516 46.9922C38.3509 46.61 38.7975 46.1634 39.1797 45.6641L38.8437 44.6016C39.1744 44.0618 39.4195 43.4741 39.5703 42.8594L40.5547 42.3516ZM33.5937 44.0469C33.0715 44.0469 32.5609 43.892 32.1267 43.6018C31.6924 43.3117 31.354 42.8993 31.1541 42.4168C30.9543 41.9343 30.902 41.4033 31.0039 40.8911C31.1057 40.3788 31.3572 39.9083 31.7265 39.539C32.0958 39.1697 32.5663 38.9182 33.0786 38.8164C33.5908 38.7145 34.1218 38.7668 34.6043 38.9666C35.0868 39.1665 35.4992 39.5049 35.7893 39.9392C36.0795 40.3734 36.2344 40.884 36.2344 41.4062C36.2323 42.1059 35.9534 42.7764 35.4587 43.2712C34.9639 43.7659 34.2934 44.0448 33.5937 44.0469Z" fill="#FDEF9E"/>
<path d="M42.8281 20.8048C42.8409 20.8312 42.8609 20.8535 42.8858 20.8691C42.9106 20.8847 42.9394 20.8929 42.9688 20.8929C42.9981 20.8929 43.0269 20.8847 43.0517 20.8691C43.0766 20.8535 43.0966 20.8312 43.1094 20.8048L48.5781 9.45323C48.9918 8.51377 49.1647 7.48595 49.081 6.46284C48.9974 5.43973 48.6599 4.45365 48.099 3.59387C47.5382 2.7341 46.7718 2.02778 45.8691 1.53888C44.9665 1.04999 43.9562 0.793945 42.9297 0.793945C41.9032 0.793945 40.8929 1.04999 39.9902 1.53888C39.0876 2.02778 38.3212 2.7341 37.7604 3.59387C37.1995 4.45365 36.862 5.43973 36.7783 6.46284C36.6947 7.48595 36.8675 8.51377 37.2813 9.45323L42.8281 20.8048ZM42.9688 4.16416C43.6603 4.14734 44.3304 4.40498 44.8325 4.88077C45.3346 5.35655 45.628 6.01178 45.6484 6.70323C45.6484 7.41392 45.3661 8.09551 44.8636 8.59805C44.361 9.10059 43.6794 9.38292 42.9688 9.38292C42.2581 9.38292 41.5765 9.10059 41.0739 8.59805C40.5714 8.09551 40.2891 7.41392 40.2891 6.70323C40.3095 6.01178 40.6029 5.35655 41.105 4.88077C41.6071 4.40498 42.2772 4.14734 42.9688 4.16416Z" fill="#FDEF9E"/>
<path d="M1.5625 49.2188H12.5C12.7072 49.2188 12.9059 49.1364 13.0524 48.9899C13.1989 48.8434 13.2812 48.6447 13.2812 48.4375V42.0078C13.2812 39.5156 11.5312 37.5 9.375 37.5H4.6875C2.53125 37.5 0.78125 39.5156 0.78125 42.0078V48.4375C0.78125 48.6447 0.86356 48.8434 1.01007 48.9899C1.15659 49.1364 1.3553 49.2188 1.5625 49.2188Z" fill="#FDEF9E"/>
<path d="M7.03125 36.7188C8.97288 36.7188 10.5469 35.1448 10.5469 33.2031C10.5469 31.2615 8.97288 29.6875 7.03125 29.6875C5.08962 29.6875 3.51562 31.2615 3.51562 33.2031C3.51562 35.1448 5.08962 36.7188 7.03125 36.7188Z" fill="#FDEF9E"/>
<path d="M6.25 28.125H11.7188C11.926 28.125 12.1247 28.0427 12.2712 27.8962C12.4177 27.7497 12.5 27.551 12.5 27.3438C12.5 27.1365 12.4177 26.9378 12.2712 26.7913C12.1247 26.6448 11.926 26.5625 11.7188 26.5625H6.25C5.6284 26.5625 5.03226 26.3156 4.59272 25.876C4.15318 25.4365 3.90625 24.8404 3.90625 24.2188V17.1875C3.90625 16.5659 4.15318 15.9698 4.59272 15.5302C5.03226 15.0907 5.6284 14.8438 6.25 14.8438H32.8125C33.0197 14.8438 33.2184 14.7614 33.3649 14.6149C33.5114 14.4684 33.5938 14.2697 33.5938 14.0625C33.5938 13.8553 33.5114 13.6566 33.3649 13.5101C33.2184 13.3636 33.0197 13.2812 32.8125 13.2812H6.25C5.214 13.2812 4.22043 13.6928 3.48786 14.4254C2.7553 15.1579 2.34375 16.1515 2.34375 17.1875V24.2188C2.34375 25.2548 2.7553 26.2483 3.48786 26.9809C4.22043 27.7134 5.214 28.125 6.25 28.125Z" fill="#FDEF9E"/>
<path d="M43.75 40.625H42.9688C42.7615 40.625 42.5628 40.7073 42.4163 40.8538C42.2698 41.0003 42.1875 41.199 42.1875 41.4062C42.1875 41.6135 42.2698 41.8122 42.4163 41.9587C42.5628 42.1052 42.7615 42.1875 42.9688 42.1875H43.75C44.786 42.1875 45.7796 41.7759 46.5121 41.0434C47.2447 40.3108 47.6562 39.3173 47.6562 38.2812V30.4688C47.6562 29.4327 47.2447 28.4392 46.5121 27.7066C45.7796 26.9741 44.786 26.5625 43.75 26.5625H30.4688C30.2615 26.5625 30.0628 26.6448 29.9163 26.7913C29.7698 26.9378 29.6875 27.1365 29.6875 27.3438C29.6875 27.551 29.7698 27.7497 29.9163 27.8962C30.0628 28.0427 30.2615 28.125 30.4688 28.125H43.75C44.3716 28.125 44.9677 28.3719 45.4073 28.8115C45.8468 29.251 46.0938 29.8471 46.0938 30.4688V38.2812C46.0938 38.9029 45.8468 39.499 45.4073 39.9385C44.9677 40.3781 44.3716 40.625 43.75 40.625Z" fill="#FDEF9E"/>
<path d="M19.5312 40.625C19.324 40.625 19.1253 40.7073 18.9788 40.8538C18.8323 41.0003 18.75 41.199 18.75 41.4062C18.75 41.6135 18.8323 41.8122 18.9788 41.9587C19.1253 42.1052 19.324 42.1875 19.5312 42.1875H24.2188C24.426 42.1875 24.6247 42.1052 24.7712 41.9587C24.9177 41.8122 25 41.6135 25 41.4062C25 41.199 24.9177 41.0003 24.7712 40.8538C24.6247 40.7073 24.426 40.625 24.2188 40.625H19.5312Z" fill="#FDEF9E"/>
<path d="M35.9375 14.8438H36.7188C36.926 14.8438 37.1247 14.7614 37.2712 14.6149C37.4177 14.4684 37.5 14.2697 37.5 14.0625C37.5 13.8553 37.4177 13.6566 37.2712 13.5101C37.1247 13.3636 36.926 13.2812 36.7188 13.2812H35.9375C35.7303 13.2812 35.5316 13.3636 35.3851 13.5101C35.2386 13.6566 35.1562 13.8553 35.1562 14.0625C35.1562 14.2697 35.2386 14.4684 35.3851 14.6149C35.5316 14.7614 35.7303 14.8438 35.9375 14.8438Z" fill="#FDEF9E"/>
<path d="M15.625 40.625C15.4178 40.625 15.2191 40.7073 15.0726 40.8538C14.9261 41.0003 14.8438 41.199 14.8438 41.4062C14.8438 41.6135 14.9261 41.8122 15.0726 41.9587C15.2191 42.1052 15.4178 42.1875 15.625 42.1875H16.4062C16.6135 42.1875 16.8122 42.1052 16.9587 41.9587C17.1052 41.8122 17.1875 41.6135 17.1875 41.4062C17.1875 41.199 17.1052 41.0003 16.9587 40.8538C16.8122 40.7073 16.6135 40.625 16.4062 40.625H15.625Z" fill="#FDEF9E"/>
</g>
<defs>
<clipPath id="clip0_1584_5831">
<rect width="50" height="50" fill="white"/>
</clipPath>
</defs>
</svg>
