<svg width="108" height="108" viewBox="0 0 108 108" fill="none" xmlns="http://www.w3.org/2000/svg">
<path d="M23.7858 63.7336L47.3213 63.9568C47.603 63.9622 47.8787 64.0389 48.1227 64.1798C48.3666 64.3206 48.5709 64.521 48.7164 64.7623L60.6774 85.033C60.8613 85.3397 61.14 85.5781 61.4715 85.7122C61.8029 85.8463 62.1691 85.8688 62.5144 85.7763C62.8598 85.6838 63.1656 85.4812 63.3856 85.1993C63.6056 84.9175 63.7278 84.5716 63.7337 84.2141L63.9569 60.6786C63.9623 60.3969 64.039 60.1212 64.1798 59.8773C64.3207 59.6333 64.5211 59.429 64.7623 59.2835L85.0331 47.3225C85.3397 47.1386 85.5782 46.8599 85.7123 46.5284C85.8464 46.197 85.8689 45.8309 85.7763 45.4855C85.6838 45.1401 85.4813 44.8343 85.1994 44.6143C84.9175 44.3943 84.5717 44.2721 84.2142 44.2662L60.6787 44.043C60.397 44.0377 60.1213 43.9609 59.8773 43.8201C59.6334 43.6792 59.4291 43.4788 59.2836 43.2376L47.3225 22.9669C47.1387 22.6602 46.86 22.4218 46.5285 22.2876C46.197 22.1535 45.8309 22.131 45.4855 22.2236C45.1402 22.3161 44.8343 22.5187 44.6144 22.8005C44.3944 23.0824 44.2722 23.4283 44.2663 23.7858L44.0431 47.3213C44.0377 47.6029 43.961 47.8786 43.8201 48.1226C43.6793 48.3666 43.4789 48.5708 43.2377 48.7163L22.9669 60.6774C22.6602 60.8612 22.4218 61.14 22.2877 61.4714C22.1536 61.8029 22.1311 62.169 22.2236 62.5144C22.3162 62.8598 22.5187 63.1656 22.8006 63.3856C23.0825 63.6056 23.4283 63.7278 23.7858 63.7336Z" fill="url(#paint0_linear_713_1764)" stroke="#FCD34D" stroke-width="0.125" stroke-linecap="round" stroke-linejoin="round"/>
<defs>
<linearGradient id="paint0_linear_713_1764" x1="33.6879" y1="33.6957" x2="74.3121" y2="74.3042" gradientUnits="userSpaceOnUse">
<stop stop-color="#FCD966"/>
<stop offset="0.5" stop-color="#FCD966"/>
<stop offset="1" stop-color="#FCCD34"/>
</linearGradient>
</defs>
</svg>
