<svg width="238" height="239" viewBox="0 0 238 239" fill="none" xmlns="http://www.w3.org/2000/svg">
<path d="M228.021 160.509C205.185 214.278 144.356 244.4 91.605 236.275C83.0214 234.952 59.489 231.014 38.6544 212.434C-1.45363 176.666 -10.0311 105.84 22.323 55.9273C45.8709 19.5998 88.0832 -0.993204 128.193 0.0368838C136.833 0.258781 169.944 1.6262 199.042 25.6203C203.316 29.1445 212.743 37.5192 221.239 50.805C241.188 82.0025 242.903 125.467 228.021 160.509Z" fill="url(#paint0_linear_2031_2724)"/>
<path d="M8.52935 35.304C8.86409 33.797 11.0014 33.7402 11.4091 35.2293C15.3504 49.6247 26.8677 87.0481 44.8268 106.982C74.0684 139.438 93.3338 191.963 74.3024 218.986C74.3024 218.986 -27.9442 199.508 8.52935 35.304Z" fill="#BDD0FB"/>
<path opacity="0.43" d="M11.236 55.826C11.2695 56.2959 11.3344 56.681 11.3862 57.0983L11.5652 58.325L11.9502 60.7718C12.218 62.4007 12.5105 64.0249 12.8034 65.6492C13.4006 68.8955 14.038 72.1339 14.7051 75.3667C16.0513 81.8295 17.5724 88.255 19.1898 94.6564C20.7983 101.061 22.5859 107.42 24.5075 113.738C26.4345 120.055 28.4517 126.347 30.6748 132.569C35.0958 145.02 40.1983 157.242 46.1437 169.054C49.178 174.928 52.3674 180.725 55.8863 186.326C59.4442 191.898 63.2409 197.323 67.416 202.446C67.5068 202.557 67.6706 202.574 67.7821 202.483C67.8907 202.394 67.9093 202.236 67.8261 202.125L67.8238 202.122C63.8652 196.86 60.1966 191.395 56.8038 185.761C53.3949 180.136 50.3162 174.318 47.3935 168.429C44.4732 162.536 41.7908 156.527 39.2457 150.461C36.7025 144.393 34.4118 138.223 32.1564 132.041C27.697 119.655 23.9011 107.036 20.455 94.3258C18.7453 87.966 17.1637 81.5711 15.6959 75.1497C14.9569 71.94 14.2473 68.7235 13.5777 65.4984L12.6114 60.6538L12.1532 58.2276L11.9378 57.0133C11.8737 56.6144 11.798 56.1866 11.7562 55.8354L11.7493 55.7774C11.7325 55.6359 11.6043 55.5348 11.4628 55.5516C11.3256 55.5678 11.2265 55.6896 11.236 55.826Z" fill="white"/>
<path d="M58.5299 2.98034C59.248 1.68965 61.2235 2.22068 61.1912 3.69741C60.8785 17.9739 61.2312 55.435 72.2627 78.6143C90.2246 116.355 93.5628 169.78 68.7382 189.369C68.7382 189.369 -19.7134 143.614 58.5299 2.98034Z" fill="#91B3FA"/>
<path opacity="0.43" d="M55.4084 22.5371C55.3105 22.9781 55.265 23.3485 55.1985 23.7453L55.0278 24.9192L54.7127 27.2681C54.5134 28.835 54.3384 30.4043 54.1635 31.9736C53.8249 35.1135 53.5252 38.2572 53.2545 41.4038C52.7248 47.698 52.3662 54.0055 52.1023 60.3172C51.8292 66.629 51.7335 72.9486 51.7717 79.2675C51.8155 85.586 51.9486 91.9066 52.2897 98.2193C52.9472 110.844 54.2932 123.444 56.5239 135.899C57.7051 142.114 59.0493 148.301 60.7497 154.396C62.4937 160.477 64.4969 166.487 66.9302 172.324C66.9842 172.453 67.1325 172.514 67.2618 172.46C67.3878 172.408 67.449 172.265 67.4021 172.138L67.4008 172.135C65.2083 166.229 63.3362 160.216 61.7631 154.124C60.1725 148.036 58.9374 141.861 57.8647 135.663C56.7949 129.462 55.9746 123.22 55.2957 116.963C54.6192 110.705 54.2024 104.422 53.8199 98.1379C53.1086 85.5635 53.0705 72.9561 53.3757 60.36C53.5419 54.0615 53.8355 47.7656 54.2401 41.4766C54.4373 38.3316 54.6634 35.1882 54.9286 32.048L55.363 27.3417L55.6042 24.9918L55.7375 23.8195C55.7874 23.4364 55.8347 23.0231 55.8919 22.6906L55.9017 22.6344C55.9252 22.4976 55.8334 22.3676 55.6967 22.3441C55.5637 22.3208 55.4374 22.4071 55.4084 22.5371Z" fill="white"/>
<path d="M144.415 228.892C144.415 228.892 157.753 111.928 207.904 43.3242C211.275 38.7126 218.652 39.5199 220.898 44.7634C235.918 79.8247 269.968 187.462 144.415 228.892Z" fill="#91B3FA"/>
<path opacity="0.5" d="M155.275 220.232C155.021 220.536 155.46 220.923 155.755 220.654C166.621 210.767 207.471 163.584 213.716 77.9573C213.736 77.6823 213.311 77.6259 213.267 77.8981C209.969 97.9533 195.478 172.165 155.275 220.232Z" fill="white"/>
<path d="M150.139 26.0383L142.07 34.223C141.443 34.8597 141.169 35.7642 141.337 36.642L143.506 47.9292C143.93 50.1396 141.636 51.8774 139.623 50.8698L129.345 45.7253C128.546 45.3252 127.601 45.3439 126.818 45.7756L116.754 51.3257C114.783 52.4127 112.421 50.7676 112.757 48.542L114.474 37.1775C114.607 36.2938 114.297 35.4009 113.645 34.7898L105.256 26.9328C103.614 25.3941 104.448 22.6396 106.669 22.2716L118.008 20.3925C118.889 20.2464 119.643 19.6757 120.022 18.8665L124.903 8.46059C125.858 6.42265 128.736 6.36532 129.772 8.36351L135.063 18.5667C135.475 19.3602 136.25 19.9003 137.137 20.0112L148.542 21.4371C150.775 21.7161 151.719 24.4352 150.139 26.0383Z" fill="url(#paint1_linear_2031_2724)"/>
<path opacity="0.66" d="M127.237 42.8872C126.644 42.9878 126.077 43.186 125.55 43.4765L118.977 47.1007C118.286 47.4817 117.455 47.4382 116.808 46.9869C116.161 46.5363 115.832 45.7717 115.95 44.992L117.071 37.5699C117.333 35.8314 116.724 34.0754 115.441 32.873L109.962 27.7416C109.386 27.2026 109.171 26.3987 109.399 25.6437C109.629 24.8887 110.254 24.3397 111.032 24.2106L114.816 23.5835L114.911 24.159L111.128 24.7862C110.561 24.8799 110.126 25.2671 109.958 25.8131C109.792 26.362 109.942 26.9236 110.361 27.3158L115.84 32.4471C117.263 33.781 117.939 35.7287 117.648 37.6572L116.527 45.0792C116.441 45.6464 116.671 46.1804 117.142 46.5084C117.612 46.8364 118.193 46.8666 118.696 46.5896L125.268 42.9654C125.852 42.6435 126.482 42.4235 127.139 42.3119L127.237 42.8872Z" fill="white"/>
<path opacity="0.66" d="M140.074 45.6427C139.939 45.9901 139.708 46.3006 139.396 46.5369C138.767 47.0132 137.939 47.0895 137.233 46.7366L132.098 44.1663L132.359 43.6443L137.494 46.2145C138.007 46.4715 138.586 46.4181 139.044 46.0717C139.501 45.7252 139.71 45.1823 139.601 44.6187L138.185 37.248C137.821 35.3555 138.429 33.3434 139.784 31.9698L145.054 26.6245C145.456 26.2155 145.584 25.6479 145.397 25.1065C145.209 24.5645 144.756 24.1985 144.187 24.1275L136.738 23.196C134.803 22.9537 133.111 21.7755 132.214 20.0443L128.758 13.3807C128.493 12.8711 127.994 12.5739 127.42 12.5853C126.846 12.5968 126.359 12.9138 126.116 13.433L122.928 20.2298C122.599 20.9325 122.142 21.555 121.569 22.0798L121.175 21.6497C121.691 21.1766 122.103 20.6153 122.4 19.9817L125.587 13.1853C125.922 12.4712 126.62 12.0175 127.408 12.0019C128.197 11.9861 128.913 12.4115 129.276 13.1118L132.732 19.7755C133.541 21.3364 135.066 22.3988 136.811 22.6168L144.259 23.5482C145.042 23.6459 145.689 24.1696 145.948 24.9149C146.206 25.6603 146.023 26.4723 145.47 27.0342L140.2 32.3793C138.978 33.6181 138.429 35.4311 138.759 37.1379L140.174 44.5087C140.249 44.8989 140.211 45.2899 140.074 45.6427Z" fill="white"/>
<path opacity="0.66" d="M117.065 23.2102L114.823 23.5815L114.919 24.1573L117.161 23.7859L117.065 23.2102Z" fill="white"/>
<path d="M101.207 34.0893L97.0459 43.2871C96.7223 44.0025 96.7714 44.8313 97.1773 45.5034L102.396 54.1457C103.417 55.8382 102.055 57.9677 100.09 57.7493L90.0565 56.6343C89.276 56.5477 88.5029 56.8504 87.9893 57.4441L81.3824 65.0775C80.0887 66.5724 77.6422 65.9348 77.2427 63.9986L75.2027 54.1113C75.0439 53.3425 74.5171 52.7009 73.7937 52.3956L64.4923 48.4709C62.6708 47.7024 62.5213 45.1787 64.2392 44.2004L73.012 39.2048C73.6943 38.8164 74.1416 38.117 74.2085 37.3347L75.0667 27.2758C75.2349 25.3058 77.5888 24.3838 79.0501 25.7155L86.5122 32.5152C87.0926 33.0439 87.8959 33.2534 88.6604 33.0751L98.4924 30.783C100.418 30.334 102.022 32.2878 101.207 34.0893Z" fill="url(#paint2_linear_2031_2724)"/>
<path opacity="0.66" d="M87.4556 54.9366C86.9975 55.1997 86.5904 55.5356 86.245 55.9349L81.9302 60.9197C81.4767 61.4438 80.7786 61.6606 80.1076 61.4855C79.4373 61.3109 78.9342 60.7807 78.7939 60.1024L77.4614 53.6451C77.1493 52.1325 76.1133 50.8708 74.6902 50.27L68.6153 47.7069C67.9771 47.4378 67.5552 46.8407 67.5139 46.1491C67.4737 45.4571 67.8221 44.8146 68.4238 44.4717L71.3512 42.8047L71.6049 43.25L68.6775 44.917C68.2392 45.1664 67.9983 45.6179 68.0257 46.1188C68.0557 46.6217 68.3504 47.0387 68.8148 47.2347L74.8896 49.7978C76.4685 50.4642 77.6176 51.8637 77.9638 53.5416L79.2965 59.9986C79.3982 60.492 79.7498 60.8624 80.2374 60.9895C80.7248 61.1168 81.2125 60.9651 81.5424 60.584L85.8574 55.5992C86.2405 55.1564 86.6924 54.7838 87.2 54.492L87.4556 54.9366Z" fill="white"/>
<path opacity="0.66" d="M98.873 53.3046C98.8674 53.6319 98.7718 53.9578 98.5866 54.2474C98.213 54.8312 97.5534 55.146 96.8647 55.0696L91.8515 54.5127L91.9082 54.0029L96.9214 54.5599C97.4221 54.6158 97.883 54.3957 98.1546 53.9712C98.4263 53.5465 98.433 53.0358 98.1719 52.6045L94.7647 46.9608C93.8891 45.512 93.779 43.6688 94.4779 42.125L97.1954 36.1181C97.4026 35.6587 97.3351 35.1522 97.0165 34.7629C96.6966 34.3735 96.2128 34.2093 95.7222 34.3238L89.3005 35.8206C87.6316 36.2095 85.8796 35.7527 84.6142 34.5987L79.7399 30.1582C79.3672 29.8186 78.8651 29.7256 78.3959 29.9094C77.9265 30.0933 77.6212 30.5028 77.5785 31.0046L77.0182 37.5747C76.9601 38.2539 76.7726 38.9059 76.4603 39.5125L76.0049 39.2779C76.2861 38.7311 76.4553 38.1432 76.5072 37.531L77.0676 30.9612C77.1265 30.2709 77.5636 29.6849 78.2088 29.4323C78.8539 29.1795 79.5732 29.3124 80.0849 29.7793L84.959 34.22C86.1003 35.2603 87.68 35.6721 89.184 35.3214L95.6056 33.8244C96.2802 33.667 96.9727 33.9018 97.4126 34.4375C97.852 34.9732 97.9478 35.6981 97.6626 36.3293L94.9449 42.3362C94.3147 43.7285 94.4137 45.3894 95.2039 46.6957L98.611 52.3396C98.7913 52.6383 98.8786 52.9721 98.873 53.3046Z" fill="white"/>
<path opacity="0.66" d="M73.0785 41.8167L71.3438 42.8042L71.5973 43.2496L73.332 42.2621L73.0785 41.8167Z" fill="white"/>
<path d="M64.5102 56.8417L62.8201 66.3555C62.6887 67.0955 62.9297 67.8527 63.4647 68.3805L70.3441 75.1662C71.6913 76.4952 70.9299 78.7919 69.0556 79.053L59.4852 80.3857C58.7407 80.4894 58.0951 80.9525 57.7586 81.6244L53.4307 90.264C52.5832 91.9559 50.1634 91.9416 49.3359 90.2398L45.1111 81.5494C44.7825 80.8737 44.1424 80.4028 43.3993 80.2903L33.8452 78.844C31.9742 78.5607 31.2401 76.255 32.6029 74.9423L39.5623 68.2386C40.1036 67.7173 40.3536 66.963 40.231 66.2215L38.654 56.6882C38.3453 54.821 40.3112 53.4105 41.981 54.301L50.5071 58.8482C51.1702 59.2017 51.9648 59.2065 52.632 58.8607L61.2116 54.4151C62.8919 53.5446 64.8411 54.9785 64.5102 56.8417Z" fill="url(#paint3_linear_2031_2724)"/>
<path opacity="0.66" d="M56.6726 79.4244C56.3097 79.7765 56.0113 80.1841 55.7851 80.636L52.9585 86.278C52.6615 86.8711 52.0651 87.2369 51.4013 87.2329C50.7384 87.229 50.1466 86.8559 49.8564 86.2597L47.097 80.5842C46.4506 79.2547 45.1919 78.3287 43.7301 78.1071L37.4902 77.1627C36.8346 77.0635 36.3024 76.6093 36.1009 75.9774C35.9004 75.345 36.0721 74.6668 36.5493 74.2067L38.8716 71.9697L39.212 72.3229L36.8897 74.56C36.542 74.8948 36.425 75.3703 36.5686 75.8286C36.7151 76.288 37.0868 76.6053 37.5639 76.6776L43.8036 77.6221C45.4254 77.8677 46.8216 78.8948 47.5385 80.3697L50.2981 86.0449C50.5089 86.4786 50.9224 86.7392 51.4047 86.7422C51.8868 86.7452 52.3035 86.4895 52.5196 86.0581L55.3462 80.4161C55.5973 79.915 55.9285 79.4627 56.3305 79.0723L56.6726 79.4244Z" fill="white"/>
<path opacity="0.66" d="M66.8784 75.2174C66.9504 75.5223 66.9386 75.8473 66.8351 76.1596C66.6263 76.7892 66.0888 77.2369 65.4319 77.3286L60.65 77.9946L60.5825 77.5084L65.3643 76.8423C65.8419 76.7761 66.2176 76.4631 66.3694 76.0054C66.5213 75.5473 66.4069 75.0719 66.063 74.7335L61.571 70.3021C60.417 69.1646 59.88 67.4809 60.1642 65.8839L61.2679 59.6706C61.3517 59.1957 61.1696 58.7417 60.7821 58.4557C60.3936 58.1699 59.906 58.1317 59.4779 58.3538L53.8742 61.2571C52.4178 62.0116 50.6849 62.0012 49.2387 61.2293L43.6697 58.2601C43.2438 58.033 42.7561 58.0652 42.3642 58.3463C41.9722 58.6277 41.7855 59.0795 41.8643 59.5551L42.8946 65.7818C43.001 66.4256 42.9809 67.0747 42.8342 67.7109L42.3563 67.6008C42.4882 67.0272 42.5065 66.442 42.4102 65.8618L41.3802 59.6353C41.2719 58.9811 41.5391 58.3344 42.078 57.9478C42.6169 57.5612 43.3154 57.5147 43.9003 57.8271L49.4692 60.7965C50.7734 61.4922 52.3359 61.5016 53.6483 60.8215L59.252 57.9179C59.8406 57.6127 60.5384 57.6672 61.0728 58.0602C61.6068 58.4535 61.8666 59.1034 61.751 59.7562L60.6471 65.9695C60.391 67.4097 60.8746 68.9271 61.9158 69.9524L66.4079 74.384C66.6455 74.6187 66.8052 74.9078 66.8784 75.2174Z" fill="white"/>
<path opacity="0.66" d="M40.2522 70.6424L38.876 71.9678L39.2163 72.3212L40.5925 70.9958L40.2522 70.6424Z" fill="white"/>
<path d="M188.214 49.5918L178.901 52.1704C178.177 52.371 177.598 52.9151 177.352 53.6254L174.198 62.7589C173.58 64.5475 171.179 64.8512 170.135 63.2728L164.805 55.2131C164.39 54.5862 163.694 54.2035 162.943 54.1898L153.281 54.0115C151.389 53.9767 150.358 51.7873 151.537 50.3067L157.555 42.7468C158.023 42.1589 158.172 41.3784 157.953 40.6594L155.137 31.4159C154.586 29.6058 156.349 27.9489 158.121 28.6123L167.171 31.9996C167.875 32.2632 168.663 32.1633 169.279 31.733L177.2 26.1984C178.751 25.1145 180.872 26.2799 180.789 28.1704L180.364 37.824C180.331 38.5747 180.669 39.2936 181.269 39.7465L188.98 45.5695C190.49 46.7097 190.037 49.0867 188.214 49.5918Z" fill="url(#paint4_linear_2031_2724)"/>
<path opacity="0.66" d="M164.46 52.2606C163.986 52.0851 163.49 51.9917 162.984 51.9825L156.675 51.8659C156.012 51.8536 155.425 51.4734 155.142 50.8728C154.86 50.273 154.941 49.5781 155.354 49.0593L159.284 44.1219C160.205 42.9653 160.497 41.4303 160.067 40.0159L158.227 33.979C158.034 33.3448 158.214 32.6687 158.697 32.2144C159.182 31.7607 159.867 31.623 160.488 31.8552L163.508 32.9855L163.336 33.4449L160.316 32.3146C159.864 32.1453 159.385 32.2449 159.033 32.5721C158.682 32.9025 158.556 33.3747 158.697 33.8362L160.536 39.8731C161.014 41.4422 160.689 43.1448 159.668 44.4279L155.738 49.3654C155.437 49.7426 155.381 50.2281 155.586 50.6645C155.791 51.1008 156.202 51.3664 156.684 51.3754L162.993 51.4921C163.554 51.5024 164.105 51.6062 164.63 51.8005L164.46 52.2606Z" fill="white"/>
<path opacity="0.66" d="M172.657 59.6539C172.413 59.8504 172.114 59.9798 171.788 60.0211C171.13 60.1044 170.494 59.8123 170.128 59.2592L167.465 55.2323L167.874 54.9616L170.538 58.9885C170.804 59.3909 171.248 59.5948 171.726 59.5343C172.205 59.4738 172.585 59.1656 172.742 58.7093L174.802 52.7453C175.331 51.2136 176.618 50.0029 178.182 49.5704L184.263 47.8864C184.728 47.7571 185.059 47.3971 185.15 46.9241C185.24 46.4503 185.064 45.9939 184.679 45.7035L179.643 41.9001C178.334 40.9115 177.596 39.3436 177.669 37.706L177.945 31.4009C177.967 30.9187 177.727 30.4926 177.305 30.2604C176.882 30.0281 176.394 30.0545 175.998 30.3307L170.825 33.9459C170.29 34.3195 169.696 34.5813 169.058 34.7235L168.952 34.2449C169.526 34.1164 170.062 33.8806 170.544 33.5434L175.717 29.9286C176.261 29.5487 176.959 29.5109 177.541 29.8303C178.122 30.1497 178.465 30.7599 178.436 31.4223L178.158 37.7274C178.093 39.204 178.759 40.6178 179.938 41.5085L184.975 45.3118C185.504 45.7113 185.756 46.3642 185.632 47.0159C185.507 47.6673 185.033 48.182 184.394 48.3593L178.313 50.0433C176.903 50.4334 175.742 51.5241 175.266 52.9058L173.206 58.8699C173.096 59.1855 172.905 59.4543 172.657 59.6539Z" fill="white"/>
<path opacity="0.66" d="M163.514 32.9883L163.342 33.4478L165.131 34.1178L165.303 33.6584L163.514 32.9883Z" fill="white"/>
<path d="M217.677 80.3145L208.02 79.9719C207.269 79.9452 206.553 80.2899 206.105 80.8934L200.349 88.6544C199.221 90.1742 196.84 89.7415 196.32 87.9221L193.662 78.6322C193.455 77.9095 192.906 77.335 192.193 77.0959L183.033 74.019C181.239 73.4166 180.915 71.0185 182.485 69.9611L190.499 64.5623C191.122 64.1423 191.498 63.4427 191.506 62.6912L191.602 53.0288C191.62 51.1366 193.801 50.0871 195.291 51.253L202.902 57.2062C203.494 57.6693 204.276 57.8113 204.993 57.5862L214.212 54.6912C216.018 54.1243 217.689 55.8737 217.041 57.6516L213.731 66.7299C213.474 67.436 213.58 68.2234 214.016 68.8357L219.618 76.7091C220.715 78.2509 219.568 80.3815 217.677 80.3145Z" fill="url(#paint5_linear_2031_2724)"/>
<path opacity="0.66" d="M194.219 75.7124C193.82 75.4023 193.375 75.1638 192.896 75.0031L186.914 72.9935C186.285 72.7823 185.839 72.2429 185.75 71.5851C185.661 70.9281 185.948 70.2899 186.498 69.9193L191.731 66.3932C192.957 65.5673 193.698 64.1914 193.713 62.713L193.776 56.4023C193.782 55.7394 194.157 55.1489 194.755 54.861C195.353 54.574 196.049 54.649 196.571 55.0572L199.111 57.0437L198.808 57.4301L196.269 55.4435C195.888 55.146 195.401 55.0967 194.967 55.303C194.533 55.5123 194.271 55.9248 194.266 56.4073L194.204 62.7178C194.187 64.358 193.366 65.8841 192.006 66.8003L186.772 70.3266C186.372 70.596 186.172 71.0418 186.236 71.5199C186.301 71.9977 186.612 72.3744 187.07 72.5281L193.052 74.5378C193.583 74.7162 194.077 74.981 194.52 75.3244L194.219 75.7124Z" fill="white"/>
<path opacity="0.66" d="M199.812 85.2291C199.521 85.3431 199.197 85.3769 198.873 85.318C198.221 85.1994 197.702 84.7297 197.52 84.0921L196.191 79.4504L196.663 79.3154L197.992 83.9571C198.124 84.4207 198.487 84.749 198.961 84.8352C199.436 84.9215 199.891 84.7418 200.178 84.3539L203.937 79.2862C204.902 77.9845 206.494 77.2172 208.115 77.2752L214.422 77.499C214.904 77.5155 215.328 77.2717 215.557 76.848C215.785 76.4233 215.755 75.9352 215.475 75.5423L211.817 70.3998C210.866 69.0633 210.634 67.3459 211.196 65.8061L213.357 59.8764C213.522 59.423 213.422 58.9446 213.089 58.5959C212.755 58.247 212.282 58.1255 211.822 58.27L205.8 60.1612C205.178 60.3565 204.532 60.4275 203.882 60.3713L203.924 59.8827C204.51 59.9331 205.092 59.8693 205.654 59.6928L211.675 57.8019C212.307 57.6032 212.985 57.7774 213.443 58.2569C213.902 58.7363 214.045 59.4215 213.818 60.0443L211.656 65.9738C211.15 67.3625 211.359 68.9109 212.216 70.1153L215.875 75.2577C216.259 75.7979 216.303 76.4964 215.989 77.0806C215.674 77.6643 215.067 78.0125 214.404 77.9894L208.098 77.7654C206.636 77.7133 205.201 78.4044 204.331 79.5788L200.572 84.6466C200.373 84.9147 200.109 85.1134 199.812 85.2291Z" fill="white"/>
<path opacity="0.66" d="M199.116 57.0452L198.813 57.4316L200.318 58.609L200.621 58.2226L199.116 57.0452Z" fill="white"/>
<path d="M126.545 236.289C173.58 236.289 211.71 198.159 211.71 151.123C211.71 104.088 173.58 65.9575 126.545 65.9575C79.5089 65.9575 41.3789 104.088 41.3789 151.123C41.3789 198.159 79.5089 236.289 126.545 236.289Z" fill="url(#paint6_linear_2031_2724)"/>
<path d="M126.545 233.457C172.017 233.457 208.879 196.595 208.879 151.123C208.879 105.652 172.017 68.7896 126.545 68.7896C81.0731 68.7896 44.2109 105.652 44.2109 151.123C44.2109 196.595 81.0731 233.457 126.545 233.457Z" fill="url(#paint7_linear_2031_2724)"/>
<path opacity="0.78" d="M50.6484 147.87C50.6347 147.87 50.621 147.87 50.6069 147.869C50.1772 147.846 49.8467 147.479 49.8692 147.05C50.0379 143.819 50.4132 140.574 50.9846 137.405C51.0615 136.982 51.4646 136.7 51.8902 136.776C52.3143 136.853 52.5956 137.258 52.5194 137.682C51.9595 140.787 51.5918 143.966 51.4262 147.131C51.4043 147.547 51.0602 147.87 50.6484 147.87Z" fill="white"/>
<path opacity="0.78" d="M58.6521 117.701C58.534 117.701 58.4141 117.674 58.3014 117.617C57.917 117.423 57.7628 116.954 57.957 116.57C71.1053 90.5217 97.3865 74.3403 126.545 74.3403C131.196 74.3403 135.856 74.7598 140.396 75.5865C140.819 75.6634 141.1 76.0692 141.023 76.4925C140.946 76.9166 140.544 77.2013 140.116 77.1198C135.669 76.3098 131.103 75.8995 126.545 75.8995C97.9784 75.8995 72.2305 91.7528 59.3486 117.272C59.2116 117.544 58.9371 117.701 58.6521 117.701Z" fill="white"/>
<path opacity="0.78" d="M128.339 222.603C166.825 222.603 198.024 191.403 198.024 152.917C198.024 114.431 166.825 83.2314 128.339 83.2314C89.8526 83.2314 58.6533 114.431 58.6533 152.917C58.6533 191.403 89.8526 222.603 128.339 222.603Z" fill="white"/>
<path d="M149.674 126.585C149.674 138.385 140.109 151.123 128.309 151.123C116.51 151.123 106.944 138.385 106.944 126.585C106.944 114.786 116.51 106.415 128.309 106.415C140.109 106.415 149.674 114.786 149.674 126.585Z" fill="url(#paint8_linear_2031_2724)"/>
<path d="M101.795 196.552H153.95C159.44 196.552 164.301 193.004 165.974 187.775L168.781 179.003C170.835 172.58 167.495 165.627 161.161 163.311C139.936 155.55 117.988 156.546 95.5054 164.027C89.2068 166.123 85.7117 172.86 87.4496 179.267L89.6106 187.233C91.1028 192.733 96.0953 196.552 101.795 196.552Z" fill="url(#paint9_linear_2031_2724)"/>
<path d="M30.638 172.385C29.5051 173.594 27.8369 174.639 26.6631 175.291C28.4162 177.458 30.7883 179.628 33.9285 181.752L34.8272 183.768L37.7068 180.317C37.7068 180.317 32.5397 177.746 30.638 172.385Z" fill="url(#paint10_linear_2031_2724)"/>
<path d="M46.0476 237.843C46.0485 237.781 46.0444 237.719 46.0286 237.656C45.0959 233.958 40.4667 231.655 40.4667 231.655L38.6323 231.799C37.5776 235.058 37.7131 237.057 37.8825 237.947C37.8871 237.972 37.8947 237.996 37.9013 238.02C39.4145 238.155 42.5291 238.244 46.0476 237.843Z" fill="url(#paint11_linear_2031_2724)"/>
<path d="M37.9014 238.02C37.9831 238.317 38.2026 238.549 38.4835 238.608C40.6361 239.06 44.0573 238.696 45.4937 238.508C45.8107 238.467 46.0422 238.174 46.0475 237.843C42.5291 238.243 39.4146 238.155 37.9014 238.02Z" fill="url(#paint12_linear_2031_2724)"/>
<path d="M37.8955 229.066L38.6724 232.807C38.7293 233.081 38.9399 233.286 39.195 233.31C39.5072 233.339 39.9516 233.356 40.3986 233.291C40.7994 233.232 41.0785 232.824 41.0075 232.387L40.4675 229.066L37.8955 229.066Z" fill="url(#paint13_linear_2031_2724)"/>
<path d="M53.9939 237.983C51.968 237.926 50.9201 237.687 50.3784 237.466C50.3771 237.667 50.3782 237.872 50.3848 238.085C50.3918 238.312 50.5599 238.493 50.7665 238.491L61.8902 238.42C62.2452 238.417 62.4527 238.006 62.2989 237.68C60.8403 237.801 57.1256 238.07 53.9939 237.983Z" fill="url(#paint14_linear_2031_2724)"/>
<path d="M62.2984 237.68C62.285 237.652 62.2735 237.623 62.2543 237.596C61.2719 236.224 58.7698 233.49 53.8258 232.305L51.454 232.23C51.454 232.23 50.3978 234.066 50.3779 237.466C50.9197 237.687 51.9675 237.926 53.9934 237.983C57.1252 238.07 60.8398 237.801 62.2984 237.68Z" fill="url(#paint15_linear_2031_2724)"/>
<path d="M51.0137 228.635C51.04 228.812 51.3651 231.499 51.4909 232.541C51.5208 232.789 51.7001 232.98 51.9263 233.007C52.3301 233.055 52.9837 233.099 53.5555 232.982C53.8639 232.919 54.0872 232.622 54.0872 232.278V228.06L51.0137 228.635Z" fill="url(#paint16_linear_2031_2724)"/>
<path d="M49.1117 179.598C49.1117 179.598 54.8324 201.339 54.729 228.697C54.7271 229.196 54.3769 229.626 53.8888 229.729C53.1696 229.881 52.1123 230.061 51.2369 230.036C50.7697 230.023 50.3791 229.676 50.3004 229.216C49.4984 224.512 44.8951 198.012 42.2724 193.71C42.2724 193.71 40.5468 217.312 41.0985 229.557C41.1122 229.861 40.8891 230.125 40.5865 230.16C40.1272 230.213 39.3925 230.254 38.4574 230.154C38.1025 230.117 37.8161 229.848 37.7654 229.495C37.194 225.514 33.9056 201.817 34.0453 184.746C34.0533 183.784 36.5911 179.598 36.5911 179.598L49.1117 179.598Z" fill="url(#paint17_linear_2031_2724)"/>
<path d="M57.067 153.286C56.1386 152.123 55.3252 150.875 54.6449 149.59C53.6946 147.795 54.5684 150.752 54.3088 148.725C47.1929 143.59 36.4777 146.189 32.3329 146.711C30.9739 146.882 29.7308 147.552 28.8353 148.589C25.2836 152.699 17.49 163.952 26.6633 175.291C27.8371 174.639 29.5052 173.594 30.6382 172.385C29.6233 169.524 29.5402 165.868 31.6671 161.385C31.7398 161.74 31.8296 162.092 31.9389 162.438C34.8704 171.725 35.0268 179.454 35.0203 181.235C35.0193 181.477 35.1646 181.695 35.3891 181.785C39.2473 183.331 46.6741 182.41 49.1673 182.039C49.6243 181.971 49.9319 181.545 49.8687 181.087C48.6452 172.223 54.9247 157.64 56.5832 153.988C56.7025 153.725 56.8674 153.489 57.067 153.286Z" fill="url(#paint18_linear_2031_2724)"/>
<path d="M39.0014 139.247L38.2578 146.844C38.2578 146.844 42.5315 148.131 45.64 145.938L43.4549 139.034L39.0014 139.247Z" fill="url(#paint19_linear_2031_2724)"/>
<path d="M43.961 130.588C44.0639 130.685 48.3021 139.008 48.3021 139.008L43.4985 141.327L38.3096 134.035C38.3096 134.035 42.2391 128.967 43.961 130.588Z" fill="url(#paint20_linear_2031_2724)"/>
<path d="M40.4353 134.237C40.3496 134.459 40.3706 134.706 40.4929 134.91L42.8887 138.904C42.9251 138.964 42.9684 139.019 43.0201 139.067C43.3053 139.333 44.281 140.105 45.0354 139.054C45.6785 138.158 46.2816 137.343 46.9281 137.007C47.3056 136.811 47.7701 136.968 47.9617 137.347C48.3565 138.13 49.121 139.725 49.6014 141.237C49.7217 141.616 49.5261 142.023 49.1575 142.172C48.1849 142.566 46.2624 143.279 44.5566 143.514C44.2764 143.553 43.9989 143.435 43.8322 143.206C43.0982 142.201 41.0296 139.391 40.3236 138.688C39.6678 138.034 38.4571 138.281 37.9117 138.437C37.7046 138.497 37.4841 138.468 37.2996 138.357C36.7462 138.024 35.7804 137.194 36.664 135.788C36.8837 135.439 36.7716 134.973 36.4268 134.746C35.8089 134.34 35.1384 133.577 35.7772 132.341C36.424 131.091 37.5787 130.978 38.3653 131.074C38.7133 131.117 39.0665 130.934 39.2001 130.61C39.2594 130.466 39.3769 130.343 39.5954 130.299C40.0077 130.215 40.2783 129.838 40.1973 129.425C40.0586 128.718 40.1631 127.798 41.2931 127.177C43.3658 126.037 45.1813 127.894 45.6429 129.462C46.1046 131.029 43.7872 132.137 42.3296 132.322C41.2585 132.457 40.6715 133.626 40.4353 134.237Z" fill="url(#paint21_linear_2031_2724)"/>
<path d="M41.2237 140.155C41.2237 140.155 40.3021 137.458 39.1223 137.557C37.9426 137.656 37.014 138.831 38.4761 140.152C40.2949 141.796 41.2237 140.155 41.2237 140.155Z" fill="url(#paint22_linear_2031_2724)"/>
<path d="M31.278 160.69C29.723 156.434 30.287 151.296 30.293 151.244L30.7214 151.293C30.7157 151.344 30.1637 156.384 31.6832 160.542L31.278 160.69Z" fill="url(#paint23_linear_2031_2724)"/>
<path d="M42.061 193.156C41.9652 193.156 41.8775 193.092 41.8525 192.994C41.378 191.165 37.8257 189.154 37.7899 189.134C37.686 189.076 37.649 188.944 37.7073 188.84C37.7656 188.736 37.8965 188.699 38.001 188.758C38.1536 188.843 41.7497 190.879 42.27 192.886C42.2998 193.001 42.2306 193.119 42.1154 193.149C42.0973 193.154 42.079 193.156 42.061 193.156Z" fill="url(#paint24_linear_2031_2724)"/>
<path d="M71.5121 155.676C63.4639 156.884 58.2183 151.805 54.3095 148.725C49.1488 144.658 45.1328 146.637 45.1328 146.637L50.6364 157.14C58.8553 164.889 67.2822 163.169 72.5948 160.657C72.6765 158.629 72.1344 156.931 71.5121 155.676Z" fill="url(#paint25_linear_2031_2724)"/>
<path d="M82.8234 150.875L80.1544 152.311C76.9535 154.26 74.0892 155.289 71.5117 155.676C72.134 156.931 72.6761 158.629 72.5944 160.657C75.9763 159.059 78.0965 157.14 78.0965 157.14C84.1426 153.535 82.8234 150.875 82.8234 150.875Z" fill="url(#paint26_linear_2031_2724)"/>
<path d="M90.6857 154.635C90.5134 154.063 90.0899 153.599 89.5349 153.376L84.1184 151.198C84.1184 151.198 84.0367 150.503 85.2629 150.031C86.4892 149.559 86.2024 148.186 86.2024 148.186C86.2024 148.186 84.5273 148.95 82.0747 150.162C80.6721 150.855 79.8851 152.079 79.4678 153L80.8621 154.834C84.2005 155.837 87.5786 156.028 90.9854 155.631L90.6857 154.635Z" fill="url(#paint27_linear_2031_2724)"/>
<path d="M75.9004 107.848C84.1627 109.657 92.7371 115.749 92.8367 124.926C92.9215 132.729 84.3942 136.136 79.1482 137.637C77.685 138.055 76.4277 138.995 75.6086 140.278C73.6488 143.347 69.2802 148.606 63.4357 146.235C63.01 146.062 63.1088 145.43 63.5663 145.389C65.022 145.26 67.0506 144.786 68.2739 143.245C69.94 141.145 68.8351 138.018 66.2436 137.334C61.3391 136.04 51.8801 132.013 51.5094 120.169C51.008 104.15 75.9004 107.848 75.9004 107.848Z" fill="#91B3FA"/>
<path d="M72.7188 121.085C72.7188 121.085 71.6475 115.846 66.4884 117.4C61.6009 118.873 64.0815 125.5 71.6791 128.94C72.5028 129.313 73.4566 129.261 74.2366 128.803C77.1566 127.091 83.867 122.4 79.224 117.687C76.2255 114.644 72.7188 121.085 72.7188 121.085Z" fill="white"/>
<path d="M88.969 118.774C89.035 118.766 89.1005 118.744 89.1617 118.708C89.405 118.566 89.4867 118.253 89.3441 118.009C85.5193 111.483 78.1086 109.316 72.5651 108.646C72.2847 108.612 72.0306 108.812 71.9969 109.092C71.963 109.372 72.1627 109.627 72.4428 109.66C77.7567 110.302 84.8497 112.361 88.4628 118.526C88.5695 118.708 88.7719 118.8 88.969 118.774Z" fill="white"/>
<path d="M91.0364 125.673C91.2838 125.641 91.477 125.432 91.481 125.175C91.4817 125.133 91.4939 124.127 91.1577 122.618C91.0963 122.343 90.824 122.168 90.5482 122.23C90.2728 122.292 90.0995 122.565 90.1608 122.84C90.4709 124.232 90.4598 125.149 90.4597 125.158C90.4552 125.44 90.68 125.673 90.9621 125.677C90.9873 125.678 91.0121 125.676 91.0364 125.673Z" fill="white"/>
<path d="M203.185 128.677C203.185 128.677 191.639 143.46 204.812 158.495L209.765 158.034C209.765 158.034 200.231 142.726 204.478 130.524L211.493 131.036L215.373 128.507L203.185 128.677Z" fill="url(#paint28_linear_2031_2724)"/>
<path d="M169.133 95.4433L223.957 92.6127C225.032 92.5572 225.938 93.2062 225.969 94.0546L227.208 127.253C227.239 128.107 226.375 128.829 225.292 128.852C215.366 129.061 171.298 129.993 169.357 130.144C167.44 130.293 167.295 103.586 167.289 96.995C167.288 96.18 168.101 95.4966 169.133 95.4433Z" fill="url(#paint29_linear_2031_2724)"/>
<path d="M170.237 128.94L170.199 128.801C169.373 125.766 168.829 113.27 168.813 96.9655C168.813 96.7745 168.983 96.6164 169.198 96.6052L224.022 93.7747C224.154 93.7702 224.247 93.8147 224.301 93.8546C224.39 93.9185 224.442 94.0116 224.446 94.1162L225.684 127.315C225.692 127.51 225.519 127.678 225.299 127.688L225.287 127.688C217.39 127.854 177.63 128.693 170.381 128.936L170.237 128.94ZM224.047 94.1391C224.045 94.1391 224.043 94.1391 224.04 94.1394L169.217 96.9698C169.19 96.9711 169.175 96.9821 169.173 96.9849C169.194 113 169.717 125.33 170.515 128.566C178.138 128.317 217.429 127.488 225.278 127.323L225.285 127.323L224.081 94.1296C224.08 94.1432 224.069 94.1394 224.047 94.1391Z" fill="#91B3FA"/>
<path d="M204.97 99.2838C205.007 100.123 205.317 100.791 205.661 100.776L220.9 100.097C221.245 100.082 221.494 99.3889 221.457 98.5495C221.419 97.7101 221.11 97.042 220.765 97.0574L205.526 97.7362C205.181 97.7514 204.932 98.4443 204.97 99.2838Z" fill="#BDD0FB"/>
<path d="M205.035 103.418C205.054 103.838 205.348 104.165 205.693 104.15L220.932 103.471C221.277 103.456 221.541 103.103 221.522 102.683C221.504 102.264 221.209 101.936 220.864 101.951L205.625 102.63C205.281 102.645 205.016 102.998 205.035 103.418Z" fill="#BDD0FB"/>
<path d="M205.035 106.583C205.054 107.003 205.348 107.33 205.693 107.315L220.932 106.636C221.277 106.621 221.541 106.268 221.522 105.848C221.504 105.429 221.209 105.101 220.864 105.116L205.625 105.795C205.281 105.81 205.016 106.163 205.035 106.583Z" fill="#BDD0FB"/>
<path d="M184.158 125.002C183.819 125.002 183.604 125.002 183.545 125.001C183.175 125 182.865 124.723 182.822 124.356L181.495 112.916C181.473 112.723 181.528 112.528 181.65 112.376C181.771 112.225 181.948 112.127 182.14 112.106C182.151 112.105 183.239 111.976 184.14 111.38C184.442 111.181 184.789 110.26 185.096 109.448C185.57 108.195 186.159 106.634 187.241 105.398C188.996 103.394 188.704 100.381 188.665 100.044C188.579 99.3043 189.151 98.2177 190.044 97.8706C190.59 97.6584 191.682 97.5486 192.873 99.1972C194.361 101.256 193.712 104.029 193.282 105.864C193.148 106.434 193.022 106.972 193.006 107.306C193.004 107.345 193.008 107.361 193.008 107.361C193.305 107.585 195.043 107.316 196.083 107.155C196.625 107.071 197.18 106.985 197.715 106.923C199.604 106.704 201.824 106.785 202.24 109.383C202.412 110.456 201.954 111.259 201.492 111.772C202.325 112.486 202.757 113.266 202.778 114.098C202.796 114.852 202.462 115.473 202.122 115.908C202.851 116.588 203.16 117.51 202.961 118.502C202.824 119.19 202.452 119.808 201.959 120.249C202.334 120.675 202.383 121.13 202.376 121.375C202.341 122.643 200.811 123.909 198.739 124.386C196.231 124.963 186.706 125.002 184.158 125.002ZM183.023 113.419L184.198 123.542C186.752 123.54 196.094 123.497 198.412 122.963C200.06 122.584 200.906 121.715 200.917 121.335C200.921 121.189 200.646 121.01 200.234 120.891C199.897 120.793 199.677 120.47 199.71 120.12C199.744 119.771 200.021 119.494 200.371 119.463C200.873 119.417 201.404 118.846 201.53 118.216C201.621 117.759 201.544 117.117 200.657 116.649C200.434 116.531 200.287 116.306 200.27 116.053C200.253 115.801 200.368 115.557 200.574 115.41C200.578 115.407 201.34 114.828 201.318 114.128C201.297 113.449 200.55 112.829 199.926 112.429C199.712 112.291 199.585 112.051 199.591 111.796C199.598 111.542 199.736 111.309 199.957 111.182C199.994 111.16 200.953 110.577 200.798 109.614C200.682 108.887 200.549 108.063 197.883 108.373C197.366 108.433 196.83 108.516 196.306 108.598C194.357 108.899 192.817 109.139 192.007 108.408C191.781 108.205 191.518 107.836 191.548 107.233C191.571 106.768 191.705 106.195 191.861 105.531C192.252 103.86 192.788 101.572 191.69 100.052C191.264 99.4626 190.844 99.1436 190.592 99.2247C190.327 99.3078 190.119 99.7411 190.116 99.8922C190.162 100.279 190.508 103.883 188.34 106.36C187.431 107.397 186.916 108.761 186.462 109.964C186.003 111.178 185.641 112.138 184.946 112.598C184.274 113.042 183.546 113.288 183.023 113.419Z" fill="url(#paint30_linear_2031_2724)"/>
<path d="M209.509 201.053C209.509 201.053 218.864 221.442 223.772 229.887C223.772 229.887 224.746 235.2 223.772 236.871L222.941 237.241L226.818 237.125C226.818 237.125 227.162 229.978 226.893 229.578C226.624 229.179 226.086 229.205 226.086 229.205C226.086 229.205 224.424 216.034 219.609 213.223L214.943 197.152L209.509 201.053Z" fill="url(#paint31_linear_2031_2724)"/>
<path d="M221.285 238.241C221.279 238.335 224.313 238.292 225.96 238.262C226.569 238.251 227.088 237.823 227.217 237.229L228.462 230.691C228.58 230.07 228.185 229.467 227.569 229.326L226.874 229.167C226.874 229.167 225.883 230.526 226.195 231.806C226.507 233.086 226.785 236.4 225.997 236.787C225.208 237.173 222.941 237.24 222.941 237.24C222.941 237.24 221.337 237.399 221.285 238.241Z" fill="url(#paint32_linear_2031_2724)"/>
<path d="M200.642 238.36C200.335 238.535 200.462 239.004 200.815 239C203.572 238.972 209.751 238.885 210.3 238.657C211.009 238.362 210.042 235.815 209.024 234.953L203.404 236.787L200.642 238.36Z" fill="url(#paint33_linear_2031_2724)"/>
<path d="M198.897 199.752C198.897 199.752 204.943 228.997 206.653 234.702L202.607 237.241C202.607 237.241 204.635 236.896 206.138 236.787C207.641 236.678 209.024 234.952 209.024 234.952L208.539 234.179C208.539 234.179 207.024 205.094 207.393 201.791L198.897 199.752Z" fill="url(#paint34_linear_2031_2724)"/>
<path d="M183.891 131.539C183.891 131.539 183.057 146.752 196.908 154.526L193.573 162.131C193.573 162.131 181.033 154.546 181.497 133.86C181.51 133.266 181.296 132.69 180.909 132.24L178.244 129.148C177.228 127.97 176.849 126.372 177.226 124.864L177.577 123.461C177.694 122.992 178.229 122.766 178.647 123.009L178.926 123.171C179.813 123.686 180.516 124.467 180.935 125.404L182.244 128.329C182.733 129.422 183.86 130.085 185.052 129.982L185.861 129.913L183.891 131.539Z" fill="url(#paint35_linear_2031_2724)"/>
<path d="M196.426 153.386C198.743 154.028 206.593 156.093 211.494 156.009L208.485 172.989L208.724 175.758L198.914 175.714C198.914 175.714 196.152 169.3 193.973 166.103C193.344 165.179 193.812 164.078 194.169 163.019L193.679 162.692C193.18 162.36 192.964 161.737 193.15 161.167L195.539 153.858C195.663 153.49 196.051 153.282 196.426 153.386Z" fill="url(#paint36_linear_2031_2724)"/>
<path d="M198.127 174.265L198.32 175.943C198.32 175.943 195.548 184.246 199.707 203.638C199.707 203.638 208.713 206.189 216.116 200.084C216.116 200.084 214.027 181.78 213.457 180.928C210.616 176.681 208.724 175.758 208.724 175.758L208.638 173.925C208.638 173.925 200.721 175.357 198.127 174.265Z" fill="url(#paint37_linear_2031_2724)"/>
<path d="M201.968 154.754C201.934 154.709 204.016 148.467 204.016 148.467L206.999 148.737L208.165 155.819C208.165 155.819 203.49 156.762 201.968 154.754Z" fill="url(#paint38_linear_2031_2724)"/>
<path d="M206.285 138.623C206.086 138.747 199.911 141.299 201.237 147.711C201.316 148.09 201.569 148.411 201.922 148.568C202.828 148.972 204.779 149.665 207.113 149.427C210.348 149.099 212.468 143.453 212.377 141.811C212.287 140.168 208.256 137.396 206.285 138.623Z" fill="url(#paint39_linear_2031_2724)"/>
<path d="M208.165 136.13C208.002 136.151 204.596 137.338 206.285 139.806C207.974 142.275 208.608 143.728 207.809 144.812C207.081 145.799 205.469 145.236 205.609 147.291C205.637 147.702 205.46 148.101 205.118 148.332C203.599 149.361 199.891 152.527 203.564 157.042C203.863 157.409 203.925 157.915 203.694 158.329C202.618 160.258 200.359 165.911 208.54 169.046C216.624 172.145 219.543 166.86 220.358 164.748C220.534 164.291 220.984 164.012 221.473 164.035C222.362 164.077 223.621 163.929 223.563 162.742C223.528 162.021 223.078 161.375 222.546 160.857C222.02 160.344 222.124 159.446 222.763 159.083C223.245 158.809 223.672 158.381 223.852 157.713C224.342 155.898 223.364 150.469 218.161 149.55C217.727 149.473 217.273 149.066 217.209 148.63C217.208 148.623 217.208 148.617 217.206 148.61C217.137 148.188 217.279 147.757 217.624 147.504C218.455 146.895 219.52 145.668 218.655 143.7C217.888 141.955 216.415 141.366 215.322 141.178C214.68 141.068 214.258 140.461 214.393 139.824C214.762 138.088 214.441 135.307 208.165 136.13Z" fill="url(#paint40_linear_2031_2724)"/>
<defs>
<linearGradient id="paint0_linear_2031_2724" x1="258.049" y1="240.803" x2="81.3574" y2="86.1974" gradientUnits="userSpaceOnUse">
<stop stop-color="#DAE3FE"/>
<stop offset="1" stop-color="#E9EFFD"/>
</linearGradient>
<linearGradient id="paint1_linear_2031_2724" x1="110.968" y1="11.9517" x2="174.085" y2="86.3594" gradientUnits="userSpaceOnUse">
<stop stop-color="#FF928E"/>
<stop offset="1" stop-color="#FE7062"/>
</linearGradient>
<linearGradient id="paint2_linear_2031_2724" x1="64.6447" y1="34.3888" x2="139.278" y2="76.5196" gradientUnits="userSpaceOnUse">
<stop stop-color="#FF928E"/>
<stop offset="1" stop-color="#FE7062"/>
</linearGradient>
<linearGradient id="paint3_linear_2031_2724" x1="30.664" y1="65.746" x2="109.836" y2="87.2179" gradientUnits="userSpaceOnUse">
<stop stop-color="#FF928E"/>
<stop offset="1" stop-color="#FE7062"/>
</linearGradient>
<linearGradient id="paint4_linear_2031_2724" x1="165.582" y1="22.8963" x2="180.358" y2="103.587" gradientUnits="userSpaceOnUse">
<stop stop-color="#FF928E"/>
<stop offset="1" stop-color="#FE7062"/>
</linearGradient>
<linearGradient id="paint5_linear_2031_2724" x1="204.125" y1="48.0463" x2="193.941" y2="129.444" gradientUnits="userSpaceOnUse">
<stop stop-color="#FF928E"/>
<stop offset="1" stop-color="#FE7062"/>
</linearGradient>
<linearGradient id="paint6_linear_2031_2724" x1="10.0031" y1="286.394" x2="124.237" y2="153.801" gradientUnits="userSpaceOnUse">
<stop stop-color="#E1473D"/>
<stop offset="1" stop-color="#E9605A"/>
</linearGradient>
<linearGradient id="paint7_linear_2031_2724" x1="188.402" y1="1.71514" x2="76.3385" y2="272.391" gradientUnits="userSpaceOnUse">
<stop stop-color="#FF928E"/>
<stop offset="1" stop-color="#FE7062"/>
</linearGradient>
<linearGradient id="paint8_linear_2031_2724" x1="152.654" y1="50.7966" x2="92.7434" y2="237.857" gradientUnits="userSpaceOnUse">
<stop stop-color="#FF928E"/>
<stop offset="1" stop-color="#FE7062"/>
</linearGradient>
<linearGradient id="paint9_linear_2031_2724" x1="166.706" y1="55.2969" x2="106.796" y2="242.356" gradientUnits="userSpaceOnUse">
<stop stop-color="#FF928E"/>
<stop offset="1" stop-color="#FE7062"/>
</linearGradient>
<linearGradient id="paint10_linear_2031_2724" x1="26.6631" y1="178.077" x2="37.7068" y2="178.077" gradientUnits="userSpaceOnUse">
<stop stop-color="#FEBBBA"/>
<stop offset="1" stop-color="#FF928E"/>
</linearGradient>
<linearGradient id="paint11_linear_2031_2724" x1="159.225" y1="-196.805" x2="148.018" y2="-155.425" gradientUnits="userSpaceOnUse">
<stop stop-color="#09005D"/>
<stop offset="1" stop-color="#1A0F91"/>
</linearGradient>
<linearGradient id="paint12_linear_2031_2724" x1="58.4979" y1="225.125" x2="28.3709" y2="248.78" gradientUnits="userSpaceOnUse">
<stop stop-color="#4F52FF"/>
<stop offset="1" stop-color="#4042E2"/>
</linearGradient>
<linearGradient id="paint13_linear_2031_2724" x1="40.0703" y1="225.467" x2="38.4885" y2="239.272" gradientUnits="userSpaceOnUse">
<stop stop-color="#FEBBBA"/>
<stop offset="1" stop-color="#FF928E"/>
</linearGradient>
<linearGradient id="paint14_linear_2031_2724" x1="63.8515" y1="231.941" x2="33.7248" y2="255.597" gradientUnits="userSpaceOnUse">
<stop stop-color="#4F52FF"/>
<stop offset="1" stop-color="#4042E2"/>
</linearGradient>
<linearGradient id="paint15_linear_2031_2724" x1="172.735" y1="-193.146" x2="161.528" y2="-151.766" gradientUnits="userSpaceOnUse">
<stop stop-color="#09005D"/>
<stop offset="1" stop-color="#1A0F91"/>
</linearGradient>
<linearGradient id="paint16_linear_2031_2724" x1="52.9556" y1="226.943" x2="51.3738" y2="240.748" gradientUnits="userSpaceOnUse">
<stop stop-color="#FEBBBA"/>
<stop offset="1" stop-color="#FF928E"/>
</linearGradient>
<linearGradient id="paint17_linear_2031_2724" x1="71.7514" y1="163.815" x2="21.1587" y2="242.321" gradientUnits="userSpaceOnUse">
<stop stop-color="#09005D"/>
<stop offset="1" stop-color="#1A0F91"/>
</linearGradient>
<linearGradient id="paint18_linear_2031_2724" x1="40.7091" y1="148.384" x2="32.5848" y2="227.935" gradientUnits="userSpaceOnUse">
<stop stop-color="#4F52FF"/>
<stop offset="1" stop-color="#4042E2"/>
</linearGradient>
<linearGradient id="paint19_linear_2031_2724" x1="43.5652" y1="137.215" x2="37.5254" y2="163.315" gradientUnits="userSpaceOnUse">
<stop stop-color="#FEBBBA"/>
<stop offset="1" stop-color="#FF928E"/>
</linearGradient>
<linearGradient id="paint20_linear_2031_2724" x1="42.5649" y1="132.161" x2="45.5418" y2="149.679" gradientUnits="userSpaceOnUse">
<stop stop-color="#FEBBBA"/>
<stop offset="1" stop-color="#FF928E"/>
</linearGradient>
<linearGradient id="paint21_linear_2031_2724" x1="39.4349" y1="140.453" x2="48.2077" y2="131.134" gradientUnits="userSpaceOnUse">
<stop stop-color="#09005D"/>
<stop offset="1" stop-color="#1A0F91"/>
</linearGradient>
<linearGradient id="paint22_linear_2031_2724" x1="39.9827" y1="151.282" x2="39.4531" y2="138.981" gradientUnits="userSpaceOnUse">
<stop stop-color="#FEBBBA"/>
<stop offset="1" stop-color="#FF928E"/>
</linearGradient>
<linearGradient id="paint23_linear_2031_2724" x1="47.6417" y1="127.113" x2="32.8428" y2="152.688" gradientUnits="userSpaceOnUse">
<stop stop-color="#4F52FF"/>
<stop offset="1" stop-color="#4042E2"/>
</linearGradient>
<linearGradient id="paint24_linear_2031_2724" x1="43.3767" y1="184.895" x2="39.1345" y2="192.445" gradientUnits="userSpaceOnUse">
<stop stop-color="#09005D"/>
<stop offset="1" stop-color="#1A0F91"/>
</linearGradient>
<linearGradient id="paint25_linear_2031_2724" x1="59.2208" y1="150.151" x2="50.5243" y2="235.304" gradientUnits="userSpaceOnUse">
<stop stop-color="#4F52FF"/>
<stop offset="1" stop-color="#4042E2"/>
</linearGradient>
<linearGradient id="paint26_linear_2031_2724" x1="91.0005" y1="136.577" x2="54.0405" y2="183.864" gradientUnits="userSpaceOnUse">
<stop stop-color="#FEBBBA"/>
<stop offset="1" stop-color="#FF928E"/>
</linearGradient>
<linearGradient id="paint27_linear_2031_2724" x1="95.9466" y1="140.443" x2="58.9865" y2="187.73" gradientUnits="userSpaceOnUse">
<stop stop-color="#FEBBBA"/>
<stop offset="1" stop-color="#FF928E"/>
</linearGradient>
<linearGradient id="paint28_linear_2031_2724" x1="211.266" y1="126.796" x2="202.967" y2="152.236" gradientUnits="userSpaceOnUse">
<stop stop-color="#FEBBBA"/>
<stop offset="1" stop-color="#FF928E"/>
</linearGradient>
<linearGradient id="paint29_linear_2031_2724" x1="211.08" y1="83.9202" x2="152.348" y2="203.775" gradientUnits="userSpaceOnUse">
<stop stop-color="#4F52FF"/>
<stop offset="1" stop-color="#4042E2"/>
</linearGradient>
<linearGradient id="paint30_linear_2031_2724" x1="181.49" y1="111.377" x2="203.02" y2="111.377" gradientUnits="userSpaceOnUse">
<stop stop-color="#DAE3FE"/>
<stop offset="1" stop-color="#E9EFFD"/>
</linearGradient>
<linearGradient id="paint31_linear_2031_2724" x1="209.509" y1="217.196" x2="226.996" y2="217.196" gradientUnits="userSpaceOnUse">
<stop stop-color="#FEBBBA"/>
<stop offset="1" stop-color="#FF928E"/>
</linearGradient>
<linearGradient id="paint32_linear_2031_2724" x1="233.546" y1="178.089" x2="224.886" y2="234.381" gradientUnits="userSpaceOnUse">
<stop stop-color="#09005D"/>
<stop offset="1" stop-color="#1A0F91"/>
</linearGradient>
<linearGradient id="paint33_linear_2031_2724" x1="215.221" y1="175.27" x2="206.561" y2="231.562" gradientUnits="userSpaceOnUse">
<stop stop-color="#09005D"/>
<stop offset="1" stop-color="#1A0F91"/>
</linearGradient>
<linearGradient id="paint34_linear_2031_2724" x1="198.897" y1="218.496" x2="209.024" y2="218.496" gradientUnits="userSpaceOnUse">
<stop stop-color="#FEBBBA"/>
<stop offset="1" stop-color="#FF928E"/>
</linearGradient>
<linearGradient id="paint35_linear_2031_2724" x1="177.083" y1="142.521" x2="196.908" y2="142.521" gradientUnits="userSpaceOnUse">
<stop stop-color="#FEBBBA"/>
<stop offset="1" stop-color="#FF928E"/>
</linearGradient>
<linearGradient id="paint36_linear_2031_2724" x1="175.267" y1="186.074" x2="208.026" y2="160.05" gradientUnits="userSpaceOnUse">
<stop stop-color="#4F52FF"/>
<stop offset="1" stop-color="#4042E2"/>
</linearGradient>
<linearGradient id="paint37_linear_2031_2724" x1="189.956" y1="172.749" x2="222.432" y2="209.375" gradientUnits="userSpaceOnUse">
<stop stop-color="#09005D"/>
<stop offset="1" stop-color="#1A0F91"/>
</linearGradient>
<linearGradient id="paint38_linear_2031_2724" x1="201.968" y1="152.253" x2="208.165" y2="152.253" gradientUnits="userSpaceOnUse">
<stop stop-color="#FEBBBA"/>
<stop offset="1" stop-color="#FF928E"/>
</linearGradient>
<linearGradient id="paint39_linear_2031_2724" x1="211.816" y1="144.246" x2="256.922" y2="147.313" gradientUnits="userSpaceOnUse">
<stop stop-color="#FEBBBA"/>
<stop offset="1" stop-color="#FF928E"/>
</linearGradient>
<linearGradient id="paint40_linear_2031_2724" x1="219.23" y1="141.526" x2="203.353" y2="173.28" gradientUnits="userSpaceOnUse">
<stop stop-color="#09005D"/>
<stop offset="1" stop-color="#1A0F91"/>
</linearGradient>
</defs>
</svg>
