<svg width="229" height="262" viewBox="0 0 229 262" fill="none" xmlns="http://www.w3.org/2000/svg">
<path d="M122.322 32.6488C131.535 30.8971 140.864 29.4532 150.24 29.6135C159.617 29.7738 169.1 31.6039 177.344 36.0737C186.827 41.2149 194.412 49.5022 200.942 58.0874C211.282 71.6791 216.423 89.1267 215.108 106.153C213.637 125.183 204.427 142.955 192.323 157.713C180.22 172.471 165.251 186.337 150.229 198.111C141.383 205.044 129.404 207.806 118.416 205.445C107.428 203.085 95.0867 196.445 93.0568 185.391C90.9648 173.996 83.77 163.638 73.8227 157.699C66.1226 153.102 55.9738 151.372 47.8317 147.613C32.8734 140.707 23.3478 124.684 21.6101 108.3C19.8724 91.9157 25.0861 75.3782 33.4054 61.1569C41.9268 46.5889 54.7141 34.6658 70.8485 29.7128C86.9817 24.761 107.192 25.1705 122.322 32.6488Z" fill="#D8DBFF"/>
<path d="M193.175 68.8926L189.846 74.6587H196.503L193.175 68.8926Z" stroke="#060305" stroke-miterlimit="10" stroke-linecap="round" stroke-linejoin="round"/>
<path d="M27.0243 123.742L21.2588 120.413V127.071L27.0243 123.742Z" fill="#060305"/>
<path d="M207.527 171.153L210.856 165.387H204.198L207.527 171.153Z" fill="#814EFF"/>
<path d="M202.264 88.4857C202.264 87.9751 201.851 87.561 201.34 87.561C200.83 87.561 200.416 87.9746 200.416 88.4857C200.416 88.9962 200.83 89.4097 201.34 89.4097C201.85 89.4103 202.264 88.9962 202.264 88.4857Z" fill="#060305"/>
<path d="M190.908 172.483C190.908 171.972 190.494 171.559 189.984 171.559C189.473 171.559 189.06 171.972 189.06 172.483C189.06 172.993 189.474 173.407 189.984 173.407C190.494 173.407 190.908 172.993 190.908 172.483Z" stroke="#060305" stroke-miterlimit="10" stroke-linecap="round" stroke-linejoin="round"/>
<path d="M87.9477 132.917C87.9477 132.406 87.5342 131.993 87.0237 131.993C86.5131 131.993 86.0996 132.407 86.0996 132.917C86.0996 133.427 86.5131 133.841 87.0237 133.841C87.5342 133.841 87.9477 133.427 87.9477 132.917Z" fill="#814EFF"/>
<path d="M54.3116 162.449C54.3116 161.938 53.8974 161.525 53.3869 161.525C52.8764 161.525 52.4629 161.938 52.4629 162.449C52.4629 162.959 52.8764 163.373 53.3869 163.373C53.8974 163.373 54.3116 162.959 54.3116 162.449Z" fill="#814EFF"/>
<path d="M181.081 187.861C181.081 187.351 180.668 186.937 180.157 186.937C179.647 186.937 179.232 187.351 179.232 187.861C179.232 188.372 179.647 188.785 180.157 188.785C180.668 188.786 181.081 188.372 181.081 187.861Z" fill="#814EFF"/>
<path d="M216.758 72.0671C216.758 71.5566 216.344 71.1431 215.833 71.1431C215.323 71.1431 214.909 71.5566 214.909 72.0671C214.909 72.5776 215.323 72.9912 215.833 72.9912C216.344 72.9912 216.758 72.5776 216.758 72.0671Z" fill="#814EFF"/>
<path d="M182.005 141.916C182.005 141.406 181.592 140.992 181.081 140.992C180.571 140.992 180.157 141.406 180.157 141.916C180.157 142.426 180.571 142.84 181.081 142.84C181.591 142.841 182.005 142.427 182.005 141.916Z" fill="#060305"/>
<path d="M78.0489 103.394C78.0489 102.883 77.6348 102.47 77.1242 102.47C76.6137 102.47 76.2002 102.884 76.2002 103.394C76.2002 103.904 76.6143 104.318 77.1242 104.318C77.6348 104.318 78.0489 103.904 78.0489 103.394Z" stroke="#060305" stroke-miterlimit="10" stroke-linecap="round" stroke-linejoin="round"/>
<path d="M2.84808 94.2717C2.84808 93.7612 2.43398 93.3477 1.92404 93.3477C1.41353 93.3477 1 93.7612 1 94.2717C1 94.7822 1.41353 95.1957 1.92404 95.1957C2.43398 95.1963 2.84808 94.7822 2.84808 94.2717Z" stroke="#060305" stroke-miterlimit="10" stroke-linecap="round" stroke-linejoin="round"/>
<path d="M79.5908 139.709C79.5908 139.199 79.1768 138.785 78.6668 138.785C78.1563 138.785 77.7422 139.199 77.7422 139.709C77.7422 140.22 78.1563 140.634 78.6668 140.634C79.1768 140.633 79.5908 140.22 79.5908 139.709Z" fill="#060305"/>
<path d="M61.5537 168.27C61.5537 167.759 61.1402 167.346 60.6291 167.346C60.1186 167.346 59.7051 167.759 59.7051 168.27C59.7051 168.78 60.1192 169.194 60.6291 169.194C61.1396 169.194 61.5537 168.78 61.5537 168.27Z" fill="#814EFF"/>
<path d="M145.886 0H21.4482V81.664H145.886V0Z" fill="white"/>
<path d="M145.887 0H21.4492V11.4846H145.887V0Z" fill="#9E97FF"/>
<path d="M27.7811 7.45481C28.727 7.45481 29.4939 6.68798 29.4939 5.74205C29.4939 4.79612 28.727 4.0293 27.7811 4.0293C26.8352 4.0293 26.0684 4.79612 26.0684 5.74205C26.0684 6.68798 26.8352 7.45481 27.7811 7.45481Z" fill="#814EFF"/>
<path d="M35.0145 7.45481C35.9604 7.45481 36.7273 6.68798 36.7273 5.74205C36.7273 4.79612 35.9604 4.0293 35.0145 4.0293C34.0686 4.0293 33.3018 4.79612 33.3018 5.74205C33.3018 6.68798 34.0686 7.45481 35.0145 7.45481Z" fill="#814EFF"/>
<path d="M43.9616 5.74205C43.9616 4.79594 43.195 4.0293 42.2489 4.0293C41.3028 4.0293 40.5361 4.79594 40.5361 5.74205C40.5361 6.68816 41.3028 7.45481 42.2489 7.45481C43.1944 7.45481 43.9616 6.68816 43.9616 5.74205Z" fill="#814EFF"/>
<path d="M142.669 4.25488H47.8174" stroke="#060305" stroke-miterlimit="10" stroke-linecap="round" stroke-linejoin="round"/>
<path d="M142.669 7.229H47.8174" stroke="#060305" stroke-miterlimit="10" stroke-linecap="round" stroke-linejoin="round"/>
<path d="M58.3004 105.831L40.8099 115.567L23.3193 105.831C14.4582 100.899 8.96387 91.5524 8.96387 81.4112V39.9711L40.8099 27.958L72.6559 39.9711V81.4106C72.6559 91.553 67.1616 100.899 58.3004 105.831Z" fill="#9E97FF"/>
<path d="M55.381 100.145L40.8095 108.256L26.238 100.145C18.8555 96.0356 14.2783 88.2501 14.2783 79.8007V44.0448L40.8095 34.0366L67.3406 44.0448V79.8007C67.3406 88.2501 62.764 96.0362 55.381 100.145Z" fill="#814EFF"/>
<path d="M58.29 103.142C65.5999 99.675 70.5895 91.7931 70.5953 83.7026" stroke="#060305" stroke-miterlimit="10" stroke-linecap="round" stroke-linejoin="round"/>
<path d="M11.5986 41.0768C19.6716 37.8923 27.7452 34.7084 35.8182 31.5239" stroke="white" stroke-miterlimit="10" stroke-linecap="round" stroke-linejoin="round"/>
<path d="M40.8086 27.958V115.567" stroke="#060305" stroke-miterlimit="10" stroke-linecap="round" stroke-linejoin="round"/>
<path d="M45.8199 94.1538C57.3634 91.3855 64.477 79.7835 61.7087 68.24C58.9403 56.6965 47.3383 49.5829 35.7948 52.3512C24.2514 55.1196 17.1377 66.7216 19.9061 78.2651C22.6744 89.8085 34.2764 96.9222 45.8199 94.1538Z" fill="white"/>
<path d="M40.2272 89.2916L23.3506 69.3397L29.2172 64.378L39.3967 76.4155L54.6901 52.7319L61.1445 56.898L40.2272 89.2916Z" fill="#FF99A8"/>
<path d="M187.19 23.9668H119.952V38.9205H173.372L176.079 43.6074L178.785 38.9205H187.19V23.9668Z" fill="#814EFF"/>
<path d="M128.7 35.2224L124.973 30.8165L126.268 29.7212L128.516 32.3794L131.893 27.1494L133.319 28.0694L128.7 35.2224Z" fill="white"/>
<path d="M183.042 28.4697H137.485" stroke="#060305" stroke-miterlimit="10" stroke-linecap="round" stroke-linejoin="round"/>
<path d="M183.042 31.4434H137.485" stroke="#060305" stroke-miterlimit="10" stroke-linecap="round" stroke-linejoin="round"/>
<path d="M183.042 34.418H137.485" stroke="#060305" stroke-miterlimit="10" stroke-linecap="round" stroke-linejoin="round"/>
<path d="M154.873 48.9219H222.111V63.8755H168.691L165.985 68.5625L163.279 63.8755H154.873V48.9219Z" fill="white"/>
<path d="M211.912 60.1775L208.186 55.7716L209.481 54.6762L211.729 57.3339L215.106 52.1045L216.531 53.0245L211.912 60.1775Z" fill="#814EFF"/>
<path d="M203.861 53.4136H158.304" stroke="#060305" stroke-miterlimit="10" stroke-linecap="round" stroke-linejoin="round"/>
<path d="M203.861 56.3877H158.304" stroke="#060305" stroke-miterlimit="10" stroke-linecap="round" stroke-linejoin="round"/>
<path d="M203.861 59.3623H158.304" stroke="#060305" stroke-miterlimit="10" stroke-linecap="round" stroke-linejoin="round"/>
<path d="M122.651 262C160.089 262 190.439 260.06 190.439 257.667C190.439 255.274 160.089 253.333 122.651 253.333C85.2136 253.333 54.8643 255.274 54.8643 257.667C54.8643 260.06 85.2136 262 122.651 262Z" fill="#9E97FF"/>
<path d="M168.049 253.367C164.558 249.731 164.558 243.974 166.73 239.427C156.919 239.657 147.742 240.35 137.931 240.58C138.1 245.947 138.269 251.314 138.438 256.681L172.438 257.667C172.438 255.344 169.289 254.659 168.049 253.367Z" fill="#060305"/>
<path d="M154.414 245.129C156.88 245.06 159.345 244.991 161.811 244.921" stroke="white" stroke-miterlimit="10" stroke-linecap="round" stroke-linejoin="round"/>
<path d="M154.847 247.171C157.505 247.18 160.163 247.188 162.821 247.197" stroke="white" stroke-miterlimit="10" stroke-linecap="round" stroke-linejoin="round"/>
<path d="M155.571 249.514C158.133 249.541 160.694 249.569 163.256 249.596" stroke="white" stroke-miterlimit="10" stroke-linecap="round" stroke-linejoin="round"/>
<path d="M98.5816 252.903C95.7084 251.087 94.4161 247.371 93.7064 244.047C93.1262 241.333 93.4201 237.945 94.7658 235.518C85.3145 233.161 76.1072 231.075 66.6554 228.718C65.7569 234.969 64.8584 241.22 63.96 247.472C68.8491 250.509 73.7504 253.709 78.6395 256.746L102.6 256.832C103.015 254.392 100.19 253.92 98.5816 252.903Z" fill="#060305"/>
<path d="M82.208 241.441C84.6717 241.39 87.1354 241.34 89.5992 241.289" stroke="white" stroke-miterlimit="10" stroke-linecap="round" stroke-linejoin="round"/>
<path d="M81.7725 243.651C84.6247 243.717 87.477 243.783 90.3293 243.848" stroke="white" stroke-miterlimit="10" stroke-linecap="round" stroke-linejoin="round"/>
<path d="M82.6426 245.994C85.6877 246.079 88.7328 246.163 91.7779 246.248" stroke="white" stroke-miterlimit="10" stroke-linecap="round" stroke-linejoin="round"/>
<path d="M164.953 119.146L106.241 123.622C101.165 140.585 96.088 157.548 91.0113 174.512C81.8812 189.439 69.9802 209.815 64.5742 229.847C75.4722 233.251 86.3464 236.363 97.2438 239.767C104.345 224.831 111.732 209.928 118.833 194.993C123.847 184.448 128.85 174.218 133.781 163.635C135.032 172.486 135.69 181.46 136.94 190.312C136.487 208.646 135.965 224.709 135.353 242.035C146.516 242.211 158.037 241.604 169.2 241.78C169.278 223.727 169.282 205.711 169.36 187.658C169.459 164.853 166.367 141.907 164.953 119.146Z" fill="#814EFF"/>
<path d="M133.69 163.978C134.843 160.755 135.996 157.532 137.149 154.308" stroke="#060305" stroke-miterlimit="10" stroke-linecap="round" stroke-linejoin="round"/>
<path d="M108.663 131.731C104.533 145.948 100.403 160.165 96.2725 174.381C96.9375 174.276 96.9822 175.195 97.0095 175.868C97.0368 176.54 96.6128 177.163 96.0808 177.575C95.356 178.136 94.4012 178.39 93.4934 178.264C84.2216 192.733 76.1986 207.759 70.2158 223.868" stroke="#060305" stroke-miterlimit="10" stroke-linecap="round" stroke-linejoin="round"/>
<path d="M67.0674 223.229C77.9015 226.828 88.7356 230.429 99.5697 234.028" stroke="#060305" stroke-miterlimit="10" stroke-linecap="round" stroke-linejoin="round"/>
<path d="M136.439 235.485C147.117 235.147 157.795 234.811 168.473 234.473" stroke="#060305" stroke-miterlimit="10" stroke-linecap="round" stroke-linejoin="round"/>
<path d="M135.667 158.721C137.362 168.466 139.058 178.211 140.754 187.956C139.95 189.351 139.775 191.47 140.948 192.572C140.371 206.781 139.673 220.859 139.097 235.068" stroke="#060305" stroke-miterlimit="10" stroke-linecap="round" stroke-linejoin="round"/>
<path d="M183.33 85.6846C188.775 89.3575 193.921 100.336 191.675 107.388C189.428 114.44 183.773 117.123 178.627 118.355C173.48 119.588 161.155 114.57 161.155 114.57L156.926 99.5068L170.674 86.5349L183.33 85.6846Z" fill="#C14F4F"/>
<path d="M174.569 91.7562C171.544 88.5345 169.527 84.5607 166.293 81.5487C160.306 75.972 152.009 73.7168 143.828 73.6099C139.792 73.557 135.826 73.3683 131.79 73.3154C131.649 74.3063 130.946 75.1838 130.032 75.5921C129.119 76.0004 128.026 75.9505 127.126 75.5149C126.225 75.0793 125.541 74.2418 125.162 73.316C121.611 74.6966 118.059 76.0765 114.508 77.4565C106.359 80.6241 99.0867 86.1945 94.8545 93.8453C99.5287 95.7038 103.955 97.8946 108.629 99.7531C107.777 107.869 106.838 116.039 105.986 124.155L164.318 125.897C163.744 117.204 162.391 108.514 160.109 100.106C164.924 97.2888 169.754 94.573 174.569 91.7562Z" fill="white"/>
<path d="M120.534 75.5665C122.315 78.661 125.995 80.5503 129.548 80.1955C133.101 79.8406 136.333 77.2596 137.467 73.8735" stroke="#060305" stroke-miterlimit="10" stroke-linecap="round" stroke-linejoin="round"/>
<path d="M112.141 79.0109C113.885 77.9515 116.27 78.3511 117.846 79.6486C119.421 80.9461 120.258 82.9771 120.486 85.0052C120.715 87.0333 120.395 89.0818 120.005 91.0849C119.37 94.3432 118.543 97.5643 117.531 100.726" stroke="#060305" stroke-miterlimit="10" stroke-linecap="round" stroke-linejoin="round"/>
<path d="M148.583 74.1904C150.18 79.3351 152.669 84.1499 155.145 88.9333C156.996 92.508 158.846 96.0822 160.697 99.657" stroke="#060305" stroke-miterlimit="10" stroke-linecap="round" stroke-linejoin="round"/>
<path d="M128.451 145.193C128.451 145.193 137.993 150.035 145.388 151.449L156.048 147.034L158.473 143.293L136.486 135.259L125.053 139.709L128.451 145.193Z" fill="#C14F4F"/>
<path d="M146.264 148.131C149.498 147.081 152.732 146.032 155.966 144.982" stroke="#060305" stroke-miterlimit="10" stroke-linecap="round" stroke-linejoin="round"/>
<path d="M175.652 106.312L169.338 105.785C169.456 104.359 169.395 102.963 169.154 101.637C167.588 93.0251 159.308 87.2933 150.697 88.8585C142.084 90.4243 136.352 98.7041 137.918 107.316C138.158 108.635 138.592 109.964 139.208 111.266L133.479 113.977C132.627 112.173 132.022 110.314 131.684 108.449C129.493 96.4001 137.515 84.8144 149.564 82.6237C161.613 80.4329 173.198 88.4543 175.388 100.503C175.729 102.376 175.818 104.331 175.652 106.312Z" fill="#F6921E"/>
<path d="M134.43 96.3982C136.4 90.6646 141.419 86.081 147.307 84.6377" stroke="white" stroke-miterlimit="10" stroke-linecap="round" stroke-linejoin="round"/>
<path d="M128.544 111.767C128.355 114.061 129.185 120.567 129.616 122.94C132.267 137.523 146.239 147.195 160.822 144.544C175.405 141.893 185.078 127.921 182.427 113.338C181.995 110.966 180.482 104.584 179.497 102.503L128.544 111.767Z" fill="#FFCF8F"/>
<path d="M161.382 117.653C160.852 114.74 158.061 112.809 155.149 113.338C152.237 113.868 150.305 116.658 150.834 119.571C151.264 121.931 153.184 123.622 155.445 123.906L155.515 135.435L162.585 134.15L158.592 123.334C160.609 122.272 161.811 120.014 161.382 117.653Z" fill="#060305"/>
<path d="M149.683 118.713C149.569 117.303 149.965 115.856 150.78 114.7C151.595 113.544 152.825 112.685 154.192 112.319" stroke="#060305" stroke-miterlimit="10" stroke-linecap="round" stroke-linejoin="round"/>
<path d="M169.478 138.991C176.179 134.532 180.5 126.69 180.69 118.643" stroke="#060305" stroke-miterlimit="10" stroke-linecap="round" stroke-linejoin="round"/>
<path d="M122.3 60.2959C122.636 60.376 122.971 60.4562 123.306 60.5363" stroke="#060305" stroke-miterlimit="10" stroke-linecap="round" stroke-linejoin="round"/>
<path d="M128.894 57.6698C126.5 57.6437 124.133 58.9394 122.865 60.9705C121.596 63.0015 121.471 65.697 122.545 67.8372L133.968 65.0064C134.274 63.706 134.544 62.4021 134.85 61.1011C133.627 59.0428 131.289 57.696 128.894 57.6698Z" fill="#060305"/>
<path d="M135.423 74.1277C134.511 74.1294 133.561 74.198 132.649 74.1997C132.643 73.4818 132.678 72.7059 132.673 71.988C133.9 71.693 134.989 70.8677 135.604 69.7671C136.22 68.6659 136.449 67.3504 136.009 66.1679C135.446 64.655 134.934 63.0241 134.371 61.5117C133.585 62.3585 132.449 62.8557 131.305 62.6965C129.905 64.048 127.557 64.4197 125.817 63.5486C125.767 64.4412 125.85 65.1347 125.801 66.0274C124.79 65.568 123.506 65.7991 122.718 66.5826C121.931 67.3655 121.693 68.6479 122.146 69.6614C122.6 70.6749 123.715 71.3515 124.823 71.2865C124.665 72.3139 124.385 73.3541 124.227 74.3815C123.523 74.6591 122.677 74.9582 121.974 75.2358C123.464 77.5003 126.204 78.8774 128.909 78.7003C131.616 78.5225 134.239 76.567 135.423 74.1277Z" fill="#C14F4F"/>
<path d="M129.486 67.0908C129.807 67.0908 130.067 66.8308 130.067 66.51C130.067 66.1892 129.807 65.9292 129.486 65.9292C129.165 65.9292 128.905 66.1892 128.905 66.51C128.905 66.8308 129.165 67.0908 129.486 67.0908Z" fill="#060305"/>
<path d="M134.276 65.4897C134.597 65.4897 134.857 65.2297 134.857 64.9089C134.857 64.5882 134.597 64.3281 134.276 64.3281C133.955 64.3281 133.695 64.5882 133.695 64.9089C133.695 65.2297 133.955 65.4897 134.276 65.4897Z" fill="#060305"/>
<path d="M132.3 65.2197C132.564 65.8121 132.828 66.4045 133.093 66.9964C132.886 67.0219 132.584 67.0957 132.378 67.1212" stroke="#060305" stroke-miterlimit="10" stroke-linecap="round" stroke-linejoin="round"/>
<path d="M131.516 68.103C131.581 68.3342 131.777 68.5241 132.01 68.5804C132.244 68.6374 132.505 68.5584 132.669 68.383" stroke="#060305" stroke-miterlimit="10" stroke-linecap="round" stroke-linejoin="round"/>
<path d="M128.245 64.9012C128.404 64.5248 128.714 64.2158 129.091 64.0579C129.467 63.8999 129.906 63.8952 130.285 64.0457" stroke="#060305" stroke-miterlimit="10" stroke-linecap="round" stroke-linejoin="round"/>
<path d="M133.112 63.1595C133.436 63.0689 133.759 62.9783 134.082 62.8877" stroke="#060305" stroke-miterlimit="10" stroke-linecap="round" stroke-linejoin="round"/>
<path d="M123.805 67.7949C124.295 67.8094 124.787 67.8245 125.278 67.8391" stroke="#060305" stroke-miterlimit="10" stroke-linecap="round" stroke-linejoin="round"/>
<path d="M128.688 72.0223C130.127 72.4347 131.681 72.4329 133.118 72.0171" stroke="#060305" stroke-miterlimit="10" stroke-linecap="round" stroke-linejoin="round"/>
<path d="M124.69 71.3341C125.039 71.204 125.389 71.0744 125.737 70.9443" stroke="#060305" stroke-miterlimit="10" stroke-linecap="round" stroke-linejoin="round"/>
<path d="M183.332 85.6844C180.247 83.8515 177.284 81.4975 173.717 81.1049C168.512 80.5322 163.273 80.2616 158.036 80.2959C157.788 80.5108 157.702 80.8151 157.84 81.1119C157.331 81.1212 156.775 81.2065 156.266 81.2158C156.095 81.6834 156.243 82.1765 156.604 82.5197C156.965 82.863 157.44 83.0523 157.903 83.2341C159.826 83.9891 161.749 84.7441 163.672 85.4986C162.256 85.7379 160.84 85.7727 159.424 86.012C159.318 86.3704 159.595 86.7148 159.895 86.9372C160.195 87.1597 160.571 87.2497 160.935 87.3345C163.95 88.0378 166.965 88.7417 169.98 89.4451C171.424 90.9929 172.841 92.4919 174.286 94.0397C175.803 95.6648 177.823 96.9356 180.026 96.6324C182.228 96.3298 184.18 94.6496 184.808 92.5169C185.46 90.3 185.32 86.8658 183.332 85.6844Z" fill="#C14F4F"/>
<path d="M163.259 85.3472C165.506 85.3611 167.754 85.375 170.001 85.389" stroke="#060305" stroke-miterlimit="10" stroke-linecap="round" stroke-linejoin="round"/>
<path d="M157.697 80.9062C162.96 81.5068 168.223 82.1073 173.486 82.7084" stroke="#060305" stroke-miterlimit="10" stroke-linecap="round" stroke-linejoin="round"/>
<path d="M173.038 92.6055C174.899 95.5501 178.639 97.1775 182.062 96.5328" stroke="#060305" stroke-miterlimit="10" stroke-linecap="round" stroke-linejoin="round"/>
<path d="M136.25 130.841C134.257 130.784 132.747 130.577 130.754 130.52C124.44 124.401 118.161 118.224 111.848 112.105C113.179 108.163 114.512 104.222 115.843 100.28L96.8747 94.2715C95.3559 98.9248 93.419 103.747 92.1325 108.47C90.4709 114.569 91.4518 123.393 99.9697 129.506C109.254 136.169 118.571 140.628 128.449 145.192L129.703 142.225C135.726 140.615 141.547 137.734 147.777 137.509C148.971 137.466 150.099 136.398 150.04 135.206C145.42 133.77 141.087 130.981 136.25 130.841Z" fill="#C14F4F"/>
<path d="M139.406 139.166C138.562 139.321 137.718 139.477 136.874 139.632" stroke="#060305" stroke-miterlimit="10" stroke-linecap="round" stroke-linejoin="round"/>
<path d="M111.928 111.969C111.082 112.138 110.236 112.307 109.391 112.475" stroke="#060305" stroke-miterlimit="10" stroke-linecap="round" stroke-linejoin="round"/>
<path d="M53.0107 140.633C52.4369 142.416 49.914 142.416 49.3401 140.633C48.7663 138.85 46.2434 138.85 45.6695 140.633C45.0957 142.416 42.5728 142.416 41.9989 140.633C41.4251 138.85 38.9021 138.85 38.3283 140.633C37.7545 142.416 35.2315 142.416 34.6577 140.633C34.0839 138.85 31.5609 138.85 30.9871 140.633C30.4133 142.416 27.8903 142.416 27.3165 140.633C26.7427 138.85 24.2197 138.85 23.6459 140.633C23.0721 142.416 20.5491 142.416 19.9753 140.633C19.4015 138.85 16.8785 138.85 16.3047 140.633" stroke="#060305" stroke-miterlimit="10" stroke-linecap="round" stroke-linejoin="round"/>
<path d="M228.064 127.398C227.491 129.181 224.968 129.181 224.394 127.398C223.82 125.615 221.297 125.615 220.723 127.398C220.149 129.181 217.626 129.181 217.053 127.398C216.479 125.615 213.956 125.615 213.382 127.398C212.808 129.181 210.285 129.181 209.711 127.398C209.138 125.615 206.615 125.615 206.041 127.398C205.467 129.181 202.944 129.181 202.37 127.398C201.796 125.615 199.273 125.615 198.7 127.398C198.126 129.181 195.603 129.181 195.029 127.398C194.455 125.615 191.932 125.615 191.358 127.398" stroke="#060305" stroke-miterlimit="10" stroke-linecap="round" stroke-linejoin="round"/>
<path d="M122.651 47.7767C122.078 49.5598 119.555 49.5598 118.981 47.7767C118.407 45.9937 115.884 45.9937 115.31 47.7767C114.736 49.5598 112.213 49.5598 111.64 47.7767C111.066 45.9937 108.543 45.9937 107.969 47.7767C107.395 49.5598 104.872 49.5598 104.298 47.7767C103.725 45.9937 101.202 45.9937 100.628 47.7767C100.054 49.5598 97.531 49.5598 96.9571 47.7767C96.3833 45.9937 93.8603 45.9937 93.2865 47.7767C92.7127 49.5598 90.1897 49.5598 89.6159 47.7767C89.0421 45.9937 86.5191 45.9937 85.9453 47.7767" stroke="#060305" stroke-miterlimit="10" stroke-linecap="round" stroke-linejoin="round"/>
</svg>
