<svg width="1440" height="158" viewBox="0 0 1440 158" fill="none" xmlns="http://www.w3.org/2000/svg">
<path d="M1912.23 123.579C1900.66 124.28 1888.26 124.757 1881.16 126.53C1878.45 127.206 1847.07 127.222 1840.19 126.628C1837.88 126.429 1835.82 126.164 1832.42 125.799C1831.61 126.823 1832.1 127.72 1825.33 128.181C1821.46 128.444 1821.01 129.177 1822.89 129.742C1824.72 130.294 1828.17 130.612 1832.69 130.52C1840.84 130.355 1848.98 130.204 1857.22 130.721C1710.85 132.862 1563.88 134.105 1417.65 136.379C1417.93 136.857 1418.19 137.336 1418.46 137.817C1562.82 136.185 1707.23 134.687 1852.2 134.189C1845.49 134.81 1838.61 135.268 1830.44 135.348C1778.78 135.86 1726.93 136.147 1675.53 137.009C1619.21 137.951 1562.7 138.42 1506.26 139.077C1477.11 139.416 1447.94 139.736 1418.57 139.527C1404.66 139.428 1395.75 140.418 1396.78 142.952C1411.14 142.143 1425.87 143.235 1439.68 142.168C1442.67 141.939 1449.3 142.17 1451.92 142.546C1455.6 143.072 1451.04 143.664 1448.42 144.271C1459.94 144.007 1472.38 144.524 1479.32 142.492C1482.1 141.68 1484.98 142.431 1488.06 142.8C1494.43 143.565 1501.11 144.628 1506.29 142.423C1509.06 141.243 1517.35 141.965 1523.8 142.075C1533.2 142.235 1545.38 144.281 1551.55 141.182C1553.11 140.397 1559.65 141.257 1561.84 141.996C1563.73 142.632 1559.44 143.856 1569.5 143.735C1576.45 143.653 1579.12 143.676 1579.84 142.153C1580.43 140.877 1595.17 139.968 1607.38 140.872C1622.09 141.96 1635.22 141.31 1648 140.154C1652.59 139.738 1655.16 139.88 1656.36 140.682C1659.9 143.053 1674.6 144.063 1690.91 143.166C1694.18 142.986 1696.61 142.26 1701.54 142.703C1693.88 144.141 1684.9 144.737 1672.45 144.214C1666.18 143.952 1657.8 144.465 1660.04 145.44C1666.35 148.186 1650.84 148.077 1642.93 148.077C1635.24 148.079 1632.51 148.169 1629.29 149.19C1625.71 150.329 1617.48 150.318 1609.67 150.285C1596.17 150.23 1582.91 150.276 1569.58 150.921C1552.64 151.741 1534.73 151.12 1517.46 150.969C1503.88 150.85 1488.06 152.955 1476.04 150.243C1474.61 149.923 1475.29 151.195 1470.72 151.195C1470.52 151.048 1469.94 150.887 1470.21 150.77C1472.09 149.983 1472.41 149.081 1466.21 148.914C1460.48 148.759 1463.54 150.232 1457.84 150.412C1463.81 152.44 1453.38 151.682 1447.48 151.772C1442.5 151.846 1437.48 151.98 1432.66 152.183C1427.49 152.402 1427.35 151.697 1425.58 151.379C1423.3 150.967 1426.05 150.41 1428.22 150.402C1438.66 150.364 1439.46 149.783 1433.66 148.684C1427.67 147.55 1422.7 148.033 1417.8 148.876C1416.74 149.056 1415.21 149.174 1414.97 149.203C1408.85 145.386 1383.92 148.188 1371.74 146.642C1376.76 145.557 1383.23 146.669 1388.94 146.369C1378.22 144.838 1364.39 145.003 1356.06 146.98C1350.67 148.261 1345.16 149.01 1334.82 148.866C1333.2 148.843 1331.49 148.945 1329.82 148.989C1334.19 151.086 1325.42 151.218 1314.65 151.714C1307.69 152.034 1308.61 152.618 1304.8 151.369C1303.51 150.952 1301.79 150.488 1299.42 150.515C1295.35 150.561 1296.79 151.032 1297.79 151.442C1298.92 151.904 1298.06 151.965 1295.06 151.701C1277.95 150.193 1258.68 150.149 1239.65 149.674C1219.63 149.176 1200.87 150.486 1180.22 149.688C1169.91 149.289 1152.43 149.795 1139.5 150.929C1132.5 151.544 1131.4 150.701 1130.41 149.751C1129.09 148.487 1121.25 147.952 1115.76 148.92C1105.67 150.693 1091.2 151.04 1078.53 151.375C1062.39 151.802 1045.68 151.044 1028.16 151.62C1019.88 151.894 1006.11 150.82 994.492 151.115C972.568 151.672 950.176 151.362 928.433 151.431C895.332 151.536 862.555 153.043 828.987 151.992C817.538 151.634 804.272 152.687 793.186 150.856C793.03 154.518 767.912 150.954 763.447 153.401C765.044 153.832 768.029 153.698 770.664 153.746C774.299 153.813 780.387 153.352 781.062 154.055C782.23 155.28 774.052 154.24 772.702 154.558C767.069 155.884 762.058 157.211 747.377 156.38C754.893 155.332 754.14 154.114 750.921 152.944C749.48 152.421 732.125 152.693 721.61 153.355C726.699 154.382 735.902 155.058 735.045 156.542C724.219 157.653 726.491 153.823 711.199 155.924C718.534 153.919 722.778 152.536 703.697 152.94C698.803 153.043 692.325 151.729 686.938 151.005C684.498 150.678 685.887 150.159 687.367 149.852C689.716 149.364 692.91 149.5 696.09 149.81C707.656 150.936 710.537 149.935 708.863 148.489C708.123 147.845 707.526 147.428 711.044 147.018C703.086 146.3 723.233 144.926 709.434 144.687C702.671 144.57 687.704 143.105 686.302 146.189C685.783 147.33 670.271 147.506 667.623 146.533C658.783 143.287 639.857 144.574 626.474 144.541C611.818 144.505 596.306 145.436 582.17 146.551C585.169 147.035 588.077 147.07 590.634 146.863C595.839 146.438 601.174 146.056 606.068 146.803C611.922 147.7 605.029 148.246 602.81 148.948C600.629 149.64 591.179 151.013 608.534 150.354C612.753 150.193 619.802 152.065 628.265 150.653C629.784 150.4 631.99 150.247 631.056 149.872C629.771 149.358 626.915 149.864 625.812 149.772C621.074 149.377 615.258 149.169 622.073 147.956C627.59 146.976 634.561 146.976 640.87 146.711C642.959 146.623 645.205 147.866 646.996 148.55C650.657 149.941 654.564 151.547 669.44 150.923C666.416 152.164 665.857 153.762 651.981 152.419C649.073 152.137 643.388 152.4 639.13 152.522C629.07 152.812 618.971 153.662 609.91 152.112C605.99 151.442 604.212 152.505 602.914 152.476C597.669 152.363 599.655 154.049 594.307 153.302C580.132 151.325 562.128 152.817 545.967 152.137C534.79 151.666 519.538 151.176 505.7 151.549C498.236 151.75 493.369 152.488 487.307 153.417C485.36 152.059 478.285 150.82 489.864 150.094C496.886 149.653 504.987 150.892 512.49 150.077C503.572 148.803 477.519 148.136 467.628 148.998C459.982 149.665 461.838 151.048 457.866 152.007C456.282 152.388 456.815 153.401 453.985 153.191C437.551 151.969 417.379 154.248 406.306 152.898C395.571 151.588 395.273 152.879 389.509 153.009C382.682 153.162 373.738 154.265 366.533 152.877C363.82 152.354 359.069 153.038 358.083 152.959C349.308 152.254 338.287 155.035 330.732 152.549C329.668 152.197 323.632 152.273 322.061 152.775C317.92 154.093 309.989 153.597 304.368 153.48C297.501 153.336 291.517 152.892 286.429 153.988C285.429 154.202 281.873 154.405 280.601 154.305C265.166 153.095 247.642 153.79 231.715 153.089C217.851 152.478 203.274 152.557 189.449 152.708C181.713 152.792 173.795 153.557 164.773 153.666C158.477 153.742 163.643 155.016 160.45 155.602C157.854 156.077 157.023 157.322 150.559 156.046C138.11 153.585 115.446 153.168 97.4803 155.106C90.6914 155.84 83.6818 156.269 74.8418 156.328C75.5947 156.022 75.6466 155.826 76.2957 155.765C80.8259 155.338 88.3938 156.004 91.0159 154.943C92.8073 154.215 89.4193 153.551 86.3818 153.16C80.7611 152.438 74.751 153.022 69.1952 153.423C62.4581 153.907 53.1381 154.001 53.3197 155.562C53.3717 155.997 54.1245 156.46 50.438 156.527C47.4395 156.581 45.4792 156.2 44.4019 155.792C38.1321 153.413 30.1489 151.67 10.3662 153.445C7.45856 153.708 5.34271 153.181 7.54944 152.714C11.8201 151.806 3.94067 151.549 2.86328 150.883C1.52625 150.054 -5.08093 149.529 -12.3502 149.768C-15.4915 149.872 -18.0746 150.098 -17.2958 150.58C-15.9199 151.434 -19.2429 152.697 -8.67651 152.838C-2.99097 152.915 -0.939941 153.231 -7.49524 153.727C-8.48175 153.802 -10.4291 153.846 -10.455 153.913C-10.7795 154.909 -4.79529 156.544 -18.3602 156.324C-28.8617 156.154 -22.9296 154.535 -24.9156 153.599C-28.3036 151.999 -30.2377 151.883 -38.9868 152.869C-40.882 153.082 -44.6205 153.124 -47.0739 153.018C-63.4946 152.323 -74.1388 153.327 -81.6547 155.416C-83.4201 155.905 -87.2883 156.219 -89.6118 155.619C-92.6623 154.832 -97.2186 154.819 -102.034 154.723C-105.15 154.66 -109.265 154.798 -109.395 154.03C-109.511 153.329 -103.657 153.604 -102.203 152.993C-107.409 152.377 -118.092 152.699 -118.572 151.113C-118.741 150.538 -120.493 150.766 -123.712 150.961C-133.747 151.567 -141.535 152.407 -144.975 154.016C-147.078 153.815 -148.882 153.729 -149.791 153.545C-155.814 152.34 -159.072 148.747 -170.417 153.241C-173.065 154.29 -188.954 154.658 -194.042 153.574C-202.077 151.86 -204.245 153.237 -208.737 153.752C-212.981 154.24 -217.213 154.706 -212.826 155.638C-207.672 156.734 -203.116 156.468 -197.924 155.642C-195.302 155.227 -191.836 155.257 -188.876 155.642C-187.162 155.866 -185.241 156.207 -188.214 156.426C-192.965 156.774 -197.495 158.213 -201.688 157.46C-209.879 155.991 -214.279 157.762 -219.64 157.592C-216.564 155.495 -221.133 153.503 -229.739 152.061C-236.489 150.931 -236.853 152.969 -236.554 153.03C-232.297 153.903 -239.112 153.945 -240.695 154.351C-245.368 153.233 -251.885 154.941 -255.688 154.192C-258.18 153.702 -257.544 152.957 -255.26 152.289C-252.222 151.402 -235.698 150.094 -227.974 149.898C-207.633 149.385 -186.371 149.266 -166.757 149.445C-147.312 149.621 -131.579 149.199 -115.054 148.016C-110.693 147.704 -106.526 148.611 -100.788 148.742C-85.8734 149.083 -71.322 146.748 -55.9397 148.927C-48.7873 149.941 -33.9761 149.567 -24.2535 148.74C-11.5323 147.656 0.513855 147.269 14.0139 148.221C21.1014 148.721 28.098 149.301 33.5111 147.799C36.2889 147.029 43.0129 147.207 45.674 147.483C54.4879 148.401 63.6394 147.939 70.5452 147.426C85.577 146.309 103.53 148.067 117.133 146.198C117.445 146.154 118.639 146.154 118.743 146.185C127.012 148.657 144.614 146.503 156.245 147.838C161.995 148.498 171.523 148.893 181.388 147.636C186.749 146.953 201.664 146.618 210.206 147.602C221.759 148.933 231.91 147.711 240.866 147.317C252.172 146.817 235.557 145.961 238.205 145.041C248.992 145.21 249.33 146.522 252.185 147.715C263.609 145.828 281.444 146.844 293.607 145.428C295.477 146.175 294.204 147.617 299.228 147.566C312.455 147.426 325.761 149.073 338.923 147.602C336.444 147.066 330.304 147.571 329.123 146.516C352.865 146.424 376.568 146.759 399.998 146.231C400.945 146.21 403.074 146.478 403.178 146.633C404.645 148.893 417.768 147.939 425.544 148.301C430.048 148.51 439.317 148.313 430.087 146.991C428.361 146.744 427.128 146.056 430.347 145.66C431.398 145.532 433.579 145.602 435.254 145.581C429.347 146.916 440.641 146.886 442.536 147.592C444.898 148.477 448.52 148.59 448.754 148.046C449.455 146.443 460.073 147.077 465.655 146.309C459.917 145.876 455.53 145.547 446.949 144.9C454.66 144.89 457.918 144.741 459.943 144.911C465.304 145.361 469.808 145.141 470.341 144.388C470.73 143.833 465.045 143.827 461.28 143.697C454.232 143.454 448.001 143.735 441.173 143.856C417.807 144.266 393.741 145.108 370.921 143.327C369.194 143.193 367.689 143.057 365.17 143.364C352.787 144.877 339.222 145.258 324.657 144.009C321.438 143.733 315.74 143.08 315.026 143.802C312.871 145.98 302.032 144.758 295.425 145.127C298.527 144.042 294.101 142.973 295.061 141.918C295.658 141.255 293.737 141.199 290.79 141.209C288.597 141.217 285.611 141.228 284.365 141.427C273.63 143.136 259.559 144.292 248.33 143.997C225.666 143.402 202.391 143.22 179.895 143.168C162.008 143.128 143.445 143.138 125.078 143.283C125.467 143.157 125.623 142.979 126.259 142.925C127.544 142.816 146.95 140.062 150.156 139.554C152.727 139.146 156.894 139.119 159.684 139.318C164.046 139.629 168.369 139.617 172.834 139.633C177.611 139.65 184.815 140.577 186.425 141.297C189.813 142.804 201.353 142.766 206.363 142.515C213.658 142.151 227.418 142.071 224.381 139.826C223.524 139.196 226.548 138.367 232.52 138.719C250.511 139.78 268.048 136.737 286.611 138.656C288.947 138.897 298.605 138.035 301.72 136.764C276.966 136.802 253.522 136.013 229.586 137.124C214.359 137.83 196.576 136.327 181.7 138.016C170.134 136.024 154.894 137.212 141.628 137.162C116.744 137.068 91.3405 136.75 62.4062 138.445C85.4213 139.004 91.2106 142.019 109.28 143.268C86.7971 143.942 74.1149 141.182 54.7865 140.606C56.1105 141.483 57.123 142.37 54.2802 143.251C53.073 143.624 53.0212 144.183 49.7371 144.03C31.8105 143.191 15.0134 144.066 -2.0174 144.649C-2.92603 144.679 -4.09436 144.541 -8.45587 144.292C4.3302 142.776 17.8951 143.298 30.0581 143.078C33.8485 143.009 38.8591 143.9 41.1957 142.8C42.1432 142.358 43.2596 141.705 41.8187 141.414C38.963 140.839 34.3287 141.104 29.7725 141.18C16.2335 141.408 2.61682 141.749 -11.1039 141.029C-14.5828 140.847 -24.9805 141.293 -19.7103 142.232C-11.8829 143.626 -22.3063 144.141 -24.2535 144.212C-37.2732 144.685 -50.2281 145.363 -64.0008 145.214C-66.2335 145.189 -69.855 145.252 -70.4521 145.087C-83.6017 141.458 -108.252 142.866 -127.594 142.471C-157.359 141.864 -187.954 142.201 -217.888 141.705C-236.451 141.398 -253.767 141.536 -271.654 142.195C-281.624 142.563 -292.398 142.44 -302.795 142.578C-312.038 142.701 -322.28 142.557 -325.836 144.358C-326.252 144.57 -329.822 144.867 -330.977 144.794C-352.187 143.463 -375.67 144.515 -396.919 143.398C-401.826 143.139 -406.499 142.829 -410.108 142.023C-416.312 140.64 -425.944 139.876 -437.783 140.659C-440.535 140.841 -444.377 141.092 -445.532 140.818C-455.489 138.464 -474.765 140.073 -487.201 138.637C-491.043 138.192 -498.767 138.445 -504.712 138.449C-506.841 138.451 -510.229 138.847 -510.904 138.748C-527.13 136.342 -550.508 138.156 -568.175 136.603C-574.094 136.082 -580.74 137.323 -588.814 136.423C-578.936 136.195 -570.278 135.976 -571.796 134.094C-572.277 133.5 -566.396 132.912 -560.295 133.634C-548.418 135.04 -533.711 133.841 -520.652 134.44C-516.252 134.641 -509.943 134.251 -512.318 133.147C-513.707 132.506 -511.358 131.326 -521.561 131.753C-524.767 131.887 -529.31 131.322 -534.204 131.018C-525.831 129.878 -518.432 131.112 -511.202 130.882C-507.996 130.78 -502.816 131.38 -503.375 130.286C-503.595 129.844 -502.661 129.093 -507.918 129.265C-516.174 129.535 -521.885 127.762 -529.154 128.606C-532.296 128.972 -533.295 129.104 -536.761 128.901C-551.404 128.041 -566.721 128.516 -581.74 128.369C-598.732 128.202 -596.849 129.905 -594.448 130.997C-591.294 132.427 -598.122 132.916 -602.275 133.32C-607.351 133.814 -609.272 132.699 -610.83 132.188C-613.647 131.265 -611.479 130.566 -603.716 130.562C-596.564 130.558 -599.173 129.805 -599.342 129.311C-599.614 128.469 -603.249 128.47 -607.792 128.656C-619.786 129.145 -630.405 128.796 -639.258 127.44C-640.608 127.233 -642.049 126.984 -645.008 127.162C-653.069 127.645 -658.924 128.673 -669.074 128.717C-679.174 128.763 -688.779 128.024 -698.502 128.536C-702.228 127.833 -693.725 126.902 -699.605 126.563C-704.928 126.256 -714.261 126.134 -716.987 126.929C-723.594 128.853 -736.717 128.16 -746.271 128.794C-758.214 129.587 -771.792 129.884 -784.837 130.25C-795.222 130.541 -804.983 130.085 -814.888 129.507C-822.962 129.033 -831.257 129.717 -838.863 130.24C-849.053 130.939 -858.932 131.859 -870.511 130.801C-872.055 130.66 -874.976 131.29 -874.106 130.951C-869.2 129.039 -872.133 126.235 -850.17 126.067C-846.613 126.04 -841.641 125.739 -838.422 124.63C-860.23 125.914 -879.636 124.261 -900.821 124.596C-913.724 124.799 -932.221 124.531 -946.76 123.405C-949.693 123.177 -953.951 123.228 -953.042 122.545C-952.419 122.077 -951.069 121.472 -948.681 121.254C-945.903 121.001 -941.1 120.7 -938.517 121.474C-935.259 122.447 -932.143 122.194 -926.795 121.69C-918.228 120.884 -908.518 121.305 -899.042 121.549C-894.188 121.673 -888.904 121.478 -883.868 121.365C-882.661 121.338 -881.09 121.083 -880.765 120.892C-880.051 120.472 -882.336 120.237 -884.595 120.286C-891.734 120.445 -897.394 119.813 -903.741 119.624C-910.349 119.425 -919.98 119.35 -919.928 118.48C-919.877 117.649 -916.476 116.305 -907.428 115.971C-905.87 115.914 -904.91 115.502 -903.586 115.238C-916.982 114.244 -929.729 116.113 -943.463 115.102C-948.564 114.726 -945.345 116.81 -953.107 117.103C-949.239 118.026 -938.374 117 -936.972 118.555C-942.645 118.436 -947.11 117.716 -952.99 117.869C-960.532 118.067 -965.932 118.061 -960.299 116.569C-959.208 116.28 -959.416 115.424 -965.179 115.791C-971.06 116.167 -972.488 115.837 -974.435 115.018C-980.107 112.631 -980.536 112.652 -991.686 114.14C-985.326 111.9 -985.209 112.026 -969.788 111.696C-958.767 111.461 -947.759 112.283 -936.103 111.522C-939.659 112.319 -946.448 113.089 -941.269 113.93C-937.154 114.6 -930.339 115.081 -923.239 114.514C-918.488 114.133 -913.425 114.278 -908.376 114.24C-903.728 114.206 -893.266 114.669 -900.912 112.966C-903.222 112.451 -900.691 112.168 -897.991 112.085C-894.252 111.972 -891.176 112.062 -893.214 112.867C-894.46 113.359 -891.643 113.715 -888.943 113.725C-886.23 113.734 -883.647 113.372 -884.53 112.892C-887.684 111.195 -881.843 111.365 -873.626 111.539C-868.979 111.637 -860.749 112.239 -859.775 110.609C-859.321 109.844 -857.932 109.463 -865.318 109.433C-893.902 109.312 -922.213 109.638 -950.498 110.212C-955.405 110.312 -967.127 111.195 -960.403 108.956C-958.416 108.297 -964.31 107.309 -967.114 107.592C-976.109 108.502 -988.065 107.324 -995.567 108.734C-999.267 108.023 -994.179 107.494 -994.711 106.839C-995.619 105.725 -997.956 104.811 -983.469 105.545C-972.501 106.1 -955.807 104.93 -944.034 104.191C-931.066 103.375 -918.332 103.666 -905.909 103.151C-899.938 102.904 -893.11 103.103 -887.931 102.361C-883.608 101.743 -880.778 102.137 -876.858 102.593C-867.136 103.725 -857.958 102.538 -848.56 102.266C-850.118 101.467 -839.876 101.31 -842.978 100.864C-849.689 99.8946 -862.19 99.3392 -846.665 97.8146C-845.691 97.7189 -848.469 97.2381 -850.961 97.2745C-855.635 97.3416 -861.749 96.9585 -863.851 97.9774C-865.046 98.5578 -861.943 99.4599 -871.095 99.435C-869.005 97.943 -871.653 96.7134 -883.647 97.8663C-889.177 98.3969 -887.645 97.625 -888.294 97.5388C-890.54 97.2458 -889.216 96.9164 -886.49 96.8627C-873.886 96.6157 -872.549 95.7902 -877.235 94.1009C-882.466 92.2163 -871.121 92.7698 -860.308 92.3791C-873.937 94.0684 -866.59 94.6564 -859.074 95.2367C-857.452 93.7141 -840.797 91.4215 -829.868 91.4119C-823.377 91.4061 -817.133 91.0614 -816.913 90.2915C-816.562 89.0829 -824.143 89.7648 -828.362 89.6996C-844.367 89.4583 -860.282 89.4526 -875.742 90.2493C-876.793 90.303 -878.234 90.4485 -878.857 90.393C-890.228 89.3989 -900.392 89.9065 -911.867 90.5577C-916.956 90.8469 -918.526 89.3396 -921.11 88.426C-915.645 89.1864 -911.037 89.4545 -905.104 88.7114C-897.095 87.7059 -906.571 87.2807 -908.337 86.6161C-903.144 86.143 -897.524 85.9898 -894.162 86.6027C-890.125 87.3381 -887.983 87.5392 -885.075 86.5701C-883.53 86.0549 -873.249 85.8174 -882.31 84.9708C-887.178 84.515 -884.452 84.0094 -884.582 83.4635C-884.75 82.7779 -888.645 82.2933 -892.188 82.9962C-899.549 84.4518 -907.817 84.2526 -918.059 83.8523C-923.29 83.6474 -929.846 83.4118 -935.973 83.9002C-938.556 84.1052 -943.333 84.1224 -943.8 83.3984C-944.241 82.7185 -941.113 82.1688 -936.713 82.2856C-915.515 82.8487 -894.746 82.3297 -877.04 80.8071C-866.486 79.8992 -853.558 81.1978 -845.276 79.5449C-849.611 78.6294 -856.115 79.4415 -861.645 78.9627C-862.437 78.1084 -851.818 78.4551 -854.116 77.3768C-854.492 77.3519 -856.219 77.1451 -857.088 77.2044C-863.683 77.6564 -872.133 77.5664 -876.754 78.5873C-880.129 79.3323 -884.205 78.5854 -884.854 78.4647C-890.553 77.3979 -895.031 77.7197 -900.016 78.5566C-900.431 78.6275 -903.404 79.112 -905.026 78.639C-905.273 78.5662 -900.912 78.2598 -900.704 78.0242C-899.821 77.0531 -916.463 78.3364 -909.427 76.7333C-905.611 75.8657 -900.73 77.5071 -894.642 77.2504C-890.254 77.0646 -888.619 76.6394 -890.138 76.1625C-892.876 75.2988 -893.98 74.8927 -885.802 74.4867C-878.286 74.1132 -874.509 74.4465 -870.29 75.1551C-865.76 75.9174 -865.565 75.9289 -862.203 74.9693C-858.529 73.9217 -853.09 74.4024 -847.366 74.4675C-846.898 75.4673 -859.178 75.2336 -855.388 76.1415C-850.455 77.3213 -842.329 76.1434 -835.333 76.3043C-825.506 76.5303 -834.619 75.3888 -833.606 74.9751C-829.374 73.2437 -816.965 73.5578 -808.917 73.5022C-784.941 73.3375 -761.874 71.8474 -737.418 72.468C-735.303 72.5216 -731.201 72.1749 -730.487 71.8819C-728.773 71.1848 -734.563 71.5736 -735.458 71.3322C-740.222 70.0452 -727.047 70.999 -728.163 69.9379C-742.273 70.1429 -755.566 69.6008 -770.558 69.9705C-786.226 70.3554 -803.763 70.2827 -820.301 70.1256C-833.619 69.9992 -843.731 68.2161 -845.224 66.6149C-846.34 65.4083 -833.437 64.2074 -823.806 63.6616C-821.054 63.5064 -812.85 63.4126 -811.98 63.5486C-792.82 66.5747 -786.681 62.7959 -774.972 62.0547C-772.947 61.9264 -771.402 61.5567 -769.416 61.5088C-753.333 61.1353 -737.185 60.8136 -720.686 60.4669C-725.126 59.3656 -730.668 58.2107 -734.679 56.9505C-741.105 54.9337 -737.509 53.0663 -723.088 52.5396C-708.874 52.0187 -695.646 50.3122 -679.031 51.3713C-674.851 51.6375 -669.477 51.2334 -664.557 50.948C-659.183 50.6358 -651.525 50.0651 -646.735 50.6569C-631.612 52.5205 -636.597 50.3313 -633.793 49.5537C-647.695 48.8144 -662.662 50.5114 -674.501 48.7091C-680.082 49.8391 -688.598 49.4292 -695.724 49.4599C-705.732 49.502 -712.56 48.4027 -719.219 47.4469C-720.206 47.3052 -719.193 46.7574 -715.987 46.8092C-714.417 46.834 -712.171 47.1635 -711.587 47.0964C-704.914 46.3323 -689.571 47.2784 -690.285 45.6715C-690.869 44.3595 -703.876 45.0241 -711.574 44.982C-714.962 44.9628 -718.376 45.0222 -721.764 45.0758C-726.579 45.1524 -730.798 45.0567 -733.342 44.3499C-735.354 43.7888 -733.498 43.3674 -730.746 43.0533C-726.008 42.5113 -721.932 42.9652 -718.973 43.4421C-709.016 45.0452 -698.982 42.8407 -689.156 43.5111C-687.027 42.0555 -677.94 41.1495 -674.539 39.9525C-667.919 37.6254 -656.483 38.2632 -647.137 38.6865C-636.168 39.1845 -624.68 39.4009 -613.75 40.19C-606.728 40.6975 -593.526 39.6824 -584.271 39.0044C-580.533 38.7305 -583.817 37.9242 -589.035 37.5661C-594.409 37.1964 -598.835 37.6925 -603.431 37.7346C-621.007 37.8936 -634.831 36.1181 -652.109 36.0415C-665.089 35.9841 -676.655 35.8021 -687.39 37.7116C-686.482 33.3352 -713.079 31.4161 -724.178 28.1296C-722.27 27.9821 -720.946 27.8193 -720.569 27.8576C-708.134 29.1351 -707.939 29.2787 -691.622 28.7539C-678.862 28.3441 -668.633 29.9356 -656.12 29.3955C-651.291 29.1868 -641.646 30.3129 -644.437 28.2349C-645.034 27.7886 -637.207 27.7312 -634.13 27.9055C-626.303 28.3479 -618.8 27.8806 -610.83 27.8806C-617.398 26.3464 -628.938 26.9995 -637.882 26.6682C-658.015 25.9232 -679.07 26.197 -699.683 25.4099C-710.327 25.0038 -709.029 22.219 -723.425 23.3356C-722.945 23.1384 -722.413 22.7668 -722.01 22.7706C-712.911 22.8453 -726.8 20.9933 -714.365 21.0316C-676.98 21.1446 -639.66 19.5625 -602.107 20.9147C-597.914 21.066 -597.356 20.8956 -593.448 19.4974C-586.244 19.5836 -592.449 21.4165 -584.57 21.1637C-572.251 20.7692 -567.643 19.1718 -563.476 17.766C-575.717 15.3968 -591.618 16.9348 -605.949 16.7892C-607.338 16.7758 -609.376 16.9195 -610.194 17.0861C-617.982 18.6681 -631.171 19.3959 -645.787 18.9669C-656.211 18.6605 -666.478 18.2046 -677.24 18.423C-680.251 17.3945 -665.089 17.9978 -670.905 16.4924C-678.901 14.4181 -688.039 16.7548 -696.918 15.9408C-689.532 15.054 -680.602 14.8223 -673.073 15.0042C-662.532 15.2609 -656.717 14.5695 -651.849 13.5026C-639.907 10.8864 -622.876 9.04008 -607.26 6.98499C-604.949 6.68047 -600.004 6.66513 -601.484 6.01969C-606.936 3.62943 -594.682 5.36084 -592.254 4.85137C-587.464 5.93925 -602.288 5.87797 -595.694 6.98499C-590.32 7.88517 -585.997 7.34506 -581.013 6.97349C-570.628 6.20164 -568.11 7.54424 -563.865 8.40994C-564.735 8.55359 -565.605 8.69723 -566.474 8.84088C-578.404 10.2697 -592.319 10.8328 -607.247 10.5704C-611.648 10.4938 -615.983 10.555 -620.176 10.4593C-630.262 10.2294 -628.263 11.4801 -628.613 12.0968C-629.198 13.1292 -623.006 13.02 -617.826 13.0736C-601.12 13.2422 -583.414 13.4816 -567.941 13.0717C-553.779 12.6963 -541.876 14.2783 -528.22 13.2479C-520.938 12.6982 -513.746 13.2843 -511.708 14.9582C-510.423 12.6523 -500.104 13.3686 -492.588 13.3552C-471.663 13.3188 -450.283 12.9625 -429.942 13.4797C-413.288 13.9029 -397.776 11.6104 -380.485 13.4529C-377.422 13.7804 -365.233 11.6314 -353.693 11.823L-353.771 11.8134C-348.345 13.3226 -338.674 12.8591 -330.146 12.9089C-315.867 12.9932 -301.173 13.5333 -288.218 12.0911C-284.064 11.6295 -283.181 12.047 -281.26 12.5565C-278.716 13.2288 -274.77 13.8014 -271.018 14.3569C-268.76 14.692 -265.502 15.2436 -262.49 14.8625C-259.946 14.5407 -259.375 13.8666 -258.064 13.3418C-256.584 12.7461 -257.882 12.4071 -262.347 12.2998C-265.021 12.2347 -270.395 12.5373 -268.786 11.6602C-267.553 10.9917 -263.996 11.3097 -260.517 11.3824C-239.683 11.8153 -218.836 11.595 -197.885 11.5299C-179.088 11.4725 -160.331 11.0415 -141.366 11.0683C-129.112 11.0856 -112.899 11.595 -100.243 9.94025C-94.3109 9.16648 -83.6017 7.67066 -75.8522 9.96898C-73.269 10.7351 -70.4133 10.2582 -67.7523 10.0609C-61.9758 9.63571 -65.0262 8.97303 -65.4935 8.33142C-66.0127 7.60745 -67.5576 7.42933 -72.6719 7.36996C-88.9629 7.18034 -105.241 7.59213 -118.546 8.71065C-129.073 9.5955 -140.224 8.1399 -148.817 9.46718C-149.077 9.5074 -150.803 9.27948 -151.803 9.28714C-160.149 9.35992 -165.498 8.58041 -165.043 7.33166C-165.017 7.25121 -164.745 7.17269 -164.745 7.09225C-164.758 6.14611 -178.79 7.0865 -174.259 5.606C-170.936 4.51813 -164.316 5.44895 -159.604 5.23635C-153.997 4.98353 -148.791 4.75561 -142.69 4.63686C-116.859 4.14273 -90.871 4.5392 -65.0262 3.98185C-31.8083 3.26554 1.88983 3.30384 35.4712 3.46281C39.7549 3.48196 42.8702 3.82863 45.4015 4.30744L45.4534 4.29596C42.2341 4.32852 39.0668 4.69433 39.3134 5.01801C41.0658 7.32974 29.4092 7.43508 19.7774 7.40827C-2.75726 7.34315 -25.2272 8.38696 -47.9695 7.43315C-50.9032 7.31058 -58.8734 7.889 -58.8214 9.01134C-58.7825 10.0532 -53.3435 10.0743 -49.3325 9.94791C-33.6127 9.45377 -16.1796 10.5933 -1.75793 8.86386C-0.174255 8.67425 2.88922 8.42911 3.97961 8.52487C26.2936 10.5014 47.9456 8.38314 69.8312 8.26439C81.7736 8.19927 94.2092 8.73937 105.957 7.88324C108.073 7.73002 111.85 7.82005 114.096 8.002C125.934 8.96155 125.752 8.36207 139.214 8.31419C151.156 8.27205 167.603 6.2706 177.741 9.22011C180.635 10.0628 187.165 9.55336 190.059 8.85429C195.498 7.5385 204.728 7.47529 210.309 8.19926C224.809 10.0801 238.53 8.89451 251.316 8.14372C260.065 7.63043 268.541 7.10947 280.51 6.92752C270.943 5.78028 267.71 4.13699 255.262 3.89758C252.211 3.83821 245.682 3.69838 249.213 2.58944C251.484 1.87122 251.251 0.482653 258.144 0.905927C279.86 2.24087 299.708 -0.0631935 321.425 0.524794C334.458 0.877203 348.866 0.0268141 355.448 3.28277C359.407 1.60116 360.575 -0.197271 372.595 1.44603C375.581 1.85398 378.67 1.30813 381.254 0.984454C387.549 0.193448 398.051 0.0172436 401.828 0.532451C412.667 2.01104 420.546 1.13385 429.49 0.361998C435.215 -0.132141 441.394 0.0172395 447.624 0.0344769C473.041 0.111088 498.457 0.168555 523.886 0.151317C539.489 0.141741 544.617 1.70459 549.355 3.25213C526.262 4.25573 502.884 3.26745 481.894 2.83077C461.968 2.41515 447.118 4.62346 429.062 3.40918C437.24 4.21359 444.743 4.95098 454.335 4.88586C460.112 4.84755 465.707 5.02376 468.355 5.92585C470.406 6.62492 472.95 6.94669 476.61 6.18633C486.216 4.19445 498.457 4.74603 509.361 5.64813C517.993 6.36061 527.638 6.61343 536.218 6.74558C549.108 6.94669 563.179 6.46021 558.519 3.50495C584.39 4.46641 608.729 5.40106 633.185 6.25335C638.221 6.42956 639.299 5.08504 646.815 5.41063C660.899 6.01777 685.549 5.74581 701.944 5.27082C707.539 5.10802 714.938 4.40321 718.715 5.89138C719.196 6.07907 725.595 7.20716 729.84 5.82434C733.513 4.62729 734.539 6.20355 737.511 6.12694C743.223 5.98138 753.166 8.15714 754.386 5.33595C754.815 4.35725 762.759 4.95672 764.486 5.40297C768.523 6.44871 774.494 6.96008 780.919 6.44679C786.852 5.97181 783.269 5.06014 780.932 4.26339C777.778 3.18892 782.788 2.49751 788.734 2.10488C795.276 1.67395 796.925 2.4324 799.391 3.15254C800.91 3.5988 802.493 4.77668 808.439 4.05079C813.657 3.41492 807.75 2.79055 805.466 2.12404C819.784 3.43217 840.215 3.03188 849.549 5.92393C838.19 6.85858 829.351 5.57535 819.823 5.07547C816.954 4.92416 812.411 4.32851 813.475 5.24784C814.319 5.97947 804.259 6.01204 810.412 6.77623C819.161 7.86218 863.166 8.37355 872.654 7.43315C875.16 7.18608 878.12 6.83176 877.626 6.01969C869.072 6.5483 862.685 5.89904 854.196 5.20379C861.699 4.52387 876.082 5.50449 872.252 3.21191C871.668 2.86717 874.705 2.69671 877.081 2.68138C897.188 2.55115 916.984 2.89589 936.429 3.64285C938.909 3.73861 940.999 4.03355 941.102 4.55834C941.284 5.39723 944.49 5.78794 947.411 5.38382C960.379 3.58155 977.176 3.35939 993.116 3.13339C1007.95 2.92271 1023.02 4.07761 1038.45 3.22914C1039.73 3.15828 1043.29 3.98376 1045.64 4.36873C1041.24 5.38574 1033.02 3.93205 1029.2 5.05823C1027.17 5.66154 1034.99 7.55765 1039.61 7.55765C1071.64 7.5634 1103.22 6.29166 1135.44 6.8605C1140.44 6.9486 1141.76 6.26484 1144.23 5.86263C1154.77 4.15039 1164.84 4.26914 1169.25 6.36061C1171.03 7.20716 1172.24 7.075 1176.78 7.05393C1188.17 7.00414 1185.97 5.73624 1187.78 4.24233C1191.75 5.91819 1203.26 5.96224 1206.65 5.89712C1220.06 5.63856 1229.83 6.4966 1240.48 7.28569C1249.69 7.96752 1258.28 7.86218 1266.3 6.78006C1271.79 6.03885 1278.04 5.81477 1286.2 6.02353C1300.22 6.3836 1314.6 6.37785 1331.01 4.72306C1326.58 6.28784 1323.01 7.61128 1336.2 7.09608C1346.32 6.69962 1349.13 8.12074 1355.98 8.77194C1360.5 7.55766 1357.24 6.5847 1352.57 5.60217C1373.03 5.67303 1387.41 7.98858 1406.67 7.83153C1413.37 7.77599 1420.17 7.98092 1426.43 7.40443C1432.94 6.80495 1438.62 7.09607 1445.25 7.61511C1450.66 8.03838 1459.3 9.60315 1463.76 7.24546C1465.22 6.47935 1469.82 7.05202 1471.63 7.37761C1475.16 8.01157 1478.38 8.70873 1480.78 9.44611C1488.36 11.7732 1501.13 11.641 1515.65 11.3537C1533.7 10.9975 1550.16 10.2045 1565.27 8.70489C1562.01 7.62085 1553.83 8.68766 1550.36 7.66873C1562.18 5.61174 1580.24 5.86073 1595.5 5.12144C1596.41 5.07739 1598.53 5.3436 1599.33 5.53513C1602.98 6.40083 1589.83 6.00246 1594.01 7.33931C1598.96 8.91941 1589.21 7.82004 1585.86 7.91197C1579.63 8.08434 1571.68 7.93688 1570.23 9.22585C1568.27 10.9649 1578.88 9.95174 1583.11 10.3654C1585.96 10.647 1590.69 10.5301 1594.59 10.5627C1597.79 10.5895 1600.99 10.5761 1606.23 10.5819C1597.64 12.2979 1586.87 11.8249 1578.29 11.708C1570.87 11.6065 1563.69 11.6353 1556.52 11.754C1550.85 11.8498 1542.41 11.8708 1549.42 13.3418C1550.34 13.5371 1548.95 13.9642 1548.75 14.286C1548.38 14.8395 1537.82 14.8414 1544.62 15.711C1550.6 16.4751 1555.72 15.5884 1558.39 15.031C1560.91 14.5062 1564.61 14.2132 1566.11 14.5062C1577.41 16.7031 1579.9 15.1842 1587.2 13.8282C1596.8 12.0432 1612.5 13.3245 1621.59 13.9815C1634.41 14.9085 1645.47 14.761 1656.6 14.2075C1667.29 13.6769 1673.84 13.6061 1675.23 16.1419C1684.08 13.3916 1692.42 14.0906 1702.61 15.3126C1710.82 16.2989 1720.53 17.1014 1732.53 16.6015C1736.84 16.4215 1740.25 16.3104 1738.6 15.5213C1737.84 15.1594 1735.01 14.8146 1739.69 14.5848C1743.94 14.376 1747.16 14.7801 1747.75 15.1862C1751.88 18.0035 1768.2 16.4464 1772.25 16.0461C1791.46 14.15 1811.61 12.9396 1834.51 12.6542C1835.58 12.6408 1836.61 12.5431 1838.49 12.4378C1831.71 11.2331 1823.9 11.7521 1814.92 12.2118C1822.85 11.007 1836.18 10.6317 1842.14 11.5893C1848.63 12.6331 1852.09 12.5584 1857.78 11.5778C1859.53 11.2752 1864.17 11.2426 1867.48 11.2445C1877.84 11.2503 1888.26 11.9723 1898.28 10.6719C1900.44 10.3922 1910.38 10.5723 1914.96 11.6659C1919.28 12.7002 1943.88 12.8553 1949.84 12.116C1954.53 11.5338 1954.53 11.5338 1952.83 9.72766C1961.08 12.0585 1970.04 12.9127 1984.51 11.4514C1987.29 11.1699 1997.61 10.9438 1997.91 12.4837C1998.18 13.8838 2002.74 13.7478 2008.24 13.0602C2022.6 11.2675 2036.45 11.1526 2051.38 12.6369C2058.66 13.3609 2066.78 12.861 2074.43 12.7097C2077.48 12.6504 2080.04 12.1275 2083.31 12.6867C2085.44 13.0506 2084.49 13.3705 2082.31 13.4624C2078.69 13.6156 2079.86 14.8472 2073.98 14.3109C2064.98 13.4892 2061.24 13.8455 2058.2 15.3183C2055.01 16.8582 2063.2 16.9252 2068.11 17.4079C2071.47 17.7392 2074.74 18.0322 2076.86 18.7332C2045.6 20.5183 2006.5 17.992 1979.64 22.537C1987.67 22.8951 1996.08 22.9909 2001.23 22.3627C2006.46 21.7249 2014.94 21.8168 2015.89 21.9088C2036.99 23.9677 2061.73 21.1752 2082.83 23.0656C2088.22 23.5482 2091.4 22.4986 2095.32 22.0371C2105.64 28.9416 2120.77 21.5755 2133.15 22.4125C2135.95 23.2858 2123.68 24.3526 2134.69 25.1015C2135.01 25.1226 2135.28 25.3026 2135.09 25.3256C2125.98 26.4958 2120.65 27.7599 2122.78 29.7479C2123.33 30.2631 2114.51 30.9297 2123.96 31.6881C2127.25 31.9524 2127.9 32.933 2129.75 33.5861C2124.63 33.7011 2120.9 34.2737 2114.77 34.2124C2092.71 33.9922 2070.79 33.657 2048.3 33.9443C2039.29 34.0592 2032.27 34.3274 2024.13 34.6549C2046.82 37.9089 2073.55 36.0741 2098.18 36.3441C2102.07 36.3863 2105.66 36.2445 2109.09 36.6391C2117.84 37.6446 2125.73 37.7001 2132.6 36.2005C2134.95 35.6872 2140.07 35.3731 2142.6 35.8806C2146.54 36.6697 2141.66 36.7521 2137.41 36.7559C2136.54 36.7559 2135.06 36.8862 2134.89 36.9934C2129.3 40.3911 2111.13 40.0502 2093.69 40.1747C2089.53 40.2034 2085.15 39.4507 2081.58 40.1383C2074.82 41.4387 2068.48 42.7756 2060.06 43.8826C2057.88 44.168 2062.77 44.7656 2064.5 44.4859C2070.12 43.5723 2079.28 44.8039 2085.13 43.4115C2090.62 42.1033 2091.98 44.6851 2099.85 44.0665C2092.02 41.1802 2119.76 43.444 2116.36 40.6133C2121.78 41.8582 2113.11 42.3293 2118.11 42.8369C2121.89 43.2218 2124.3 42.7335 2126.73 42.3983C2129.4 42.0267 2133.3 41.7203 2135.76 42.1033C2146.46 43.76 2162.3 43.3712 2172.68 43.1108C2185.12 42.8005 2185.16 44.5453 2194.59 44.7253C2204.34 44.9111 2214.21 44.9073 2223.98 45.0624C2240.96 45.3306 2258.02 44.1508 2274.9 45.162C2275.98 45.2271 2278.24 45.1429 2278.94 45.0107C2289.73 42.9805 2306.31 45.0835 2318.46 43.8022C2321.01 43.5321 2321.35 44.3346 2322.23 44.6851C2323.6 45.2176 2323.54 45.6638 2318.95 45.8324C2314.07 46.0124 2309.16 46.2595 2304.88 45.6102C2300.91 46.474 2289.86 42.8522 2289.69 46.1311C2278.28 45.6753 2267.93 46.8226 2256.45 46.5774C2246.66 46.3686 2237.12 46.8819 2235.4 48.4371C2233.37 50.2815 2239.09 51.3694 2258.32 50.3811C2246.44 51.8406 2237.18 52.0934 2227.93 52.2983C2223.81 52.3902 2219.06 52.4534 2218.75 53.1372C2218.33 54.0393 2224.54 53.8631 2228.19 54.1542C2235.5 54.7384 2242.7 54.1025 2249.74 54.3476C2252.73 54.453 2256.77 53.8095 2258.48 54.4434C2260.15 55.0544 2256.65 55.4125 2253.25 55.8013C2249.25 56.2572 2245.67 56.7705 2238.94 56.87C2258.89 59.4384 2280.95 59.1358 2302.81 58.9385C2307.92 58.8926 2308.28 59.4135 2308.45 59.9C2308.73 60.7159 2313.56 60.9611 2316.64 60.8921C2324.01 60.7293 2318.66 60.1605 2317.34 59.741C2326 59.607 2334.27 58.8581 2343.26 59.3254C2346.38 59.4882 2350.06 59.697 2351.92 60.059C2363.15 62.2673 2378.48 63.267 2395.54 62.3324C2412.18 61.4207 2419.46 63.2594 2431 64.2821C2417.93 63.8263 2410.92 64.4832 2406.08 66.32C2400.38 68.4804 2394.64 66.0174 2388.59 66.002C2386.62 66.7241 2394.37 68.4268 2377.92 67.4117C2364.03 66.5536 2346.43 66.9501 2330.45 66.9214C2325.54 66.9118 2317.81 66.5479 2316.26 67.7066C2314.63 68.9343 2322.64 69.1048 2327.91 69.4974C2330.28 69.6736 2333.15 69.7043 2336.66 69.8326C2331.61 71.0507 2318.68 69.7349 2315.78 71.5812C2329.16 71.6981 2342.37 71.6693 2355.17 71.9853C2361.85 72.15 2374.82 71.6961 2370.65 74.0155C2368.15 75.4137 2369.33 75.2221 2359.71 74.908C2351.99 74.6571 2344.91 74.2722 2334.6 74.6648C2309.49 75.6224 2293.4 78.7443 2269.4 79.6215C2271.32 77.4036 2271.32 77.4381 2285.99 77.3347C2291.16 77.2983 2297.63 77.576 2298.43 76.1625C2299.15 74.8736 2293.73 74.5671 2288.26 74.5652C2272.11 74.5614 2255.95 74.7414 2239.8 74.8602C2237.51 74.8774 2233.9 75.1149 2234.82 75.3371C2242.67 77.2389 2228.76 78.5509 2229.34 80.2057C2229.51 80.6634 2224.15 81.3702 2230.99 81.6306C2235.62 81.8068 2239.35 81.3663 2240.32 80.8147C2242.21 79.7575 2248.19 79.5028 2255.68 78.8037C2248 81.5904 2259.35 81.4199 2270.27 81.3261C2279.11 81.2495 2288.2 80.9507 2296.73 81.1595C2309.63 81.4755 2327.93 81.0963 2323.05 84.5782C2334.27 84.1339 2345.47 84.2794 2345.88 82.0137C2345.98 81.508 2352.24 80.018 2362.21 80.9622C2371.82 81.872 2377.32 80.2938 2383.49 79.7613C2390.55 79.1504 2381.46 78.5949 2378.84 78.1104C2374.69 77.3423 2378.67 76.7429 2381.11 76.3732C2384.35 75.8829 2388.38 76.3158 2391.12 76.7907C2398.98 78.1621 2395.87 80.1137 2383.61 80.945C2377.86 81.3357 2376.8 82.0711 2375.82 82.7127C2374.55 83.5497 2380.4 83.0728 2382.83 83.2644C2384.13 83.3659 2386.29 83.6168 2386.14 83.6608C2385.23 83.9347 2384.05 84.3312 2382.45 84.3905C2367.3 84.9594 2353.75 86.3307 2337.76 86.4188C2321.57 86.5088 2304.29 84.697 2288.83 87.1485C2287.76 87.319 2268.56 88.2498 2262.34 86.1717C2261.68 85.9495 2255.37 85.8078 2255.06 85.894C2244.57 88.8129 2229.76 85.7197 2217.47 86.4475C2214.75 86.6084 2206.55 86.957 2203.85 85.8155C2203.29 85.578 2199.2 85.2945 2198.62 85.6872C2193.97 88.8244 2176.48 86.98 2164.83 87.8687C2176.17 87.9759 2180.76 90.7894 2196.5 89.2572C2199.45 88.9699 2204.45 88.9278 2208.08 89.0465C2224.07 89.5713 2240.13 89.7475 2256.39 89.51C2262 89.4277 2266.42 89.6211 2268.97 90.5558C2261.7 90.5615 2255.51 91.6935 2247.59 90.5883C2244.01 90.0885 2240.67 90.8067 2238.07 91.2395C2236.11 91.5651 2234.09 91.9692 2235.83 92.3523C2238.08 92.8464 2241.93 92.7047 2245.11 92.517C2253.11 92.0478 2258.06 93.8845 2269.04 92.3178C2259.55 95.1505 2246.65 94.302 2235.95 94.5242C2232.48 94.5951 2226.73 94.3748 2227.2 95.2712C2227.55 95.953 2232.29 95.7423 2235.44 95.7634C2247.57 95.8496 2259.69 95.9224 2271.27 95.9951C2257.32 97.5523 2240.25 98.2532 2222.98 98.9083C2218.49 99.0787 2217.3 99.6935 2217.97 100.312C2218.93 101.191 2213.67 101.628 2211.96 102.312C2209.79 103.179 2206.13 102.589 2204.04 102.392C2199.75 101.986 2204 101.831 2205.74 101.609C2207.81 101.344 2209.78 101.067 2211.79 100.795C2206.82 100.107 2217.71 99.4292 2212.44 98.9217C2208.05 98.4984 2203.67 99.0213 2201.37 99.661C2196.29 101.069 2186.82 100.718 2173.49 100.82C2191.18 101.871 2192.75 104.292 2205.35 104.89C2174.08 105.907 2157.01 110.565 2124.15 111.233C2130.88 112.415 2141.57 111.158 2144.58 112.863C2137.92 113.229 2130.65 113.376 2123.95 113.043C2116.66 112.681 2111.13 113.003 2104.74 113.424C2095.16 114.056 2085.84 113.957 2075.78 113.225C2062.84 112.284 2049.18 113.369 2035.79 113.436C2003.98 113.595 1973.4 115.184 1941.35 115.15C1932.04 115.14 1922.62 115.594 1913.44 115.948C1910.56 116.059 1903.77 115.814 1905.89 116.808C1907.04 117.352 1910.75 117.833 1915.27 117.417C1918.93 117.08 1922.32 116.937 1926.29 117.17C1929.11 117.965 1917.74 117.617 1921.74 118.329C1923.59 118.66 1927.97 119.139 1931.89 118.48C1936.85 117.645 1939.72 118.025 1943.43 118.785C1950.33 120.198 1937.99 119.369 1937.9 119.901C1937.53 122.388 1917.62 121.855 1912.13 123.544L1912.23 123.579ZM952.149 140.749C938.96 139.613 926.758 139.274 911.934 139.705C899.603 140.065 885.791 140.717 873.654 140.387C833.284 139.292 792.615 139.954 752.271 139.809C722.09 139.7 691.819 139.828 661.431 139.587C628.045 139.32 594.567 140.429 560.804 139.61C552.509 139.409 540.658 138.694 537.075 138.964C515.021 140.632 492.979 139.081 471.184 139.343C444.249 139.669 417.146 139.916 389.873 139.874C366.079 139.838 342.233 141.174 318.011 140.297C310.015 140.008 311.612 141.163 307.73 141.626C522.822 142.559 737.68 142.406 952.149 140.749ZM1769.43 120.135C1759.33 120.897 1773.78 121.589 1776.47 121.782C1786.02 122.47 1796.1 121.288 1806.62 121.593C1809.7 121.681 1810.5 120.733 1810.96 119.905C1803.96 120.421 1797.15 120.767 1791.77 119.162C1802.74 120.152 1812.2 119.373 1821.4 119.545C1828.3 119.674 1821.76 117.835 1826.2 118.643C1831.84 119.668 1839.63 119.635 1845.71 120.277C1853.26 121.076 1862.48 122.006 1861.84 123.242C1861 124.895 1865.95 125.375 1874.1 125.829C1878.59 125.389 1873.12 124.031 1882.27 124.01C1887.47 123.998 1894.67 125.034 1897.67 123.439C1888.05 122.589 1874.86 122.886 1866.92 121.246C1880.61 122.317 1896.1 119.993 1909.4 121.989C1911.81 122.349 1915.01 122.008 1916.45 121.648C1919.17 120.963 1922.24 120.468 1928.19 120.491C1930.88 120.501 1934.19 120.419 1934.15 119.856C1934.11 119.26 1930.64 119.344 1927.98 119.271C1911.08 118.808 1894.14 118.371 1877.32 117.848C1870.96 117.651 1863.21 118.18 1862.01 118.524C1853.51 120.989 1845.51 119.003 1840.26 118.379C1832.27 117.431 1824.81 117.054 1814.85 117.274C1798.12 117.645 1782.37 118.576 1764.07 118.092C1754.89 117.848 1739.15 118.689 1738.36 121.206C1751.83 121.543 1763.81 121.388 1769.43 120.135ZM881.858 145.723C888.206 145.105 901.277 145.892 900.667 144.848C899.836 143.408 887.453 143.95 879.586 143.858C878.47 143.844 877.328 143.881 876.198 143.884C850.159 143.978 823.977 143.854 798.119 144.231C775.065 144.568 751.816 143.785 728.879 144.796C718.676 145.246 723.012 145.828 725.998 146.482C729.399 147.227 735.058 147.154 739.926 146.989C757.255 146.403 774.117 147.008 791.057 147.361C797.015 147.485 803.065 147.51 806.79 146.838C815.305 145.302 827.391 145.371 837.594 145.635C852.755 146.028 867.281 145.16 881.858 145.723ZM-725.567 118.771C-754.527 118.785 -779.995 119.585 -805.633 119.191C-807.852 119.156 -816.03 119.25 -815.641 120.172C-815.212 121.212 -808.67 121.167 -804.01 121.049C-794.508 120.806 -787.875 120.874 -787.33 122.686C-787.265 122.903 -783.864 126.053 -773.206 123.301C-771.519 122.868 -768.845 122.977 -765.95 123.215C-752.424 124.318 -738.392 123.313 -724.593 123.362C-722.581 123.37 -720.011 123.324 -719.375 122.885C-718.557 122.315 -721.829 122.252 -723.931 122.014C-731.447 121.162 -739.742 120.972 -748.777 121.3C-752.697 121.441 -757.746 121.543 -757.643 120.761C-757.565 120.158 -753.502 120.336 -749.763 120.463C-740.923 120.76 -734.121 120.112 -725.567 118.771ZM423.428 3.42259C396.869 3.68882 370.908 3.96461 344.933 4.19636C338.456 4.25382 330.2 4.81307 331.628 2.80395C332.615 1.40964 321.178 1.52838 316.337 1.60691C304.55 1.79844 318.388 2.30981 316.674 2.80395C315.649 3.0989 315.337 3.3728 312.936 3.50495C306.705 3.84778 304.355 4.49514 307.094 5.42213C310.041 6.41616 315.207 6.31656 321.931 6.35869C341.74 6.48319 361.12 5.83391 381.085 5.99287C395.584 6.10779 416.821 7.47913 423.428 3.42259ZM1208.87 146.246C1223.41 146.242 1224.9 145.24 1224.94 143.208C1224.98 140.931 1216.2 142.369 1211.8 142.013C1198.65 140.948 1203.94 142.91 1200.9 143.409C1194.12 144.526 1193.85 140.63 1185.47 143.055C1182.82 143.819 1175.26 144.118 1168.77 143.936C1159.36 143.674 1150.44 144.042 1141.42 144.266C1137.51 144.363 1130.75 144.013 1130.97 145.013C1131.17 145.896 1138.48 145.715 1141.92 145.798C1164.02 146.326 1186.44 146.353 1208.87 146.246ZM1120.96 146.428C1118.85 145.317 1108.7 145.095 1112.72 143.909C1113.98 143.536 1121.99 143.75 1118.38 142.839C1116.04 142.249 1111.15 142.578 1107.43 142.592C1096.9 142.632 1086.31 142.636 1075.91 142.835C1071.29 142.923 1064.64 142.638 1062.12 143.429C1058.1 144.689 1072.77 143.72 1070.36 145.202C1062.86 144.48 1054.85 144.691 1046.86 144.779C1039.38 144.861 1041.5 146.102 1042.7 146.081C1057.75 145.805 1045.01 147.355 1049.71 148.081C1061.43 146.487 1080.85 148.098 1092.09 145.748C1093.9 145.369 1096 145.744 1095.34 146.127C1092.9 147.543 1100.43 146.932 1103.08 146.842C1108.76 146.648 1113.8 146.012 1120.96 146.428ZM2014.96 26.0227C2008.8 29.294 2009.76 29.6369 2025.43 29.6005C2040.68 29.5641 2057.65 29.386 2070.2 28.6658C2084.19 27.8614 2094.95 27.8614 2107.91 28.3211C2111.62 28.4532 2116.27 28.1104 2117.06 27.5147C2118.12 26.7046 2111.48 26.492 2109.13 26.5418C2098.92 26.7563 2088.94 26.2583 2078.36 26.6395C2070.77 26.9114 2051.64 28.051 2062.51 24.3488C2045.51 25.3332 2032.62 27.3443 2014.96 26.0227ZM991.909 146.61C1006.93 148.621 1025.88 147.864 1038.07 144.89C1039.96 144.425 1046.9 144.013 1041.46 143.342C1037.35 142.837 1030.55 142.392 1026.49 143.285C1015.31 145.738 1000.4 145.629 983.29 145.141C977.397 144.972 969.517 145.541 964.156 146.104C961.924 146.338 966.519 147.288 969.634 147.728C975.268 148.527 982.939 148.654 989.832 148.397C996.647 148.142 988.028 147.263 991.909 146.61ZM1788.61 19.7119C1795.23 19.6449 1798.63 19.6219 1802.01 19.576C1806.6 19.5128 1812.8 19.3902 1811.27 18.559C1809.86 17.7871 1803.13 17.0248 1798.07 17.2853C1786.15 17.8963 1772.69 17.0593 1761.53 18.2946C1758.79 18.5973 1753.78 18.4632 1751.96 17.7373C1751.09 17.3906 1751.3 16.931 1746.77 17.3581C1734.8 18.4843 1721.75 19.1029 1707.36 18.536C1704.45 18.4211 1702.96 18.6413 1702.06 18.9305C1700.79 19.3404 1703 19.5032 1705.24 19.5951C1708.44 19.7234 1711.6 19.8805 1714.86 19.9456C1740.6 20.4627 1766.11 19.3825 1788.61 19.7119ZM1383.63 13.9049C1391.12 14.0734 1396.13 14.1309 1400.95 14.3013C1430.24 15.3356 1460.02 14.8778 1489.61 14.8414C1493.54 14.8357 1501.51 15.0004 1503.61 13.8934C1495.06 13.6041 1494.68 12.0221 1486.94 11.6027C1480.69 14.2362 1466.11 12.614 1455.49 12.8687C1441.12 13.2134 1425.44 13.7612 1412.12 13.2307C1401.25 12.7997 1394.35 13.0181 1383.63 13.9049Z" fill="#FDEF9E"/>
<path d="M45.542 4.31728C53.1747 3.05703 60.3011 2.36754 73.905 2.89999C84.8348 3.32709 98.2439 2.69888 110.004 2.2373C122.972 1.72976 134.72 2.79273 147.35 2.54949C150.206 2.49395 155.944 3.01107 149.181 3.61821C146.766 3.83464 143.391 3.87678 146.559 4.43029C148.207 4.71758 150.063 4.72906 152.465 4.55669C157.631 4.18321 163.408 4.21961 164.576 2.89041C165.9 1.39842 175.804 0.511654 185.033 1.23563C200.26 2.42884 214.461 1.49226 229.039 1.31031C232.349 1.26817 235.685 0.902367 237.411 1.53249C239.903 2.44033 244.187 3.32135 242.084 4.37666C240.436 5.20597 235.399 4.88229 231.998 4.80951C222.886 4.61607 214.63 5.11212 205.985 5.31705C194.678 5.58328 182.645 6.77074 172.183 4.97231C171.689 4.88803 169.937 4.82292 169.729 4.85931C154.464 7.72646 132.267 6.01805 114.574 6.15978C101.671 6.2632 85.9901 6.30724 71.828 5.85524C64.6237 5.62541 58.8991 6.2517 52.7722 6.94312C48.9429 6.16169 52.0583 4.91485 45.5939 4.30962L45.542 4.31728Z" fill="#FDEF9E"/>
<path d="M1089.41 61.9604C1093.63 61.9604 1097.05 63.4303 1099.65 66.3699C1102.25 69.2629 1103.55 73.3224 1103.55 78.5485V101.296H1094.59V79.8783C1094.59 76.7987 1093.89 74.4423 1092.48 72.8092C1091.07 71.1294 1089.15 70.2895 1086.72 70.2895C1084.25 70.2895 1082.28 71.1294 1080.83 72.8092C1079.42 74.4423 1078.72 76.7987 1078.72 79.8783V101.296H1069.76V62.5204H1078.72V67.3498C1079.91 65.67 1081.43 64.3635 1083.26 63.4303C1085.14 62.4504 1087.19 61.9604 1089.41 61.9604Z" fill="#BCA87D"/>
<path d="M1044.69 101.926C1041.28 101.926 1038.21 101.109 1035.47 99.4759C1032.74 97.7961 1030.59 95.4397 1029.01 92.4067C1027.47 89.3738 1026.71 85.8742 1026.71 81.908C1026.71 77.9418 1027.5 74.4422 1029.08 71.4092C1030.7 68.3763 1032.89 66.0432 1035.67 64.4101C1038.44 62.7303 1041.53 61.8904 1044.95 61.8904C1048.36 61.8904 1051.45 62.7303 1054.23 64.4101C1057 66.0432 1059.18 68.3763 1060.76 71.4092C1062.38 74.4422 1063.19 77.9418 1063.19 81.908C1063.19 85.8742 1062.35 89.3738 1060.69 92.4067C1059.07 95.4397 1056.85 97.7961 1054.04 99.4759C1051.26 101.109 1048.15 101.926 1044.69 101.926ZM1044.69 93.3866C1046.31 93.3866 1047.83 92.9667 1049.23 92.1268C1050.69 91.2402 1051.84 89.9337 1052.69 88.2072C1053.54 86.4808 1053.97 84.381 1053.97 81.908C1053.97 78.2218 1053.08 75.3988 1051.28 73.439C1049.53 71.4326 1047.38 70.4294 1044.82 70.4294C1042.26 70.4294 1040.1 71.4326 1038.35 73.439C1036.65 75.3988 1035.79 78.2218 1035.79 81.908C1035.79 85.5942 1036.63 88.4405 1038.29 90.447C1040 92.4067 1042.13 93.3866 1044.69 93.3866Z" fill="#BCA87D"/>
<path d="M1015.68 57.901C1014.1 57.901 1012.78 57.3644 1011.71 56.2912C1010.69 55.1713 1010.17 53.7948 1010.17 52.1617C1010.17 50.5285 1010.69 49.1754 1011.71 48.1022C1012.78 46.9823 1014.1 46.4224 1015.68 46.4224C1017.26 46.4224 1018.56 46.9823 1019.58 48.1022C1020.65 49.1754 1021.18 50.5285 1021.18 52.1617C1021.18 53.7948 1020.65 55.1713 1019.58 56.2912C1018.56 57.3644 1017.26 57.901 1015.68 57.901ZM1020.09 62.5204V101.296H1011.13V62.5204H1020.09Z" fill="#BCA87D"/>
<path d="M989.828 101.926C986.927 101.926 984.324 101.366 982.02 100.246C979.716 99.0793 977.881 97.5161 976.516 95.5563C975.193 93.5966 974.468 91.4268 974.34 89.0471H983.364C983.535 90.5403 984.196 91.7768 985.348 92.7567C986.543 93.7366 988.015 94.2265 989.764 94.2265C991.471 94.2265 992.793 93.8532 993.732 93.1066C994.713 92.3601 995.204 91.4035 995.204 90.237C995.204 88.9771 994.607 88.0439 993.412 87.4373C992.26 86.7841 990.404 86.0841 987.844 85.3376C985.199 84.6376 983.023 83.9144 981.316 83.1678C979.652 82.4213 978.201 81.2781 976.964 79.7382C975.769 78.1984 975.172 76.122 975.172 73.509C975.172 71.3626 975.727 69.4028 976.836 67.6297C977.988 65.8566 979.609 64.4567 981.7 63.4302C983.833 62.4037 986.329 61.8904 989.188 61.8904C993.412 61.8904 996.783 63.0569 999.3 65.39C1001.82 67.6764 1003.2 70.7793 1003.46 74.6988H994.884C994.756 73.159 994.159 71.9458 993.092 71.0593C992.068 70.1261 990.681 69.6594 988.932 69.6594C987.311 69.6594 986.052 69.9861 985.156 70.6393C984.303 71.2926 983.876 72.2025 983.876 73.369C983.876 74.6755 984.473 75.6787 985.668 76.3786C986.863 77.0319 988.719 77.7085 991.236 78.4084C993.796 79.1083 995.908 79.8316 997.572 80.5781C999.236 81.3247 1000.67 82.4912 1001.86 84.0777C1003.1 85.6175 1003.74 87.6706 1003.78 90.237C1003.78 92.4767 1003.2 94.4831 1002.05 96.2563C1000.94 98.0294 999.321 99.4292 997.188 100.456C995.097 101.436 992.644 101.926 989.828 101.926Z" fill="#BCA87D"/>
<path d="M954.953 101.926C952.052 101.926 949.449 101.366 947.145 100.246C944.841 99.0793 943.006 97.5161 941.641 95.5563C940.318 93.5966 939.593 91.4268 939.465 89.0471H948.489C948.66 90.5403 949.321 91.7768 950.473 92.7567C951.668 93.7366 953.14 94.2265 954.889 94.2265C956.596 94.2265 957.918 93.8532 958.857 93.1066C959.838 92.3601 960.329 91.4035 960.329 90.237C960.329 88.9771 959.732 88.0439 958.537 87.4373C957.385 86.7841 955.529 86.0841 952.969 85.3376C950.324 84.6376 948.148 83.9144 946.441 83.1678C944.777 82.4213 943.326 81.2781 942.089 79.7382C940.894 78.1984 940.297 76.122 940.297 73.509C940.297 71.3626 940.852 69.4028 941.961 67.6297C943.113 65.8566 944.734 64.4567 946.825 63.4302C948.958 62.4037 951.454 61.8904 954.313 61.8904C958.537 61.8904 961.908 63.0569 964.425 65.39C966.942 67.6764 968.329 70.7793 968.585 74.6988H960.009C959.881 73.159 959.284 71.9458 958.217 71.0593C957.193 70.1261 955.806 69.6594 954.057 69.6594C952.436 69.6594 951.177 69.9861 950.281 70.6393C949.428 71.2926 949.001 72.2025 949.001 73.369C949.001 74.6755 949.598 75.6787 950.793 76.3786C951.988 77.0319 953.844 77.7085 956.361 78.4084C958.921 79.1083 961.033 79.8316 962.697 80.5781C964.361 81.3247 965.79 82.4912 966.985 84.0777C968.222 85.6175 968.862 87.6706 968.905 90.237C968.905 92.4767 968.329 94.4831 967.177 96.2563C966.068 98.0294 964.446 99.4292 962.313 100.456C960.222 101.436 957.769 101.926 954.953 101.926Z" fill="#BCA87D"/>
<path d="M928.116 57.901C926.538 57.901 925.215 57.3644 924.148 56.2912C923.124 55.1713 922.612 53.7948 922.612 52.1617C922.612 50.5285 923.124 49.1754 924.148 48.1022C925.215 46.9823 926.538 46.4224 928.116 46.4224C929.695 46.4224 930.996 46.9823 932.02 48.1022C933.087 49.1754 933.62 50.5285 933.62 52.1617C933.62 53.7948 933.087 55.1713 932.02 56.2912C930.996 57.3644 929.695 57.901 928.116 57.901ZM932.532 62.5204V101.296H923.572V62.5204H932.532Z" fill="#BCA87D"/>
<path d="M914.714 52.4419V101.296H905.754V69.5198L893.786 101.296H887.002L874.97 69.5198V101.296H866.01V52.4419H876.186L890.394 88.7675L904.602 52.4419H914.714Z" fill="#BCA87D"/>
<path d="M833.845 68.5397C834.997 66.4866 836.49 64.8768 838.325 63.7102C840.202 62.5437 842.335 61.9604 844.725 61.9604V72.2492H842.357C839.541 72.2492 837.407 72.9725 835.957 74.419C834.549 75.8654 833.845 78.3851 833.845 81.9781V101.296H824.885V62.5204H833.845V68.5397Z" fill="#BCA87D"/>
<path d="M816.044 62.5205V101.296H807.02V96.3964C805.868 98.0762 804.353 99.4061 802.476 100.386C800.641 101.319 798.636 101.786 796.46 101.786C793.687 101.786 791.233 101.156 789.1 99.896C786.967 98.5895 785.281 96.6997 784.044 94.2267C782.849 91.707 782.252 88.7207 782.252 85.2678V62.5205H791.212V83.8679C791.212 86.9476 791.916 89.3273 793.324 91.0071C794.732 92.6402 796.652 93.4568 799.084 93.4568C801.559 93.4568 803.5 92.6402 804.908 91.0071C806.316 89.3273 807.02 86.9476 807.02 83.8679V62.5205H816.044Z" fill="#BCA87D"/>
<path d="M753.059 101.786C748.877 101.786 745.037 100.713 741.538 98.5663C738.04 96.4199 735.267 93.4569 733.219 89.6774C731.171 85.8512 730.146 81.535 730.146 76.7289C730.146 71.9695 731.171 67.7 733.219 63.9205C735.267 60.0943 738.04 57.108 741.538 54.9616C745.037 52.8151 748.877 51.7419 753.059 51.7419C757.283 51.7419 761.122 52.8151 764.578 54.9616C768.077 57.108 770.829 60.0943 772.835 63.9205C774.883 67.7 775.906 71.9695 775.906 76.7289C775.906 81.535 774.883 85.8512 772.835 89.6774C770.829 93.4569 768.077 96.4199 764.578 98.5663C761.08 100.713 757.24 101.786 753.059 101.786ZM753.059 93.037C755.747 93.037 758.115 92.3837 760.163 91.0772C762.211 89.7241 763.81 87.811 764.962 85.3379C766.114 82.8649 766.69 79.9952 766.69 76.7289C766.69 73.4627 766.114 70.6163 764.962 68.19C763.81 65.7169 762.211 63.8272 760.163 62.5206C758.115 61.2141 755.747 60.5609 753.059 60.5609C750.371 60.5609 747.981 61.2141 745.891 62.5206C743.843 63.8272 742.242 65.7169 741.09 68.19C739.938 70.6163 739.362 73.4627 739.362 76.7289C739.362 79.9952 739.938 82.8649 741.09 85.3379C742.242 87.811 743.843 89.7241 745.891 91.0772C747.981 92.3837 750.371 93.037 753.059 93.037Z" fill="#BCA87D"/>
<path d="M710.614 91.0071L703.126 110.675H697.366L701.526 91.0071H710.614Z" fill="#BCA87D"/>
<path d="M678.158 61.9604C682.382 61.9604 685.795 63.4303 688.398 66.3699C691 69.2629 692.302 73.3224 692.302 78.5485V101.296H683.342V79.8783C683.342 76.7987 682.638 74.4423 681.23 72.8092C679.822 71.1294 677.902 70.2895 675.47 70.2895C672.995 70.2895 671.032 71.1294 669.582 72.8092C668.174 74.4423 667.47 76.7987 667.47 79.8783V101.296H658.51V62.5204H667.47V67.3498C668.664 65.67 670.179 64.3635 672.014 63.4303C673.891 62.4504 675.939 61.9604 678.158 61.9604Z" fill="#BCA87D"/>
<path d="M633.441 101.926C630.028 101.926 626.956 101.109 624.225 99.4759C621.494 97.7961 619.34 95.4397 617.761 92.4067C616.225 89.3738 615.457 85.8742 615.457 81.908C615.457 77.9418 616.246 74.4422 617.825 71.4092C619.446 68.3763 621.644 66.0432 624.417 64.4101C627.19 62.7303 630.284 61.8904 633.697 61.8904C637.11 61.8904 640.204 62.7303 642.977 64.4101C645.75 66.0432 647.926 68.3763 649.505 71.4092C651.126 74.4422 651.937 77.9418 651.937 81.908C651.937 85.8742 651.105 89.3738 649.441 92.4067C647.82 95.4397 645.601 97.7961 642.785 99.4759C640.012 101.109 636.897 101.926 633.441 101.926ZM633.441 93.3866C635.062 93.3866 636.577 92.9667 637.985 92.1268C639.436 91.2402 640.588 89.9337 641.441 88.2072C642.294 86.4808 642.721 84.381 642.721 81.908C642.721 78.2218 641.825 75.3988 640.033 73.439C638.284 71.4326 636.129 70.4294 633.569 70.4294C631.009 70.4294 628.854 71.4326 627.105 73.439C625.398 75.3988 624.545 78.2218 624.545 81.908C624.545 85.5942 625.377 88.4405 627.041 90.447C628.748 92.4067 630.881 93.3866 633.441 93.3866Z" fill="#BCA87D"/>
<path d="M604.429 57.901C602.85 57.901 601.527 57.3644 600.461 56.2912C599.437 55.1713 598.925 53.7948 598.925 52.1617C598.925 50.5285 599.437 49.1754 600.461 48.1022C601.527 46.9823 602.85 46.4224 604.429 46.4224C606.007 46.4224 607.309 46.9823 608.333 48.1022C609.399 49.1754 609.933 50.5285 609.933 52.1617C609.933 53.7948 609.399 55.1713 608.333 56.2912C607.309 57.3644 606.007 57.901 604.429 57.901ZM608.845 62.5204V101.296H599.885V62.5204H608.845Z" fill="#BCA87D"/>
<path d="M578.578 101.926C575.677 101.926 573.074 101.366 570.77 100.246C568.466 99.0793 566.631 97.5161 565.266 95.5563C563.943 93.5966 563.218 91.4268 563.09 89.0471H572.114C572.285 90.5403 572.946 91.7768 574.098 92.7567C575.293 93.7366 576.765 94.2265 578.514 94.2265C580.221 94.2265 581.543 93.8532 582.482 93.1066C583.463 92.3601 583.954 91.4035 583.954 90.237C583.954 88.9771 583.357 88.0439 582.162 87.4373C581.01 86.7841 579.154 86.0841 576.594 85.3376C573.949 84.6376 571.773 83.9144 570.066 83.1678C568.402 82.4213 566.951 81.2781 565.714 79.7382C564.519 78.1984 563.922 76.122 563.922 73.509C563.922 71.3626 564.477 69.4028 565.586 67.6297C566.738 65.8566 568.359 64.4567 570.45 63.4302C572.583 62.4037 575.079 61.8904 577.938 61.8904C582.162 61.8904 585.533 63.0569 588.05 65.39C590.567 67.6764 591.954 70.7793 592.21 74.6988H583.634C583.506 73.159 582.909 71.9458 581.842 71.0593C580.818 70.1261 579.431 69.6594 577.682 69.6594C576.061 69.6594 574.802 69.9861 573.906 70.6393C573.053 71.2926 572.626 72.2025 572.626 73.369C572.626 74.6755 573.223 75.6787 574.418 76.3786C575.613 77.0319 577.469 77.7085 579.986 78.4084C582.546 79.1083 584.658 79.8316 586.322 80.5781C587.986 81.3247 589.415 82.4912 590.61 84.0777C591.847 85.6175 592.487 87.6706 592.53 90.237C592.53 92.4767 591.954 94.4831 590.802 96.2563C589.693 98.0294 588.071 99.4292 585.938 100.456C583.847 101.436 581.394 101.926 578.578 101.926Z" fill="#BCA87D"/>
<path d="M551.741 57.901C550.163 57.901 548.84 57.3644 547.773 56.2912C546.749 55.1713 546.237 53.7948 546.237 52.1617C546.237 50.5285 546.749 49.1754 547.773 48.1022C548.84 46.9823 550.163 46.4224 551.741 46.4224C553.32 46.4224 554.621 46.9823 555.645 48.1022C556.712 49.1754 557.245 50.5285 557.245 52.1617C557.245 53.7948 556.712 55.1713 555.645 56.2912C554.621 57.3644 553.32 57.901 551.741 57.901ZM556.157 62.5204V101.296H547.197V62.5204H556.157Z" fill="#BCA87D"/>
<path d="M541.826 52.4419L525.442 101.296H514.562L498.178 52.4419H507.778L520.066 91.2872L532.29 52.4419H541.826Z" fill="#BCA87D"/>
<path d="M469.532 68.5397C470.684 66.4866 472.178 64.8768 474.012 63.7102C475.89 62.5437 478.023 61.9604 480.412 61.9604V72.2492H478.044C475.228 72.2492 473.095 72.9725 471.644 74.419C470.236 75.8654 469.532 78.3851 469.532 81.9781V101.296H460.572V62.5204H469.532V68.5397Z" fill="#BCA87D"/>
<path d="M451.731 62.5205V101.296H442.707V96.3964C441.555 98.0762 440.041 99.4061 438.163 100.386C436.329 101.319 434.323 101.786 432.147 101.786C429.374 101.786 426.921 101.156 424.787 99.896C422.654 98.5895 420.969 96.6997 419.731 94.2267C418.537 91.707 417.939 88.7207 417.939 85.2678V62.5205H426.899V83.8679C426.899 86.9476 427.603 89.3273 429.011 91.0071C430.419 92.6402 432.339 93.4568 434.771 93.4568C437.246 93.4568 439.187 92.6402 440.595 91.0071C442.003 89.3273 442.707 86.9476 442.707 83.8679V62.5205H451.731Z" fill="#BCA87D"/>
<path d="M393.191 101.926C389.778 101.926 386.706 101.109 383.975 99.4759C381.244 97.7961 379.09 95.4397 377.511 92.4067C375.975 89.3738 375.207 85.8742 375.207 81.908C375.207 77.9418 375.996 74.4422 377.575 71.4092C379.196 68.3763 381.394 66.0432 384.167 64.4101C386.94 62.7303 390.034 61.8904 393.447 61.8904C396.86 61.8904 399.954 62.7303 402.727 64.4101C405.5 66.0432 407.676 68.3763 409.255 71.4092C410.876 74.4422 411.687 77.9418 411.687 81.908C411.687 85.8742 410.855 89.3738 409.191 92.4067C407.57 95.4397 405.351 97.7961 402.535 99.4759C399.762 101.109 396.647 101.926 393.191 101.926ZM393.191 93.3866C394.812 93.3866 396.327 92.9667 397.735 92.1268C399.186 91.2402 400.338 89.9337 401.191 88.2072C402.044 86.4808 402.471 84.381 402.471 81.908C402.471 78.2218 401.575 75.3988 399.783 73.439C398.034 71.4326 395.879 70.4294 393.319 70.4294C390.759 70.4294 388.604 71.4326 386.855 73.439C385.148 75.3988 384.295 78.2218 384.295 81.908C384.295 85.5942 385.127 88.4405 386.791 90.447C388.498 92.4067 390.631 93.3866 393.191 93.3866Z" fill="#BCA87D"/>
<path d="M372.28 52.4419L357.176 84.2881V101.296H348.216V84.2881L333.048 52.4419H343.16L352.76 74.7692L362.296 52.4419H372.28Z" fill="#BCA87D"/>
</svg>
